%FSLAX46Y46*%
G04 Gerber Fmt 4.6, Leading zero omitted, Abs format (unit mm)*
G04 Created by KiCad (PCBNEW (2014-08-05 BZR 5054)-product) date Sat 01 Nov 2014 10:19:19 PM PDT*
%MOMM*%
G01*
G04 APERTURE LIST*
%ADD10C,0.152400*%
%ADD11R,6.096000X6.096000*%
%ADD12C,1.270000*%
%ADD13R,1.727200X2.032000*%
%ADD14O,1.727200X2.032000*%
%ADD15R,2.032000X1.727200*%
%ADD16O,2.032000X1.727200*%
%ADD17R,2.032000X2.032000*%
%ADD18O,2.032000X2.032000*%
%ADD19C,0.889000*%
%ADD20C,0.254000*%
G04 APERTURE END LIST*
D10*
D11*
X153670000Y-111760000D03*
X153670000Y-98806000D03*
X153670000Y-124714000D03*
D12*
X185420000Y-124777500D03*
X187960000Y-124777500D03*
X185420000Y-122237500D03*
X187960000Y-122237500D03*
X185420000Y-119697500D03*
X187960000Y-119697500D03*
X185420000Y-117157500D03*
X187960000Y-117157500D03*
X185420000Y-114617500D03*
X187960000Y-114617500D03*
X185420000Y-112077500D03*
X187960000Y-112077500D03*
X185420000Y-109537500D03*
X187960000Y-109537500D03*
X185420000Y-106997500D03*
X187960000Y-106997500D03*
D13*
X154686000Y-88900000D03*
D14*
X157226000Y-88900000D03*
X159766000Y-88900000D03*
X162306000Y-88900000D03*
X164846000Y-88900000D03*
X167386000Y-88900000D03*
X169926000Y-88900000D03*
X172466000Y-88900000D03*
D13*
X176530000Y-88900000D03*
D14*
X179070000Y-88900000D03*
X181610000Y-88900000D03*
X184150000Y-88900000D03*
X186690000Y-88900000D03*
X189230000Y-88900000D03*
X191770000Y-88900000D03*
X194310000Y-88900000D03*
D15*
X137604500Y-137096500D03*
D16*
X137604500Y-134556500D03*
X137604500Y-132016500D03*
X137604500Y-129476500D03*
D17*
X153289000Y-137287000D03*
D18*
X155829000Y-137287000D03*
D13*
X163830000Y-137160000D03*
D14*
X166370000Y-137160000D03*
X168910000Y-137160000D03*
X171450000Y-137160000D03*
X173990000Y-137160000D03*
X176530000Y-137160000D03*
D13*
X181610000Y-137223500D03*
D14*
X184150000Y-137223500D03*
X186690000Y-137223500D03*
X189230000Y-137223500D03*
X191770000Y-137223500D03*
X194310000Y-137223500D03*
D19*
X173634400Y-126695200D03*
X168503600Y-121716800D03*
X132689600Y-91694000D03*
X138988800Y-88138000D03*
X141020800Y-97180400D03*
X159918400Y-128828800D03*
X182168800Y-124155200D03*
X166268400Y-119837200D03*
X142036800Y-118313200D03*
X171500800Y-105054400D03*
X172262800Y-110388400D03*
X161036000Y-94589600D03*
X165404800Y-96367600D03*
X171704000Y-94589600D03*
X164896800Y-103174800D03*
X165709600Y-115417600D03*
X167843200Y-113944400D03*
X171551600Y-116179600D03*
X157530800Y-122834400D03*
X138785600Y-105460800D03*
X139090400Y-119583200D03*
X159613600Y-123037600D03*
X168706800Y-125018800D03*
X175107600Y-125069600D03*
X158445200Y-124866400D03*
X165608000Y-127965200D03*
X175666400Y-128778000D03*
X180187600Y-128879600D03*
X189077600Y-128727200D03*
X141681200Y-114909600D03*
X143052800Y-117805200D03*
X135432800Y-104140000D03*
X135636000Y-120446800D03*
X145999200Y-136956800D03*
X169722800Y-133299200D03*
X176733200Y-133350000D03*
X180848000Y-133451600D03*
X145186400Y-134366000D03*
X145135600Y-129895600D03*
X170789600Y-132181600D03*
X175666400Y-132232400D03*
X183286400Y-132283200D03*
X148437600Y-129032000D03*
X169621200Y-131114800D03*
X177088800Y-131165600D03*
X156464000Y-130149600D03*
X170586400Y-130048000D03*
X175920400Y-130149600D03*
X142595600Y-127508000D03*
X153733500Y-92646500D03*
X166497000Y-98234500D03*
X181051200Y-93319600D03*
X177444400Y-93218000D03*
X174040800Y-101346000D03*
X173990000Y-97078800D03*
X166052500Y-92519500D03*
X155511500Y-93726000D03*
X162560000Y-96266000D03*
X157607000Y-94869000D03*
D20*
X166370000Y-115417600D02*
X165709600Y-115417600D01*
X167843200Y-113944400D02*
X166370000Y-115417600D01*
X164185600Y-116179600D02*
X171551600Y-116179600D01*
X157530800Y-122834400D02*
X164185600Y-116179600D01*
X153670000Y-98806000D02*
X145440400Y-98806000D01*
X145440400Y-98806000D02*
X138785600Y-105460800D01*
X144221200Y-124714000D02*
X153670000Y-124714000D01*
X139090400Y-119583200D02*
X144221200Y-124714000D01*
X194310000Y-137223500D02*
X194310000Y-129997200D01*
X166725600Y-123037600D02*
X159613600Y-123037600D01*
X168706800Y-125018800D02*
X166725600Y-123037600D01*
X183642000Y-125069600D02*
X175107600Y-125069600D01*
X185369200Y-126796800D02*
X183642000Y-125069600D01*
X191109600Y-126796800D02*
X185369200Y-126796800D01*
X194310000Y-129997200D02*
X191109600Y-126796800D01*
X191770000Y-137223500D02*
X191770000Y-131419600D01*
X159562800Y-125984000D02*
X158445200Y-124866400D01*
X163626800Y-125984000D02*
X159562800Y-125984000D01*
X165608000Y-127965200D02*
X163626800Y-125984000D01*
X180086000Y-128778000D02*
X175666400Y-128778000D01*
X180187600Y-128879600D02*
X180086000Y-128778000D01*
X191770000Y-131419600D02*
X189077600Y-128727200D01*
X141681200Y-116433600D02*
X141681200Y-114909600D01*
X143052800Y-117805200D02*
X141681200Y-116433600D01*
X134162800Y-105410000D02*
X135432800Y-104140000D01*
X134162800Y-118973600D02*
X134162800Y-105410000D01*
X135636000Y-120446800D02*
X134162800Y-118973600D01*
X145999200Y-136956800D02*
X137744200Y-136956800D01*
X137744200Y-136956800D02*
X137604500Y-137096500D01*
X146913600Y-137871200D02*
X145999200Y-136956800D01*
X148844000Y-137871200D02*
X146913600Y-137871200D01*
X153416000Y-133299200D02*
X148844000Y-137871200D01*
X169722800Y-133299200D02*
X153416000Y-133299200D01*
X180746400Y-133350000D02*
X176733200Y-133350000D01*
X180848000Y-133451600D02*
X180746400Y-133350000D01*
X137604500Y-134556500D02*
X144995900Y-134556500D01*
X144995900Y-134556500D02*
X145186400Y-134366000D01*
X153466800Y-129895600D02*
X145135600Y-129895600D01*
X155702000Y-132130800D02*
X153466800Y-129895600D01*
X170738800Y-132130800D02*
X155702000Y-132130800D01*
X170789600Y-132181600D02*
X170738800Y-132130800D01*
X183235600Y-132232400D02*
X175666400Y-132232400D01*
X183286400Y-132283200D02*
X183235600Y-132232400D01*
X186690000Y-137223500D02*
X186690000Y-133299200D01*
X153822400Y-129032000D02*
X148437600Y-129032000D01*
X155956000Y-131165600D02*
X153822400Y-129032000D01*
X169570400Y-131165600D02*
X155956000Y-131165600D01*
X169621200Y-131114800D02*
X169570400Y-131165600D01*
X184556400Y-131165600D02*
X177088800Y-131165600D01*
X186690000Y-133299200D02*
X184556400Y-131165600D01*
X189230000Y-137223500D02*
X189230000Y-133146800D01*
X170484800Y-130149600D02*
X156464000Y-130149600D01*
X170586400Y-130048000D02*
X170484800Y-130149600D01*
X186232800Y-130149600D02*
X175920400Y-130149600D01*
X189230000Y-133146800D02*
X186232800Y-130149600D01*
X137604500Y-129476500D02*
X140627100Y-129476500D01*
X140627100Y-129476500D02*
X142595600Y-127508000D01*
X162306000Y-88900000D02*
X162306000Y-90297000D01*
X159956500Y-92646500D02*
X153733500Y-92646500D01*
X162306000Y-90297000D02*
X159956500Y-92646500D01*
X167386000Y-88900000D02*
X167386000Y-97345500D01*
X167386000Y-97345500D02*
X166497000Y-98234500D01*
X176530000Y-88900000D02*
X176530000Y-92303600D01*
X183235600Y-109893100D02*
X185420000Y-112077500D01*
X183235600Y-95504000D02*
X183235600Y-109893100D01*
X181051200Y-93319600D02*
X183235600Y-95504000D01*
X176530000Y-92303600D02*
X177444400Y-93218000D01*
X179070000Y-108267500D02*
X185420000Y-114617500D01*
X179070000Y-88900000D02*
X179070000Y-108267500D01*
X174040800Y-97129600D02*
X174040800Y-101346000D01*
X173990000Y-97078800D02*
X174040800Y-97129600D01*
X161480500Y-92519500D02*
X166052500Y-92519500D01*
X160210500Y-93789500D02*
X161480500Y-92519500D01*
X155575000Y-93789500D02*
X160210500Y-93789500D01*
X155511500Y-93726000D02*
X155575000Y-93789500D01*
X159004000Y-96266000D02*
X162560000Y-96266000D01*
X157607000Y-94869000D02*
X159004000Y-96266000D01*
G36*
X196313713Y-99466666D02*
X196221306Y-136891631D01*
X196217143Y-136897862D01*
X196165000Y-137160000D01*
X196165000Y-139015000D01*
X195808600Y-139015000D01*
X195808600Y-137408245D01*
X195808600Y-137038755D01*
X195694526Y-136465266D01*
X195369670Y-135979085D01*
X195072000Y-135780188D01*
X195072000Y-129997200D01*
X195013996Y-129705595D01*
X194848815Y-129458385D01*
X191648415Y-126257985D01*
X191401205Y-126092804D01*
X191109600Y-126034800D01*
X189242681Y-126034800D01*
X189242681Y-114794836D01*
X189212906Y-114290477D01*
X189077179Y-113962803D01*
X188848133Y-113908972D01*
X188139605Y-114617500D01*
X188848133Y-115326028D01*
X189077179Y-115272197D01*
X189242681Y-114794836D01*
X189242681Y-126034800D01*
X188242778Y-126034800D01*
X188678458Y-125854782D01*
X189036026Y-125497837D01*
X189229779Y-125031227D01*
X189230220Y-124525990D01*
X189037282Y-124059042D01*
X188680337Y-123701474D01*
X188213727Y-123507721D01*
X188211512Y-123507719D01*
X188678458Y-123314782D01*
X189036026Y-122957837D01*
X189229779Y-122491227D01*
X189230220Y-121985990D01*
X189037282Y-121519042D01*
X188680337Y-121161474D01*
X188213727Y-120967721D01*
X188211512Y-120967719D01*
X188678458Y-120774782D01*
X189036026Y-120417837D01*
X189229779Y-119951227D01*
X189230220Y-119445990D01*
X189037282Y-118979042D01*
X188680337Y-118621474D01*
X188213727Y-118427721D01*
X188211512Y-118427719D01*
X188678458Y-118234782D01*
X189036026Y-117877837D01*
X189229779Y-117411227D01*
X189230220Y-116905990D01*
X189037282Y-116439042D01*
X188680337Y-116081474D01*
X188213727Y-115887721D01*
X187996929Y-115887531D01*
X188287023Y-115870406D01*
X188614697Y-115734679D01*
X188668528Y-115505633D01*
X187960000Y-114797105D01*
X187251472Y-115505633D01*
X187305303Y-115734679D01*
X187745546Y-115887312D01*
X187708490Y-115887280D01*
X187241542Y-116080218D01*
X186883974Y-116437163D01*
X186690221Y-116903773D01*
X186690219Y-116905987D01*
X186497282Y-116439042D01*
X186140337Y-116081474D01*
X185673727Y-115887721D01*
X185671512Y-115887719D01*
X186138458Y-115694782D01*
X186496026Y-115337837D01*
X186689779Y-114871227D01*
X186689968Y-114654429D01*
X186707094Y-114944523D01*
X186842821Y-115272197D01*
X187071867Y-115326028D01*
X187780395Y-114617500D01*
X187071867Y-113908972D01*
X186842821Y-113962803D01*
X186690187Y-114403046D01*
X186690220Y-114365990D01*
X186497282Y-113899042D01*
X186140337Y-113541474D01*
X185673727Y-113347721D01*
X185671512Y-113347719D01*
X186138458Y-113154782D01*
X186496026Y-112797837D01*
X186689779Y-112331227D01*
X186689780Y-112329012D01*
X186882718Y-112795958D01*
X187239663Y-113153526D01*
X187706273Y-113347279D01*
X187923070Y-113347468D01*
X187632977Y-113364594D01*
X187305303Y-113500321D01*
X187251472Y-113729367D01*
X187960000Y-114437895D01*
X188668528Y-113729367D01*
X188614697Y-113500321D01*
X188174453Y-113347687D01*
X188211510Y-113347720D01*
X188678458Y-113154782D01*
X189036026Y-112797837D01*
X189229779Y-112331227D01*
X189230220Y-111825990D01*
X189037282Y-111359042D01*
X188680337Y-111001474D01*
X188213727Y-110807721D01*
X188211512Y-110807719D01*
X188678458Y-110614782D01*
X189036026Y-110257837D01*
X189229779Y-109791227D01*
X189230220Y-109285990D01*
X189037282Y-108819042D01*
X188680337Y-108461474D01*
X188213727Y-108267721D01*
X188211512Y-108267719D01*
X188678458Y-108074782D01*
X189036026Y-107717837D01*
X189229779Y-107251227D01*
X189230220Y-106745990D01*
X189037282Y-106279042D01*
X188680337Y-105921474D01*
X188213727Y-105727721D01*
X187708490Y-105727280D01*
X187241542Y-105920218D01*
X186883974Y-106277163D01*
X186690221Y-106743773D01*
X186690219Y-106745987D01*
X186497282Y-106279042D01*
X186140337Y-105921474D01*
X185673727Y-105727721D01*
X185168490Y-105727280D01*
X184701542Y-105920218D01*
X184343974Y-106277163D01*
X184150221Y-106743773D01*
X184149780Y-107249010D01*
X184342718Y-107715958D01*
X184699663Y-108073526D01*
X185166273Y-108267279D01*
X185168487Y-108267280D01*
X184701542Y-108460218D01*
X184343974Y-108817163D01*
X184150221Y-109283773D01*
X184149831Y-109729701D01*
X183997600Y-109577470D01*
X183997600Y-95504000D01*
X183939596Y-95212395D01*
X183774415Y-94965185D01*
X182130699Y-93321469D01*
X182130887Y-93105816D01*
X181966889Y-92708911D01*
X181663486Y-92404978D01*
X181266868Y-92240287D01*
X180837416Y-92239913D01*
X180440511Y-92403911D01*
X180136578Y-92707314D01*
X179971887Y-93103932D01*
X179971513Y-93533384D01*
X180135511Y-93930289D01*
X180438914Y-94234222D01*
X180835532Y-94398913D01*
X181053072Y-94399102D01*
X182473600Y-95819630D01*
X182473600Y-109893100D01*
X182531604Y-110184705D01*
X182696785Y-110431915D01*
X184150167Y-111885297D01*
X184149831Y-112269701D01*
X179832000Y-107951870D01*
X179832000Y-90343311D01*
X180129670Y-90144415D01*
X180340000Y-89829634D01*
X180550330Y-90144415D01*
X181036511Y-90469271D01*
X181610000Y-90583345D01*
X182183489Y-90469271D01*
X182669670Y-90144415D01*
X182880000Y-89829634D01*
X183090330Y-90144415D01*
X183576511Y-90469271D01*
X184150000Y-90583345D01*
X184723489Y-90469271D01*
X185209670Y-90144415D01*
X185420000Y-89829634D01*
X185630330Y-90144415D01*
X186116511Y-90469271D01*
X186690000Y-90583345D01*
X187263489Y-90469271D01*
X187749670Y-90144415D01*
X187960000Y-89829634D01*
X188170330Y-90144415D01*
X188656511Y-90469271D01*
X189230000Y-90583345D01*
X189803489Y-90469271D01*
X190289670Y-90144415D01*
X190500000Y-89829634D01*
X190710330Y-90144415D01*
X191196511Y-90469271D01*
X191770000Y-90583345D01*
X192343489Y-90469271D01*
X192829670Y-90144415D01*
X193040000Y-89829634D01*
X193250330Y-90144415D01*
X193736511Y-90469271D01*
X194310000Y-90583345D01*
X194883489Y-90469271D01*
X195369670Y-90144415D01*
X195694526Y-89658234D01*
X195808600Y-89084745D01*
X195808600Y-88715255D01*
X195694526Y-88141766D01*
X195369670Y-87655585D01*
X194883489Y-87330729D01*
X194310000Y-87216655D01*
X193736511Y-87330729D01*
X193250330Y-87655585D01*
X193040000Y-87970365D01*
X192829670Y-87655585D01*
X192343489Y-87330729D01*
X191770000Y-87216655D01*
X191196511Y-87330729D01*
X190710330Y-87655585D01*
X190500000Y-87970365D01*
X190289670Y-87655585D01*
X189803489Y-87330729D01*
X189230000Y-87216655D01*
X188656511Y-87330729D01*
X188170330Y-87655585D01*
X187960000Y-87970365D01*
X187749670Y-87655585D01*
X187263489Y-87330729D01*
X186690000Y-87216655D01*
X186116511Y-87330729D01*
X185630330Y-87655585D01*
X185420000Y-87970365D01*
X185209670Y-87655585D01*
X184723489Y-87330729D01*
X184150000Y-87216655D01*
X183576511Y-87330729D01*
X183090330Y-87655585D01*
X182880000Y-87970365D01*
X182669670Y-87655585D01*
X182183489Y-87330729D01*
X181610000Y-87216655D01*
X181036511Y-87330729D01*
X180550330Y-87655585D01*
X180340000Y-87970365D01*
X180129670Y-87655585D01*
X179643489Y-87330729D01*
X179070000Y-87216655D01*
X178496511Y-87330729D01*
X178010330Y-87655585D01*
X177995499Y-87677780D01*
X177931927Y-87524302D01*
X177753299Y-87345673D01*
X177519910Y-87249000D01*
X177267291Y-87249000D01*
X175540091Y-87249000D01*
X175306702Y-87345673D01*
X175128073Y-87524301D01*
X175031400Y-87757690D01*
X175031400Y-88010309D01*
X175031400Y-90042309D01*
X175128073Y-90275698D01*
X175306701Y-90454327D01*
X175540090Y-90551000D01*
X175768000Y-90551000D01*
X175768000Y-92303600D01*
X175826004Y-92595205D01*
X175991185Y-92842415D01*
X176364900Y-93216130D01*
X176364713Y-93431784D01*
X176528711Y-93828689D01*
X176832114Y-94132622D01*
X177228732Y-94297313D01*
X177658184Y-94297687D01*
X178055089Y-94133689D01*
X178308000Y-93881219D01*
X178308000Y-108267500D01*
X178366004Y-108559105D01*
X178531185Y-108806315D01*
X184150167Y-114425297D01*
X184149780Y-114869010D01*
X184342718Y-115335958D01*
X184699663Y-115693526D01*
X185166273Y-115887279D01*
X185168487Y-115887280D01*
X184701542Y-116080218D01*
X184343974Y-116437163D01*
X184150221Y-116903773D01*
X184149780Y-117409010D01*
X184342718Y-117875958D01*
X184699663Y-118233526D01*
X185166273Y-118427279D01*
X185383070Y-118427468D01*
X185092977Y-118444594D01*
X184765303Y-118580321D01*
X184711472Y-118809367D01*
X185420000Y-119517895D01*
X186128528Y-118809367D01*
X186074697Y-118580321D01*
X185634453Y-118427687D01*
X185671510Y-118427720D01*
X186138458Y-118234782D01*
X186496026Y-117877837D01*
X186689779Y-117411227D01*
X186689780Y-117409012D01*
X186882718Y-117875958D01*
X187239663Y-118233526D01*
X187706273Y-118427279D01*
X187708487Y-118427280D01*
X187241542Y-118620218D01*
X186883974Y-118977163D01*
X186690221Y-119443773D01*
X186690031Y-119660570D01*
X186672906Y-119370477D01*
X186537179Y-119042803D01*
X186308133Y-118988972D01*
X185599605Y-119697500D01*
X186308133Y-120406028D01*
X186537179Y-120352197D01*
X186689812Y-119911953D01*
X186689780Y-119949010D01*
X186882718Y-120415958D01*
X187239663Y-120773526D01*
X187706273Y-120967279D01*
X187708487Y-120967280D01*
X187241542Y-121160218D01*
X186883974Y-121517163D01*
X186690221Y-121983773D01*
X186690031Y-122200570D01*
X186672906Y-121910477D01*
X186537179Y-121582803D01*
X186308133Y-121528972D01*
X186128528Y-121708577D01*
X186128528Y-121349367D01*
X186074697Y-121120321D01*
X185608239Y-120958599D01*
X185747023Y-120950406D01*
X186074697Y-120814679D01*
X186128528Y-120585633D01*
X185420000Y-119877105D01*
X185240395Y-120056710D01*
X185240395Y-119697500D01*
X184531867Y-118988972D01*
X184302821Y-119042803D01*
X184137319Y-119520164D01*
X184167094Y-120024523D01*
X184302821Y-120352197D01*
X184531867Y-120406028D01*
X185240395Y-119697500D01*
X185240395Y-120056710D01*
X184711472Y-120585633D01*
X184765303Y-120814679D01*
X185231760Y-120976400D01*
X185092977Y-120984594D01*
X184765303Y-121120321D01*
X184711472Y-121349367D01*
X185420000Y-122057895D01*
X186128528Y-121349367D01*
X186128528Y-121708577D01*
X185599605Y-122237500D01*
X186308133Y-122946028D01*
X186537179Y-122892197D01*
X186689812Y-122451953D01*
X186689780Y-122489010D01*
X186882718Y-122955958D01*
X187239663Y-123313526D01*
X187706273Y-123507279D01*
X187708487Y-123507280D01*
X187241542Y-123700218D01*
X186883974Y-124057163D01*
X186690221Y-124523773D01*
X186690031Y-124740570D01*
X186672906Y-124450477D01*
X186537179Y-124122803D01*
X186308133Y-124068972D01*
X186128528Y-124248577D01*
X186128528Y-123889367D01*
X186074697Y-123660321D01*
X185608239Y-123498599D01*
X185747023Y-123490406D01*
X186074697Y-123354679D01*
X186128528Y-123125633D01*
X185420000Y-122417105D01*
X185240395Y-122596710D01*
X185240395Y-122237500D01*
X184531867Y-121528972D01*
X184302821Y-121582803D01*
X184137319Y-122060164D01*
X184167094Y-122564523D01*
X184302821Y-122892197D01*
X184531867Y-122946028D01*
X185240395Y-122237500D01*
X185240395Y-122596710D01*
X184711472Y-123125633D01*
X184765303Y-123354679D01*
X185231760Y-123516400D01*
X185092977Y-123524594D01*
X184765303Y-123660321D01*
X184711472Y-123889367D01*
X185420000Y-124597895D01*
X186128528Y-123889367D01*
X186128528Y-124248577D01*
X185599605Y-124777500D01*
X186308133Y-125486028D01*
X186537179Y-125432197D01*
X186689812Y-124991953D01*
X186689780Y-125029010D01*
X186882718Y-125495958D01*
X187239663Y-125853526D01*
X187676220Y-126034800D01*
X185684830Y-126034800D01*
X185684148Y-126034117D01*
X185747023Y-126030406D01*
X186074697Y-125894679D01*
X186128528Y-125665633D01*
X185420000Y-124957105D01*
X185405857Y-124971247D01*
X185226252Y-124791642D01*
X185240395Y-124777500D01*
X184531867Y-124068972D01*
X184302821Y-124122803D01*
X184165029Y-124520237D01*
X183933605Y-124365604D01*
X183642000Y-124307600D01*
X175872241Y-124307600D01*
X175719886Y-124154978D01*
X175323268Y-123990287D01*
X175120487Y-123990110D01*
X175120487Y-101132216D01*
X174956489Y-100735311D01*
X174802800Y-100581353D01*
X174802800Y-97792730D01*
X174904622Y-97691086D01*
X175069313Y-97294468D01*
X175069687Y-96865016D01*
X174905689Y-96468111D01*
X174602286Y-96164178D01*
X174205668Y-95999487D01*
X173964600Y-95999277D01*
X173964600Y-89084745D01*
X173964600Y-88715255D01*
X173850526Y-88141766D01*
X173525670Y-87655585D01*
X173039489Y-87330729D01*
X172466000Y-87216655D01*
X171892511Y-87330729D01*
X171406330Y-87655585D01*
X171196000Y-87970365D01*
X170985670Y-87655585D01*
X170499489Y-87330729D01*
X169926000Y-87216655D01*
X169352511Y-87330729D01*
X168866330Y-87655585D01*
X168656000Y-87970365D01*
X168445670Y-87655585D01*
X167959489Y-87330729D01*
X167386000Y-87216655D01*
X166812511Y-87330729D01*
X166326330Y-87655585D01*
X166116000Y-87970365D01*
X165905670Y-87655585D01*
X165419489Y-87330729D01*
X164846000Y-87216655D01*
X164272511Y-87330729D01*
X163786330Y-87655585D01*
X163576000Y-87970365D01*
X163365670Y-87655585D01*
X162879489Y-87330729D01*
X162306000Y-87216655D01*
X161732511Y-87330729D01*
X161246330Y-87655585D01*
X161036000Y-87970365D01*
X160825670Y-87655585D01*
X160339489Y-87330729D01*
X159766000Y-87216655D01*
X159192511Y-87330729D01*
X158706330Y-87655585D01*
X158499539Y-87965069D01*
X158128036Y-87549268D01*
X157600791Y-87295291D01*
X157585026Y-87292642D01*
X157353000Y-87413783D01*
X157353000Y-88773000D01*
X157373000Y-88773000D01*
X157373000Y-89027000D01*
X157353000Y-89027000D01*
X157353000Y-90386217D01*
X157585026Y-90507358D01*
X157600791Y-90504709D01*
X158128036Y-90250732D01*
X158499539Y-89834930D01*
X158706330Y-90144415D01*
X159192511Y-90469271D01*
X159766000Y-90583345D01*
X160339489Y-90469271D01*
X160825670Y-90144415D01*
X161036000Y-89829634D01*
X161246330Y-90144415D01*
X161327031Y-90198337D01*
X159640869Y-91884500D01*
X157099000Y-91884500D01*
X157099000Y-90386217D01*
X157099000Y-89027000D01*
X157079000Y-89027000D01*
X157079000Y-88773000D01*
X157099000Y-88773000D01*
X157099000Y-87413783D01*
X156866974Y-87292642D01*
X156851209Y-87295291D01*
X156323964Y-87549268D01*
X156169758Y-87721860D01*
X156087927Y-87524302D01*
X155909299Y-87345673D01*
X155675910Y-87249000D01*
X155423291Y-87249000D01*
X153696091Y-87249000D01*
X153462702Y-87345673D01*
X153284073Y-87524301D01*
X153187400Y-87757690D01*
X153187400Y-88010309D01*
X153187400Y-90042309D01*
X153284073Y-90275698D01*
X153462701Y-90454327D01*
X153696090Y-90551000D01*
X153948709Y-90551000D01*
X155675909Y-90551000D01*
X155909298Y-90454327D01*
X156087927Y-90275699D01*
X156169758Y-90078139D01*
X156323964Y-90250732D01*
X156851209Y-90504709D01*
X156866974Y-90507358D01*
X157099000Y-90386217D01*
X157099000Y-91884500D01*
X154498141Y-91884500D01*
X154345786Y-91731878D01*
X153949168Y-91567187D01*
X153519716Y-91566813D01*
X153122811Y-91730811D01*
X152818878Y-92034214D01*
X152654187Y-92430832D01*
X152653813Y-92860284D01*
X152817811Y-93257189D01*
X153121214Y-93561122D01*
X153517832Y-93725813D01*
X153947284Y-93726187D01*
X154344189Y-93562189D01*
X154457710Y-93448865D01*
X154432187Y-93510332D01*
X154431813Y-93939784D01*
X154595811Y-94336689D01*
X154899214Y-94640622D01*
X155295832Y-94805313D01*
X155725284Y-94805687D01*
X156122189Y-94641689D01*
X156212535Y-94551500D01*
X156569971Y-94551500D01*
X156527687Y-94653332D01*
X156527313Y-95082784D01*
X156543929Y-95123000D01*
X150495691Y-95123000D01*
X150262302Y-95219673D01*
X150083673Y-95398301D01*
X149987000Y-95631690D01*
X149987000Y-95884309D01*
X149987000Y-98044000D01*
X145440400Y-98044000D01*
X145148795Y-98102004D01*
X144901584Y-98267185D01*
X138787469Y-104381300D01*
X138571816Y-104381113D01*
X138174911Y-104545111D01*
X137870978Y-104848514D01*
X137706287Y-105245132D01*
X137705913Y-105674584D01*
X137869911Y-106071489D01*
X138173314Y-106375422D01*
X138569932Y-106540113D01*
X138999384Y-106540487D01*
X139396289Y-106376489D01*
X139700222Y-106073086D01*
X139864913Y-105676468D01*
X139865102Y-105458927D01*
X145756030Y-99568000D01*
X149987000Y-99568000D01*
X149987000Y-101980309D01*
X150083673Y-102213698D01*
X150262301Y-102392327D01*
X150495690Y-102489000D01*
X150748309Y-102489000D01*
X156844309Y-102489000D01*
X157077698Y-102392327D01*
X157256327Y-102213699D01*
X157353000Y-101980310D01*
X157353000Y-101727691D01*
X157353000Y-95932396D01*
X157391332Y-95948313D01*
X157608872Y-95948502D01*
X158465184Y-96804815D01*
X158465185Y-96804815D01*
X158712395Y-96969996D01*
X159004000Y-97028000D01*
X161795358Y-97028000D01*
X161947714Y-97180622D01*
X162344332Y-97345313D01*
X162773784Y-97345687D01*
X163170689Y-97181689D01*
X163474622Y-96878286D01*
X163639313Y-96481668D01*
X163639687Y-96052216D01*
X163475689Y-95655311D01*
X163172286Y-95351378D01*
X162775668Y-95186687D01*
X162346216Y-95186313D01*
X161949311Y-95350311D01*
X161795353Y-95504000D01*
X159319630Y-95504000D01*
X158686499Y-94870868D01*
X158686687Y-94655216D01*
X158643832Y-94551500D01*
X160210500Y-94551500D01*
X160210500Y-94551499D01*
X160502104Y-94493496D01*
X160502105Y-94493496D01*
X160749315Y-94328315D01*
X161796130Y-93281500D01*
X165287858Y-93281500D01*
X165440214Y-93434122D01*
X165836832Y-93598813D01*
X166266284Y-93599187D01*
X166624000Y-93451381D01*
X166624000Y-97029870D01*
X166498869Y-97155000D01*
X166283216Y-97154813D01*
X165886311Y-97318811D01*
X165582378Y-97622214D01*
X165417687Y-98018832D01*
X165417313Y-98448284D01*
X165581311Y-98845189D01*
X165884714Y-99149122D01*
X166281332Y-99313813D01*
X166710784Y-99314187D01*
X167107689Y-99150189D01*
X167411622Y-98846786D01*
X167576313Y-98450168D01*
X167576502Y-98232627D01*
X167924815Y-97884315D01*
X168089996Y-97637105D01*
X168089996Y-97637104D01*
X168148000Y-97345500D01*
X168148000Y-90343311D01*
X168445670Y-90144415D01*
X168656000Y-89829634D01*
X168866330Y-90144415D01*
X169352511Y-90469271D01*
X169926000Y-90583345D01*
X170499489Y-90469271D01*
X170985670Y-90144415D01*
X171196000Y-89829634D01*
X171406330Y-90144415D01*
X171892511Y-90469271D01*
X172466000Y-90583345D01*
X173039489Y-90469271D01*
X173525670Y-90144415D01*
X173850526Y-89658234D01*
X173964600Y-89084745D01*
X173964600Y-95999277D01*
X173776216Y-95999113D01*
X173379311Y-96163111D01*
X173075378Y-96466514D01*
X172910687Y-96863132D01*
X172910313Y-97292584D01*
X173074311Y-97689489D01*
X173278800Y-97894335D01*
X173278800Y-100581358D01*
X173126178Y-100733714D01*
X172961487Y-101130332D01*
X172961113Y-101559784D01*
X173125111Y-101956689D01*
X173428514Y-102260622D01*
X173825132Y-102425313D01*
X174254584Y-102425687D01*
X174651489Y-102261689D01*
X174955422Y-101958286D01*
X175120113Y-101561668D01*
X175120487Y-101132216D01*
X175120487Y-123990110D01*
X174893816Y-123989913D01*
X174496911Y-124153911D01*
X174192978Y-124457314D01*
X174028287Y-124853932D01*
X174027913Y-125283384D01*
X174191911Y-125680289D01*
X174495314Y-125984222D01*
X174891932Y-126148913D01*
X175321384Y-126149287D01*
X175718289Y-125985289D01*
X175872246Y-125831600D01*
X183326369Y-125831600D01*
X184830385Y-127335616D01*
X184978576Y-127434634D01*
X185077595Y-127500796D01*
X185077596Y-127500796D01*
X185369200Y-127558800D01*
X190793970Y-127558800D01*
X193548000Y-130312830D01*
X193548000Y-135780188D01*
X193250330Y-135979085D01*
X193040000Y-136293865D01*
X192829670Y-135979085D01*
X192532000Y-135780188D01*
X192532000Y-131419600D01*
X192473997Y-131127996D01*
X192473996Y-131127995D01*
X192308816Y-130880785D01*
X190157099Y-128729068D01*
X190157287Y-128513416D01*
X189993289Y-128116511D01*
X189689886Y-127812578D01*
X189293268Y-127647887D01*
X188863816Y-127647513D01*
X188466911Y-127811511D01*
X188162978Y-128114914D01*
X187998287Y-128511532D01*
X187997913Y-128940984D01*
X188161911Y-129337889D01*
X188465314Y-129641822D01*
X188861932Y-129806513D01*
X189079472Y-129806702D01*
X191008000Y-131735230D01*
X191008000Y-135780188D01*
X190710330Y-135979085D01*
X190500000Y-136293865D01*
X190289670Y-135979085D01*
X189992000Y-135780188D01*
X189992000Y-133146800D01*
X189933996Y-132855196D01*
X189933996Y-132855195D01*
X189768815Y-132607985D01*
X186771615Y-129610785D01*
X186524405Y-129445604D01*
X186232800Y-129387600D01*
X181145525Y-129387600D01*
X181266913Y-129095268D01*
X181267287Y-128665816D01*
X181103289Y-128268911D01*
X180799886Y-127964978D01*
X180403268Y-127800287D01*
X179973816Y-127799913D01*
X179576911Y-127963911D01*
X179524731Y-128016000D01*
X176431041Y-128016000D01*
X176278686Y-127863378D01*
X175882068Y-127698687D01*
X175452616Y-127698313D01*
X175055711Y-127862311D01*
X174751778Y-128165714D01*
X174587087Y-128562332D01*
X174586713Y-128991784D01*
X174750711Y-129388689D01*
X174974432Y-129612801D01*
X174841087Y-129933932D01*
X174840713Y-130363384D01*
X175004711Y-130760289D01*
X175308114Y-131064222D01*
X175521367Y-131152772D01*
X175452616Y-131152713D01*
X175055711Y-131316711D01*
X174751778Y-131620114D01*
X174587087Y-132016732D01*
X174586713Y-132446184D01*
X174750711Y-132843089D01*
X175054114Y-133147022D01*
X175450732Y-133311713D01*
X175653732Y-133311889D01*
X175653513Y-133563784D01*
X175817511Y-133960689D01*
X176120914Y-134264622D01*
X176517532Y-134429313D01*
X176946984Y-134429687D01*
X177343889Y-134265689D01*
X177497846Y-134112000D01*
X179981935Y-134112000D01*
X180235714Y-134366222D01*
X180632332Y-134530913D01*
X181061784Y-134531287D01*
X181458689Y-134367289D01*
X181762622Y-134063886D01*
X181927313Y-133667268D01*
X181927687Y-133237816D01*
X181827109Y-132994400D01*
X182471046Y-132994400D01*
X182674114Y-133197822D01*
X183070732Y-133362513D01*
X183500184Y-133362887D01*
X183897089Y-133198889D01*
X184201022Y-132895486D01*
X184365713Y-132498868D01*
X184366087Y-132069416D01*
X184354469Y-132041299D01*
X185928000Y-133614830D01*
X185928000Y-135780188D01*
X185630330Y-135979085D01*
X185420000Y-136293865D01*
X185209670Y-135979085D01*
X184723489Y-135654229D01*
X184150000Y-135540155D01*
X183576511Y-135654229D01*
X183090330Y-135979085D01*
X183075499Y-136001280D01*
X183011927Y-135847802D01*
X182833299Y-135669173D01*
X182599910Y-135572500D01*
X182347291Y-135572500D01*
X180620091Y-135572500D01*
X180386702Y-135669173D01*
X180208073Y-135847801D01*
X180111400Y-136081190D01*
X180111400Y-136333809D01*
X180111400Y-138365809D01*
X180208073Y-138599198D01*
X180386701Y-138777827D01*
X180620090Y-138874500D01*
X180872709Y-138874500D01*
X182599909Y-138874500D01*
X182833298Y-138777827D01*
X183011927Y-138599199D01*
X183075500Y-138445720D01*
X183090330Y-138467915D01*
X183576511Y-138792771D01*
X184150000Y-138906845D01*
X184723489Y-138792771D01*
X185209670Y-138467915D01*
X185420000Y-138153134D01*
X185630330Y-138467915D01*
X186116511Y-138792771D01*
X186690000Y-138906845D01*
X187263489Y-138792771D01*
X187749670Y-138467915D01*
X187960000Y-138153134D01*
X188170330Y-138467915D01*
X188656511Y-138792771D01*
X189230000Y-138906845D01*
X189803489Y-138792771D01*
X190289670Y-138467915D01*
X190500000Y-138153134D01*
X190710330Y-138467915D01*
X191196511Y-138792771D01*
X191770000Y-138906845D01*
X192343489Y-138792771D01*
X192829670Y-138467915D01*
X193040000Y-138153134D01*
X193250330Y-138467915D01*
X193736511Y-138792771D01*
X194310000Y-138906845D01*
X194883489Y-138792771D01*
X195369670Y-138467915D01*
X195694526Y-137981734D01*
X195808600Y-137408245D01*
X195808600Y-139015000D01*
X178028600Y-139015000D01*
X178028600Y-137344745D01*
X178028600Y-136975255D01*
X177914526Y-136401766D01*
X177589670Y-135915585D01*
X177103489Y-135590729D01*
X176530000Y-135476655D01*
X175956511Y-135590729D01*
X175470330Y-135915585D01*
X175263539Y-136225069D01*
X174892036Y-135809268D01*
X174364791Y-135555291D01*
X174349026Y-135552642D01*
X174117000Y-135673783D01*
X174117000Y-137033000D01*
X174137000Y-137033000D01*
X174137000Y-137287000D01*
X174117000Y-137287000D01*
X174117000Y-138646217D01*
X174349026Y-138767358D01*
X174364791Y-138764709D01*
X174892036Y-138510732D01*
X175263539Y-138094930D01*
X175470330Y-138404415D01*
X175956511Y-138729271D01*
X176530000Y-138843345D01*
X177103489Y-138729271D01*
X177589670Y-138404415D01*
X177914526Y-137918234D01*
X178028600Y-137344745D01*
X178028600Y-139015000D01*
X173863000Y-139015000D01*
X173863000Y-138646217D01*
X173863000Y-137287000D01*
X173863000Y-137033000D01*
X173863000Y-135673783D01*
X173630974Y-135552642D01*
X173615209Y-135555291D01*
X173087964Y-135809268D01*
X172720000Y-136221108D01*
X172631287Y-136121816D01*
X172631287Y-115965816D01*
X172467289Y-115568911D01*
X172163886Y-115264978D01*
X171767268Y-115100287D01*
X171337816Y-115099913D01*
X170940911Y-115263911D01*
X170786953Y-115417600D01*
X167447630Y-115417600D01*
X167841331Y-115023899D01*
X168056984Y-115024087D01*
X168453889Y-114860089D01*
X168757822Y-114556686D01*
X168922513Y-114160068D01*
X168922887Y-113730616D01*
X168758889Y-113333711D01*
X168455486Y-113029778D01*
X168058868Y-112865087D01*
X167629416Y-112864713D01*
X167232511Y-113028711D01*
X166928578Y-113332114D01*
X166763887Y-113728732D01*
X166763697Y-113946271D01*
X166240702Y-114469267D01*
X165925268Y-114338287D01*
X165495816Y-114337913D01*
X165098911Y-114501911D01*
X164794978Y-114805314D01*
X164630287Y-115201932D01*
X164630099Y-115417600D01*
X164185600Y-115417600D01*
X163893995Y-115475604D01*
X163646784Y-115640785D01*
X157532669Y-121754900D01*
X157353000Y-121754744D01*
X157353000Y-121539691D01*
X157353000Y-114934309D01*
X157353000Y-112045750D01*
X157353000Y-111474250D01*
X157353000Y-108585691D01*
X157256327Y-108352302D01*
X157077699Y-108173673D01*
X156844310Y-108077000D01*
X156591691Y-108077000D01*
X153955750Y-108077000D01*
X153797000Y-108235750D01*
X153797000Y-111633000D01*
X157194250Y-111633000D01*
X157353000Y-111474250D01*
X157353000Y-112045750D01*
X157194250Y-111887000D01*
X153797000Y-111887000D01*
X153797000Y-115284250D01*
X153955750Y-115443000D01*
X156591691Y-115443000D01*
X156844310Y-115443000D01*
X157077699Y-115346327D01*
X157256327Y-115167698D01*
X157353000Y-114934309D01*
X157353000Y-121539691D01*
X157256327Y-121306302D01*
X157077699Y-121127673D01*
X156844310Y-121031000D01*
X156591691Y-121031000D01*
X153543000Y-121031000D01*
X153543000Y-115284250D01*
X153543000Y-111887000D01*
X153543000Y-111633000D01*
X153543000Y-108235750D01*
X153384250Y-108077000D01*
X150748309Y-108077000D01*
X150495690Y-108077000D01*
X150262301Y-108173673D01*
X150083673Y-108352302D01*
X149987000Y-108585691D01*
X149987000Y-111474250D01*
X150145750Y-111633000D01*
X153543000Y-111633000D01*
X153543000Y-111887000D01*
X150145750Y-111887000D01*
X149987000Y-112045750D01*
X149987000Y-114934309D01*
X150083673Y-115167698D01*
X150262301Y-115346327D01*
X150495690Y-115443000D01*
X150748309Y-115443000D01*
X153384250Y-115443000D01*
X153543000Y-115284250D01*
X153543000Y-121031000D01*
X150495691Y-121031000D01*
X150262302Y-121127673D01*
X150083673Y-121306301D01*
X149987000Y-121539690D01*
X149987000Y-121792309D01*
X149987000Y-123952000D01*
X144536830Y-123952000D01*
X144132487Y-123547657D01*
X144132487Y-117591416D01*
X143968489Y-117194511D01*
X143665086Y-116890578D01*
X143268468Y-116725887D01*
X143050928Y-116725697D01*
X142443200Y-116117969D01*
X142443200Y-115674241D01*
X142595822Y-115521886D01*
X142760513Y-115125268D01*
X142760887Y-114695816D01*
X142596889Y-114298911D01*
X142293486Y-113994978D01*
X141896868Y-113830287D01*
X141467416Y-113829913D01*
X141070511Y-113993911D01*
X140766578Y-114297314D01*
X140601887Y-114693932D01*
X140601513Y-115123384D01*
X140765511Y-115520289D01*
X140919200Y-115674246D01*
X140919200Y-116433600D01*
X140977204Y-116725205D01*
X141142385Y-116972415D01*
X141973300Y-117803331D01*
X141973113Y-118018984D01*
X142137111Y-118415889D01*
X142440514Y-118719822D01*
X142837132Y-118884513D01*
X143266584Y-118884887D01*
X143663489Y-118720889D01*
X143967422Y-118417486D01*
X144132113Y-118020868D01*
X144132487Y-117591416D01*
X144132487Y-123547657D01*
X140169899Y-119585069D01*
X140170087Y-119369416D01*
X140006089Y-118972511D01*
X139702686Y-118668578D01*
X139306068Y-118503887D01*
X138876616Y-118503513D01*
X138479711Y-118667511D01*
X138175778Y-118970914D01*
X138011087Y-119367532D01*
X138010713Y-119796984D01*
X138174711Y-120193889D01*
X138478114Y-120497822D01*
X138874732Y-120662513D01*
X139092272Y-120662702D01*
X143682385Y-125252815D01*
X143929595Y-125417996D01*
X143929596Y-125417996D01*
X144221200Y-125476000D01*
X149987000Y-125476000D01*
X149987000Y-127888309D01*
X150083673Y-128121698D01*
X150231974Y-128270000D01*
X149202241Y-128270000D01*
X149049886Y-128117378D01*
X148653268Y-127952687D01*
X148223816Y-127952313D01*
X147826911Y-128116311D01*
X147522978Y-128419714D01*
X147358287Y-128816332D01*
X147358010Y-129133600D01*
X145900241Y-129133600D01*
X145747886Y-128980978D01*
X145351268Y-128816287D01*
X144921816Y-128815913D01*
X144524911Y-128979911D01*
X144220978Y-129283314D01*
X144056287Y-129679932D01*
X144055913Y-130109384D01*
X144219911Y-130506289D01*
X144523314Y-130810222D01*
X144919932Y-130974913D01*
X145349384Y-130975287D01*
X145746289Y-130811289D01*
X145900246Y-130657600D01*
X153151170Y-130657600D01*
X155030770Y-132537200D01*
X153416000Y-132537200D01*
X153124395Y-132595204D01*
X152877184Y-132760385D01*
X148528369Y-137109200D01*
X147229230Y-137109200D01*
X147078699Y-136958669D01*
X147078887Y-136743016D01*
X146914889Y-136346111D01*
X146611486Y-136042178D01*
X146214868Y-135877487D01*
X145785416Y-135877113D01*
X145388511Y-136041111D01*
X145234553Y-136194800D01*
X139255500Y-136194800D01*
X139255500Y-136106591D01*
X139158827Y-135873202D01*
X138980199Y-135694573D01*
X138826720Y-135630999D01*
X138848915Y-135616170D01*
X139047811Y-135318500D01*
X144665333Y-135318500D01*
X144970732Y-135445313D01*
X145400184Y-135445687D01*
X145797089Y-135281689D01*
X146101022Y-134978286D01*
X146265713Y-134581668D01*
X146266087Y-134152216D01*
X146102089Y-133755311D01*
X145798686Y-133451378D01*
X145402068Y-133286687D01*
X144972616Y-133286313D01*
X144575711Y-133450311D01*
X144271778Y-133753714D01*
X144254842Y-133794500D01*
X139047811Y-133794500D01*
X138848915Y-133496830D01*
X138534134Y-133286500D01*
X138848915Y-133076170D01*
X139173771Y-132589989D01*
X139287845Y-132016500D01*
X139173771Y-131443011D01*
X138848915Y-130956830D01*
X138534134Y-130746500D01*
X138848915Y-130536170D01*
X139047811Y-130238500D01*
X140627100Y-130238500D01*
X140627100Y-130238499D01*
X140918704Y-130180496D01*
X140918705Y-130180496D01*
X141165915Y-130015315D01*
X142593731Y-128587499D01*
X142809384Y-128587687D01*
X143206289Y-128423689D01*
X143510222Y-128120286D01*
X143674913Y-127723668D01*
X143675287Y-127294216D01*
X143511289Y-126897311D01*
X143207886Y-126593378D01*
X142811268Y-126428687D01*
X142381816Y-126428313D01*
X141984911Y-126592311D01*
X141680978Y-126895714D01*
X141516287Y-127292332D01*
X141516097Y-127509871D01*
X140311469Y-128714500D01*
X139047811Y-128714500D01*
X138848915Y-128416830D01*
X138362734Y-128091974D01*
X137789245Y-127977900D01*
X137419755Y-127977900D01*
X136846266Y-128091974D01*
X136715687Y-128179224D01*
X136715687Y-120233016D01*
X136551689Y-119836111D01*
X136248286Y-119532178D01*
X135851668Y-119367487D01*
X135634128Y-119367297D01*
X134924800Y-118657969D01*
X134924800Y-105725630D01*
X135430931Y-105219499D01*
X135646584Y-105219687D01*
X136043489Y-105055689D01*
X136347422Y-104752286D01*
X136512113Y-104355668D01*
X136512487Y-103926216D01*
X136348489Y-103529311D01*
X136045086Y-103225378D01*
X135648468Y-103060687D01*
X135219016Y-103060313D01*
X134822111Y-103224311D01*
X134518178Y-103527714D01*
X134353487Y-103924332D01*
X134353297Y-104141871D01*
X133623985Y-104871185D01*
X133458804Y-105118395D01*
X133400800Y-105410000D01*
X133400800Y-118973600D01*
X133458804Y-119265205D01*
X133623985Y-119512415D01*
X134556500Y-120444931D01*
X134556313Y-120660584D01*
X134720311Y-121057489D01*
X135023714Y-121361422D01*
X135420332Y-121526113D01*
X135849784Y-121526487D01*
X136246689Y-121362489D01*
X136550622Y-121059086D01*
X136715313Y-120662468D01*
X136715687Y-120233016D01*
X136715687Y-128179224D01*
X136360085Y-128416830D01*
X136035229Y-128903011D01*
X135921155Y-129476500D01*
X136035229Y-130049989D01*
X136360085Y-130536170D01*
X136674865Y-130746500D01*
X136360085Y-130956830D01*
X136035229Y-131443011D01*
X135921155Y-132016500D01*
X136035229Y-132589989D01*
X136360085Y-133076170D01*
X136674865Y-133286500D01*
X136360085Y-133496830D01*
X136035229Y-133983011D01*
X135921155Y-134556500D01*
X136035229Y-135129989D01*
X136360085Y-135616170D01*
X136382280Y-135631000D01*
X136228802Y-135694573D01*
X136050173Y-135873201D01*
X135953500Y-136106590D01*
X135953500Y-136359209D01*
X135953500Y-138086409D01*
X136050173Y-138319798D01*
X136228801Y-138498427D01*
X136462190Y-138595100D01*
X136714809Y-138595100D01*
X138746809Y-138595100D01*
X138980198Y-138498427D01*
X139158827Y-138319799D01*
X139255500Y-138086410D01*
X139255500Y-137833791D01*
X139255500Y-137718800D01*
X145234558Y-137718800D01*
X145386914Y-137871422D01*
X145783532Y-138036113D01*
X146001072Y-138036302D01*
X146374785Y-138410015D01*
X146621995Y-138575196D01*
X146621996Y-138575196D01*
X146913600Y-138633200D01*
X148844000Y-138633200D01*
X148844000Y-138633199D01*
X149135604Y-138575196D01*
X149135605Y-138575196D01*
X149382815Y-138410015D01*
X151638000Y-136154830D01*
X151638000Y-136397309D01*
X151638000Y-137001250D01*
X151796750Y-137160000D01*
X153162000Y-137160000D01*
X153162000Y-135794750D01*
X153003250Y-135636000D01*
X152156830Y-135636000D01*
X153731630Y-134061200D01*
X168958158Y-134061200D01*
X169110514Y-134213822D01*
X169507132Y-134378513D01*
X169936584Y-134378887D01*
X170333489Y-134214889D01*
X170637422Y-133911486D01*
X170802113Y-133514868D01*
X170802333Y-133261111D01*
X171003384Y-133261287D01*
X171400289Y-133097289D01*
X171704222Y-132793886D01*
X171868913Y-132397268D01*
X171869287Y-131967816D01*
X171705289Y-131570911D01*
X171401886Y-131266978D01*
X171005268Y-131102287D01*
X170861958Y-131102162D01*
X171197089Y-130963689D01*
X171501022Y-130660286D01*
X171665713Y-130263668D01*
X171666087Y-129834216D01*
X171502089Y-129437311D01*
X171198686Y-129133378D01*
X170802068Y-128968687D01*
X170372616Y-128968313D01*
X169975711Y-129132311D01*
X169719976Y-129387600D01*
X157228641Y-129387600D01*
X157076286Y-129234978D01*
X156679668Y-129070287D01*
X156250216Y-129069913D01*
X155853311Y-129233911D01*
X155549378Y-129537314D01*
X155507117Y-129639087D01*
X154361215Y-128493185D01*
X154217264Y-128397000D01*
X156844309Y-128397000D01*
X157077698Y-128300327D01*
X157256327Y-128121699D01*
X157353000Y-127888310D01*
X157353000Y-127635691D01*
X157353000Y-123913745D01*
X157744584Y-123914087D01*
X158141489Y-123750089D01*
X158445422Y-123446686D01*
X158533928Y-123233539D01*
X158533913Y-123251384D01*
X158697911Y-123648289D01*
X158960788Y-123911625D01*
X158660868Y-123787087D01*
X158231416Y-123786713D01*
X157834511Y-123950711D01*
X157530578Y-124254114D01*
X157365887Y-124650732D01*
X157365513Y-125080184D01*
X157529511Y-125477089D01*
X157832914Y-125781022D01*
X158229532Y-125945713D01*
X158447072Y-125945902D01*
X159023985Y-126522815D01*
X159271195Y-126687996D01*
X159562800Y-126746000D01*
X163311170Y-126746000D01*
X164528500Y-127963330D01*
X164528313Y-128178984D01*
X164692311Y-128575889D01*
X164995714Y-128879822D01*
X165392332Y-129044513D01*
X165821784Y-129044887D01*
X166218689Y-128880889D01*
X166522622Y-128577486D01*
X166687313Y-128180868D01*
X166687687Y-127751416D01*
X166523689Y-127354511D01*
X166220286Y-127050578D01*
X165823668Y-126885887D01*
X165606127Y-126885697D01*
X164165615Y-125445185D01*
X163918405Y-125280004D01*
X163626800Y-125222000D01*
X159878430Y-125222000D01*
X159524699Y-124868269D01*
X159524887Y-124652616D01*
X159360889Y-124255711D01*
X159098011Y-123992374D01*
X159397932Y-124116913D01*
X159827384Y-124117287D01*
X160224289Y-123953289D01*
X160378246Y-123799600D01*
X166409970Y-123799600D01*
X167627300Y-125016930D01*
X167627113Y-125232584D01*
X167791111Y-125629489D01*
X168094514Y-125933422D01*
X168491132Y-126098113D01*
X168920584Y-126098487D01*
X169317489Y-125934489D01*
X169621422Y-125631086D01*
X169786113Y-125234468D01*
X169786487Y-124805016D01*
X169622489Y-124408111D01*
X169319086Y-124104178D01*
X168922468Y-123939487D01*
X168704927Y-123939297D01*
X167264415Y-122498785D01*
X167017205Y-122333604D01*
X166725600Y-122275600D01*
X160378241Y-122275600D01*
X160225886Y-122122978D01*
X159829268Y-121958287D01*
X159484843Y-121957987D01*
X164501230Y-116941600D01*
X170786958Y-116941600D01*
X170939314Y-117094222D01*
X171335932Y-117258913D01*
X171765384Y-117259287D01*
X172162289Y-117095289D01*
X172466222Y-116791886D01*
X172630913Y-116395268D01*
X172631287Y-115965816D01*
X172631287Y-136121816D01*
X172352036Y-135809268D01*
X171824791Y-135555291D01*
X171809026Y-135552642D01*
X171577000Y-135673783D01*
X171577000Y-137033000D01*
X172649076Y-137033000D01*
X172790924Y-137033000D01*
X173863000Y-137033000D01*
X173863000Y-137287000D01*
X172790924Y-137287000D01*
X172649076Y-137287000D01*
X171577000Y-137287000D01*
X171577000Y-138646217D01*
X171809026Y-138767358D01*
X171824791Y-138764709D01*
X172352036Y-138510732D01*
X172720000Y-138098891D01*
X173087964Y-138510732D01*
X173615209Y-138764709D01*
X173630974Y-138767358D01*
X173863000Y-138646217D01*
X173863000Y-139015000D01*
X171323000Y-139015000D01*
X171323000Y-138646217D01*
X171323000Y-137287000D01*
X171303000Y-137287000D01*
X171303000Y-137033000D01*
X171323000Y-137033000D01*
X171323000Y-135673783D01*
X171090974Y-135552642D01*
X171075209Y-135555291D01*
X170547964Y-135809268D01*
X170176460Y-136225069D01*
X169969670Y-135915585D01*
X169483489Y-135590729D01*
X168910000Y-135476655D01*
X168336511Y-135590729D01*
X167850330Y-135915585D01*
X167640000Y-136230365D01*
X167429670Y-135915585D01*
X166943489Y-135590729D01*
X166370000Y-135476655D01*
X165796511Y-135590729D01*
X165310330Y-135915585D01*
X165295499Y-135937780D01*
X165231927Y-135784302D01*
X165053299Y-135605673D01*
X164819910Y-135509000D01*
X164567291Y-135509000D01*
X162840091Y-135509000D01*
X162606702Y-135605673D01*
X162428073Y-135784301D01*
X162331400Y-136017690D01*
X162331400Y-136270309D01*
X162331400Y-138302309D01*
X162428073Y-138535698D01*
X162606701Y-138714327D01*
X162840090Y-138811000D01*
X163092709Y-138811000D01*
X164819909Y-138811000D01*
X165053298Y-138714327D01*
X165231927Y-138535699D01*
X165295500Y-138382220D01*
X165310330Y-138404415D01*
X165796511Y-138729271D01*
X166370000Y-138843345D01*
X166943489Y-138729271D01*
X167429670Y-138404415D01*
X167640000Y-138089634D01*
X167850330Y-138404415D01*
X168336511Y-138729271D01*
X168910000Y-138843345D01*
X169483489Y-138729271D01*
X169969670Y-138404415D01*
X170176460Y-138094930D01*
X170547964Y-138510732D01*
X171075209Y-138764709D01*
X171090974Y-138767358D01*
X171323000Y-138646217D01*
X171323000Y-139015000D01*
X157512345Y-139015000D01*
X157512345Y-137287000D01*
X157386670Y-136655190D01*
X157028778Y-136119567D01*
X156493155Y-135761675D01*
X155861345Y-135636000D01*
X155796655Y-135636000D01*
X155164845Y-135761675D01*
X154864481Y-135962371D01*
X154843327Y-135911301D01*
X154664698Y-135732673D01*
X154431309Y-135636000D01*
X153574750Y-135636000D01*
X153416000Y-135794750D01*
X153416000Y-137160000D01*
X153436000Y-137160000D01*
X153436000Y-137414000D01*
X153416000Y-137414000D01*
X153416000Y-138779250D01*
X153574750Y-138938000D01*
X154431309Y-138938000D01*
X154664698Y-138841327D01*
X154843327Y-138662699D01*
X154864481Y-138611628D01*
X155164845Y-138812325D01*
X155796655Y-138938000D01*
X155861345Y-138938000D01*
X156493155Y-138812325D01*
X157028778Y-138454433D01*
X157386670Y-137918810D01*
X157512345Y-137287000D01*
X157512345Y-139015000D01*
X153162000Y-139015000D01*
X153162000Y-138779250D01*
X153162000Y-137414000D01*
X151796750Y-137414000D01*
X151638000Y-137572750D01*
X151638000Y-138176691D01*
X151638000Y-138429310D01*
X151734673Y-138662699D01*
X151913302Y-138841327D01*
X152146691Y-138938000D01*
X153003250Y-138938000D01*
X153162000Y-138779250D01*
X153162000Y-139015000D01*
X131495000Y-139015000D01*
X131495000Y-87045000D01*
X195217600Y-87045000D01*
X196082898Y-87831634D01*
X196165000Y-87913736D01*
X196165000Y-99060000D01*
X196217143Y-99322138D01*
X196313713Y-99466666D01*
X196313713Y-99466666D01*
G37*
X196313713Y-99466666D02*
X196221306Y-136891631D01*
X196217143Y-136897862D01*
X196165000Y-137160000D01*
X196165000Y-139015000D01*
X195808600Y-139015000D01*
X195808600Y-137408245D01*
X195808600Y-137038755D01*
X195694526Y-136465266D01*
X195369670Y-135979085D01*
X195072000Y-135780188D01*
X195072000Y-129997200D01*
X195013996Y-129705595D01*
X194848815Y-129458385D01*
X191648415Y-126257985D01*
X191401205Y-126092804D01*
X191109600Y-126034800D01*
X189242681Y-126034800D01*
X189242681Y-114794836D01*
X189212906Y-114290477D01*
X189077179Y-113962803D01*
X188848133Y-113908972D01*
X188139605Y-114617500D01*
X188848133Y-115326028D01*
X189077179Y-115272197D01*
X189242681Y-114794836D01*
X189242681Y-126034800D01*
X188242778Y-126034800D01*
X188678458Y-125854782D01*
X189036026Y-125497837D01*
X189229779Y-125031227D01*
X189230220Y-124525990D01*
X189037282Y-124059042D01*
X188680337Y-123701474D01*
X188213727Y-123507721D01*
X188211512Y-123507719D01*
X188678458Y-123314782D01*
X189036026Y-122957837D01*
X189229779Y-122491227D01*
X189230220Y-121985990D01*
X189037282Y-121519042D01*
X188680337Y-121161474D01*
X188213727Y-120967721D01*
X188211512Y-120967719D01*
X188678458Y-120774782D01*
X189036026Y-120417837D01*
X189229779Y-119951227D01*
X189230220Y-119445990D01*
X189037282Y-118979042D01*
X188680337Y-118621474D01*
X188213727Y-118427721D01*
X188211512Y-118427719D01*
X188678458Y-118234782D01*
X189036026Y-117877837D01*
X189229779Y-117411227D01*
X189230220Y-116905990D01*
X189037282Y-116439042D01*
X188680337Y-116081474D01*
X188213727Y-115887721D01*
X187996929Y-115887531D01*
X188287023Y-115870406D01*
X188614697Y-115734679D01*
X188668528Y-115505633D01*
X187960000Y-114797105D01*
X187251472Y-115505633D01*
X187305303Y-115734679D01*
X187745546Y-115887312D01*
X187708490Y-115887280D01*
X187241542Y-116080218D01*
X186883974Y-116437163D01*
X186690221Y-116903773D01*
X186690219Y-116905987D01*
X186497282Y-116439042D01*
X186140337Y-116081474D01*
X185673727Y-115887721D01*
X185671512Y-115887719D01*
X186138458Y-115694782D01*
X186496026Y-115337837D01*
X186689779Y-114871227D01*
X186689968Y-114654429D01*
X186707094Y-114944523D01*
X186842821Y-115272197D01*
X187071867Y-115326028D01*
X187780395Y-114617500D01*
X187071867Y-113908972D01*
X186842821Y-113962803D01*
X186690187Y-114403046D01*
X186690220Y-114365990D01*
X186497282Y-113899042D01*
X186140337Y-113541474D01*
X185673727Y-113347721D01*
X185671512Y-113347719D01*
X186138458Y-113154782D01*
X186496026Y-112797837D01*
X186689779Y-112331227D01*
X186689780Y-112329012D01*
X186882718Y-112795958D01*
X187239663Y-113153526D01*
X187706273Y-113347279D01*
X187923070Y-113347468D01*
X187632977Y-113364594D01*
X187305303Y-113500321D01*
X187251472Y-113729367D01*
X187960000Y-114437895D01*
X188668528Y-113729367D01*
X188614697Y-113500321D01*
X188174453Y-113347687D01*
X188211510Y-113347720D01*
X188678458Y-113154782D01*
X189036026Y-112797837D01*
X189229779Y-112331227D01*
X189230220Y-111825990D01*
X189037282Y-111359042D01*
X188680337Y-111001474D01*
X188213727Y-110807721D01*
X188211512Y-110807719D01*
X188678458Y-110614782D01*
X189036026Y-110257837D01*
X189229779Y-109791227D01*
X189230220Y-109285990D01*
X189037282Y-108819042D01*
X188680337Y-108461474D01*
X188213727Y-108267721D01*
X188211512Y-108267719D01*
X188678458Y-108074782D01*
X189036026Y-107717837D01*
X189229779Y-107251227D01*
X189230220Y-106745990D01*
X189037282Y-106279042D01*
X188680337Y-105921474D01*
X188213727Y-105727721D01*
X187708490Y-105727280D01*
X187241542Y-105920218D01*
X186883974Y-106277163D01*
X186690221Y-106743773D01*
X186690219Y-106745987D01*
X186497282Y-106279042D01*
X186140337Y-105921474D01*
X185673727Y-105727721D01*
X185168490Y-105727280D01*
X184701542Y-105920218D01*
X184343974Y-106277163D01*
X184150221Y-106743773D01*
X184149780Y-107249010D01*
X184342718Y-107715958D01*
X184699663Y-108073526D01*
X185166273Y-108267279D01*
X185168487Y-108267280D01*
X184701542Y-108460218D01*
X184343974Y-108817163D01*
X184150221Y-109283773D01*
X184149831Y-109729701D01*
X183997600Y-109577470D01*
X183997600Y-95504000D01*
X183939596Y-95212395D01*
X183774415Y-94965185D01*
X182130699Y-93321469D01*
X182130887Y-93105816D01*
X181966889Y-92708911D01*
X181663486Y-92404978D01*
X181266868Y-92240287D01*
X180837416Y-92239913D01*
X180440511Y-92403911D01*
X180136578Y-92707314D01*
X179971887Y-93103932D01*
X179971513Y-93533384D01*
X180135511Y-93930289D01*
X180438914Y-94234222D01*
X180835532Y-94398913D01*
X181053072Y-94399102D01*
X182473600Y-95819630D01*
X182473600Y-109893100D01*
X182531604Y-110184705D01*
X182696785Y-110431915D01*
X184150167Y-111885297D01*
X184149831Y-112269701D01*
X179832000Y-107951870D01*
X179832000Y-90343311D01*
X180129670Y-90144415D01*
X180340000Y-89829634D01*
X180550330Y-90144415D01*
X181036511Y-90469271D01*
X181610000Y-90583345D01*
X182183489Y-90469271D01*
X182669670Y-90144415D01*
X182880000Y-89829634D01*
X183090330Y-90144415D01*
X183576511Y-90469271D01*
X184150000Y-90583345D01*
X184723489Y-90469271D01*
X185209670Y-90144415D01*
X185420000Y-89829634D01*
X185630330Y-90144415D01*
X186116511Y-90469271D01*
X186690000Y-90583345D01*
X187263489Y-90469271D01*
X187749670Y-90144415D01*
X187960000Y-89829634D01*
X188170330Y-90144415D01*
X188656511Y-90469271D01*
X189230000Y-90583345D01*
X189803489Y-90469271D01*
X190289670Y-90144415D01*
X190500000Y-89829634D01*
X190710330Y-90144415D01*
X191196511Y-90469271D01*
X191770000Y-90583345D01*
X192343489Y-90469271D01*
X192829670Y-90144415D01*
X193040000Y-89829634D01*
X193250330Y-90144415D01*
X193736511Y-90469271D01*
X194310000Y-90583345D01*
X194883489Y-90469271D01*
X195369670Y-90144415D01*
X195694526Y-89658234D01*
X195808600Y-89084745D01*
X195808600Y-88715255D01*
X195694526Y-88141766D01*
X195369670Y-87655585D01*
X194883489Y-87330729D01*
X194310000Y-87216655D01*
X193736511Y-87330729D01*
X193250330Y-87655585D01*
X193040000Y-87970365D01*
X192829670Y-87655585D01*
X192343489Y-87330729D01*
X191770000Y-87216655D01*
X191196511Y-87330729D01*
X190710330Y-87655585D01*
X190500000Y-87970365D01*
X190289670Y-87655585D01*
X189803489Y-87330729D01*
X189230000Y-87216655D01*
X188656511Y-87330729D01*
X188170330Y-87655585D01*
X187960000Y-87970365D01*
X187749670Y-87655585D01*
X187263489Y-87330729D01*
X186690000Y-87216655D01*
X186116511Y-87330729D01*
X185630330Y-87655585D01*
X185420000Y-87970365D01*
X185209670Y-87655585D01*
X184723489Y-87330729D01*
X184150000Y-87216655D01*
X183576511Y-87330729D01*
X183090330Y-87655585D01*
X182880000Y-87970365D01*
X182669670Y-87655585D01*
X182183489Y-87330729D01*
X181610000Y-87216655D01*
X181036511Y-87330729D01*
X180550330Y-87655585D01*
X180340000Y-87970365D01*
X180129670Y-87655585D01*
X179643489Y-87330729D01*
X179070000Y-87216655D01*
X178496511Y-87330729D01*
X178010330Y-87655585D01*
X177995499Y-87677780D01*
X177931927Y-87524302D01*
X177753299Y-87345673D01*
X177519910Y-87249000D01*
X177267291Y-87249000D01*
X175540091Y-87249000D01*
X175306702Y-87345673D01*
X175128073Y-87524301D01*
X175031400Y-87757690D01*
X175031400Y-88010309D01*
X175031400Y-90042309D01*
X175128073Y-90275698D01*
X175306701Y-90454327D01*
X175540090Y-90551000D01*
X175768000Y-90551000D01*
X175768000Y-92303600D01*
X175826004Y-92595205D01*
X175991185Y-92842415D01*
X176364900Y-93216130D01*
X176364713Y-93431784D01*
X176528711Y-93828689D01*
X176832114Y-94132622D01*
X177228732Y-94297313D01*
X177658184Y-94297687D01*
X178055089Y-94133689D01*
X178308000Y-93881219D01*
X178308000Y-108267500D01*
X178366004Y-108559105D01*
X178531185Y-108806315D01*
X184150167Y-114425297D01*
X184149780Y-114869010D01*
X184342718Y-115335958D01*
X184699663Y-115693526D01*
X185166273Y-115887279D01*
X185168487Y-115887280D01*
X184701542Y-116080218D01*
X184343974Y-116437163D01*
X184150221Y-116903773D01*
X184149780Y-117409010D01*
X184342718Y-117875958D01*
X184699663Y-118233526D01*
X185166273Y-118427279D01*
X185383070Y-118427468D01*
X185092977Y-118444594D01*
X184765303Y-118580321D01*
X184711472Y-118809367D01*
X185420000Y-119517895D01*
X186128528Y-118809367D01*
X186074697Y-118580321D01*
X185634453Y-118427687D01*
X185671510Y-118427720D01*
X186138458Y-118234782D01*
X186496026Y-117877837D01*
X186689779Y-117411227D01*
X186689780Y-117409012D01*
X186882718Y-117875958D01*
X187239663Y-118233526D01*
X187706273Y-118427279D01*
X187708487Y-118427280D01*
X187241542Y-118620218D01*
X186883974Y-118977163D01*
X186690221Y-119443773D01*
X186690031Y-119660570D01*
X186672906Y-119370477D01*
X186537179Y-119042803D01*
X186308133Y-118988972D01*
X185599605Y-119697500D01*
X186308133Y-120406028D01*
X186537179Y-120352197D01*
X186689812Y-119911953D01*
X186689780Y-119949010D01*
X186882718Y-120415958D01*
X187239663Y-120773526D01*
X187706273Y-120967279D01*
X187708487Y-120967280D01*
X187241542Y-121160218D01*
X186883974Y-121517163D01*
X186690221Y-121983773D01*
X186690031Y-122200570D01*
X186672906Y-121910477D01*
X186537179Y-121582803D01*
X186308133Y-121528972D01*
X186128528Y-121708577D01*
X186128528Y-121349367D01*
X186074697Y-121120321D01*
X185608239Y-120958599D01*
X185747023Y-120950406D01*
X186074697Y-120814679D01*
X186128528Y-120585633D01*
X185420000Y-119877105D01*
X185240395Y-120056710D01*
X185240395Y-119697500D01*
X184531867Y-118988972D01*
X184302821Y-119042803D01*
X184137319Y-119520164D01*
X184167094Y-120024523D01*
X184302821Y-120352197D01*
X184531867Y-120406028D01*
X185240395Y-119697500D01*
X185240395Y-120056710D01*
X184711472Y-120585633D01*
X184765303Y-120814679D01*
X185231760Y-120976400D01*
X185092977Y-120984594D01*
X184765303Y-121120321D01*
X184711472Y-121349367D01*
X185420000Y-122057895D01*
X186128528Y-121349367D01*
X186128528Y-121708577D01*
X185599605Y-122237500D01*
X186308133Y-122946028D01*
X186537179Y-122892197D01*
X186689812Y-122451953D01*
X186689780Y-122489010D01*
X186882718Y-122955958D01*
X187239663Y-123313526D01*
X187706273Y-123507279D01*
X187708487Y-123507280D01*
X187241542Y-123700218D01*
X186883974Y-124057163D01*
X186690221Y-124523773D01*
X186690031Y-124740570D01*
X186672906Y-124450477D01*
X186537179Y-124122803D01*
X186308133Y-124068972D01*
X186128528Y-124248577D01*
X186128528Y-123889367D01*
X186074697Y-123660321D01*
X185608239Y-123498599D01*
X185747023Y-123490406D01*
X186074697Y-123354679D01*
X186128528Y-123125633D01*
X185420000Y-122417105D01*
X185240395Y-122596710D01*
X185240395Y-122237500D01*
X184531867Y-121528972D01*
X184302821Y-121582803D01*
X184137319Y-122060164D01*
X184167094Y-122564523D01*
X184302821Y-122892197D01*
X184531867Y-122946028D01*
X185240395Y-122237500D01*
X185240395Y-122596710D01*
X184711472Y-123125633D01*
X184765303Y-123354679D01*
X185231760Y-123516400D01*
X185092977Y-123524594D01*
X184765303Y-123660321D01*
X184711472Y-123889367D01*
X185420000Y-124597895D01*
X186128528Y-123889367D01*
X186128528Y-124248577D01*
X185599605Y-124777500D01*
X186308133Y-125486028D01*
X186537179Y-125432197D01*
X186689812Y-124991953D01*
X186689780Y-125029010D01*
X186882718Y-125495958D01*
X187239663Y-125853526D01*
X187676220Y-126034800D01*
X185684830Y-126034800D01*
X185684148Y-126034117D01*
X185747023Y-126030406D01*
X186074697Y-125894679D01*
X186128528Y-125665633D01*
X185420000Y-124957105D01*
X185405857Y-124971247D01*
X185226252Y-124791642D01*
X185240395Y-124777500D01*
X184531867Y-124068972D01*
X184302821Y-124122803D01*
X184165029Y-124520237D01*
X183933605Y-124365604D01*
X183642000Y-124307600D01*
X175872241Y-124307600D01*
X175719886Y-124154978D01*
X175323268Y-123990287D01*
X175120487Y-123990110D01*
X175120487Y-101132216D01*
X174956489Y-100735311D01*
X174802800Y-100581353D01*
X174802800Y-97792730D01*
X174904622Y-97691086D01*
X175069313Y-97294468D01*
X175069687Y-96865016D01*
X174905689Y-96468111D01*
X174602286Y-96164178D01*
X174205668Y-95999487D01*
X173964600Y-95999277D01*
X173964600Y-89084745D01*
X173964600Y-88715255D01*
X173850526Y-88141766D01*
X173525670Y-87655585D01*
X173039489Y-87330729D01*
X172466000Y-87216655D01*
X171892511Y-87330729D01*
X171406330Y-87655585D01*
X171196000Y-87970365D01*
X170985670Y-87655585D01*
X170499489Y-87330729D01*
X169926000Y-87216655D01*
X169352511Y-87330729D01*
X168866330Y-87655585D01*
X168656000Y-87970365D01*
X168445670Y-87655585D01*
X167959489Y-87330729D01*
X167386000Y-87216655D01*
X166812511Y-87330729D01*
X166326330Y-87655585D01*
X166116000Y-87970365D01*
X165905670Y-87655585D01*
X165419489Y-87330729D01*
X164846000Y-87216655D01*
X164272511Y-87330729D01*
X163786330Y-87655585D01*
X163576000Y-87970365D01*
X163365670Y-87655585D01*
X162879489Y-87330729D01*
X162306000Y-87216655D01*
X161732511Y-87330729D01*
X161246330Y-87655585D01*
X161036000Y-87970365D01*
X160825670Y-87655585D01*
X160339489Y-87330729D01*
X159766000Y-87216655D01*
X159192511Y-87330729D01*
X158706330Y-87655585D01*
X158499539Y-87965069D01*
X158128036Y-87549268D01*
X157600791Y-87295291D01*
X157585026Y-87292642D01*
X157353000Y-87413783D01*
X157353000Y-88773000D01*
X157373000Y-88773000D01*
X157373000Y-89027000D01*
X157353000Y-89027000D01*
X157353000Y-90386217D01*
X157585026Y-90507358D01*
X157600791Y-90504709D01*
X158128036Y-90250732D01*
X158499539Y-89834930D01*
X158706330Y-90144415D01*
X159192511Y-90469271D01*
X159766000Y-90583345D01*
X160339489Y-90469271D01*
X160825670Y-90144415D01*
X161036000Y-89829634D01*
X161246330Y-90144415D01*
X161327031Y-90198337D01*
X159640869Y-91884500D01*
X157099000Y-91884500D01*
X157099000Y-90386217D01*
X157099000Y-89027000D01*
X157079000Y-89027000D01*
X157079000Y-88773000D01*
X157099000Y-88773000D01*
X157099000Y-87413783D01*
X156866974Y-87292642D01*
X156851209Y-87295291D01*
X156323964Y-87549268D01*
X156169758Y-87721860D01*
X156087927Y-87524302D01*
X155909299Y-87345673D01*
X155675910Y-87249000D01*
X155423291Y-87249000D01*
X153696091Y-87249000D01*
X153462702Y-87345673D01*
X153284073Y-87524301D01*
X153187400Y-87757690D01*
X153187400Y-88010309D01*
X153187400Y-90042309D01*
X153284073Y-90275698D01*
X153462701Y-90454327D01*
X153696090Y-90551000D01*
X153948709Y-90551000D01*
X155675909Y-90551000D01*
X155909298Y-90454327D01*
X156087927Y-90275699D01*
X156169758Y-90078139D01*
X156323964Y-90250732D01*
X156851209Y-90504709D01*
X156866974Y-90507358D01*
X157099000Y-90386217D01*
X157099000Y-91884500D01*
X154498141Y-91884500D01*
X154345786Y-91731878D01*
X153949168Y-91567187D01*
X153519716Y-91566813D01*
X153122811Y-91730811D01*
X152818878Y-92034214D01*
X152654187Y-92430832D01*
X152653813Y-92860284D01*
X152817811Y-93257189D01*
X153121214Y-93561122D01*
X153517832Y-93725813D01*
X153947284Y-93726187D01*
X154344189Y-93562189D01*
X154457710Y-93448865D01*
X154432187Y-93510332D01*
X154431813Y-93939784D01*
X154595811Y-94336689D01*
X154899214Y-94640622D01*
X155295832Y-94805313D01*
X155725284Y-94805687D01*
X156122189Y-94641689D01*
X156212535Y-94551500D01*
X156569971Y-94551500D01*
X156527687Y-94653332D01*
X156527313Y-95082784D01*
X156543929Y-95123000D01*
X150495691Y-95123000D01*
X150262302Y-95219673D01*
X150083673Y-95398301D01*
X149987000Y-95631690D01*
X149987000Y-95884309D01*
X149987000Y-98044000D01*
X145440400Y-98044000D01*
X145148795Y-98102004D01*
X144901584Y-98267185D01*
X138787469Y-104381300D01*
X138571816Y-104381113D01*
X138174911Y-104545111D01*
X137870978Y-104848514D01*
X137706287Y-105245132D01*
X137705913Y-105674584D01*
X137869911Y-106071489D01*
X138173314Y-106375422D01*
X138569932Y-106540113D01*
X138999384Y-106540487D01*
X139396289Y-106376489D01*
X139700222Y-106073086D01*
X139864913Y-105676468D01*
X139865102Y-105458927D01*
X145756030Y-99568000D01*
X149987000Y-99568000D01*
X149987000Y-101980309D01*
X150083673Y-102213698D01*
X150262301Y-102392327D01*
X150495690Y-102489000D01*
X150748309Y-102489000D01*
X156844309Y-102489000D01*
X157077698Y-102392327D01*
X157256327Y-102213699D01*
X157353000Y-101980310D01*
X157353000Y-101727691D01*
X157353000Y-95932396D01*
X157391332Y-95948313D01*
X157608872Y-95948502D01*
X158465184Y-96804815D01*
X158465185Y-96804815D01*
X158712395Y-96969996D01*
X159004000Y-97028000D01*
X161795358Y-97028000D01*
X161947714Y-97180622D01*
X162344332Y-97345313D01*
X162773784Y-97345687D01*
X163170689Y-97181689D01*
X163474622Y-96878286D01*
X163639313Y-96481668D01*
X163639687Y-96052216D01*
X163475689Y-95655311D01*
X163172286Y-95351378D01*
X162775668Y-95186687D01*
X162346216Y-95186313D01*
X161949311Y-95350311D01*
X161795353Y-95504000D01*
X159319630Y-95504000D01*
X158686499Y-94870868D01*
X158686687Y-94655216D01*
X158643832Y-94551500D01*
X160210500Y-94551500D01*
X160210500Y-94551499D01*
X160502104Y-94493496D01*
X160502105Y-94493496D01*
X160749315Y-94328315D01*
X161796130Y-93281500D01*
X165287858Y-93281500D01*
X165440214Y-93434122D01*
X165836832Y-93598813D01*
X166266284Y-93599187D01*
X166624000Y-93451381D01*
X166624000Y-97029870D01*
X166498869Y-97155000D01*
X166283216Y-97154813D01*
X165886311Y-97318811D01*
X165582378Y-97622214D01*
X165417687Y-98018832D01*
X165417313Y-98448284D01*
X165581311Y-98845189D01*
X165884714Y-99149122D01*
X166281332Y-99313813D01*
X166710784Y-99314187D01*
X167107689Y-99150189D01*
X167411622Y-98846786D01*
X167576313Y-98450168D01*
X167576502Y-98232627D01*
X167924815Y-97884315D01*
X168089996Y-97637105D01*
X168089996Y-97637104D01*
X168148000Y-97345500D01*
X168148000Y-90343311D01*
X168445670Y-90144415D01*
X168656000Y-89829634D01*
X168866330Y-90144415D01*
X169352511Y-90469271D01*
X169926000Y-90583345D01*
X170499489Y-90469271D01*
X170985670Y-90144415D01*
X171196000Y-89829634D01*
X171406330Y-90144415D01*
X171892511Y-90469271D01*
X172466000Y-90583345D01*
X173039489Y-90469271D01*
X173525670Y-90144415D01*
X173850526Y-89658234D01*
X173964600Y-89084745D01*
X173964600Y-95999277D01*
X173776216Y-95999113D01*
X173379311Y-96163111D01*
X173075378Y-96466514D01*
X172910687Y-96863132D01*
X172910313Y-97292584D01*
X173074311Y-97689489D01*
X173278800Y-97894335D01*
X173278800Y-100581358D01*
X173126178Y-100733714D01*
X172961487Y-101130332D01*
X172961113Y-101559784D01*
X173125111Y-101956689D01*
X173428514Y-102260622D01*
X173825132Y-102425313D01*
X174254584Y-102425687D01*
X174651489Y-102261689D01*
X174955422Y-101958286D01*
X175120113Y-101561668D01*
X175120487Y-101132216D01*
X175120487Y-123990110D01*
X174893816Y-123989913D01*
X174496911Y-124153911D01*
X174192978Y-124457314D01*
X174028287Y-124853932D01*
X174027913Y-125283384D01*
X174191911Y-125680289D01*
X174495314Y-125984222D01*
X174891932Y-126148913D01*
X175321384Y-126149287D01*
X175718289Y-125985289D01*
X175872246Y-125831600D01*
X183326369Y-125831600D01*
X184830385Y-127335616D01*
X184978576Y-127434634D01*
X185077595Y-127500796D01*
X185077596Y-127500796D01*
X185369200Y-127558800D01*
X190793970Y-127558800D01*
X193548000Y-130312830D01*
X193548000Y-135780188D01*
X193250330Y-135979085D01*
X193040000Y-136293865D01*
X192829670Y-135979085D01*
X192532000Y-135780188D01*
X192532000Y-131419600D01*
X192473997Y-131127996D01*
X192473996Y-131127995D01*
X192308816Y-130880785D01*
X190157099Y-128729068D01*
X190157287Y-128513416D01*
X189993289Y-128116511D01*
X189689886Y-127812578D01*
X189293268Y-127647887D01*
X188863816Y-127647513D01*
X188466911Y-127811511D01*
X188162978Y-128114914D01*
X187998287Y-128511532D01*
X187997913Y-128940984D01*
X188161911Y-129337889D01*
X188465314Y-129641822D01*
X188861932Y-129806513D01*
X189079472Y-129806702D01*
X191008000Y-131735230D01*
X191008000Y-135780188D01*
X190710330Y-135979085D01*
X190500000Y-136293865D01*
X190289670Y-135979085D01*
X189992000Y-135780188D01*
X189992000Y-133146800D01*
X189933996Y-132855196D01*
X189933996Y-132855195D01*
X189768815Y-132607985D01*
X186771615Y-129610785D01*
X186524405Y-129445604D01*
X186232800Y-129387600D01*
X181145525Y-129387600D01*
X181266913Y-129095268D01*
X181267287Y-128665816D01*
X181103289Y-128268911D01*
X180799886Y-127964978D01*
X180403268Y-127800287D01*
X179973816Y-127799913D01*
X179576911Y-127963911D01*
X179524731Y-128016000D01*
X176431041Y-128016000D01*
X176278686Y-127863378D01*
X175882068Y-127698687D01*
X175452616Y-127698313D01*
X175055711Y-127862311D01*
X174751778Y-128165714D01*
X174587087Y-128562332D01*
X174586713Y-128991784D01*
X174750711Y-129388689D01*
X174974432Y-129612801D01*
X174841087Y-129933932D01*
X174840713Y-130363384D01*
X175004711Y-130760289D01*
X175308114Y-131064222D01*
X175521367Y-131152772D01*
X175452616Y-131152713D01*
X175055711Y-131316711D01*
X174751778Y-131620114D01*
X174587087Y-132016732D01*
X174586713Y-132446184D01*
X174750711Y-132843089D01*
X175054114Y-133147022D01*
X175450732Y-133311713D01*
X175653732Y-133311889D01*
X175653513Y-133563784D01*
X175817511Y-133960689D01*
X176120914Y-134264622D01*
X176517532Y-134429313D01*
X176946984Y-134429687D01*
X177343889Y-134265689D01*
X177497846Y-134112000D01*
X179981935Y-134112000D01*
X180235714Y-134366222D01*
X180632332Y-134530913D01*
X181061784Y-134531287D01*
X181458689Y-134367289D01*
X181762622Y-134063886D01*
X181927313Y-133667268D01*
X181927687Y-133237816D01*
X181827109Y-132994400D01*
X182471046Y-132994400D01*
X182674114Y-133197822D01*
X183070732Y-133362513D01*
X183500184Y-133362887D01*
X183897089Y-133198889D01*
X184201022Y-132895486D01*
X184365713Y-132498868D01*
X184366087Y-132069416D01*
X184354469Y-132041299D01*
X185928000Y-133614830D01*
X185928000Y-135780188D01*
X185630330Y-135979085D01*
X185420000Y-136293865D01*
X185209670Y-135979085D01*
X184723489Y-135654229D01*
X184150000Y-135540155D01*
X183576511Y-135654229D01*
X183090330Y-135979085D01*
X183075499Y-136001280D01*
X183011927Y-135847802D01*
X182833299Y-135669173D01*
X182599910Y-135572500D01*
X182347291Y-135572500D01*
X180620091Y-135572500D01*
X180386702Y-135669173D01*
X180208073Y-135847801D01*
X180111400Y-136081190D01*
X180111400Y-136333809D01*
X180111400Y-138365809D01*
X180208073Y-138599198D01*
X180386701Y-138777827D01*
X180620090Y-138874500D01*
X180872709Y-138874500D01*
X182599909Y-138874500D01*
X182833298Y-138777827D01*
X183011927Y-138599199D01*
X183075500Y-138445720D01*
X183090330Y-138467915D01*
X183576511Y-138792771D01*
X184150000Y-138906845D01*
X184723489Y-138792771D01*
X185209670Y-138467915D01*
X185420000Y-138153134D01*
X185630330Y-138467915D01*
X186116511Y-138792771D01*
X186690000Y-138906845D01*
X187263489Y-138792771D01*
X187749670Y-138467915D01*
X187960000Y-138153134D01*
X188170330Y-138467915D01*
X188656511Y-138792771D01*
X189230000Y-138906845D01*
X189803489Y-138792771D01*
X190289670Y-138467915D01*
X190500000Y-138153134D01*
X190710330Y-138467915D01*
X191196511Y-138792771D01*
X191770000Y-138906845D01*
X192343489Y-138792771D01*
X192829670Y-138467915D01*
X193040000Y-138153134D01*
X193250330Y-138467915D01*
X193736511Y-138792771D01*
X194310000Y-138906845D01*
X194883489Y-138792771D01*
X195369670Y-138467915D01*
X195694526Y-137981734D01*
X195808600Y-137408245D01*
X195808600Y-139015000D01*
X178028600Y-139015000D01*
X178028600Y-137344745D01*
X178028600Y-136975255D01*
X177914526Y-136401766D01*
X177589670Y-135915585D01*
X177103489Y-135590729D01*
X176530000Y-135476655D01*
X175956511Y-135590729D01*
X175470330Y-135915585D01*
X175263539Y-136225069D01*
X174892036Y-135809268D01*
X174364791Y-135555291D01*
X174349026Y-135552642D01*
X174117000Y-135673783D01*
X174117000Y-137033000D01*
X174137000Y-137033000D01*
X174137000Y-137287000D01*
X174117000Y-137287000D01*
X174117000Y-138646217D01*
X174349026Y-138767358D01*
X174364791Y-138764709D01*
X174892036Y-138510732D01*
X175263539Y-138094930D01*
X175470330Y-138404415D01*
X175956511Y-138729271D01*
X176530000Y-138843345D01*
X177103489Y-138729271D01*
X177589670Y-138404415D01*
X177914526Y-137918234D01*
X178028600Y-137344745D01*
X178028600Y-139015000D01*
X173863000Y-139015000D01*
X173863000Y-138646217D01*
X173863000Y-137287000D01*
X173863000Y-137033000D01*
X173863000Y-135673783D01*
X173630974Y-135552642D01*
X173615209Y-135555291D01*
X173087964Y-135809268D01*
X172720000Y-136221108D01*
X172631287Y-136121816D01*
X172631287Y-115965816D01*
X172467289Y-115568911D01*
X172163886Y-115264978D01*
X171767268Y-115100287D01*
X171337816Y-115099913D01*
X170940911Y-115263911D01*
X170786953Y-115417600D01*
X167447630Y-115417600D01*
X167841331Y-115023899D01*
X168056984Y-115024087D01*
X168453889Y-114860089D01*
X168757822Y-114556686D01*
X168922513Y-114160068D01*
X168922887Y-113730616D01*
X168758889Y-113333711D01*
X168455486Y-113029778D01*
X168058868Y-112865087D01*
X167629416Y-112864713D01*
X167232511Y-113028711D01*
X166928578Y-113332114D01*
X166763887Y-113728732D01*
X166763697Y-113946271D01*
X166240702Y-114469267D01*
X165925268Y-114338287D01*
X165495816Y-114337913D01*
X165098911Y-114501911D01*
X164794978Y-114805314D01*
X164630287Y-115201932D01*
X164630099Y-115417600D01*
X164185600Y-115417600D01*
X163893995Y-115475604D01*
X163646784Y-115640785D01*
X157532669Y-121754900D01*
X157353000Y-121754744D01*
X157353000Y-121539691D01*
X157353000Y-114934309D01*
X157353000Y-112045750D01*
X157353000Y-111474250D01*
X157353000Y-108585691D01*
X157256327Y-108352302D01*
X157077699Y-108173673D01*
X156844310Y-108077000D01*
X156591691Y-108077000D01*
X153955750Y-108077000D01*
X153797000Y-108235750D01*
X153797000Y-111633000D01*
X157194250Y-111633000D01*
X157353000Y-111474250D01*
X157353000Y-112045750D01*
X157194250Y-111887000D01*
X153797000Y-111887000D01*
X153797000Y-115284250D01*
X153955750Y-115443000D01*
X156591691Y-115443000D01*
X156844310Y-115443000D01*
X157077699Y-115346327D01*
X157256327Y-115167698D01*
X157353000Y-114934309D01*
X157353000Y-121539691D01*
X157256327Y-121306302D01*
X157077699Y-121127673D01*
X156844310Y-121031000D01*
X156591691Y-121031000D01*
X153543000Y-121031000D01*
X153543000Y-115284250D01*
X153543000Y-111887000D01*
X153543000Y-111633000D01*
X153543000Y-108235750D01*
X153384250Y-108077000D01*
X150748309Y-108077000D01*
X150495690Y-108077000D01*
X150262301Y-108173673D01*
X150083673Y-108352302D01*
X149987000Y-108585691D01*
X149987000Y-111474250D01*
X150145750Y-111633000D01*
X153543000Y-111633000D01*
X153543000Y-111887000D01*
X150145750Y-111887000D01*
X149987000Y-112045750D01*
X149987000Y-114934309D01*
X150083673Y-115167698D01*
X150262301Y-115346327D01*
X150495690Y-115443000D01*
X150748309Y-115443000D01*
X153384250Y-115443000D01*
X153543000Y-115284250D01*
X153543000Y-121031000D01*
X150495691Y-121031000D01*
X150262302Y-121127673D01*
X150083673Y-121306301D01*
X149987000Y-121539690D01*
X149987000Y-121792309D01*
X149987000Y-123952000D01*
X144536830Y-123952000D01*
X144132487Y-123547657D01*
X144132487Y-117591416D01*
X143968489Y-117194511D01*
X143665086Y-116890578D01*
X143268468Y-116725887D01*
X143050928Y-116725697D01*
X142443200Y-116117969D01*
X142443200Y-115674241D01*
X142595822Y-115521886D01*
X142760513Y-115125268D01*
X142760887Y-114695816D01*
X142596889Y-114298911D01*
X142293486Y-113994978D01*
X141896868Y-113830287D01*
X141467416Y-113829913D01*
X141070511Y-113993911D01*
X140766578Y-114297314D01*
X140601887Y-114693932D01*
X140601513Y-115123384D01*
X140765511Y-115520289D01*
X140919200Y-115674246D01*
X140919200Y-116433600D01*
X140977204Y-116725205D01*
X141142385Y-116972415D01*
X141973300Y-117803331D01*
X141973113Y-118018984D01*
X142137111Y-118415889D01*
X142440514Y-118719822D01*
X142837132Y-118884513D01*
X143266584Y-118884887D01*
X143663489Y-118720889D01*
X143967422Y-118417486D01*
X144132113Y-118020868D01*
X144132487Y-117591416D01*
X144132487Y-123547657D01*
X140169899Y-119585069D01*
X140170087Y-119369416D01*
X140006089Y-118972511D01*
X139702686Y-118668578D01*
X139306068Y-118503887D01*
X138876616Y-118503513D01*
X138479711Y-118667511D01*
X138175778Y-118970914D01*
X138011087Y-119367532D01*
X138010713Y-119796984D01*
X138174711Y-120193889D01*
X138478114Y-120497822D01*
X138874732Y-120662513D01*
X139092272Y-120662702D01*
X143682385Y-125252815D01*
X143929595Y-125417996D01*
X143929596Y-125417996D01*
X144221200Y-125476000D01*
X149987000Y-125476000D01*
X149987000Y-127888309D01*
X150083673Y-128121698D01*
X150231974Y-128270000D01*
X149202241Y-128270000D01*
X149049886Y-128117378D01*
X148653268Y-127952687D01*
X148223816Y-127952313D01*
X147826911Y-128116311D01*
X147522978Y-128419714D01*
X147358287Y-128816332D01*
X147358010Y-129133600D01*
X145900241Y-129133600D01*
X145747886Y-128980978D01*
X145351268Y-128816287D01*
X144921816Y-128815913D01*
X144524911Y-128979911D01*
X144220978Y-129283314D01*
X144056287Y-129679932D01*
X144055913Y-130109384D01*
X144219911Y-130506289D01*
X144523314Y-130810222D01*
X144919932Y-130974913D01*
X145349384Y-130975287D01*
X145746289Y-130811289D01*
X145900246Y-130657600D01*
X153151170Y-130657600D01*
X155030770Y-132537200D01*
X153416000Y-132537200D01*
X153124395Y-132595204D01*
X152877184Y-132760385D01*
X148528369Y-137109200D01*
X147229230Y-137109200D01*
X147078699Y-136958669D01*
X147078887Y-136743016D01*
X146914889Y-136346111D01*
X146611486Y-136042178D01*
X146214868Y-135877487D01*
X145785416Y-135877113D01*
X145388511Y-136041111D01*
X145234553Y-136194800D01*
X139255500Y-136194800D01*
X139255500Y-136106591D01*
X139158827Y-135873202D01*
X138980199Y-135694573D01*
X138826720Y-135630999D01*
X138848915Y-135616170D01*
X139047811Y-135318500D01*
X144665333Y-135318500D01*
X144970732Y-135445313D01*
X145400184Y-135445687D01*
X145797089Y-135281689D01*
X146101022Y-134978286D01*
X146265713Y-134581668D01*
X146266087Y-134152216D01*
X146102089Y-133755311D01*
X145798686Y-133451378D01*
X145402068Y-133286687D01*
X144972616Y-133286313D01*
X144575711Y-133450311D01*
X144271778Y-133753714D01*
X144254842Y-133794500D01*
X139047811Y-133794500D01*
X138848915Y-133496830D01*
X138534134Y-133286500D01*
X138848915Y-133076170D01*
X139173771Y-132589989D01*
X139287845Y-132016500D01*
X139173771Y-131443011D01*
X138848915Y-130956830D01*
X138534134Y-130746500D01*
X138848915Y-130536170D01*
X139047811Y-130238500D01*
X140627100Y-130238500D01*
X140627100Y-130238499D01*
X140918704Y-130180496D01*
X140918705Y-130180496D01*
X141165915Y-130015315D01*
X142593731Y-128587499D01*
X142809384Y-128587687D01*
X143206289Y-128423689D01*
X143510222Y-128120286D01*
X143674913Y-127723668D01*
X143675287Y-127294216D01*
X143511289Y-126897311D01*
X143207886Y-126593378D01*
X142811268Y-126428687D01*
X142381816Y-126428313D01*
X141984911Y-126592311D01*
X141680978Y-126895714D01*
X141516287Y-127292332D01*
X141516097Y-127509871D01*
X140311469Y-128714500D01*
X139047811Y-128714500D01*
X138848915Y-128416830D01*
X138362734Y-128091974D01*
X137789245Y-127977900D01*
X137419755Y-127977900D01*
X136846266Y-128091974D01*
X136715687Y-128179224D01*
X136715687Y-120233016D01*
X136551689Y-119836111D01*
X136248286Y-119532178D01*
X135851668Y-119367487D01*
X135634128Y-119367297D01*
X134924800Y-118657969D01*
X134924800Y-105725630D01*
X135430931Y-105219499D01*
X135646584Y-105219687D01*
X136043489Y-105055689D01*
X136347422Y-104752286D01*
X136512113Y-104355668D01*
X136512487Y-103926216D01*
X136348489Y-103529311D01*
X136045086Y-103225378D01*
X135648468Y-103060687D01*
X135219016Y-103060313D01*
X134822111Y-103224311D01*
X134518178Y-103527714D01*
X134353487Y-103924332D01*
X134353297Y-104141871D01*
X133623985Y-104871185D01*
X133458804Y-105118395D01*
X133400800Y-105410000D01*
X133400800Y-118973600D01*
X133458804Y-119265205D01*
X133623985Y-119512415D01*
X134556500Y-120444931D01*
X134556313Y-120660584D01*
X134720311Y-121057489D01*
X135023714Y-121361422D01*
X135420332Y-121526113D01*
X135849784Y-121526487D01*
X136246689Y-121362489D01*
X136550622Y-121059086D01*
X136715313Y-120662468D01*
X136715687Y-120233016D01*
X136715687Y-128179224D01*
X136360085Y-128416830D01*
X136035229Y-128903011D01*
X135921155Y-129476500D01*
X136035229Y-130049989D01*
X136360085Y-130536170D01*
X136674865Y-130746500D01*
X136360085Y-130956830D01*
X136035229Y-131443011D01*
X135921155Y-132016500D01*
X136035229Y-132589989D01*
X136360085Y-133076170D01*
X136674865Y-133286500D01*
X136360085Y-133496830D01*
X136035229Y-133983011D01*
X135921155Y-134556500D01*
X136035229Y-135129989D01*
X136360085Y-135616170D01*
X136382280Y-135631000D01*
X136228802Y-135694573D01*
X136050173Y-135873201D01*
X135953500Y-136106590D01*
X135953500Y-136359209D01*
X135953500Y-138086409D01*
X136050173Y-138319798D01*
X136228801Y-138498427D01*
X136462190Y-138595100D01*
X136714809Y-138595100D01*
X138746809Y-138595100D01*
X138980198Y-138498427D01*
X139158827Y-138319799D01*
X139255500Y-138086410D01*
X139255500Y-137833791D01*
X139255500Y-137718800D01*
X145234558Y-137718800D01*
X145386914Y-137871422D01*
X145783532Y-138036113D01*
X146001072Y-138036302D01*
X146374785Y-138410015D01*
X146621995Y-138575196D01*
X146621996Y-138575196D01*
X146913600Y-138633200D01*
X148844000Y-138633200D01*
X148844000Y-138633199D01*
X149135604Y-138575196D01*
X149135605Y-138575196D01*
X149382815Y-138410015D01*
X151638000Y-136154830D01*
X151638000Y-136397309D01*
X151638000Y-137001250D01*
X151796750Y-137160000D01*
X153162000Y-137160000D01*
X153162000Y-135794750D01*
X153003250Y-135636000D01*
X152156830Y-135636000D01*
X153731630Y-134061200D01*
X168958158Y-134061200D01*
X169110514Y-134213822D01*
X169507132Y-134378513D01*
X169936584Y-134378887D01*
X170333489Y-134214889D01*
X170637422Y-133911486D01*
X170802113Y-133514868D01*
X170802333Y-133261111D01*
X171003384Y-133261287D01*
X171400289Y-133097289D01*
X171704222Y-132793886D01*
X171868913Y-132397268D01*
X171869287Y-131967816D01*
X171705289Y-131570911D01*
X171401886Y-131266978D01*
X171005268Y-131102287D01*
X170861958Y-131102162D01*
X171197089Y-130963689D01*
X171501022Y-130660286D01*
X171665713Y-130263668D01*
X171666087Y-129834216D01*
X171502089Y-129437311D01*
X171198686Y-129133378D01*
X170802068Y-128968687D01*
X170372616Y-128968313D01*
X169975711Y-129132311D01*
X169719976Y-129387600D01*
X157228641Y-129387600D01*
X157076286Y-129234978D01*
X156679668Y-129070287D01*
X156250216Y-129069913D01*
X155853311Y-129233911D01*
X155549378Y-129537314D01*
X155507117Y-129639087D01*
X154361215Y-128493185D01*
X154217264Y-128397000D01*
X156844309Y-128397000D01*
X157077698Y-128300327D01*
X157256327Y-128121699D01*
X157353000Y-127888310D01*
X157353000Y-127635691D01*
X157353000Y-123913745D01*
X157744584Y-123914087D01*
X158141489Y-123750089D01*
X158445422Y-123446686D01*
X158533928Y-123233539D01*
X158533913Y-123251384D01*
X158697911Y-123648289D01*
X158960788Y-123911625D01*
X158660868Y-123787087D01*
X158231416Y-123786713D01*
X157834511Y-123950711D01*
X157530578Y-124254114D01*
X157365887Y-124650732D01*
X157365513Y-125080184D01*
X157529511Y-125477089D01*
X157832914Y-125781022D01*
X158229532Y-125945713D01*
X158447072Y-125945902D01*
X159023985Y-126522815D01*
X159271195Y-126687996D01*
X159562800Y-126746000D01*
X163311170Y-126746000D01*
X164528500Y-127963330D01*
X164528313Y-128178984D01*
X164692311Y-128575889D01*
X164995714Y-128879822D01*
X165392332Y-129044513D01*
X165821784Y-129044887D01*
X166218689Y-128880889D01*
X166522622Y-128577486D01*
X166687313Y-128180868D01*
X166687687Y-127751416D01*
X166523689Y-127354511D01*
X166220286Y-127050578D01*
X165823668Y-126885887D01*
X165606127Y-126885697D01*
X164165615Y-125445185D01*
X163918405Y-125280004D01*
X163626800Y-125222000D01*
X159878430Y-125222000D01*
X159524699Y-124868269D01*
X159524887Y-124652616D01*
X159360889Y-124255711D01*
X159098011Y-123992374D01*
X159397932Y-124116913D01*
X159827384Y-124117287D01*
X160224289Y-123953289D01*
X160378246Y-123799600D01*
X166409970Y-123799600D01*
X167627300Y-125016930D01*
X167627113Y-125232584D01*
X167791111Y-125629489D01*
X168094514Y-125933422D01*
X168491132Y-126098113D01*
X168920584Y-126098487D01*
X169317489Y-125934489D01*
X169621422Y-125631086D01*
X169786113Y-125234468D01*
X169786487Y-124805016D01*
X169622489Y-124408111D01*
X169319086Y-124104178D01*
X168922468Y-123939487D01*
X168704927Y-123939297D01*
X167264415Y-122498785D01*
X167017205Y-122333604D01*
X166725600Y-122275600D01*
X160378241Y-122275600D01*
X160225886Y-122122978D01*
X159829268Y-121958287D01*
X159484843Y-121957987D01*
X164501230Y-116941600D01*
X170786958Y-116941600D01*
X170939314Y-117094222D01*
X171335932Y-117258913D01*
X171765384Y-117259287D01*
X172162289Y-117095289D01*
X172466222Y-116791886D01*
X172630913Y-116395268D01*
X172631287Y-115965816D01*
X172631287Y-136121816D01*
X172352036Y-135809268D01*
X171824791Y-135555291D01*
X171809026Y-135552642D01*
X171577000Y-135673783D01*
X171577000Y-137033000D01*
X172649076Y-137033000D01*
X172790924Y-137033000D01*
X173863000Y-137033000D01*
X173863000Y-137287000D01*
X172790924Y-137287000D01*
X172649076Y-137287000D01*
X171577000Y-137287000D01*
X171577000Y-138646217D01*
X171809026Y-138767358D01*
X171824791Y-138764709D01*
X172352036Y-138510732D01*
X172720000Y-138098891D01*
X173087964Y-138510732D01*
X173615209Y-138764709D01*
X173630974Y-138767358D01*
X173863000Y-138646217D01*
X173863000Y-139015000D01*
X171323000Y-139015000D01*
X171323000Y-138646217D01*
X171323000Y-137287000D01*
X171303000Y-137287000D01*
X171303000Y-137033000D01*
X171323000Y-137033000D01*
X171323000Y-135673783D01*
X171090974Y-135552642D01*
X171075209Y-135555291D01*
X170547964Y-135809268D01*
X170176460Y-136225069D01*
X169969670Y-135915585D01*
X169483489Y-135590729D01*
X168910000Y-135476655D01*
X168336511Y-135590729D01*
X167850330Y-135915585D01*
X167640000Y-136230365D01*
X167429670Y-135915585D01*
X166943489Y-135590729D01*
X166370000Y-135476655D01*
X165796511Y-135590729D01*
X165310330Y-135915585D01*
X165295499Y-135937780D01*
X165231927Y-135784302D01*
X165053299Y-135605673D01*
X164819910Y-135509000D01*
X164567291Y-135509000D01*
X162840091Y-135509000D01*
X162606702Y-135605673D01*
X162428073Y-135784301D01*
X162331400Y-136017690D01*
X162331400Y-136270309D01*
X162331400Y-138302309D01*
X162428073Y-138535698D01*
X162606701Y-138714327D01*
X162840090Y-138811000D01*
X163092709Y-138811000D01*
X164819909Y-138811000D01*
X165053298Y-138714327D01*
X165231927Y-138535699D01*
X165295500Y-138382220D01*
X165310330Y-138404415D01*
X165796511Y-138729271D01*
X166370000Y-138843345D01*
X166943489Y-138729271D01*
X167429670Y-138404415D01*
X167640000Y-138089634D01*
X167850330Y-138404415D01*
X168336511Y-138729271D01*
X168910000Y-138843345D01*
X169483489Y-138729271D01*
X169969670Y-138404415D01*
X170176460Y-138094930D01*
X170547964Y-138510732D01*
X171075209Y-138764709D01*
X171090974Y-138767358D01*
X171323000Y-138646217D01*
X171323000Y-139015000D01*
X157512345Y-139015000D01*
X157512345Y-137287000D01*
X157386670Y-136655190D01*
X157028778Y-136119567D01*
X156493155Y-135761675D01*
X155861345Y-135636000D01*
X155796655Y-135636000D01*
X155164845Y-135761675D01*
X154864481Y-135962371D01*
X154843327Y-135911301D01*
X154664698Y-135732673D01*
X154431309Y-135636000D01*
X153574750Y-135636000D01*
X153416000Y-135794750D01*
X153416000Y-137160000D01*
X153436000Y-137160000D01*
X153436000Y-137414000D01*
X153416000Y-137414000D01*
X153416000Y-138779250D01*
X153574750Y-138938000D01*
X154431309Y-138938000D01*
X154664698Y-138841327D01*
X154843327Y-138662699D01*
X154864481Y-138611628D01*
X155164845Y-138812325D01*
X155796655Y-138938000D01*
X155861345Y-138938000D01*
X156493155Y-138812325D01*
X157028778Y-138454433D01*
X157386670Y-137918810D01*
X157512345Y-137287000D01*
X157512345Y-139015000D01*
X153162000Y-139015000D01*
X153162000Y-138779250D01*
X153162000Y-137414000D01*
X151796750Y-137414000D01*
X151638000Y-137572750D01*
X151638000Y-138176691D01*
X151638000Y-138429310D01*
X151734673Y-138662699D01*
X151913302Y-138841327D01*
X152146691Y-138938000D01*
X153003250Y-138938000D01*
X153162000Y-138779250D01*
X153162000Y-139015000D01*
X131495000Y-139015000D01*
X131495000Y-87045000D01*
X195217600Y-87045000D01*
X196082898Y-87831634D01*
X196165000Y-87913736D01*
X196165000Y-99060000D01*
X196217143Y-99322138D01*
X196313713Y-99466666D01*
M02*
