M48
;DRILL file {kicad (2014-12-28 BZR 5260)-product} date Monday, January 05, 2015 'AMt' 10:18:32 AM
;FORMAT={-:-/ absolute / inch / decimal}
FMAT,2
INCH,TZ
T1C0.025
T2C0.035
T3C0.040
%
G90
G05
M72
T1
X5.224Y-3.61
X5.3Y-4.845
X5.425Y-4.225
X5.425Y-4.725
X5.47Y-3.456
X5.486Y-3.938
X5.525Y-4.2
X5.53Y-4.66
X5.6Y-4.855
X5.605Y-4.575
X5.775Y-4.865
X6.05Y-5.325
X6.0525Y-3.6475
X6.1225Y-3.69
X6.2Y-4.875
X6.205Y-3.735
X6.21Y-4.82
X6.252Y-5.002
X6.34Y-3.724
X6.35Y-5.325
X6.375Y-4.625
X6.4Y-3.79
X6.405Y-4.775
X6.45Y-4.425
X6.45Y-4.55
X6.475Y-4.875
X6.492Y-4.062
X6.512Y-3.794
X6.53Y-5.25
X6.5375Y-3.6425
X6.546Y-4.718
X6.55Y-4.475
X6.555Y-3.8675
X6.56Y-5.105
X6.57Y-5.215
X6.575Y-5.155
X6.62Y-4.4
X6.634Y-4.792
X6.65Y-4.9
X6.725Y-5.325
X6.752Y-4.136
X6.76Y-3.724
X6.77Y-4.675
X6.782Y-4.346
X6.805Y-4.4
X6.836Y-4.988
X6.925Y-4.625
X6.925Y-5.125
X6.925Y-5.25
X6.95Y-4.55
X7.Y-5.075
X7.Y-5.175
X7.004Y-4.848
X7.05Y-5.325
X7.065Y-4.675
X7.09Y-4.075
X7.145Y-4.125
X7.172Y-4.888
X7.195Y-4.17
X7.195Y-4.635
X7.24Y-4.23
X7.31Y-3.8
X7.31Y-3.94
X7.405Y-3.91
X7.41Y-3.8
T2
X7.3Y-4.2125
X7.3Y-4.3125
X7.3Y-4.4125
X7.3Y-4.5125
X7.3Y-4.6125
X7.3Y-4.7125
X7.3Y-4.8125
X7.3Y-4.9125
X7.4Y-4.2125
X7.4Y-4.3125
X7.4Y-4.4125
X7.4Y-4.5125
X7.4Y-4.6125
X7.4Y-4.7125
X7.4Y-4.8125
X7.4Y-4.9125
T3
X5.4Y-4.9
X5.4Y-5.
X5.4Y-5.1
X5.4Y-5.2
X5.4Y-5.3
X5.4Y-5.4
X6.09Y-3.5
X6.15Y-5.4
X6.19Y-3.5
X6.25Y-5.4
X6.29Y-3.5
X6.39Y-3.5
X6.45Y-5.4
X6.49Y-3.5
X6.55Y-5.4
X6.59Y-3.5
X6.65Y-5.4
X6.69Y-3.5
X6.75Y-5.4
X6.79Y-3.5
X6.85Y-5.4
X6.95Y-3.5
X6.95Y-5.4
X7.05Y-3.5
X7.15Y-3.5
X7.15Y-5.25
X7.15Y-5.4025
X7.25Y-3.5
X7.25Y-5.25
X7.25Y-5.4025
X7.35Y-3.5
X7.35Y-5.25
X7.35Y-5.4025
X7.45Y-3.5
X7.45Y-5.25
X7.45Y-5.4025
X7.55Y-3.5
X7.55Y-5.4025
X7.65Y-3.5
X7.65Y-5.4025
T0
M30
