%FSLAX46Y46*%
G04 Gerber Fmt 4.6, Leading zero omitted, Abs format (unit mm)*
G04 Created by KiCad (PCBNEW (2014-08-05 BZR 5054)-product) date Thu 28 Aug 2014 10:01:32 PM PDT*
%MOMM*%
G01*
G04 APERTURE LIST*
%ADD10C,0.152400*%
%ADD11C,0.300000*%
%ADD12C,0.127000*%
%ADD13C,0.254000*%
%ADD14C,0.150000*%
%ADD15C,0.078740*%
%ADD16C,0.203200*%
%ADD17C,0.040640*%
%ADD18C,0.100000*%
%ADD19C,0.119380*%
G04 APERTURE END LIST*
D10*
D11*
X133803571Y-135083715D02*
X133803571Y-134512286D01*
X133303571Y-134869429D02*
X134589286Y-134869429D01*
X134732143Y-134798001D01*
X134803571Y-134655143D01*
X134803571Y-134512286D01*
X134803571Y-133369429D02*
X134017857Y-133369429D01*
X133875000Y-133440858D01*
X133803571Y-133583715D01*
X133803571Y-133869429D01*
X133875000Y-134012286D01*
X134732143Y-133369429D02*
X134803571Y-133512286D01*
X134803571Y-133869429D01*
X134732143Y-134012286D01*
X134589286Y-134083715D01*
X134446429Y-134083715D01*
X134303571Y-134012286D01*
X134232143Y-133869429D01*
X134232143Y-133512286D01*
X134160714Y-133369429D01*
X133803571Y-132655143D02*
X135303571Y-132655143D01*
X133875000Y-132655143D02*
X133803571Y-132512286D01*
X133803571Y-132226572D01*
X133875000Y-132083715D01*
X133946429Y-132012286D01*
X134089286Y-131940857D01*
X134517857Y-131940857D01*
X134660714Y-132012286D01*
X134732143Y-132083715D01*
X134803571Y-132226572D01*
X134803571Y-132512286D01*
X134732143Y-132655143D01*
X134803571Y-131298000D02*
X133303571Y-131298000D01*
X134375000Y-130798000D01*
X133303571Y-130298000D01*
X134803571Y-130298000D01*
X134803571Y-128940857D02*
X134017857Y-128940857D01*
X133875000Y-129012286D01*
X133803571Y-129155143D01*
X133803571Y-129440857D01*
X133875000Y-129583714D01*
X134732143Y-128940857D02*
X134803571Y-129083714D01*
X134803571Y-129440857D01*
X134732143Y-129583714D01*
X134589286Y-129655143D01*
X134446429Y-129655143D01*
X134303571Y-129583714D01*
X134232143Y-129440857D01*
X134232143Y-129083714D01*
X134160714Y-128940857D01*
X133803571Y-128440857D02*
X133803571Y-127869428D01*
X133303571Y-128226571D02*
X134589286Y-128226571D01*
X134732143Y-128155143D01*
X134803571Y-128012285D01*
X134803571Y-127869428D01*
X134803571Y-127369428D02*
X133803571Y-127369428D01*
X134089286Y-127369428D02*
X133946429Y-127298000D01*
X133875000Y-127226571D01*
X133803571Y-127083714D01*
X133803571Y-126940857D01*
X134803571Y-126440857D02*
X133803571Y-126440857D01*
X133303571Y-126440857D02*
X133375000Y-126512286D01*
X133446429Y-126440857D01*
X133375000Y-126369429D01*
X133303571Y-126440857D01*
X133446429Y-126440857D01*
X134803571Y-125869428D02*
X133803571Y-125083714D01*
X133803571Y-125869428D02*
X134803571Y-125083714D01*
X137132143Y-135583714D02*
X137203571Y-135369428D01*
X137203571Y-135012285D01*
X137132143Y-134869428D01*
X137060714Y-134797999D01*
X136917857Y-134726571D01*
X136775000Y-134726571D01*
X136632143Y-134797999D01*
X136560714Y-134869428D01*
X136489286Y-135012285D01*
X136417857Y-135297999D01*
X136346429Y-135440857D01*
X136275000Y-135512285D01*
X136132143Y-135583714D01*
X135989286Y-135583714D01*
X135846429Y-135512285D01*
X135775000Y-135440857D01*
X135703571Y-135297999D01*
X135703571Y-134940857D01*
X135775000Y-134726571D01*
X137203571Y-134083714D02*
X135703571Y-134083714D01*
X137203571Y-133440857D02*
X136417857Y-133440857D01*
X136275000Y-133512286D01*
X136203571Y-133655143D01*
X136203571Y-133869428D01*
X136275000Y-134012286D01*
X136346429Y-134083714D01*
X137203571Y-132726571D02*
X136203571Y-132726571D01*
X135703571Y-132726571D02*
X135775000Y-132798000D01*
X135846429Y-132726571D01*
X135775000Y-132655143D01*
X135703571Y-132726571D01*
X135846429Y-132726571D01*
X137132143Y-131440857D02*
X137203571Y-131583714D01*
X137203571Y-131869428D01*
X137132143Y-132012285D01*
X136989286Y-132083714D01*
X136417857Y-132083714D01*
X136275000Y-132012285D01*
X136203571Y-131869428D01*
X136203571Y-131583714D01*
X136275000Y-131440857D01*
X136417857Y-131369428D01*
X136560714Y-131369428D01*
X136703571Y-132083714D01*
X137203571Y-130512285D02*
X137132143Y-130655143D01*
X136989286Y-130726571D01*
X135703571Y-130726571D01*
X137203571Y-129298000D02*
X135703571Y-129298000D01*
X137132143Y-129298000D02*
X137203571Y-129440857D01*
X137203571Y-129726571D01*
X137132143Y-129869429D01*
X137060714Y-129940857D01*
X136917857Y-130012286D01*
X136489286Y-130012286D01*
X136346429Y-129940857D01*
X136275000Y-129869429D01*
X136203571Y-129726571D01*
X136203571Y-129440857D01*
X136275000Y-129298000D01*
X135703571Y-127155143D02*
X135703571Y-127012286D01*
X135775000Y-126869429D01*
X135846429Y-126798000D01*
X135989286Y-126726571D01*
X136275000Y-126655143D01*
X136632143Y-126655143D01*
X136917857Y-126726571D01*
X137060714Y-126798000D01*
X137132143Y-126869429D01*
X137203571Y-127012286D01*
X137203571Y-127155143D01*
X137132143Y-127298000D01*
X137060714Y-127369429D01*
X136917857Y-127440857D01*
X136632143Y-127512286D01*
X136275000Y-127512286D01*
X135989286Y-127440857D01*
X135846429Y-127369429D01*
X135775000Y-127298000D01*
X135703571Y-127155143D01*
X137060714Y-126012286D02*
X137132143Y-125940858D01*
X137203571Y-126012286D01*
X137132143Y-126083715D01*
X137060714Y-126012286D01*
X137203571Y-126012286D01*
X137203571Y-124512286D02*
X137203571Y-125369429D01*
X137203571Y-124940857D02*
X135703571Y-124940857D01*
X135917857Y-125083714D01*
X136060714Y-125226572D01*
X136132143Y-125369429D01*
X139175000Y-136905142D02*
X139175000Y-136190856D01*
X139603571Y-137047999D02*
X138103571Y-136547999D01*
X139603571Y-136047999D01*
X138603571Y-134905142D02*
X139603571Y-134905142D01*
X138603571Y-135547999D02*
X139389286Y-135547999D01*
X139532143Y-135476571D01*
X139603571Y-135333713D01*
X139603571Y-135119428D01*
X139532143Y-134976571D01*
X139460714Y-134905142D01*
X138603571Y-133547999D02*
X139817857Y-133547999D01*
X139960714Y-133619428D01*
X140032143Y-133690856D01*
X140103571Y-133833713D01*
X140103571Y-134047999D01*
X140032143Y-134190856D01*
X139532143Y-133547999D02*
X139603571Y-133690856D01*
X139603571Y-133976570D01*
X139532143Y-134119428D01*
X139460714Y-134190856D01*
X139317857Y-134262285D01*
X138889286Y-134262285D01*
X138746429Y-134190856D01*
X138675000Y-134119428D01*
X138603571Y-133976570D01*
X138603571Y-133690856D01*
X138675000Y-133547999D01*
X138603571Y-132190856D02*
X139603571Y-132190856D01*
X138603571Y-132833713D02*
X139389286Y-132833713D01*
X139532143Y-132762285D01*
X139603571Y-132619427D01*
X139603571Y-132405142D01*
X139532143Y-132262285D01*
X139460714Y-132190856D01*
X139532143Y-131547999D02*
X139603571Y-131405142D01*
X139603571Y-131119427D01*
X139532143Y-130976570D01*
X139389286Y-130905142D01*
X139317857Y-130905142D01*
X139175000Y-130976570D01*
X139103571Y-131119427D01*
X139103571Y-131333713D01*
X139032143Y-131476570D01*
X138889286Y-131547999D01*
X138817857Y-131547999D01*
X138675000Y-131476570D01*
X138603571Y-131333713D01*
X138603571Y-131119427D01*
X138675000Y-130976570D01*
X138603571Y-130476570D02*
X138603571Y-129905141D01*
X138103571Y-130262284D02*
X139389286Y-130262284D01*
X139532143Y-130190856D01*
X139603571Y-130047998D01*
X139603571Y-129905141D01*
X138246429Y-128333713D02*
X138175000Y-128262284D01*
X138103571Y-128119427D01*
X138103571Y-127762284D01*
X138175000Y-127619427D01*
X138246429Y-127547998D01*
X138389286Y-127476570D01*
X138532143Y-127476570D01*
X138746429Y-127547998D01*
X139603571Y-128405141D01*
X139603571Y-127476570D01*
X138103571Y-126547999D02*
X138103571Y-126405142D01*
X138175000Y-126262285D01*
X138246429Y-126190856D01*
X138389286Y-126119427D01*
X138675000Y-126047999D01*
X139032143Y-126047999D01*
X139317857Y-126119427D01*
X139460714Y-126190856D01*
X139532143Y-126262285D01*
X139603571Y-126405142D01*
X139603571Y-126547999D01*
X139532143Y-126690856D01*
X139460714Y-126762285D01*
X139317857Y-126833713D01*
X139032143Y-126905142D01*
X138675000Y-126905142D01*
X138389286Y-126833713D01*
X138246429Y-126762285D01*
X138175000Y-126690856D01*
X138103571Y-126547999D01*
X139603571Y-124619428D02*
X139603571Y-125476571D01*
X139603571Y-125047999D02*
X138103571Y-125047999D01*
X138317857Y-125190856D01*
X138460714Y-125333714D01*
X138532143Y-125476571D01*
X138603571Y-123333714D02*
X139603571Y-123333714D01*
X138032143Y-123690857D02*
X139103571Y-124048000D01*
X139103571Y-123119428D01*
D12*
X174548800Y-114706400D02*
X174548800Y-113893600D01*
X173431200Y-113919000D02*
X173431200Y-114706400D01*
X173177200Y-113893600D02*
X174802800Y-113893600D01*
X174802800Y-113893600D02*
X174802800Y-114706400D01*
X174802800Y-114706400D02*
X173177200Y-114706400D01*
X173177200Y-114706400D02*
X173177200Y-113893600D01*
X174548800Y-126517400D02*
X174548800Y-125704600D01*
X173431200Y-125730000D02*
X173431200Y-126517400D01*
X173177200Y-125704600D02*
X174802800Y-125704600D01*
X174802800Y-125704600D02*
X174802800Y-126517400D01*
X174802800Y-126517400D02*
X173177200Y-126517400D01*
X173177200Y-126517400D02*
X173177200Y-125704600D01*
X174548800Y-122961400D02*
X174548800Y-122148600D01*
X173431200Y-122174000D02*
X173431200Y-122961400D01*
X173177200Y-122148600D02*
X174802800Y-122148600D01*
X174802800Y-122148600D02*
X174802800Y-122961400D01*
X174802800Y-122961400D02*
X173177200Y-122961400D01*
X173177200Y-122961400D02*
X173177200Y-122148600D01*
X174548800Y-119786400D02*
X174548800Y-118973600D01*
X173431200Y-118999000D02*
X173431200Y-119786400D01*
X173177200Y-118973600D02*
X174802800Y-118973600D01*
X174802800Y-118973600D02*
X174802800Y-119786400D01*
X174802800Y-119786400D02*
X173177200Y-119786400D01*
X173177200Y-119786400D02*
X173177200Y-118973600D01*
X166928800Y-116611400D02*
X166928800Y-115798600D01*
X165811200Y-115824000D02*
X165811200Y-116611400D01*
X165557200Y-115798600D02*
X167182800Y-115798600D01*
X167182800Y-115798600D02*
X167182800Y-116611400D01*
X167182800Y-116611400D02*
X165557200Y-116611400D01*
X165557200Y-116611400D02*
X165557200Y-115798600D01*
X166928800Y-119786400D02*
X166928800Y-118973600D01*
X165811200Y-118999000D02*
X165811200Y-119786400D01*
X165557200Y-118973600D02*
X167182800Y-118973600D01*
X167182800Y-118973600D02*
X167182800Y-119786400D01*
X167182800Y-119786400D02*
X165557200Y-119786400D01*
X165557200Y-119786400D02*
X165557200Y-118973600D01*
X169621200Y-96748600D02*
X169621200Y-97561400D01*
X170738800Y-97536000D02*
X170738800Y-96748600D01*
X170992800Y-97561400D02*
X169367200Y-97561400D01*
X169367200Y-97561400D02*
X169367200Y-96748600D01*
X169367200Y-96748600D02*
X170992800Y-96748600D01*
X170992800Y-96748600D02*
X170992800Y-97561400D01*
X165658800Y-100990400D02*
X165658800Y-100177600D01*
X164541200Y-100203000D02*
X164541200Y-100990400D01*
X164287200Y-100177600D02*
X165912800Y-100177600D01*
X165912800Y-100177600D02*
X165912800Y-100990400D01*
X165912800Y-100990400D02*
X164287200Y-100990400D01*
X164287200Y-100990400D02*
X164287200Y-100177600D01*
X154381200Y-118973600D02*
X154381200Y-119786400D01*
X155498800Y-119761000D02*
X155498800Y-118973600D01*
X155752800Y-119786400D02*
X154127200Y-119786400D01*
X154127200Y-119786400D02*
X154127200Y-118973600D01*
X154127200Y-118973600D02*
X155752800Y-118973600D01*
X155752800Y-118973600D02*
X155752800Y-119786400D01*
X137033000Y-118618000D02*
X137033000Y-118745000D01*
X137033000Y-118745000D02*
X142367000Y-118745000D01*
X142367000Y-114935000D02*
X137033000Y-114935000D01*
X137033000Y-114935000D02*
X137033000Y-118618000D01*
X137033000Y-116332000D02*
X137541000Y-116332000D01*
X137541000Y-116332000D02*
X137541000Y-117348000D01*
X137541000Y-117348000D02*
X137033000Y-117348000D01*
X142367000Y-114935000D02*
X142367000Y-118745000D01*
D13*
X165100000Y-135890000D02*
X177800000Y-135890000D01*
X177800000Y-135890000D02*
X177800000Y-138430000D01*
X177800000Y-138430000D02*
X165100000Y-138430000D01*
X162560000Y-135890000D02*
X165100000Y-135890000D01*
X165100000Y-135890000D02*
X165100000Y-138430000D01*
X162560000Y-135890000D02*
X162560000Y-138430000D01*
X162560000Y-138430000D02*
X165100000Y-138430000D01*
X182880000Y-135890000D02*
X195580000Y-135890000D01*
X195580000Y-135890000D02*
X195580000Y-138430000D01*
X195580000Y-138430000D02*
X182880000Y-138430000D01*
X180340000Y-135890000D02*
X182880000Y-135890000D01*
X182880000Y-135890000D02*
X182880000Y-138430000D01*
X180340000Y-135890000D02*
X180340000Y-138430000D01*
X180340000Y-138430000D02*
X182880000Y-138430000D01*
X156210000Y-87630000D02*
X173990000Y-87630000D01*
X173990000Y-87630000D02*
X173990000Y-90170000D01*
X173990000Y-90170000D02*
X156210000Y-90170000D01*
X153670000Y-87630000D02*
X156210000Y-87630000D01*
X156210000Y-87630000D02*
X156210000Y-90170000D01*
X153670000Y-87630000D02*
X153670000Y-90170000D01*
X153670000Y-90170000D02*
X156210000Y-90170000D01*
X177800000Y-87630000D02*
X195580000Y-87630000D01*
X195580000Y-87630000D02*
X195580000Y-90170000D01*
X195580000Y-90170000D02*
X177800000Y-90170000D01*
X175260000Y-87630000D02*
X177800000Y-87630000D01*
X177800000Y-87630000D02*
X177800000Y-90170000D01*
X175260000Y-87630000D02*
X175260000Y-90170000D01*
X175260000Y-90170000D02*
X177800000Y-90170000D01*
X156210000Y-135890000D02*
X156210000Y-138430000D01*
X153670000Y-135890000D02*
X153670000Y-138430000D01*
X153670000Y-138430000D02*
X156210000Y-138430000D01*
X156210000Y-138430000D02*
X158750000Y-138430000D01*
X158750000Y-138430000D02*
X158750000Y-135890000D01*
X158750000Y-135890000D02*
X153670000Y-135890000D01*
D14*
X137330000Y-107250000D02*
X139530000Y-107250000D01*
X137330000Y-108650000D02*
X139530000Y-108650000D01*
X142940000Y-106850000D02*
X142940000Y-109050000D01*
X141540000Y-106850000D02*
X141540000Y-109050000D01*
X167810000Y-112330000D02*
X170010000Y-112330000D01*
X167810000Y-113730000D02*
X170010000Y-113730000D01*
X169080000Y-99884000D02*
X171280000Y-99884000D01*
X169080000Y-101284000D02*
X171280000Y-101284000D01*
X164000000Y-95820000D02*
X166200000Y-95820000D01*
X164000000Y-97220000D02*
X166200000Y-97220000D01*
D15*
X168975090Y-106329480D02*
G75*
G03X168975090Y-106329480I-159070J0D01*
G74*
G01*
X166370000Y-107188000D02*
X166370000Y-106172000D01*
X168973500Y-107188000D02*
X168973500Y-106172000D01*
X166370000Y-106172000D02*
X168973500Y-106172000D01*
X168973500Y-107188000D02*
X166370000Y-107188000D01*
D12*
X179324000Y-100330000D02*
X179324000Y-95250000D01*
X179324000Y-95250000D02*
X183896000Y-95250000D01*
X183896000Y-95250000D02*
X183896000Y-100330000D01*
X183896000Y-100330000D02*
X179324000Y-100330000D01*
X180848000Y-100330000D02*
X180848000Y-99822000D01*
X180848000Y-99822000D02*
X182118000Y-99822000D01*
X182118000Y-99822000D02*
X182118000Y-100330000D01*
D16*
X159258000Y-94234000D02*
X159258000Y-103886000D01*
X159258000Y-103886000D02*
X155448000Y-103886000D01*
X155448000Y-103886000D02*
X155448000Y-94234000D01*
X155448000Y-94234000D02*
X159258000Y-94234000D01*
X157988000Y-94234000D02*
X157988000Y-94996000D01*
X157988000Y-94996000D02*
X156972000Y-94996000D01*
X156972000Y-94996000D02*
X156972000Y-94234000D01*
X159766000Y-116840000D02*
X154940000Y-116840000D01*
X154940000Y-116840000D02*
X154940000Y-106680000D01*
X154940000Y-106680000D02*
X159766000Y-106680000D01*
X159766000Y-106680000D02*
X159766000Y-116840000D01*
X157988000Y-106680000D02*
X157988000Y-107315000D01*
X157988000Y-107315000D02*
X156718000Y-107315000D01*
X156718000Y-107315000D02*
X156718000Y-106680000D01*
D14*
X198120000Y-113030000D02*
X196850000Y-113030000D01*
X196850000Y-113030000D02*
X196850000Y-107950000D01*
X196850000Y-107950000D02*
X198120000Y-107950000D01*
X198120000Y-125730000D02*
X196850000Y-125730000D01*
X196850000Y-125730000D02*
X196850000Y-120650000D01*
X196850000Y-120650000D02*
X198120000Y-120650000D01*
X198120000Y-130810000D02*
X198120000Y-102870000D01*
X198120000Y-102870000D02*
X187960000Y-102870000D01*
X198120000Y-130810000D02*
X187960000Y-130810000D01*
X187960000Y-130810000D02*
X187960000Y-102870000D01*
X182880000Y-109220000D02*
X185420000Y-109220000D01*
X185420000Y-109220000D02*
X185420000Y-106680000D01*
X185420000Y-106680000D02*
X182880000Y-106680000D01*
X182880000Y-106680000D02*
X182880000Y-109220000D01*
X144320000Y-132850000D02*
X142820000Y-132850000D01*
X142820000Y-132850000D02*
X142820000Y-137350000D01*
X142820000Y-137350000D02*
X142320000Y-137350000D01*
X142320000Y-137350000D02*
X142320000Y-138350000D01*
X142320000Y-138350000D02*
X147320000Y-138350000D01*
X150320000Y-132850000D02*
X151820000Y-132850000D01*
X151820000Y-132850000D02*
X151820000Y-137350000D01*
X147320000Y-138350000D02*
X152320000Y-138350000D01*
X152320000Y-138350000D02*
X152320000Y-137350000D01*
X152320000Y-137350000D02*
X151820000Y-137350000D01*
X147620000Y-88630000D02*
X132620000Y-88630000D01*
X132620000Y-88630000D02*
X132620000Y-99630000D01*
X132620000Y-99630000D02*
X139120000Y-99630000D01*
X139120000Y-99630000D02*
X141620000Y-97630000D01*
X141620000Y-97630000D02*
X147620000Y-97630000D01*
X147620000Y-97630000D02*
X147620000Y-88630000D01*
D17*
X173956557Y-113736664D02*
X173947002Y-113746220D01*
X173918336Y-113755775D01*
X173899226Y-113755775D01*
X173870560Y-113746220D01*
X173851449Y-113727109D01*
X173841894Y-113707999D01*
X173832339Y-113669778D01*
X173832339Y-113641112D01*
X173841894Y-113602891D01*
X173851449Y-113583780D01*
X173870560Y-113564670D01*
X173899226Y-113555115D01*
X173918336Y-113555115D01*
X173947002Y-113564670D01*
X173956557Y-113574225D01*
X174147662Y-113755775D02*
X174032999Y-113755775D01*
X174090330Y-113755775D02*
X174090330Y-113555115D01*
X174071220Y-113583780D01*
X174052109Y-113602891D01*
X174032999Y-113612446D01*
X173956557Y-125547664D02*
X173947002Y-125557220D01*
X173918336Y-125566775D01*
X173899226Y-125566775D01*
X173870560Y-125557220D01*
X173851449Y-125538109D01*
X173841894Y-125518999D01*
X173832339Y-125480778D01*
X173832339Y-125452112D01*
X173841894Y-125413891D01*
X173851449Y-125394780D01*
X173870560Y-125375670D01*
X173899226Y-125366115D01*
X173918336Y-125366115D01*
X173947002Y-125375670D01*
X173956557Y-125385225D01*
X174032999Y-125385225D02*
X174042554Y-125375670D01*
X174061665Y-125366115D01*
X174109441Y-125366115D01*
X174128551Y-125375670D01*
X174138107Y-125385225D01*
X174147662Y-125404336D01*
X174147662Y-125423446D01*
X174138107Y-125452112D01*
X174023444Y-125566775D01*
X174147662Y-125566775D01*
X173956557Y-121991664D02*
X173947002Y-122001220D01*
X173918336Y-122010775D01*
X173899226Y-122010775D01*
X173870560Y-122001220D01*
X173851449Y-121982109D01*
X173841894Y-121962999D01*
X173832339Y-121924778D01*
X173832339Y-121896112D01*
X173841894Y-121857891D01*
X173851449Y-121838780D01*
X173870560Y-121819670D01*
X173899226Y-121810115D01*
X173918336Y-121810115D01*
X173947002Y-121819670D01*
X173956557Y-121829225D01*
X174023444Y-121810115D02*
X174147662Y-121810115D01*
X174080775Y-121886557D01*
X174109441Y-121886557D01*
X174128551Y-121896112D01*
X174138107Y-121905667D01*
X174147662Y-121924778D01*
X174147662Y-121972554D01*
X174138107Y-121991664D01*
X174128551Y-122001220D01*
X174109441Y-122010775D01*
X174052109Y-122010775D01*
X174032999Y-122001220D01*
X174023444Y-121991664D01*
X173956557Y-118816664D02*
X173947002Y-118826220D01*
X173918336Y-118835775D01*
X173899226Y-118835775D01*
X173870560Y-118826220D01*
X173851449Y-118807109D01*
X173841894Y-118787999D01*
X173832339Y-118749778D01*
X173832339Y-118721112D01*
X173841894Y-118682891D01*
X173851449Y-118663780D01*
X173870560Y-118644670D01*
X173899226Y-118635115D01*
X173918336Y-118635115D01*
X173947002Y-118644670D01*
X173956557Y-118654225D01*
X174128551Y-118702001D02*
X174128551Y-118835775D01*
X174080775Y-118625560D02*
X174032999Y-118768888D01*
X174157217Y-118768888D01*
X166336557Y-115641664D02*
X166327002Y-115651220D01*
X166298336Y-115660775D01*
X166279226Y-115660775D01*
X166250560Y-115651220D01*
X166231449Y-115632109D01*
X166221894Y-115612999D01*
X166212339Y-115574778D01*
X166212339Y-115546112D01*
X166221894Y-115507891D01*
X166231449Y-115488780D01*
X166250560Y-115469670D01*
X166279226Y-115460115D01*
X166298336Y-115460115D01*
X166327002Y-115469670D01*
X166336557Y-115479225D01*
X166518107Y-115460115D02*
X166422554Y-115460115D01*
X166412999Y-115555667D01*
X166422554Y-115546112D01*
X166441665Y-115536557D01*
X166489441Y-115536557D01*
X166508551Y-115546112D01*
X166518107Y-115555667D01*
X166527662Y-115574778D01*
X166527662Y-115622554D01*
X166518107Y-115641664D01*
X166508551Y-115651220D01*
X166489441Y-115660775D01*
X166441665Y-115660775D01*
X166422554Y-115651220D01*
X166412999Y-115641664D01*
X166336557Y-118816664D02*
X166327002Y-118826220D01*
X166298336Y-118835775D01*
X166279226Y-118835775D01*
X166250560Y-118826220D01*
X166231449Y-118807109D01*
X166221894Y-118787999D01*
X166212339Y-118749778D01*
X166212339Y-118721112D01*
X166221894Y-118682891D01*
X166231449Y-118663780D01*
X166250560Y-118644670D01*
X166279226Y-118635115D01*
X166298336Y-118635115D01*
X166327002Y-118644670D01*
X166336557Y-118654225D01*
X166508551Y-118635115D02*
X166470330Y-118635115D01*
X166451220Y-118644670D01*
X166441665Y-118654225D01*
X166422554Y-118682891D01*
X166412999Y-118721112D01*
X166412999Y-118797554D01*
X166422554Y-118816664D01*
X166432109Y-118826220D01*
X166451220Y-118835775D01*
X166489441Y-118835775D01*
X166508551Y-118826220D01*
X166518107Y-118816664D01*
X166527662Y-118797554D01*
X166527662Y-118749778D01*
X166518107Y-118730667D01*
X166508551Y-118721112D01*
X166489441Y-118711557D01*
X166451220Y-118711557D01*
X166432109Y-118721112D01*
X166422554Y-118730667D01*
X166412999Y-118749778D01*
X170146557Y-97861664D02*
X170137002Y-97871220D01*
X170108336Y-97880775D01*
X170089226Y-97880775D01*
X170060560Y-97871220D01*
X170041449Y-97852109D01*
X170031894Y-97832999D01*
X170022339Y-97794778D01*
X170022339Y-97766112D01*
X170031894Y-97727891D01*
X170041449Y-97708780D01*
X170060560Y-97689670D01*
X170089226Y-97680115D01*
X170108336Y-97680115D01*
X170137002Y-97689670D01*
X170146557Y-97699225D01*
X170213444Y-97680115D02*
X170347217Y-97680115D01*
X170261220Y-97880775D01*
X165066557Y-100020664D02*
X165057002Y-100030220D01*
X165028336Y-100039775D01*
X165009226Y-100039775D01*
X164980560Y-100030220D01*
X164961449Y-100011109D01*
X164951894Y-99991999D01*
X164942339Y-99953778D01*
X164942339Y-99925112D01*
X164951894Y-99886891D01*
X164961449Y-99867780D01*
X164980560Y-99848670D01*
X165009226Y-99839115D01*
X165028336Y-99839115D01*
X165057002Y-99848670D01*
X165066557Y-99858225D01*
X165181220Y-99925112D02*
X165162109Y-99915557D01*
X165152554Y-99906001D01*
X165142999Y-99886891D01*
X165142999Y-99877336D01*
X165152554Y-99858225D01*
X165162109Y-99848670D01*
X165181220Y-99839115D01*
X165219441Y-99839115D01*
X165238551Y-99848670D01*
X165248107Y-99858225D01*
X165257662Y-99877336D01*
X165257662Y-99886891D01*
X165248107Y-99906001D01*
X165238551Y-99915557D01*
X165219441Y-99925112D01*
X165181220Y-99925112D01*
X165162109Y-99934667D01*
X165152554Y-99944222D01*
X165142999Y-99963333D01*
X165142999Y-100001554D01*
X165152554Y-100020664D01*
X165162109Y-100030220D01*
X165181220Y-100039775D01*
X165219441Y-100039775D01*
X165238551Y-100030220D01*
X165248107Y-100020664D01*
X165257662Y-100001554D01*
X165257662Y-99963333D01*
X165248107Y-99944222D01*
X165238551Y-99934667D01*
X165219441Y-99925112D01*
X154906557Y-120086664D02*
X154897002Y-120096220D01*
X154868336Y-120105775D01*
X154849226Y-120105775D01*
X154820560Y-120096220D01*
X154801449Y-120077109D01*
X154791894Y-120057999D01*
X154782339Y-120019778D01*
X154782339Y-119991112D01*
X154791894Y-119952891D01*
X154801449Y-119933780D01*
X154820560Y-119914670D01*
X154849226Y-119905115D01*
X154868336Y-119905115D01*
X154897002Y-119914670D01*
X154906557Y-119924225D01*
X155002109Y-120105775D02*
X155040330Y-120105775D01*
X155059441Y-120096220D01*
X155068996Y-120086664D01*
X155088107Y-120057999D01*
X155097662Y-120019778D01*
X155097662Y-119943336D01*
X155088107Y-119924225D01*
X155078551Y-119914670D01*
X155059441Y-119905115D01*
X155021220Y-119905115D01*
X155002109Y-119914670D01*
X154992554Y-119924225D01*
X154982999Y-119943336D01*
X154982999Y-119991112D01*
X154992554Y-120010222D01*
X155002109Y-120019778D01*
X155021220Y-120029333D01*
X155059441Y-120029333D01*
X155078551Y-120019778D01*
X155088107Y-120010222D01*
X155097662Y-119991112D01*
D14*
X134024810Y-117419381D02*
X134024810Y-116419381D01*
X135072429Y-117324143D02*
X135024810Y-117371762D01*
X134881953Y-117419381D01*
X134786715Y-117419381D01*
X134643857Y-117371762D01*
X134548619Y-117276524D01*
X134501000Y-117181286D01*
X134453381Y-116990810D01*
X134453381Y-116847952D01*
X134501000Y-116657476D01*
X134548619Y-116562238D01*
X134643857Y-116467000D01*
X134786715Y-116419381D01*
X134881953Y-116419381D01*
X135024810Y-116467000D01*
X135072429Y-116514619D01*
X136024810Y-117419381D02*
X135453381Y-117419381D01*
X135739095Y-117419381D02*
X135739095Y-116419381D01*
X135643857Y-116562238D01*
X135548619Y-116657476D01*
X135453381Y-116705095D01*
D16*
X169121667Y-134178524D02*
X169121667Y-135085667D01*
X169061191Y-135267095D01*
X168940239Y-135388048D01*
X168758810Y-135448524D01*
X168637858Y-135448524D01*
X169726429Y-135448524D02*
X169726429Y-134178524D01*
X170210238Y-134178524D01*
X170331191Y-134239000D01*
X170391667Y-134299476D01*
X170452143Y-134420429D01*
X170452143Y-134601857D01*
X170391667Y-134722810D01*
X170331191Y-134783286D01*
X170210238Y-134843762D01*
X169726429Y-134843762D01*
X171661667Y-135448524D02*
X170935953Y-135448524D01*
X171298810Y-135448524D02*
X171298810Y-134178524D01*
X171177858Y-134359952D01*
X171056905Y-134480905D01*
X170935953Y-134541381D01*
X186901667Y-134178524D02*
X186901667Y-135085667D01*
X186841191Y-135267095D01*
X186720239Y-135388048D01*
X186538810Y-135448524D01*
X186417858Y-135448524D01*
X187506429Y-135448524D02*
X187506429Y-134178524D01*
X187990238Y-134178524D01*
X188111191Y-134239000D01*
X188171667Y-134299476D01*
X188232143Y-134420429D01*
X188232143Y-134601857D01*
X188171667Y-134722810D01*
X188111191Y-134783286D01*
X187990238Y-134843762D01*
X187506429Y-134843762D01*
X188715953Y-134299476D02*
X188776429Y-134239000D01*
X188897381Y-134178524D01*
X189199762Y-134178524D01*
X189320715Y-134239000D01*
X189381191Y-134299476D01*
X189441667Y-134420429D01*
X189441667Y-134541381D01*
X189381191Y-134722810D01*
X188655477Y-135448524D01*
X189441667Y-135448524D01*
X162771667Y-90744524D02*
X162771667Y-91651667D01*
X162711191Y-91833095D01*
X162590239Y-91954048D01*
X162408810Y-92014524D01*
X162287858Y-92014524D01*
X163376429Y-92014524D02*
X163376429Y-90744524D01*
X163860238Y-90744524D01*
X163981191Y-90805000D01*
X164041667Y-90865476D01*
X164102143Y-90986429D01*
X164102143Y-91167857D01*
X164041667Y-91288810D01*
X163981191Y-91349286D01*
X163860238Y-91409762D01*
X163376429Y-91409762D01*
X164525477Y-90744524D02*
X165311667Y-90744524D01*
X164888334Y-91228333D01*
X165069762Y-91228333D01*
X165190715Y-91288810D01*
X165251191Y-91349286D01*
X165311667Y-91470238D01*
X165311667Y-91772619D01*
X165251191Y-91893571D01*
X165190715Y-91954048D01*
X165069762Y-92014524D01*
X164706905Y-92014524D01*
X164585953Y-91954048D01*
X164525477Y-91893571D01*
X184361667Y-90744524D02*
X184361667Y-91651667D01*
X184301191Y-91833095D01*
X184180239Y-91954048D01*
X183998810Y-92014524D01*
X183877858Y-92014524D01*
X184966429Y-92014524D02*
X184966429Y-90744524D01*
X185450238Y-90744524D01*
X185571191Y-90805000D01*
X185631667Y-90865476D01*
X185692143Y-90986429D01*
X185692143Y-91167857D01*
X185631667Y-91288810D01*
X185571191Y-91349286D01*
X185450238Y-91409762D01*
X184966429Y-91409762D01*
X186780715Y-91167857D02*
X186780715Y-92014524D01*
X186478334Y-90684048D02*
X186175953Y-91591190D01*
X186962143Y-91591190D01*
X155272619Y-135448524D02*
X155272619Y-134178524D01*
X155756428Y-134178524D01*
X155877381Y-134239000D01*
X155937857Y-134299476D01*
X155998333Y-134420429D01*
X155998333Y-134601857D01*
X155937857Y-134722810D01*
X155877381Y-134783286D01*
X155756428Y-134843762D01*
X155272619Y-134843762D01*
X156421667Y-134178524D02*
X157268333Y-134178524D01*
X156724048Y-135448524D01*
D18*
X138363334Y-106930952D02*
X138230000Y-106740476D01*
X138134762Y-106930952D02*
X138134762Y-106530952D01*
X138287143Y-106530952D01*
X138325238Y-106550000D01*
X138344286Y-106569048D01*
X138363334Y-106607143D01*
X138363334Y-106664286D01*
X138344286Y-106702381D01*
X138325238Y-106721429D01*
X138287143Y-106740476D01*
X138134762Y-106740476D01*
X138744286Y-106930952D02*
X138515714Y-106930952D01*
X138630000Y-106930952D02*
X138630000Y-106530952D01*
X138591905Y-106588095D01*
X138553810Y-106626190D01*
X138515714Y-106645238D01*
X143620952Y-108016666D02*
X143430476Y-108150000D01*
X143620952Y-108245238D02*
X143220952Y-108245238D01*
X143220952Y-108092857D01*
X143240000Y-108054762D01*
X143259048Y-108035714D01*
X143297143Y-108016666D01*
X143354286Y-108016666D01*
X143392381Y-108035714D01*
X143411429Y-108054762D01*
X143430476Y-108092857D01*
X143430476Y-108245238D01*
X143259048Y-107864286D02*
X143240000Y-107845238D01*
X143220952Y-107807143D01*
X143220952Y-107711905D01*
X143240000Y-107673809D01*
X143259048Y-107654762D01*
X143297143Y-107635714D01*
X143335238Y-107635714D01*
X143392381Y-107654762D01*
X143620952Y-107883333D01*
X143620952Y-107635714D01*
X168843334Y-112010952D02*
X168710000Y-111820476D01*
X168614762Y-112010952D02*
X168614762Y-111610952D01*
X168767143Y-111610952D01*
X168805238Y-111630000D01*
X168824286Y-111649048D01*
X168843334Y-111687143D01*
X168843334Y-111744286D01*
X168824286Y-111782381D01*
X168805238Y-111801429D01*
X168767143Y-111820476D01*
X168614762Y-111820476D01*
X168976667Y-111610952D02*
X169224286Y-111610952D01*
X169090953Y-111763333D01*
X169148095Y-111763333D01*
X169186191Y-111782381D01*
X169205238Y-111801429D01*
X169224286Y-111839524D01*
X169224286Y-111934762D01*
X169205238Y-111972857D01*
X169186191Y-111991905D01*
X169148095Y-112010952D01*
X169033810Y-112010952D01*
X168995714Y-111991905D01*
X168976667Y-111972857D01*
X170113334Y-99564952D02*
X169980000Y-99374476D01*
X169884762Y-99564952D02*
X169884762Y-99164952D01*
X170037143Y-99164952D01*
X170075238Y-99184000D01*
X170094286Y-99203048D01*
X170113334Y-99241143D01*
X170113334Y-99298286D01*
X170094286Y-99336381D01*
X170075238Y-99355429D01*
X170037143Y-99374476D01*
X169884762Y-99374476D01*
X170456191Y-99298286D02*
X170456191Y-99564952D01*
X170360953Y-99145905D02*
X170265714Y-99431619D01*
X170513334Y-99431619D01*
X165033334Y-95500952D02*
X164900000Y-95310476D01*
X164804762Y-95500952D02*
X164804762Y-95100952D01*
X164957143Y-95100952D01*
X164995238Y-95120000D01*
X165014286Y-95139048D01*
X165033334Y-95177143D01*
X165033334Y-95234286D01*
X165014286Y-95272381D01*
X164995238Y-95291429D01*
X164957143Y-95310476D01*
X164804762Y-95310476D01*
X165395238Y-95100952D02*
X165204762Y-95100952D01*
X165185714Y-95291429D01*
X165204762Y-95272381D01*
X165242857Y-95253333D01*
X165338095Y-95253333D01*
X165376191Y-95272381D01*
X165395238Y-95291429D01*
X165414286Y-95329524D01*
X165414286Y-95424762D01*
X165395238Y-95462857D01*
X165376191Y-95481905D01*
X165338095Y-95500952D01*
X165242857Y-95500952D01*
X165204762Y-95481905D01*
X165185714Y-95462857D01*
D19*
X165223734Y-107359631D02*
X165840591Y-107359631D01*
X165913163Y-107323346D01*
X165949449Y-107287060D01*
X165985734Y-107214489D01*
X165985734Y-107069346D01*
X165949449Y-106996774D01*
X165913163Y-106960489D01*
X165840591Y-106924203D01*
X165223734Y-106924203D01*
X165985734Y-106162203D02*
X165985734Y-106597631D01*
X165985734Y-106379917D02*
X165223734Y-106379917D01*
X165332591Y-106452488D01*
X165405163Y-106525060D01*
X165441449Y-106597631D01*
D12*
X180835905Y-101355071D02*
X180835905Y-102280357D01*
X180884286Y-102389214D01*
X180932667Y-102443643D01*
X181029429Y-102498071D01*
X181222952Y-102498071D01*
X181319714Y-102443643D01*
X181368095Y-102389214D01*
X181416476Y-102280357D01*
X181416476Y-101355071D01*
X181851905Y-101463929D02*
X181900286Y-101409500D01*
X181997048Y-101355071D01*
X182238952Y-101355071D01*
X182335714Y-101409500D01*
X182384095Y-101463929D01*
X182432476Y-101572786D01*
X182432476Y-101681643D01*
X182384095Y-101844929D01*
X181803524Y-102498071D01*
X182432476Y-102498071D01*
X156482143Y-92407619D02*
X156482143Y-93230095D01*
X156536571Y-93326857D01*
X156591000Y-93375238D01*
X156699857Y-93423619D01*
X156917571Y-93423619D01*
X157026429Y-93375238D01*
X157080857Y-93326857D01*
X157135286Y-93230095D01*
X157135286Y-92407619D01*
X157570715Y-92407619D02*
X158278286Y-92407619D01*
X157897286Y-92794667D01*
X158060572Y-92794667D01*
X158169429Y-92843048D01*
X158223858Y-92891429D01*
X158278286Y-92988190D01*
X158278286Y-93230095D01*
X158223858Y-93326857D01*
X158169429Y-93375238D01*
X158060572Y-93423619D01*
X157734000Y-93423619D01*
X157625143Y-93375238D01*
X157570715Y-93326857D01*
X156736143Y-117299619D02*
X156736143Y-118122095D01*
X156790571Y-118218857D01*
X156845000Y-118267238D01*
X156953857Y-118315619D01*
X157171571Y-118315619D01*
X157280429Y-118267238D01*
X157334857Y-118218857D01*
X157389286Y-118122095D01*
X157389286Y-117299619D01*
X158423429Y-117638286D02*
X158423429Y-118315619D01*
X158151286Y-117251238D02*
X157879143Y-117976952D01*
X158586715Y-117976952D01*
D14*
X182062381Y-117070095D02*
X181062381Y-117070095D01*
X181062381Y-116689142D01*
X181110000Y-116593904D01*
X181157619Y-116546285D01*
X181252857Y-116498666D01*
X181395714Y-116498666D01*
X181490952Y-116546285D01*
X181538571Y-116593904D01*
X181586190Y-116689142D01*
X181586190Y-117070095D01*
X181062381Y-115641523D02*
X181062381Y-115832000D01*
X181110000Y-115927238D01*
X181157619Y-115974857D01*
X181300476Y-116070095D01*
X181490952Y-116117714D01*
X181871905Y-116117714D01*
X181967143Y-116070095D01*
X182014762Y-116022476D01*
X182062381Y-115927238D01*
X182062381Y-115736761D01*
X182014762Y-115641523D01*
X181967143Y-115593904D01*
X181871905Y-115546285D01*
X181633810Y-115546285D01*
X181538571Y-115593904D01*
X181490952Y-115641523D01*
X181443333Y-115736761D01*
X181443333Y-115927238D01*
X181490952Y-116022476D01*
X181538571Y-116070095D01*
X181633810Y-116117714D01*
X187142381Y-128460476D02*
X187142381Y-129031905D01*
X187142381Y-128746191D02*
X186142381Y-128746191D01*
X186285238Y-128841429D01*
X186380476Y-128936667D01*
X186428095Y-129031905D01*
X186142381Y-127603333D02*
X186142381Y-127793810D01*
X186190000Y-127889048D01*
X186237619Y-127936667D01*
X186380476Y-128031905D01*
X186570952Y-128079524D01*
X186951905Y-128079524D01*
X187047143Y-128031905D01*
X187094762Y-127984286D01*
X187142381Y-127889048D01*
X187142381Y-127698571D01*
X187094762Y-127603333D01*
X187047143Y-127555714D01*
X186951905Y-127508095D01*
X186713810Y-127508095D01*
X186618571Y-127555714D01*
X186570952Y-127603333D01*
X186523333Y-127698571D01*
X186523333Y-127889048D01*
X186570952Y-127984286D01*
X186618571Y-128031905D01*
X186713810Y-128079524D01*
X184602381Y-128460476D02*
X184602381Y-129031905D01*
X184602381Y-128746191D02*
X183602381Y-128746191D01*
X183745238Y-128841429D01*
X183840476Y-128936667D01*
X183888095Y-129031905D01*
X183602381Y-127555714D02*
X183602381Y-128031905D01*
X184078571Y-128079524D01*
X184030952Y-128031905D01*
X183983333Y-127936667D01*
X183983333Y-127698571D01*
X184030952Y-127603333D01*
X184078571Y-127555714D01*
X184173810Y-127508095D01*
X184411905Y-127508095D01*
X184507143Y-127555714D01*
X184554762Y-127603333D01*
X184602381Y-127698571D01*
X184602381Y-127936667D01*
X184554762Y-128031905D01*
X184507143Y-128079524D01*
X186237619Y-105695714D02*
X186190000Y-105648095D01*
X186142381Y-105552857D01*
X186142381Y-105314761D01*
X186190000Y-105219523D01*
X186237619Y-105171904D01*
X186332857Y-105124285D01*
X186428095Y-105124285D01*
X186570952Y-105171904D01*
X187142381Y-105743333D01*
X187142381Y-105124285D01*
X184602381Y-105124285D02*
X184602381Y-105695714D01*
X184602381Y-105410000D02*
X183602381Y-105410000D01*
X183745238Y-105505238D01*
X183840476Y-105600476D01*
X183888095Y-105695714D01*
M02*
