%FSLAX46Y46*%
G04 Gerber Fmt 4.6, Leading zero omitted, Abs format (unit mm)*
G04 Created by KiCad (PCBNEW (2014-08-05 BZR 5054)-product) date Sun 23 Nov 2014 06:48:31 PM PST*
%MOMM*%
G01*
G04 APERTURE LIST*
%ADD10C,0.152400*%
%ADD11R,1.750000X0.700000*%
%ADD12R,1.500000X1.500000*%
%ADD13R,1.500000X0.800000*%
%ADD14R,1.400000X0.800000*%
%ADD15R,1.550000X1.000000*%
%ADD16R,1.000000X1.450000*%
%ADD17R,0.600000X2.000000*%
%ADD18R,0.700000X4.200000*%
%ADD19R,2.800000X1.600000*%
%ADD20R,0.600000X1.600000*%
%ADD21R,0.800000X0.750000*%
%ADD22R,0.750000X0.800000*%
%ADD23R,0.500000X0.900000*%
%ADD24R,0.900000X0.500000*%
%ADD25R,1.600000X0.600000*%
%ADD26R,0.500000X1.500000*%
%ADD27R,0.480000X1.400000*%
%ADD28R,0.560000X1.550000*%
%ADD29R,1.200000X1.800000*%
G04 APERTURE END LIST*
D10*
D11*
X134913500Y-97196500D03*
X134913500Y-96096500D03*
X134913500Y-94996500D03*
X134913500Y-93896500D03*
X134913500Y-92796500D03*
X134913500Y-91696500D03*
X134913500Y-90596500D03*
X134913500Y-89496500D03*
D12*
X135013500Y-88196500D03*
X135013500Y-99646500D03*
D13*
X142693500Y-87846500D03*
D14*
X143263500Y-99996500D03*
D15*
X145663500Y-99646500D03*
D16*
X144163500Y-88146500D03*
D17*
X145169000Y-132477000D03*
X144169000Y-132477000D03*
X146169000Y-132477000D03*
X147169000Y-132477000D03*
D18*
X143169000Y-134477000D03*
X148169000Y-134477000D03*
D19*
X182186000Y-126846000D03*
X177886000Y-126846000D03*
X173702400Y-126744400D03*
X169402400Y-126744400D03*
X155973200Y-126033200D03*
X151673200Y-126033200D03*
D20*
X136605800Y-112463600D03*
X136605800Y-117863600D03*
X137855800Y-112463600D03*
X139105800Y-112463600D03*
X140355800Y-112463600D03*
X137855800Y-117863600D03*
X139105800Y-117863600D03*
X140355800Y-117863600D03*
D21*
X173266800Y-121716800D03*
X171766800Y-121716800D03*
X180453600Y-121716800D03*
X181953600Y-121716800D03*
X162724400Y-119837200D03*
X164224400Y-119837200D03*
D22*
X169418000Y-118058500D03*
X169418000Y-119558500D03*
X169418000Y-105041000D03*
X169418000Y-106541000D03*
D23*
X135965500Y-106934000D03*
X137465500Y-106934000D03*
X140283500Y-106934000D03*
X141783500Y-106934000D03*
D24*
X169418000Y-110478000D03*
X169418000Y-108978000D03*
X169468800Y-113983200D03*
X169468800Y-112483200D03*
D23*
X168961500Y-91948000D03*
X167461500Y-91948000D03*
D25*
X174147500Y-110714000D03*
X179547500Y-110714000D03*
X174147500Y-109464000D03*
X174147500Y-108214000D03*
X174147500Y-106964000D03*
X179547500Y-109464000D03*
X179547500Y-108214000D03*
X179547500Y-106964000D03*
X179585600Y-114863400D03*
X174185600Y-114863400D03*
X179585600Y-116113400D03*
X179585600Y-117363400D03*
X179585600Y-118613400D03*
X174185600Y-116113400D03*
X174185600Y-117363400D03*
X174185600Y-118613400D03*
D26*
X169916000Y-94629000D03*
X168646000Y-94629000D03*
X167376000Y-94629000D03*
X166106000Y-94629000D03*
X164836000Y-94629000D03*
X163566000Y-94629000D03*
X162296000Y-94629000D03*
X162296000Y-101379000D03*
X163566000Y-101379000D03*
X164836000Y-101379000D03*
X166106000Y-101379000D03*
X167376000Y-101379000D03*
X168646000Y-101379000D03*
X169916000Y-101379000D03*
D21*
X176440400Y-121716800D03*
X177940400Y-121716800D03*
D27*
X160601660Y-127784860D03*
D28*
X162102800Y-127733200D03*
D27*
X163603940Y-127784860D03*
D29*
X162102800Y-125633200D03*
D10*
G36*
X162652800Y-126483200D02*
X162352800Y-126983200D01*
X161852800Y-126983200D01*
X161552800Y-126483200D01*
X162652800Y-126483200D01*
X162652800Y-126483200D01*
G37*
G36*
X161552800Y-124783200D02*
X161852800Y-124283200D01*
X162352800Y-124283200D01*
X162652800Y-124783200D01*
X161552800Y-124783200D01*
X161552800Y-124783200D01*
G37*
M02*
