%FSLAX46Y46*%
G04 Gerber Fmt 4.6, Leading zero omitted, Abs format (unit mm)*
G04 Created by KiCad (PCBNEW (2014-08-05 BZR 5054)-product) date Wed 03 Sep 2014 08:44:24 PM PDT*
%MOMM*%
G01*
G04 APERTURE LIST*
%ADD10C,0.152400*%
%ADD11R,0.899160X1.000760*%
%ADD12R,0.600000X1.600000*%
%ADD13R,1.727200X2.032000*%
%ADD14O,1.727200X2.032000*%
%ADD15R,2.032000X2.032000*%
%ADD16O,2.032000X2.032000*%
%ADD17R,0.635000X1.143000*%
%ADD18R,1.143000X0.635000*%
%ADD19R,0.800100X1.000760*%
%ADD20R,1.143000X0.508000*%
%ADD21C,1.270000*%
%ADD22R,0.600000X2.000000*%
%ADD23R,0.700000X4.200000*%
%ADD24R,1.750000X0.700000*%
%ADD25R,1.300000X1.300000*%
%ADD26R,1.500000X0.800000*%
%ADD27R,1.400000X0.800000*%
%ADD28R,1.550000X1.000000*%
%ADD29R,1.000000X1.450000*%
%ADD30R,2.499360X2.550160*%
%ADD31R,2.550160X2.499360*%
%ADD32R,2.032000X1.727200*%
%ADD33O,2.032000X1.727200*%
%ADD34C,0.889000*%
%ADD35C,0.762000*%
%ADD36C,0.254000*%
G04 APERTURE END LIST*
D10*
D11*
X165851840Y-123571000D03*
X164348160Y-123571000D03*
X165851840Y-121412000D03*
X164348160Y-121412000D03*
X165851840Y-119253000D03*
X164348160Y-119253000D03*
X167121840Y-116205000D03*
X165618160Y-116205000D03*
X169428160Y-97155000D03*
X170931840Y-97155000D03*
X165851840Y-100584000D03*
X164348160Y-100584000D03*
D12*
X137825000Y-114140000D03*
X137825000Y-119540000D03*
X139075000Y-114140000D03*
X140325000Y-114140000D03*
X141575000Y-114140000D03*
X139075000Y-119540000D03*
X140325000Y-119540000D03*
X141575000Y-119540000D03*
D13*
X163830000Y-137160000D03*
D14*
X166370000Y-137160000D03*
X168910000Y-137160000D03*
X171450000Y-137160000D03*
X173990000Y-137160000D03*
X176530000Y-137160000D03*
D13*
X181610000Y-137160000D03*
D14*
X184150000Y-137160000D03*
X186690000Y-137160000D03*
X189230000Y-137160000D03*
X191770000Y-137160000D03*
X194310000Y-137160000D03*
D13*
X154940000Y-88900000D03*
D14*
X157480000Y-88900000D03*
X160020000Y-88900000D03*
X162560000Y-88900000D03*
X165100000Y-88900000D03*
X167640000Y-88900000D03*
X170180000Y-88900000D03*
X172720000Y-88900000D03*
D13*
X176530000Y-88900000D03*
D14*
X179070000Y-88900000D03*
X181610000Y-88900000D03*
X184150000Y-88900000D03*
X186690000Y-88900000D03*
X189230000Y-88900000D03*
X191770000Y-88900000D03*
X194310000Y-88900000D03*
D15*
X154940000Y-137160000D03*
D16*
X157480000Y-137160000D03*
D17*
X137668000Y-107950000D03*
X139192000Y-107950000D03*
D18*
X142240000Y-107188000D03*
X142240000Y-108712000D03*
D17*
X168148000Y-113030000D03*
X169672000Y-113030000D03*
X169418000Y-100584000D03*
X170942000Y-100584000D03*
X164338000Y-96520000D03*
X165862000Y-96520000D03*
D19*
X167640000Y-107779820D03*
X166687500Y-105580180D03*
X168592500Y-105580180D03*
D20*
X178435000Y-99695000D03*
X178435000Y-98425000D03*
X178435000Y-97155000D03*
X178435000Y-95885000D03*
X184785000Y-95885000D03*
X184785000Y-97155000D03*
X184785000Y-98425000D03*
X184785000Y-99695000D03*
X154686000Y-95250000D03*
X154686000Y-96520000D03*
X154686000Y-97790000D03*
X154686000Y-99060000D03*
X154686000Y-100330000D03*
X154686000Y-101600000D03*
X154686000Y-102870000D03*
X160020000Y-102870000D03*
X160020000Y-101600000D03*
X160020000Y-100330000D03*
X160020000Y-99060000D03*
X160020000Y-97790000D03*
X160020000Y-96520000D03*
X160020000Y-95250000D03*
X154178000Y-107950000D03*
X154178000Y-109220000D03*
X154178000Y-110490000D03*
X154178000Y-111760000D03*
X154178000Y-113030000D03*
X154178000Y-114300000D03*
X154178000Y-115570000D03*
X160528000Y-115570000D03*
X160528000Y-114300000D03*
X160528000Y-111760000D03*
X160528000Y-110490000D03*
X160528000Y-109220000D03*
X160528000Y-107950000D03*
X160528000Y-113030000D03*
D21*
X184150000Y-125730000D03*
X186690000Y-125730000D03*
X184150000Y-123190000D03*
X186690000Y-123190000D03*
X184150000Y-120650000D03*
X186690000Y-120650000D03*
X184150000Y-118110000D03*
X186690000Y-118110000D03*
X184150000Y-115570000D03*
X186690000Y-115570000D03*
X184150000Y-113030000D03*
X186690000Y-113030000D03*
X184150000Y-110490000D03*
X186690000Y-110490000D03*
X184150000Y-107950000D03*
X186690000Y-107950000D03*
D22*
X146820000Y-132350000D03*
X145820000Y-132350000D03*
X147820000Y-132350000D03*
X148820000Y-132350000D03*
D23*
X144820000Y-134350000D03*
X149820000Y-134350000D03*
D24*
X136120000Y-98530000D03*
X136120000Y-97430000D03*
X136120000Y-96330000D03*
X136120000Y-95230000D03*
X136120000Y-94130000D03*
X136120000Y-93030000D03*
X136120000Y-91930000D03*
X136120000Y-90830000D03*
D25*
X136345000Y-89630000D03*
X136345000Y-100680000D03*
D26*
X143900000Y-89380000D03*
D27*
X144470000Y-98480000D03*
D28*
X146870000Y-98030000D03*
D29*
X145370000Y-89680000D03*
D30*
X175514000Y-109616240D03*
X175514000Y-114665760D03*
D31*
X170957240Y-122682000D03*
X176006760Y-122682000D03*
X155178760Y-122428000D03*
X150129240Y-122428000D03*
D32*
X137795000Y-137160000D03*
D33*
X137795000Y-134620000D03*
X137795000Y-132080000D03*
X137795000Y-129540000D03*
D21*
X193167000Y-108712000D03*
X188468000Y-100965000D03*
X171196000Y-91948000D03*
X162814000Y-94996000D03*
X163703000Y-110236000D03*
X167640000Y-110236000D03*
D34*
X181229000Y-98425000D03*
X162941000Y-116840000D03*
X168275000Y-125095000D03*
X176403000Y-106172000D03*
X144145000Y-111379000D03*
X161544000Y-121412000D03*
X143764000Y-122428000D03*
X169418000Y-94742000D03*
X145288000Y-100203000D03*
X154686000Y-93345000D03*
X158115000Y-100965000D03*
X138303000Y-101219000D03*
X133731000Y-88138000D03*
X165608000Y-102870000D03*
X172593000Y-99441000D03*
X172593000Y-105537000D03*
X170688000Y-104140000D03*
X163703000Y-105791000D03*
X145923000Y-123698000D03*
X143002000Y-113157000D03*
X157861000Y-128016000D03*
X143383000Y-105791000D03*
X142875000Y-124714000D03*
X158750000Y-127127000D03*
X180594000Y-128905000D03*
X151257000Y-131191000D03*
X144145000Y-91821000D03*
X177419000Y-101600000D03*
X180467000Y-103759000D03*
X162052000Y-98425000D03*
X163195000Y-103378000D03*
D35*
X184785000Y-99695000D02*
X187198000Y-99695000D01*
X187198000Y-99695000D02*
X188468000Y-100965000D01*
X164338000Y-96520000D02*
X162814000Y-94996000D01*
X168148000Y-113030000D02*
X168148000Y-110744000D01*
X168148000Y-110744000D02*
X167640000Y-110236000D01*
D36*
X178435000Y-98425000D02*
X181229000Y-98425000D01*
X165618160Y-116205000D02*
X163576000Y-116205000D01*
X163576000Y-116205000D02*
X162941000Y-116840000D01*
X170957240Y-122682000D02*
X168656000Y-122682000D01*
X168275000Y-123063000D02*
X168275000Y-125095000D01*
X168656000Y-122682000D02*
X168275000Y-123063000D01*
X175514000Y-109616240D02*
X175514000Y-107061000D01*
X175514000Y-107061000D02*
X176403000Y-106172000D01*
X154178000Y-111760000D02*
X149860000Y-111760000D01*
X149479000Y-111379000D02*
X144145000Y-111379000D01*
X149860000Y-111760000D02*
X149479000Y-111379000D01*
X161544000Y-121412000D02*
X161544000Y-122428000D01*
X162687000Y-123571000D02*
X164348160Y-123571000D01*
X161544000Y-122428000D02*
X162687000Y-123571000D01*
X164348160Y-119253000D02*
X162306000Y-119253000D01*
X161544000Y-121412000D02*
X164348160Y-121412000D01*
X161544000Y-120015000D02*
X161544000Y-121412000D01*
X162306000Y-119253000D02*
X161544000Y-120015000D01*
X141575000Y-119540000D02*
X141575000Y-120239000D01*
X141575000Y-120239000D02*
X143764000Y-122428000D01*
X169428160Y-97155000D02*
X169428160Y-94752160D01*
X169428160Y-94752160D02*
X169418000Y-94742000D01*
X154686000Y-99060000D02*
X149606000Y-99060000D01*
X144470000Y-99385000D02*
X145288000Y-100203000D01*
X144470000Y-99385000D02*
X144470000Y-98480000D01*
X148463000Y-100203000D02*
X145288000Y-100203000D01*
X149606000Y-99060000D02*
X148463000Y-100203000D01*
X154686000Y-95250000D02*
X154686000Y-93345000D01*
X154686000Y-102870000D02*
X157226000Y-102870000D01*
X158750000Y-100330000D02*
X158115000Y-100965000D01*
X158750000Y-100330000D02*
X160020000Y-100330000D01*
X158115000Y-101981000D02*
X158115000Y-100965000D01*
X157226000Y-102870000D02*
X158115000Y-101981000D01*
X136345000Y-100680000D02*
X137764000Y-100680000D01*
X137764000Y-100680000D02*
X138303000Y-101219000D01*
X136120000Y-93030000D02*
X134813000Y-93030000D01*
X133731000Y-91948000D02*
X133731000Y-88138000D01*
X134813000Y-93030000D02*
X133731000Y-91948000D01*
X143900000Y-89380000D02*
X142085000Y-89380000D01*
X135223000Y-89630000D02*
X133731000Y-88138000D01*
X135223000Y-89630000D02*
X136345000Y-89630000D01*
X140843000Y-88138000D02*
X133731000Y-88138000D01*
X142085000Y-89380000D02*
X140843000Y-88138000D01*
X168592500Y-105580180D02*
X168592500Y-103568500D01*
X164348160Y-101610160D02*
X164348160Y-100584000D01*
X164348160Y-101610160D02*
X165608000Y-102870000D01*
X167894000Y-102870000D02*
X165608000Y-102870000D01*
X168592500Y-103568500D02*
X167894000Y-102870000D01*
X169672000Y-113030000D02*
X169672000Y-108458000D01*
X170931840Y-97779840D02*
X170931840Y-97155000D01*
X172593000Y-99441000D02*
X170931840Y-97779840D01*
X169672000Y-108458000D02*
X172593000Y-105537000D01*
X170931840Y-97155000D02*
X178435000Y-97155000D01*
X154178000Y-113030000D02*
X149733000Y-113030000D01*
X143510000Y-110490000D02*
X154178000Y-110490000D01*
X143002000Y-110998000D02*
X143510000Y-110490000D01*
X143002000Y-111760000D02*
X143002000Y-110998000D01*
X143764000Y-112522000D02*
X143002000Y-111760000D01*
X149225000Y-112522000D02*
X143764000Y-112522000D01*
X149733000Y-113030000D02*
X149225000Y-112522000D01*
X154178000Y-110490000D02*
X153543000Y-110490000D01*
X169418000Y-102870000D02*
X169418000Y-100584000D01*
X170688000Y-104140000D02*
X169418000Y-102870000D01*
X153670000Y-105791000D02*
X163703000Y-105791000D01*
X152781000Y-106680000D02*
X153670000Y-105791000D01*
X152781000Y-109728000D02*
X152781000Y-106680000D01*
X153543000Y-110490000D02*
X152781000Y-109728000D01*
X169418000Y-100584000D02*
X165851840Y-100584000D01*
X154178000Y-115570000D02*
X150622000Y-115570000D01*
X147193000Y-122428000D02*
X150129240Y-122428000D01*
X145923000Y-123698000D02*
X147193000Y-122428000D01*
X148209000Y-113157000D02*
X143002000Y-113157000D01*
X150622000Y-115570000D02*
X148209000Y-113157000D01*
X154178000Y-114300000D02*
X155194000Y-114300000D01*
X156210000Y-113284000D02*
X156210000Y-113030000D01*
X155194000Y-114300000D02*
X156210000Y-113284000D01*
X154178000Y-107950000D02*
X154178000Y-109220000D01*
X154178000Y-109220000D02*
X155702000Y-109220000D01*
X155702000Y-109220000D02*
X156210000Y-109728000D01*
X156210000Y-109728000D02*
X156210000Y-113030000D01*
X156210000Y-113030000D02*
X156210000Y-114935000D01*
X156210000Y-114935000D02*
X155575000Y-115570000D01*
X155575000Y-115570000D02*
X154178000Y-115570000D01*
X155178760Y-122428000D02*
X155178760Y-125333760D01*
X155178760Y-125333760D02*
X157861000Y-128016000D01*
X157480000Y-137160000D02*
X157480000Y-137795000D01*
X143383000Y-105791000D02*
X142240000Y-106934000D01*
X142240000Y-106934000D02*
X142240000Y-107188000D01*
X137825000Y-114140000D02*
X137825000Y-115981000D01*
X140325000Y-117338000D02*
X140325000Y-119540000D01*
X139827000Y-116840000D02*
X140325000Y-117338000D01*
X138684000Y-116840000D02*
X139827000Y-116840000D01*
X137825000Y-115981000D02*
X138684000Y-116840000D01*
X142240000Y-107188000D02*
X142240000Y-106299000D01*
X137668000Y-105918000D02*
X137668000Y-107950000D01*
X138049000Y-105537000D02*
X137668000Y-105918000D01*
X141478000Y-105537000D02*
X138049000Y-105537000D01*
X142240000Y-106299000D02*
X141478000Y-105537000D01*
X137668000Y-107950000D02*
X137668000Y-113983000D01*
X137668000Y-113983000D02*
X137825000Y-114140000D01*
X140325000Y-119540000D02*
X140325000Y-122164000D01*
X140325000Y-122164000D02*
X142875000Y-124714000D01*
X140325000Y-116068000D02*
X140325000Y-114140000D01*
X140716000Y-116459000D02*
X140325000Y-116068000D01*
X148717000Y-116459000D02*
X140716000Y-116459000D01*
X151384000Y-119126000D02*
X148717000Y-116459000D01*
X155575000Y-119126000D02*
X151384000Y-119126000D01*
X158242000Y-121793000D02*
X155575000Y-119126000D01*
X158242000Y-126619000D02*
X158242000Y-121793000D01*
X158750000Y-127127000D02*
X158242000Y-126619000D01*
X139192000Y-107950000D02*
X139192000Y-109728000D01*
X140325000Y-110861000D02*
X140325000Y-114140000D01*
X139192000Y-109728000D02*
X140325000Y-110861000D01*
X141575000Y-114140000D02*
X147795000Y-114140000D01*
X191770000Y-131826000D02*
X191770000Y-137160000D01*
X187833000Y-127889000D02*
X191770000Y-131826000D01*
X161417000Y-127889000D02*
X187833000Y-127889000D01*
X159131000Y-125603000D02*
X161417000Y-127889000D01*
X159131000Y-121285000D02*
X159131000Y-125603000D01*
X155956000Y-118110000D02*
X159131000Y-121285000D01*
X151765000Y-118110000D02*
X155956000Y-118110000D01*
X147795000Y-114140000D02*
X151765000Y-118110000D01*
X142240000Y-108712000D02*
X142240000Y-110236000D01*
X141575000Y-110901000D02*
X141575000Y-114140000D01*
X142240000Y-110236000D02*
X141575000Y-110901000D01*
X147320000Y-137922000D02*
X138557000Y-137922000D01*
X138557000Y-137922000D02*
X137795000Y-137160000D01*
X181610000Y-137160000D02*
X181610000Y-134620000D01*
X145820000Y-136676000D02*
X145820000Y-132350000D01*
X147066000Y-137922000D02*
X145820000Y-136676000D01*
X151130000Y-137922000D02*
X147320000Y-137922000D01*
X147320000Y-137922000D02*
X147066000Y-137922000D01*
X152273000Y-136779000D02*
X151130000Y-137922000D01*
X152273000Y-133731000D02*
X152273000Y-136779000D01*
X153797000Y-132207000D02*
X152273000Y-133731000D01*
X179197000Y-132207000D02*
X153797000Y-132207000D01*
X181610000Y-134620000D02*
X179197000Y-132207000D01*
X146820000Y-132350000D02*
X146820000Y-130310000D01*
X140208000Y-134620000D02*
X137795000Y-134620000D01*
X141224000Y-133604000D02*
X140208000Y-134620000D01*
X141224000Y-130302000D02*
X141224000Y-133604000D01*
X141986000Y-129540000D02*
X141224000Y-130302000D01*
X146050000Y-129540000D02*
X141986000Y-129540000D01*
X146820000Y-130310000D02*
X146050000Y-129540000D01*
X184150000Y-137160000D02*
X184150000Y-135001000D01*
X146820000Y-136406000D02*
X146820000Y-132350000D01*
X147701000Y-137287000D02*
X146820000Y-136406000D01*
X150241000Y-137287000D02*
X147701000Y-137287000D01*
X151003000Y-136525000D02*
X150241000Y-137287000D01*
X151003000Y-133350000D02*
X151003000Y-136525000D01*
X153289000Y-131064000D02*
X151003000Y-133350000D01*
X180213000Y-131064000D02*
X153289000Y-131064000D01*
X184150000Y-135001000D02*
X180213000Y-131064000D01*
X146812000Y-132342000D02*
X146820000Y-132350000D01*
X150241000Y-128905000D02*
X141605000Y-128905000D01*
X139700000Y-132080000D02*
X137795000Y-132080000D01*
X140462000Y-131318000D02*
X139700000Y-132080000D01*
X140462000Y-130048000D02*
X140462000Y-131318000D01*
X141605000Y-128905000D02*
X140462000Y-130048000D01*
X147820000Y-130437000D02*
X147820000Y-132350000D01*
X149352000Y-128905000D02*
X147820000Y-130437000D01*
X157353000Y-128905000D02*
X150241000Y-128905000D01*
X150241000Y-128905000D02*
X149352000Y-128905000D01*
X180594000Y-128905000D02*
X157353000Y-128905000D01*
X147955000Y-132215000D02*
X147820000Y-132350000D01*
X186690000Y-137160000D02*
X185928000Y-137160000D01*
X153162000Y-130048000D02*
X152400000Y-130048000D01*
X152400000Y-130048000D02*
X151257000Y-131191000D01*
X189230000Y-137160000D02*
X189230000Y-133350000D01*
X148820000Y-130580000D02*
X148820000Y-132350000D01*
X149352000Y-130048000D02*
X148820000Y-130580000D01*
X185928000Y-130048000D02*
X153162000Y-130048000D01*
X153162000Y-130048000D02*
X149352000Y-130048000D01*
X189230000Y-133350000D02*
X185928000Y-130048000D01*
X160020000Y-88900000D02*
X160020000Y-91948000D01*
X155448000Y-96520000D02*
X154686000Y-96520000D01*
X160020000Y-91948000D02*
X155448000Y-96520000D01*
X144036000Y-91930000D02*
X136120000Y-91930000D01*
X144145000Y-91821000D02*
X144036000Y-91930000D01*
X165100000Y-88900000D02*
X165100000Y-91440000D01*
X156718000Y-100330000D02*
X154686000Y-100330000D01*
X157734000Y-99314000D02*
X156718000Y-100330000D01*
X157734000Y-95123000D02*
X157734000Y-99314000D01*
X159512000Y-93345000D02*
X157734000Y-95123000D01*
X163195000Y-93345000D02*
X159512000Y-93345000D01*
X165100000Y-91440000D02*
X163195000Y-93345000D01*
X165862000Y-96520000D02*
X165862000Y-98171000D01*
X161671000Y-101600000D02*
X160020000Y-101600000D01*
X162306000Y-100965000D02*
X161671000Y-101600000D01*
X162306000Y-100076000D02*
X162306000Y-100965000D01*
X163449000Y-98933000D02*
X162306000Y-100076000D01*
X165100000Y-98933000D02*
X163449000Y-98933000D01*
X165862000Y-98171000D02*
X165100000Y-98933000D01*
X167640000Y-88900000D02*
X167640000Y-92583000D01*
X165862000Y-94361000D02*
X165862000Y-96520000D01*
X167640000Y-92583000D02*
X165862000Y-94361000D01*
X184150000Y-113030000D02*
X184150000Y-112522000D01*
X184150000Y-112522000D02*
X182372000Y-110744000D01*
X182372000Y-110744000D02*
X182372000Y-103759000D01*
X182372000Y-103759000D02*
X180213000Y-101600000D01*
X180213000Y-101600000D02*
X177419000Y-101600000D01*
X181483000Y-112903000D02*
X184150000Y-115570000D01*
X181483000Y-104775000D02*
X181483000Y-112903000D01*
X180467000Y-103759000D02*
X181483000Y-104775000D01*
X181610000Y-88900000D02*
X181610000Y-94361000D01*
X180086000Y-95885000D02*
X178435000Y-95885000D01*
X181610000Y-94361000D02*
X180086000Y-95885000D01*
X184150000Y-88900000D02*
X184150000Y-93345000D01*
X184785000Y-93980000D02*
X184785000Y-95885000D01*
X184150000Y-93345000D02*
X184785000Y-93980000D01*
X186690000Y-88900000D02*
X186690000Y-96266000D01*
X185801000Y-97155000D02*
X184785000Y-97155000D01*
X186690000Y-96266000D02*
X185801000Y-97155000D01*
X189230000Y-88900000D02*
X189230000Y-95250000D01*
X186055000Y-98425000D02*
X184785000Y-98425000D01*
X189230000Y-95250000D02*
X186055000Y-98425000D01*
X191770000Y-88900000D02*
X191770000Y-102743000D01*
X184150000Y-106426000D02*
X184150000Y-107950000D01*
X186436000Y-104140000D02*
X184150000Y-106426000D01*
X190373000Y-104140000D02*
X186436000Y-104140000D01*
X191770000Y-102743000D02*
X190373000Y-104140000D01*
X194310000Y-88900000D02*
X194310000Y-104140000D01*
X190500000Y-107950000D02*
X186690000Y-107950000D01*
X194310000Y-104140000D02*
X190500000Y-107950000D01*
X170942000Y-100584000D02*
X173736000Y-100584000D01*
X174625000Y-99695000D02*
X178435000Y-99695000D01*
X173736000Y-100584000D02*
X174625000Y-99695000D01*
X154686000Y-97790000D02*
X149860000Y-97790000D01*
X146200000Y-94130000D02*
X136120000Y-94130000D01*
X149860000Y-97790000D02*
X146200000Y-94130000D01*
X136120000Y-97430000D02*
X138959000Y-97430000D01*
X158369000Y-102870000D02*
X157353000Y-103759000D01*
X158369000Y-102870000D02*
X160020000Y-102870000D01*
X145288000Y-103759000D02*
X157353000Y-103759000D01*
X138959000Y-97430000D02*
X145288000Y-103759000D01*
X136120000Y-96330000D02*
X139256000Y-96330000D01*
X144526000Y-101600000D02*
X154686000Y-101600000D01*
X139256000Y-96330000D02*
X144526000Y-101600000D01*
X167121840Y-116205000D02*
X167121840Y-117210840D01*
X176006760Y-120380760D02*
X176006760Y-122682000D01*
X175006000Y-119380000D02*
X176006760Y-120380760D01*
X169291000Y-119380000D02*
X175006000Y-119380000D01*
X167121840Y-117210840D02*
X169291000Y-119380000D01*
X167121840Y-116205000D02*
X167132000Y-116194840D01*
X167132000Y-116194840D02*
X167132000Y-115062000D01*
X167132000Y-115062000D02*
X165608000Y-113538000D01*
X165608000Y-113538000D02*
X165608000Y-106659680D01*
X165608000Y-106659680D02*
X166687500Y-105580180D01*
X136120000Y-95230000D02*
X134894000Y-95230000D01*
X135890000Y-104648000D02*
X164465000Y-104648000D01*
X134366000Y-103124000D02*
X135890000Y-104648000D01*
X134366000Y-95758000D02*
X134366000Y-103124000D01*
X134894000Y-95230000D02*
X134366000Y-95758000D01*
X166687500Y-105580180D02*
X165397180Y-105580180D01*
X160782000Y-95250000D02*
X160020000Y-95250000D01*
X162052000Y-96520000D02*
X160782000Y-95250000D01*
X162052000Y-98425000D02*
X162052000Y-96520000D01*
X165397180Y-105580180D02*
X164465000Y-104648000D01*
X164465000Y-104648000D02*
X163195000Y-103378000D01*
G36*
X166878000Y-92267369D02*
X165323185Y-93822185D01*
X165158004Y-94069395D01*
X165100000Y-94361000D01*
X165100000Y-95494974D01*
X165015198Y-95410173D01*
X164781809Y-95313500D01*
X164623750Y-95313500D01*
X164465000Y-95472250D01*
X164465000Y-96393000D01*
X164485000Y-96393000D01*
X164485000Y-96647000D01*
X164465000Y-96647000D01*
X164465000Y-97567750D01*
X164623750Y-97726500D01*
X164781809Y-97726500D01*
X165015198Y-97629827D01*
X165099999Y-97545025D01*
X165100000Y-97545025D01*
X165100000Y-97855369D01*
X164784369Y-98171000D01*
X164211000Y-98171000D01*
X164211000Y-97567750D01*
X164211000Y-96647000D01*
X164211000Y-96393000D01*
X164211000Y-95472250D01*
X164052250Y-95313500D01*
X163894191Y-95313500D01*
X163660802Y-95410173D01*
X163482173Y-95588801D01*
X163385500Y-95822190D01*
X163385500Y-96074809D01*
X163385500Y-96234250D01*
X163544250Y-96393000D01*
X164211000Y-96393000D01*
X164211000Y-96647000D01*
X163544250Y-96647000D01*
X163385500Y-96805750D01*
X163385500Y-96965191D01*
X163385500Y-97217810D01*
X163482173Y-97451199D01*
X163660802Y-97629827D01*
X163894191Y-97726500D01*
X164052250Y-97726500D01*
X164211000Y-97567750D01*
X164211000Y-98171000D01*
X163449000Y-98171000D01*
X163157395Y-98229004D01*
X163131656Y-98246201D01*
X163131687Y-98211216D01*
X162967689Y-97814311D01*
X162814000Y-97660353D01*
X162814000Y-96520000D01*
X162755996Y-96228395D01*
X162590815Y-95981185D01*
X162590815Y-95981184D01*
X161320815Y-94711185D01*
X161073605Y-94546004D01*
X161031068Y-94537543D01*
X161031068Y-94537542D01*
X160951199Y-94457673D01*
X160717810Y-94361000D01*
X160465191Y-94361000D01*
X159573630Y-94361000D01*
X159827630Y-94107000D01*
X163195000Y-94107000D01*
X163195000Y-94106999D01*
X163486604Y-94048996D01*
X163486605Y-94048996D01*
X163733815Y-93883815D01*
X165638815Y-91978815D01*
X165803996Y-91731605D01*
X165803996Y-91731604D01*
X165862000Y-91440000D01*
X165862000Y-90343311D01*
X166159670Y-90144415D01*
X166370000Y-89829634D01*
X166580330Y-90144415D01*
X166878000Y-90343311D01*
X166878000Y-92267369D01*
X166878000Y-92267369D01*
G37*
X166878000Y-92267369D02*
X165323185Y-93822185D01*
X165158004Y-94069395D01*
X165100000Y-94361000D01*
X165100000Y-95494974D01*
X165015198Y-95410173D01*
X164781809Y-95313500D01*
X164623750Y-95313500D01*
X164465000Y-95472250D01*
X164465000Y-96393000D01*
X164485000Y-96393000D01*
X164485000Y-96647000D01*
X164465000Y-96647000D01*
X164465000Y-97567750D01*
X164623750Y-97726500D01*
X164781809Y-97726500D01*
X165015198Y-97629827D01*
X165099999Y-97545025D01*
X165100000Y-97545025D01*
X165100000Y-97855369D01*
X164784369Y-98171000D01*
X164211000Y-98171000D01*
X164211000Y-97567750D01*
X164211000Y-96647000D01*
X164211000Y-96393000D01*
X164211000Y-95472250D01*
X164052250Y-95313500D01*
X163894191Y-95313500D01*
X163660802Y-95410173D01*
X163482173Y-95588801D01*
X163385500Y-95822190D01*
X163385500Y-96074809D01*
X163385500Y-96234250D01*
X163544250Y-96393000D01*
X164211000Y-96393000D01*
X164211000Y-96647000D01*
X163544250Y-96647000D01*
X163385500Y-96805750D01*
X163385500Y-96965191D01*
X163385500Y-97217810D01*
X163482173Y-97451199D01*
X163660802Y-97629827D01*
X163894191Y-97726500D01*
X164052250Y-97726500D01*
X164211000Y-97567750D01*
X164211000Y-98171000D01*
X163449000Y-98171000D01*
X163157395Y-98229004D01*
X163131656Y-98246201D01*
X163131687Y-98211216D01*
X162967689Y-97814311D01*
X162814000Y-97660353D01*
X162814000Y-96520000D01*
X162755996Y-96228395D01*
X162590815Y-95981185D01*
X162590815Y-95981184D01*
X161320815Y-94711185D01*
X161073605Y-94546004D01*
X161031068Y-94537543D01*
X161031068Y-94537542D01*
X160951199Y-94457673D01*
X160717810Y-94361000D01*
X160465191Y-94361000D01*
X159573630Y-94361000D01*
X159827630Y-94107000D01*
X163195000Y-94107000D01*
X163195000Y-94106999D01*
X163486604Y-94048996D01*
X163486605Y-94048996D01*
X163733815Y-93883815D01*
X165638815Y-91978815D01*
X165803996Y-91731605D01*
X165803996Y-91731604D01*
X165862000Y-91440000D01*
X165862000Y-90343311D01*
X166159670Y-90144415D01*
X166370000Y-89829634D01*
X166580330Y-90144415D01*
X166878000Y-90343311D01*
X166878000Y-92267369D01*
G36*
X191008000Y-102427369D02*
X190057369Y-103378000D01*
X186436000Y-103378000D01*
X186144395Y-103436004D01*
X185991500Y-103538165D01*
X185991500Y-100075309D01*
X185991500Y-99980750D01*
X185832750Y-99822000D01*
X184912000Y-99822000D01*
X184912000Y-100425250D01*
X185070750Y-100584000D01*
X185230191Y-100584000D01*
X185482810Y-100584000D01*
X185716199Y-100487327D01*
X185894827Y-100308698D01*
X185991500Y-100075309D01*
X185991500Y-103538165D01*
X185897184Y-103601185D01*
X184658000Y-104840369D01*
X184658000Y-100425250D01*
X184658000Y-99822000D01*
X183737250Y-99822000D01*
X183578500Y-99980750D01*
X183578500Y-100075309D01*
X183675173Y-100308698D01*
X183853801Y-100487327D01*
X184087190Y-100584000D01*
X184339809Y-100584000D01*
X184499250Y-100584000D01*
X184658000Y-100425250D01*
X184658000Y-104840369D01*
X183611185Y-105887185D01*
X183446004Y-106134395D01*
X183388000Y-106426000D01*
X183388000Y-106916184D01*
X183134000Y-107169741D01*
X183134000Y-103759000D01*
X183075996Y-103467395D01*
X182910815Y-103220185D01*
X180751815Y-101061185D01*
X180504605Y-100896004D01*
X180213000Y-100838000D01*
X178183641Y-100838000D01*
X178031286Y-100685378D01*
X177787141Y-100584000D01*
X177989809Y-100584000D01*
X179132809Y-100584000D01*
X179366198Y-100487327D01*
X179544827Y-100308699D01*
X179641500Y-100075310D01*
X179641500Y-99822691D01*
X179641500Y-99314691D01*
X179588608Y-99187000D01*
X180464358Y-99187000D01*
X180616714Y-99339622D01*
X181013332Y-99504313D01*
X181442784Y-99504687D01*
X181839689Y-99340689D01*
X182143622Y-99037286D01*
X182308313Y-98640668D01*
X182308687Y-98211216D01*
X182144689Y-97814311D01*
X181841286Y-97510378D01*
X181444668Y-97345687D01*
X181015216Y-97345313D01*
X180618311Y-97509311D01*
X180464353Y-97663000D01*
X179588609Y-97663000D01*
X179641500Y-97535310D01*
X179641500Y-97282691D01*
X179641500Y-96774691D01*
X179588608Y-96647000D01*
X180086000Y-96647000D01*
X180086000Y-96646999D01*
X180377604Y-96588996D01*
X180377605Y-96588996D01*
X180624815Y-96423815D01*
X182148815Y-94899816D01*
X182148815Y-94899815D01*
X182313996Y-94652605D01*
X182371999Y-94361000D01*
X182372000Y-94361000D01*
X182372000Y-90343311D01*
X182669670Y-90144415D01*
X182880000Y-89829634D01*
X183090330Y-90144415D01*
X183388000Y-90343311D01*
X183388000Y-93345000D01*
X183446004Y-93636605D01*
X183611185Y-93883815D01*
X184023000Y-94295630D01*
X184023000Y-95022588D01*
X183853802Y-95092673D01*
X183675173Y-95271301D01*
X183578500Y-95504690D01*
X183578500Y-95757309D01*
X183578500Y-96265309D01*
X183675173Y-96498698D01*
X183696474Y-96519999D01*
X183675173Y-96541301D01*
X183578500Y-96774690D01*
X183578500Y-97027309D01*
X183578500Y-97535309D01*
X183675173Y-97768698D01*
X183696474Y-97789999D01*
X183675173Y-97811301D01*
X183578500Y-98044690D01*
X183578500Y-98297309D01*
X183578500Y-98805309D01*
X183675173Y-99038698D01*
X183696474Y-99060000D01*
X183675173Y-99081302D01*
X183578500Y-99314691D01*
X183578500Y-99409250D01*
X183737250Y-99568000D01*
X184658000Y-99568000D01*
X184658000Y-99548000D01*
X184912000Y-99548000D01*
X184912000Y-99568000D01*
X185832750Y-99568000D01*
X185991500Y-99409250D01*
X185991500Y-99314691D01*
X185938608Y-99187000D01*
X186055000Y-99187000D01*
X186055000Y-99186999D01*
X186346604Y-99128996D01*
X186346605Y-99128996D01*
X186593815Y-98963815D01*
X189768815Y-95788815D01*
X189933996Y-95541605D01*
X189991999Y-95250000D01*
X189992000Y-95250000D01*
X189992000Y-90343311D01*
X190289670Y-90144415D01*
X190500000Y-89829634D01*
X190710330Y-90144415D01*
X191008000Y-90343311D01*
X191008000Y-102427369D01*
X191008000Y-102427369D01*
G37*
X191008000Y-102427369D02*
X190057369Y-103378000D01*
X186436000Y-103378000D01*
X186144395Y-103436004D01*
X185991500Y-103538165D01*
X185991500Y-100075309D01*
X185991500Y-99980750D01*
X185832750Y-99822000D01*
X184912000Y-99822000D01*
X184912000Y-100425250D01*
X185070750Y-100584000D01*
X185230191Y-100584000D01*
X185482810Y-100584000D01*
X185716199Y-100487327D01*
X185894827Y-100308698D01*
X185991500Y-100075309D01*
X185991500Y-103538165D01*
X185897184Y-103601185D01*
X184658000Y-104840369D01*
X184658000Y-100425250D01*
X184658000Y-99822000D01*
X183737250Y-99822000D01*
X183578500Y-99980750D01*
X183578500Y-100075309D01*
X183675173Y-100308698D01*
X183853801Y-100487327D01*
X184087190Y-100584000D01*
X184339809Y-100584000D01*
X184499250Y-100584000D01*
X184658000Y-100425250D01*
X184658000Y-104840369D01*
X183611185Y-105887185D01*
X183446004Y-106134395D01*
X183388000Y-106426000D01*
X183388000Y-106916184D01*
X183134000Y-107169741D01*
X183134000Y-103759000D01*
X183075996Y-103467395D01*
X182910815Y-103220185D01*
X180751815Y-101061185D01*
X180504605Y-100896004D01*
X180213000Y-100838000D01*
X178183641Y-100838000D01*
X178031286Y-100685378D01*
X177787141Y-100584000D01*
X177989809Y-100584000D01*
X179132809Y-100584000D01*
X179366198Y-100487327D01*
X179544827Y-100308699D01*
X179641500Y-100075310D01*
X179641500Y-99822691D01*
X179641500Y-99314691D01*
X179588608Y-99187000D01*
X180464358Y-99187000D01*
X180616714Y-99339622D01*
X181013332Y-99504313D01*
X181442784Y-99504687D01*
X181839689Y-99340689D01*
X182143622Y-99037286D01*
X182308313Y-98640668D01*
X182308687Y-98211216D01*
X182144689Y-97814311D01*
X181841286Y-97510378D01*
X181444668Y-97345687D01*
X181015216Y-97345313D01*
X180618311Y-97509311D01*
X180464353Y-97663000D01*
X179588609Y-97663000D01*
X179641500Y-97535310D01*
X179641500Y-97282691D01*
X179641500Y-96774691D01*
X179588608Y-96647000D01*
X180086000Y-96647000D01*
X180086000Y-96646999D01*
X180377604Y-96588996D01*
X180377605Y-96588996D01*
X180624815Y-96423815D01*
X182148815Y-94899816D01*
X182148815Y-94899815D01*
X182313996Y-94652605D01*
X182371999Y-94361000D01*
X182372000Y-94361000D01*
X182372000Y-90343311D01*
X182669670Y-90144415D01*
X182880000Y-89829634D01*
X183090330Y-90144415D01*
X183388000Y-90343311D01*
X183388000Y-93345000D01*
X183446004Y-93636605D01*
X183611185Y-93883815D01*
X184023000Y-94295630D01*
X184023000Y-95022588D01*
X183853802Y-95092673D01*
X183675173Y-95271301D01*
X183578500Y-95504690D01*
X183578500Y-95757309D01*
X183578500Y-96265309D01*
X183675173Y-96498698D01*
X183696474Y-96519999D01*
X183675173Y-96541301D01*
X183578500Y-96774690D01*
X183578500Y-97027309D01*
X183578500Y-97535309D01*
X183675173Y-97768698D01*
X183696474Y-97789999D01*
X183675173Y-97811301D01*
X183578500Y-98044690D01*
X183578500Y-98297309D01*
X183578500Y-98805309D01*
X183675173Y-99038698D01*
X183696474Y-99060000D01*
X183675173Y-99081302D01*
X183578500Y-99314691D01*
X183578500Y-99409250D01*
X183737250Y-99568000D01*
X184658000Y-99568000D01*
X184658000Y-99548000D01*
X184912000Y-99548000D01*
X184912000Y-99568000D01*
X185832750Y-99568000D01*
X185991500Y-99409250D01*
X185991500Y-99314691D01*
X185938608Y-99187000D01*
X186055000Y-99187000D01*
X186055000Y-99186999D01*
X186346604Y-99128996D01*
X186346605Y-99128996D01*
X186593815Y-98963815D01*
X189768815Y-95788815D01*
X189933996Y-95541605D01*
X189991999Y-95250000D01*
X189992000Y-95250000D01*
X189992000Y-90343311D01*
X190289670Y-90144415D01*
X190500000Y-89829634D01*
X190710330Y-90144415D01*
X191008000Y-90343311D01*
X191008000Y-102427369D01*
G36*
X196215000Y-136908635D02*
X196165000Y-137160000D01*
X196165000Y-139015000D01*
X195808600Y-139015000D01*
X195808600Y-137344745D01*
X195808600Y-136975255D01*
X195694526Y-136401766D01*
X195369670Y-135915585D01*
X194883489Y-135590729D01*
X194310000Y-135476655D01*
X193736511Y-135590729D01*
X193250330Y-135915585D01*
X193040000Y-136230365D01*
X192829670Y-135915585D01*
X192532000Y-135716688D01*
X192532000Y-131826000D01*
X192473996Y-131534396D01*
X192473996Y-131534395D01*
X192407834Y-131435376D01*
X192308816Y-131287185D01*
X188371815Y-127350185D01*
X188124605Y-127185004D01*
X187972681Y-127154784D01*
X187972681Y-125907336D01*
X187972681Y-123367336D01*
X187972681Y-120827336D01*
X187942906Y-120322977D01*
X187807179Y-119995303D01*
X187578133Y-119941472D01*
X186869605Y-120650000D01*
X187578133Y-121358528D01*
X187807179Y-121304697D01*
X187972681Y-120827336D01*
X187972681Y-123367336D01*
X187942906Y-122862977D01*
X187807179Y-122535303D01*
X187578133Y-122481472D01*
X187398528Y-122661077D01*
X187398528Y-122301867D01*
X187344697Y-122072821D01*
X186878239Y-121911099D01*
X187017023Y-121902906D01*
X187344697Y-121767179D01*
X187398528Y-121538133D01*
X186690000Y-120829605D01*
X185981472Y-121538133D01*
X186035303Y-121767179D01*
X186501760Y-121928900D01*
X186362977Y-121937094D01*
X186035303Y-122072821D01*
X185981472Y-122301867D01*
X186690000Y-123010395D01*
X187398528Y-122301867D01*
X187398528Y-122661077D01*
X186869605Y-123190000D01*
X187578133Y-123898528D01*
X187807179Y-123844697D01*
X187972681Y-123367336D01*
X187972681Y-125907336D01*
X187942906Y-125402977D01*
X187807179Y-125075303D01*
X187578133Y-125021472D01*
X187398528Y-125201077D01*
X187398528Y-124841867D01*
X187344697Y-124612821D01*
X186878239Y-124451099D01*
X187017023Y-124442906D01*
X187344697Y-124307179D01*
X187398528Y-124078133D01*
X186690000Y-123369605D01*
X185981472Y-124078133D01*
X186035303Y-124307179D01*
X186501760Y-124468900D01*
X186362977Y-124477094D01*
X186035303Y-124612821D01*
X185981472Y-124841867D01*
X186690000Y-125550395D01*
X187398528Y-124841867D01*
X187398528Y-125201077D01*
X186869605Y-125730000D01*
X187578133Y-126438528D01*
X187807179Y-126384697D01*
X187972681Y-125907336D01*
X187972681Y-127154784D01*
X187833000Y-127127000D01*
X187398528Y-127127000D01*
X187398528Y-126618133D01*
X186690000Y-125909605D01*
X185981472Y-126618133D01*
X186035303Y-126847179D01*
X186512664Y-127012681D01*
X187017023Y-126982906D01*
X187344697Y-126847179D01*
X187398528Y-126618133D01*
X187398528Y-127127000D01*
X172867320Y-127127000D01*
X172867320Y-124057990D01*
X172867320Y-123805371D01*
X172867320Y-121306011D01*
X172770647Y-121072622D01*
X172592019Y-120893993D01*
X172358630Y-120797320D01*
X172106011Y-120797320D01*
X169555851Y-120797320D01*
X169322462Y-120893993D01*
X169143833Y-121072621D01*
X169047160Y-121306010D01*
X169047160Y-121558629D01*
X169047160Y-121920000D01*
X168656000Y-121920000D01*
X168364395Y-121978004D01*
X168117184Y-122143185D01*
X167736185Y-122524185D01*
X167571004Y-122771395D01*
X167513000Y-123063000D01*
X167513000Y-124330358D01*
X167360378Y-124482714D01*
X167195687Y-124879332D01*
X167195313Y-125308784D01*
X167359311Y-125705689D01*
X167662714Y-126009622D01*
X168059332Y-126174313D01*
X168488784Y-126174687D01*
X168885689Y-126010689D01*
X169189622Y-125707286D01*
X169354313Y-125310668D01*
X169354687Y-124881216D01*
X169190689Y-124484311D01*
X169037000Y-124330353D01*
X169037000Y-123444000D01*
X169047160Y-123444000D01*
X169047160Y-124057989D01*
X169143833Y-124291378D01*
X169322461Y-124470007D01*
X169555850Y-124566680D01*
X169808469Y-124566680D01*
X172358629Y-124566680D01*
X172592018Y-124470007D01*
X172770647Y-124291379D01*
X172867320Y-124057990D01*
X172867320Y-127127000D01*
X166936420Y-127127000D01*
X166936420Y-124197690D01*
X166936420Y-123945071D01*
X166936420Y-123856750D01*
X166936420Y-123285250D01*
X166936420Y-123196929D01*
X166936420Y-122944310D01*
X166839747Y-122710921D01*
X166661118Y-122532293D01*
X166562635Y-122491500D01*
X166661118Y-122450707D01*
X166839747Y-122272079D01*
X166936420Y-122038690D01*
X166936420Y-121786071D01*
X166936420Y-121697750D01*
X166936420Y-121126250D01*
X166936420Y-121037929D01*
X166936420Y-120785310D01*
X166839747Y-120551921D01*
X166661118Y-120373293D01*
X166562635Y-120332500D01*
X166661118Y-120291707D01*
X166839747Y-120113079D01*
X166936420Y-119879690D01*
X166936420Y-119627071D01*
X166936420Y-119538750D01*
X166936420Y-118967250D01*
X166936420Y-118878929D01*
X166936420Y-118626310D01*
X166839747Y-118392921D01*
X166661118Y-118214293D01*
X166427729Y-118117620D01*
X166137590Y-118117620D01*
X165978840Y-118276370D01*
X165978840Y-119126000D01*
X166777670Y-119126000D01*
X166936420Y-118967250D01*
X166936420Y-119538750D01*
X166777670Y-119380000D01*
X165978840Y-119380000D01*
X165978840Y-120229630D01*
X166081710Y-120332500D01*
X165978840Y-120435370D01*
X165978840Y-121285000D01*
X166777670Y-121285000D01*
X166936420Y-121126250D01*
X166936420Y-121697750D01*
X166777670Y-121539000D01*
X165978840Y-121539000D01*
X165978840Y-122388630D01*
X166081710Y-122491500D01*
X165978840Y-122594370D01*
X165978840Y-123444000D01*
X166777670Y-123444000D01*
X166936420Y-123285250D01*
X166936420Y-123856750D01*
X166777670Y-123698000D01*
X165978840Y-123698000D01*
X165978840Y-124547630D01*
X166137590Y-124706380D01*
X166427729Y-124706380D01*
X166661118Y-124609707D01*
X166839747Y-124431079D01*
X166936420Y-124197690D01*
X166936420Y-127127000D01*
X165724840Y-127127000D01*
X165724840Y-124547630D01*
X165724840Y-123698000D01*
X165704840Y-123698000D01*
X165704840Y-123444000D01*
X165724840Y-123444000D01*
X165724840Y-122594370D01*
X165621970Y-122491500D01*
X165724840Y-122388630D01*
X165724840Y-121539000D01*
X165704840Y-121539000D01*
X165704840Y-121285000D01*
X165724840Y-121285000D01*
X165724840Y-120435370D01*
X165621970Y-120332500D01*
X165724840Y-120229630D01*
X165724840Y-119380000D01*
X165704840Y-119380000D01*
X165704840Y-119126000D01*
X165724840Y-119126000D01*
X165724840Y-118276370D01*
X165566090Y-118117620D01*
X165275951Y-118117620D01*
X165100000Y-118190501D01*
X164924050Y-118117620D01*
X164671431Y-118117620D01*
X163772271Y-118117620D01*
X163538882Y-118214293D01*
X163360253Y-118392921D01*
X163319627Y-118491000D01*
X162306000Y-118491000D01*
X162014395Y-118549004D01*
X161915376Y-118615165D01*
X161767185Y-118714184D01*
X161734500Y-118746869D01*
X161734500Y-115950309D01*
X161734500Y-115855750D01*
X161734500Y-115284250D01*
X161734500Y-115189691D01*
X161637827Y-114956302D01*
X161616525Y-114935000D01*
X161637827Y-114913699D01*
X161734500Y-114680310D01*
X161734500Y-114427691D01*
X161734500Y-113919691D01*
X161637827Y-113686302D01*
X161616525Y-113665000D01*
X161637827Y-113643699D01*
X161734500Y-113410310D01*
X161734500Y-113157691D01*
X161734500Y-112649691D01*
X161637827Y-112416302D01*
X161616525Y-112395000D01*
X161637827Y-112373699D01*
X161734500Y-112140310D01*
X161734500Y-111887691D01*
X161734500Y-111379691D01*
X161637827Y-111146302D01*
X161616525Y-111125000D01*
X161637827Y-111103699D01*
X161734500Y-110870310D01*
X161734500Y-110617691D01*
X161734500Y-110109691D01*
X161637827Y-109876302D01*
X161616525Y-109855000D01*
X161637827Y-109833699D01*
X161734500Y-109600310D01*
X161734500Y-109347691D01*
X161734500Y-108839691D01*
X161637827Y-108606302D01*
X161616525Y-108585000D01*
X161637827Y-108563699D01*
X161734500Y-108330310D01*
X161734500Y-108077691D01*
X161734500Y-107569691D01*
X161637827Y-107336302D01*
X161459199Y-107157673D01*
X161225810Y-107061000D01*
X160973191Y-107061000D01*
X159830191Y-107061000D01*
X159596802Y-107157673D01*
X159418173Y-107336301D01*
X159321500Y-107569690D01*
X159321500Y-107822309D01*
X159321500Y-108330309D01*
X159418173Y-108563698D01*
X159439474Y-108584999D01*
X159418173Y-108606301D01*
X159321500Y-108839690D01*
X159321500Y-109092309D01*
X159321500Y-109600309D01*
X159418173Y-109833698D01*
X159439474Y-109854999D01*
X159418173Y-109876301D01*
X159321500Y-110109690D01*
X159321500Y-110362309D01*
X159321500Y-110870309D01*
X159418173Y-111103698D01*
X159439474Y-111124999D01*
X159418173Y-111146301D01*
X159321500Y-111379690D01*
X159321500Y-111632309D01*
X159321500Y-112140309D01*
X159418173Y-112373698D01*
X159439474Y-112394999D01*
X159418173Y-112416301D01*
X159321500Y-112649690D01*
X159321500Y-112902309D01*
X159321500Y-113410309D01*
X159418173Y-113643698D01*
X159439474Y-113664999D01*
X159418173Y-113686301D01*
X159321500Y-113919690D01*
X159321500Y-114172309D01*
X159321500Y-114680309D01*
X159418173Y-114913698D01*
X159439474Y-114935000D01*
X159418173Y-114956302D01*
X159321500Y-115189691D01*
X159321500Y-115284250D01*
X159480250Y-115443000D01*
X160401000Y-115443000D01*
X160401000Y-115423000D01*
X160655000Y-115423000D01*
X160655000Y-115443000D01*
X161575750Y-115443000D01*
X161734500Y-115284250D01*
X161734500Y-115855750D01*
X161575750Y-115697000D01*
X160655000Y-115697000D01*
X160655000Y-116300250D01*
X160813750Y-116459000D01*
X160973191Y-116459000D01*
X161225810Y-116459000D01*
X161459199Y-116362327D01*
X161637827Y-116183698D01*
X161734500Y-115950309D01*
X161734500Y-118746869D01*
X161005185Y-119476185D01*
X160840004Y-119723395D01*
X160782000Y-120015000D01*
X160782000Y-120647358D01*
X160629378Y-120799714D01*
X160464687Y-121196332D01*
X160464313Y-121625784D01*
X160628311Y-122022689D01*
X160782000Y-122176646D01*
X160782000Y-122428000D01*
X160840004Y-122719605D01*
X161005185Y-122966815D01*
X162148185Y-124109815D01*
X162395395Y-124274996D01*
X162687000Y-124333000D01*
X163319627Y-124333000D01*
X163360253Y-124431078D01*
X163538881Y-124609707D01*
X163772270Y-124706380D01*
X164024889Y-124706380D01*
X164924049Y-124706380D01*
X165100000Y-124633498D01*
X165275951Y-124706380D01*
X165566090Y-124706380D01*
X165724840Y-124547630D01*
X165724840Y-127127000D01*
X161732630Y-127127000D01*
X160401000Y-125795369D01*
X160401000Y-116300250D01*
X160401000Y-115697000D01*
X159480250Y-115697000D01*
X159321500Y-115855750D01*
X159321500Y-115950309D01*
X159418173Y-116183698D01*
X159596801Y-116362327D01*
X159830190Y-116459000D01*
X160082809Y-116459000D01*
X160242250Y-116459000D01*
X160401000Y-116300250D01*
X160401000Y-125795369D01*
X159893000Y-125287369D01*
X159893000Y-121285000D01*
X159834996Y-120993395D01*
X159669815Y-120746185D01*
X156494815Y-117571185D01*
X156247605Y-117406004D01*
X155956000Y-117348000D01*
X152080629Y-117348000D01*
X151064630Y-116332000D01*
X153216474Y-116332000D01*
X153246801Y-116362327D01*
X153480190Y-116459000D01*
X153732809Y-116459000D01*
X154875809Y-116459000D01*
X155109198Y-116362327D01*
X155139525Y-116332000D01*
X155575000Y-116332000D01*
X155575000Y-116331999D01*
X155866604Y-116273996D01*
X155866605Y-116273996D01*
X156113815Y-116108815D01*
X156748815Y-115473815D01*
X156748816Y-115473815D01*
X156847834Y-115325623D01*
X156913996Y-115226605D01*
X156913996Y-115226604D01*
X156972000Y-114935000D01*
X156972000Y-113284000D01*
X156972000Y-113030000D01*
X156972000Y-109728000D01*
X156913996Y-109436395D01*
X156748815Y-109189185D01*
X156748815Y-109189184D01*
X156240815Y-108681185D01*
X155993605Y-108516004D01*
X155702000Y-108458000D01*
X155331609Y-108458000D01*
X155384500Y-108330310D01*
X155384500Y-108077691D01*
X155384500Y-107569691D01*
X155287827Y-107336302D01*
X155109199Y-107157673D01*
X154875810Y-107061000D01*
X154623191Y-107061000D01*
X153543000Y-107061000D01*
X153543000Y-106995630D01*
X153985630Y-106553000D01*
X162938358Y-106553000D01*
X163090714Y-106705622D01*
X163487332Y-106870313D01*
X163916784Y-106870687D01*
X164313689Y-106706689D01*
X164617622Y-106403286D01*
X164771669Y-106032300D01*
X164858365Y-106118996D01*
X165004976Y-106216958D01*
X164904004Y-106368075D01*
X164846000Y-106659680D01*
X164846000Y-113538000D01*
X164904004Y-113829605D01*
X165069185Y-114076815D01*
X166061989Y-115069620D01*
X165941431Y-115069620D01*
X165042271Y-115069620D01*
X164808882Y-115166293D01*
X164630253Y-115344921D01*
X164589627Y-115443000D01*
X163576000Y-115443000D01*
X163284395Y-115501004D01*
X163185376Y-115567165D01*
X163037185Y-115666184D01*
X162942868Y-115760500D01*
X162727216Y-115760313D01*
X162330311Y-115924311D01*
X162026378Y-116227714D01*
X161861687Y-116624332D01*
X161861313Y-117053784D01*
X162025311Y-117450689D01*
X162328714Y-117754622D01*
X162725332Y-117919313D01*
X163154784Y-117919687D01*
X163551689Y-117755689D01*
X163855622Y-117452286D01*
X164020313Y-117055668D01*
X164020390Y-116967000D01*
X164589627Y-116967000D01*
X164630253Y-117065078D01*
X164808881Y-117243707D01*
X165042270Y-117340380D01*
X165294889Y-117340380D01*
X166194049Y-117340380D01*
X166369999Y-117267498D01*
X166371209Y-117268000D01*
X166371210Y-117268000D01*
X166417844Y-117502445D01*
X166583025Y-117749655D01*
X168752184Y-119918815D01*
X168752185Y-119918815D01*
X168999395Y-120083996D01*
X169291000Y-120142000D01*
X174690369Y-120142000D01*
X175244760Y-120696390D01*
X175244760Y-120797320D01*
X174605371Y-120797320D01*
X174371982Y-120893993D01*
X174193353Y-121072621D01*
X174096680Y-121306010D01*
X174096680Y-121558629D01*
X174096680Y-124057989D01*
X174193353Y-124291378D01*
X174371981Y-124470007D01*
X174605370Y-124566680D01*
X174857989Y-124566680D01*
X177408149Y-124566680D01*
X177641538Y-124470007D01*
X177820167Y-124291379D01*
X177916840Y-124057990D01*
X177916840Y-123805371D01*
X177916840Y-121306011D01*
X177820167Y-121072622D01*
X177641539Y-120893993D01*
X177482687Y-120828194D01*
X177482687Y-105958216D01*
X177318689Y-105561311D01*
X177015286Y-105257378D01*
X176618668Y-105092687D01*
X176189216Y-105092313D01*
X175792311Y-105256311D01*
X175488378Y-105559714D01*
X175323687Y-105956332D01*
X175323497Y-106173872D01*
X174975185Y-106522185D01*
X174810004Y-106769395D01*
X174752000Y-107061000D01*
X174752000Y-107706160D01*
X174138011Y-107706160D01*
X173904622Y-107802833D01*
X173725993Y-107981461D01*
X173672687Y-108110152D01*
X173672687Y-105323216D01*
X173508689Y-104926311D01*
X173205286Y-104622378D01*
X172808668Y-104457687D01*
X172379216Y-104457313D01*
X171982311Y-104621311D01*
X171678378Y-104924714D01*
X171513687Y-105321332D01*
X171513497Y-105538872D01*
X169133185Y-107919185D01*
X168968004Y-108166395D01*
X168910000Y-108458000D01*
X168910000Y-112004974D01*
X168825198Y-111920173D01*
X168675050Y-111857979D01*
X168675050Y-108406510D01*
X168675050Y-108153891D01*
X168675050Y-108065570D01*
X168516300Y-107906820D01*
X167767000Y-107906820D01*
X167767000Y-108756450D01*
X167925750Y-108915200D01*
X168166359Y-108915200D01*
X168399748Y-108818527D01*
X168578377Y-108639899D01*
X168675050Y-108406510D01*
X168675050Y-111857979D01*
X168591809Y-111823500D01*
X168433750Y-111823500D01*
X168275000Y-111982250D01*
X168275000Y-112903000D01*
X168295000Y-112903000D01*
X168295000Y-113157000D01*
X168275000Y-113157000D01*
X168275000Y-114077750D01*
X168433750Y-114236500D01*
X168591809Y-114236500D01*
X168825198Y-114139827D01*
X168909999Y-114055025D01*
X168994801Y-114139827D01*
X169228190Y-114236500D01*
X169480809Y-114236500D01*
X170115809Y-114236500D01*
X170349198Y-114139827D01*
X170527827Y-113961199D01*
X170624500Y-113727810D01*
X170624500Y-113475191D01*
X170624500Y-112332191D01*
X170527827Y-112098802D01*
X170434000Y-112004974D01*
X170434000Y-108773630D01*
X172591130Y-106616499D01*
X172806784Y-106616687D01*
X173203689Y-106452689D01*
X173507622Y-106149286D01*
X173672313Y-105752668D01*
X173672687Y-105323216D01*
X173672687Y-108110152D01*
X173629320Y-108214850D01*
X173629320Y-108467469D01*
X173629320Y-111017629D01*
X173725993Y-111251018D01*
X173904621Y-111429647D01*
X174138010Y-111526320D01*
X174390629Y-111526320D01*
X176889989Y-111526320D01*
X177123378Y-111429647D01*
X177302007Y-111251019D01*
X177398680Y-111017630D01*
X177398680Y-110765011D01*
X177398680Y-108214851D01*
X177302007Y-107981462D01*
X177123379Y-107802833D01*
X176889990Y-107706160D01*
X176637371Y-107706160D01*
X176276000Y-107706160D01*
X176276000Y-107376630D01*
X176401130Y-107251499D01*
X176616784Y-107251687D01*
X177013689Y-107087689D01*
X177317622Y-106784286D01*
X177482313Y-106387668D01*
X177482687Y-105958216D01*
X177482687Y-120828194D01*
X177408150Y-120797320D01*
X177398680Y-120797320D01*
X177398680Y-116067149D01*
X177398680Y-114951510D01*
X177398680Y-114380010D01*
X177398680Y-113264371D01*
X177302007Y-113030982D01*
X177123379Y-112852353D01*
X176889990Y-112755680D01*
X176637371Y-112755680D01*
X175799750Y-112755680D01*
X175641000Y-112914430D01*
X175641000Y-114538760D01*
X177239930Y-114538760D01*
X177398680Y-114380010D01*
X177398680Y-114951510D01*
X177239930Y-114792760D01*
X175641000Y-114792760D01*
X175641000Y-116417090D01*
X175799750Y-116575840D01*
X176637371Y-116575840D01*
X176889990Y-116575840D01*
X177123379Y-116479167D01*
X177302007Y-116300538D01*
X177398680Y-116067149D01*
X177398680Y-120797320D01*
X177155531Y-120797320D01*
X176768760Y-120797320D01*
X176768760Y-120380760D01*
X176710756Y-120089155D01*
X176545575Y-119841945D01*
X176545575Y-119841944D01*
X175544815Y-118841185D01*
X175387000Y-118735736D01*
X175387000Y-116417090D01*
X175387000Y-114792760D01*
X175387000Y-114538760D01*
X175387000Y-112914430D01*
X175228250Y-112755680D01*
X174390629Y-112755680D01*
X174138010Y-112755680D01*
X173904621Y-112852353D01*
X173725993Y-113030982D01*
X173629320Y-113264371D01*
X173629320Y-114380010D01*
X173788070Y-114538760D01*
X175387000Y-114538760D01*
X175387000Y-114792760D01*
X173788070Y-114792760D01*
X173629320Y-114951510D01*
X173629320Y-116067149D01*
X173725993Y-116300538D01*
X173904621Y-116479167D01*
X174138010Y-116575840D01*
X174390629Y-116575840D01*
X175228250Y-116575840D01*
X175387000Y-116417090D01*
X175387000Y-118735736D01*
X175297605Y-118676004D01*
X175006000Y-118618000D01*
X169606630Y-118618000D01*
X168081728Y-117093097D01*
X168109747Y-117065079D01*
X168206420Y-116831690D01*
X168206420Y-116579071D01*
X168206420Y-115578311D01*
X168109747Y-115344922D01*
X168021000Y-115256174D01*
X168021000Y-114077750D01*
X168021000Y-113157000D01*
X168021000Y-112903000D01*
X168021000Y-111982250D01*
X167862250Y-111823500D01*
X167704191Y-111823500D01*
X167513000Y-111902693D01*
X167513000Y-108756450D01*
X167513000Y-107906820D01*
X166763700Y-107906820D01*
X166604950Y-108065570D01*
X166604950Y-108153891D01*
X166604950Y-108406510D01*
X166701623Y-108639899D01*
X166880252Y-108818527D01*
X167113641Y-108915200D01*
X167354250Y-108915200D01*
X167513000Y-108756450D01*
X167513000Y-111902693D01*
X167470802Y-111920173D01*
X167292173Y-112098801D01*
X167195500Y-112332190D01*
X167195500Y-112584809D01*
X167195500Y-112744250D01*
X167354250Y-112903000D01*
X168021000Y-112903000D01*
X168021000Y-113157000D01*
X167354250Y-113157000D01*
X167195500Y-113315750D01*
X167195500Y-113475191D01*
X167195500Y-113727810D01*
X167292173Y-113961199D01*
X167470802Y-114139827D01*
X167704191Y-114236500D01*
X167862250Y-114236500D01*
X168021000Y-114077750D01*
X168021000Y-115256174D01*
X167931119Y-115166293D01*
X167894000Y-115150917D01*
X167894000Y-115062000D01*
X167835996Y-114770395D01*
X167670815Y-114523185D01*
X167670815Y-114523184D01*
X166370000Y-113222369D01*
X166370000Y-106975310D01*
X166629750Y-106715560D01*
X166941942Y-106715560D01*
X166880252Y-106741113D01*
X166701623Y-106919741D01*
X166604950Y-107153130D01*
X166604950Y-107405749D01*
X166604950Y-107494070D01*
X166763700Y-107652820D01*
X167513000Y-107652820D01*
X167513000Y-106803190D01*
X167363419Y-106653609D01*
X167447248Y-106618887D01*
X167625877Y-106440259D01*
X167640000Y-106406162D01*
X167654123Y-106440258D01*
X167832751Y-106618887D01*
X167916579Y-106653610D01*
X167767000Y-106803190D01*
X167767000Y-107652820D01*
X168516300Y-107652820D01*
X168675050Y-107494070D01*
X168675050Y-107405749D01*
X168675050Y-107153130D01*
X168578377Y-106919741D01*
X168399748Y-106741113D01*
X168338057Y-106715560D01*
X169118859Y-106715560D01*
X169352248Y-106618887D01*
X169530877Y-106440259D01*
X169627550Y-106206870D01*
X169627550Y-105954251D01*
X169627550Y-104953491D01*
X169530877Y-104720102D01*
X169354500Y-104543724D01*
X169354500Y-103884130D01*
X169608500Y-104138131D01*
X169608313Y-104353784D01*
X169772311Y-104750689D01*
X170075714Y-105054622D01*
X170472332Y-105219313D01*
X170901784Y-105219687D01*
X171298689Y-105055689D01*
X171602622Y-104752286D01*
X171767313Y-104355668D01*
X171767687Y-103926216D01*
X171603689Y-103529311D01*
X171300286Y-103225378D01*
X170903668Y-103060687D01*
X170686128Y-103060497D01*
X170180000Y-102554369D01*
X170180000Y-101609025D01*
X170264801Y-101693827D01*
X170498190Y-101790500D01*
X170750809Y-101790500D01*
X171385809Y-101790500D01*
X171619198Y-101693827D01*
X171797827Y-101515199D01*
X171867911Y-101346000D01*
X173736000Y-101346000D01*
X173736000Y-101345999D01*
X174027604Y-101287996D01*
X174027605Y-101287996D01*
X174274815Y-101122815D01*
X174940630Y-100457000D01*
X177473474Y-100457000D01*
X177503801Y-100487327D01*
X177584233Y-100520643D01*
X177205216Y-100520313D01*
X176808311Y-100684311D01*
X176504378Y-100987714D01*
X176339687Y-101384332D01*
X176339313Y-101813784D01*
X176503311Y-102210689D01*
X176806714Y-102514622D01*
X177203332Y-102679313D01*
X177632784Y-102679687D01*
X178029689Y-102515689D01*
X178183646Y-102362000D01*
X179897370Y-102362000D01*
X180225949Y-102690579D01*
X179856311Y-102843311D01*
X179552378Y-103146714D01*
X179387687Y-103543332D01*
X179387313Y-103972784D01*
X179551311Y-104369689D01*
X179854714Y-104673622D01*
X180251332Y-104838313D01*
X180468872Y-104838502D01*
X180721000Y-105090630D01*
X180721000Y-112903000D01*
X180779004Y-113194605D01*
X180944185Y-113441815D01*
X182880167Y-115377798D01*
X182879780Y-115821510D01*
X183072718Y-116288458D01*
X183429663Y-116646026D01*
X183896273Y-116839779D01*
X183898487Y-116839780D01*
X183431542Y-117032718D01*
X183073974Y-117389663D01*
X182880221Y-117856273D01*
X182879780Y-118361510D01*
X183072718Y-118828458D01*
X183429663Y-119186026D01*
X183896273Y-119379779D01*
X183898487Y-119379780D01*
X183431542Y-119572718D01*
X183073974Y-119929663D01*
X182880221Y-120396273D01*
X182879780Y-120901510D01*
X183072718Y-121368458D01*
X183429663Y-121726026D01*
X183896273Y-121919779D01*
X183898487Y-121919780D01*
X183431542Y-122112718D01*
X183073974Y-122469663D01*
X182880221Y-122936273D01*
X182879780Y-123441510D01*
X183072718Y-123908458D01*
X183429663Y-124266026D01*
X183896273Y-124459779D01*
X183898487Y-124459780D01*
X183431542Y-124652718D01*
X183073974Y-125009663D01*
X182880221Y-125476273D01*
X182879780Y-125981510D01*
X183072718Y-126448458D01*
X183429663Y-126806026D01*
X183896273Y-126999779D01*
X184401510Y-127000220D01*
X184868458Y-126807282D01*
X185226026Y-126450337D01*
X185419779Y-125983727D01*
X185419968Y-125766929D01*
X185437094Y-126057023D01*
X185572821Y-126384697D01*
X185801867Y-126438528D01*
X186510395Y-125730000D01*
X185801867Y-125021472D01*
X185572821Y-125075303D01*
X185420187Y-125515546D01*
X185420220Y-125478490D01*
X185227282Y-125011542D01*
X184870337Y-124653974D01*
X184403727Y-124460221D01*
X184401512Y-124460219D01*
X184868458Y-124267282D01*
X185226026Y-123910337D01*
X185419779Y-123443727D01*
X185419968Y-123226929D01*
X185437094Y-123517023D01*
X185572821Y-123844697D01*
X185801867Y-123898528D01*
X186510395Y-123190000D01*
X185801867Y-122481472D01*
X185572821Y-122535303D01*
X185420187Y-122975546D01*
X185420220Y-122938490D01*
X185227282Y-122471542D01*
X184870337Y-122113974D01*
X184403727Y-121920221D01*
X184401512Y-121920219D01*
X184868458Y-121727282D01*
X185226026Y-121370337D01*
X185419779Y-120903727D01*
X185419968Y-120686929D01*
X185437094Y-120977023D01*
X185572821Y-121304697D01*
X185801867Y-121358528D01*
X186510395Y-120650000D01*
X185801867Y-119941472D01*
X185572821Y-119995303D01*
X185420187Y-120435546D01*
X185420220Y-120398490D01*
X185227282Y-119931542D01*
X184870337Y-119573974D01*
X184403727Y-119380221D01*
X184401512Y-119380219D01*
X184868458Y-119187282D01*
X185226026Y-118830337D01*
X185419779Y-118363727D01*
X185419780Y-118361512D01*
X185612718Y-118828458D01*
X185969663Y-119186026D01*
X186436273Y-119379779D01*
X186653070Y-119379968D01*
X186362977Y-119397094D01*
X186035303Y-119532821D01*
X185981472Y-119761867D01*
X186690000Y-120470395D01*
X187398528Y-119761867D01*
X187344697Y-119532821D01*
X186904453Y-119380187D01*
X186941510Y-119380220D01*
X187408458Y-119187282D01*
X187766026Y-118830337D01*
X187959779Y-118363727D01*
X187960220Y-117858490D01*
X187767282Y-117391542D01*
X187410337Y-117033974D01*
X186943727Y-116840221D01*
X186941512Y-116840219D01*
X187408458Y-116647282D01*
X187766026Y-116290337D01*
X187959779Y-115823727D01*
X187960220Y-115318490D01*
X187767282Y-114851542D01*
X187410337Y-114493974D01*
X186943727Y-114300221D01*
X186941512Y-114300219D01*
X187408458Y-114107282D01*
X187766026Y-113750337D01*
X187959779Y-113283727D01*
X187960220Y-112778490D01*
X187767282Y-112311542D01*
X187410337Y-111953974D01*
X186943727Y-111760221D01*
X186941512Y-111760219D01*
X187408458Y-111567282D01*
X187766026Y-111210337D01*
X187959779Y-110743727D01*
X187960220Y-110238490D01*
X187767282Y-109771542D01*
X187410337Y-109413974D01*
X186943727Y-109220221D01*
X186941512Y-109220219D01*
X187408458Y-109027282D01*
X187724290Y-108712000D01*
X190500000Y-108712000D01*
X190500000Y-108711999D01*
X190791604Y-108653996D01*
X190791605Y-108653996D01*
X191038815Y-108488815D01*
X194848815Y-104678815D01*
X194848816Y-104678815D01*
X194947834Y-104530623D01*
X195013996Y-104431605D01*
X195013996Y-104431604D01*
X195072000Y-104140000D01*
X195072000Y-90343311D01*
X195369670Y-90144415D01*
X195694526Y-89658234D01*
X195808600Y-89084745D01*
X195808600Y-88715255D01*
X195694526Y-88141766D01*
X195369670Y-87655585D01*
X194883489Y-87330729D01*
X194310000Y-87216655D01*
X193736511Y-87330729D01*
X193250330Y-87655585D01*
X193040000Y-87970365D01*
X192829670Y-87655585D01*
X192343489Y-87330729D01*
X191770000Y-87216655D01*
X191196511Y-87330729D01*
X190710330Y-87655585D01*
X190500000Y-87970365D01*
X190289670Y-87655585D01*
X189803489Y-87330729D01*
X189230000Y-87216655D01*
X188656511Y-87330729D01*
X188170330Y-87655585D01*
X187960000Y-87970365D01*
X187749670Y-87655585D01*
X187263489Y-87330729D01*
X186690000Y-87216655D01*
X186116511Y-87330729D01*
X185630330Y-87655585D01*
X185420000Y-87970365D01*
X185209670Y-87655585D01*
X184723489Y-87330729D01*
X184150000Y-87216655D01*
X183576511Y-87330729D01*
X183090330Y-87655585D01*
X182880000Y-87970365D01*
X182669670Y-87655585D01*
X182183489Y-87330729D01*
X181610000Y-87216655D01*
X181036511Y-87330729D01*
X180550330Y-87655585D01*
X180340000Y-87970365D01*
X180129670Y-87655585D01*
X179643489Y-87330729D01*
X179070000Y-87216655D01*
X178496511Y-87330729D01*
X178010330Y-87655585D01*
X177995499Y-87677780D01*
X177931927Y-87524302D01*
X177753299Y-87345673D01*
X177519910Y-87249000D01*
X177267291Y-87249000D01*
X175540091Y-87249000D01*
X175306702Y-87345673D01*
X175128073Y-87524301D01*
X175031400Y-87757690D01*
X175031400Y-88010309D01*
X175031400Y-90042309D01*
X175128073Y-90275698D01*
X175306701Y-90454327D01*
X175540090Y-90551000D01*
X175792709Y-90551000D01*
X177519909Y-90551000D01*
X177753298Y-90454327D01*
X177931927Y-90275699D01*
X177995500Y-90122220D01*
X178010330Y-90144415D01*
X178496511Y-90469271D01*
X179070000Y-90583345D01*
X179643489Y-90469271D01*
X180129670Y-90144415D01*
X180340000Y-89829634D01*
X180550330Y-90144415D01*
X180848000Y-90343311D01*
X180848000Y-94045369D01*
X179770369Y-95123000D01*
X179396525Y-95123000D01*
X179366199Y-95092673D01*
X179132810Y-94996000D01*
X178880191Y-94996000D01*
X177737191Y-94996000D01*
X177503802Y-95092673D01*
X177325173Y-95271301D01*
X177228500Y-95504690D01*
X177228500Y-95757309D01*
X177228500Y-96265309D01*
X177281391Y-96393000D01*
X171960372Y-96393000D01*
X171919747Y-96294922D01*
X171741119Y-96116293D01*
X171507730Y-96019620D01*
X171255111Y-96019620D01*
X170355951Y-96019620D01*
X170190160Y-96088292D01*
X170190160Y-95496499D01*
X170332622Y-95354286D01*
X170497313Y-94957668D01*
X170497687Y-94528216D01*
X170333689Y-94131311D01*
X170030286Y-93827378D01*
X169633668Y-93662687D01*
X169204216Y-93662313D01*
X168807311Y-93826311D01*
X168503378Y-94129714D01*
X168338687Y-94526332D01*
X168338313Y-94955784D01*
X168502311Y-95352689D01*
X168666160Y-95516824D01*
X168666160Y-96096709D01*
X168618882Y-96116293D01*
X168440253Y-96294921D01*
X168343580Y-96528310D01*
X168343580Y-96780929D01*
X168343580Y-97781689D01*
X168440253Y-98015078D01*
X168618881Y-98193707D01*
X168852270Y-98290380D01*
X169104889Y-98290380D01*
X170004049Y-98290380D01*
X170179999Y-98217498D01*
X170355950Y-98290380D01*
X170374132Y-98290380D01*
X170393025Y-98318655D01*
X171498581Y-99424211D01*
X171385810Y-99377500D01*
X171133191Y-99377500D01*
X170498191Y-99377500D01*
X170264802Y-99474173D01*
X170180000Y-99558974D01*
X170095199Y-99474173D01*
X169861810Y-99377500D01*
X169609191Y-99377500D01*
X168974191Y-99377500D01*
X168740802Y-99474173D01*
X168562173Y-99652801D01*
X168492088Y-99822000D01*
X166880372Y-99822000D01*
X166839747Y-99723922D01*
X166661119Y-99545293D01*
X166427730Y-99448620D01*
X166175111Y-99448620D01*
X165662010Y-99448620D01*
X166400815Y-98709815D01*
X166400816Y-98709815D01*
X166499834Y-98561623D01*
X166565996Y-98462605D01*
X166565996Y-98462604D01*
X166624000Y-98171000D01*
X166624000Y-97545025D01*
X166717827Y-97451199D01*
X166814500Y-97217810D01*
X166814500Y-96965191D01*
X166814500Y-95822191D01*
X166717827Y-95588802D01*
X166624000Y-95494974D01*
X166624000Y-94676630D01*
X168178815Y-93121815D01*
X168178816Y-93121815D01*
X168277834Y-92973623D01*
X168343996Y-92874605D01*
X168343996Y-92874604D01*
X168402000Y-92583000D01*
X168402000Y-90343311D01*
X168699670Y-90144415D01*
X168910000Y-89829634D01*
X169120330Y-90144415D01*
X169606511Y-90469271D01*
X170180000Y-90583345D01*
X170753489Y-90469271D01*
X171239670Y-90144415D01*
X171450000Y-89829634D01*
X171660330Y-90144415D01*
X172146511Y-90469271D01*
X172720000Y-90583345D01*
X173293489Y-90469271D01*
X173779670Y-90144415D01*
X174104526Y-89658234D01*
X174218600Y-89084745D01*
X174218600Y-88715255D01*
X174104526Y-88141766D01*
X173779670Y-87655585D01*
X173293489Y-87330729D01*
X172720000Y-87216655D01*
X172146511Y-87330729D01*
X171660330Y-87655585D01*
X171450000Y-87970365D01*
X171239670Y-87655585D01*
X170753489Y-87330729D01*
X170180000Y-87216655D01*
X169606511Y-87330729D01*
X169120330Y-87655585D01*
X168910000Y-87970365D01*
X168699670Y-87655585D01*
X168213489Y-87330729D01*
X167640000Y-87216655D01*
X167066511Y-87330729D01*
X166580330Y-87655585D01*
X166370000Y-87970365D01*
X166159670Y-87655585D01*
X165673489Y-87330729D01*
X165100000Y-87216655D01*
X164526511Y-87330729D01*
X164040330Y-87655585D01*
X163830000Y-87970365D01*
X163619670Y-87655585D01*
X163133489Y-87330729D01*
X162560000Y-87216655D01*
X161986511Y-87330729D01*
X161500330Y-87655585D01*
X161290000Y-87970365D01*
X161079670Y-87655585D01*
X160593489Y-87330729D01*
X160020000Y-87216655D01*
X159446511Y-87330729D01*
X158960330Y-87655585D01*
X158750000Y-87970365D01*
X158539670Y-87655585D01*
X158053489Y-87330729D01*
X157480000Y-87216655D01*
X156906511Y-87330729D01*
X156420330Y-87655585D01*
X156405499Y-87677780D01*
X156341927Y-87524302D01*
X156163299Y-87345673D01*
X155929910Y-87249000D01*
X155677291Y-87249000D01*
X153950091Y-87249000D01*
X153716702Y-87345673D01*
X153538073Y-87524301D01*
X153441400Y-87757690D01*
X153441400Y-88010309D01*
X153441400Y-90042309D01*
X153538073Y-90275698D01*
X153716701Y-90454327D01*
X153950090Y-90551000D01*
X154202709Y-90551000D01*
X155929909Y-90551000D01*
X156163298Y-90454327D01*
X156341927Y-90275699D01*
X156405500Y-90122220D01*
X156420330Y-90144415D01*
X156906511Y-90469271D01*
X157480000Y-90583345D01*
X158053489Y-90469271D01*
X158539670Y-90144415D01*
X158750000Y-89829634D01*
X158960330Y-90144415D01*
X159258000Y-90343311D01*
X159258000Y-91632369D01*
X155892500Y-94997869D01*
X155892500Y-94869691D01*
X155795827Y-94636302D01*
X155617199Y-94457673D01*
X155448000Y-94387588D01*
X155448000Y-94109641D01*
X155600622Y-93957286D01*
X155765313Y-93560668D01*
X155765687Y-93131216D01*
X155601689Y-92734311D01*
X155298286Y-92430378D01*
X154901668Y-92265687D01*
X154472216Y-92265313D01*
X154075311Y-92429311D01*
X153771378Y-92732714D01*
X153606687Y-93129332D01*
X153606313Y-93558784D01*
X153770311Y-93955689D01*
X153924000Y-94109646D01*
X153924000Y-94387588D01*
X153754802Y-94457673D01*
X153576173Y-94636301D01*
X153479500Y-94869690D01*
X153479500Y-95122309D01*
X153479500Y-95630309D01*
X153576173Y-95863698D01*
X153597474Y-95884999D01*
X153576173Y-95906301D01*
X153479500Y-96139690D01*
X153479500Y-96392309D01*
X153479500Y-96900309D01*
X153532391Y-97028000D01*
X150175630Y-97028000D01*
X146738815Y-93591185D01*
X146491605Y-93426004D01*
X146200000Y-93368000D01*
X137630000Y-93368000D01*
X137630000Y-93253691D01*
X137630000Y-92692000D01*
X143489168Y-92692000D01*
X143532714Y-92735622D01*
X143929332Y-92900313D01*
X144358784Y-92900687D01*
X144755689Y-92736689D01*
X145059622Y-92433286D01*
X145224313Y-92036668D01*
X145224687Y-91607216D01*
X145060689Y-91210311D01*
X144890674Y-91040000D01*
X144996309Y-91040000D01*
X145996309Y-91040000D01*
X146229698Y-90943327D01*
X146408327Y-90764699D01*
X146505000Y-90531310D01*
X146505000Y-90278691D01*
X146505000Y-88828691D01*
X146408327Y-88595302D01*
X146229699Y-88416673D01*
X145996310Y-88320000D01*
X145743691Y-88320000D01*
X144743691Y-88320000D01*
X144683335Y-88345000D01*
X144523691Y-88345000D01*
X143023691Y-88345000D01*
X142790302Y-88441673D01*
X142613974Y-88618000D01*
X142400630Y-88618000D01*
X141381815Y-87599185D01*
X141134605Y-87434004D01*
X140843000Y-87376000D01*
X134495641Y-87376000D01*
X134343286Y-87223378D01*
X133946668Y-87058687D01*
X133517216Y-87058313D01*
X133120311Y-87222311D01*
X132816378Y-87525714D01*
X132651687Y-87922332D01*
X132651313Y-88351784D01*
X132815311Y-88748689D01*
X132969000Y-88902646D01*
X132969000Y-91948000D01*
X133027004Y-92239605D01*
X133192185Y-92486815D01*
X134274185Y-93568815D01*
X134521395Y-93733996D01*
X134610000Y-93751620D01*
X134610000Y-93906309D01*
X134610000Y-94524491D01*
X134602395Y-94526004D01*
X134503376Y-94592165D01*
X134355185Y-94691184D01*
X133827185Y-95219185D01*
X133662004Y-95466395D01*
X133604000Y-95758000D01*
X133604000Y-103124000D01*
X133662004Y-103415605D01*
X133827185Y-103662815D01*
X135351184Y-105186815D01*
X135351185Y-105186815D01*
X135598395Y-105351996D01*
X135890000Y-105410000D01*
X137108595Y-105410000D01*
X136964004Y-105626395D01*
X136906000Y-105918000D01*
X136906000Y-106924974D01*
X136812173Y-107018801D01*
X136715500Y-107252190D01*
X136715500Y-107504809D01*
X136715500Y-108647809D01*
X136812173Y-108881198D01*
X136906000Y-108975025D01*
X136906000Y-113175062D01*
X136890000Y-113213690D01*
X136890000Y-113466309D01*
X136890000Y-115066309D01*
X136986673Y-115299698D01*
X137063000Y-115376025D01*
X137063000Y-115981000D01*
X137121004Y-116272605D01*
X137286185Y-116519815D01*
X138145184Y-117378815D01*
X138145185Y-117378815D01*
X138392395Y-117543996D01*
X138684000Y-117602000D01*
X139511369Y-117602000D01*
X139563000Y-117653630D01*
X139563000Y-118130552D01*
X139501310Y-118105000D01*
X139248691Y-118105000D01*
X138648691Y-118105000D01*
X138450000Y-118187300D01*
X138251310Y-118105000D01*
X137998691Y-118105000D01*
X137398691Y-118105000D01*
X137165302Y-118201673D01*
X136986673Y-118380301D01*
X136890000Y-118613690D01*
X136890000Y-118866309D01*
X136890000Y-120466309D01*
X136986673Y-120699698D01*
X137165301Y-120878327D01*
X137398690Y-120975000D01*
X137651309Y-120975000D01*
X138251309Y-120975000D01*
X138449999Y-120892699D01*
X138648690Y-120975000D01*
X138901309Y-120975000D01*
X139501309Y-120975000D01*
X139563000Y-120949446D01*
X139563000Y-122164000D01*
X139621004Y-122455605D01*
X139786185Y-122702815D01*
X141795500Y-124712131D01*
X141795313Y-124927784D01*
X141959311Y-125324689D01*
X142262714Y-125628622D01*
X142659332Y-125793313D01*
X143088784Y-125793687D01*
X143485689Y-125629689D01*
X143789622Y-125326286D01*
X143954313Y-124929668D01*
X143954687Y-124500216D01*
X143790689Y-124103311D01*
X143487286Y-123799378D01*
X143090668Y-123634687D01*
X142873128Y-123634497D01*
X141087000Y-121848369D01*
X141087000Y-120949447D01*
X141148690Y-120975000D01*
X141233369Y-120975000D01*
X142684500Y-122426131D01*
X142684313Y-122641784D01*
X142848311Y-123038689D01*
X143151714Y-123342622D01*
X143548332Y-123507313D01*
X143977784Y-123507687D01*
X144374689Y-123343689D01*
X144678622Y-123040286D01*
X144843313Y-122643668D01*
X144843687Y-122214216D01*
X144679689Y-121817311D01*
X144376286Y-121513378D01*
X143979668Y-121348687D01*
X143762128Y-121348497D01*
X142510000Y-120096369D01*
X142510000Y-118613691D01*
X142413327Y-118380302D01*
X142234699Y-118201673D01*
X142001310Y-118105000D01*
X141748691Y-118105000D01*
X141148691Y-118105000D01*
X141087000Y-118130553D01*
X141087000Y-117338000D01*
X141063727Y-117221000D01*
X148401369Y-117221000D01*
X150845185Y-119664816D01*
X151092395Y-119829996D01*
X151092396Y-119829997D01*
X151384000Y-119888000D01*
X155259369Y-119888000D01*
X155914689Y-120543320D01*
X153777371Y-120543320D01*
X153543982Y-120639993D01*
X153365353Y-120818621D01*
X153268680Y-121052010D01*
X153268680Y-121304629D01*
X153268680Y-123803989D01*
X153365353Y-124037378D01*
X153543981Y-124216007D01*
X153777370Y-124312680D01*
X154029989Y-124312680D01*
X154416760Y-124312680D01*
X154416760Y-125333760D01*
X154474764Y-125625365D01*
X154639945Y-125872575D01*
X156781500Y-128014130D01*
X156781388Y-128143000D01*
X152039320Y-128143000D01*
X152039320Y-123803990D01*
X152039320Y-123551371D01*
X152039320Y-121052011D01*
X151942647Y-120818622D01*
X151764019Y-120639993D01*
X151530630Y-120543320D01*
X151278011Y-120543320D01*
X148727851Y-120543320D01*
X148494462Y-120639993D01*
X148315833Y-120818621D01*
X148219160Y-121052010D01*
X148219160Y-121304629D01*
X148219160Y-121666000D01*
X147193000Y-121666000D01*
X146901395Y-121724004D01*
X146654184Y-121889185D01*
X145924868Y-122618500D01*
X145709216Y-122618313D01*
X145312311Y-122782311D01*
X145008378Y-123085714D01*
X144843687Y-123482332D01*
X144843313Y-123911784D01*
X145007311Y-124308689D01*
X145310714Y-124612622D01*
X145707332Y-124777313D01*
X146136784Y-124777687D01*
X146533689Y-124613689D01*
X146837622Y-124310286D01*
X147002313Y-123913668D01*
X147002502Y-123696127D01*
X147508630Y-123190000D01*
X148219160Y-123190000D01*
X148219160Y-123803989D01*
X148315833Y-124037378D01*
X148494461Y-124216007D01*
X148727850Y-124312680D01*
X148980469Y-124312680D01*
X151530629Y-124312680D01*
X151764018Y-124216007D01*
X151942647Y-124037379D01*
X152039320Y-123803990D01*
X152039320Y-128143000D01*
X150241000Y-128143000D01*
X149352000Y-128143000D01*
X141605000Y-128143000D01*
X141313395Y-128201004D01*
X141066185Y-128366185D01*
X139923185Y-129509185D01*
X139758004Y-129756395D01*
X139700000Y-130048000D01*
X139700000Y-131002369D01*
X139384369Y-131318000D01*
X139238311Y-131318000D01*
X139039415Y-131020330D01*
X138724634Y-130810000D01*
X139039415Y-130599670D01*
X139364271Y-130113489D01*
X139478345Y-129540000D01*
X139364271Y-128966511D01*
X139039415Y-128480330D01*
X138553234Y-128155474D01*
X137979745Y-128041400D01*
X137610255Y-128041400D01*
X137036766Y-128155474D01*
X136550585Y-128480330D01*
X136225729Y-128966511D01*
X136111655Y-129540000D01*
X136225729Y-130113489D01*
X136550585Y-130599670D01*
X136865365Y-130810000D01*
X136550585Y-131020330D01*
X136225729Y-131506511D01*
X136111655Y-132080000D01*
X136225729Y-132653489D01*
X136550585Y-133139670D01*
X136865365Y-133350000D01*
X136550585Y-133560330D01*
X136225729Y-134046511D01*
X136111655Y-134620000D01*
X136225729Y-135193489D01*
X136550585Y-135679670D01*
X136572780Y-135694500D01*
X136419302Y-135758073D01*
X136240673Y-135936701D01*
X136144000Y-136170090D01*
X136144000Y-136422709D01*
X136144000Y-138149909D01*
X136240673Y-138383298D01*
X136419301Y-138561927D01*
X136652690Y-138658600D01*
X136905309Y-138658600D01*
X138429305Y-138658600D01*
X138429306Y-138658600D01*
X138557000Y-138684000D01*
X147066000Y-138684000D01*
X147320000Y-138684000D01*
X151130000Y-138684000D01*
X151130000Y-138683999D01*
X151421604Y-138625996D01*
X151421605Y-138625996D01*
X151668815Y-138460815D01*
X152811815Y-137317815D01*
X152976996Y-137070605D01*
X153034999Y-136779000D01*
X153035000Y-136779000D01*
X153035000Y-134046630D01*
X154112630Y-132969000D01*
X178881369Y-132969000D01*
X180848000Y-134935630D01*
X180848000Y-135509000D01*
X180620091Y-135509000D01*
X180386702Y-135605673D01*
X180208073Y-135784301D01*
X180111400Y-136017690D01*
X180111400Y-136270309D01*
X180111400Y-138302309D01*
X180208073Y-138535698D01*
X180386701Y-138714327D01*
X180620090Y-138811000D01*
X180872709Y-138811000D01*
X182599909Y-138811000D01*
X182833298Y-138714327D01*
X183011927Y-138535699D01*
X183075500Y-138382220D01*
X183090330Y-138404415D01*
X183576511Y-138729271D01*
X184150000Y-138843345D01*
X184723489Y-138729271D01*
X185209670Y-138404415D01*
X185420000Y-138089634D01*
X185630330Y-138404415D01*
X186116511Y-138729271D01*
X186690000Y-138843345D01*
X187263489Y-138729271D01*
X187749670Y-138404415D01*
X187960000Y-138089634D01*
X188170330Y-138404415D01*
X188656511Y-138729271D01*
X189230000Y-138843345D01*
X189803489Y-138729271D01*
X190289670Y-138404415D01*
X190500000Y-138089634D01*
X190710330Y-138404415D01*
X191196511Y-138729271D01*
X191770000Y-138843345D01*
X192343489Y-138729271D01*
X192829670Y-138404415D01*
X193040000Y-138089634D01*
X193250330Y-138404415D01*
X193736511Y-138729271D01*
X194310000Y-138843345D01*
X194883489Y-138729271D01*
X195369670Y-138404415D01*
X195694526Y-137918234D01*
X195808600Y-137344745D01*
X195808600Y-139015000D01*
X178028600Y-139015000D01*
X178028600Y-137344745D01*
X178028600Y-136975255D01*
X177914526Y-136401766D01*
X177589670Y-135915585D01*
X177103489Y-135590729D01*
X176530000Y-135476655D01*
X175956511Y-135590729D01*
X175470330Y-135915585D01*
X175260000Y-136230365D01*
X175049670Y-135915585D01*
X174563489Y-135590729D01*
X173990000Y-135476655D01*
X173416511Y-135590729D01*
X172930330Y-135915585D01*
X172720000Y-136230365D01*
X172509670Y-135915585D01*
X172023489Y-135590729D01*
X171450000Y-135476655D01*
X170876511Y-135590729D01*
X170390330Y-135915585D01*
X170183539Y-136225069D01*
X169812036Y-135809268D01*
X169284791Y-135555291D01*
X169269026Y-135552642D01*
X169037000Y-135673783D01*
X169037000Y-137033000D01*
X169057000Y-137033000D01*
X169057000Y-137287000D01*
X169037000Y-137287000D01*
X169037000Y-138646217D01*
X169269026Y-138767358D01*
X169284791Y-138764709D01*
X169812036Y-138510732D01*
X170183539Y-138094930D01*
X170390330Y-138404415D01*
X170876511Y-138729271D01*
X171450000Y-138843345D01*
X172023489Y-138729271D01*
X172509670Y-138404415D01*
X172720000Y-138089634D01*
X172930330Y-138404415D01*
X173416511Y-138729271D01*
X173990000Y-138843345D01*
X174563489Y-138729271D01*
X175049670Y-138404415D01*
X175260000Y-138089634D01*
X175470330Y-138404415D01*
X175956511Y-138729271D01*
X176530000Y-138843345D01*
X177103489Y-138729271D01*
X177589670Y-138404415D01*
X177914526Y-137918234D01*
X178028600Y-137344745D01*
X178028600Y-139015000D01*
X168783000Y-139015000D01*
X168783000Y-138646217D01*
X168783000Y-137287000D01*
X168763000Y-137287000D01*
X168763000Y-137033000D01*
X168783000Y-137033000D01*
X168783000Y-135673783D01*
X168550974Y-135552642D01*
X168535209Y-135555291D01*
X168007964Y-135809268D01*
X167636460Y-136225069D01*
X167429670Y-135915585D01*
X166943489Y-135590729D01*
X166370000Y-135476655D01*
X165796511Y-135590729D01*
X165310330Y-135915585D01*
X165295499Y-135937780D01*
X165231927Y-135784302D01*
X165053299Y-135605673D01*
X164819910Y-135509000D01*
X164567291Y-135509000D01*
X162840091Y-135509000D01*
X162606702Y-135605673D01*
X162428073Y-135784301D01*
X162331400Y-136017690D01*
X162331400Y-136270309D01*
X162331400Y-138302309D01*
X162428073Y-138535698D01*
X162606701Y-138714327D01*
X162840090Y-138811000D01*
X163092709Y-138811000D01*
X164819909Y-138811000D01*
X165053298Y-138714327D01*
X165231927Y-138535699D01*
X165295500Y-138382220D01*
X165310330Y-138404415D01*
X165796511Y-138729271D01*
X166370000Y-138843345D01*
X166943489Y-138729271D01*
X167429670Y-138404415D01*
X167636460Y-138094930D01*
X168007964Y-138510732D01*
X168535209Y-138764709D01*
X168550974Y-138767358D01*
X168783000Y-138646217D01*
X168783000Y-139015000D01*
X159163345Y-139015000D01*
X159163345Y-137160000D01*
X159037670Y-136528190D01*
X158679778Y-135992567D01*
X158144155Y-135634675D01*
X157512345Y-135509000D01*
X157447655Y-135509000D01*
X156815845Y-135634675D01*
X156515480Y-135835371D01*
X156494327Y-135784302D01*
X156315699Y-135605673D01*
X156082310Y-135509000D01*
X155829691Y-135509000D01*
X153797691Y-135509000D01*
X153564302Y-135605673D01*
X153385673Y-135784301D01*
X153289000Y-136017690D01*
X153289000Y-136270309D01*
X153289000Y-138302309D01*
X153385673Y-138535698D01*
X153564301Y-138714327D01*
X153797690Y-138811000D01*
X154050309Y-138811000D01*
X156082309Y-138811000D01*
X156315698Y-138714327D01*
X156494327Y-138535699D01*
X156515481Y-138484628D01*
X156815845Y-138685325D01*
X157447655Y-138811000D01*
X157512345Y-138811000D01*
X158144155Y-138685325D01*
X158679778Y-138327433D01*
X159037670Y-137791810D01*
X159163345Y-137160000D01*
X159163345Y-139015000D01*
X131495000Y-139015000D01*
X131495000Y-87045000D01*
X195045047Y-87045000D01*
X195798696Y-87547432D01*
X196165000Y-87913736D01*
X196165000Y-99060000D01*
X196215000Y-99311364D01*
X196215000Y-136908635D01*
X196215000Y-136908635D01*
G37*
X196215000Y-136908635D02*
X196165000Y-137160000D01*
X196165000Y-139015000D01*
X195808600Y-139015000D01*
X195808600Y-137344745D01*
X195808600Y-136975255D01*
X195694526Y-136401766D01*
X195369670Y-135915585D01*
X194883489Y-135590729D01*
X194310000Y-135476655D01*
X193736511Y-135590729D01*
X193250330Y-135915585D01*
X193040000Y-136230365D01*
X192829670Y-135915585D01*
X192532000Y-135716688D01*
X192532000Y-131826000D01*
X192473996Y-131534396D01*
X192473996Y-131534395D01*
X192407834Y-131435376D01*
X192308816Y-131287185D01*
X188371815Y-127350185D01*
X188124605Y-127185004D01*
X187972681Y-127154784D01*
X187972681Y-125907336D01*
X187972681Y-123367336D01*
X187972681Y-120827336D01*
X187942906Y-120322977D01*
X187807179Y-119995303D01*
X187578133Y-119941472D01*
X186869605Y-120650000D01*
X187578133Y-121358528D01*
X187807179Y-121304697D01*
X187972681Y-120827336D01*
X187972681Y-123367336D01*
X187942906Y-122862977D01*
X187807179Y-122535303D01*
X187578133Y-122481472D01*
X187398528Y-122661077D01*
X187398528Y-122301867D01*
X187344697Y-122072821D01*
X186878239Y-121911099D01*
X187017023Y-121902906D01*
X187344697Y-121767179D01*
X187398528Y-121538133D01*
X186690000Y-120829605D01*
X185981472Y-121538133D01*
X186035303Y-121767179D01*
X186501760Y-121928900D01*
X186362977Y-121937094D01*
X186035303Y-122072821D01*
X185981472Y-122301867D01*
X186690000Y-123010395D01*
X187398528Y-122301867D01*
X187398528Y-122661077D01*
X186869605Y-123190000D01*
X187578133Y-123898528D01*
X187807179Y-123844697D01*
X187972681Y-123367336D01*
X187972681Y-125907336D01*
X187942906Y-125402977D01*
X187807179Y-125075303D01*
X187578133Y-125021472D01*
X187398528Y-125201077D01*
X187398528Y-124841867D01*
X187344697Y-124612821D01*
X186878239Y-124451099D01*
X187017023Y-124442906D01*
X187344697Y-124307179D01*
X187398528Y-124078133D01*
X186690000Y-123369605D01*
X185981472Y-124078133D01*
X186035303Y-124307179D01*
X186501760Y-124468900D01*
X186362977Y-124477094D01*
X186035303Y-124612821D01*
X185981472Y-124841867D01*
X186690000Y-125550395D01*
X187398528Y-124841867D01*
X187398528Y-125201077D01*
X186869605Y-125730000D01*
X187578133Y-126438528D01*
X187807179Y-126384697D01*
X187972681Y-125907336D01*
X187972681Y-127154784D01*
X187833000Y-127127000D01*
X187398528Y-127127000D01*
X187398528Y-126618133D01*
X186690000Y-125909605D01*
X185981472Y-126618133D01*
X186035303Y-126847179D01*
X186512664Y-127012681D01*
X187017023Y-126982906D01*
X187344697Y-126847179D01*
X187398528Y-126618133D01*
X187398528Y-127127000D01*
X172867320Y-127127000D01*
X172867320Y-124057990D01*
X172867320Y-123805371D01*
X172867320Y-121306011D01*
X172770647Y-121072622D01*
X172592019Y-120893993D01*
X172358630Y-120797320D01*
X172106011Y-120797320D01*
X169555851Y-120797320D01*
X169322462Y-120893993D01*
X169143833Y-121072621D01*
X169047160Y-121306010D01*
X169047160Y-121558629D01*
X169047160Y-121920000D01*
X168656000Y-121920000D01*
X168364395Y-121978004D01*
X168117184Y-122143185D01*
X167736185Y-122524185D01*
X167571004Y-122771395D01*
X167513000Y-123063000D01*
X167513000Y-124330358D01*
X167360378Y-124482714D01*
X167195687Y-124879332D01*
X167195313Y-125308784D01*
X167359311Y-125705689D01*
X167662714Y-126009622D01*
X168059332Y-126174313D01*
X168488784Y-126174687D01*
X168885689Y-126010689D01*
X169189622Y-125707286D01*
X169354313Y-125310668D01*
X169354687Y-124881216D01*
X169190689Y-124484311D01*
X169037000Y-124330353D01*
X169037000Y-123444000D01*
X169047160Y-123444000D01*
X169047160Y-124057989D01*
X169143833Y-124291378D01*
X169322461Y-124470007D01*
X169555850Y-124566680D01*
X169808469Y-124566680D01*
X172358629Y-124566680D01*
X172592018Y-124470007D01*
X172770647Y-124291379D01*
X172867320Y-124057990D01*
X172867320Y-127127000D01*
X166936420Y-127127000D01*
X166936420Y-124197690D01*
X166936420Y-123945071D01*
X166936420Y-123856750D01*
X166936420Y-123285250D01*
X166936420Y-123196929D01*
X166936420Y-122944310D01*
X166839747Y-122710921D01*
X166661118Y-122532293D01*
X166562635Y-122491500D01*
X166661118Y-122450707D01*
X166839747Y-122272079D01*
X166936420Y-122038690D01*
X166936420Y-121786071D01*
X166936420Y-121697750D01*
X166936420Y-121126250D01*
X166936420Y-121037929D01*
X166936420Y-120785310D01*
X166839747Y-120551921D01*
X166661118Y-120373293D01*
X166562635Y-120332500D01*
X166661118Y-120291707D01*
X166839747Y-120113079D01*
X166936420Y-119879690D01*
X166936420Y-119627071D01*
X166936420Y-119538750D01*
X166936420Y-118967250D01*
X166936420Y-118878929D01*
X166936420Y-118626310D01*
X166839747Y-118392921D01*
X166661118Y-118214293D01*
X166427729Y-118117620D01*
X166137590Y-118117620D01*
X165978840Y-118276370D01*
X165978840Y-119126000D01*
X166777670Y-119126000D01*
X166936420Y-118967250D01*
X166936420Y-119538750D01*
X166777670Y-119380000D01*
X165978840Y-119380000D01*
X165978840Y-120229630D01*
X166081710Y-120332500D01*
X165978840Y-120435370D01*
X165978840Y-121285000D01*
X166777670Y-121285000D01*
X166936420Y-121126250D01*
X166936420Y-121697750D01*
X166777670Y-121539000D01*
X165978840Y-121539000D01*
X165978840Y-122388630D01*
X166081710Y-122491500D01*
X165978840Y-122594370D01*
X165978840Y-123444000D01*
X166777670Y-123444000D01*
X166936420Y-123285250D01*
X166936420Y-123856750D01*
X166777670Y-123698000D01*
X165978840Y-123698000D01*
X165978840Y-124547630D01*
X166137590Y-124706380D01*
X166427729Y-124706380D01*
X166661118Y-124609707D01*
X166839747Y-124431079D01*
X166936420Y-124197690D01*
X166936420Y-127127000D01*
X165724840Y-127127000D01*
X165724840Y-124547630D01*
X165724840Y-123698000D01*
X165704840Y-123698000D01*
X165704840Y-123444000D01*
X165724840Y-123444000D01*
X165724840Y-122594370D01*
X165621970Y-122491500D01*
X165724840Y-122388630D01*
X165724840Y-121539000D01*
X165704840Y-121539000D01*
X165704840Y-121285000D01*
X165724840Y-121285000D01*
X165724840Y-120435370D01*
X165621970Y-120332500D01*
X165724840Y-120229630D01*
X165724840Y-119380000D01*
X165704840Y-119380000D01*
X165704840Y-119126000D01*
X165724840Y-119126000D01*
X165724840Y-118276370D01*
X165566090Y-118117620D01*
X165275951Y-118117620D01*
X165100000Y-118190501D01*
X164924050Y-118117620D01*
X164671431Y-118117620D01*
X163772271Y-118117620D01*
X163538882Y-118214293D01*
X163360253Y-118392921D01*
X163319627Y-118491000D01*
X162306000Y-118491000D01*
X162014395Y-118549004D01*
X161915376Y-118615165D01*
X161767185Y-118714184D01*
X161734500Y-118746869D01*
X161734500Y-115950309D01*
X161734500Y-115855750D01*
X161734500Y-115284250D01*
X161734500Y-115189691D01*
X161637827Y-114956302D01*
X161616525Y-114935000D01*
X161637827Y-114913699D01*
X161734500Y-114680310D01*
X161734500Y-114427691D01*
X161734500Y-113919691D01*
X161637827Y-113686302D01*
X161616525Y-113665000D01*
X161637827Y-113643699D01*
X161734500Y-113410310D01*
X161734500Y-113157691D01*
X161734500Y-112649691D01*
X161637827Y-112416302D01*
X161616525Y-112395000D01*
X161637827Y-112373699D01*
X161734500Y-112140310D01*
X161734500Y-111887691D01*
X161734500Y-111379691D01*
X161637827Y-111146302D01*
X161616525Y-111125000D01*
X161637827Y-111103699D01*
X161734500Y-110870310D01*
X161734500Y-110617691D01*
X161734500Y-110109691D01*
X161637827Y-109876302D01*
X161616525Y-109855000D01*
X161637827Y-109833699D01*
X161734500Y-109600310D01*
X161734500Y-109347691D01*
X161734500Y-108839691D01*
X161637827Y-108606302D01*
X161616525Y-108585000D01*
X161637827Y-108563699D01*
X161734500Y-108330310D01*
X161734500Y-108077691D01*
X161734500Y-107569691D01*
X161637827Y-107336302D01*
X161459199Y-107157673D01*
X161225810Y-107061000D01*
X160973191Y-107061000D01*
X159830191Y-107061000D01*
X159596802Y-107157673D01*
X159418173Y-107336301D01*
X159321500Y-107569690D01*
X159321500Y-107822309D01*
X159321500Y-108330309D01*
X159418173Y-108563698D01*
X159439474Y-108584999D01*
X159418173Y-108606301D01*
X159321500Y-108839690D01*
X159321500Y-109092309D01*
X159321500Y-109600309D01*
X159418173Y-109833698D01*
X159439474Y-109854999D01*
X159418173Y-109876301D01*
X159321500Y-110109690D01*
X159321500Y-110362309D01*
X159321500Y-110870309D01*
X159418173Y-111103698D01*
X159439474Y-111124999D01*
X159418173Y-111146301D01*
X159321500Y-111379690D01*
X159321500Y-111632309D01*
X159321500Y-112140309D01*
X159418173Y-112373698D01*
X159439474Y-112394999D01*
X159418173Y-112416301D01*
X159321500Y-112649690D01*
X159321500Y-112902309D01*
X159321500Y-113410309D01*
X159418173Y-113643698D01*
X159439474Y-113664999D01*
X159418173Y-113686301D01*
X159321500Y-113919690D01*
X159321500Y-114172309D01*
X159321500Y-114680309D01*
X159418173Y-114913698D01*
X159439474Y-114935000D01*
X159418173Y-114956302D01*
X159321500Y-115189691D01*
X159321500Y-115284250D01*
X159480250Y-115443000D01*
X160401000Y-115443000D01*
X160401000Y-115423000D01*
X160655000Y-115423000D01*
X160655000Y-115443000D01*
X161575750Y-115443000D01*
X161734500Y-115284250D01*
X161734500Y-115855750D01*
X161575750Y-115697000D01*
X160655000Y-115697000D01*
X160655000Y-116300250D01*
X160813750Y-116459000D01*
X160973191Y-116459000D01*
X161225810Y-116459000D01*
X161459199Y-116362327D01*
X161637827Y-116183698D01*
X161734500Y-115950309D01*
X161734500Y-118746869D01*
X161005185Y-119476185D01*
X160840004Y-119723395D01*
X160782000Y-120015000D01*
X160782000Y-120647358D01*
X160629378Y-120799714D01*
X160464687Y-121196332D01*
X160464313Y-121625784D01*
X160628311Y-122022689D01*
X160782000Y-122176646D01*
X160782000Y-122428000D01*
X160840004Y-122719605D01*
X161005185Y-122966815D01*
X162148185Y-124109815D01*
X162395395Y-124274996D01*
X162687000Y-124333000D01*
X163319627Y-124333000D01*
X163360253Y-124431078D01*
X163538881Y-124609707D01*
X163772270Y-124706380D01*
X164024889Y-124706380D01*
X164924049Y-124706380D01*
X165100000Y-124633498D01*
X165275951Y-124706380D01*
X165566090Y-124706380D01*
X165724840Y-124547630D01*
X165724840Y-127127000D01*
X161732630Y-127127000D01*
X160401000Y-125795369D01*
X160401000Y-116300250D01*
X160401000Y-115697000D01*
X159480250Y-115697000D01*
X159321500Y-115855750D01*
X159321500Y-115950309D01*
X159418173Y-116183698D01*
X159596801Y-116362327D01*
X159830190Y-116459000D01*
X160082809Y-116459000D01*
X160242250Y-116459000D01*
X160401000Y-116300250D01*
X160401000Y-125795369D01*
X159893000Y-125287369D01*
X159893000Y-121285000D01*
X159834996Y-120993395D01*
X159669815Y-120746185D01*
X156494815Y-117571185D01*
X156247605Y-117406004D01*
X155956000Y-117348000D01*
X152080629Y-117348000D01*
X151064630Y-116332000D01*
X153216474Y-116332000D01*
X153246801Y-116362327D01*
X153480190Y-116459000D01*
X153732809Y-116459000D01*
X154875809Y-116459000D01*
X155109198Y-116362327D01*
X155139525Y-116332000D01*
X155575000Y-116332000D01*
X155575000Y-116331999D01*
X155866604Y-116273996D01*
X155866605Y-116273996D01*
X156113815Y-116108815D01*
X156748815Y-115473815D01*
X156748816Y-115473815D01*
X156847834Y-115325623D01*
X156913996Y-115226605D01*
X156913996Y-115226604D01*
X156972000Y-114935000D01*
X156972000Y-113284000D01*
X156972000Y-113030000D01*
X156972000Y-109728000D01*
X156913996Y-109436395D01*
X156748815Y-109189185D01*
X156748815Y-109189184D01*
X156240815Y-108681185D01*
X155993605Y-108516004D01*
X155702000Y-108458000D01*
X155331609Y-108458000D01*
X155384500Y-108330310D01*
X155384500Y-108077691D01*
X155384500Y-107569691D01*
X155287827Y-107336302D01*
X155109199Y-107157673D01*
X154875810Y-107061000D01*
X154623191Y-107061000D01*
X153543000Y-107061000D01*
X153543000Y-106995630D01*
X153985630Y-106553000D01*
X162938358Y-106553000D01*
X163090714Y-106705622D01*
X163487332Y-106870313D01*
X163916784Y-106870687D01*
X164313689Y-106706689D01*
X164617622Y-106403286D01*
X164771669Y-106032300D01*
X164858365Y-106118996D01*
X165004976Y-106216958D01*
X164904004Y-106368075D01*
X164846000Y-106659680D01*
X164846000Y-113538000D01*
X164904004Y-113829605D01*
X165069185Y-114076815D01*
X166061989Y-115069620D01*
X165941431Y-115069620D01*
X165042271Y-115069620D01*
X164808882Y-115166293D01*
X164630253Y-115344921D01*
X164589627Y-115443000D01*
X163576000Y-115443000D01*
X163284395Y-115501004D01*
X163185376Y-115567165D01*
X163037185Y-115666184D01*
X162942868Y-115760500D01*
X162727216Y-115760313D01*
X162330311Y-115924311D01*
X162026378Y-116227714D01*
X161861687Y-116624332D01*
X161861313Y-117053784D01*
X162025311Y-117450689D01*
X162328714Y-117754622D01*
X162725332Y-117919313D01*
X163154784Y-117919687D01*
X163551689Y-117755689D01*
X163855622Y-117452286D01*
X164020313Y-117055668D01*
X164020390Y-116967000D01*
X164589627Y-116967000D01*
X164630253Y-117065078D01*
X164808881Y-117243707D01*
X165042270Y-117340380D01*
X165294889Y-117340380D01*
X166194049Y-117340380D01*
X166369999Y-117267498D01*
X166371209Y-117268000D01*
X166371210Y-117268000D01*
X166417844Y-117502445D01*
X166583025Y-117749655D01*
X168752184Y-119918815D01*
X168752185Y-119918815D01*
X168999395Y-120083996D01*
X169291000Y-120142000D01*
X174690369Y-120142000D01*
X175244760Y-120696390D01*
X175244760Y-120797320D01*
X174605371Y-120797320D01*
X174371982Y-120893993D01*
X174193353Y-121072621D01*
X174096680Y-121306010D01*
X174096680Y-121558629D01*
X174096680Y-124057989D01*
X174193353Y-124291378D01*
X174371981Y-124470007D01*
X174605370Y-124566680D01*
X174857989Y-124566680D01*
X177408149Y-124566680D01*
X177641538Y-124470007D01*
X177820167Y-124291379D01*
X177916840Y-124057990D01*
X177916840Y-123805371D01*
X177916840Y-121306011D01*
X177820167Y-121072622D01*
X177641539Y-120893993D01*
X177482687Y-120828194D01*
X177482687Y-105958216D01*
X177318689Y-105561311D01*
X177015286Y-105257378D01*
X176618668Y-105092687D01*
X176189216Y-105092313D01*
X175792311Y-105256311D01*
X175488378Y-105559714D01*
X175323687Y-105956332D01*
X175323497Y-106173872D01*
X174975185Y-106522185D01*
X174810004Y-106769395D01*
X174752000Y-107061000D01*
X174752000Y-107706160D01*
X174138011Y-107706160D01*
X173904622Y-107802833D01*
X173725993Y-107981461D01*
X173672687Y-108110152D01*
X173672687Y-105323216D01*
X173508689Y-104926311D01*
X173205286Y-104622378D01*
X172808668Y-104457687D01*
X172379216Y-104457313D01*
X171982311Y-104621311D01*
X171678378Y-104924714D01*
X171513687Y-105321332D01*
X171513497Y-105538872D01*
X169133185Y-107919185D01*
X168968004Y-108166395D01*
X168910000Y-108458000D01*
X168910000Y-112004974D01*
X168825198Y-111920173D01*
X168675050Y-111857979D01*
X168675050Y-108406510D01*
X168675050Y-108153891D01*
X168675050Y-108065570D01*
X168516300Y-107906820D01*
X167767000Y-107906820D01*
X167767000Y-108756450D01*
X167925750Y-108915200D01*
X168166359Y-108915200D01*
X168399748Y-108818527D01*
X168578377Y-108639899D01*
X168675050Y-108406510D01*
X168675050Y-111857979D01*
X168591809Y-111823500D01*
X168433750Y-111823500D01*
X168275000Y-111982250D01*
X168275000Y-112903000D01*
X168295000Y-112903000D01*
X168295000Y-113157000D01*
X168275000Y-113157000D01*
X168275000Y-114077750D01*
X168433750Y-114236500D01*
X168591809Y-114236500D01*
X168825198Y-114139827D01*
X168909999Y-114055025D01*
X168994801Y-114139827D01*
X169228190Y-114236500D01*
X169480809Y-114236500D01*
X170115809Y-114236500D01*
X170349198Y-114139827D01*
X170527827Y-113961199D01*
X170624500Y-113727810D01*
X170624500Y-113475191D01*
X170624500Y-112332191D01*
X170527827Y-112098802D01*
X170434000Y-112004974D01*
X170434000Y-108773630D01*
X172591130Y-106616499D01*
X172806784Y-106616687D01*
X173203689Y-106452689D01*
X173507622Y-106149286D01*
X173672313Y-105752668D01*
X173672687Y-105323216D01*
X173672687Y-108110152D01*
X173629320Y-108214850D01*
X173629320Y-108467469D01*
X173629320Y-111017629D01*
X173725993Y-111251018D01*
X173904621Y-111429647D01*
X174138010Y-111526320D01*
X174390629Y-111526320D01*
X176889989Y-111526320D01*
X177123378Y-111429647D01*
X177302007Y-111251019D01*
X177398680Y-111017630D01*
X177398680Y-110765011D01*
X177398680Y-108214851D01*
X177302007Y-107981462D01*
X177123379Y-107802833D01*
X176889990Y-107706160D01*
X176637371Y-107706160D01*
X176276000Y-107706160D01*
X176276000Y-107376630D01*
X176401130Y-107251499D01*
X176616784Y-107251687D01*
X177013689Y-107087689D01*
X177317622Y-106784286D01*
X177482313Y-106387668D01*
X177482687Y-105958216D01*
X177482687Y-120828194D01*
X177408150Y-120797320D01*
X177398680Y-120797320D01*
X177398680Y-116067149D01*
X177398680Y-114951510D01*
X177398680Y-114380010D01*
X177398680Y-113264371D01*
X177302007Y-113030982D01*
X177123379Y-112852353D01*
X176889990Y-112755680D01*
X176637371Y-112755680D01*
X175799750Y-112755680D01*
X175641000Y-112914430D01*
X175641000Y-114538760D01*
X177239930Y-114538760D01*
X177398680Y-114380010D01*
X177398680Y-114951510D01*
X177239930Y-114792760D01*
X175641000Y-114792760D01*
X175641000Y-116417090D01*
X175799750Y-116575840D01*
X176637371Y-116575840D01*
X176889990Y-116575840D01*
X177123379Y-116479167D01*
X177302007Y-116300538D01*
X177398680Y-116067149D01*
X177398680Y-120797320D01*
X177155531Y-120797320D01*
X176768760Y-120797320D01*
X176768760Y-120380760D01*
X176710756Y-120089155D01*
X176545575Y-119841945D01*
X176545575Y-119841944D01*
X175544815Y-118841185D01*
X175387000Y-118735736D01*
X175387000Y-116417090D01*
X175387000Y-114792760D01*
X175387000Y-114538760D01*
X175387000Y-112914430D01*
X175228250Y-112755680D01*
X174390629Y-112755680D01*
X174138010Y-112755680D01*
X173904621Y-112852353D01*
X173725993Y-113030982D01*
X173629320Y-113264371D01*
X173629320Y-114380010D01*
X173788070Y-114538760D01*
X175387000Y-114538760D01*
X175387000Y-114792760D01*
X173788070Y-114792760D01*
X173629320Y-114951510D01*
X173629320Y-116067149D01*
X173725993Y-116300538D01*
X173904621Y-116479167D01*
X174138010Y-116575840D01*
X174390629Y-116575840D01*
X175228250Y-116575840D01*
X175387000Y-116417090D01*
X175387000Y-118735736D01*
X175297605Y-118676004D01*
X175006000Y-118618000D01*
X169606630Y-118618000D01*
X168081728Y-117093097D01*
X168109747Y-117065079D01*
X168206420Y-116831690D01*
X168206420Y-116579071D01*
X168206420Y-115578311D01*
X168109747Y-115344922D01*
X168021000Y-115256174D01*
X168021000Y-114077750D01*
X168021000Y-113157000D01*
X168021000Y-112903000D01*
X168021000Y-111982250D01*
X167862250Y-111823500D01*
X167704191Y-111823500D01*
X167513000Y-111902693D01*
X167513000Y-108756450D01*
X167513000Y-107906820D01*
X166763700Y-107906820D01*
X166604950Y-108065570D01*
X166604950Y-108153891D01*
X166604950Y-108406510D01*
X166701623Y-108639899D01*
X166880252Y-108818527D01*
X167113641Y-108915200D01*
X167354250Y-108915200D01*
X167513000Y-108756450D01*
X167513000Y-111902693D01*
X167470802Y-111920173D01*
X167292173Y-112098801D01*
X167195500Y-112332190D01*
X167195500Y-112584809D01*
X167195500Y-112744250D01*
X167354250Y-112903000D01*
X168021000Y-112903000D01*
X168021000Y-113157000D01*
X167354250Y-113157000D01*
X167195500Y-113315750D01*
X167195500Y-113475191D01*
X167195500Y-113727810D01*
X167292173Y-113961199D01*
X167470802Y-114139827D01*
X167704191Y-114236500D01*
X167862250Y-114236500D01*
X168021000Y-114077750D01*
X168021000Y-115256174D01*
X167931119Y-115166293D01*
X167894000Y-115150917D01*
X167894000Y-115062000D01*
X167835996Y-114770395D01*
X167670815Y-114523185D01*
X167670815Y-114523184D01*
X166370000Y-113222369D01*
X166370000Y-106975310D01*
X166629750Y-106715560D01*
X166941942Y-106715560D01*
X166880252Y-106741113D01*
X166701623Y-106919741D01*
X166604950Y-107153130D01*
X166604950Y-107405749D01*
X166604950Y-107494070D01*
X166763700Y-107652820D01*
X167513000Y-107652820D01*
X167513000Y-106803190D01*
X167363419Y-106653609D01*
X167447248Y-106618887D01*
X167625877Y-106440259D01*
X167640000Y-106406162D01*
X167654123Y-106440258D01*
X167832751Y-106618887D01*
X167916579Y-106653610D01*
X167767000Y-106803190D01*
X167767000Y-107652820D01*
X168516300Y-107652820D01*
X168675050Y-107494070D01*
X168675050Y-107405749D01*
X168675050Y-107153130D01*
X168578377Y-106919741D01*
X168399748Y-106741113D01*
X168338057Y-106715560D01*
X169118859Y-106715560D01*
X169352248Y-106618887D01*
X169530877Y-106440259D01*
X169627550Y-106206870D01*
X169627550Y-105954251D01*
X169627550Y-104953491D01*
X169530877Y-104720102D01*
X169354500Y-104543724D01*
X169354500Y-103884130D01*
X169608500Y-104138131D01*
X169608313Y-104353784D01*
X169772311Y-104750689D01*
X170075714Y-105054622D01*
X170472332Y-105219313D01*
X170901784Y-105219687D01*
X171298689Y-105055689D01*
X171602622Y-104752286D01*
X171767313Y-104355668D01*
X171767687Y-103926216D01*
X171603689Y-103529311D01*
X171300286Y-103225378D01*
X170903668Y-103060687D01*
X170686128Y-103060497D01*
X170180000Y-102554369D01*
X170180000Y-101609025D01*
X170264801Y-101693827D01*
X170498190Y-101790500D01*
X170750809Y-101790500D01*
X171385809Y-101790500D01*
X171619198Y-101693827D01*
X171797827Y-101515199D01*
X171867911Y-101346000D01*
X173736000Y-101346000D01*
X173736000Y-101345999D01*
X174027604Y-101287996D01*
X174027605Y-101287996D01*
X174274815Y-101122815D01*
X174940630Y-100457000D01*
X177473474Y-100457000D01*
X177503801Y-100487327D01*
X177584233Y-100520643D01*
X177205216Y-100520313D01*
X176808311Y-100684311D01*
X176504378Y-100987714D01*
X176339687Y-101384332D01*
X176339313Y-101813784D01*
X176503311Y-102210689D01*
X176806714Y-102514622D01*
X177203332Y-102679313D01*
X177632784Y-102679687D01*
X178029689Y-102515689D01*
X178183646Y-102362000D01*
X179897370Y-102362000D01*
X180225949Y-102690579D01*
X179856311Y-102843311D01*
X179552378Y-103146714D01*
X179387687Y-103543332D01*
X179387313Y-103972784D01*
X179551311Y-104369689D01*
X179854714Y-104673622D01*
X180251332Y-104838313D01*
X180468872Y-104838502D01*
X180721000Y-105090630D01*
X180721000Y-112903000D01*
X180779004Y-113194605D01*
X180944185Y-113441815D01*
X182880167Y-115377798D01*
X182879780Y-115821510D01*
X183072718Y-116288458D01*
X183429663Y-116646026D01*
X183896273Y-116839779D01*
X183898487Y-116839780D01*
X183431542Y-117032718D01*
X183073974Y-117389663D01*
X182880221Y-117856273D01*
X182879780Y-118361510D01*
X183072718Y-118828458D01*
X183429663Y-119186026D01*
X183896273Y-119379779D01*
X183898487Y-119379780D01*
X183431542Y-119572718D01*
X183073974Y-119929663D01*
X182880221Y-120396273D01*
X182879780Y-120901510D01*
X183072718Y-121368458D01*
X183429663Y-121726026D01*
X183896273Y-121919779D01*
X183898487Y-121919780D01*
X183431542Y-122112718D01*
X183073974Y-122469663D01*
X182880221Y-122936273D01*
X182879780Y-123441510D01*
X183072718Y-123908458D01*
X183429663Y-124266026D01*
X183896273Y-124459779D01*
X183898487Y-124459780D01*
X183431542Y-124652718D01*
X183073974Y-125009663D01*
X182880221Y-125476273D01*
X182879780Y-125981510D01*
X183072718Y-126448458D01*
X183429663Y-126806026D01*
X183896273Y-126999779D01*
X184401510Y-127000220D01*
X184868458Y-126807282D01*
X185226026Y-126450337D01*
X185419779Y-125983727D01*
X185419968Y-125766929D01*
X185437094Y-126057023D01*
X185572821Y-126384697D01*
X185801867Y-126438528D01*
X186510395Y-125730000D01*
X185801867Y-125021472D01*
X185572821Y-125075303D01*
X185420187Y-125515546D01*
X185420220Y-125478490D01*
X185227282Y-125011542D01*
X184870337Y-124653974D01*
X184403727Y-124460221D01*
X184401512Y-124460219D01*
X184868458Y-124267282D01*
X185226026Y-123910337D01*
X185419779Y-123443727D01*
X185419968Y-123226929D01*
X185437094Y-123517023D01*
X185572821Y-123844697D01*
X185801867Y-123898528D01*
X186510395Y-123190000D01*
X185801867Y-122481472D01*
X185572821Y-122535303D01*
X185420187Y-122975546D01*
X185420220Y-122938490D01*
X185227282Y-122471542D01*
X184870337Y-122113974D01*
X184403727Y-121920221D01*
X184401512Y-121920219D01*
X184868458Y-121727282D01*
X185226026Y-121370337D01*
X185419779Y-120903727D01*
X185419968Y-120686929D01*
X185437094Y-120977023D01*
X185572821Y-121304697D01*
X185801867Y-121358528D01*
X186510395Y-120650000D01*
X185801867Y-119941472D01*
X185572821Y-119995303D01*
X185420187Y-120435546D01*
X185420220Y-120398490D01*
X185227282Y-119931542D01*
X184870337Y-119573974D01*
X184403727Y-119380221D01*
X184401512Y-119380219D01*
X184868458Y-119187282D01*
X185226026Y-118830337D01*
X185419779Y-118363727D01*
X185419780Y-118361512D01*
X185612718Y-118828458D01*
X185969663Y-119186026D01*
X186436273Y-119379779D01*
X186653070Y-119379968D01*
X186362977Y-119397094D01*
X186035303Y-119532821D01*
X185981472Y-119761867D01*
X186690000Y-120470395D01*
X187398528Y-119761867D01*
X187344697Y-119532821D01*
X186904453Y-119380187D01*
X186941510Y-119380220D01*
X187408458Y-119187282D01*
X187766026Y-118830337D01*
X187959779Y-118363727D01*
X187960220Y-117858490D01*
X187767282Y-117391542D01*
X187410337Y-117033974D01*
X186943727Y-116840221D01*
X186941512Y-116840219D01*
X187408458Y-116647282D01*
X187766026Y-116290337D01*
X187959779Y-115823727D01*
X187960220Y-115318490D01*
X187767282Y-114851542D01*
X187410337Y-114493974D01*
X186943727Y-114300221D01*
X186941512Y-114300219D01*
X187408458Y-114107282D01*
X187766026Y-113750337D01*
X187959779Y-113283727D01*
X187960220Y-112778490D01*
X187767282Y-112311542D01*
X187410337Y-111953974D01*
X186943727Y-111760221D01*
X186941512Y-111760219D01*
X187408458Y-111567282D01*
X187766026Y-111210337D01*
X187959779Y-110743727D01*
X187960220Y-110238490D01*
X187767282Y-109771542D01*
X187410337Y-109413974D01*
X186943727Y-109220221D01*
X186941512Y-109220219D01*
X187408458Y-109027282D01*
X187724290Y-108712000D01*
X190500000Y-108712000D01*
X190500000Y-108711999D01*
X190791604Y-108653996D01*
X190791605Y-108653996D01*
X191038815Y-108488815D01*
X194848815Y-104678815D01*
X194848816Y-104678815D01*
X194947834Y-104530623D01*
X195013996Y-104431605D01*
X195013996Y-104431604D01*
X195072000Y-104140000D01*
X195072000Y-90343311D01*
X195369670Y-90144415D01*
X195694526Y-89658234D01*
X195808600Y-89084745D01*
X195808600Y-88715255D01*
X195694526Y-88141766D01*
X195369670Y-87655585D01*
X194883489Y-87330729D01*
X194310000Y-87216655D01*
X193736511Y-87330729D01*
X193250330Y-87655585D01*
X193040000Y-87970365D01*
X192829670Y-87655585D01*
X192343489Y-87330729D01*
X191770000Y-87216655D01*
X191196511Y-87330729D01*
X190710330Y-87655585D01*
X190500000Y-87970365D01*
X190289670Y-87655585D01*
X189803489Y-87330729D01*
X189230000Y-87216655D01*
X188656511Y-87330729D01*
X188170330Y-87655585D01*
X187960000Y-87970365D01*
X187749670Y-87655585D01*
X187263489Y-87330729D01*
X186690000Y-87216655D01*
X186116511Y-87330729D01*
X185630330Y-87655585D01*
X185420000Y-87970365D01*
X185209670Y-87655585D01*
X184723489Y-87330729D01*
X184150000Y-87216655D01*
X183576511Y-87330729D01*
X183090330Y-87655585D01*
X182880000Y-87970365D01*
X182669670Y-87655585D01*
X182183489Y-87330729D01*
X181610000Y-87216655D01*
X181036511Y-87330729D01*
X180550330Y-87655585D01*
X180340000Y-87970365D01*
X180129670Y-87655585D01*
X179643489Y-87330729D01*
X179070000Y-87216655D01*
X178496511Y-87330729D01*
X178010330Y-87655585D01*
X177995499Y-87677780D01*
X177931927Y-87524302D01*
X177753299Y-87345673D01*
X177519910Y-87249000D01*
X177267291Y-87249000D01*
X175540091Y-87249000D01*
X175306702Y-87345673D01*
X175128073Y-87524301D01*
X175031400Y-87757690D01*
X175031400Y-88010309D01*
X175031400Y-90042309D01*
X175128073Y-90275698D01*
X175306701Y-90454327D01*
X175540090Y-90551000D01*
X175792709Y-90551000D01*
X177519909Y-90551000D01*
X177753298Y-90454327D01*
X177931927Y-90275699D01*
X177995500Y-90122220D01*
X178010330Y-90144415D01*
X178496511Y-90469271D01*
X179070000Y-90583345D01*
X179643489Y-90469271D01*
X180129670Y-90144415D01*
X180340000Y-89829634D01*
X180550330Y-90144415D01*
X180848000Y-90343311D01*
X180848000Y-94045369D01*
X179770369Y-95123000D01*
X179396525Y-95123000D01*
X179366199Y-95092673D01*
X179132810Y-94996000D01*
X178880191Y-94996000D01*
X177737191Y-94996000D01*
X177503802Y-95092673D01*
X177325173Y-95271301D01*
X177228500Y-95504690D01*
X177228500Y-95757309D01*
X177228500Y-96265309D01*
X177281391Y-96393000D01*
X171960372Y-96393000D01*
X171919747Y-96294922D01*
X171741119Y-96116293D01*
X171507730Y-96019620D01*
X171255111Y-96019620D01*
X170355951Y-96019620D01*
X170190160Y-96088292D01*
X170190160Y-95496499D01*
X170332622Y-95354286D01*
X170497313Y-94957668D01*
X170497687Y-94528216D01*
X170333689Y-94131311D01*
X170030286Y-93827378D01*
X169633668Y-93662687D01*
X169204216Y-93662313D01*
X168807311Y-93826311D01*
X168503378Y-94129714D01*
X168338687Y-94526332D01*
X168338313Y-94955784D01*
X168502311Y-95352689D01*
X168666160Y-95516824D01*
X168666160Y-96096709D01*
X168618882Y-96116293D01*
X168440253Y-96294921D01*
X168343580Y-96528310D01*
X168343580Y-96780929D01*
X168343580Y-97781689D01*
X168440253Y-98015078D01*
X168618881Y-98193707D01*
X168852270Y-98290380D01*
X169104889Y-98290380D01*
X170004049Y-98290380D01*
X170179999Y-98217498D01*
X170355950Y-98290380D01*
X170374132Y-98290380D01*
X170393025Y-98318655D01*
X171498581Y-99424211D01*
X171385810Y-99377500D01*
X171133191Y-99377500D01*
X170498191Y-99377500D01*
X170264802Y-99474173D01*
X170180000Y-99558974D01*
X170095199Y-99474173D01*
X169861810Y-99377500D01*
X169609191Y-99377500D01*
X168974191Y-99377500D01*
X168740802Y-99474173D01*
X168562173Y-99652801D01*
X168492088Y-99822000D01*
X166880372Y-99822000D01*
X166839747Y-99723922D01*
X166661119Y-99545293D01*
X166427730Y-99448620D01*
X166175111Y-99448620D01*
X165662010Y-99448620D01*
X166400815Y-98709815D01*
X166400816Y-98709815D01*
X166499834Y-98561623D01*
X166565996Y-98462605D01*
X166565996Y-98462604D01*
X166624000Y-98171000D01*
X166624000Y-97545025D01*
X166717827Y-97451199D01*
X166814500Y-97217810D01*
X166814500Y-96965191D01*
X166814500Y-95822191D01*
X166717827Y-95588802D01*
X166624000Y-95494974D01*
X166624000Y-94676630D01*
X168178815Y-93121815D01*
X168178816Y-93121815D01*
X168277834Y-92973623D01*
X168343996Y-92874605D01*
X168343996Y-92874604D01*
X168402000Y-92583000D01*
X168402000Y-90343311D01*
X168699670Y-90144415D01*
X168910000Y-89829634D01*
X169120330Y-90144415D01*
X169606511Y-90469271D01*
X170180000Y-90583345D01*
X170753489Y-90469271D01*
X171239670Y-90144415D01*
X171450000Y-89829634D01*
X171660330Y-90144415D01*
X172146511Y-90469271D01*
X172720000Y-90583345D01*
X173293489Y-90469271D01*
X173779670Y-90144415D01*
X174104526Y-89658234D01*
X174218600Y-89084745D01*
X174218600Y-88715255D01*
X174104526Y-88141766D01*
X173779670Y-87655585D01*
X173293489Y-87330729D01*
X172720000Y-87216655D01*
X172146511Y-87330729D01*
X171660330Y-87655585D01*
X171450000Y-87970365D01*
X171239670Y-87655585D01*
X170753489Y-87330729D01*
X170180000Y-87216655D01*
X169606511Y-87330729D01*
X169120330Y-87655585D01*
X168910000Y-87970365D01*
X168699670Y-87655585D01*
X168213489Y-87330729D01*
X167640000Y-87216655D01*
X167066511Y-87330729D01*
X166580330Y-87655585D01*
X166370000Y-87970365D01*
X166159670Y-87655585D01*
X165673489Y-87330729D01*
X165100000Y-87216655D01*
X164526511Y-87330729D01*
X164040330Y-87655585D01*
X163830000Y-87970365D01*
X163619670Y-87655585D01*
X163133489Y-87330729D01*
X162560000Y-87216655D01*
X161986511Y-87330729D01*
X161500330Y-87655585D01*
X161290000Y-87970365D01*
X161079670Y-87655585D01*
X160593489Y-87330729D01*
X160020000Y-87216655D01*
X159446511Y-87330729D01*
X158960330Y-87655585D01*
X158750000Y-87970365D01*
X158539670Y-87655585D01*
X158053489Y-87330729D01*
X157480000Y-87216655D01*
X156906511Y-87330729D01*
X156420330Y-87655585D01*
X156405499Y-87677780D01*
X156341927Y-87524302D01*
X156163299Y-87345673D01*
X155929910Y-87249000D01*
X155677291Y-87249000D01*
X153950091Y-87249000D01*
X153716702Y-87345673D01*
X153538073Y-87524301D01*
X153441400Y-87757690D01*
X153441400Y-88010309D01*
X153441400Y-90042309D01*
X153538073Y-90275698D01*
X153716701Y-90454327D01*
X153950090Y-90551000D01*
X154202709Y-90551000D01*
X155929909Y-90551000D01*
X156163298Y-90454327D01*
X156341927Y-90275699D01*
X156405500Y-90122220D01*
X156420330Y-90144415D01*
X156906511Y-90469271D01*
X157480000Y-90583345D01*
X158053489Y-90469271D01*
X158539670Y-90144415D01*
X158750000Y-89829634D01*
X158960330Y-90144415D01*
X159258000Y-90343311D01*
X159258000Y-91632369D01*
X155892500Y-94997869D01*
X155892500Y-94869691D01*
X155795827Y-94636302D01*
X155617199Y-94457673D01*
X155448000Y-94387588D01*
X155448000Y-94109641D01*
X155600622Y-93957286D01*
X155765313Y-93560668D01*
X155765687Y-93131216D01*
X155601689Y-92734311D01*
X155298286Y-92430378D01*
X154901668Y-92265687D01*
X154472216Y-92265313D01*
X154075311Y-92429311D01*
X153771378Y-92732714D01*
X153606687Y-93129332D01*
X153606313Y-93558784D01*
X153770311Y-93955689D01*
X153924000Y-94109646D01*
X153924000Y-94387588D01*
X153754802Y-94457673D01*
X153576173Y-94636301D01*
X153479500Y-94869690D01*
X153479500Y-95122309D01*
X153479500Y-95630309D01*
X153576173Y-95863698D01*
X153597474Y-95884999D01*
X153576173Y-95906301D01*
X153479500Y-96139690D01*
X153479500Y-96392309D01*
X153479500Y-96900309D01*
X153532391Y-97028000D01*
X150175630Y-97028000D01*
X146738815Y-93591185D01*
X146491605Y-93426004D01*
X146200000Y-93368000D01*
X137630000Y-93368000D01*
X137630000Y-93253691D01*
X137630000Y-92692000D01*
X143489168Y-92692000D01*
X143532714Y-92735622D01*
X143929332Y-92900313D01*
X144358784Y-92900687D01*
X144755689Y-92736689D01*
X145059622Y-92433286D01*
X145224313Y-92036668D01*
X145224687Y-91607216D01*
X145060689Y-91210311D01*
X144890674Y-91040000D01*
X144996309Y-91040000D01*
X145996309Y-91040000D01*
X146229698Y-90943327D01*
X146408327Y-90764699D01*
X146505000Y-90531310D01*
X146505000Y-90278691D01*
X146505000Y-88828691D01*
X146408327Y-88595302D01*
X146229699Y-88416673D01*
X145996310Y-88320000D01*
X145743691Y-88320000D01*
X144743691Y-88320000D01*
X144683335Y-88345000D01*
X144523691Y-88345000D01*
X143023691Y-88345000D01*
X142790302Y-88441673D01*
X142613974Y-88618000D01*
X142400630Y-88618000D01*
X141381815Y-87599185D01*
X141134605Y-87434004D01*
X140843000Y-87376000D01*
X134495641Y-87376000D01*
X134343286Y-87223378D01*
X133946668Y-87058687D01*
X133517216Y-87058313D01*
X133120311Y-87222311D01*
X132816378Y-87525714D01*
X132651687Y-87922332D01*
X132651313Y-88351784D01*
X132815311Y-88748689D01*
X132969000Y-88902646D01*
X132969000Y-91948000D01*
X133027004Y-92239605D01*
X133192185Y-92486815D01*
X134274185Y-93568815D01*
X134521395Y-93733996D01*
X134610000Y-93751620D01*
X134610000Y-93906309D01*
X134610000Y-94524491D01*
X134602395Y-94526004D01*
X134503376Y-94592165D01*
X134355185Y-94691184D01*
X133827185Y-95219185D01*
X133662004Y-95466395D01*
X133604000Y-95758000D01*
X133604000Y-103124000D01*
X133662004Y-103415605D01*
X133827185Y-103662815D01*
X135351184Y-105186815D01*
X135351185Y-105186815D01*
X135598395Y-105351996D01*
X135890000Y-105410000D01*
X137108595Y-105410000D01*
X136964004Y-105626395D01*
X136906000Y-105918000D01*
X136906000Y-106924974D01*
X136812173Y-107018801D01*
X136715500Y-107252190D01*
X136715500Y-107504809D01*
X136715500Y-108647809D01*
X136812173Y-108881198D01*
X136906000Y-108975025D01*
X136906000Y-113175062D01*
X136890000Y-113213690D01*
X136890000Y-113466309D01*
X136890000Y-115066309D01*
X136986673Y-115299698D01*
X137063000Y-115376025D01*
X137063000Y-115981000D01*
X137121004Y-116272605D01*
X137286185Y-116519815D01*
X138145184Y-117378815D01*
X138145185Y-117378815D01*
X138392395Y-117543996D01*
X138684000Y-117602000D01*
X139511369Y-117602000D01*
X139563000Y-117653630D01*
X139563000Y-118130552D01*
X139501310Y-118105000D01*
X139248691Y-118105000D01*
X138648691Y-118105000D01*
X138450000Y-118187300D01*
X138251310Y-118105000D01*
X137998691Y-118105000D01*
X137398691Y-118105000D01*
X137165302Y-118201673D01*
X136986673Y-118380301D01*
X136890000Y-118613690D01*
X136890000Y-118866309D01*
X136890000Y-120466309D01*
X136986673Y-120699698D01*
X137165301Y-120878327D01*
X137398690Y-120975000D01*
X137651309Y-120975000D01*
X138251309Y-120975000D01*
X138449999Y-120892699D01*
X138648690Y-120975000D01*
X138901309Y-120975000D01*
X139501309Y-120975000D01*
X139563000Y-120949446D01*
X139563000Y-122164000D01*
X139621004Y-122455605D01*
X139786185Y-122702815D01*
X141795500Y-124712131D01*
X141795313Y-124927784D01*
X141959311Y-125324689D01*
X142262714Y-125628622D01*
X142659332Y-125793313D01*
X143088784Y-125793687D01*
X143485689Y-125629689D01*
X143789622Y-125326286D01*
X143954313Y-124929668D01*
X143954687Y-124500216D01*
X143790689Y-124103311D01*
X143487286Y-123799378D01*
X143090668Y-123634687D01*
X142873128Y-123634497D01*
X141087000Y-121848369D01*
X141087000Y-120949447D01*
X141148690Y-120975000D01*
X141233369Y-120975000D01*
X142684500Y-122426131D01*
X142684313Y-122641784D01*
X142848311Y-123038689D01*
X143151714Y-123342622D01*
X143548332Y-123507313D01*
X143977784Y-123507687D01*
X144374689Y-123343689D01*
X144678622Y-123040286D01*
X144843313Y-122643668D01*
X144843687Y-122214216D01*
X144679689Y-121817311D01*
X144376286Y-121513378D01*
X143979668Y-121348687D01*
X143762128Y-121348497D01*
X142510000Y-120096369D01*
X142510000Y-118613691D01*
X142413327Y-118380302D01*
X142234699Y-118201673D01*
X142001310Y-118105000D01*
X141748691Y-118105000D01*
X141148691Y-118105000D01*
X141087000Y-118130553D01*
X141087000Y-117338000D01*
X141063727Y-117221000D01*
X148401369Y-117221000D01*
X150845185Y-119664816D01*
X151092395Y-119829996D01*
X151092396Y-119829997D01*
X151384000Y-119888000D01*
X155259369Y-119888000D01*
X155914689Y-120543320D01*
X153777371Y-120543320D01*
X153543982Y-120639993D01*
X153365353Y-120818621D01*
X153268680Y-121052010D01*
X153268680Y-121304629D01*
X153268680Y-123803989D01*
X153365353Y-124037378D01*
X153543981Y-124216007D01*
X153777370Y-124312680D01*
X154029989Y-124312680D01*
X154416760Y-124312680D01*
X154416760Y-125333760D01*
X154474764Y-125625365D01*
X154639945Y-125872575D01*
X156781500Y-128014130D01*
X156781388Y-128143000D01*
X152039320Y-128143000D01*
X152039320Y-123803990D01*
X152039320Y-123551371D01*
X152039320Y-121052011D01*
X151942647Y-120818622D01*
X151764019Y-120639993D01*
X151530630Y-120543320D01*
X151278011Y-120543320D01*
X148727851Y-120543320D01*
X148494462Y-120639993D01*
X148315833Y-120818621D01*
X148219160Y-121052010D01*
X148219160Y-121304629D01*
X148219160Y-121666000D01*
X147193000Y-121666000D01*
X146901395Y-121724004D01*
X146654184Y-121889185D01*
X145924868Y-122618500D01*
X145709216Y-122618313D01*
X145312311Y-122782311D01*
X145008378Y-123085714D01*
X144843687Y-123482332D01*
X144843313Y-123911784D01*
X145007311Y-124308689D01*
X145310714Y-124612622D01*
X145707332Y-124777313D01*
X146136784Y-124777687D01*
X146533689Y-124613689D01*
X146837622Y-124310286D01*
X147002313Y-123913668D01*
X147002502Y-123696127D01*
X147508630Y-123190000D01*
X148219160Y-123190000D01*
X148219160Y-123803989D01*
X148315833Y-124037378D01*
X148494461Y-124216007D01*
X148727850Y-124312680D01*
X148980469Y-124312680D01*
X151530629Y-124312680D01*
X151764018Y-124216007D01*
X151942647Y-124037379D01*
X152039320Y-123803990D01*
X152039320Y-128143000D01*
X150241000Y-128143000D01*
X149352000Y-128143000D01*
X141605000Y-128143000D01*
X141313395Y-128201004D01*
X141066185Y-128366185D01*
X139923185Y-129509185D01*
X139758004Y-129756395D01*
X139700000Y-130048000D01*
X139700000Y-131002369D01*
X139384369Y-131318000D01*
X139238311Y-131318000D01*
X139039415Y-131020330D01*
X138724634Y-130810000D01*
X139039415Y-130599670D01*
X139364271Y-130113489D01*
X139478345Y-129540000D01*
X139364271Y-128966511D01*
X139039415Y-128480330D01*
X138553234Y-128155474D01*
X137979745Y-128041400D01*
X137610255Y-128041400D01*
X137036766Y-128155474D01*
X136550585Y-128480330D01*
X136225729Y-128966511D01*
X136111655Y-129540000D01*
X136225729Y-130113489D01*
X136550585Y-130599670D01*
X136865365Y-130810000D01*
X136550585Y-131020330D01*
X136225729Y-131506511D01*
X136111655Y-132080000D01*
X136225729Y-132653489D01*
X136550585Y-133139670D01*
X136865365Y-133350000D01*
X136550585Y-133560330D01*
X136225729Y-134046511D01*
X136111655Y-134620000D01*
X136225729Y-135193489D01*
X136550585Y-135679670D01*
X136572780Y-135694500D01*
X136419302Y-135758073D01*
X136240673Y-135936701D01*
X136144000Y-136170090D01*
X136144000Y-136422709D01*
X136144000Y-138149909D01*
X136240673Y-138383298D01*
X136419301Y-138561927D01*
X136652690Y-138658600D01*
X136905309Y-138658600D01*
X138429305Y-138658600D01*
X138429306Y-138658600D01*
X138557000Y-138684000D01*
X147066000Y-138684000D01*
X147320000Y-138684000D01*
X151130000Y-138684000D01*
X151130000Y-138683999D01*
X151421604Y-138625996D01*
X151421605Y-138625996D01*
X151668815Y-138460815D01*
X152811815Y-137317815D01*
X152976996Y-137070605D01*
X153034999Y-136779000D01*
X153035000Y-136779000D01*
X153035000Y-134046630D01*
X154112630Y-132969000D01*
X178881369Y-132969000D01*
X180848000Y-134935630D01*
X180848000Y-135509000D01*
X180620091Y-135509000D01*
X180386702Y-135605673D01*
X180208073Y-135784301D01*
X180111400Y-136017690D01*
X180111400Y-136270309D01*
X180111400Y-138302309D01*
X180208073Y-138535698D01*
X180386701Y-138714327D01*
X180620090Y-138811000D01*
X180872709Y-138811000D01*
X182599909Y-138811000D01*
X182833298Y-138714327D01*
X183011927Y-138535699D01*
X183075500Y-138382220D01*
X183090330Y-138404415D01*
X183576511Y-138729271D01*
X184150000Y-138843345D01*
X184723489Y-138729271D01*
X185209670Y-138404415D01*
X185420000Y-138089634D01*
X185630330Y-138404415D01*
X186116511Y-138729271D01*
X186690000Y-138843345D01*
X187263489Y-138729271D01*
X187749670Y-138404415D01*
X187960000Y-138089634D01*
X188170330Y-138404415D01*
X188656511Y-138729271D01*
X189230000Y-138843345D01*
X189803489Y-138729271D01*
X190289670Y-138404415D01*
X190500000Y-138089634D01*
X190710330Y-138404415D01*
X191196511Y-138729271D01*
X191770000Y-138843345D01*
X192343489Y-138729271D01*
X192829670Y-138404415D01*
X193040000Y-138089634D01*
X193250330Y-138404415D01*
X193736511Y-138729271D01*
X194310000Y-138843345D01*
X194883489Y-138729271D01*
X195369670Y-138404415D01*
X195694526Y-137918234D01*
X195808600Y-137344745D01*
X195808600Y-139015000D01*
X178028600Y-139015000D01*
X178028600Y-137344745D01*
X178028600Y-136975255D01*
X177914526Y-136401766D01*
X177589670Y-135915585D01*
X177103489Y-135590729D01*
X176530000Y-135476655D01*
X175956511Y-135590729D01*
X175470330Y-135915585D01*
X175260000Y-136230365D01*
X175049670Y-135915585D01*
X174563489Y-135590729D01*
X173990000Y-135476655D01*
X173416511Y-135590729D01*
X172930330Y-135915585D01*
X172720000Y-136230365D01*
X172509670Y-135915585D01*
X172023489Y-135590729D01*
X171450000Y-135476655D01*
X170876511Y-135590729D01*
X170390330Y-135915585D01*
X170183539Y-136225069D01*
X169812036Y-135809268D01*
X169284791Y-135555291D01*
X169269026Y-135552642D01*
X169037000Y-135673783D01*
X169037000Y-137033000D01*
X169057000Y-137033000D01*
X169057000Y-137287000D01*
X169037000Y-137287000D01*
X169037000Y-138646217D01*
X169269026Y-138767358D01*
X169284791Y-138764709D01*
X169812036Y-138510732D01*
X170183539Y-138094930D01*
X170390330Y-138404415D01*
X170876511Y-138729271D01*
X171450000Y-138843345D01*
X172023489Y-138729271D01*
X172509670Y-138404415D01*
X172720000Y-138089634D01*
X172930330Y-138404415D01*
X173416511Y-138729271D01*
X173990000Y-138843345D01*
X174563489Y-138729271D01*
X175049670Y-138404415D01*
X175260000Y-138089634D01*
X175470330Y-138404415D01*
X175956511Y-138729271D01*
X176530000Y-138843345D01*
X177103489Y-138729271D01*
X177589670Y-138404415D01*
X177914526Y-137918234D01*
X178028600Y-137344745D01*
X178028600Y-139015000D01*
X168783000Y-139015000D01*
X168783000Y-138646217D01*
X168783000Y-137287000D01*
X168763000Y-137287000D01*
X168763000Y-137033000D01*
X168783000Y-137033000D01*
X168783000Y-135673783D01*
X168550974Y-135552642D01*
X168535209Y-135555291D01*
X168007964Y-135809268D01*
X167636460Y-136225069D01*
X167429670Y-135915585D01*
X166943489Y-135590729D01*
X166370000Y-135476655D01*
X165796511Y-135590729D01*
X165310330Y-135915585D01*
X165295499Y-135937780D01*
X165231927Y-135784302D01*
X165053299Y-135605673D01*
X164819910Y-135509000D01*
X164567291Y-135509000D01*
X162840091Y-135509000D01*
X162606702Y-135605673D01*
X162428073Y-135784301D01*
X162331400Y-136017690D01*
X162331400Y-136270309D01*
X162331400Y-138302309D01*
X162428073Y-138535698D01*
X162606701Y-138714327D01*
X162840090Y-138811000D01*
X163092709Y-138811000D01*
X164819909Y-138811000D01*
X165053298Y-138714327D01*
X165231927Y-138535699D01*
X165295500Y-138382220D01*
X165310330Y-138404415D01*
X165796511Y-138729271D01*
X166370000Y-138843345D01*
X166943489Y-138729271D01*
X167429670Y-138404415D01*
X167636460Y-138094930D01*
X168007964Y-138510732D01*
X168535209Y-138764709D01*
X168550974Y-138767358D01*
X168783000Y-138646217D01*
X168783000Y-139015000D01*
X159163345Y-139015000D01*
X159163345Y-137160000D01*
X159037670Y-136528190D01*
X158679778Y-135992567D01*
X158144155Y-135634675D01*
X157512345Y-135509000D01*
X157447655Y-135509000D01*
X156815845Y-135634675D01*
X156515480Y-135835371D01*
X156494327Y-135784302D01*
X156315699Y-135605673D01*
X156082310Y-135509000D01*
X155829691Y-135509000D01*
X153797691Y-135509000D01*
X153564302Y-135605673D01*
X153385673Y-135784301D01*
X153289000Y-136017690D01*
X153289000Y-136270309D01*
X153289000Y-138302309D01*
X153385673Y-138535698D01*
X153564301Y-138714327D01*
X153797690Y-138811000D01*
X154050309Y-138811000D01*
X156082309Y-138811000D01*
X156315698Y-138714327D01*
X156494327Y-138535699D01*
X156515481Y-138484628D01*
X156815845Y-138685325D01*
X157447655Y-138811000D01*
X157512345Y-138811000D01*
X158144155Y-138685325D01*
X158679778Y-138327433D01*
X159037670Y-137791810D01*
X159163345Y-137160000D01*
X159163345Y-139015000D01*
X131495000Y-139015000D01*
X131495000Y-87045000D01*
X195045047Y-87045000D01*
X195798696Y-87547432D01*
X196165000Y-87913736D01*
X196165000Y-99060000D01*
X196215000Y-99311364D01*
X196215000Y-136908635D01*
M02*
