%FSLAX46Y46*%
G04 Gerber Fmt 4.6, Leading zero omitted, Abs format (unit mm)*
G04 Created by KiCad (PCBNEW (2014-08-05 BZR 5054)-product) date Wed 03 Sep 2014 08:44:24 PM PDT*
%MOMM*%
G01*
G04 APERTURE LIST*
%ADD10C,0.152400*%
%ADD11C,0.300000*%
%ADD12C,0.127000*%
%ADD13C,0.254000*%
%ADD14C,0.150000*%
%ADD15C,0.078740*%
%ADD16C,0.203200*%
%ADD17C,0.381000*%
%ADD18C,0.040640*%
%ADD19C,0.100000*%
%ADD20C,0.119380*%
%ADD21C,0.304800*%
G04 APERTURE END LIST*
D10*
D11*
X132901571Y-138137999D02*
X132901571Y-137566570D01*
X132401571Y-137923713D02*
X133687286Y-137923713D01*
X133830143Y-137852285D01*
X133901571Y-137709427D01*
X133901571Y-137566570D01*
X133901571Y-136423713D02*
X133115857Y-136423713D01*
X132973000Y-136495142D01*
X132901571Y-136637999D01*
X132901571Y-136923713D01*
X132973000Y-137066570D01*
X133830143Y-136423713D02*
X133901571Y-136566570D01*
X133901571Y-136923713D01*
X133830143Y-137066570D01*
X133687286Y-137137999D01*
X133544429Y-137137999D01*
X133401571Y-137066570D01*
X133330143Y-136923713D01*
X133330143Y-136566570D01*
X133258714Y-136423713D01*
X132901571Y-135709427D02*
X134401571Y-135709427D01*
X132973000Y-135709427D02*
X132901571Y-135566570D01*
X132901571Y-135280856D01*
X132973000Y-135137999D01*
X133044429Y-135066570D01*
X133187286Y-134995141D01*
X133615857Y-134995141D01*
X133758714Y-135066570D01*
X133830143Y-135137999D01*
X133901571Y-135280856D01*
X133901571Y-135566570D01*
X133830143Y-135709427D01*
X133901571Y-134352284D02*
X132401571Y-134352284D01*
X133473000Y-133852284D01*
X132401571Y-133352284D01*
X133901571Y-133352284D01*
X133901571Y-131995141D02*
X133115857Y-131995141D01*
X132973000Y-132066570D01*
X132901571Y-132209427D01*
X132901571Y-132495141D01*
X132973000Y-132637998D01*
X133830143Y-131995141D02*
X133901571Y-132137998D01*
X133901571Y-132495141D01*
X133830143Y-132637998D01*
X133687286Y-132709427D01*
X133544429Y-132709427D01*
X133401571Y-132637998D01*
X133330143Y-132495141D01*
X133330143Y-132137998D01*
X133258714Y-131995141D01*
X132901571Y-131495141D02*
X132901571Y-130923712D01*
X132401571Y-131280855D02*
X133687286Y-131280855D01*
X133830143Y-131209427D01*
X133901571Y-131066569D01*
X133901571Y-130923712D01*
X133901571Y-130423712D02*
X132901571Y-130423712D01*
X133187286Y-130423712D02*
X133044429Y-130352284D01*
X132973000Y-130280855D01*
X132901571Y-130137998D01*
X132901571Y-129995141D01*
X133901571Y-129495141D02*
X132901571Y-129495141D01*
X132401571Y-129495141D02*
X132473000Y-129566570D01*
X132544429Y-129495141D01*
X132473000Y-129423713D01*
X132401571Y-129495141D01*
X132544429Y-129495141D01*
X133901571Y-128923712D02*
X132901571Y-128137998D01*
X132901571Y-128923712D02*
X133901571Y-128137998D01*
X133830143Y-126495141D02*
X133901571Y-126280855D01*
X133901571Y-125923712D01*
X133830143Y-125780855D01*
X133758714Y-125709426D01*
X133615857Y-125637998D01*
X133473000Y-125637998D01*
X133330143Y-125709426D01*
X133258714Y-125780855D01*
X133187286Y-125923712D01*
X133115857Y-126209426D01*
X133044429Y-126352284D01*
X132973000Y-126423712D01*
X132830143Y-126495141D01*
X132687286Y-126495141D01*
X132544429Y-126423712D01*
X132473000Y-126352284D01*
X132401571Y-126209426D01*
X132401571Y-125852284D01*
X132473000Y-125637998D01*
X133901571Y-124995141D02*
X132401571Y-124995141D01*
X133901571Y-124352284D02*
X133115857Y-124352284D01*
X132973000Y-124423713D01*
X132901571Y-124566570D01*
X132901571Y-124780855D01*
X132973000Y-124923713D01*
X133044429Y-124995141D01*
X133901571Y-123637998D02*
X132901571Y-123637998D01*
X132401571Y-123637998D02*
X132473000Y-123709427D01*
X132544429Y-123637998D01*
X132473000Y-123566570D01*
X132401571Y-123637998D01*
X132544429Y-123637998D01*
X133830143Y-122352284D02*
X133901571Y-122495141D01*
X133901571Y-122780855D01*
X133830143Y-122923712D01*
X133687286Y-122995141D01*
X133115857Y-122995141D01*
X132973000Y-122923712D01*
X132901571Y-122780855D01*
X132901571Y-122495141D01*
X132973000Y-122352284D01*
X133115857Y-122280855D01*
X133258714Y-122280855D01*
X133401571Y-122995141D01*
X133901571Y-121423712D02*
X133830143Y-121566570D01*
X133687286Y-121637998D01*
X132401571Y-121637998D01*
X133901571Y-120209427D02*
X132401571Y-120209427D01*
X133830143Y-120209427D02*
X133901571Y-120352284D01*
X133901571Y-120637998D01*
X133830143Y-120780856D01*
X133758714Y-120852284D01*
X133615857Y-120923713D01*
X133187286Y-120923713D01*
X133044429Y-120852284D01*
X132973000Y-120780856D01*
X132901571Y-120637998D01*
X132901571Y-120352284D01*
X132973000Y-120209427D01*
X132401571Y-118066570D02*
X132401571Y-117923713D01*
X132473000Y-117780856D01*
X132544429Y-117709427D01*
X132687286Y-117637998D01*
X132973000Y-117566570D01*
X133330143Y-117566570D01*
X133615857Y-117637998D01*
X133758714Y-117709427D01*
X133830143Y-117780856D01*
X133901571Y-117923713D01*
X133901571Y-118066570D01*
X133830143Y-118209427D01*
X133758714Y-118280856D01*
X133615857Y-118352284D01*
X133330143Y-118423713D01*
X132973000Y-118423713D01*
X132687286Y-118352284D01*
X132544429Y-118280856D01*
X132473000Y-118209427D01*
X132401571Y-118066570D01*
X133758714Y-116923713D02*
X133830143Y-116852285D01*
X133901571Y-116923713D01*
X133830143Y-116995142D01*
X133758714Y-116923713D01*
X133901571Y-116923713D01*
X132544429Y-116280856D02*
X132473000Y-116209427D01*
X132401571Y-116066570D01*
X132401571Y-115709427D01*
X132473000Y-115566570D01*
X132544429Y-115495141D01*
X132687286Y-115423713D01*
X132830143Y-115423713D01*
X133044429Y-115495141D01*
X133901571Y-116352284D01*
X133901571Y-115423713D01*
X133830143Y-113709428D02*
X133901571Y-113495142D01*
X133901571Y-113137999D01*
X133830143Y-112995142D01*
X133758714Y-112923713D01*
X133615857Y-112852285D01*
X133473000Y-112852285D01*
X133330143Y-112923713D01*
X133258714Y-112995142D01*
X133187286Y-113137999D01*
X133115857Y-113423713D01*
X133044429Y-113566571D01*
X132973000Y-113637999D01*
X132830143Y-113709428D01*
X132687286Y-113709428D01*
X132544429Y-113637999D01*
X132473000Y-113566571D01*
X132401571Y-113423713D01*
X132401571Y-113066571D01*
X132473000Y-112852285D01*
X133830143Y-111638000D02*
X133901571Y-111780857D01*
X133901571Y-112066571D01*
X133830143Y-112209428D01*
X133687286Y-112280857D01*
X133115857Y-112280857D01*
X132973000Y-112209428D01*
X132901571Y-112066571D01*
X132901571Y-111780857D01*
X132973000Y-111638000D01*
X133115857Y-111566571D01*
X133258714Y-111566571D01*
X133401571Y-112280857D01*
X132901571Y-110923714D02*
X134401571Y-110923714D01*
X132973000Y-110923714D02*
X132901571Y-110780857D01*
X132901571Y-110495143D01*
X132973000Y-110352286D01*
X133044429Y-110280857D01*
X133187286Y-110209428D01*
X133615857Y-110209428D01*
X133758714Y-110280857D01*
X133830143Y-110352286D01*
X133901571Y-110495143D01*
X133901571Y-110780857D01*
X133830143Y-110923714D01*
X132901571Y-109780857D02*
X132901571Y-109209428D01*
X132401571Y-109566571D02*
X133687286Y-109566571D01*
X133830143Y-109495143D01*
X133901571Y-109352285D01*
X133901571Y-109209428D01*
X133330143Y-108709428D02*
X133330143Y-107566571D01*
X132544429Y-106923714D02*
X132473000Y-106852285D01*
X132401571Y-106709428D01*
X132401571Y-106352285D01*
X132473000Y-106209428D01*
X132544429Y-106137999D01*
X132687286Y-106066571D01*
X132830143Y-106066571D01*
X133044429Y-106137999D01*
X133901571Y-106995142D01*
X133901571Y-106066571D01*
X132401571Y-105138000D02*
X132401571Y-104995143D01*
X132473000Y-104852286D01*
X132544429Y-104780857D01*
X132687286Y-104709428D01*
X132973000Y-104638000D01*
X133330143Y-104638000D01*
X133615857Y-104709428D01*
X133758714Y-104780857D01*
X133830143Y-104852286D01*
X133901571Y-104995143D01*
X133901571Y-105138000D01*
X133830143Y-105280857D01*
X133758714Y-105352286D01*
X133615857Y-105423714D01*
X133330143Y-105495143D01*
X132973000Y-105495143D01*
X132687286Y-105423714D01*
X132544429Y-105352286D01*
X132473000Y-105280857D01*
X132401571Y-105138000D01*
X133901571Y-103209429D02*
X133901571Y-104066572D01*
X133901571Y-103638000D02*
X132401571Y-103638000D01*
X132615857Y-103780857D01*
X132758714Y-103923715D01*
X132830143Y-104066572D01*
X132901571Y-101923715D02*
X133901571Y-101923715D01*
X132330143Y-102280858D02*
X133401571Y-102638001D01*
X133401571Y-101709429D01*
D12*
X165658800Y-123977400D02*
X165658800Y-123164600D01*
X164541200Y-123190000D02*
X164541200Y-123977400D01*
X164287200Y-123164600D02*
X165912800Y-123164600D01*
X165912800Y-123164600D02*
X165912800Y-123977400D01*
X165912800Y-123977400D02*
X164287200Y-123977400D01*
X164287200Y-123977400D02*
X164287200Y-123164600D01*
X165658800Y-121818400D02*
X165658800Y-121005600D01*
X164541200Y-121031000D02*
X164541200Y-121818400D01*
X164287200Y-121005600D02*
X165912800Y-121005600D01*
X165912800Y-121005600D02*
X165912800Y-121818400D01*
X165912800Y-121818400D02*
X164287200Y-121818400D01*
X164287200Y-121818400D02*
X164287200Y-121005600D01*
X165658800Y-119659400D02*
X165658800Y-118846600D01*
X164541200Y-118872000D02*
X164541200Y-119659400D01*
X164287200Y-118846600D02*
X165912800Y-118846600D01*
X165912800Y-118846600D02*
X165912800Y-119659400D01*
X165912800Y-119659400D02*
X164287200Y-119659400D01*
X164287200Y-119659400D02*
X164287200Y-118846600D01*
X166928800Y-116611400D02*
X166928800Y-115798600D01*
X165811200Y-115824000D02*
X165811200Y-116611400D01*
X165557200Y-115798600D02*
X167182800Y-115798600D01*
X167182800Y-115798600D02*
X167182800Y-116611400D01*
X167182800Y-116611400D02*
X165557200Y-116611400D01*
X165557200Y-116611400D02*
X165557200Y-115798600D01*
X169621200Y-96748600D02*
X169621200Y-97561400D01*
X170738800Y-97536000D02*
X170738800Y-96748600D01*
X170992800Y-97561400D02*
X169367200Y-97561400D01*
X169367200Y-97561400D02*
X169367200Y-96748600D01*
X169367200Y-96748600D02*
X170992800Y-96748600D01*
X170992800Y-96748600D02*
X170992800Y-97561400D01*
X165658800Y-100990400D02*
X165658800Y-100177600D01*
X164541200Y-100203000D02*
X164541200Y-100990400D01*
X164287200Y-100177600D02*
X165912800Y-100177600D01*
X165912800Y-100177600D02*
X165912800Y-100990400D01*
X165912800Y-100990400D02*
X164287200Y-100990400D01*
X164287200Y-100990400D02*
X164287200Y-100177600D01*
X137033000Y-118618000D02*
X137033000Y-118745000D01*
X137033000Y-118745000D02*
X142367000Y-118745000D01*
X142367000Y-114935000D02*
X137033000Y-114935000D01*
X137033000Y-114935000D02*
X137033000Y-118618000D01*
X137033000Y-116332000D02*
X137541000Y-116332000D01*
X137541000Y-116332000D02*
X137541000Y-117348000D01*
X137541000Y-117348000D02*
X137033000Y-117348000D01*
X142367000Y-114935000D02*
X142367000Y-118745000D01*
D13*
X165100000Y-135890000D02*
X177800000Y-135890000D01*
X177800000Y-135890000D02*
X177800000Y-138430000D01*
X177800000Y-138430000D02*
X165100000Y-138430000D01*
X162560000Y-135890000D02*
X165100000Y-135890000D01*
X165100000Y-135890000D02*
X165100000Y-138430000D01*
X162560000Y-135890000D02*
X162560000Y-138430000D01*
X162560000Y-138430000D02*
X165100000Y-138430000D01*
X182880000Y-135890000D02*
X195580000Y-135890000D01*
X195580000Y-135890000D02*
X195580000Y-138430000D01*
X195580000Y-138430000D02*
X182880000Y-138430000D01*
X180340000Y-135890000D02*
X182880000Y-135890000D01*
X182880000Y-135890000D02*
X182880000Y-138430000D01*
X180340000Y-135890000D02*
X180340000Y-138430000D01*
X180340000Y-138430000D02*
X182880000Y-138430000D01*
X156210000Y-87630000D02*
X173990000Y-87630000D01*
X173990000Y-87630000D02*
X173990000Y-90170000D01*
X173990000Y-90170000D02*
X156210000Y-90170000D01*
X153670000Y-87630000D02*
X156210000Y-87630000D01*
X156210000Y-87630000D02*
X156210000Y-90170000D01*
X153670000Y-87630000D02*
X153670000Y-90170000D01*
X153670000Y-90170000D02*
X156210000Y-90170000D01*
X177800000Y-87630000D02*
X195580000Y-87630000D01*
X195580000Y-87630000D02*
X195580000Y-90170000D01*
X195580000Y-90170000D02*
X177800000Y-90170000D01*
X175260000Y-87630000D02*
X177800000Y-87630000D01*
X177800000Y-87630000D02*
X177800000Y-90170000D01*
X175260000Y-87630000D02*
X175260000Y-90170000D01*
X175260000Y-90170000D02*
X177800000Y-90170000D01*
X156210000Y-135890000D02*
X156210000Y-138430000D01*
X153670000Y-135890000D02*
X153670000Y-138430000D01*
X153670000Y-138430000D02*
X156210000Y-138430000D01*
X156210000Y-138430000D02*
X158750000Y-138430000D01*
X158750000Y-138430000D02*
X158750000Y-135890000D01*
X158750000Y-135890000D02*
X153670000Y-135890000D01*
D14*
X137330000Y-107250000D02*
X139530000Y-107250000D01*
X137330000Y-108650000D02*
X139530000Y-108650000D01*
X142940000Y-106850000D02*
X142940000Y-109050000D01*
X141540000Y-106850000D02*
X141540000Y-109050000D01*
X167810000Y-112330000D02*
X170010000Y-112330000D01*
X167810000Y-113730000D02*
X170010000Y-113730000D01*
X169080000Y-99884000D02*
X171280000Y-99884000D01*
X169080000Y-101284000D02*
X171280000Y-101284000D01*
X164000000Y-95820000D02*
X166200000Y-95820000D01*
X164000000Y-97220000D02*
X166200000Y-97220000D01*
D15*
X168975090Y-106329480D02*
G75*
G03X168975090Y-106329480I-159070J0D01*
G74*
G01*
X166370000Y-107188000D02*
X166370000Y-106172000D01*
X168973500Y-107188000D02*
X168973500Y-106172000D01*
X166370000Y-106172000D02*
X168973500Y-106172000D01*
X168973500Y-107188000D02*
X166370000Y-107188000D01*
D12*
X179324000Y-100330000D02*
X179324000Y-95250000D01*
X179324000Y-95250000D02*
X183896000Y-95250000D01*
X183896000Y-95250000D02*
X183896000Y-100330000D01*
X183896000Y-100330000D02*
X179324000Y-100330000D01*
X180848000Y-100330000D02*
X180848000Y-99822000D01*
X180848000Y-99822000D02*
X182118000Y-99822000D01*
X182118000Y-99822000D02*
X182118000Y-100330000D01*
D16*
X159258000Y-94234000D02*
X159258000Y-103886000D01*
X159258000Y-103886000D02*
X155448000Y-103886000D01*
X155448000Y-103886000D02*
X155448000Y-94234000D01*
X155448000Y-94234000D02*
X159258000Y-94234000D01*
X157988000Y-94234000D02*
X157988000Y-94996000D01*
X157988000Y-94996000D02*
X156972000Y-94996000D01*
X156972000Y-94996000D02*
X156972000Y-94234000D01*
X159766000Y-116840000D02*
X154940000Y-116840000D01*
X154940000Y-116840000D02*
X154940000Y-106680000D01*
X154940000Y-106680000D02*
X159766000Y-106680000D01*
X159766000Y-106680000D02*
X159766000Y-116840000D01*
X157988000Y-106680000D02*
X157988000Y-107315000D01*
X157988000Y-107315000D02*
X156718000Y-107315000D01*
X156718000Y-107315000D02*
X156718000Y-106680000D01*
D14*
X198120000Y-113030000D02*
X196850000Y-113030000D01*
X196850000Y-113030000D02*
X196850000Y-107950000D01*
X196850000Y-107950000D02*
X198120000Y-107950000D01*
X198120000Y-125730000D02*
X196850000Y-125730000D01*
X196850000Y-125730000D02*
X196850000Y-120650000D01*
X196850000Y-120650000D02*
X198120000Y-120650000D01*
X198120000Y-130810000D02*
X198120000Y-102870000D01*
X198120000Y-102870000D02*
X187960000Y-102870000D01*
X198120000Y-130810000D02*
X187960000Y-130810000D01*
X187960000Y-130810000D02*
X187960000Y-102870000D01*
X182880000Y-109220000D02*
X185420000Y-109220000D01*
X185420000Y-109220000D02*
X185420000Y-106680000D01*
X185420000Y-106680000D02*
X182880000Y-106680000D01*
X182880000Y-106680000D02*
X182880000Y-109220000D01*
X144320000Y-132850000D02*
X142820000Y-132850000D01*
X142820000Y-132850000D02*
X142820000Y-137350000D01*
X142820000Y-137350000D02*
X142320000Y-137350000D01*
X142320000Y-137350000D02*
X142320000Y-138350000D01*
X142320000Y-138350000D02*
X147320000Y-138350000D01*
X150320000Y-132850000D02*
X151820000Y-132850000D01*
X151820000Y-132850000D02*
X151820000Y-137350000D01*
X147320000Y-138350000D02*
X152320000Y-138350000D01*
X152320000Y-138350000D02*
X152320000Y-137350000D01*
X152320000Y-137350000D02*
X151820000Y-137350000D01*
X147620000Y-88630000D02*
X132620000Y-88630000D01*
X132620000Y-88630000D02*
X132620000Y-99630000D01*
X132620000Y-99630000D02*
X139120000Y-99630000D01*
X139120000Y-99630000D02*
X141620000Y-97630000D01*
X141620000Y-97630000D02*
X147620000Y-97630000D01*
X147620000Y-97630000D02*
X147620000Y-88630000D01*
D17*
X173814740Y-116441220D02*
X177213260Y-116441220D01*
X177213260Y-109141260D02*
X177213260Y-115140740D01*
X173814740Y-109141260D02*
X173814740Y-115140740D01*
X172460920Y-117142260D02*
X173560740Y-117142260D01*
X172961300Y-117741700D02*
X172961300Y-116542820D01*
X177782220Y-124381260D02*
X177782220Y-120982740D01*
X170482260Y-120982740D02*
X176481740Y-120982740D01*
X170482260Y-124381260D02*
X176481740Y-124381260D01*
X178483260Y-125735080D02*
X178483260Y-124635260D01*
X179082700Y-125234700D02*
X177883820Y-125234700D01*
X148353780Y-120728740D02*
X148353780Y-124127260D01*
X155653740Y-124127260D02*
X149654260Y-124127260D01*
X155653740Y-120728740D02*
X149654260Y-120728740D01*
X147652740Y-119374920D02*
X147652740Y-120474740D01*
X147053300Y-119875300D02*
X148252180Y-119875300D01*
D13*
X139065000Y-135890000D02*
X139065000Y-128270000D01*
X136525000Y-135890000D02*
X136525000Y-128270000D01*
X136525000Y-138430000D02*
X136525000Y-135890000D01*
X139065000Y-128270000D02*
X136525000Y-128270000D01*
X136525000Y-135890000D02*
X139065000Y-135890000D01*
X136525000Y-138430000D02*
X139065000Y-138430000D01*
X139065000Y-138430000D02*
X139065000Y-135890000D01*
D18*
X165066557Y-123007664D02*
X165057002Y-123017220D01*
X165028336Y-123026775D01*
X165009226Y-123026775D01*
X164980560Y-123017220D01*
X164961449Y-122998109D01*
X164951894Y-122978999D01*
X164942339Y-122940778D01*
X164942339Y-122912112D01*
X164951894Y-122873891D01*
X164961449Y-122854780D01*
X164980560Y-122835670D01*
X165009226Y-122826115D01*
X165028336Y-122826115D01*
X165057002Y-122835670D01*
X165066557Y-122845225D01*
X165257662Y-123026775D02*
X165142999Y-123026775D01*
X165200330Y-123026775D02*
X165200330Y-122826115D01*
X165181220Y-122854780D01*
X165162109Y-122873891D01*
X165142999Y-122883446D01*
X165066557Y-120848664D02*
X165057002Y-120858220D01*
X165028336Y-120867775D01*
X165009226Y-120867775D01*
X164980560Y-120858220D01*
X164961449Y-120839109D01*
X164951894Y-120819999D01*
X164942339Y-120781778D01*
X164942339Y-120753112D01*
X164951894Y-120714891D01*
X164961449Y-120695780D01*
X164980560Y-120676670D01*
X165009226Y-120667115D01*
X165028336Y-120667115D01*
X165057002Y-120676670D01*
X165066557Y-120686225D01*
X165142999Y-120686225D02*
X165152554Y-120676670D01*
X165171665Y-120667115D01*
X165219441Y-120667115D01*
X165238551Y-120676670D01*
X165248107Y-120686225D01*
X165257662Y-120705336D01*
X165257662Y-120724446D01*
X165248107Y-120753112D01*
X165133444Y-120867775D01*
X165257662Y-120867775D01*
X165066557Y-118689664D02*
X165057002Y-118699220D01*
X165028336Y-118708775D01*
X165009226Y-118708775D01*
X164980560Y-118699220D01*
X164961449Y-118680109D01*
X164951894Y-118660999D01*
X164942339Y-118622778D01*
X164942339Y-118594112D01*
X164951894Y-118555891D01*
X164961449Y-118536780D01*
X164980560Y-118517670D01*
X165009226Y-118508115D01*
X165028336Y-118508115D01*
X165057002Y-118517670D01*
X165066557Y-118527225D01*
X165133444Y-118508115D02*
X165257662Y-118508115D01*
X165190775Y-118584557D01*
X165219441Y-118584557D01*
X165238551Y-118594112D01*
X165248107Y-118603667D01*
X165257662Y-118622778D01*
X165257662Y-118670554D01*
X165248107Y-118689664D01*
X165238551Y-118699220D01*
X165219441Y-118708775D01*
X165162109Y-118708775D01*
X165142999Y-118699220D01*
X165133444Y-118689664D01*
X166336557Y-115641664D02*
X166327002Y-115651220D01*
X166298336Y-115660775D01*
X166279226Y-115660775D01*
X166250560Y-115651220D01*
X166231449Y-115632109D01*
X166221894Y-115612999D01*
X166212339Y-115574778D01*
X166212339Y-115546112D01*
X166221894Y-115507891D01*
X166231449Y-115488780D01*
X166250560Y-115469670D01*
X166279226Y-115460115D01*
X166298336Y-115460115D01*
X166327002Y-115469670D01*
X166336557Y-115479225D01*
X166518107Y-115460115D02*
X166422554Y-115460115D01*
X166412999Y-115555667D01*
X166422554Y-115546112D01*
X166441665Y-115536557D01*
X166489441Y-115536557D01*
X166508551Y-115546112D01*
X166518107Y-115555667D01*
X166527662Y-115574778D01*
X166527662Y-115622554D01*
X166518107Y-115641664D01*
X166508551Y-115651220D01*
X166489441Y-115660775D01*
X166441665Y-115660775D01*
X166422554Y-115651220D01*
X166412999Y-115641664D01*
X170146557Y-97861664D02*
X170137002Y-97871220D01*
X170108336Y-97880775D01*
X170089226Y-97880775D01*
X170060560Y-97871220D01*
X170041449Y-97852109D01*
X170031894Y-97832999D01*
X170022339Y-97794778D01*
X170022339Y-97766112D01*
X170031894Y-97727891D01*
X170041449Y-97708780D01*
X170060560Y-97689670D01*
X170089226Y-97680115D01*
X170108336Y-97680115D01*
X170137002Y-97689670D01*
X170146557Y-97699225D01*
X170213444Y-97680115D02*
X170347217Y-97680115D01*
X170261220Y-97880775D01*
X165066557Y-100020664D02*
X165057002Y-100030220D01*
X165028336Y-100039775D01*
X165009226Y-100039775D01*
X164980560Y-100030220D01*
X164961449Y-100011109D01*
X164951894Y-99991999D01*
X164942339Y-99953778D01*
X164942339Y-99925112D01*
X164951894Y-99886891D01*
X164961449Y-99867780D01*
X164980560Y-99848670D01*
X165009226Y-99839115D01*
X165028336Y-99839115D01*
X165057002Y-99848670D01*
X165066557Y-99858225D01*
X165181220Y-99925112D02*
X165162109Y-99915557D01*
X165152554Y-99906001D01*
X165142999Y-99886891D01*
X165142999Y-99877336D01*
X165152554Y-99858225D01*
X165162109Y-99848670D01*
X165181220Y-99839115D01*
X165219441Y-99839115D01*
X165238551Y-99848670D01*
X165248107Y-99858225D01*
X165257662Y-99877336D01*
X165257662Y-99886891D01*
X165248107Y-99906001D01*
X165238551Y-99915557D01*
X165219441Y-99925112D01*
X165181220Y-99925112D01*
X165162109Y-99934667D01*
X165152554Y-99944222D01*
X165142999Y-99963333D01*
X165142999Y-100001554D01*
X165152554Y-100020664D01*
X165162109Y-100030220D01*
X165181220Y-100039775D01*
X165219441Y-100039775D01*
X165238551Y-100030220D01*
X165248107Y-100020664D01*
X165257662Y-100001554D01*
X165257662Y-99963333D01*
X165248107Y-99944222D01*
X165238551Y-99934667D01*
X165219441Y-99925112D01*
D14*
X134024810Y-117419381D02*
X134024810Y-116419381D01*
X135072429Y-117324143D02*
X135024810Y-117371762D01*
X134881953Y-117419381D01*
X134786715Y-117419381D01*
X134643857Y-117371762D01*
X134548619Y-117276524D01*
X134501000Y-117181286D01*
X134453381Y-116990810D01*
X134453381Y-116847952D01*
X134501000Y-116657476D01*
X134548619Y-116562238D01*
X134643857Y-116467000D01*
X134786715Y-116419381D01*
X134881953Y-116419381D01*
X135024810Y-116467000D01*
X135072429Y-116514619D01*
X136024810Y-117419381D02*
X135453381Y-117419381D01*
X135739095Y-117419381D02*
X135739095Y-116419381D01*
X135643857Y-116562238D01*
X135548619Y-116657476D01*
X135453381Y-116705095D01*
D16*
X169121667Y-134178524D02*
X169121667Y-135085667D01*
X169061191Y-135267095D01*
X168940239Y-135388048D01*
X168758810Y-135448524D01*
X168637858Y-135448524D01*
X169726429Y-135448524D02*
X169726429Y-134178524D01*
X170210238Y-134178524D01*
X170331191Y-134239000D01*
X170391667Y-134299476D01*
X170452143Y-134420429D01*
X170452143Y-134601857D01*
X170391667Y-134722810D01*
X170331191Y-134783286D01*
X170210238Y-134843762D01*
X169726429Y-134843762D01*
X171661667Y-135448524D02*
X170935953Y-135448524D01*
X171298810Y-135448524D02*
X171298810Y-134178524D01*
X171177858Y-134359952D01*
X171056905Y-134480905D01*
X170935953Y-134541381D01*
X186901667Y-134178524D02*
X186901667Y-135085667D01*
X186841191Y-135267095D01*
X186720239Y-135388048D01*
X186538810Y-135448524D01*
X186417858Y-135448524D01*
X187506429Y-135448524D02*
X187506429Y-134178524D01*
X187990238Y-134178524D01*
X188111191Y-134239000D01*
X188171667Y-134299476D01*
X188232143Y-134420429D01*
X188232143Y-134601857D01*
X188171667Y-134722810D01*
X188111191Y-134783286D01*
X187990238Y-134843762D01*
X187506429Y-134843762D01*
X188715953Y-134299476D02*
X188776429Y-134239000D01*
X188897381Y-134178524D01*
X189199762Y-134178524D01*
X189320715Y-134239000D01*
X189381191Y-134299476D01*
X189441667Y-134420429D01*
X189441667Y-134541381D01*
X189381191Y-134722810D01*
X188655477Y-135448524D01*
X189441667Y-135448524D01*
X162771667Y-90744524D02*
X162771667Y-91651667D01*
X162711191Y-91833095D01*
X162590239Y-91954048D01*
X162408810Y-92014524D01*
X162287858Y-92014524D01*
X163376429Y-92014524D02*
X163376429Y-90744524D01*
X163860238Y-90744524D01*
X163981191Y-90805000D01*
X164041667Y-90865476D01*
X164102143Y-90986429D01*
X164102143Y-91167857D01*
X164041667Y-91288810D01*
X163981191Y-91349286D01*
X163860238Y-91409762D01*
X163376429Y-91409762D01*
X164525477Y-90744524D02*
X165311667Y-90744524D01*
X164888334Y-91228333D01*
X165069762Y-91228333D01*
X165190715Y-91288810D01*
X165251191Y-91349286D01*
X165311667Y-91470238D01*
X165311667Y-91772619D01*
X165251191Y-91893571D01*
X165190715Y-91954048D01*
X165069762Y-92014524D01*
X164706905Y-92014524D01*
X164585953Y-91954048D01*
X164525477Y-91893571D01*
X184361667Y-90744524D02*
X184361667Y-91651667D01*
X184301191Y-91833095D01*
X184180239Y-91954048D01*
X183998810Y-92014524D01*
X183877858Y-92014524D01*
X184966429Y-92014524D02*
X184966429Y-90744524D01*
X185450238Y-90744524D01*
X185571191Y-90805000D01*
X185631667Y-90865476D01*
X185692143Y-90986429D01*
X185692143Y-91167857D01*
X185631667Y-91288810D01*
X185571191Y-91349286D01*
X185450238Y-91409762D01*
X184966429Y-91409762D01*
X186780715Y-91167857D02*
X186780715Y-92014524D01*
X186478334Y-90684048D02*
X186175953Y-91591190D01*
X186962143Y-91591190D01*
X155151667Y-134178524D02*
X155151667Y-135085667D01*
X155091191Y-135267095D01*
X154970239Y-135388048D01*
X154788810Y-135448524D01*
X154667858Y-135448524D01*
X155756429Y-135448524D02*
X155756429Y-134178524D01*
X156240238Y-134178524D01*
X156361191Y-134239000D01*
X156421667Y-134299476D01*
X156482143Y-134420429D01*
X156482143Y-134601857D01*
X156421667Y-134722810D01*
X156361191Y-134783286D01*
X156240238Y-134843762D01*
X155756429Y-134843762D01*
X157570715Y-134178524D02*
X157328810Y-134178524D01*
X157207858Y-134239000D01*
X157147381Y-134299476D01*
X157026429Y-134480905D01*
X156965953Y-134722810D01*
X156965953Y-135206619D01*
X157026429Y-135327571D01*
X157086905Y-135388048D01*
X157207858Y-135448524D01*
X157449762Y-135448524D01*
X157570715Y-135388048D01*
X157631191Y-135327571D01*
X157691667Y-135206619D01*
X157691667Y-134904238D01*
X157631191Y-134783286D01*
X157570715Y-134722810D01*
X157449762Y-134662333D01*
X157207858Y-134662333D01*
X157086905Y-134722810D01*
X157026429Y-134783286D01*
X156965953Y-134904238D01*
D19*
X138363334Y-106930952D02*
X138230000Y-106740476D01*
X138134762Y-106930952D02*
X138134762Y-106530952D01*
X138287143Y-106530952D01*
X138325238Y-106550000D01*
X138344286Y-106569048D01*
X138363334Y-106607143D01*
X138363334Y-106664286D01*
X138344286Y-106702381D01*
X138325238Y-106721429D01*
X138287143Y-106740476D01*
X138134762Y-106740476D01*
X138744286Y-106930952D02*
X138515714Y-106930952D01*
X138630000Y-106930952D02*
X138630000Y-106530952D01*
X138591905Y-106588095D01*
X138553810Y-106626190D01*
X138515714Y-106645238D01*
X143620952Y-108016666D02*
X143430476Y-108150000D01*
X143620952Y-108245238D02*
X143220952Y-108245238D01*
X143220952Y-108092857D01*
X143240000Y-108054762D01*
X143259048Y-108035714D01*
X143297143Y-108016666D01*
X143354286Y-108016666D01*
X143392381Y-108035714D01*
X143411429Y-108054762D01*
X143430476Y-108092857D01*
X143430476Y-108245238D01*
X143259048Y-107864286D02*
X143240000Y-107845238D01*
X143220952Y-107807143D01*
X143220952Y-107711905D01*
X143240000Y-107673809D01*
X143259048Y-107654762D01*
X143297143Y-107635714D01*
X143335238Y-107635714D01*
X143392381Y-107654762D01*
X143620952Y-107883333D01*
X143620952Y-107635714D01*
X168843334Y-112010952D02*
X168710000Y-111820476D01*
X168614762Y-112010952D02*
X168614762Y-111610952D01*
X168767143Y-111610952D01*
X168805238Y-111630000D01*
X168824286Y-111649048D01*
X168843334Y-111687143D01*
X168843334Y-111744286D01*
X168824286Y-111782381D01*
X168805238Y-111801429D01*
X168767143Y-111820476D01*
X168614762Y-111820476D01*
X168976667Y-111610952D02*
X169224286Y-111610952D01*
X169090953Y-111763333D01*
X169148095Y-111763333D01*
X169186191Y-111782381D01*
X169205238Y-111801429D01*
X169224286Y-111839524D01*
X169224286Y-111934762D01*
X169205238Y-111972857D01*
X169186191Y-111991905D01*
X169148095Y-112010952D01*
X169033810Y-112010952D01*
X168995714Y-111991905D01*
X168976667Y-111972857D01*
X170113334Y-99564952D02*
X169980000Y-99374476D01*
X169884762Y-99564952D02*
X169884762Y-99164952D01*
X170037143Y-99164952D01*
X170075238Y-99184000D01*
X170094286Y-99203048D01*
X170113334Y-99241143D01*
X170113334Y-99298286D01*
X170094286Y-99336381D01*
X170075238Y-99355429D01*
X170037143Y-99374476D01*
X169884762Y-99374476D01*
X170456191Y-99298286D02*
X170456191Y-99564952D01*
X170360953Y-99145905D02*
X170265714Y-99431619D01*
X170513334Y-99431619D01*
X165033334Y-95500952D02*
X164900000Y-95310476D01*
X164804762Y-95500952D02*
X164804762Y-95100952D01*
X164957143Y-95100952D01*
X164995238Y-95120000D01*
X165014286Y-95139048D01*
X165033334Y-95177143D01*
X165033334Y-95234286D01*
X165014286Y-95272381D01*
X164995238Y-95291429D01*
X164957143Y-95310476D01*
X164804762Y-95310476D01*
X165395238Y-95100952D02*
X165204762Y-95100952D01*
X165185714Y-95291429D01*
X165204762Y-95272381D01*
X165242857Y-95253333D01*
X165338095Y-95253333D01*
X165376191Y-95272381D01*
X165395238Y-95291429D01*
X165414286Y-95329524D01*
X165414286Y-95424762D01*
X165395238Y-95462857D01*
X165376191Y-95481905D01*
X165338095Y-95500952D01*
X165242857Y-95500952D01*
X165204762Y-95481905D01*
X165185714Y-95462857D01*
D20*
X165223734Y-107359631D02*
X165840591Y-107359631D01*
X165913163Y-107323346D01*
X165949449Y-107287060D01*
X165985734Y-107214489D01*
X165985734Y-107069346D01*
X165949449Y-106996774D01*
X165913163Y-106960489D01*
X165840591Y-106924203D01*
X165223734Y-106924203D01*
X165985734Y-106162203D02*
X165985734Y-106597631D01*
X165985734Y-106379917D02*
X165223734Y-106379917D01*
X165332591Y-106452488D01*
X165405163Y-106525060D01*
X165441449Y-106597631D01*
D12*
X180835905Y-101355071D02*
X180835905Y-102280357D01*
X180884286Y-102389214D01*
X180932667Y-102443643D01*
X181029429Y-102498071D01*
X181222952Y-102498071D01*
X181319714Y-102443643D01*
X181368095Y-102389214D01*
X181416476Y-102280357D01*
X181416476Y-101355071D01*
X181851905Y-101463929D02*
X181900286Y-101409500D01*
X181997048Y-101355071D01*
X182238952Y-101355071D01*
X182335714Y-101409500D01*
X182384095Y-101463929D01*
X182432476Y-101572786D01*
X182432476Y-101681643D01*
X182384095Y-101844929D01*
X181803524Y-102498071D01*
X182432476Y-102498071D01*
X156482143Y-92407619D02*
X156482143Y-93230095D01*
X156536571Y-93326857D01*
X156591000Y-93375238D01*
X156699857Y-93423619D01*
X156917571Y-93423619D01*
X157026429Y-93375238D01*
X157080857Y-93326857D01*
X157135286Y-93230095D01*
X157135286Y-92407619D01*
X157570715Y-92407619D02*
X158278286Y-92407619D01*
X157897286Y-92794667D01*
X158060572Y-92794667D01*
X158169429Y-92843048D01*
X158223858Y-92891429D01*
X158278286Y-92988190D01*
X158278286Y-93230095D01*
X158223858Y-93326857D01*
X158169429Y-93375238D01*
X158060572Y-93423619D01*
X157734000Y-93423619D01*
X157625143Y-93375238D01*
X157570715Y-93326857D01*
X156736143Y-117299619D02*
X156736143Y-118122095D01*
X156790571Y-118218857D01*
X156845000Y-118267238D01*
X156953857Y-118315619D01*
X157171571Y-118315619D01*
X157280429Y-118267238D01*
X157334857Y-118218857D01*
X157389286Y-118122095D01*
X157389286Y-117299619D01*
X158423429Y-117638286D02*
X158423429Y-118315619D01*
X158151286Y-117251238D02*
X157879143Y-117976952D01*
X158586715Y-117976952D01*
D14*
X182062381Y-117070095D02*
X181062381Y-117070095D01*
X181062381Y-116689142D01*
X181110000Y-116593904D01*
X181157619Y-116546285D01*
X181252857Y-116498666D01*
X181395714Y-116498666D01*
X181490952Y-116546285D01*
X181538571Y-116593904D01*
X181586190Y-116689142D01*
X181586190Y-117070095D01*
X181062381Y-115641523D02*
X181062381Y-115832000D01*
X181110000Y-115927238D01*
X181157619Y-115974857D01*
X181300476Y-116070095D01*
X181490952Y-116117714D01*
X181871905Y-116117714D01*
X181967143Y-116070095D01*
X182014762Y-116022476D01*
X182062381Y-115927238D01*
X182062381Y-115736761D01*
X182014762Y-115641523D01*
X181967143Y-115593904D01*
X181871905Y-115546285D01*
X181633810Y-115546285D01*
X181538571Y-115593904D01*
X181490952Y-115641523D01*
X181443333Y-115736761D01*
X181443333Y-115927238D01*
X181490952Y-116022476D01*
X181538571Y-116070095D01*
X181633810Y-116117714D01*
X187142381Y-128460476D02*
X187142381Y-129031905D01*
X187142381Y-128746191D02*
X186142381Y-128746191D01*
X186285238Y-128841429D01*
X186380476Y-128936667D01*
X186428095Y-129031905D01*
X186142381Y-127603333D02*
X186142381Y-127793810D01*
X186190000Y-127889048D01*
X186237619Y-127936667D01*
X186380476Y-128031905D01*
X186570952Y-128079524D01*
X186951905Y-128079524D01*
X187047143Y-128031905D01*
X187094762Y-127984286D01*
X187142381Y-127889048D01*
X187142381Y-127698571D01*
X187094762Y-127603333D01*
X187047143Y-127555714D01*
X186951905Y-127508095D01*
X186713810Y-127508095D01*
X186618571Y-127555714D01*
X186570952Y-127603333D01*
X186523333Y-127698571D01*
X186523333Y-127889048D01*
X186570952Y-127984286D01*
X186618571Y-128031905D01*
X186713810Y-128079524D01*
X184602381Y-128460476D02*
X184602381Y-129031905D01*
X184602381Y-128746191D02*
X183602381Y-128746191D01*
X183745238Y-128841429D01*
X183840476Y-128936667D01*
X183888095Y-129031905D01*
X183602381Y-127555714D02*
X183602381Y-128031905D01*
X184078571Y-128079524D01*
X184030952Y-128031905D01*
X183983333Y-127936667D01*
X183983333Y-127698571D01*
X184030952Y-127603333D01*
X184078571Y-127555714D01*
X184173810Y-127508095D01*
X184411905Y-127508095D01*
X184507143Y-127555714D01*
X184554762Y-127603333D01*
X184602381Y-127698571D01*
X184602381Y-127936667D01*
X184554762Y-128031905D01*
X184507143Y-128079524D01*
X186237619Y-105695714D02*
X186190000Y-105648095D01*
X186142381Y-105552857D01*
X186142381Y-105314761D01*
X186190000Y-105219523D01*
X186237619Y-105171904D01*
X186332857Y-105124285D01*
X186428095Y-105124285D01*
X186570952Y-105171904D01*
X187142381Y-105743333D01*
X187142381Y-105124285D01*
X184602381Y-105124285D02*
X184602381Y-105695714D01*
X184602381Y-105410000D02*
X183602381Y-105410000D01*
X183745238Y-105505238D01*
X183840476Y-105600476D01*
X183888095Y-105695714D01*
D21*
X172758826Y-112595660D02*
X172831397Y-112668231D01*
X172903969Y-112885945D01*
X172903969Y-113031088D01*
X172831397Y-113248803D01*
X172686254Y-113393945D01*
X172541111Y-113466517D01*
X172250826Y-113539088D01*
X172033111Y-113539088D01*
X171742826Y-113466517D01*
X171597683Y-113393945D01*
X171452540Y-113248803D01*
X171379969Y-113031088D01*
X171379969Y-112885945D01*
X171452540Y-112668231D01*
X171525111Y-112595660D01*
X171887969Y-111289374D02*
X172903969Y-111289374D01*
X171307397Y-111652231D02*
X172395969Y-112015088D01*
X172395969Y-111071660D01*
X173072697Y-117720291D02*
X173072697Y-116559148D01*
X173653269Y-117139719D02*
X172492126Y-117139719D01*
X173428660Y-126525746D02*
X173356089Y-126598317D01*
X173138375Y-126670889D01*
X172993232Y-126670889D01*
X172775517Y-126598317D01*
X172630375Y-126453174D01*
X172557803Y-126308031D01*
X172485232Y-126017746D01*
X172485232Y-125800031D01*
X172557803Y-125509746D01*
X172630375Y-125364603D01*
X172775517Y-125219460D01*
X172993232Y-125146889D01*
X173138375Y-125146889D01*
X173356089Y-125219460D01*
X173428660Y-125292031D01*
X174734946Y-125146889D02*
X174444660Y-125146889D01*
X174299517Y-125219460D01*
X174226946Y-125292031D01*
X174081803Y-125509746D01*
X174009232Y-125800031D01*
X174009232Y-126380603D01*
X174081803Y-126525746D01*
X174154375Y-126598317D01*
X174299517Y-126670889D01*
X174589803Y-126670889D01*
X174734946Y-126598317D01*
X174807517Y-126525746D01*
X174880089Y-126380603D01*
X174880089Y-126017746D01*
X174807517Y-125872603D01*
X174734946Y-125800031D01*
X174589803Y-125727460D01*
X174299517Y-125727460D01*
X174154375Y-125800031D01*
X174081803Y-125872603D01*
X174009232Y-126017746D01*
X177900149Y-125341017D02*
X179061292Y-125341017D01*
X178480721Y-125921589D02*
X178480721Y-124760446D01*
X152199340Y-119672826D02*
X152126769Y-119745397D01*
X151909055Y-119817969D01*
X151763912Y-119817969D01*
X151546197Y-119745397D01*
X151401055Y-119600254D01*
X151328483Y-119455111D01*
X151255912Y-119164826D01*
X151255912Y-118947111D01*
X151328483Y-118656826D01*
X151401055Y-118511683D01*
X151546197Y-118366540D01*
X151763912Y-118293969D01*
X151909055Y-118293969D01*
X152126769Y-118366540D01*
X152199340Y-118439111D01*
X152925055Y-119817969D02*
X153215340Y-119817969D01*
X153360483Y-119745397D01*
X153433055Y-119672826D01*
X153578197Y-119455111D01*
X153650769Y-119164826D01*
X153650769Y-118584254D01*
X153578197Y-118439111D01*
X153505626Y-118366540D01*
X153360483Y-118293969D01*
X153070197Y-118293969D01*
X152925055Y-118366540D01*
X152852483Y-118439111D01*
X152779912Y-118584254D01*
X152779912Y-118947111D01*
X152852483Y-119092254D01*
X152925055Y-119164826D01*
X153070197Y-119237397D01*
X153360483Y-119237397D01*
X153505626Y-119164826D01*
X153578197Y-119092254D01*
X153650769Y-118947111D01*
X147074709Y-119986697D02*
X148235852Y-119986697D01*
X147655281Y-120567269D02*
X147655281Y-119406126D01*
D16*
X134813524Y-134408333D02*
X135720667Y-134408333D01*
X135902095Y-134468809D01*
X136023048Y-134589761D01*
X136083524Y-134771190D01*
X136083524Y-134892142D01*
X136083524Y-133803571D02*
X134813524Y-133803571D01*
X134813524Y-133319762D01*
X134874000Y-133198809D01*
X134934476Y-133138333D01*
X135055429Y-133077857D01*
X135236857Y-133077857D01*
X135357810Y-133138333D01*
X135418286Y-133198809D01*
X135478762Y-133319762D01*
X135478762Y-133803571D01*
X134813524Y-131928809D02*
X134813524Y-132533571D01*
X135418286Y-132594047D01*
X135357810Y-132533571D01*
X135297333Y-132412619D01*
X135297333Y-132110238D01*
X135357810Y-131989285D01*
X135418286Y-131928809D01*
X135539238Y-131868333D01*
X135841619Y-131868333D01*
X135962571Y-131928809D01*
X136023048Y-131989285D01*
X136083524Y-132110238D01*
X136083524Y-132412619D01*
X136023048Y-132533571D01*
X135962571Y-132594047D01*
M02*
