%FSLAX46Y46*%
G04 Gerber Fmt 4.6, Leading zero omitted, Abs format (unit mm)*
G04 Created by KiCad (PCBNEW (2014-08-05 BZR 5054)-product) date Sat 01 Nov 2014 09:43:45 PM PDT*
%MOMM*%
G01*
G04 APERTURE LIST*
%ADD10C,0.152400*%
%ADD11C,0.300000*%
%ADD12C,0.127000*%
%ADD13C,0.150000*%
%ADD14C,0.381000*%
G04 APERTURE END LIST*
D10*
D11*
X132901571Y-137352285D02*
X132901571Y-136780856D01*
X132401571Y-137137999D02*
X133687286Y-137137999D01*
X133830143Y-137066571D01*
X133901571Y-136923713D01*
X133901571Y-136780856D01*
X133901571Y-135637999D02*
X133115857Y-135637999D01*
X132973000Y-135709428D01*
X132901571Y-135852285D01*
X132901571Y-136137999D01*
X132973000Y-136280856D01*
X133830143Y-135637999D02*
X133901571Y-135780856D01*
X133901571Y-136137999D01*
X133830143Y-136280856D01*
X133687286Y-136352285D01*
X133544429Y-136352285D01*
X133401571Y-136280856D01*
X133330143Y-136137999D01*
X133330143Y-135780856D01*
X133258714Y-135637999D01*
X132901571Y-134923713D02*
X134401571Y-134923713D01*
X132973000Y-134923713D02*
X132901571Y-134780856D01*
X132901571Y-134495142D01*
X132973000Y-134352285D01*
X133044429Y-134280856D01*
X133187286Y-134209427D01*
X133615857Y-134209427D01*
X133758714Y-134280856D01*
X133830143Y-134352285D01*
X133901571Y-134495142D01*
X133901571Y-134780856D01*
X133830143Y-134923713D01*
X133901571Y-133566570D02*
X132401571Y-133566570D01*
X133473000Y-133066570D01*
X132401571Y-132566570D01*
X133901571Y-132566570D01*
X133901571Y-131209427D02*
X133115857Y-131209427D01*
X132973000Y-131280856D01*
X132901571Y-131423713D01*
X132901571Y-131709427D01*
X132973000Y-131852284D01*
X133830143Y-131209427D02*
X133901571Y-131352284D01*
X133901571Y-131709427D01*
X133830143Y-131852284D01*
X133687286Y-131923713D01*
X133544429Y-131923713D01*
X133401571Y-131852284D01*
X133330143Y-131709427D01*
X133330143Y-131352284D01*
X133258714Y-131209427D01*
X132901571Y-130709427D02*
X132901571Y-130137998D01*
X132401571Y-130495141D02*
X133687286Y-130495141D01*
X133830143Y-130423713D01*
X133901571Y-130280855D01*
X133901571Y-130137998D01*
X133901571Y-129637998D02*
X132901571Y-129637998D01*
X133187286Y-129637998D02*
X133044429Y-129566570D01*
X132973000Y-129495141D01*
X132901571Y-129352284D01*
X132901571Y-129209427D01*
X133901571Y-128709427D02*
X132901571Y-128709427D01*
X132401571Y-128709427D02*
X132473000Y-128780856D01*
X132544429Y-128709427D01*
X132473000Y-128637999D01*
X132401571Y-128709427D01*
X132544429Y-128709427D01*
X133901571Y-128137998D02*
X132901571Y-127352284D01*
X132901571Y-128137998D02*
X133901571Y-127352284D01*
X133830143Y-125709427D02*
X133901571Y-125495141D01*
X133901571Y-125137998D01*
X133830143Y-124995141D01*
X133758714Y-124923712D01*
X133615857Y-124852284D01*
X133473000Y-124852284D01*
X133330143Y-124923712D01*
X133258714Y-124995141D01*
X133187286Y-125137998D01*
X133115857Y-125423712D01*
X133044429Y-125566570D01*
X132973000Y-125637998D01*
X132830143Y-125709427D01*
X132687286Y-125709427D01*
X132544429Y-125637998D01*
X132473000Y-125566570D01*
X132401571Y-125423712D01*
X132401571Y-125066570D01*
X132473000Y-124852284D01*
X133901571Y-124209427D02*
X132401571Y-124209427D01*
X133901571Y-123566570D02*
X133115857Y-123566570D01*
X132973000Y-123637999D01*
X132901571Y-123780856D01*
X132901571Y-123995141D01*
X132973000Y-124137999D01*
X133044429Y-124209427D01*
X133901571Y-122852284D02*
X132901571Y-122852284D01*
X132401571Y-122852284D02*
X132473000Y-122923713D01*
X132544429Y-122852284D01*
X132473000Y-122780856D01*
X132401571Y-122852284D01*
X132544429Y-122852284D01*
X133830143Y-121566570D02*
X133901571Y-121709427D01*
X133901571Y-121995141D01*
X133830143Y-122137998D01*
X133687286Y-122209427D01*
X133115857Y-122209427D01*
X132973000Y-122137998D01*
X132901571Y-121995141D01*
X132901571Y-121709427D01*
X132973000Y-121566570D01*
X133115857Y-121495141D01*
X133258714Y-121495141D01*
X133401571Y-122209427D01*
X133901571Y-120637998D02*
X133830143Y-120780856D01*
X133687286Y-120852284D01*
X132401571Y-120852284D01*
X133901571Y-119423713D02*
X132401571Y-119423713D01*
X133830143Y-119423713D02*
X133901571Y-119566570D01*
X133901571Y-119852284D01*
X133830143Y-119995142D01*
X133758714Y-120066570D01*
X133615857Y-120137999D01*
X133187286Y-120137999D01*
X133044429Y-120066570D01*
X132973000Y-119995142D01*
X132901571Y-119852284D01*
X132901571Y-119566570D01*
X132973000Y-119423713D01*
X132401571Y-117280856D02*
X132401571Y-117137999D01*
X132473000Y-116995142D01*
X132544429Y-116923713D01*
X132687286Y-116852284D01*
X132973000Y-116780856D01*
X133330143Y-116780856D01*
X133615857Y-116852284D01*
X133758714Y-116923713D01*
X133830143Y-116995142D01*
X133901571Y-117137999D01*
X133901571Y-117280856D01*
X133830143Y-117423713D01*
X133758714Y-117495142D01*
X133615857Y-117566570D01*
X133330143Y-117637999D01*
X132973000Y-117637999D01*
X132687286Y-117566570D01*
X132544429Y-117495142D01*
X132473000Y-117423713D01*
X132401571Y-117280856D01*
X133758714Y-116137999D02*
X133830143Y-116066571D01*
X133901571Y-116137999D01*
X133830143Y-116209428D01*
X133758714Y-116137999D01*
X133901571Y-116137999D01*
X132401571Y-115566570D02*
X132401571Y-114637999D01*
X132973000Y-115137999D01*
X132973000Y-114923713D01*
X133044429Y-114780856D01*
X133115857Y-114709427D01*
X133258714Y-114637999D01*
X133615857Y-114637999D01*
X133758714Y-114709427D01*
X133830143Y-114780856D01*
X133901571Y-114923713D01*
X133901571Y-115352285D01*
X133830143Y-115495142D01*
X133758714Y-115566570D01*
X133901571Y-112852285D02*
X132401571Y-112852285D01*
X133901571Y-111995142D01*
X132401571Y-111995142D01*
X133901571Y-111066570D02*
X133830143Y-111209428D01*
X133758714Y-111280856D01*
X133615857Y-111352285D01*
X133187286Y-111352285D01*
X133044429Y-111280856D01*
X132973000Y-111209428D01*
X132901571Y-111066570D01*
X132901571Y-110852285D01*
X132973000Y-110709428D01*
X133044429Y-110637999D01*
X133187286Y-110566570D01*
X133615857Y-110566570D01*
X133758714Y-110637999D01*
X133830143Y-110709428D01*
X133901571Y-110852285D01*
X133901571Y-111066570D01*
X132901571Y-110066570D02*
X133901571Y-109709427D01*
X132901571Y-109352285D01*
X132544429Y-107709428D02*
X132473000Y-107637999D01*
X132401571Y-107495142D01*
X132401571Y-107137999D01*
X132473000Y-106995142D01*
X132544429Y-106923713D01*
X132687286Y-106852285D01*
X132830143Y-106852285D01*
X133044429Y-106923713D01*
X133901571Y-107780856D01*
X133901571Y-106852285D01*
X132401571Y-105923714D02*
X132401571Y-105780857D01*
X132473000Y-105638000D01*
X132544429Y-105566571D01*
X132687286Y-105495142D01*
X132973000Y-105423714D01*
X133330143Y-105423714D01*
X133615857Y-105495142D01*
X133758714Y-105566571D01*
X133830143Y-105638000D01*
X133901571Y-105780857D01*
X133901571Y-105923714D01*
X133830143Y-106066571D01*
X133758714Y-106138000D01*
X133615857Y-106209428D01*
X133330143Y-106280857D01*
X132973000Y-106280857D01*
X132687286Y-106209428D01*
X132544429Y-106138000D01*
X132473000Y-106066571D01*
X132401571Y-105923714D01*
X133901571Y-103995143D02*
X133901571Y-104852286D01*
X133901571Y-104423714D02*
X132401571Y-104423714D01*
X132615857Y-104566571D01*
X132758714Y-104709429D01*
X132830143Y-104852286D01*
X132901571Y-102709429D02*
X133901571Y-102709429D01*
X132330143Y-103066572D02*
X133401571Y-103423715D01*
X133401571Y-102495143D01*
D12*
X177749200Y-122123200D02*
X177749200Y-121310400D01*
X176631600Y-121335800D02*
X176631600Y-122123200D01*
X176377600Y-121310400D02*
X178003200Y-121310400D01*
X178003200Y-121310400D02*
X178003200Y-122123200D01*
X178003200Y-122123200D02*
X176377600Y-122123200D01*
X176377600Y-122123200D02*
X176377600Y-121310400D01*
D13*
X199390000Y-112077500D02*
X198120000Y-112077500D01*
X198120000Y-112077500D02*
X198120000Y-106997500D01*
X198120000Y-106997500D02*
X199390000Y-106997500D01*
X199390000Y-124777500D02*
X198120000Y-124777500D01*
X198120000Y-124777500D02*
X198120000Y-119697500D01*
X198120000Y-119697500D02*
X199390000Y-119697500D01*
X199390000Y-129857500D02*
X199390000Y-101917500D01*
X199390000Y-101917500D02*
X189230000Y-101917500D01*
X199390000Y-129857500D02*
X189230000Y-129857500D01*
X189230000Y-129857500D02*
X189230000Y-101917500D01*
X184150000Y-108267500D02*
X186690000Y-108267500D01*
X186690000Y-108267500D02*
X186690000Y-105727500D01*
X186690000Y-105727500D02*
X184150000Y-105727500D01*
X184150000Y-105727500D02*
X184150000Y-108267500D01*
X142669000Y-132977000D02*
X141169000Y-132977000D01*
X141169000Y-132977000D02*
X141169000Y-137477000D01*
X141169000Y-137477000D02*
X140669000Y-137477000D01*
X140669000Y-137477000D02*
X140669000Y-138477000D01*
X140669000Y-138477000D02*
X145669000Y-138477000D01*
X148669000Y-132977000D02*
X150169000Y-132977000D01*
X150169000Y-132977000D02*
X150169000Y-137477000D01*
X145669000Y-138477000D02*
X150669000Y-138477000D01*
X150669000Y-138477000D02*
X150669000Y-137477000D01*
X150669000Y-137477000D02*
X150169000Y-137477000D01*
X146413500Y-87296500D02*
X131413500Y-87296500D01*
X131413500Y-87296500D02*
X131413500Y-98296500D01*
X131413500Y-98296500D02*
X137913500Y-98296500D01*
X137913500Y-98296500D02*
X140413500Y-96296500D01*
X140413500Y-96296500D02*
X146413500Y-96296500D01*
X146413500Y-96296500D02*
X146413500Y-87296500D01*
X177186000Y-130846000D02*
X177186000Y-130046000D01*
X177586000Y-130446000D02*
X176786000Y-130446000D01*
X176786000Y-130446000D02*
X177586000Y-130446000D01*
X179286000Y-123946000D02*
X177986000Y-123946000D01*
X177986000Y-123946000D02*
X177086000Y-124746000D01*
X177086000Y-124746000D02*
X177086000Y-128946000D01*
X179286000Y-129846000D02*
X177986000Y-129846000D01*
X177986000Y-129846000D02*
X177086000Y-128946000D01*
X180786000Y-129846000D02*
X179286000Y-129846000D01*
X179286000Y-129846000D02*
X179286000Y-123946000D01*
X179286000Y-123946000D02*
X180786000Y-123946000D01*
X182986000Y-123946000D02*
X182986000Y-129846000D01*
X182986000Y-129846000D02*
X180786000Y-129846000D01*
X180786000Y-129846000D02*
X180786000Y-123946000D01*
X180786000Y-123946000D02*
X182986000Y-123946000D01*
X168702400Y-130744400D02*
X168702400Y-129944400D01*
X169102400Y-130344400D02*
X168302400Y-130344400D01*
X168302400Y-130344400D02*
X169102400Y-130344400D01*
X170802400Y-123844400D02*
X169502400Y-123844400D01*
X169502400Y-123844400D02*
X168602400Y-124644400D01*
X168602400Y-124644400D02*
X168602400Y-128844400D01*
X170802400Y-129744400D02*
X169502400Y-129744400D01*
X169502400Y-129744400D02*
X168602400Y-128844400D01*
X172302400Y-129744400D02*
X170802400Y-129744400D01*
X170802400Y-129744400D02*
X170802400Y-123844400D01*
X170802400Y-123844400D02*
X172302400Y-123844400D01*
X174502400Y-123844400D02*
X174502400Y-129744400D01*
X174502400Y-129744400D02*
X172302400Y-129744400D01*
X172302400Y-129744400D02*
X172302400Y-123844400D01*
X172302400Y-123844400D02*
X174502400Y-123844400D01*
X150973200Y-130033200D02*
X150973200Y-129233200D01*
X151373200Y-129633200D02*
X150573200Y-129633200D01*
X150573200Y-129633200D02*
X151373200Y-129633200D01*
X153073200Y-123133200D02*
X151773200Y-123133200D01*
X151773200Y-123133200D02*
X150873200Y-123933200D01*
X150873200Y-123933200D02*
X150873200Y-128133200D01*
X153073200Y-129033200D02*
X151773200Y-129033200D01*
X151773200Y-129033200D02*
X150873200Y-128133200D01*
X154573200Y-129033200D02*
X153073200Y-129033200D01*
X153073200Y-129033200D02*
X153073200Y-123133200D01*
X153073200Y-123133200D02*
X154573200Y-123133200D01*
X156773200Y-123133200D02*
X156773200Y-129033200D01*
X156773200Y-129033200D02*
X154573200Y-129033200D01*
X154573200Y-129033200D02*
X154573200Y-123133200D01*
X154573200Y-123133200D02*
X156773200Y-123133200D01*
D12*
X135813800Y-116941600D02*
X135813800Y-117068600D01*
X135813800Y-117068600D02*
X141147800Y-117068600D01*
X141147800Y-113258600D02*
X135813800Y-113258600D01*
X135813800Y-113258600D02*
X135813800Y-116941600D01*
X135813800Y-114655600D02*
X136321800Y-114655600D01*
X136321800Y-114655600D02*
X136321800Y-115671600D01*
X136321800Y-115671600D02*
X135813800Y-115671600D01*
X141147800Y-113258600D02*
X141147800Y-117068600D01*
D13*
X172866800Y-122316800D02*
X172166800Y-122316800D01*
X172166800Y-121116800D02*
X172866800Y-121116800D01*
X180853600Y-121116800D02*
X181553600Y-121116800D01*
X181553600Y-122316800D02*
X180853600Y-122316800D01*
X163124400Y-119237200D02*
X163824400Y-119237200D01*
X163824400Y-120437200D02*
X163124400Y-120437200D01*
X170018000Y-118458500D02*
X170018000Y-119158500D01*
X168818000Y-119158500D02*
X168818000Y-118458500D01*
X170018000Y-105441000D02*
X170018000Y-106141000D01*
X168818000Y-106141000D02*
X168818000Y-105441000D01*
X137215500Y-107609000D02*
X136215500Y-107609000D01*
X136215500Y-106259000D02*
X137215500Y-106259000D01*
X141533500Y-107609000D02*
X140533500Y-107609000D01*
X140533500Y-106259000D02*
X141533500Y-106259000D01*
X170093000Y-109228000D02*
X170093000Y-110228000D01*
X168743000Y-110228000D02*
X168743000Y-109228000D01*
X170143800Y-112733200D02*
X170143800Y-113733200D01*
X168793800Y-113733200D02*
X168793800Y-112733200D01*
X167711500Y-91273000D02*
X168711500Y-91273000D01*
X168711500Y-92623000D02*
X167711500Y-92623000D01*
X155956000Y-87630000D02*
X173736000Y-87630000D01*
X173736000Y-87630000D02*
X173736000Y-90170000D01*
X173736000Y-90170000D02*
X155956000Y-90170000D01*
X153416000Y-87630000D02*
X155956000Y-87630000D01*
X155956000Y-87630000D02*
X155956000Y-90170000D01*
X153416000Y-87630000D02*
X153416000Y-90170000D01*
X153416000Y-90170000D02*
X155956000Y-90170000D01*
X177800000Y-87630000D02*
X195580000Y-87630000D01*
X195580000Y-87630000D02*
X195580000Y-90170000D01*
X195580000Y-90170000D02*
X177800000Y-90170000D01*
X175260000Y-87630000D02*
X177800000Y-87630000D01*
X177800000Y-87630000D02*
X177800000Y-90170000D01*
X175260000Y-87630000D02*
X175260000Y-90170000D01*
X175260000Y-90170000D02*
X177800000Y-90170000D01*
X138874500Y-135826500D02*
X138874500Y-128206500D01*
X136334500Y-135826500D02*
X136334500Y-128206500D01*
X136334500Y-138366500D02*
X136334500Y-135826500D01*
X138874500Y-128206500D02*
X136334500Y-128206500D01*
X136334500Y-135826500D02*
X138874500Y-135826500D01*
X136334500Y-138366500D02*
X138874500Y-138366500D01*
X138874500Y-138366500D02*
X138874500Y-135826500D01*
X154559000Y-136017000D02*
X154559000Y-138557000D01*
X152019000Y-136017000D02*
X152019000Y-138557000D01*
X152019000Y-138557000D02*
X154559000Y-138557000D01*
X154559000Y-138557000D02*
X157099000Y-138557000D01*
X157099000Y-138557000D02*
X157099000Y-136017000D01*
X157099000Y-136017000D02*
X152019000Y-136017000D01*
X165100000Y-135890000D02*
X177800000Y-135890000D01*
X177800000Y-135890000D02*
X177800000Y-138430000D01*
X177800000Y-138430000D02*
X165100000Y-138430000D01*
X162560000Y-135890000D02*
X165100000Y-135890000D01*
X165100000Y-135890000D02*
X165100000Y-138430000D01*
X162560000Y-135890000D02*
X162560000Y-138430000D01*
X162560000Y-138430000D02*
X165100000Y-138430000D01*
X182880000Y-135953500D02*
X195580000Y-135953500D01*
X195580000Y-135953500D02*
X195580000Y-138493500D01*
X195580000Y-138493500D02*
X182880000Y-138493500D01*
X180340000Y-135953500D02*
X182880000Y-135953500D01*
X182880000Y-135953500D02*
X182880000Y-138493500D01*
X180340000Y-135953500D02*
X180340000Y-138493500D01*
X180340000Y-138493500D02*
X182880000Y-138493500D01*
D12*
X178625500Y-111506000D02*
X178752500Y-111506000D01*
X178752500Y-111506000D02*
X178752500Y-106172000D01*
X174942500Y-106172000D02*
X174942500Y-111506000D01*
X174942500Y-111506000D02*
X178625500Y-111506000D01*
X176339500Y-111506000D02*
X176339500Y-110998000D01*
X176339500Y-110998000D02*
X177355500Y-110998000D01*
X177355500Y-110998000D02*
X177355500Y-111506000D01*
X174942500Y-106172000D02*
X178752500Y-106172000D01*
X175107600Y-114071400D02*
X174980600Y-114071400D01*
X174980600Y-114071400D02*
X174980600Y-119405400D01*
X178790600Y-119405400D02*
X178790600Y-114071400D01*
X178790600Y-114071400D02*
X175107600Y-114071400D01*
X177393600Y-114071400D02*
X177393600Y-114579400D01*
X177393600Y-114579400D02*
X176377600Y-114579400D01*
X176377600Y-114579400D02*
X176377600Y-114071400D01*
X178790600Y-119405400D02*
X174980600Y-119405400D01*
D13*
X170846555Y-96079000D02*
G75*
G03X170846555Y-96079000I-360555J0D01*
G74*
G01*
X171186000Y-95379000D02*
X171186000Y-100679000D01*
X171186000Y-100679000D02*
X160686000Y-100679000D01*
X160686000Y-100679000D02*
X160686000Y-95379000D01*
X160686000Y-95379000D02*
X171186000Y-95379000D01*
D14*
X160461960Y-125699520D02*
X160461960Y-127500380D01*
X160461960Y-125699520D02*
X161112200Y-125699520D01*
X164962840Y-125699520D02*
X164962840Y-127500380D01*
X164962840Y-125699520D02*
X164312600Y-125699520D01*
D13*
X174229734Y-122200943D02*
X174182115Y-122248562D01*
X174039258Y-122296181D01*
X173944020Y-122296181D01*
X173801162Y-122248562D01*
X173705924Y-122153324D01*
X173658305Y-122058086D01*
X173610686Y-121867610D01*
X173610686Y-121724752D01*
X173658305Y-121534276D01*
X173705924Y-121439038D01*
X173801162Y-121343800D01*
X173944020Y-121296181D01*
X174039258Y-121296181D01*
X174182115Y-121343800D01*
X174229734Y-121391419D01*
X174563067Y-121296181D02*
X175182115Y-121296181D01*
X174848781Y-121677133D01*
X174991639Y-121677133D01*
X175086877Y-121724752D01*
X175134496Y-121772371D01*
X175182115Y-121867610D01*
X175182115Y-122105705D01*
X175134496Y-122200943D01*
X175086877Y-122248562D01*
X174991639Y-122296181D01*
X174705924Y-122296181D01*
X174610686Y-122248562D01*
X174563067Y-122200943D01*
X188412381Y-127507976D02*
X188412381Y-128079405D01*
X188412381Y-127793691D02*
X187412381Y-127793691D01*
X187555238Y-127888929D01*
X187650476Y-127984167D01*
X187698095Y-128079405D01*
X187412381Y-126650833D02*
X187412381Y-126841310D01*
X187460000Y-126936548D01*
X187507619Y-126984167D01*
X187650476Y-127079405D01*
X187840952Y-127127024D01*
X188221905Y-127127024D01*
X188317143Y-127079405D01*
X188364762Y-127031786D01*
X188412381Y-126936548D01*
X188412381Y-126746071D01*
X188364762Y-126650833D01*
X188317143Y-126603214D01*
X188221905Y-126555595D01*
X187983810Y-126555595D01*
X187888571Y-126603214D01*
X187840952Y-126650833D01*
X187793333Y-126746071D01*
X187793333Y-126936548D01*
X187840952Y-127031786D01*
X187888571Y-127079405D01*
X187983810Y-127127024D01*
X185872381Y-127507976D02*
X185872381Y-128079405D01*
X185872381Y-127793691D02*
X184872381Y-127793691D01*
X185015238Y-127888929D01*
X185110476Y-127984167D01*
X185158095Y-128079405D01*
X184872381Y-126603214D02*
X184872381Y-127079405D01*
X185348571Y-127127024D01*
X185300952Y-127079405D01*
X185253333Y-126984167D01*
X185253333Y-126746071D01*
X185300952Y-126650833D01*
X185348571Y-126603214D01*
X185443810Y-126555595D01*
X185681905Y-126555595D01*
X185777143Y-126603214D01*
X185824762Y-126650833D01*
X185872381Y-126746071D01*
X185872381Y-126984167D01*
X185824762Y-127079405D01*
X185777143Y-127127024D01*
X187507619Y-104743214D02*
X187460000Y-104695595D01*
X187412381Y-104600357D01*
X187412381Y-104362261D01*
X187460000Y-104267023D01*
X187507619Y-104219404D01*
X187602857Y-104171785D01*
X187698095Y-104171785D01*
X187840952Y-104219404D01*
X188412381Y-104790833D01*
X188412381Y-104171785D01*
X185872381Y-104171785D02*
X185872381Y-104743214D01*
X185872381Y-104457500D02*
X184872381Y-104457500D01*
X185015238Y-104552738D01*
X185110476Y-104647976D01*
X185158095Y-104743214D01*
X175855334Y-124664743D02*
X175807715Y-124712362D01*
X175664858Y-124759981D01*
X175569620Y-124759981D01*
X175426762Y-124712362D01*
X175331524Y-124617124D01*
X175283905Y-124521886D01*
X175236286Y-124331410D01*
X175236286Y-124188552D01*
X175283905Y-123998076D01*
X175331524Y-123902838D01*
X175426762Y-123807600D01*
X175569620Y-123759981D01*
X175664858Y-123759981D01*
X175807715Y-123807600D01*
X175855334Y-123855219D01*
X176712477Y-124093314D02*
X176712477Y-124759981D01*
X176474381Y-123712362D02*
X176236286Y-124426648D01*
X176855334Y-124426648D01*
X177357429Y-130826952D02*
X177357429Y-130065047D01*
X177738381Y-130445999D02*
X176976476Y-130445999D01*
X167219334Y-124715543D02*
X167171715Y-124763162D01*
X167028858Y-124810781D01*
X166933620Y-124810781D01*
X166790762Y-124763162D01*
X166695524Y-124667924D01*
X166647905Y-124572686D01*
X166600286Y-124382210D01*
X166600286Y-124239352D01*
X166647905Y-124048876D01*
X166695524Y-123953638D01*
X166790762Y-123858400D01*
X166933620Y-123810781D01*
X167028858Y-123810781D01*
X167171715Y-123858400D01*
X167219334Y-123906019D01*
X168076477Y-123810781D02*
X167886000Y-123810781D01*
X167790762Y-123858400D01*
X167743143Y-123906019D01*
X167647905Y-124048876D01*
X167600286Y-124239352D01*
X167600286Y-124620305D01*
X167647905Y-124715543D01*
X167695524Y-124763162D01*
X167790762Y-124810781D01*
X167981239Y-124810781D01*
X168076477Y-124763162D01*
X168124096Y-124715543D01*
X168171715Y-124620305D01*
X168171715Y-124382210D01*
X168124096Y-124286971D01*
X168076477Y-124239352D01*
X167981239Y-124191733D01*
X167790762Y-124191733D01*
X167695524Y-124239352D01*
X167647905Y-124286971D01*
X167600286Y-124382210D01*
X168873829Y-130725352D02*
X168873829Y-129963447D01*
X169254781Y-130344399D02*
X168492876Y-130344399D01*
X148829734Y-123242343D02*
X148782115Y-123289962D01*
X148639258Y-123337581D01*
X148544020Y-123337581D01*
X148401162Y-123289962D01*
X148305924Y-123194724D01*
X148258305Y-123099486D01*
X148210686Y-122909010D01*
X148210686Y-122766152D01*
X148258305Y-122575676D01*
X148305924Y-122480438D01*
X148401162Y-122385200D01*
X148544020Y-122337581D01*
X148639258Y-122337581D01*
X148782115Y-122385200D01*
X148829734Y-122432819D01*
X149305924Y-123337581D02*
X149496400Y-123337581D01*
X149591639Y-123289962D01*
X149639258Y-123242343D01*
X149734496Y-123099486D01*
X149782115Y-122909010D01*
X149782115Y-122528057D01*
X149734496Y-122432819D01*
X149686877Y-122385200D01*
X149591639Y-122337581D01*
X149401162Y-122337581D01*
X149305924Y-122385200D01*
X149258305Y-122432819D01*
X149210686Y-122528057D01*
X149210686Y-122766152D01*
X149258305Y-122861390D01*
X149305924Y-122909010D01*
X149401162Y-122956629D01*
X149591639Y-122956629D01*
X149686877Y-122909010D01*
X149734496Y-122861390D01*
X149782115Y-122766152D01*
X151144629Y-130014152D02*
X151144629Y-129252247D01*
X151525581Y-129633199D02*
X150763676Y-129633199D01*
X142595695Y-114412781D02*
X142595695Y-115222305D01*
X142643314Y-115317543D01*
X142690933Y-115365162D01*
X142786171Y-115412781D01*
X142976648Y-115412781D01*
X143071886Y-115365162D01*
X143119505Y-115317543D01*
X143167124Y-115222305D01*
X143167124Y-114412781D01*
X144071886Y-114412781D02*
X143881409Y-114412781D01*
X143786171Y-114460400D01*
X143738552Y-114508019D01*
X143643314Y-114650876D01*
X143595695Y-114841352D01*
X143595695Y-115222305D01*
X143643314Y-115317543D01*
X143690933Y-115365162D01*
X143786171Y-115412781D01*
X143976648Y-115412781D01*
X144071886Y-115365162D01*
X144119505Y-115317543D01*
X144167124Y-115222305D01*
X144167124Y-114984210D01*
X144119505Y-114888971D01*
X144071886Y-114841352D01*
X143976648Y-114793733D01*
X143786171Y-114793733D01*
X143690933Y-114841352D01*
X143643314Y-114888971D01*
X143595695Y-114984210D01*
X169873634Y-121946943D02*
X169826015Y-121994562D01*
X169683158Y-122042181D01*
X169587920Y-122042181D01*
X169445062Y-121994562D01*
X169349824Y-121899324D01*
X169302205Y-121804086D01*
X169254586Y-121613610D01*
X169254586Y-121470752D01*
X169302205Y-121280276D01*
X169349824Y-121185038D01*
X169445062Y-121089800D01*
X169587920Y-121042181D01*
X169683158Y-121042181D01*
X169826015Y-121089800D01*
X169873634Y-121137419D01*
X170826015Y-122042181D02*
X170254586Y-122042181D01*
X170540300Y-122042181D02*
X170540300Y-121042181D01*
X170445062Y-121185038D01*
X170349824Y-121280276D01*
X170254586Y-121327895D01*
X183767434Y-122154444D02*
X183719815Y-122202063D01*
X183576958Y-122249682D01*
X183481720Y-122249682D01*
X183338862Y-122202063D01*
X183243624Y-122106825D01*
X183196005Y-122011587D01*
X183148386Y-121821111D01*
X183148386Y-121678253D01*
X183196005Y-121487777D01*
X183243624Y-121392539D01*
X183338862Y-121297301D01*
X183481720Y-121249682D01*
X183576958Y-121249682D01*
X183719815Y-121297301D01*
X183767434Y-121344920D01*
X184148386Y-121344920D02*
X184196005Y-121297301D01*
X184291243Y-121249682D01*
X184529339Y-121249682D01*
X184624577Y-121297301D01*
X184672196Y-121344920D01*
X184719815Y-121440158D01*
X184719815Y-121535396D01*
X184672196Y-121678253D01*
X184100767Y-122249682D01*
X184719815Y-122249682D01*
X160666134Y-120092743D02*
X160618515Y-120140362D01*
X160475658Y-120187981D01*
X160380420Y-120187981D01*
X160237562Y-120140362D01*
X160142324Y-120045124D01*
X160094705Y-119949886D01*
X160047086Y-119759410D01*
X160047086Y-119616552D01*
X160094705Y-119426076D01*
X160142324Y-119330838D01*
X160237562Y-119235600D01*
X160380420Y-119187981D01*
X160475658Y-119187981D01*
X160618515Y-119235600D01*
X160666134Y-119283219D01*
X161570896Y-119187981D02*
X161094705Y-119187981D01*
X161047086Y-119664171D01*
X161094705Y-119616552D01*
X161189943Y-119568933D01*
X161428039Y-119568933D01*
X161523277Y-119616552D01*
X161570896Y-119664171D01*
X161618515Y-119759410D01*
X161618515Y-119997505D01*
X161570896Y-120092743D01*
X161523277Y-120140362D01*
X161428039Y-120187981D01*
X161189943Y-120187981D01*
X161094705Y-120140362D01*
X161047086Y-120092743D01*
X167270134Y-119127543D02*
X167222515Y-119175162D01*
X167079658Y-119222781D01*
X166984420Y-119222781D01*
X166841562Y-119175162D01*
X166746324Y-119079924D01*
X166698705Y-118984686D01*
X166651086Y-118794210D01*
X166651086Y-118651352D01*
X166698705Y-118460876D01*
X166746324Y-118365638D01*
X166841562Y-118270400D01*
X166984420Y-118222781D01*
X167079658Y-118222781D01*
X167222515Y-118270400D01*
X167270134Y-118318019D01*
X167841562Y-118651352D02*
X167746324Y-118603733D01*
X167698705Y-118556114D01*
X167651086Y-118460876D01*
X167651086Y-118413257D01*
X167698705Y-118318019D01*
X167746324Y-118270400D01*
X167841562Y-118222781D01*
X168032039Y-118222781D01*
X168127277Y-118270400D01*
X168174896Y-118318019D01*
X168222515Y-118413257D01*
X168222515Y-118460876D01*
X168174896Y-118556114D01*
X168127277Y-118603733D01*
X168032039Y-118651352D01*
X167841562Y-118651352D01*
X167746324Y-118698971D01*
X167698705Y-118746590D01*
X167651086Y-118841829D01*
X167651086Y-119032305D01*
X167698705Y-119127543D01*
X167746324Y-119175162D01*
X167841562Y-119222781D01*
X168032039Y-119222781D01*
X168127277Y-119175162D01*
X168174896Y-119127543D01*
X168222515Y-119032305D01*
X168222515Y-118841829D01*
X168174896Y-118746590D01*
X168127277Y-118698971D01*
X168032039Y-118651352D01*
X167320934Y-106376743D02*
X167273315Y-106424362D01*
X167130458Y-106471981D01*
X167035220Y-106471981D01*
X166892362Y-106424362D01*
X166797124Y-106329124D01*
X166749505Y-106233886D01*
X166701886Y-106043410D01*
X166701886Y-105900552D01*
X166749505Y-105710076D01*
X166797124Y-105614838D01*
X166892362Y-105519600D01*
X167035220Y-105471981D01*
X167130458Y-105471981D01*
X167273315Y-105519600D01*
X167320934Y-105567219D01*
X167654267Y-105471981D02*
X168320934Y-105471981D01*
X167892362Y-106471981D01*
X136548834Y-105486381D02*
X136215500Y-105010190D01*
X135977405Y-105486381D02*
X135977405Y-104486381D01*
X136358358Y-104486381D01*
X136453596Y-104534000D01*
X136501215Y-104581619D01*
X136548834Y-104676857D01*
X136548834Y-104819714D01*
X136501215Y-104914952D01*
X136453596Y-104962571D01*
X136358358Y-105010190D01*
X135977405Y-105010190D01*
X137501215Y-105486381D02*
X136929786Y-105486381D01*
X137215500Y-105486381D02*
X137215500Y-104486381D01*
X137120262Y-104629238D01*
X137025024Y-104724476D01*
X136929786Y-104772095D01*
X140866834Y-105486381D02*
X140533500Y-105010190D01*
X140295405Y-105486381D02*
X140295405Y-104486381D01*
X140676358Y-104486381D01*
X140771596Y-104534000D01*
X140819215Y-104581619D01*
X140866834Y-104676857D01*
X140866834Y-104819714D01*
X140819215Y-104914952D01*
X140771596Y-104962571D01*
X140676358Y-105010190D01*
X140295405Y-105010190D01*
X141247786Y-104581619D02*
X141295405Y-104534000D01*
X141390643Y-104486381D01*
X141628739Y-104486381D01*
X141723977Y-104534000D01*
X141771596Y-104581619D01*
X141819215Y-104676857D01*
X141819215Y-104772095D01*
X141771596Y-104914952D01*
X141200167Y-105486381D01*
X141819215Y-105486381D01*
X167351334Y-110180381D02*
X167018000Y-109704190D01*
X166779905Y-110180381D02*
X166779905Y-109180381D01*
X167160858Y-109180381D01*
X167256096Y-109228000D01*
X167303715Y-109275619D01*
X167351334Y-109370857D01*
X167351334Y-109513714D01*
X167303715Y-109608952D01*
X167256096Y-109656571D01*
X167160858Y-109704190D01*
X166779905Y-109704190D01*
X167684667Y-109180381D02*
X168303715Y-109180381D01*
X167970381Y-109561333D01*
X168113239Y-109561333D01*
X168208477Y-109608952D01*
X168256096Y-109656571D01*
X168303715Y-109751810D01*
X168303715Y-109989905D01*
X168256096Y-110085143D01*
X168208477Y-110132762D01*
X168113239Y-110180381D01*
X167827524Y-110180381D01*
X167732286Y-110132762D01*
X167684667Y-110085143D01*
X167402134Y-113685581D02*
X167068800Y-113209390D01*
X166830705Y-113685581D02*
X166830705Y-112685581D01*
X167211658Y-112685581D01*
X167306896Y-112733200D01*
X167354515Y-112780819D01*
X167402134Y-112876057D01*
X167402134Y-113018914D01*
X167354515Y-113114152D01*
X167306896Y-113161771D01*
X167211658Y-113209390D01*
X166830705Y-113209390D01*
X168259277Y-113018914D02*
X168259277Y-113685581D01*
X168021181Y-112637962D02*
X167783086Y-113352248D01*
X168402134Y-113352248D01*
X170673734Y-92400381D02*
X170340400Y-91924190D01*
X170102305Y-92400381D02*
X170102305Y-91400381D01*
X170483258Y-91400381D01*
X170578496Y-91448000D01*
X170626115Y-91495619D01*
X170673734Y-91590857D01*
X170673734Y-91733714D01*
X170626115Y-91828952D01*
X170578496Y-91876571D01*
X170483258Y-91924190D01*
X170102305Y-91924190D01*
X171578496Y-91400381D02*
X171102305Y-91400381D01*
X171054686Y-91876571D01*
X171102305Y-91828952D01*
X171197543Y-91781333D01*
X171435639Y-91781333D01*
X171530877Y-91828952D01*
X171578496Y-91876571D01*
X171626115Y-91971810D01*
X171626115Y-92209905D01*
X171578496Y-92305143D01*
X171530877Y-92352762D01*
X171435639Y-92400381D01*
X171197543Y-92400381D01*
X171102305Y-92352762D01*
X171054686Y-92305143D01*
X154157467Y-90739981D02*
X154157467Y-91454267D01*
X154109847Y-91597124D01*
X154014609Y-91692362D01*
X153871752Y-91739981D01*
X153776514Y-91739981D01*
X154633657Y-91739981D02*
X154633657Y-90739981D01*
X155014610Y-90739981D01*
X155109848Y-90787600D01*
X155157467Y-90835219D01*
X155205086Y-90930457D01*
X155205086Y-91073314D01*
X155157467Y-91168552D01*
X155109848Y-91216171D01*
X155014610Y-91263790D01*
X154633657Y-91263790D01*
X155538419Y-90739981D02*
X156157467Y-90739981D01*
X155824133Y-91120933D01*
X155966991Y-91120933D01*
X156062229Y-91168552D01*
X156109848Y-91216171D01*
X156157467Y-91311410D01*
X156157467Y-91549505D01*
X156109848Y-91644743D01*
X156062229Y-91692362D01*
X155966991Y-91739981D01*
X155681276Y-91739981D01*
X155586038Y-91692362D01*
X155538419Y-91644743D01*
X175849067Y-90892381D02*
X175849067Y-91606667D01*
X175801447Y-91749524D01*
X175706209Y-91844762D01*
X175563352Y-91892381D01*
X175468114Y-91892381D01*
X176325257Y-91892381D02*
X176325257Y-90892381D01*
X176706210Y-90892381D01*
X176801448Y-90940000D01*
X176849067Y-90987619D01*
X176896686Y-91082857D01*
X176896686Y-91225714D01*
X176849067Y-91320952D01*
X176801448Y-91368571D01*
X176706210Y-91416190D01*
X176325257Y-91416190D01*
X177753829Y-91225714D02*
X177753829Y-91892381D01*
X177515733Y-90844762D02*
X177277638Y-91559048D01*
X177896686Y-91559048D01*
X137037867Y-125944381D02*
X137037867Y-126658667D01*
X136990247Y-126801524D01*
X136895009Y-126896762D01*
X136752152Y-126944381D01*
X136656914Y-126944381D01*
X137514057Y-126944381D02*
X137514057Y-125944381D01*
X137895010Y-125944381D01*
X137990248Y-125992000D01*
X138037867Y-126039619D01*
X138085486Y-126134857D01*
X138085486Y-126277714D01*
X138037867Y-126372952D01*
X137990248Y-126420571D01*
X137895010Y-126468190D01*
X137514057Y-126468190D01*
X138990248Y-125944381D02*
X138514057Y-125944381D01*
X138466438Y-126420571D01*
X138514057Y-126372952D01*
X138609295Y-126325333D01*
X138847391Y-126325333D01*
X138942629Y-126372952D01*
X138990248Y-126420571D01*
X139037867Y-126515810D01*
X139037867Y-126753905D01*
X138990248Y-126849143D01*
X138942629Y-126896762D01*
X138847391Y-126944381D01*
X138609295Y-126944381D01*
X138514057Y-126896762D01*
X138466438Y-126849143D01*
X153725667Y-134453381D02*
X153725667Y-135167667D01*
X153678047Y-135310524D01*
X153582809Y-135405762D01*
X153439952Y-135453381D01*
X153344714Y-135453381D01*
X154201857Y-135453381D02*
X154201857Y-134453381D01*
X154582810Y-134453381D01*
X154678048Y-134501000D01*
X154725667Y-134548619D01*
X154773286Y-134643857D01*
X154773286Y-134786714D01*
X154725667Y-134881952D01*
X154678048Y-134929571D01*
X154582810Y-134977190D01*
X154201857Y-134977190D01*
X155630429Y-134453381D02*
X155439952Y-134453381D01*
X155344714Y-134501000D01*
X155297095Y-134548619D01*
X155201857Y-134691476D01*
X155154238Y-134881952D01*
X155154238Y-135262905D01*
X155201857Y-135358143D01*
X155249476Y-135405762D01*
X155344714Y-135453381D01*
X155535191Y-135453381D01*
X155630429Y-135405762D01*
X155678048Y-135358143D01*
X155725667Y-135262905D01*
X155725667Y-135024810D01*
X155678048Y-134929571D01*
X155630429Y-134881952D01*
X155535191Y-134834333D01*
X155344714Y-134834333D01*
X155249476Y-134881952D01*
X155201857Y-134929571D01*
X155154238Y-135024810D01*
X163098267Y-134173981D02*
X163098267Y-134888267D01*
X163050647Y-135031124D01*
X162955409Y-135126362D01*
X162812552Y-135173981D01*
X162717314Y-135173981D01*
X163574457Y-135173981D02*
X163574457Y-134173981D01*
X163955410Y-134173981D01*
X164050648Y-134221600D01*
X164098267Y-134269219D01*
X164145886Y-134364457D01*
X164145886Y-134507314D01*
X164098267Y-134602552D01*
X164050648Y-134650171D01*
X163955410Y-134697790D01*
X163574457Y-134697790D01*
X165098267Y-135173981D02*
X164526838Y-135173981D01*
X164812552Y-135173981D02*
X164812552Y-134173981D01*
X164717314Y-134316838D01*
X164622076Y-134412076D01*
X164526838Y-134459695D01*
X180929067Y-134478781D02*
X180929067Y-135193067D01*
X180881447Y-135335924D01*
X180786209Y-135431162D01*
X180643352Y-135478781D01*
X180548114Y-135478781D01*
X181405257Y-135478781D02*
X181405257Y-134478781D01*
X181786210Y-134478781D01*
X181881448Y-134526400D01*
X181929067Y-134574019D01*
X181976686Y-134669257D01*
X181976686Y-134812114D01*
X181929067Y-134907352D01*
X181881448Y-134954971D01*
X181786210Y-135002590D01*
X181405257Y-135002590D01*
X182357638Y-134574019D02*
X182405257Y-134526400D01*
X182500495Y-134478781D01*
X182738591Y-134478781D01*
X182833829Y-134526400D01*
X182881448Y-134574019D01*
X182929067Y-134669257D01*
X182929067Y-134764495D01*
X182881448Y-134907352D01*
X182310019Y-135478781D01*
X182929067Y-135478781D01*
X176022095Y-104760781D02*
X176022095Y-105570305D01*
X176069714Y-105665543D01*
X176117333Y-105713162D01*
X176212571Y-105760781D01*
X176403048Y-105760781D01*
X176498286Y-105713162D01*
X176545905Y-105665543D01*
X176593524Y-105570305D01*
X176593524Y-104760781D01*
X177022095Y-104856019D02*
X177069714Y-104808400D01*
X177164952Y-104760781D01*
X177403048Y-104760781D01*
X177498286Y-104808400D01*
X177545905Y-104856019D01*
X177593524Y-104951257D01*
X177593524Y-105046495D01*
X177545905Y-105189352D01*
X176974476Y-105760781D01*
X177593524Y-105760781D01*
X176072895Y-112837981D02*
X176072895Y-113647505D01*
X176120514Y-113742743D01*
X176168133Y-113790362D01*
X176263371Y-113837981D01*
X176453848Y-113837981D01*
X176549086Y-113790362D01*
X176596705Y-113742743D01*
X176644324Y-113647505D01*
X176644324Y-112837981D01*
X177549086Y-113171314D02*
X177549086Y-113837981D01*
X177310990Y-112790362D02*
X177072895Y-113504648D01*
X177691943Y-113504648D01*
X158750095Y-97445581D02*
X158750095Y-98255105D01*
X158797714Y-98350343D01*
X158845333Y-98397962D01*
X158940571Y-98445581D01*
X159131048Y-98445581D01*
X159226286Y-98397962D01*
X159273905Y-98350343D01*
X159321524Y-98255105D01*
X159321524Y-97445581D01*
X159702476Y-97445581D02*
X160321524Y-97445581D01*
X159988190Y-97826533D01*
X160131048Y-97826533D01*
X160226286Y-97874152D01*
X160273905Y-97921771D01*
X160321524Y-98017010D01*
X160321524Y-98255105D01*
X160273905Y-98350343D01*
X160226286Y-98397962D01*
X160131048Y-98445581D01*
X159845333Y-98445581D01*
X159750095Y-98397962D01*
X159702476Y-98350343D01*
X161950495Y-123607581D02*
X161950495Y-124417105D01*
X161998114Y-124512343D01*
X162045733Y-124559962D01*
X162140971Y-124607581D01*
X162331448Y-124607581D01*
X162426686Y-124559962D01*
X162474305Y-124512343D01*
X162521924Y-124417105D01*
X162521924Y-123607581D01*
X163521924Y-124607581D02*
X162950495Y-124607581D01*
X163236209Y-124607581D02*
X163236209Y-123607581D01*
X163140971Y-123750438D01*
X163045733Y-123845676D01*
X162950495Y-123893295D01*
M02*
