M48
;DRILL file {kicad (2014-08-05 BZR 5054)-product} date Thu 04 Sep 2014 08:54:55 AM PDT
;FORMAT={-:-/ absolute / inch / decimal}
FMAT,2
INCH,TZ
T1C0.025
T2C0.035
T3C0.040
%
G90
G05
M72
T1
X5.265Y-3.47
X5.445Y-3.985
X5.625Y-4.91
X5.63Y-4.455
X5.645Y-4.165
X5.66Y-4.82
X5.675Y-3.615
X5.675Y-4.385
X5.72Y-3.945
X5.745Y-4.87
X5.955Y-5.165
X6.09Y-3.675
X6.215Y-5.04
X6.225Y-3.975
X6.25Y-5.005
X6.36Y-4.78
X6.38Y-3.875
X6.415Y-4.6
X6.425Y-4.07
X6.445Y-4.165
X6.52Y-4.05
X6.625Y-4.925
X6.67Y-3.73
X6.72Y-4.1
X6.795Y-3.915
X6.795Y-4.155
X6.945Y-4.18
X6.985Y-4.
X7.105Y-4.085
X7.11Y-5.075
X7.135Y-3.875
T2
X6.41Y-3.74
X6.445Y-4.34
X6.6Y-4.34
X6.74Y-3.62
X7.25Y-4.25
X7.25Y-4.35
X7.25Y-4.45
X7.25Y-4.55
X7.25Y-4.65
X7.25Y-4.75
X7.25Y-4.85
X7.25Y-4.95
X7.35Y-4.25
X7.35Y-4.35
X7.35Y-4.45
X7.35Y-4.55
X7.35Y-4.65
X7.35Y-4.75
X7.35Y-4.85
X7.35Y-4.95
X7.42Y-3.975
X7.605Y-4.28
T3
X5.425Y-5.1
X5.425Y-5.2
X5.425Y-5.3
X5.425Y-5.4
X6.1Y-3.5
X6.1Y-5.4
X6.2Y-3.5
X6.2Y-5.4
X6.3Y-3.5
X6.4Y-3.5
X6.45Y-5.4
X6.5Y-3.5
X6.55Y-5.4
X6.6Y-3.5
X6.65Y-5.4
X6.7Y-3.5
X6.75Y-5.4
X6.8Y-3.5
X6.85Y-5.4
X6.95Y-3.5
X6.95Y-5.4
X7.05Y-3.5
X7.15Y-3.5
X7.15Y-5.4
X7.25Y-3.5
X7.25Y-5.4
X7.35Y-3.5
X7.35Y-5.4
X7.45Y-3.5
X7.45Y-5.4
X7.55Y-3.5
X7.55Y-5.4
X7.65Y-3.5
X7.65Y-5.4
T0
M30
