%FSLAX46Y46*%
G04 Gerber Fmt 4.6, Leading zero omitted, Abs format (unit mm)*
G04 Created by KiCad (PCBNEW (2014-08-05 BZR 5054)-product) date Wed 03 Sep 2014 10:07:30 PM PDT*
%MOMM*%
G01*
G04 APERTURE LIST*
%ADD10C,0.152400*%
%ADD11R,1.727200X2.032000*%
%ADD12O,1.727200X2.032000*%
%ADD13R,2.032000X2.032000*%
%ADD14O,2.032000X2.032000*%
%ADD15R,6.096000X6.096000*%
%ADD16C,1.270000*%
%ADD17R,2.032000X1.727200*%
%ADD18O,2.032000X1.727200*%
G04 APERTURE END LIST*
D10*
D11*
X163830000Y-137160000D03*
D12*
X166370000Y-137160000D03*
X168910000Y-137160000D03*
X171450000Y-137160000D03*
X173990000Y-137160000D03*
X176530000Y-137160000D03*
D11*
X181610000Y-137160000D03*
D12*
X184150000Y-137160000D03*
X186690000Y-137160000D03*
X189230000Y-137160000D03*
X191770000Y-137160000D03*
X194310000Y-137160000D03*
D11*
X154940000Y-88900000D03*
D12*
X157480000Y-88900000D03*
X160020000Y-88900000D03*
X162560000Y-88900000D03*
X165100000Y-88900000D03*
X167640000Y-88900000D03*
X170180000Y-88900000D03*
X172720000Y-88900000D03*
D11*
X176530000Y-88900000D03*
D12*
X179070000Y-88900000D03*
X181610000Y-88900000D03*
X184150000Y-88900000D03*
X186690000Y-88900000D03*
X189230000Y-88900000D03*
X191770000Y-88900000D03*
X194310000Y-88900000D03*
D13*
X154940000Y-137160000D03*
D14*
X157480000Y-137160000D03*
D15*
X153670000Y-111760000D03*
X153670000Y-98806000D03*
X153670000Y-124714000D03*
D16*
X184150000Y-125730000D03*
X186690000Y-125730000D03*
X184150000Y-123190000D03*
X186690000Y-123190000D03*
X184150000Y-120650000D03*
X186690000Y-120650000D03*
X184150000Y-118110000D03*
X186690000Y-118110000D03*
X184150000Y-115570000D03*
X186690000Y-115570000D03*
X184150000Y-113030000D03*
X186690000Y-113030000D03*
X184150000Y-110490000D03*
X186690000Y-110490000D03*
X184150000Y-107950000D03*
X186690000Y-107950000D03*
D17*
X137795000Y-137160000D03*
D18*
X137795000Y-134620000D03*
X137795000Y-132080000D03*
X137795000Y-129540000D03*
M02*
