%FSLAX46Y46*%
G04 Gerber Fmt 4.6, Leading zero omitted, Abs format (unit mm)*
G04 Created by KiCad (PCBNEW (2014-08-05 BZR 5054)-product) date Sat 01 Nov 2014 10:19:19 PM PDT*
%MOMM*%
G01*
G04 APERTURE LIST*
%ADD10C,0.152400*%
%ADD11R,0.899160X1.000760*%
%ADD12C,1.270000*%
%ADD13R,0.600000X2.000000*%
%ADD14R,0.700000X4.200000*%
%ADD15R,1.750000X0.700000*%
%ADD16R,1.300000X1.300000*%
%ADD17R,1.500000X0.800000*%
%ADD18R,1.400000X0.800000*%
%ADD19R,1.550000X1.000000*%
%ADD20R,1.000000X1.450000*%
%ADD21R,2.800000X1.600000*%
%ADD22R,0.600000X1.600000*%
%ADD23R,0.800000X0.750000*%
%ADD24R,0.750000X0.800000*%
%ADD25R,0.500000X0.900000*%
%ADD26R,0.900000X0.500000*%
%ADD27R,1.727200X2.032000*%
%ADD28O,1.727200X2.032000*%
%ADD29R,2.032000X1.727200*%
%ADD30O,2.032000X1.727200*%
%ADD31R,2.032000X2.032000*%
%ADD32O,2.032000X2.032000*%
%ADD33R,1.600000X0.600000*%
%ADD34R,0.500000X1.500000*%
%ADD35R,0.480000X1.400000*%
%ADD36R,0.560000X1.550000*%
%ADD37R,1.200000X1.800000*%
%ADD38C,0.889000*%
%ADD39C,0.254000*%
G04 APERTURE END LIST*
D10*
D11*
X177942240Y-121716800D03*
X176438560Y-121716800D03*
D12*
X185420000Y-124777500D03*
X187960000Y-124777500D03*
X185420000Y-122237500D03*
X187960000Y-122237500D03*
X185420000Y-119697500D03*
X187960000Y-119697500D03*
X185420000Y-117157500D03*
X187960000Y-117157500D03*
X185420000Y-114617500D03*
X187960000Y-114617500D03*
X185420000Y-112077500D03*
X187960000Y-112077500D03*
X185420000Y-109537500D03*
X187960000Y-109537500D03*
X185420000Y-106997500D03*
X187960000Y-106997500D03*
D13*
X145169000Y-132477000D03*
X144169000Y-132477000D03*
X146169000Y-132477000D03*
X147169000Y-132477000D03*
D14*
X143169000Y-134477000D03*
X148169000Y-134477000D03*
D15*
X134913500Y-97196500D03*
X134913500Y-96096500D03*
X134913500Y-94996500D03*
X134913500Y-93896500D03*
X134913500Y-92796500D03*
X134913500Y-91696500D03*
X134913500Y-90596500D03*
X134913500Y-89496500D03*
D16*
X135138500Y-88296500D03*
X135138500Y-99346500D03*
D17*
X142693500Y-88046500D03*
D18*
X143263500Y-97146500D03*
D19*
X145663500Y-96696500D03*
D20*
X144163500Y-88346500D03*
D21*
X182186000Y-126846000D03*
X177886000Y-126846000D03*
X173702400Y-126744400D03*
X169402400Y-126744400D03*
X155973200Y-126033200D03*
X151673200Y-126033200D03*
D22*
X136605800Y-112463600D03*
X136605800Y-117863600D03*
X137855800Y-112463600D03*
X139105800Y-112463600D03*
X140355800Y-112463600D03*
X137855800Y-117863600D03*
X139105800Y-117863600D03*
X140355800Y-117863600D03*
D23*
X173266800Y-121716800D03*
X171766800Y-121716800D03*
X180453600Y-121716800D03*
X181953600Y-121716800D03*
X162724400Y-119837200D03*
X164224400Y-119837200D03*
D24*
X169418000Y-118058500D03*
X169418000Y-119558500D03*
X169418000Y-105041000D03*
X169418000Y-106541000D03*
D25*
X135965500Y-106934000D03*
X137465500Y-106934000D03*
X140283500Y-106934000D03*
X141783500Y-106934000D03*
D26*
X169418000Y-110478000D03*
X169418000Y-108978000D03*
X169468800Y-113983200D03*
X169468800Y-112483200D03*
D25*
X168961500Y-91948000D03*
X167461500Y-91948000D03*
D27*
X154686000Y-88900000D03*
D28*
X157226000Y-88900000D03*
X159766000Y-88900000D03*
X162306000Y-88900000D03*
X164846000Y-88900000D03*
X167386000Y-88900000D03*
X169926000Y-88900000D03*
X172466000Y-88900000D03*
D27*
X176530000Y-88900000D03*
D28*
X179070000Y-88900000D03*
X181610000Y-88900000D03*
X184150000Y-88900000D03*
X186690000Y-88900000D03*
X189230000Y-88900000D03*
X191770000Y-88900000D03*
X194310000Y-88900000D03*
D29*
X137604500Y-137096500D03*
D30*
X137604500Y-134556500D03*
X137604500Y-132016500D03*
X137604500Y-129476500D03*
D31*
X153289000Y-137287000D03*
D32*
X155829000Y-137287000D03*
D27*
X163830000Y-137160000D03*
D28*
X166370000Y-137160000D03*
X168910000Y-137160000D03*
X171450000Y-137160000D03*
X173990000Y-137160000D03*
X176530000Y-137160000D03*
D27*
X181610000Y-137223500D03*
D28*
X184150000Y-137223500D03*
X186690000Y-137223500D03*
X189230000Y-137223500D03*
X191770000Y-137223500D03*
X194310000Y-137223500D03*
D33*
X174147500Y-110714000D03*
X179547500Y-110714000D03*
X174147500Y-109464000D03*
X174147500Y-108214000D03*
X174147500Y-106964000D03*
X179547500Y-109464000D03*
X179547500Y-108214000D03*
X179547500Y-106964000D03*
X179585600Y-114863400D03*
X174185600Y-114863400D03*
X179585600Y-116113400D03*
X179585600Y-117363400D03*
X179585600Y-118613400D03*
X174185600Y-116113400D03*
X174185600Y-117363400D03*
X174185600Y-118613400D03*
D34*
X169916000Y-94629000D03*
X168646000Y-94629000D03*
X167376000Y-94629000D03*
X166106000Y-94629000D03*
X164836000Y-94629000D03*
X163566000Y-94629000D03*
X162296000Y-94629000D03*
X162296000Y-101379000D03*
X163566000Y-101379000D03*
X164836000Y-101379000D03*
X166106000Y-101379000D03*
X167376000Y-101379000D03*
X168646000Y-101379000D03*
X169916000Y-101379000D03*
D35*
X161211260Y-128851660D03*
D36*
X162712400Y-128800000D03*
D35*
X164213540Y-128851660D03*
D37*
X162712400Y-126700000D03*
D10*
G36*
X163262400Y-127550000D02*
X162962400Y-128050000D01*
X162462400Y-128050000D01*
X162162400Y-127550000D01*
X163262400Y-127550000D01*
X163262400Y-127550000D01*
G37*
G36*
X162162400Y-125850000D02*
X162462400Y-125350000D01*
X162962400Y-125350000D01*
X163262400Y-125850000D01*
X162162400Y-125850000D01*
X162162400Y-125850000D01*
G37*
D38*
X173634400Y-126695200D03*
X168503600Y-121716800D03*
X132689600Y-91694000D03*
X138988800Y-88138000D03*
X141020800Y-97180400D03*
X159918400Y-128828800D03*
X182168800Y-124155200D03*
X166268400Y-119837200D03*
X142036800Y-118313200D03*
X171500800Y-105054400D03*
X172262800Y-110388400D03*
X161036000Y-94589600D03*
X165404800Y-96367600D03*
X171704000Y-94589600D03*
X164896800Y-103174800D03*
X165709600Y-115417600D03*
X167843200Y-113944400D03*
X171551600Y-116179600D03*
X157530800Y-122834400D03*
X138785600Y-105460800D03*
X139090400Y-119583200D03*
X159613600Y-123037600D03*
X168706800Y-125018800D03*
X175107600Y-125069600D03*
X158445200Y-124866400D03*
X165608000Y-127965200D03*
X175666400Y-128778000D03*
X180187600Y-128879600D03*
X189077600Y-128727200D03*
X141681200Y-114909600D03*
X143052800Y-117805200D03*
X135432800Y-104140000D03*
X135636000Y-120446800D03*
X145999200Y-136956800D03*
X169722800Y-133299200D03*
X176733200Y-133350000D03*
X180848000Y-133451600D03*
X145186400Y-134366000D03*
X145135600Y-129895600D03*
X170789600Y-132181600D03*
X175666400Y-132232400D03*
X183286400Y-132283200D03*
X148437600Y-129032000D03*
X169621200Y-131114800D03*
X177088800Y-131165600D03*
X156464000Y-130149600D03*
X170586400Y-130048000D03*
X175920400Y-130149600D03*
X142595600Y-127508000D03*
X153733500Y-92646500D03*
X166497000Y-98234500D03*
X181051200Y-93319600D03*
X177444400Y-93218000D03*
X174040800Y-101346000D03*
X173990000Y-97078800D03*
X166052500Y-92519500D03*
X155511500Y-93726000D03*
X162560000Y-96266000D03*
X157607000Y-94869000D03*
D39*
X173634400Y-126695200D02*
X173683600Y-126744400D01*
X173683600Y-126744400D02*
X173702400Y-126744400D01*
X171766800Y-121716800D02*
X168503600Y-121716800D01*
X174185600Y-118613400D02*
X170363100Y-118613400D01*
X170363100Y-118613400D02*
X169418000Y-119558500D01*
X134913500Y-91696500D02*
X132692100Y-91696500D01*
X132692100Y-91696500D02*
X132689600Y-91694000D01*
X142693500Y-88046500D02*
X139080300Y-88046500D01*
X138830300Y-88296500D02*
X138988800Y-88138000D01*
X138830300Y-88296500D02*
X135138500Y-88296500D01*
X139080300Y-88046500D02*
X138988800Y-88138000D01*
X143263500Y-97146500D02*
X141054700Y-97146500D01*
X138854700Y-99346500D02*
X141020800Y-97180400D01*
X138854700Y-99346500D02*
X135138500Y-99346500D01*
X141054700Y-97146500D02*
X141020800Y-97180400D01*
X161211260Y-128851660D02*
X159941260Y-128851660D01*
X159941260Y-128851660D02*
X159918400Y-128828800D01*
X181953600Y-121716800D02*
X181953600Y-123940000D01*
X182186000Y-124172400D02*
X182168800Y-124155200D01*
X182186000Y-124172400D02*
X182186000Y-126846000D01*
X181953600Y-123940000D02*
X182168800Y-124155200D01*
X176479200Y-121676160D02*
X176479200Y-119126000D01*
X175966600Y-118613400D02*
X176479200Y-119126000D01*
X175966600Y-118613400D02*
X174185600Y-118613400D01*
X176479200Y-121676160D02*
X176438560Y-121716800D01*
X169418000Y-119558500D02*
X166547100Y-119558500D01*
X166547100Y-119558500D02*
X166268400Y-119837200D01*
X166268400Y-119837200D02*
X164224400Y-119837200D01*
X140355800Y-117863600D02*
X141587200Y-117863600D01*
X141587200Y-117863600D02*
X142036800Y-118313200D01*
X169418000Y-105041000D02*
X171487400Y-105041000D01*
X171487400Y-105041000D02*
X171500800Y-105054400D01*
X174147500Y-109464000D02*
X173187200Y-109464000D01*
X173187200Y-109464000D02*
X172262800Y-110388400D01*
X162296000Y-94629000D02*
X161075400Y-94629000D01*
X161075400Y-94629000D02*
X161036000Y-94589600D01*
X166106000Y-94629000D02*
X166106000Y-95666400D01*
X166106000Y-95666400D02*
X165404800Y-96367600D01*
X169916000Y-94629000D02*
X171664600Y-94629000D01*
X171664600Y-94629000D02*
X171704000Y-94589600D01*
X164836000Y-101379000D02*
X164836000Y-103114000D01*
X164836000Y-103114000D02*
X164896800Y-103174800D01*
X169418000Y-106541000D02*
X169418000Y-108978000D01*
X169418000Y-108978000D02*
X171285600Y-108978000D01*
X172049600Y-108214000D02*
X174147500Y-108214000D01*
X171285600Y-108978000D02*
X172049600Y-108214000D01*
X169468800Y-113983200D02*
X167882000Y-113983200D01*
X166420100Y-118058500D02*
X169418000Y-118058500D01*
X165608000Y-117246400D02*
X166420100Y-118058500D01*
X165608000Y-115519200D02*
X165608000Y-117246400D01*
X165709600Y-115417600D02*
X165608000Y-115519200D01*
X167882000Y-113983200D02*
X167843200Y-113944400D01*
X169468800Y-118007700D02*
X169418000Y-118058500D01*
X174185600Y-117363400D02*
X170113100Y-117363400D01*
X170113100Y-117363400D02*
X169418000Y-118058500D01*
X179585600Y-118613400D02*
X177897000Y-118613400D01*
X176647000Y-117363400D02*
X174185600Y-117363400D01*
X177897000Y-118613400D02*
X176647000Y-117363400D01*
X151673200Y-126033200D02*
X151673200Y-125034400D01*
X171617800Y-116113400D02*
X174185600Y-116113400D01*
X171551600Y-116179600D02*
X171617800Y-116113400D01*
X153873200Y-122834400D02*
X157530800Y-122834400D01*
X151673200Y-125034400D02*
X153873200Y-122834400D01*
X179585600Y-116113400D02*
X179585600Y-117363400D01*
X174185600Y-116113400D02*
X179585600Y-116113400D01*
X174185600Y-116113400D02*
X174185600Y-114863400D01*
X155973200Y-126033200D02*
X155973200Y-126204400D01*
X155973200Y-126204400D02*
X158648400Y-128879600D01*
X158648400Y-128879600D02*
X158648400Y-134467600D01*
X158648400Y-134467600D02*
X155829000Y-137287000D01*
X135965500Y-106934000D02*
X135965500Y-106350500D01*
X136855200Y-105460800D02*
X138785600Y-105460800D01*
X135965500Y-106350500D02*
X136855200Y-105460800D01*
X138785600Y-105460800D02*
X140258800Y-106934000D01*
X140258800Y-106934000D02*
X140283500Y-106934000D01*
X139105800Y-117863600D02*
X139105800Y-119567800D01*
X139105800Y-119567800D02*
X139090400Y-119583200D01*
X136605800Y-112463600D02*
X136605800Y-113441000D01*
X139105800Y-115941000D02*
X139105800Y-117863600D01*
X136605800Y-113441000D02*
X139105800Y-115941000D01*
X135965500Y-106934000D02*
X135965500Y-111823300D01*
X135965500Y-111823300D02*
X136605800Y-112463600D01*
X139105800Y-114569400D02*
X139105800Y-112463600D01*
X140563600Y-116027200D02*
X139105800Y-114569400D01*
X146812000Y-116027200D02*
X140563600Y-116027200D01*
X150114000Y-119329200D02*
X146812000Y-116027200D01*
X157226000Y-119329200D02*
X150114000Y-119329200D01*
X159156400Y-121259600D02*
X157226000Y-119329200D01*
X159156400Y-122580400D02*
X159156400Y-121259600D01*
X159613600Y-123037600D02*
X159156400Y-122580400D01*
X175056800Y-125018800D02*
X168706800Y-125018800D01*
X175107600Y-125069600D02*
X175056800Y-125018800D01*
X139105800Y-112463600D02*
X139105800Y-110403800D01*
X137465500Y-108763500D02*
X137465500Y-106934000D01*
X139105800Y-110403800D02*
X137465500Y-108763500D01*
X156718000Y-120446800D02*
X149707600Y-120446800D01*
X158292800Y-122021600D02*
X156718000Y-120446800D01*
X158292800Y-124714000D02*
X158292800Y-122021600D01*
X158445200Y-124866400D02*
X158292800Y-124714000D01*
X166624000Y-128981200D02*
X165608000Y-127965200D01*
X175463200Y-128981200D02*
X166624000Y-128981200D01*
X175666400Y-128778000D02*
X175463200Y-128981200D01*
X188925200Y-128879600D02*
X180187600Y-128879600D01*
X189077600Y-128727200D02*
X188925200Y-128879600D01*
X149809200Y-120446800D02*
X149707600Y-120446800D01*
X140355800Y-113584200D02*
X140355800Y-112463600D01*
X141681200Y-114909600D02*
X140355800Y-113584200D01*
X147066000Y-117805200D02*
X143052800Y-117805200D01*
X149707600Y-120446800D02*
X147066000Y-117805200D01*
X141783500Y-106934000D02*
X141783500Y-111035900D01*
X141783500Y-111035900D02*
X140355800Y-112463600D01*
X139598400Y-104292400D02*
X141732000Y-106426000D01*
X135585200Y-104292400D02*
X139598400Y-104292400D01*
X135432800Y-104140000D02*
X135585200Y-104292400D01*
X149809200Y-120446800D02*
X149301200Y-120446800D01*
X149301200Y-120446800D02*
X135636000Y-120446800D01*
X181610000Y-137223500D02*
X181610000Y-134213600D01*
X144169000Y-135126600D02*
X144169000Y-132477000D01*
X145999200Y-136956800D02*
X144169000Y-135126600D01*
X176682400Y-133299200D02*
X169722800Y-133299200D01*
X176733200Y-133350000D02*
X176682400Y-133299200D01*
X181610000Y-134213600D02*
X180848000Y-133451600D01*
X181610000Y-137223500D02*
X181610000Y-136461500D01*
X144081500Y-133223000D02*
X143891000Y-133223000D01*
X143891000Y-133223000D02*
X144169000Y-132477000D01*
X145169000Y-134348600D02*
X145169000Y-132477000D01*
X145186400Y-134366000D02*
X145169000Y-134348600D01*
X184150000Y-137223500D02*
X184150000Y-133146800D01*
X145169000Y-129929000D02*
X145169000Y-132477000D01*
X145135600Y-129895600D02*
X145169000Y-129929000D01*
X175615600Y-132181600D02*
X170789600Y-132181600D01*
X175666400Y-132232400D02*
X175615600Y-132181600D01*
X184150000Y-133146800D02*
X183286400Y-132283200D01*
X148336000Y-128930400D02*
X146100800Y-128930400D01*
X148437600Y-129032000D02*
X148336000Y-128930400D01*
X177038000Y-131114800D02*
X169621200Y-131114800D01*
X177088800Y-131165600D02*
X177038000Y-131114800D01*
X137604500Y-132016500D02*
X140525500Y-132016500D01*
X143611600Y-128930400D02*
X146100800Y-128930400D01*
X140525500Y-132016500D02*
X143611600Y-128930400D01*
X146169000Y-128998600D02*
X146169000Y-132477000D01*
X146100800Y-128930400D02*
X146169000Y-128998600D01*
X154555000Y-128240600D02*
X151405400Y-128240600D01*
X156464000Y-130149600D02*
X154555000Y-128240600D01*
X175818800Y-130048000D02*
X170586400Y-130048000D01*
X175920400Y-130149600D02*
X175818800Y-130048000D01*
X150622000Y-127457200D02*
X151405400Y-128240600D01*
X142646400Y-127457200D02*
X150622000Y-127457200D01*
X142595600Y-127508000D02*
X142646400Y-127457200D01*
X151405400Y-128240600D02*
X147169000Y-132477000D01*
X159766000Y-88900000D02*
X159766000Y-95059500D01*
X168646000Y-95958500D02*
X168646000Y-94629000D01*
X167259000Y-97345500D02*
X168646000Y-95958500D01*
X162052000Y-97345500D02*
X167259000Y-97345500D01*
X159766000Y-95059500D02*
X162052000Y-97345500D01*
X151683500Y-90596500D02*
X134913500Y-90596500D01*
X153733500Y-92646500D02*
X151683500Y-90596500D01*
X164846000Y-88900000D02*
X164846000Y-94619000D01*
X164846000Y-94619000D02*
X164836000Y-94629000D01*
X163566000Y-99705000D02*
X163566000Y-101379000D01*
X164274500Y-98996500D02*
X163566000Y-99705000D01*
X165735000Y-98996500D02*
X164274500Y-98996500D01*
X166497000Y-98234500D02*
X165735000Y-98996500D01*
X167386000Y-88900000D02*
X167386000Y-91872500D01*
X167386000Y-91872500D02*
X167461500Y-91948000D01*
X177546000Y-93319600D02*
X181051200Y-93319600D01*
X177444400Y-93218000D02*
X177546000Y-93319600D01*
X181610000Y-88900000D02*
X181610000Y-90576400D01*
X174147500Y-101452700D02*
X174147500Y-106964000D01*
X174040800Y-101346000D02*
X174147500Y-101452700D01*
X173990000Y-94284800D02*
X173990000Y-97078800D01*
X175818800Y-92456000D02*
X173990000Y-94284800D01*
X179730400Y-92456000D02*
X175818800Y-92456000D01*
X181610000Y-90576400D02*
X179730400Y-92456000D01*
X174722000Y-106964000D02*
X174147500Y-106964000D01*
X174823600Y-106964000D02*
X174147500Y-106964000D01*
X181135500Y-106964000D02*
X179547500Y-106964000D01*
X181991000Y-106108500D02*
X181135500Y-106964000D01*
X181991000Y-101092000D02*
X181991000Y-106108500D01*
X184150000Y-98933000D02*
X181991000Y-101092000D01*
X184150000Y-88900000D02*
X184150000Y-98933000D01*
X182880000Y-101409500D02*
X182880000Y-106489500D01*
X186690000Y-97599500D02*
X182880000Y-101409500D01*
X186690000Y-88900000D02*
X186690000Y-97599500D01*
X181155500Y-108214000D02*
X179547500Y-108214000D01*
X182880000Y-106489500D02*
X181155500Y-108214000D01*
X189230000Y-88900000D02*
X189230000Y-96329500D01*
X181112000Y-109464000D02*
X179547500Y-109464000D01*
X183642000Y-106934000D02*
X181112000Y-109464000D01*
X183642000Y-101917500D02*
X183642000Y-106934000D01*
X189230000Y-96329500D02*
X183642000Y-101917500D01*
X191770000Y-88900000D02*
X191770000Y-95059500D01*
X185420000Y-101409500D02*
X185420000Y-106997500D01*
X191770000Y-95059500D02*
X185420000Y-101409500D01*
X194310000Y-88900000D02*
X194310000Y-96393000D01*
X187960000Y-102743000D02*
X187960000Y-106997500D01*
X194310000Y-96393000D02*
X187960000Y-102743000D01*
X169468800Y-112483200D02*
X172378300Y-112483200D01*
X172378300Y-112483200D02*
X174147500Y-110714000D01*
X134913500Y-92796500D02*
X137391000Y-92796500D01*
X167376000Y-93843000D02*
X167376000Y-94629000D01*
X166052500Y-92519500D02*
X167376000Y-93843000D01*
X152781000Y-93726000D02*
X155511500Y-93726000D01*
X150749000Y-91694000D02*
X152781000Y-93726000D01*
X138493500Y-91694000D02*
X150749000Y-91694000D01*
X137391000Y-92796500D02*
X138493500Y-91694000D01*
X162296000Y-101379000D02*
X154147500Y-101379000D01*
X137647000Y-96096500D02*
X134913500Y-96096500D01*
X139382500Y-94361000D02*
X137647000Y-96096500D01*
X147129500Y-94361000D02*
X139382500Y-94361000D01*
X154147500Y-101379000D02*
X147129500Y-94361000D01*
X134913500Y-94996500D02*
X137540500Y-94996500D01*
X162560000Y-96266000D02*
X163566000Y-95260000D01*
X151955500Y-94869000D02*
X157607000Y-94869000D01*
X150177500Y-93091000D02*
X151955500Y-94869000D01*
X139446000Y-93091000D02*
X150177500Y-93091000D01*
X137540500Y-94996500D02*
X139446000Y-93091000D01*
X163566000Y-95260000D02*
X163566000Y-94629000D01*
X162712400Y-126700000D02*
X162712400Y-128800000D01*
X162712400Y-125600000D02*
X162712400Y-126700000D01*
X162712400Y-126700000D02*
X162712400Y-127800000D01*
X164846000Y-105918000D02*
X143256000Y-105918000D01*
X133382700Y-93896500D02*
X134913500Y-93896500D01*
X132638800Y-94640400D02*
X133382700Y-93896500D01*
X132638800Y-99872800D02*
X132638800Y-94640400D01*
X134416800Y-101650800D02*
X132638800Y-99872800D01*
X138988800Y-101650800D02*
X134416800Y-101650800D01*
X143256000Y-105918000D02*
X138988800Y-101650800D01*
X162712400Y-126700000D02*
X169358000Y-126700000D01*
X169358000Y-126700000D02*
X169402400Y-126744400D01*
X162724400Y-119837200D02*
X162724400Y-125588000D01*
X162724400Y-125588000D02*
X162712400Y-125600000D01*
X169916000Y-101379000D02*
X169916000Y-102981600D01*
X162724400Y-118656800D02*
X162724400Y-119837200D01*
X164846000Y-116535200D02*
X162724400Y-118656800D01*
X164846000Y-105816400D02*
X164846000Y-105918000D01*
X164846000Y-105918000D02*
X164846000Y-116535200D01*
X167081200Y-103581200D02*
X164846000Y-105816400D01*
X169316400Y-103581200D02*
X167081200Y-103581200D01*
X169916000Y-102981600D02*
X169316400Y-103581200D01*
G36*
X196215000Y-136908635D02*
X196165000Y-137160000D01*
X196165000Y-139015000D01*
X195808600Y-139015000D01*
X195808600Y-137408245D01*
X195808600Y-137038755D01*
X195808600Y-89084745D01*
X195808600Y-88715255D01*
X195694526Y-88141766D01*
X195369670Y-87655585D01*
X194883489Y-87330729D01*
X194310000Y-87216655D01*
X193736511Y-87330729D01*
X193250330Y-87655585D01*
X193040000Y-87970365D01*
X192829670Y-87655585D01*
X192343489Y-87330729D01*
X191770000Y-87216655D01*
X191196511Y-87330729D01*
X190710330Y-87655585D01*
X190500000Y-87970365D01*
X190289670Y-87655585D01*
X189803489Y-87330729D01*
X189230000Y-87216655D01*
X188656511Y-87330729D01*
X188170330Y-87655585D01*
X187960000Y-87970365D01*
X187749670Y-87655585D01*
X187263489Y-87330729D01*
X186690000Y-87216655D01*
X186116511Y-87330729D01*
X185630330Y-87655585D01*
X185420000Y-87970365D01*
X185209670Y-87655585D01*
X184723489Y-87330729D01*
X184150000Y-87216655D01*
X183576511Y-87330729D01*
X183090330Y-87655585D01*
X182880000Y-87970365D01*
X182669670Y-87655585D01*
X182183489Y-87330729D01*
X181610000Y-87216655D01*
X181036511Y-87330729D01*
X180550330Y-87655585D01*
X180340000Y-87970365D01*
X180129670Y-87655585D01*
X179643489Y-87330729D01*
X179070000Y-87216655D01*
X178496511Y-87330729D01*
X178010330Y-87655585D01*
X177995499Y-87677780D01*
X177931927Y-87524302D01*
X177753299Y-87345673D01*
X177519910Y-87249000D01*
X177267291Y-87249000D01*
X175540091Y-87249000D01*
X175306702Y-87345673D01*
X175128073Y-87524301D01*
X175031400Y-87757690D01*
X175031400Y-88010309D01*
X175031400Y-90042309D01*
X175128073Y-90275698D01*
X175306701Y-90454327D01*
X175540090Y-90551000D01*
X175792709Y-90551000D01*
X177519909Y-90551000D01*
X177753298Y-90454327D01*
X177931927Y-90275699D01*
X177995500Y-90122220D01*
X178010330Y-90144415D01*
X178496511Y-90469271D01*
X179070000Y-90583345D01*
X179643489Y-90469271D01*
X180129670Y-90144415D01*
X180340000Y-89829634D01*
X180550330Y-90144415D01*
X180798519Y-90310249D01*
X179414769Y-91694000D01*
X175818800Y-91694000D01*
X175527195Y-91752004D01*
X175428176Y-91818165D01*
X175279985Y-91917184D01*
X173451185Y-93745985D01*
X173286004Y-93993195D01*
X173228000Y-94284800D01*
X173228000Y-96314158D01*
X173075378Y-96466514D01*
X172910687Y-96863132D01*
X172910313Y-97292584D01*
X173074311Y-97689489D01*
X173377714Y-97993422D01*
X173774332Y-98158113D01*
X174203784Y-98158487D01*
X174600689Y-97994489D01*
X174904622Y-97691086D01*
X175069313Y-97294468D01*
X175069687Y-96865016D01*
X174905689Y-96468111D01*
X174752000Y-96314153D01*
X174752000Y-94600430D01*
X176134430Y-93218000D01*
X176364899Y-93218000D01*
X176364713Y-93431784D01*
X176528711Y-93828689D01*
X176832114Y-94132622D01*
X177228732Y-94297313D01*
X177658184Y-94297687D01*
X178055089Y-94133689D01*
X178107268Y-94081600D01*
X180286558Y-94081600D01*
X180438914Y-94234222D01*
X180835532Y-94398913D01*
X181264984Y-94399287D01*
X181661889Y-94235289D01*
X181965822Y-93931886D01*
X182130513Y-93535268D01*
X182130887Y-93105816D01*
X181966889Y-92708911D01*
X181663486Y-92404978D01*
X181266868Y-92240287D01*
X181023954Y-92240075D01*
X182148815Y-91115215D01*
X182148816Y-91115215D01*
X182247834Y-90967023D01*
X182313996Y-90868005D01*
X182313996Y-90868004D01*
X182372000Y-90576400D01*
X182372000Y-90343311D01*
X182669670Y-90144415D01*
X182880000Y-89829634D01*
X183090330Y-90144415D01*
X183388000Y-90343311D01*
X183388000Y-98617370D01*
X181452185Y-100553185D01*
X181287004Y-100800395D01*
X181229000Y-101092000D01*
X181229000Y-105792869D01*
X180819869Y-106202000D01*
X180783525Y-106202000D01*
X180707199Y-106125673D01*
X180473810Y-106029000D01*
X180221191Y-106029000D01*
X178621191Y-106029000D01*
X178387802Y-106125673D01*
X178209173Y-106304301D01*
X178112500Y-106537690D01*
X178112500Y-106790309D01*
X178112500Y-107390309D01*
X178194800Y-107588999D01*
X178112500Y-107787690D01*
X178112500Y-108040309D01*
X178112500Y-108640309D01*
X178194800Y-108838999D01*
X178112500Y-109037690D01*
X178112500Y-109290309D01*
X178112500Y-109890309D01*
X178194800Y-110089000D01*
X178112500Y-110287691D01*
X178112500Y-110428250D01*
X178271250Y-110587000D01*
X179420500Y-110587000D01*
X179420500Y-110567000D01*
X179674500Y-110567000D01*
X179674500Y-110587000D01*
X180823750Y-110587000D01*
X180982500Y-110428250D01*
X180982500Y-110287691D01*
X180956946Y-110226000D01*
X181112000Y-110226000D01*
X181112000Y-110225999D01*
X181403604Y-110167996D01*
X181403605Y-110167996D01*
X181650815Y-110002815D01*
X184180815Y-107472816D01*
X184180815Y-107472815D01*
X184218778Y-107415999D01*
X184342718Y-107715958D01*
X184699663Y-108073526D01*
X185166273Y-108267279D01*
X185168487Y-108267280D01*
X184701542Y-108460218D01*
X184343974Y-108817163D01*
X184150221Y-109283773D01*
X184149780Y-109789010D01*
X184342718Y-110255958D01*
X184699663Y-110613526D01*
X185166273Y-110807279D01*
X185168487Y-110807280D01*
X184701542Y-111000218D01*
X184343974Y-111357163D01*
X184150221Y-111823773D01*
X184149780Y-112329010D01*
X184342718Y-112795958D01*
X184699663Y-113153526D01*
X185166273Y-113347279D01*
X185168487Y-113347280D01*
X184701542Y-113540218D01*
X184343974Y-113897163D01*
X184150221Y-114363773D01*
X184149780Y-114869010D01*
X184342718Y-115335958D01*
X184699663Y-115693526D01*
X185166273Y-115887279D01*
X185168487Y-115887280D01*
X184701542Y-116080218D01*
X184343974Y-116437163D01*
X184150221Y-116903773D01*
X184149780Y-117409010D01*
X184342718Y-117875958D01*
X184699663Y-118233526D01*
X185166273Y-118427279D01*
X185168487Y-118427280D01*
X184701542Y-118620218D01*
X184343974Y-118977163D01*
X184150221Y-119443773D01*
X184149780Y-119949010D01*
X184342718Y-120415958D01*
X184699663Y-120773526D01*
X185166273Y-120967279D01*
X185168487Y-120967280D01*
X184701542Y-121160218D01*
X184343974Y-121517163D01*
X184150221Y-121983773D01*
X184149780Y-122489010D01*
X184342718Y-122955958D01*
X184699663Y-123313526D01*
X185166273Y-123507279D01*
X185168487Y-123507280D01*
X184701542Y-123700218D01*
X184343974Y-124057163D01*
X184150221Y-124523773D01*
X184149780Y-125029010D01*
X184342718Y-125495958D01*
X184699663Y-125853526D01*
X185166273Y-126047279D01*
X185671510Y-126047720D01*
X186138458Y-125854782D01*
X186496026Y-125497837D01*
X186689779Y-125031227D01*
X186689968Y-124814429D01*
X186707094Y-125104523D01*
X186842821Y-125432197D01*
X187071867Y-125486028D01*
X187780395Y-124777500D01*
X187071867Y-124068972D01*
X186842821Y-124122803D01*
X186690187Y-124563046D01*
X186690220Y-124525990D01*
X186497282Y-124059042D01*
X186140337Y-123701474D01*
X185673727Y-123507721D01*
X185671512Y-123507719D01*
X186138458Y-123314782D01*
X186496026Y-122957837D01*
X186689779Y-122491227D01*
X186689968Y-122274429D01*
X186707094Y-122564523D01*
X186842821Y-122892197D01*
X187071867Y-122946028D01*
X187780395Y-122237500D01*
X187071867Y-121528972D01*
X186842821Y-121582803D01*
X186690187Y-122023046D01*
X186690220Y-121985990D01*
X186497282Y-121519042D01*
X186140337Y-121161474D01*
X185673727Y-120967721D01*
X185671512Y-120967719D01*
X186138458Y-120774782D01*
X186496026Y-120417837D01*
X186689779Y-119951227D01*
X186689968Y-119734429D01*
X186707094Y-120024523D01*
X186842821Y-120352197D01*
X187071867Y-120406028D01*
X187780395Y-119697500D01*
X187071867Y-118988972D01*
X186842821Y-119042803D01*
X186690187Y-119483046D01*
X186690220Y-119445990D01*
X186497282Y-118979042D01*
X186140337Y-118621474D01*
X185673727Y-118427721D01*
X185671512Y-118427719D01*
X186138458Y-118234782D01*
X186496026Y-117877837D01*
X186689779Y-117411227D01*
X186689780Y-117409012D01*
X186882718Y-117875958D01*
X187239663Y-118233526D01*
X187706273Y-118427279D01*
X187923070Y-118427468D01*
X187632977Y-118444594D01*
X187305303Y-118580321D01*
X187251472Y-118809367D01*
X187960000Y-119517895D01*
X188668528Y-118809367D01*
X188614697Y-118580321D01*
X188174453Y-118427687D01*
X188211510Y-118427720D01*
X188678458Y-118234782D01*
X189036026Y-117877837D01*
X189229779Y-117411227D01*
X189230220Y-116905990D01*
X189037282Y-116439042D01*
X188680337Y-116081474D01*
X188213727Y-115887721D01*
X188211512Y-115887719D01*
X188678458Y-115694782D01*
X189036026Y-115337837D01*
X189229779Y-114871227D01*
X189230220Y-114365990D01*
X189037282Y-113899042D01*
X188680337Y-113541474D01*
X188213727Y-113347721D01*
X188211512Y-113347719D01*
X188678458Y-113154782D01*
X189036026Y-112797837D01*
X189229779Y-112331227D01*
X189230220Y-111825990D01*
X189037282Y-111359042D01*
X188680337Y-111001474D01*
X188213727Y-110807721D01*
X188211512Y-110807719D01*
X188678458Y-110614782D01*
X189036026Y-110257837D01*
X189229779Y-109791227D01*
X189230220Y-109285990D01*
X189037282Y-108819042D01*
X188680337Y-108461474D01*
X188213727Y-108267721D01*
X188211512Y-108267719D01*
X188678458Y-108074782D01*
X189036026Y-107717837D01*
X189229779Y-107251227D01*
X189230220Y-106745990D01*
X189037282Y-106279042D01*
X188722000Y-105963209D01*
X188722000Y-103058630D01*
X194848815Y-96931815D01*
X195013996Y-96684605D01*
X195071999Y-96393000D01*
X195072000Y-96393000D01*
X195072000Y-90343311D01*
X195369670Y-90144415D01*
X195694526Y-89658234D01*
X195808600Y-89084745D01*
X195808600Y-137038755D01*
X195694526Y-136465266D01*
X195369670Y-135979085D01*
X194883489Y-135654229D01*
X194310000Y-135540155D01*
X193736511Y-135654229D01*
X193250330Y-135979085D01*
X193040000Y-136293865D01*
X192829670Y-135979085D01*
X192343489Y-135654229D01*
X191770000Y-135540155D01*
X191196511Y-135654229D01*
X190710330Y-135979085D01*
X190500000Y-136293865D01*
X190289670Y-135979085D01*
X190157287Y-135890629D01*
X190157287Y-128513416D01*
X189993289Y-128116511D01*
X189689886Y-127812578D01*
X189293268Y-127647887D01*
X189242681Y-127647842D01*
X189242681Y-124954836D01*
X189242681Y-122414836D01*
X189242681Y-119874836D01*
X189212906Y-119370477D01*
X189077179Y-119042803D01*
X188848133Y-118988972D01*
X188139605Y-119697500D01*
X188848133Y-120406028D01*
X189077179Y-120352197D01*
X189242681Y-119874836D01*
X189242681Y-122414836D01*
X189212906Y-121910477D01*
X189077179Y-121582803D01*
X188848133Y-121528972D01*
X188668528Y-121708577D01*
X188668528Y-121349367D01*
X188614697Y-121120321D01*
X188148239Y-120958599D01*
X188287023Y-120950406D01*
X188614697Y-120814679D01*
X188668528Y-120585633D01*
X187960000Y-119877105D01*
X187251472Y-120585633D01*
X187305303Y-120814679D01*
X187771760Y-120976400D01*
X187632977Y-120984594D01*
X187305303Y-121120321D01*
X187251472Y-121349367D01*
X187960000Y-122057895D01*
X188668528Y-121349367D01*
X188668528Y-121708577D01*
X188139605Y-122237500D01*
X188848133Y-122946028D01*
X189077179Y-122892197D01*
X189242681Y-122414836D01*
X189242681Y-124954836D01*
X189212906Y-124450477D01*
X189077179Y-124122803D01*
X188848133Y-124068972D01*
X188668528Y-124248577D01*
X188668528Y-123889367D01*
X188614697Y-123660321D01*
X188148239Y-123498599D01*
X188287023Y-123490406D01*
X188614697Y-123354679D01*
X188668528Y-123125633D01*
X187960000Y-122417105D01*
X187251472Y-123125633D01*
X187305303Y-123354679D01*
X187771760Y-123516400D01*
X187632977Y-123524594D01*
X187305303Y-123660321D01*
X187251472Y-123889367D01*
X187960000Y-124597895D01*
X188668528Y-123889367D01*
X188668528Y-124248577D01*
X188139605Y-124777500D01*
X188848133Y-125486028D01*
X189077179Y-125432197D01*
X189242681Y-124954836D01*
X189242681Y-127647842D01*
X188863816Y-127647513D01*
X188668528Y-127728204D01*
X188668528Y-125665633D01*
X187960000Y-124957105D01*
X187251472Y-125665633D01*
X187305303Y-125894679D01*
X187782664Y-126060181D01*
X188287023Y-126030406D01*
X188614697Y-125894679D01*
X188668528Y-125665633D01*
X188668528Y-127728204D01*
X188466911Y-127811511D01*
X188162978Y-128114914D01*
X188161862Y-128117600D01*
X184012425Y-128117600D01*
X184124327Y-128005699D01*
X184221000Y-127772310D01*
X184221000Y-127519691D01*
X184221000Y-125919691D01*
X184124327Y-125686302D01*
X183945699Y-125507673D01*
X183712310Y-125411000D01*
X183459691Y-125411000D01*
X182948000Y-125411000D01*
X182948000Y-124902671D01*
X183083422Y-124767486D01*
X183248113Y-124370868D01*
X183248487Y-123941416D01*
X183084489Y-123544511D01*
X182781086Y-123240578D01*
X182715600Y-123213385D01*
X182715600Y-122627825D01*
X182891927Y-122451499D01*
X182988600Y-122218110D01*
X182988600Y-121965491D01*
X182988600Y-121215491D01*
X182891927Y-120982102D01*
X182713299Y-120803473D01*
X182479910Y-120706800D01*
X182227291Y-120706800D01*
X181427291Y-120706800D01*
X181203600Y-120799455D01*
X180979909Y-120706800D01*
X180739350Y-120706800D01*
X180580600Y-120865550D01*
X180580600Y-121589800D01*
X180600600Y-121589800D01*
X180600600Y-121843800D01*
X180580600Y-121843800D01*
X180580600Y-122568050D01*
X180739350Y-122726800D01*
X180979909Y-122726800D01*
X181191600Y-122639114D01*
X181191600Y-123693617D01*
X181089487Y-123939532D01*
X181089113Y-124368984D01*
X181253111Y-124765889D01*
X181424000Y-124937076D01*
X181424000Y-125411000D01*
X180659691Y-125411000D01*
X180426302Y-125507673D01*
X180326600Y-125607374D01*
X180326600Y-122568050D01*
X180326600Y-121843800D01*
X180326600Y-121589800D01*
X180326600Y-120865550D01*
X180167850Y-120706800D01*
X179927291Y-120706800D01*
X179693902Y-120803473D01*
X179515273Y-120982101D01*
X179418600Y-121215490D01*
X179418600Y-121431050D01*
X179577350Y-121589800D01*
X180326600Y-121589800D01*
X180326600Y-121843800D01*
X179577350Y-121843800D01*
X179418600Y-122002550D01*
X179418600Y-122218110D01*
X179515273Y-122451499D01*
X179693902Y-122630127D01*
X179927291Y-122726800D01*
X180167850Y-122726800D01*
X180326600Y-122568050D01*
X180326600Y-125607374D01*
X180247673Y-125686301D01*
X180151000Y-125919690D01*
X180151000Y-126172309D01*
X180151000Y-127772309D01*
X180162502Y-127800077D01*
X179973816Y-127799913D01*
X179896299Y-127831942D01*
X179921000Y-127772309D01*
X179921000Y-127131750D01*
X179921000Y-126560250D01*
X179921000Y-125919691D01*
X179824327Y-125686302D01*
X179645699Y-125507673D01*
X179412310Y-125411000D01*
X179159691Y-125411000D01*
X179026820Y-125411000D01*
X179026820Y-122343490D01*
X179026820Y-122090871D01*
X179026820Y-122002550D01*
X179026820Y-121431050D01*
X179026820Y-121342729D01*
X179026820Y-121090110D01*
X178930147Y-120856721D01*
X178751518Y-120678093D01*
X178518129Y-120581420D01*
X178227990Y-120581420D01*
X178069240Y-120740170D01*
X178069240Y-121589800D01*
X178868070Y-121589800D01*
X179026820Y-121431050D01*
X179026820Y-122002550D01*
X178868070Y-121843800D01*
X178069240Y-121843800D01*
X178069240Y-122693430D01*
X178227990Y-122852180D01*
X178518129Y-122852180D01*
X178751518Y-122755507D01*
X178930147Y-122576879D01*
X179026820Y-122343490D01*
X179026820Y-125411000D01*
X178171750Y-125411000D01*
X178013000Y-125569750D01*
X178013000Y-126719000D01*
X179762250Y-126719000D01*
X179921000Y-126560250D01*
X179921000Y-127131750D01*
X179762250Y-126973000D01*
X178013000Y-126973000D01*
X178013000Y-128122250D01*
X178171750Y-128281000D01*
X179159691Y-128281000D01*
X179267295Y-128281000D01*
X179108287Y-128663932D01*
X179107913Y-129093384D01*
X179271911Y-129490289D01*
X179575314Y-129794222D01*
X179971932Y-129958913D01*
X180401384Y-129959287D01*
X180798289Y-129795289D01*
X180952246Y-129641600D01*
X188465092Y-129641600D01*
X188465314Y-129641822D01*
X188861932Y-129806513D01*
X189291384Y-129806887D01*
X189688289Y-129642889D01*
X189992222Y-129339486D01*
X190156913Y-128942868D01*
X190157287Y-128513416D01*
X190157287Y-135890629D01*
X189803489Y-135654229D01*
X189230000Y-135540155D01*
X188656511Y-135654229D01*
X188170330Y-135979085D01*
X187960000Y-136293865D01*
X187749670Y-135979085D01*
X187263489Y-135654229D01*
X186690000Y-135540155D01*
X186116511Y-135654229D01*
X185630330Y-135979085D01*
X185420000Y-136293865D01*
X185209670Y-135979085D01*
X184912000Y-135780188D01*
X184912000Y-133146800D01*
X184853996Y-132855196D01*
X184853996Y-132855195D01*
X184688815Y-132607985D01*
X184365899Y-132285069D01*
X184366087Y-132069416D01*
X184202089Y-131672511D01*
X183898686Y-131368578D01*
X183502068Y-131203887D01*
X183072616Y-131203513D01*
X182675711Y-131367511D01*
X182371778Y-131670914D01*
X182207087Y-132067532D01*
X182206713Y-132496984D01*
X182370711Y-132893889D01*
X182674114Y-133197822D01*
X183070732Y-133362513D01*
X183288272Y-133362702D01*
X183388000Y-133462430D01*
X183388000Y-135780188D01*
X183090330Y-135979085D01*
X183075499Y-136001280D01*
X183011927Y-135847802D01*
X182833299Y-135669173D01*
X182599910Y-135572500D01*
X182372000Y-135572500D01*
X182372000Y-134213600D01*
X182313996Y-133921996D01*
X182313996Y-133921995D01*
X182247834Y-133822976D01*
X182148816Y-133674785D01*
X181927499Y-133453468D01*
X181927687Y-133237816D01*
X181763689Y-132840911D01*
X181460286Y-132536978D01*
X181063668Y-132372287D01*
X180634216Y-132371913D01*
X180237311Y-132535911D01*
X179933378Y-132839314D01*
X179768687Y-133235932D01*
X179768313Y-133665384D01*
X179932311Y-134062289D01*
X180235714Y-134366222D01*
X180632332Y-134530913D01*
X180848000Y-134531100D01*
X180848000Y-135572500D01*
X180620091Y-135572500D01*
X180386702Y-135669173D01*
X180208073Y-135847801D01*
X180111400Y-136081190D01*
X180111400Y-136333809D01*
X180111400Y-138365809D01*
X180208073Y-138599198D01*
X180386701Y-138777827D01*
X180620090Y-138874500D01*
X180872709Y-138874500D01*
X182599909Y-138874500D01*
X182833298Y-138777827D01*
X183011927Y-138599199D01*
X183075500Y-138445720D01*
X183090330Y-138467915D01*
X183576511Y-138792771D01*
X184150000Y-138906845D01*
X184723489Y-138792771D01*
X185209670Y-138467915D01*
X185420000Y-138153134D01*
X185630330Y-138467915D01*
X186116511Y-138792771D01*
X186690000Y-138906845D01*
X187263489Y-138792771D01*
X187749670Y-138467915D01*
X187960000Y-138153134D01*
X188170330Y-138467915D01*
X188656511Y-138792771D01*
X189230000Y-138906845D01*
X189803489Y-138792771D01*
X190289670Y-138467915D01*
X190500000Y-138153134D01*
X190710330Y-138467915D01*
X191196511Y-138792771D01*
X191770000Y-138906845D01*
X192343489Y-138792771D01*
X192829670Y-138467915D01*
X193040000Y-138153134D01*
X193250330Y-138467915D01*
X193736511Y-138792771D01*
X194310000Y-138906845D01*
X194883489Y-138792771D01*
X195369670Y-138467915D01*
X195694526Y-137981734D01*
X195808600Y-137408245D01*
X195808600Y-139015000D01*
X178028600Y-139015000D01*
X178028600Y-137344745D01*
X178028600Y-136975255D01*
X177914526Y-136401766D01*
X177589670Y-135915585D01*
X177103489Y-135590729D01*
X176530000Y-135476655D01*
X175956511Y-135590729D01*
X175470330Y-135915585D01*
X175260000Y-136230365D01*
X175049670Y-135915585D01*
X174563489Y-135590729D01*
X173990000Y-135476655D01*
X173416511Y-135590729D01*
X172930330Y-135915585D01*
X172720000Y-136230365D01*
X172509670Y-135915585D01*
X172023489Y-135590729D01*
X171450000Y-135476655D01*
X170876511Y-135590729D01*
X170390330Y-135915585D01*
X170183539Y-136225069D01*
X169812036Y-135809268D01*
X169284791Y-135555291D01*
X169269026Y-135552642D01*
X169037000Y-135673783D01*
X169037000Y-137033000D01*
X169057000Y-137033000D01*
X169057000Y-137287000D01*
X169037000Y-137287000D01*
X169037000Y-138646217D01*
X169269026Y-138767358D01*
X169284791Y-138764709D01*
X169812036Y-138510732D01*
X170183539Y-138094930D01*
X170390330Y-138404415D01*
X170876511Y-138729271D01*
X171450000Y-138843345D01*
X172023489Y-138729271D01*
X172509670Y-138404415D01*
X172720000Y-138089634D01*
X172930330Y-138404415D01*
X173416511Y-138729271D01*
X173990000Y-138843345D01*
X174563489Y-138729271D01*
X175049670Y-138404415D01*
X175260000Y-138089634D01*
X175470330Y-138404415D01*
X175956511Y-138729271D01*
X176530000Y-138843345D01*
X177103489Y-138729271D01*
X177589670Y-138404415D01*
X177914526Y-137918234D01*
X178028600Y-137344745D01*
X178028600Y-139015000D01*
X168783000Y-139015000D01*
X168783000Y-138646217D01*
X168783000Y-137287000D01*
X168763000Y-137287000D01*
X168763000Y-137033000D01*
X168783000Y-137033000D01*
X168783000Y-135673783D01*
X168550974Y-135552642D01*
X168535209Y-135555291D01*
X168007964Y-135809268D01*
X167636460Y-136225069D01*
X167429670Y-135915585D01*
X166943489Y-135590729D01*
X166370000Y-135476655D01*
X165796511Y-135590729D01*
X165310330Y-135915585D01*
X165295499Y-135937780D01*
X165231927Y-135784302D01*
X165088540Y-135640914D01*
X165053299Y-135605673D01*
X164819910Y-135509000D01*
X164567291Y-135509000D01*
X162840091Y-135509000D01*
X162606702Y-135605673D01*
X162428073Y-135784301D01*
X162331400Y-136017690D01*
X162331400Y-136270309D01*
X162331400Y-138302309D01*
X162428073Y-138535698D01*
X162606701Y-138714327D01*
X162840090Y-138811000D01*
X163092709Y-138811000D01*
X164819909Y-138811000D01*
X165053298Y-138714327D01*
X165231927Y-138535699D01*
X165295500Y-138382220D01*
X165310330Y-138404415D01*
X165796511Y-138729271D01*
X166370000Y-138843345D01*
X166943489Y-138729271D01*
X167429670Y-138404415D01*
X167636460Y-138094930D01*
X168007964Y-138510732D01*
X168535209Y-138764709D01*
X168550974Y-138767358D01*
X168783000Y-138646217D01*
X168783000Y-139015000D01*
X131495000Y-139015000D01*
X131495000Y-87045000D01*
X134281314Y-87045000D01*
X134128802Y-87108173D01*
X133950173Y-87286801D01*
X133853500Y-87520190D01*
X133853500Y-87772809D01*
X133853500Y-88535810D01*
X133678802Y-88608173D01*
X133500173Y-88786801D01*
X133403500Y-89020190D01*
X133403500Y-89272809D01*
X133403500Y-89972809D01*
X133434023Y-90046499D01*
X133403500Y-90120190D01*
X133403500Y-90372809D01*
X133403500Y-90881169D01*
X133301886Y-90779378D01*
X132905268Y-90614687D01*
X132475816Y-90614313D01*
X132078911Y-90778311D01*
X131774978Y-91081714D01*
X131610287Y-91478332D01*
X131609913Y-91907784D01*
X131773911Y-92304689D01*
X132077314Y-92608622D01*
X132473932Y-92773313D01*
X132903384Y-92773687D01*
X133300289Y-92609689D01*
X133403500Y-92506657D01*
X133403500Y-92572809D01*
X133403500Y-93134500D01*
X133382700Y-93134500D01*
X133091095Y-93192504D01*
X132843884Y-93357685D01*
X132099985Y-94101585D01*
X131934804Y-94348795D01*
X131876800Y-94640400D01*
X131876800Y-99872800D01*
X131934804Y-100164405D01*
X132099985Y-100411615D01*
X133877985Y-102189616D01*
X134026176Y-102288634D01*
X134125195Y-102354796D01*
X134125196Y-102354796D01*
X134416800Y-102412800D01*
X138673170Y-102412800D01*
X139838536Y-103578166D01*
X139598400Y-103530400D01*
X136348938Y-103530400D01*
X136348489Y-103529311D01*
X136045086Y-103225378D01*
X135648468Y-103060687D01*
X135219016Y-103060313D01*
X134822111Y-103224311D01*
X134518178Y-103527714D01*
X134353487Y-103924332D01*
X134353113Y-104353784D01*
X134517111Y-104750689D01*
X134820514Y-105054622D01*
X135217132Y-105219313D01*
X135646584Y-105219687D01*
X136043489Y-105055689D01*
X136044780Y-105054400D01*
X136183969Y-105054400D01*
X135426685Y-105811685D01*
X135299613Y-106001861D01*
X135299611Y-106001862D01*
X135177173Y-106124301D01*
X135080500Y-106357690D01*
X135080500Y-106610309D01*
X135080500Y-107510309D01*
X135177173Y-107743698D01*
X135203500Y-107770025D01*
X135203500Y-111823300D01*
X135261504Y-112114905D01*
X135426685Y-112362115D01*
X135670800Y-112606230D01*
X135670800Y-113389909D01*
X135767473Y-113623298D01*
X135946101Y-113801927D01*
X135948897Y-113803085D01*
X135948898Y-113803085D01*
X136066985Y-113979815D01*
X138343800Y-116256630D01*
X138343800Y-116454152D01*
X138282110Y-116428600D01*
X138029491Y-116428600D01*
X137429491Y-116428600D01*
X137230800Y-116510900D01*
X137032110Y-116428600D01*
X136779491Y-116428600D01*
X136179491Y-116428600D01*
X135946102Y-116525273D01*
X135767473Y-116703901D01*
X135670800Y-116937290D01*
X135670800Y-117189909D01*
X135670800Y-118789909D01*
X135767473Y-119023298D01*
X135946101Y-119201927D01*
X136179490Y-119298600D01*
X136432109Y-119298600D01*
X137032109Y-119298600D01*
X137230799Y-119216299D01*
X137429490Y-119298600D01*
X137682109Y-119298600D01*
X138039710Y-119298600D01*
X138011087Y-119367532D01*
X138010810Y-119684800D01*
X136400641Y-119684800D01*
X136248286Y-119532178D01*
X135851668Y-119367487D01*
X135422216Y-119367113D01*
X135025311Y-119531111D01*
X134721378Y-119834514D01*
X134556687Y-120231132D01*
X134556313Y-120660584D01*
X134720311Y-121057489D01*
X135023714Y-121361422D01*
X135420332Y-121526113D01*
X135849784Y-121526487D01*
X136246689Y-121362489D01*
X136400646Y-121208800D01*
X149301200Y-121208800D01*
X149707600Y-121208800D01*
X149809200Y-121208800D01*
X156402369Y-121208800D01*
X157056093Y-121862524D01*
X156920111Y-121918711D01*
X156766153Y-122072400D01*
X153873200Y-122072400D01*
X153581595Y-122130404D01*
X153334385Y-122295585D01*
X151134385Y-124495585D01*
X151065819Y-124598200D01*
X150146891Y-124598200D01*
X149913502Y-124694873D01*
X149734873Y-124873501D01*
X149638200Y-125106890D01*
X149638200Y-125359509D01*
X149638200Y-126695200D01*
X143309530Y-126695200D01*
X143207886Y-126593378D01*
X142811268Y-126428687D01*
X142381816Y-126428313D01*
X141984911Y-126592311D01*
X141680978Y-126895714D01*
X141516287Y-127292332D01*
X141515913Y-127721784D01*
X141679911Y-128118689D01*
X141983314Y-128422622D01*
X142379932Y-128587313D01*
X142809384Y-128587687D01*
X142924068Y-128540300D01*
X140209869Y-131254500D01*
X139047811Y-131254500D01*
X138848915Y-130956830D01*
X138534134Y-130746500D01*
X138848915Y-130536170D01*
X139173771Y-130049989D01*
X139287845Y-129476500D01*
X139173771Y-128903011D01*
X138848915Y-128416830D01*
X138362734Y-128091974D01*
X137789245Y-127977900D01*
X137419755Y-127977900D01*
X136846266Y-128091974D01*
X136360085Y-128416830D01*
X136035229Y-128903011D01*
X135921155Y-129476500D01*
X136035229Y-130049989D01*
X136360085Y-130536170D01*
X136674865Y-130746500D01*
X136360085Y-130956830D01*
X136035229Y-131443011D01*
X135921155Y-132016500D01*
X136035229Y-132589989D01*
X136360085Y-133076170D01*
X136674865Y-133286500D01*
X136360085Y-133496830D01*
X136035229Y-133983011D01*
X135921155Y-134556500D01*
X136035229Y-135129989D01*
X136360085Y-135616170D01*
X136382280Y-135631000D01*
X136228802Y-135694573D01*
X136050173Y-135873201D01*
X135953500Y-136106590D01*
X135953500Y-136359209D01*
X135953500Y-138086409D01*
X136050173Y-138319798D01*
X136228801Y-138498427D01*
X136462190Y-138595100D01*
X136714809Y-138595100D01*
X138746809Y-138595100D01*
X138980198Y-138498427D01*
X139158827Y-138319799D01*
X139255500Y-138086410D01*
X139255500Y-137833791D01*
X139255500Y-136106591D01*
X139158827Y-135873202D01*
X138980199Y-135694573D01*
X138826720Y-135630999D01*
X138848915Y-135616170D01*
X139173771Y-135129989D01*
X139287845Y-134556500D01*
X139173771Y-133983011D01*
X138848915Y-133496830D01*
X138534134Y-133286500D01*
X138848915Y-133076170D01*
X139047811Y-132778500D01*
X140525500Y-132778500D01*
X140525500Y-132778499D01*
X140817104Y-132720496D01*
X140817105Y-132720496D01*
X141064315Y-132555315D01*
X143927230Y-129692400D01*
X144056276Y-129692400D01*
X144055913Y-130109384D01*
X144219911Y-130506289D01*
X144407000Y-130693704D01*
X144407000Y-130842000D01*
X144342691Y-130842000D01*
X143742691Y-130842000D01*
X143509302Y-130938673D01*
X143330673Y-131117301D01*
X143234000Y-131350690D01*
X143234000Y-131603309D01*
X143234000Y-131742000D01*
X142692691Y-131742000D01*
X142459302Y-131838673D01*
X142280673Y-132017301D01*
X142184000Y-132250690D01*
X142184000Y-132503309D01*
X142184000Y-136703309D01*
X142280673Y-136936698D01*
X142459301Y-137115327D01*
X142692690Y-137212000D01*
X142945309Y-137212000D01*
X143645309Y-137212000D01*
X143878698Y-137115327D01*
X144057327Y-136936699D01*
X144154000Y-136703310D01*
X144154000Y-136450691D01*
X144154000Y-136189230D01*
X144919700Y-136954931D01*
X144919513Y-137170584D01*
X145083511Y-137567489D01*
X145386914Y-137871422D01*
X145783532Y-138036113D01*
X146212984Y-138036487D01*
X146609889Y-137872489D01*
X146913822Y-137569086D01*
X147078513Y-137172468D01*
X147078887Y-136743016D01*
X146914889Y-136346111D01*
X146611486Y-136042178D01*
X146214868Y-135877487D01*
X145997328Y-135877297D01*
X145517318Y-135397287D01*
X145797089Y-135281689D01*
X146101022Y-134978286D01*
X146265713Y-134581668D01*
X146266087Y-134152216D01*
X146249470Y-134112000D01*
X146595309Y-134112000D01*
X146668999Y-134081476D01*
X146742690Y-134112000D01*
X146995309Y-134112000D01*
X147184000Y-134112000D01*
X147184000Y-136703309D01*
X147280673Y-136936698D01*
X147459301Y-137115327D01*
X147692690Y-137212000D01*
X147945309Y-137212000D01*
X148645309Y-137212000D01*
X148878698Y-137115327D01*
X149057327Y-136936699D01*
X149154000Y-136703310D01*
X149154000Y-136450691D01*
X149154000Y-132250691D01*
X149057327Y-132017302D01*
X148881828Y-131841802D01*
X151721030Y-129002600D01*
X154239369Y-129002600D01*
X155384500Y-130147731D01*
X155384313Y-130363384D01*
X155548311Y-130760289D01*
X155851714Y-131064222D01*
X156248332Y-131228913D01*
X156677784Y-131229287D01*
X157074689Y-131065289D01*
X157378622Y-130761886D01*
X157543313Y-130365268D01*
X157543687Y-129935816D01*
X157379689Y-129538911D01*
X157076286Y-129234978D01*
X156679668Y-129070287D01*
X156462128Y-129070097D01*
X155093815Y-127701785D01*
X154846605Y-127536604D01*
X154555000Y-127478600D01*
X151721030Y-127478600D01*
X151710630Y-127468200D01*
X153199509Y-127468200D01*
X153432898Y-127371527D01*
X153611527Y-127192899D01*
X153708200Y-126959510D01*
X153708200Y-126706891D01*
X153708200Y-125106891D01*
X153611527Y-124873502D01*
X153432899Y-124694873D01*
X153199510Y-124598200D01*
X153187030Y-124598200D01*
X154188830Y-123596400D01*
X156766158Y-123596400D01*
X156918514Y-123749022D01*
X157315132Y-123913713D01*
X157530800Y-123913900D01*
X157530800Y-124253892D01*
X157530578Y-124254114D01*
X157387700Y-124598200D01*
X157246891Y-124598200D01*
X154446891Y-124598200D01*
X154213502Y-124694873D01*
X154034873Y-124873501D01*
X153938200Y-125106890D01*
X153938200Y-125359509D01*
X153938200Y-126959509D01*
X154034873Y-127192898D01*
X154213501Y-127371527D01*
X154446890Y-127468200D01*
X154699509Y-127468200D01*
X156159370Y-127468200D01*
X157886400Y-129195230D01*
X157886400Y-134151969D01*
X156312607Y-135725761D01*
X155861345Y-135636000D01*
X155796655Y-135636000D01*
X155164845Y-135761675D01*
X154864480Y-135962371D01*
X154843327Y-135911302D01*
X154664699Y-135732673D01*
X154431310Y-135636000D01*
X154178691Y-135636000D01*
X152146691Y-135636000D01*
X151913302Y-135732673D01*
X151734673Y-135911301D01*
X151638000Y-136144690D01*
X151638000Y-136397309D01*
X151638000Y-138429309D01*
X151734673Y-138662698D01*
X151913301Y-138841327D01*
X152146690Y-138938000D01*
X152399309Y-138938000D01*
X154431309Y-138938000D01*
X154664698Y-138841327D01*
X154843327Y-138662699D01*
X154864481Y-138611628D01*
X155164845Y-138812325D01*
X155796655Y-138938000D01*
X155861345Y-138938000D01*
X156493155Y-138812325D01*
X157028778Y-138454433D01*
X157386670Y-137918810D01*
X157512345Y-137287000D01*
X157411850Y-136781780D01*
X159187215Y-135006415D01*
X159187216Y-135006415D01*
X159286234Y-134858223D01*
X159352396Y-134759205D01*
X159352396Y-134759204D01*
X159410400Y-134467600D01*
X159410400Y-129786725D01*
X159702732Y-129908113D01*
X160132184Y-129908487D01*
X160387966Y-129802799D01*
X160432933Y-129911358D01*
X160611561Y-130089987D01*
X160844950Y-130186660D01*
X161097569Y-130186660D01*
X161577569Y-130186660D01*
X161810958Y-130089987D01*
X161930160Y-129970785D01*
X162072701Y-130113327D01*
X162306090Y-130210000D01*
X162558709Y-130210000D01*
X163118709Y-130210000D01*
X163352098Y-130113327D01*
X163494640Y-129970785D01*
X163613842Y-130089987D01*
X163847231Y-130186660D01*
X163934790Y-130186660D01*
X164093540Y-130027910D01*
X164093540Y-128978660D01*
X164066540Y-128978660D01*
X164066540Y-128724660D01*
X164093540Y-128724660D01*
X164093540Y-127675410D01*
X163947400Y-127529270D01*
X163947400Y-127473691D01*
X163947400Y-127462000D01*
X164648081Y-127462000D01*
X164618701Y-127532753D01*
X164579849Y-127516660D01*
X164492290Y-127516660D01*
X164333540Y-127675410D01*
X164333540Y-128724660D01*
X164360540Y-128724660D01*
X164360540Y-128978660D01*
X164333540Y-128978660D01*
X164333540Y-130027910D01*
X164492290Y-130186660D01*
X164579849Y-130186660D01*
X164813238Y-130089987D01*
X164991867Y-129911359D01*
X165088540Y-129677970D01*
X165088540Y-129425351D01*
X165088540Y-129137410D01*
X164929792Y-128978662D01*
X165088540Y-128978662D01*
X165088540Y-128918366D01*
X165392332Y-129044513D01*
X165609872Y-129044702D01*
X166085185Y-129520015D01*
X166332395Y-129685196D01*
X166332396Y-129685196D01*
X166624000Y-129743200D01*
X169544098Y-129743200D01*
X169507087Y-129832332D01*
X169506910Y-130035199D01*
X169407416Y-130035113D01*
X169010511Y-130199111D01*
X168706578Y-130502514D01*
X168541887Y-130899132D01*
X168541513Y-131328584D01*
X168705511Y-131725489D01*
X169008914Y-132029422D01*
X169405532Y-132194113D01*
X169710088Y-132194378D01*
X169710066Y-132219688D01*
X169509016Y-132219513D01*
X169112111Y-132383511D01*
X168808178Y-132686914D01*
X168643487Y-133083532D01*
X168643113Y-133512984D01*
X168807111Y-133909889D01*
X169110514Y-134213822D01*
X169507132Y-134378513D01*
X169936584Y-134378887D01*
X170333489Y-134214889D01*
X170487446Y-134061200D01*
X175917846Y-134061200D01*
X176120914Y-134264622D01*
X176517532Y-134429313D01*
X176946984Y-134429687D01*
X177343889Y-134265689D01*
X177647822Y-133962286D01*
X177812513Y-133565668D01*
X177812887Y-133136216D01*
X177648889Y-132739311D01*
X177345486Y-132435378D01*
X176948868Y-132270687D01*
X176745867Y-132270510D01*
X176745935Y-132192096D01*
X176873132Y-132244913D01*
X177302584Y-132245287D01*
X177699489Y-132081289D01*
X178003422Y-131777886D01*
X178168113Y-131381268D01*
X178168487Y-130951816D01*
X178004489Y-130554911D01*
X177701086Y-130250978D01*
X177304468Y-130086287D01*
X176999956Y-130086021D01*
X177000087Y-129935816D01*
X176836089Y-129538911D01*
X176612367Y-129314798D01*
X176745713Y-128993668D01*
X176746087Y-128564216D01*
X176629064Y-128281000D01*
X177600250Y-128281000D01*
X177759000Y-128122250D01*
X177759000Y-126973000D01*
X176009750Y-126973000D01*
X175851000Y-127131750D01*
X175851000Y-127698659D01*
X175725867Y-127698550D01*
X175737400Y-127670710D01*
X175737400Y-127418091D01*
X175737400Y-125966211D01*
X175898234Y-125805657D01*
X175851000Y-125919691D01*
X175851000Y-126560250D01*
X176009750Y-126719000D01*
X177759000Y-126719000D01*
X177759000Y-125569750D01*
X177600250Y-125411000D01*
X176612309Y-125411000D01*
X176359690Y-125411000D01*
X176126301Y-125507673D01*
X176072023Y-125561950D01*
X176186913Y-125285268D01*
X176187287Y-124855816D01*
X176023289Y-124458911D01*
X175719886Y-124154978D01*
X175323268Y-123990287D01*
X174893816Y-123989913D01*
X174496911Y-124153911D01*
X174393842Y-124256800D01*
X174301800Y-124256800D01*
X174301800Y-122218110D01*
X174301800Y-122002550D01*
X174301800Y-121431050D01*
X174301800Y-121215490D01*
X174205127Y-120982101D01*
X174026498Y-120803473D01*
X173793109Y-120706800D01*
X173552550Y-120706800D01*
X173393800Y-120865550D01*
X173393800Y-121589800D01*
X174143050Y-121589800D01*
X174301800Y-121431050D01*
X174301800Y-122002550D01*
X174143050Y-121843800D01*
X173393800Y-121843800D01*
X173393800Y-122568050D01*
X173552550Y-122726800D01*
X173793109Y-122726800D01*
X174026498Y-122630127D01*
X174205127Y-122451499D01*
X174301800Y-122218110D01*
X174301800Y-124256800D01*
X173139800Y-124256800D01*
X173139800Y-122568050D01*
X173139800Y-121843800D01*
X173119800Y-121843800D01*
X173119800Y-121589800D01*
X173139800Y-121589800D01*
X173139800Y-120865550D01*
X172981050Y-120706800D01*
X172740491Y-120706800D01*
X172516800Y-120799455D01*
X172293110Y-120706800D01*
X172040491Y-120706800D01*
X171240491Y-120706800D01*
X171007102Y-120803473D01*
X170855774Y-120954800D01*
X169268241Y-120954800D01*
X169115886Y-120802178D01*
X168719268Y-120637487D01*
X168289816Y-120637113D01*
X167892911Y-120801111D01*
X167588978Y-121104514D01*
X167424287Y-121501132D01*
X167423913Y-121930584D01*
X167587911Y-122327489D01*
X167891314Y-122631422D01*
X168287932Y-122796113D01*
X168717384Y-122796487D01*
X169114289Y-122632489D01*
X169268246Y-122478800D01*
X170855774Y-122478800D01*
X171007101Y-122630127D01*
X171240490Y-122726800D01*
X171493109Y-122726800D01*
X172293109Y-122726800D01*
X172516800Y-122634144D01*
X172740491Y-122726800D01*
X172981050Y-122726800D01*
X173139800Y-122568050D01*
X173139800Y-124256800D01*
X169471441Y-124256800D01*
X169319086Y-124104178D01*
X168922468Y-123939487D01*
X168493016Y-123939113D01*
X168096111Y-124103111D01*
X167792178Y-124406514D01*
X167627487Y-124803132D01*
X167627113Y-125232584D01*
X167690599Y-125386233D01*
X167642702Y-125406073D01*
X167464073Y-125584701D01*
X167367400Y-125818090D01*
X167367400Y-125938000D01*
X163947400Y-125938000D01*
X163947400Y-125673691D01*
X163897400Y-125552980D01*
X163897400Y-125223691D01*
X163800727Y-124990302D01*
X163622099Y-124811673D01*
X163486400Y-124755464D01*
X163486400Y-120759515D01*
X163698090Y-120847200D01*
X163950709Y-120847200D01*
X164750709Y-120847200D01*
X164984098Y-120750527D01*
X165135425Y-120599200D01*
X165503758Y-120599200D01*
X165656114Y-120751822D01*
X166052732Y-120916513D01*
X166482184Y-120916887D01*
X166879089Y-120752889D01*
X167183022Y-120449486D01*
X167236581Y-120320500D01*
X168506974Y-120320500D01*
X168683301Y-120496827D01*
X168916690Y-120593500D01*
X169169309Y-120593500D01*
X169919309Y-120593500D01*
X170152698Y-120496827D01*
X170331327Y-120318199D01*
X170428000Y-120084810D01*
X170428000Y-119832191D01*
X170428000Y-119626130D01*
X170678730Y-119375400D01*
X172949574Y-119375400D01*
X173025901Y-119451727D01*
X173259290Y-119548400D01*
X173511909Y-119548400D01*
X175111909Y-119548400D01*
X175345298Y-119451727D01*
X175421625Y-119375400D01*
X175650970Y-119375400D01*
X175717200Y-119441630D01*
X175717200Y-120641676D01*
X175629282Y-120678093D01*
X175450653Y-120856721D01*
X175353980Y-121090110D01*
X175353980Y-121342729D01*
X175353980Y-122343489D01*
X175450653Y-122576878D01*
X175629281Y-122755507D01*
X175862670Y-122852180D01*
X176115289Y-122852180D01*
X177014449Y-122852180D01*
X177190400Y-122779298D01*
X177366351Y-122852180D01*
X177656490Y-122852180D01*
X177815240Y-122693430D01*
X177815240Y-121843800D01*
X177795240Y-121843800D01*
X177795240Y-121589800D01*
X177815240Y-121589800D01*
X177815240Y-120740170D01*
X177656490Y-120581420D01*
X177366351Y-120581420D01*
X177241200Y-120633259D01*
X177241200Y-119126000D01*
X177218661Y-119012691D01*
X177358185Y-119152215D01*
X177605395Y-119317396D01*
X177605396Y-119317396D01*
X177897000Y-119375400D01*
X178349574Y-119375400D01*
X178425901Y-119451727D01*
X178659290Y-119548400D01*
X178911909Y-119548400D01*
X180511909Y-119548400D01*
X180745298Y-119451727D01*
X180923927Y-119273099D01*
X181020600Y-119039710D01*
X181020600Y-118787091D01*
X181020600Y-118187091D01*
X180938299Y-117988400D01*
X181020600Y-117789710D01*
X181020600Y-117537091D01*
X181020600Y-116937091D01*
X180938299Y-116738400D01*
X181020600Y-116539710D01*
X181020600Y-116287091D01*
X181020600Y-115687091D01*
X180938299Y-115488400D01*
X181020600Y-115289709D01*
X181020600Y-115149150D01*
X181020600Y-114577650D01*
X181020600Y-114437091D01*
X180982500Y-114345109D01*
X180982500Y-111140309D01*
X180982500Y-110999750D01*
X180823750Y-110841000D01*
X179674500Y-110841000D01*
X179674500Y-111490250D01*
X179833250Y-111649000D01*
X180221191Y-111649000D01*
X180473810Y-111649000D01*
X180707199Y-111552327D01*
X180885827Y-111373698D01*
X180982500Y-111140309D01*
X180982500Y-114345109D01*
X180923927Y-114203702D01*
X180745299Y-114025073D01*
X180511910Y-113928400D01*
X180259291Y-113928400D01*
X179871350Y-113928400D01*
X179712600Y-114087150D01*
X179712600Y-114736400D01*
X180861850Y-114736400D01*
X181020600Y-114577650D01*
X181020600Y-115149150D01*
X180861850Y-114990400D01*
X179712600Y-114990400D01*
X179712600Y-115010400D01*
X179458600Y-115010400D01*
X179458600Y-114990400D01*
X179458600Y-114736400D01*
X179458600Y-114087150D01*
X179420500Y-114049050D01*
X179420500Y-111490250D01*
X179420500Y-110841000D01*
X178271250Y-110841000D01*
X178112500Y-110999750D01*
X178112500Y-111140309D01*
X178209173Y-111373698D01*
X178387801Y-111552327D01*
X178621190Y-111649000D01*
X178873809Y-111649000D01*
X179261750Y-111649000D01*
X179420500Y-111490250D01*
X179420500Y-114049050D01*
X179299850Y-113928400D01*
X178911909Y-113928400D01*
X178659290Y-113928400D01*
X178425901Y-114025073D01*
X178247273Y-114203702D01*
X178150600Y-114437091D01*
X178150600Y-114577650D01*
X178309350Y-114736400D01*
X179458600Y-114736400D01*
X179458600Y-114990400D01*
X178309350Y-114990400D01*
X178150600Y-115149150D01*
X178150600Y-115289709D01*
X178176153Y-115351400D01*
X175595047Y-115351400D01*
X175620600Y-115289710D01*
X175620600Y-115037091D01*
X175620600Y-114437091D01*
X175523927Y-114203702D01*
X175345299Y-114025073D01*
X175111910Y-113928400D01*
X174859291Y-113928400D01*
X173259291Y-113928400D01*
X173025902Y-114025073D01*
X172847273Y-114203701D01*
X172750600Y-114437090D01*
X172750600Y-114689709D01*
X172750600Y-115289709D01*
X172776153Y-115351400D01*
X172250157Y-115351400D01*
X172163886Y-115264978D01*
X171767268Y-115100287D01*
X171337816Y-115099913D01*
X170940911Y-115263911D01*
X170636978Y-115567314D01*
X170472287Y-115963932D01*
X170471913Y-116393384D01*
X170557863Y-116601400D01*
X170113100Y-116601400D01*
X169821495Y-116659404D01*
X169574285Y-116824585D01*
X169375370Y-117023500D01*
X168916691Y-117023500D01*
X168683302Y-117120173D01*
X168506974Y-117296500D01*
X166735729Y-117296500D01*
X166370000Y-116930770D01*
X166370000Y-116283664D01*
X166624222Y-116029886D01*
X166788913Y-115633268D01*
X166789287Y-115203816D01*
X166625289Y-114806911D01*
X166321886Y-114502978D01*
X165925268Y-114338287D01*
X165608000Y-114338010D01*
X165608000Y-106132030D01*
X167396830Y-104343200D01*
X168479033Y-104343200D01*
X168408000Y-104514690D01*
X168408000Y-104767309D01*
X168408000Y-105567309D01*
X168500655Y-105790999D01*
X168408000Y-106014690D01*
X168408000Y-106267309D01*
X168408000Y-107067309D01*
X168504673Y-107300698D01*
X168656000Y-107452025D01*
X168656000Y-108169915D01*
X168608302Y-108189673D01*
X168429673Y-108368301D01*
X168333000Y-108601690D01*
X168333000Y-108854309D01*
X168333000Y-109354309D01*
X168429673Y-109587698D01*
X168569974Y-109728000D01*
X168429673Y-109868302D01*
X168333000Y-110101691D01*
X168333000Y-110194250D01*
X168491750Y-110353000D01*
X169291000Y-110353000D01*
X169291000Y-110331000D01*
X169545000Y-110331000D01*
X169545000Y-110353000D01*
X170344250Y-110353000D01*
X170503000Y-110194250D01*
X170503000Y-110101691D01*
X170406327Y-109868302D01*
X170278025Y-109740000D01*
X171285600Y-109740000D01*
X171285600Y-109739999D01*
X171408929Y-109715468D01*
X171348178Y-109776114D01*
X171183487Y-110172732D01*
X171183113Y-110602184D01*
X171347111Y-110999089D01*
X171650514Y-111303022D01*
X172047132Y-111467713D01*
X172315922Y-111467947D01*
X172062669Y-111721200D01*
X170503000Y-111721200D01*
X170503000Y-110854309D01*
X170503000Y-110761750D01*
X170344250Y-110603000D01*
X169545000Y-110603000D01*
X169545000Y-111204250D01*
X169703750Y-111363000D01*
X169741691Y-111363000D01*
X169994310Y-111363000D01*
X170227699Y-111266327D01*
X170406327Y-111087698D01*
X170503000Y-110854309D01*
X170503000Y-111721200D01*
X170304825Y-111721200D01*
X170278499Y-111694873D01*
X170045110Y-111598200D01*
X169792491Y-111598200D01*
X169291000Y-111598200D01*
X169291000Y-111204250D01*
X169291000Y-110603000D01*
X168491750Y-110603000D01*
X168333000Y-110761750D01*
X168333000Y-110854309D01*
X168429673Y-111087698D01*
X168608301Y-111266327D01*
X168841690Y-111363000D01*
X169094309Y-111363000D01*
X169132250Y-111363000D01*
X169291000Y-111204250D01*
X169291000Y-111598200D01*
X168892491Y-111598200D01*
X168659102Y-111694873D01*
X168480473Y-111873501D01*
X168383800Y-112106890D01*
X168383800Y-112359509D01*
X168383800Y-112859509D01*
X168454087Y-113029197D01*
X168058868Y-112865087D01*
X167629416Y-112864713D01*
X167232511Y-113028711D01*
X166928578Y-113332114D01*
X166763887Y-113728732D01*
X166763513Y-114158184D01*
X166927511Y-114555089D01*
X167230914Y-114859022D01*
X167627532Y-115023713D01*
X168056984Y-115024087D01*
X168453889Y-114860089D01*
X168568978Y-114745200D01*
X168632774Y-114745200D01*
X168659101Y-114771527D01*
X168892490Y-114868200D01*
X169145109Y-114868200D01*
X170045109Y-114868200D01*
X170278498Y-114771527D01*
X170457127Y-114592899D01*
X170553800Y-114359510D01*
X170553800Y-114106891D01*
X170553800Y-113606891D01*
X170457127Y-113373502D01*
X170328825Y-113245200D01*
X172378300Y-113245200D01*
X172378300Y-113245199D01*
X172669904Y-113187196D01*
X172669905Y-113187196D01*
X172917115Y-113022015D01*
X174290130Y-111649000D01*
X175073809Y-111649000D01*
X175307198Y-111552327D01*
X175485827Y-111373699D01*
X175582500Y-111140310D01*
X175582500Y-110887691D01*
X175582500Y-110287691D01*
X175500199Y-110089000D01*
X175582500Y-109890310D01*
X175582500Y-109637691D01*
X175582500Y-109037691D01*
X175500199Y-108839000D01*
X175582500Y-108640310D01*
X175582500Y-108387691D01*
X175582500Y-107787691D01*
X175500199Y-107589000D01*
X175582500Y-107390310D01*
X175582500Y-107137691D01*
X175582500Y-106979584D01*
X175585600Y-106964000D01*
X175582500Y-106948415D01*
X175582500Y-106537691D01*
X175485827Y-106304302D01*
X175307199Y-106125673D01*
X175073810Y-106029000D01*
X174909500Y-106029000D01*
X174909500Y-102004127D01*
X174955422Y-101958286D01*
X175120113Y-101561668D01*
X175120487Y-101132216D01*
X174956489Y-100735311D01*
X174653086Y-100431378D01*
X174256468Y-100266687D01*
X173827016Y-100266313D01*
X173430111Y-100430311D01*
X173126178Y-100733714D01*
X172961487Y-101130332D01*
X172961113Y-101559784D01*
X173125111Y-101956689D01*
X173385500Y-102217532D01*
X173385500Y-106029000D01*
X173221191Y-106029000D01*
X172987802Y-106125673D01*
X172809173Y-106304301D01*
X172712500Y-106537690D01*
X172712500Y-106790309D01*
X172712500Y-107390309D01*
X172738053Y-107452000D01*
X172049600Y-107452000D01*
X171757995Y-107510004D01*
X171510785Y-107675185D01*
X170969970Y-108216000D01*
X170254025Y-108216000D01*
X170227699Y-108189673D01*
X170180000Y-108169915D01*
X170180000Y-107452025D01*
X170331327Y-107300699D01*
X170428000Y-107067310D01*
X170428000Y-106814691D01*
X170428000Y-106014691D01*
X170340314Y-105803000D01*
X170722781Y-105803000D01*
X170888514Y-105969022D01*
X171285132Y-106133713D01*
X171714584Y-106134087D01*
X172111489Y-105970089D01*
X172415422Y-105666686D01*
X172580113Y-105270068D01*
X172580487Y-104840616D01*
X172416489Y-104443711D01*
X172113086Y-104139778D01*
X171716468Y-103975087D01*
X171287016Y-103974713D01*
X170890111Y-104138711D01*
X170749576Y-104279000D01*
X170329025Y-104279000D01*
X170152699Y-104102673D01*
X169954608Y-104020621D01*
X170454815Y-103520416D01*
X170454815Y-103520415D01*
X170619996Y-103273205D01*
X170677999Y-102981600D01*
X170678000Y-102981600D01*
X170678000Y-102515025D01*
X170704327Y-102488699D01*
X170801000Y-102255310D01*
X170801000Y-102002691D01*
X170801000Y-100502691D01*
X170704327Y-100269302D01*
X170525699Y-100090673D01*
X170292310Y-99994000D01*
X170039691Y-99994000D01*
X169539691Y-99994000D01*
X169306302Y-100090673D01*
X169281000Y-100115974D01*
X169255699Y-100090673D01*
X169022310Y-99994000D01*
X168769691Y-99994000D01*
X168269691Y-99994000D01*
X168036302Y-100090673D01*
X168011000Y-100115974D01*
X167985699Y-100090673D01*
X167752310Y-99994000D01*
X167499691Y-99994000D01*
X166999691Y-99994000D01*
X166766302Y-100090673D01*
X166741000Y-100115974D01*
X166715699Y-100090673D01*
X166482310Y-99994000D01*
X166229691Y-99994000D01*
X165729691Y-99994000D01*
X165496302Y-100090673D01*
X165471000Y-100115974D01*
X165445699Y-100090673D01*
X165212310Y-99994000D01*
X164959691Y-99994000D01*
X164459691Y-99994000D01*
X164328000Y-100048548D01*
X164328000Y-100020630D01*
X164590130Y-99758500D01*
X165735000Y-99758500D01*
X165735000Y-99758499D01*
X166026604Y-99700496D01*
X166026605Y-99700496D01*
X166273815Y-99535315D01*
X166495131Y-99313999D01*
X166710784Y-99314187D01*
X167107689Y-99150189D01*
X167411622Y-98846786D01*
X167576313Y-98450168D01*
X167576677Y-98032075D01*
X167576677Y-98032074D01*
X167797815Y-97884315D01*
X169184815Y-96497316D01*
X169184815Y-96497315D01*
X169349996Y-96250105D01*
X169407824Y-95959379D01*
X169407825Y-95959379D01*
X169539690Y-96014000D01*
X169792309Y-96014000D01*
X170292309Y-96014000D01*
X170525698Y-95917327D01*
X170704327Y-95738699D01*
X170801000Y-95505310D01*
X170801000Y-95391000D01*
X170978689Y-95391000D01*
X171091714Y-95504222D01*
X171488332Y-95668913D01*
X171917784Y-95669287D01*
X172314689Y-95505289D01*
X172618622Y-95201886D01*
X172783313Y-94805268D01*
X172783687Y-94375816D01*
X172619689Y-93978911D01*
X172316286Y-93674978D01*
X171919668Y-93510287D01*
X171490216Y-93509913D01*
X171093311Y-93673911D01*
X170899884Y-93867000D01*
X170801000Y-93867000D01*
X170801000Y-93752691D01*
X170704327Y-93519302D01*
X170525699Y-93340673D01*
X170292310Y-93244000D01*
X170039691Y-93244000D01*
X169846500Y-93244000D01*
X169846500Y-92524310D01*
X169846500Y-92271691D01*
X169846500Y-92233750D01*
X169846500Y-91662250D01*
X169846500Y-91624309D01*
X169846500Y-91371690D01*
X169749827Y-91138301D01*
X169571198Y-90959673D01*
X169337809Y-90863000D01*
X169245250Y-90863000D01*
X169086500Y-91021750D01*
X169086500Y-91821000D01*
X169687750Y-91821000D01*
X169846500Y-91662250D01*
X169846500Y-92233750D01*
X169687750Y-92075000D01*
X169086500Y-92075000D01*
X169086500Y-92874250D01*
X169245250Y-93033000D01*
X169337809Y-93033000D01*
X169571198Y-92936327D01*
X169749827Y-92757699D01*
X169846500Y-92524310D01*
X169846500Y-93244000D01*
X169539691Y-93244000D01*
X169306302Y-93340673D01*
X169281000Y-93365974D01*
X169255699Y-93340673D01*
X169022310Y-93244000D01*
X168769691Y-93244000D01*
X168269691Y-93244000D01*
X168036302Y-93340673D01*
X168011000Y-93365974D01*
X167985699Y-93340673D01*
X167921400Y-93314039D01*
X167914816Y-93304185D01*
X167643630Y-93033000D01*
X167837809Y-93033000D01*
X168071198Y-92936327D01*
X168211500Y-92796025D01*
X168351802Y-92936327D01*
X168585191Y-93033000D01*
X168677750Y-93033000D01*
X168836500Y-92874250D01*
X168836500Y-92075000D01*
X168814500Y-92075000D01*
X168814500Y-91821000D01*
X168836500Y-91821000D01*
X168836500Y-91021750D01*
X168677750Y-90863000D01*
X168585191Y-90863000D01*
X168351802Y-90959673D01*
X168211499Y-91099974D01*
X168148000Y-91036474D01*
X168148000Y-90343311D01*
X168445670Y-90144415D01*
X168656000Y-89829634D01*
X168866330Y-90144415D01*
X169352511Y-90469271D01*
X169926000Y-90583345D01*
X170499489Y-90469271D01*
X170985670Y-90144415D01*
X171196000Y-89829634D01*
X171406330Y-90144415D01*
X171892511Y-90469271D01*
X172466000Y-90583345D01*
X173039489Y-90469271D01*
X173525670Y-90144415D01*
X173850526Y-89658234D01*
X173964600Y-89084745D01*
X173964600Y-88715255D01*
X173850526Y-88141766D01*
X173525670Y-87655585D01*
X173039489Y-87330729D01*
X172466000Y-87216655D01*
X171892511Y-87330729D01*
X171406330Y-87655585D01*
X171196000Y-87970365D01*
X170985670Y-87655585D01*
X170499489Y-87330729D01*
X169926000Y-87216655D01*
X169352511Y-87330729D01*
X168866330Y-87655585D01*
X168656000Y-87970365D01*
X168445670Y-87655585D01*
X167959489Y-87330729D01*
X167386000Y-87216655D01*
X166812511Y-87330729D01*
X166326330Y-87655585D01*
X166116000Y-87970365D01*
X165905670Y-87655585D01*
X165419489Y-87330729D01*
X164846000Y-87216655D01*
X164272511Y-87330729D01*
X163786330Y-87655585D01*
X163576000Y-87970365D01*
X163365670Y-87655585D01*
X162879489Y-87330729D01*
X162306000Y-87216655D01*
X161732511Y-87330729D01*
X161246330Y-87655585D01*
X161036000Y-87970365D01*
X160825670Y-87655585D01*
X160339489Y-87330729D01*
X159766000Y-87216655D01*
X159192511Y-87330729D01*
X158706330Y-87655585D01*
X158496000Y-87970365D01*
X158285670Y-87655585D01*
X157799489Y-87330729D01*
X157226000Y-87216655D01*
X156652511Y-87330729D01*
X156166330Y-87655585D01*
X156151499Y-87677780D01*
X156087927Y-87524302D01*
X155909299Y-87345673D01*
X155675910Y-87249000D01*
X155423291Y-87249000D01*
X153696091Y-87249000D01*
X153462702Y-87345673D01*
X153284073Y-87524301D01*
X153187400Y-87757690D01*
X153187400Y-88010309D01*
X153187400Y-90042309D01*
X153284073Y-90275698D01*
X153462701Y-90454327D01*
X153696090Y-90551000D01*
X153948709Y-90551000D01*
X155675909Y-90551000D01*
X155909298Y-90454327D01*
X156087927Y-90275699D01*
X156151500Y-90122220D01*
X156166330Y-90144415D01*
X156652511Y-90469271D01*
X157226000Y-90583345D01*
X157799489Y-90469271D01*
X158285670Y-90144415D01*
X158496000Y-89829634D01*
X158706330Y-90144415D01*
X159004000Y-90343311D01*
X159004000Y-95059500D01*
X159062004Y-95351105D01*
X159227185Y-95598315D01*
X161513184Y-97884315D01*
X161513185Y-97884315D01*
X161760395Y-98049496D01*
X162052000Y-98107500D01*
X165417609Y-98107500D01*
X165417499Y-98234500D01*
X164274500Y-98234500D01*
X163982895Y-98292504D01*
X163735684Y-98457685D01*
X163027185Y-99166185D01*
X162862004Y-99413395D01*
X162804000Y-99705000D01*
X162804000Y-100048547D01*
X162672310Y-99994000D01*
X162419691Y-99994000D01*
X161919691Y-99994000D01*
X161686302Y-100090673D01*
X161507673Y-100269301D01*
X161411000Y-100502690D01*
X161411000Y-100617000D01*
X154463130Y-100617000D01*
X147699130Y-93853000D01*
X149861869Y-93853000D01*
X151416685Y-95407816D01*
X151564876Y-95506834D01*
X151663895Y-95572996D01*
X151663896Y-95572996D01*
X151955500Y-95631000D01*
X156842358Y-95631000D01*
X156994714Y-95783622D01*
X157391332Y-95948313D01*
X157820784Y-95948687D01*
X158217689Y-95784689D01*
X158521622Y-95481286D01*
X158686313Y-95084668D01*
X158686687Y-94655216D01*
X158522689Y-94258311D01*
X158219286Y-93954378D01*
X157822668Y-93789687D01*
X157393216Y-93789313D01*
X156996311Y-93953311D01*
X156842353Y-94107000D01*
X156522160Y-94107000D01*
X156590813Y-93941668D01*
X156591187Y-93512216D01*
X156427189Y-93115311D01*
X156123786Y-92811378D01*
X155727168Y-92646687D01*
X155297716Y-92646313D01*
X154900811Y-92810311D01*
X154787289Y-92923634D01*
X154812813Y-92862168D01*
X154813187Y-92432716D01*
X154649189Y-92035811D01*
X154345786Y-91731878D01*
X153949168Y-91567187D01*
X153731628Y-91566997D01*
X152222315Y-90057685D01*
X151975105Y-89892504D01*
X151683500Y-89834500D01*
X136423500Y-89834500D01*
X136423500Y-89720191D01*
X136423500Y-89072810D01*
X136423500Y-89058500D01*
X138390669Y-89058500D01*
X138773132Y-89217313D01*
X139202584Y-89217687D01*
X139599489Y-89053689D01*
X139845106Y-88808500D01*
X141407474Y-88808500D01*
X141583801Y-88984827D01*
X141817190Y-89081500D01*
X142069809Y-89081500D01*
X143028500Y-89081500D01*
X143028500Y-89197809D01*
X143125173Y-89431198D01*
X143303801Y-89609827D01*
X143537190Y-89706500D01*
X143789809Y-89706500D01*
X144789809Y-89706500D01*
X145023198Y-89609827D01*
X145201827Y-89431199D01*
X145298500Y-89197810D01*
X145298500Y-88945191D01*
X145298500Y-87495191D01*
X145201827Y-87261802D01*
X145023199Y-87083173D01*
X144931041Y-87045000D01*
X195045047Y-87045000D01*
X195798696Y-87547432D01*
X196165000Y-87913736D01*
X196165000Y-99060000D01*
X196215000Y-99311364D01*
X196215000Y-136908635D01*
X196215000Y-136908635D01*
G37*
X196215000Y-136908635D02*
X196165000Y-137160000D01*
X196165000Y-139015000D01*
X195808600Y-139015000D01*
X195808600Y-137408245D01*
X195808600Y-137038755D01*
X195808600Y-89084745D01*
X195808600Y-88715255D01*
X195694526Y-88141766D01*
X195369670Y-87655585D01*
X194883489Y-87330729D01*
X194310000Y-87216655D01*
X193736511Y-87330729D01*
X193250330Y-87655585D01*
X193040000Y-87970365D01*
X192829670Y-87655585D01*
X192343489Y-87330729D01*
X191770000Y-87216655D01*
X191196511Y-87330729D01*
X190710330Y-87655585D01*
X190500000Y-87970365D01*
X190289670Y-87655585D01*
X189803489Y-87330729D01*
X189230000Y-87216655D01*
X188656511Y-87330729D01*
X188170330Y-87655585D01*
X187960000Y-87970365D01*
X187749670Y-87655585D01*
X187263489Y-87330729D01*
X186690000Y-87216655D01*
X186116511Y-87330729D01*
X185630330Y-87655585D01*
X185420000Y-87970365D01*
X185209670Y-87655585D01*
X184723489Y-87330729D01*
X184150000Y-87216655D01*
X183576511Y-87330729D01*
X183090330Y-87655585D01*
X182880000Y-87970365D01*
X182669670Y-87655585D01*
X182183489Y-87330729D01*
X181610000Y-87216655D01*
X181036511Y-87330729D01*
X180550330Y-87655585D01*
X180340000Y-87970365D01*
X180129670Y-87655585D01*
X179643489Y-87330729D01*
X179070000Y-87216655D01*
X178496511Y-87330729D01*
X178010330Y-87655585D01*
X177995499Y-87677780D01*
X177931927Y-87524302D01*
X177753299Y-87345673D01*
X177519910Y-87249000D01*
X177267291Y-87249000D01*
X175540091Y-87249000D01*
X175306702Y-87345673D01*
X175128073Y-87524301D01*
X175031400Y-87757690D01*
X175031400Y-88010309D01*
X175031400Y-90042309D01*
X175128073Y-90275698D01*
X175306701Y-90454327D01*
X175540090Y-90551000D01*
X175792709Y-90551000D01*
X177519909Y-90551000D01*
X177753298Y-90454327D01*
X177931927Y-90275699D01*
X177995500Y-90122220D01*
X178010330Y-90144415D01*
X178496511Y-90469271D01*
X179070000Y-90583345D01*
X179643489Y-90469271D01*
X180129670Y-90144415D01*
X180340000Y-89829634D01*
X180550330Y-90144415D01*
X180798519Y-90310249D01*
X179414769Y-91694000D01*
X175818800Y-91694000D01*
X175527195Y-91752004D01*
X175428176Y-91818165D01*
X175279985Y-91917184D01*
X173451185Y-93745985D01*
X173286004Y-93993195D01*
X173228000Y-94284800D01*
X173228000Y-96314158D01*
X173075378Y-96466514D01*
X172910687Y-96863132D01*
X172910313Y-97292584D01*
X173074311Y-97689489D01*
X173377714Y-97993422D01*
X173774332Y-98158113D01*
X174203784Y-98158487D01*
X174600689Y-97994489D01*
X174904622Y-97691086D01*
X175069313Y-97294468D01*
X175069687Y-96865016D01*
X174905689Y-96468111D01*
X174752000Y-96314153D01*
X174752000Y-94600430D01*
X176134430Y-93218000D01*
X176364899Y-93218000D01*
X176364713Y-93431784D01*
X176528711Y-93828689D01*
X176832114Y-94132622D01*
X177228732Y-94297313D01*
X177658184Y-94297687D01*
X178055089Y-94133689D01*
X178107268Y-94081600D01*
X180286558Y-94081600D01*
X180438914Y-94234222D01*
X180835532Y-94398913D01*
X181264984Y-94399287D01*
X181661889Y-94235289D01*
X181965822Y-93931886D01*
X182130513Y-93535268D01*
X182130887Y-93105816D01*
X181966889Y-92708911D01*
X181663486Y-92404978D01*
X181266868Y-92240287D01*
X181023954Y-92240075D01*
X182148815Y-91115215D01*
X182148816Y-91115215D01*
X182247834Y-90967023D01*
X182313996Y-90868005D01*
X182313996Y-90868004D01*
X182372000Y-90576400D01*
X182372000Y-90343311D01*
X182669670Y-90144415D01*
X182880000Y-89829634D01*
X183090330Y-90144415D01*
X183388000Y-90343311D01*
X183388000Y-98617370D01*
X181452185Y-100553185D01*
X181287004Y-100800395D01*
X181229000Y-101092000D01*
X181229000Y-105792869D01*
X180819869Y-106202000D01*
X180783525Y-106202000D01*
X180707199Y-106125673D01*
X180473810Y-106029000D01*
X180221191Y-106029000D01*
X178621191Y-106029000D01*
X178387802Y-106125673D01*
X178209173Y-106304301D01*
X178112500Y-106537690D01*
X178112500Y-106790309D01*
X178112500Y-107390309D01*
X178194800Y-107588999D01*
X178112500Y-107787690D01*
X178112500Y-108040309D01*
X178112500Y-108640309D01*
X178194800Y-108838999D01*
X178112500Y-109037690D01*
X178112500Y-109290309D01*
X178112500Y-109890309D01*
X178194800Y-110089000D01*
X178112500Y-110287691D01*
X178112500Y-110428250D01*
X178271250Y-110587000D01*
X179420500Y-110587000D01*
X179420500Y-110567000D01*
X179674500Y-110567000D01*
X179674500Y-110587000D01*
X180823750Y-110587000D01*
X180982500Y-110428250D01*
X180982500Y-110287691D01*
X180956946Y-110226000D01*
X181112000Y-110226000D01*
X181112000Y-110225999D01*
X181403604Y-110167996D01*
X181403605Y-110167996D01*
X181650815Y-110002815D01*
X184180815Y-107472816D01*
X184180815Y-107472815D01*
X184218778Y-107415999D01*
X184342718Y-107715958D01*
X184699663Y-108073526D01*
X185166273Y-108267279D01*
X185168487Y-108267280D01*
X184701542Y-108460218D01*
X184343974Y-108817163D01*
X184150221Y-109283773D01*
X184149780Y-109789010D01*
X184342718Y-110255958D01*
X184699663Y-110613526D01*
X185166273Y-110807279D01*
X185168487Y-110807280D01*
X184701542Y-111000218D01*
X184343974Y-111357163D01*
X184150221Y-111823773D01*
X184149780Y-112329010D01*
X184342718Y-112795958D01*
X184699663Y-113153526D01*
X185166273Y-113347279D01*
X185168487Y-113347280D01*
X184701542Y-113540218D01*
X184343974Y-113897163D01*
X184150221Y-114363773D01*
X184149780Y-114869010D01*
X184342718Y-115335958D01*
X184699663Y-115693526D01*
X185166273Y-115887279D01*
X185168487Y-115887280D01*
X184701542Y-116080218D01*
X184343974Y-116437163D01*
X184150221Y-116903773D01*
X184149780Y-117409010D01*
X184342718Y-117875958D01*
X184699663Y-118233526D01*
X185166273Y-118427279D01*
X185168487Y-118427280D01*
X184701542Y-118620218D01*
X184343974Y-118977163D01*
X184150221Y-119443773D01*
X184149780Y-119949010D01*
X184342718Y-120415958D01*
X184699663Y-120773526D01*
X185166273Y-120967279D01*
X185168487Y-120967280D01*
X184701542Y-121160218D01*
X184343974Y-121517163D01*
X184150221Y-121983773D01*
X184149780Y-122489010D01*
X184342718Y-122955958D01*
X184699663Y-123313526D01*
X185166273Y-123507279D01*
X185168487Y-123507280D01*
X184701542Y-123700218D01*
X184343974Y-124057163D01*
X184150221Y-124523773D01*
X184149780Y-125029010D01*
X184342718Y-125495958D01*
X184699663Y-125853526D01*
X185166273Y-126047279D01*
X185671510Y-126047720D01*
X186138458Y-125854782D01*
X186496026Y-125497837D01*
X186689779Y-125031227D01*
X186689968Y-124814429D01*
X186707094Y-125104523D01*
X186842821Y-125432197D01*
X187071867Y-125486028D01*
X187780395Y-124777500D01*
X187071867Y-124068972D01*
X186842821Y-124122803D01*
X186690187Y-124563046D01*
X186690220Y-124525990D01*
X186497282Y-124059042D01*
X186140337Y-123701474D01*
X185673727Y-123507721D01*
X185671512Y-123507719D01*
X186138458Y-123314782D01*
X186496026Y-122957837D01*
X186689779Y-122491227D01*
X186689968Y-122274429D01*
X186707094Y-122564523D01*
X186842821Y-122892197D01*
X187071867Y-122946028D01*
X187780395Y-122237500D01*
X187071867Y-121528972D01*
X186842821Y-121582803D01*
X186690187Y-122023046D01*
X186690220Y-121985990D01*
X186497282Y-121519042D01*
X186140337Y-121161474D01*
X185673727Y-120967721D01*
X185671512Y-120967719D01*
X186138458Y-120774782D01*
X186496026Y-120417837D01*
X186689779Y-119951227D01*
X186689968Y-119734429D01*
X186707094Y-120024523D01*
X186842821Y-120352197D01*
X187071867Y-120406028D01*
X187780395Y-119697500D01*
X187071867Y-118988972D01*
X186842821Y-119042803D01*
X186690187Y-119483046D01*
X186690220Y-119445990D01*
X186497282Y-118979042D01*
X186140337Y-118621474D01*
X185673727Y-118427721D01*
X185671512Y-118427719D01*
X186138458Y-118234782D01*
X186496026Y-117877837D01*
X186689779Y-117411227D01*
X186689780Y-117409012D01*
X186882718Y-117875958D01*
X187239663Y-118233526D01*
X187706273Y-118427279D01*
X187923070Y-118427468D01*
X187632977Y-118444594D01*
X187305303Y-118580321D01*
X187251472Y-118809367D01*
X187960000Y-119517895D01*
X188668528Y-118809367D01*
X188614697Y-118580321D01*
X188174453Y-118427687D01*
X188211510Y-118427720D01*
X188678458Y-118234782D01*
X189036026Y-117877837D01*
X189229779Y-117411227D01*
X189230220Y-116905990D01*
X189037282Y-116439042D01*
X188680337Y-116081474D01*
X188213727Y-115887721D01*
X188211512Y-115887719D01*
X188678458Y-115694782D01*
X189036026Y-115337837D01*
X189229779Y-114871227D01*
X189230220Y-114365990D01*
X189037282Y-113899042D01*
X188680337Y-113541474D01*
X188213727Y-113347721D01*
X188211512Y-113347719D01*
X188678458Y-113154782D01*
X189036026Y-112797837D01*
X189229779Y-112331227D01*
X189230220Y-111825990D01*
X189037282Y-111359042D01*
X188680337Y-111001474D01*
X188213727Y-110807721D01*
X188211512Y-110807719D01*
X188678458Y-110614782D01*
X189036026Y-110257837D01*
X189229779Y-109791227D01*
X189230220Y-109285990D01*
X189037282Y-108819042D01*
X188680337Y-108461474D01*
X188213727Y-108267721D01*
X188211512Y-108267719D01*
X188678458Y-108074782D01*
X189036026Y-107717837D01*
X189229779Y-107251227D01*
X189230220Y-106745990D01*
X189037282Y-106279042D01*
X188722000Y-105963209D01*
X188722000Y-103058630D01*
X194848815Y-96931815D01*
X195013996Y-96684605D01*
X195071999Y-96393000D01*
X195072000Y-96393000D01*
X195072000Y-90343311D01*
X195369670Y-90144415D01*
X195694526Y-89658234D01*
X195808600Y-89084745D01*
X195808600Y-137038755D01*
X195694526Y-136465266D01*
X195369670Y-135979085D01*
X194883489Y-135654229D01*
X194310000Y-135540155D01*
X193736511Y-135654229D01*
X193250330Y-135979085D01*
X193040000Y-136293865D01*
X192829670Y-135979085D01*
X192343489Y-135654229D01*
X191770000Y-135540155D01*
X191196511Y-135654229D01*
X190710330Y-135979085D01*
X190500000Y-136293865D01*
X190289670Y-135979085D01*
X190157287Y-135890629D01*
X190157287Y-128513416D01*
X189993289Y-128116511D01*
X189689886Y-127812578D01*
X189293268Y-127647887D01*
X189242681Y-127647842D01*
X189242681Y-124954836D01*
X189242681Y-122414836D01*
X189242681Y-119874836D01*
X189212906Y-119370477D01*
X189077179Y-119042803D01*
X188848133Y-118988972D01*
X188139605Y-119697500D01*
X188848133Y-120406028D01*
X189077179Y-120352197D01*
X189242681Y-119874836D01*
X189242681Y-122414836D01*
X189212906Y-121910477D01*
X189077179Y-121582803D01*
X188848133Y-121528972D01*
X188668528Y-121708577D01*
X188668528Y-121349367D01*
X188614697Y-121120321D01*
X188148239Y-120958599D01*
X188287023Y-120950406D01*
X188614697Y-120814679D01*
X188668528Y-120585633D01*
X187960000Y-119877105D01*
X187251472Y-120585633D01*
X187305303Y-120814679D01*
X187771760Y-120976400D01*
X187632977Y-120984594D01*
X187305303Y-121120321D01*
X187251472Y-121349367D01*
X187960000Y-122057895D01*
X188668528Y-121349367D01*
X188668528Y-121708577D01*
X188139605Y-122237500D01*
X188848133Y-122946028D01*
X189077179Y-122892197D01*
X189242681Y-122414836D01*
X189242681Y-124954836D01*
X189212906Y-124450477D01*
X189077179Y-124122803D01*
X188848133Y-124068972D01*
X188668528Y-124248577D01*
X188668528Y-123889367D01*
X188614697Y-123660321D01*
X188148239Y-123498599D01*
X188287023Y-123490406D01*
X188614697Y-123354679D01*
X188668528Y-123125633D01*
X187960000Y-122417105D01*
X187251472Y-123125633D01*
X187305303Y-123354679D01*
X187771760Y-123516400D01*
X187632977Y-123524594D01*
X187305303Y-123660321D01*
X187251472Y-123889367D01*
X187960000Y-124597895D01*
X188668528Y-123889367D01*
X188668528Y-124248577D01*
X188139605Y-124777500D01*
X188848133Y-125486028D01*
X189077179Y-125432197D01*
X189242681Y-124954836D01*
X189242681Y-127647842D01*
X188863816Y-127647513D01*
X188668528Y-127728204D01*
X188668528Y-125665633D01*
X187960000Y-124957105D01*
X187251472Y-125665633D01*
X187305303Y-125894679D01*
X187782664Y-126060181D01*
X188287023Y-126030406D01*
X188614697Y-125894679D01*
X188668528Y-125665633D01*
X188668528Y-127728204D01*
X188466911Y-127811511D01*
X188162978Y-128114914D01*
X188161862Y-128117600D01*
X184012425Y-128117600D01*
X184124327Y-128005699D01*
X184221000Y-127772310D01*
X184221000Y-127519691D01*
X184221000Y-125919691D01*
X184124327Y-125686302D01*
X183945699Y-125507673D01*
X183712310Y-125411000D01*
X183459691Y-125411000D01*
X182948000Y-125411000D01*
X182948000Y-124902671D01*
X183083422Y-124767486D01*
X183248113Y-124370868D01*
X183248487Y-123941416D01*
X183084489Y-123544511D01*
X182781086Y-123240578D01*
X182715600Y-123213385D01*
X182715600Y-122627825D01*
X182891927Y-122451499D01*
X182988600Y-122218110D01*
X182988600Y-121965491D01*
X182988600Y-121215491D01*
X182891927Y-120982102D01*
X182713299Y-120803473D01*
X182479910Y-120706800D01*
X182227291Y-120706800D01*
X181427291Y-120706800D01*
X181203600Y-120799455D01*
X180979909Y-120706800D01*
X180739350Y-120706800D01*
X180580600Y-120865550D01*
X180580600Y-121589800D01*
X180600600Y-121589800D01*
X180600600Y-121843800D01*
X180580600Y-121843800D01*
X180580600Y-122568050D01*
X180739350Y-122726800D01*
X180979909Y-122726800D01*
X181191600Y-122639114D01*
X181191600Y-123693617D01*
X181089487Y-123939532D01*
X181089113Y-124368984D01*
X181253111Y-124765889D01*
X181424000Y-124937076D01*
X181424000Y-125411000D01*
X180659691Y-125411000D01*
X180426302Y-125507673D01*
X180326600Y-125607374D01*
X180326600Y-122568050D01*
X180326600Y-121843800D01*
X180326600Y-121589800D01*
X180326600Y-120865550D01*
X180167850Y-120706800D01*
X179927291Y-120706800D01*
X179693902Y-120803473D01*
X179515273Y-120982101D01*
X179418600Y-121215490D01*
X179418600Y-121431050D01*
X179577350Y-121589800D01*
X180326600Y-121589800D01*
X180326600Y-121843800D01*
X179577350Y-121843800D01*
X179418600Y-122002550D01*
X179418600Y-122218110D01*
X179515273Y-122451499D01*
X179693902Y-122630127D01*
X179927291Y-122726800D01*
X180167850Y-122726800D01*
X180326600Y-122568050D01*
X180326600Y-125607374D01*
X180247673Y-125686301D01*
X180151000Y-125919690D01*
X180151000Y-126172309D01*
X180151000Y-127772309D01*
X180162502Y-127800077D01*
X179973816Y-127799913D01*
X179896299Y-127831942D01*
X179921000Y-127772309D01*
X179921000Y-127131750D01*
X179921000Y-126560250D01*
X179921000Y-125919691D01*
X179824327Y-125686302D01*
X179645699Y-125507673D01*
X179412310Y-125411000D01*
X179159691Y-125411000D01*
X179026820Y-125411000D01*
X179026820Y-122343490D01*
X179026820Y-122090871D01*
X179026820Y-122002550D01*
X179026820Y-121431050D01*
X179026820Y-121342729D01*
X179026820Y-121090110D01*
X178930147Y-120856721D01*
X178751518Y-120678093D01*
X178518129Y-120581420D01*
X178227990Y-120581420D01*
X178069240Y-120740170D01*
X178069240Y-121589800D01*
X178868070Y-121589800D01*
X179026820Y-121431050D01*
X179026820Y-122002550D01*
X178868070Y-121843800D01*
X178069240Y-121843800D01*
X178069240Y-122693430D01*
X178227990Y-122852180D01*
X178518129Y-122852180D01*
X178751518Y-122755507D01*
X178930147Y-122576879D01*
X179026820Y-122343490D01*
X179026820Y-125411000D01*
X178171750Y-125411000D01*
X178013000Y-125569750D01*
X178013000Y-126719000D01*
X179762250Y-126719000D01*
X179921000Y-126560250D01*
X179921000Y-127131750D01*
X179762250Y-126973000D01*
X178013000Y-126973000D01*
X178013000Y-128122250D01*
X178171750Y-128281000D01*
X179159691Y-128281000D01*
X179267295Y-128281000D01*
X179108287Y-128663932D01*
X179107913Y-129093384D01*
X179271911Y-129490289D01*
X179575314Y-129794222D01*
X179971932Y-129958913D01*
X180401384Y-129959287D01*
X180798289Y-129795289D01*
X180952246Y-129641600D01*
X188465092Y-129641600D01*
X188465314Y-129641822D01*
X188861932Y-129806513D01*
X189291384Y-129806887D01*
X189688289Y-129642889D01*
X189992222Y-129339486D01*
X190156913Y-128942868D01*
X190157287Y-128513416D01*
X190157287Y-135890629D01*
X189803489Y-135654229D01*
X189230000Y-135540155D01*
X188656511Y-135654229D01*
X188170330Y-135979085D01*
X187960000Y-136293865D01*
X187749670Y-135979085D01*
X187263489Y-135654229D01*
X186690000Y-135540155D01*
X186116511Y-135654229D01*
X185630330Y-135979085D01*
X185420000Y-136293865D01*
X185209670Y-135979085D01*
X184912000Y-135780188D01*
X184912000Y-133146800D01*
X184853996Y-132855196D01*
X184853996Y-132855195D01*
X184688815Y-132607985D01*
X184365899Y-132285069D01*
X184366087Y-132069416D01*
X184202089Y-131672511D01*
X183898686Y-131368578D01*
X183502068Y-131203887D01*
X183072616Y-131203513D01*
X182675711Y-131367511D01*
X182371778Y-131670914D01*
X182207087Y-132067532D01*
X182206713Y-132496984D01*
X182370711Y-132893889D01*
X182674114Y-133197822D01*
X183070732Y-133362513D01*
X183288272Y-133362702D01*
X183388000Y-133462430D01*
X183388000Y-135780188D01*
X183090330Y-135979085D01*
X183075499Y-136001280D01*
X183011927Y-135847802D01*
X182833299Y-135669173D01*
X182599910Y-135572500D01*
X182372000Y-135572500D01*
X182372000Y-134213600D01*
X182313996Y-133921996D01*
X182313996Y-133921995D01*
X182247834Y-133822976D01*
X182148816Y-133674785D01*
X181927499Y-133453468D01*
X181927687Y-133237816D01*
X181763689Y-132840911D01*
X181460286Y-132536978D01*
X181063668Y-132372287D01*
X180634216Y-132371913D01*
X180237311Y-132535911D01*
X179933378Y-132839314D01*
X179768687Y-133235932D01*
X179768313Y-133665384D01*
X179932311Y-134062289D01*
X180235714Y-134366222D01*
X180632332Y-134530913D01*
X180848000Y-134531100D01*
X180848000Y-135572500D01*
X180620091Y-135572500D01*
X180386702Y-135669173D01*
X180208073Y-135847801D01*
X180111400Y-136081190D01*
X180111400Y-136333809D01*
X180111400Y-138365809D01*
X180208073Y-138599198D01*
X180386701Y-138777827D01*
X180620090Y-138874500D01*
X180872709Y-138874500D01*
X182599909Y-138874500D01*
X182833298Y-138777827D01*
X183011927Y-138599199D01*
X183075500Y-138445720D01*
X183090330Y-138467915D01*
X183576511Y-138792771D01*
X184150000Y-138906845D01*
X184723489Y-138792771D01*
X185209670Y-138467915D01*
X185420000Y-138153134D01*
X185630330Y-138467915D01*
X186116511Y-138792771D01*
X186690000Y-138906845D01*
X187263489Y-138792771D01*
X187749670Y-138467915D01*
X187960000Y-138153134D01*
X188170330Y-138467915D01*
X188656511Y-138792771D01*
X189230000Y-138906845D01*
X189803489Y-138792771D01*
X190289670Y-138467915D01*
X190500000Y-138153134D01*
X190710330Y-138467915D01*
X191196511Y-138792771D01*
X191770000Y-138906845D01*
X192343489Y-138792771D01*
X192829670Y-138467915D01*
X193040000Y-138153134D01*
X193250330Y-138467915D01*
X193736511Y-138792771D01*
X194310000Y-138906845D01*
X194883489Y-138792771D01*
X195369670Y-138467915D01*
X195694526Y-137981734D01*
X195808600Y-137408245D01*
X195808600Y-139015000D01*
X178028600Y-139015000D01*
X178028600Y-137344745D01*
X178028600Y-136975255D01*
X177914526Y-136401766D01*
X177589670Y-135915585D01*
X177103489Y-135590729D01*
X176530000Y-135476655D01*
X175956511Y-135590729D01*
X175470330Y-135915585D01*
X175260000Y-136230365D01*
X175049670Y-135915585D01*
X174563489Y-135590729D01*
X173990000Y-135476655D01*
X173416511Y-135590729D01*
X172930330Y-135915585D01*
X172720000Y-136230365D01*
X172509670Y-135915585D01*
X172023489Y-135590729D01*
X171450000Y-135476655D01*
X170876511Y-135590729D01*
X170390330Y-135915585D01*
X170183539Y-136225069D01*
X169812036Y-135809268D01*
X169284791Y-135555291D01*
X169269026Y-135552642D01*
X169037000Y-135673783D01*
X169037000Y-137033000D01*
X169057000Y-137033000D01*
X169057000Y-137287000D01*
X169037000Y-137287000D01*
X169037000Y-138646217D01*
X169269026Y-138767358D01*
X169284791Y-138764709D01*
X169812036Y-138510732D01*
X170183539Y-138094930D01*
X170390330Y-138404415D01*
X170876511Y-138729271D01*
X171450000Y-138843345D01*
X172023489Y-138729271D01*
X172509670Y-138404415D01*
X172720000Y-138089634D01*
X172930330Y-138404415D01*
X173416511Y-138729271D01*
X173990000Y-138843345D01*
X174563489Y-138729271D01*
X175049670Y-138404415D01*
X175260000Y-138089634D01*
X175470330Y-138404415D01*
X175956511Y-138729271D01*
X176530000Y-138843345D01*
X177103489Y-138729271D01*
X177589670Y-138404415D01*
X177914526Y-137918234D01*
X178028600Y-137344745D01*
X178028600Y-139015000D01*
X168783000Y-139015000D01*
X168783000Y-138646217D01*
X168783000Y-137287000D01*
X168763000Y-137287000D01*
X168763000Y-137033000D01*
X168783000Y-137033000D01*
X168783000Y-135673783D01*
X168550974Y-135552642D01*
X168535209Y-135555291D01*
X168007964Y-135809268D01*
X167636460Y-136225069D01*
X167429670Y-135915585D01*
X166943489Y-135590729D01*
X166370000Y-135476655D01*
X165796511Y-135590729D01*
X165310330Y-135915585D01*
X165295499Y-135937780D01*
X165231927Y-135784302D01*
X165088540Y-135640914D01*
X165053299Y-135605673D01*
X164819910Y-135509000D01*
X164567291Y-135509000D01*
X162840091Y-135509000D01*
X162606702Y-135605673D01*
X162428073Y-135784301D01*
X162331400Y-136017690D01*
X162331400Y-136270309D01*
X162331400Y-138302309D01*
X162428073Y-138535698D01*
X162606701Y-138714327D01*
X162840090Y-138811000D01*
X163092709Y-138811000D01*
X164819909Y-138811000D01*
X165053298Y-138714327D01*
X165231927Y-138535699D01*
X165295500Y-138382220D01*
X165310330Y-138404415D01*
X165796511Y-138729271D01*
X166370000Y-138843345D01*
X166943489Y-138729271D01*
X167429670Y-138404415D01*
X167636460Y-138094930D01*
X168007964Y-138510732D01*
X168535209Y-138764709D01*
X168550974Y-138767358D01*
X168783000Y-138646217D01*
X168783000Y-139015000D01*
X131495000Y-139015000D01*
X131495000Y-87045000D01*
X134281314Y-87045000D01*
X134128802Y-87108173D01*
X133950173Y-87286801D01*
X133853500Y-87520190D01*
X133853500Y-87772809D01*
X133853500Y-88535810D01*
X133678802Y-88608173D01*
X133500173Y-88786801D01*
X133403500Y-89020190D01*
X133403500Y-89272809D01*
X133403500Y-89972809D01*
X133434023Y-90046499D01*
X133403500Y-90120190D01*
X133403500Y-90372809D01*
X133403500Y-90881169D01*
X133301886Y-90779378D01*
X132905268Y-90614687D01*
X132475816Y-90614313D01*
X132078911Y-90778311D01*
X131774978Y-91081714D01*
X131610287Y-91478332D01*
X131609913Y-91907784D01*
X131773911Y-92304689D01*
X132077314Y-92608622D01*
X132473932Y-92773313D01*
X132903384Y-92773687D01*
X133300289Y-92609689D01*
X133403500Y-92506657D01*
X133403500Y-92572809D01*
X133403500Y-93134500D01*
X133382700Y-93134500D01*
X133091095Y-93192504D01*
X132843884Y-93357685D01*
X132099985Y-94101585D01*
X131934804Y-94348795D01*
X131876800Y-94640400D01*
X131876800Y-99872800D01*
X131934804Y-100164405D01*
X132099985Y-100411615D01*
X133877985Y-102189616D01*
X134026176Y-102288634D01*
X134125195Y-102354796D01*
X134125196Y-102354796D01*
X134416800Y-102412800D01*
X138673170Y-102412800D01*
X139838536Y-103578166D01*
X139598400Y-103530400D01*
X136348938Y-103530400D01*
X136348489Y-103529311D01*
X136045086Y-103225378D01*
X135648468Y-103060687D01*
X135219016Y-103060313D01*
X134822111Y-103224311D01*
X134518178Y-103527714D01*
X134353487Y-103924332D01*
X134353113Y-104353784D01*
X134517111Y-104750689D01*
X134820514Y-105054622D01*
X135217132Y-105219313D01*
X135646584Y-105219687D01*
X136043489Y-105055689D01*
X136044780Y-105054400D01*
X136183969Y-105054400D01*
X135426685Y-105811685D01*
X135299613Y-106001861D01*
X135299611Y-106001862D01*
X135177173Y-106124301D01*
X135080500Y-106357690D01*
X135080500Y-106610309D01*
X135080500Y-107510309D01*
X135177173Y-107743698D01*
X135203500Y-107770025D01*
X135203500Y-111823300D01*
X135261504Y-112114905D01*
X135426685Y-112362115D01*
X135670800Y-112606230D01*
X135670800Y-113389909D01*
X135767473Y-113623298D01*
X135946101Y-113801927D01*
X135948897Y-113803085D01*
X135948898Y-113803085D01*
X136066985Y-113979815D01*
X138343800Y-116256630D01*
X138343800Y-116454152D01*
X138282110Y-116428600D01*
X138029491Y-116428600D01*
X137429491Y-116428600D01*
X137230800Y-116510900D01*
X137032110Y-116428600D01*
X136779491Y-116428600D01*
X136179491Y-116428600D01*
X135946102Y-116525273D01*
X135767473Y-116703901D01*
X135670800Y-116937290D01*
X135670800Y-117189909D01*
X135670800Y-118789909D01*
X135767473Y-119023298D01*
X135946101Y-119201927D01*
X136179490Y-119298600D01*
X136432109Y-119298600D01*
X137032109Y-119298600D01*
X137230799Y-119216299D01*
X137429490Y-119298600D01*
X137682109Y-119298600D01*
X138039710Y-119298600D01*
X138011087Y-119367532D01*
X138010810Y-119684800D01*
X136400641Y-119684800D01*
X136248286Y-119532178D01*
X135851668Y-119367487D01*
X135422216Y-119367113D01*
X135025311Y-119531111D01*
X134721378Y-119834514D01*
X134556687Y-120231132D01*
X134556313Y-120660584D01*
X134720311Y-121057489D01*
X135023714Y-121361422D01*
X135420332Y-121526113D01*
X135849784Y-121526487D01*
X136246689Y-121362489D01*
X136400646Y-121208800D01*
X149301200Y-121208800D01*
X149707600Y-121208800D01*
X149809200Y-121208800D01*
X156402369Y-121208800D01*
X157056093Y-121862524D01*
X156920111Y-121918711D01*
X156766153Y-122072400D01*
X153873200Y-122072400D01*
X153581595Y-122130404D01*
X153334385Y-122295585D01*
X151134385Y-124495585D01*
X151065819Y-124598200D01*
X150146891Y-124598200D01*
X149913502Y-124694873D01*
X149734873Y-124873501D01*
X149638200Y-125106890D01*
X149638200Y-125359509D01*
X149638200Y-126695200D01*
X143309530Y-126695200D01*
X143207886Y-126593378D01*
X142811268Y-126428687D01*
X142381816Y-126428313D01*
X141984911Y-126592311D01*
X141680978Y-126895714D01*
X141516287Y-127292332D01*
X141515913Y-127721784D01*
X141679911Y-128118689D01*
X141983314Y-128422622D01*
X142379932Y-128587313D01*
X142809384Y-128587687D01*
X142924068Y-128540300D01*
X140209869Y-131254500D01*
X139047811Y-131254500D01*
X138848915Y-130956830D01*
X138534134Y-130746500D01*
X138848915Y-130536170D01*
X139173771Y-130049989D01*
X139287845Y-129476500D01*
X139173771Y-128903011D01*
X138848915Y-128416830D01*
X138362734Y-128091974D01*
X137789245Y-127977900D01*
X137419755Y-127977900D01*
X136846266Y-128091974D01*
X136360085Y-128416830D01*
X136035229Y-128903011D01*
X135921155Y-129476500D01*
X136035229Y-130049989D01*
X136360085Y-130536170D01*
X136674865Y-130746500D01*
X136360085Y-130956830D01*
X136035229Y-131443011D01*
X135921155Y-132016500D01*
X136035229Y-132589989D01*
X136360085Y-133076170D01*
X136674865Y-133286500D01*
X136360085Y-133496830D01*
X136035229Y-133983011D01*
X135921155Y-134556500D01*
X136035229Y-135129989D01*
X136360085Y-135616170D01*
X136382280Y-135631000D01*
X136228802Y-135694573D01*
X136050173Y-135873201D01*
X135953500Y-136106590D01*
X135953500Y-136359209D01*
X135953500Y-138086409D01*
X136050173Y-138319798D01*
X136228801Y-138498427D01*
X136462190Y-138595100D01*
X136714809Y-138595100D01*
X138746809Y-138595100D01*
X138980198Y-138498427D01*
X139158827Y-138319799D01*
X139255500Y-138086410D01*
X139255500Y-137833791D01*
X139255500Y-136106591D01*
X139158827Y-135873202D01*
X138980199Y-135694573D01*
X138826720Y-135630999D01*
X138848915Y-135616170D01*
X139173771Y-135129989D01*
X139287845Y-134556500D01*
X139173771Y-133983011D01*
X138848915Y-133496830D01*
X138534134Y-133286500D01*
X138848915Y-133076170D01*
X139047811Y-132778500D01*
X140525500Y-132778500D01*
X140525500Y-132778499D01*
X140817104Y-132720496D01*
X140817105Y-132720496D01*
X141064315Y-132555315D01*
X143927230Y-129692400D01*
X144056276Y-129692400D01*
X144055913Y-130109384D01*
X144219911Y-130506289D01*
X144407000Y-130693704D01*
X144407000Y-130842000D01*
X144342691Y-130842000D01*
X143742691Y-130842000D01*
X143509302Y-130938673D01*
X143330673Y-131117301D01*
X143234000Y-131350690D01*
X143234000Y-131603309D01*
X143234000Y-131742000D01*
X142692691Y-131742000D01*
X142459302Y-131838673D01*
X142280673Y-132017301D01*
X142184000Y-132250690D01*
X142184000Y-132503309D01*
X142184000Y-136703309D01*
X142280673Y-136936698D01*
X142459301Y-137115327D01*
X142692690Y-137212000D01*
X142945309Y-137212000D01*
X143645309Y-137212000D01*
X143878698Y-137115327D01*
X144057327Y-136936699D01*
X144154000Y-136703310D01*
X144154000Y-136450691D01*
X144154000Y-136189230D01*
X144919700Y-136954931D01*
X144919513Y-137170584D01*
X145083511Y-137567489D01*
X145386914Y-137871422D01*
X145783532Y-138036113D01*
X146212984Y-138036487D01*
X146609889Y-137872489D01*
X146913822Y-137569086D01*
X147078513Y-137172468D01*
X147078887Y-136743016D01*
X146914889Y-136346111D01*
X146611486Y-136042178D01*
X146214868Y-135877487D01*
X145997328Y-135877297D01*
X145517318Y-135397287D01*
X145797089Y-135281689D01*
X146101022Y-134978286D01*
X146265713Y-134581668D01*
X146266087Y-134152216D01*
X146249470Y-134112000D01*
X146595309Y-134112000D01*
X146668999Y-134081476D01*
X146742690Y-134112000D01*
X146995309Y-134112000D01*
X147184000Y-134112000D01*
X147184000Y-136703309D01*
X147280673Y-136936698D01*
X147459301Y-137115327D01*
X147692690Y-137212000D01*
X147945309Y-137212000D01*
X148645309Y-137212000D01*
X148878698Y-137115327D01*
X149057327Y-136936699D01*
X149154000Y-136703310D01*
X149154000Y-136450691D01*
X149154000Y-132250691D01*
X149057327Y-132017302D01*
X148881828Y-131841802D01*
X151721030Y-129002600D01*
X154239369Y-129002600D01*
X155384500Y-130147731D01*
X155384313Y-130363384D01*
X155548311Y-130760289D01*
X155851714Y-131064222D01*
X156248332Y-131228913D01*
X156677784Y-131229287D01*
X157074689Y-131065289D01*
X157378622Y-130761886D01*
X157543313Y-130365268D01*
X157543687Y-129935816D01*
X157379689Y-129538911D01*
X157076286Y-129234978D01*
X156679668Y-129070287D01*
X156462128Y-129070097D01*
X155093815Y-127701785D01*
X154846605Y-127536604D01*
X154555000Y-127478600D01*
X151721030Y-127478600D01*
X151710630Y-127468200D01*
X153199509Y-127468200D01*
X153432898Y-127371527D01*
X153611527Y-127192899D01*
X153708200Y-126959510D01*
X153708200Y-126706891D01*
X153708200Y-125106891D01*
X153611527Y-124873502D01*
X153432899Y-124694873D01*
X153199510Y-124598200D01*
X153187030Y-124598200D01*
X154188830Y-123596400D01*
X156766158Y-123596400D01*
X156918514Y-123749022D01*
X157315132Y-123913713D01*
X157530800Y-123913900D01*
X157530800Y-124253892D01*
X157530578Y-124254114D01*
X157387700Y-124598200D01*
X157246891Y-124598200D01*
X154446891Y-124598200D01*
X154213502Y-124694873D01*
X154034873Y-124873501D01*
X153938200Y-125106890D01*
X153938200Y-125359509D01*
X153938200Y-126959509D01*
X154034873Y-127192898D01*
X154213501Y-127371527D01*
X154446890Y-127468200D01*
X154699509Y-127468200D01*
X156159370Y-127468200D01*
X157886400Y-129195230D01*
X157886400Y-134151969D01*
X156312607Y-135725761D01*
X155861345Y-135636000D01*
X155796655Y-135636000D01*
X155164845Y-135761675D01*
X154864480Y-135962371D01*
X154843327Y-135911302D01*
X154664699Y-135732673D01*
X154431310Y-135636000D01*
X154178691Y-135636000D01*
X152146691Y-135636000D01*
X151913302Y-135732673D01*
X151734673Y-135911301D01*
X151638000Y-136144690D01*
X151638000Y-136397309D01*
X151638000Y-138429309D01*
X151734673Y-138662698D01*
X151913301Y-138841327D01*
X152146690Y-138938000D01*
X152399309Y-138938000D01*
X154431309Y-138938000D01*
X154664698Y-138841327D01*
X154843327Y-138662699D01*
X154864481Y-138611628D01*
X155164845Y-138812325D01*
X155796655Y-138938000D01*
X155861345Y-138938000D01*
X156493155Y-138812325D01*
X157028778Y-138454433D01*
X157386670Y-137918810D01*
X157512345Y-137287000D01*
X157411850Y-136781780D01*
X159187215Y-135006415D01*
X159187216Y-135006415D01*
X159286234Y-134858223D01*
X159352396Y-134759205D01*
X159352396Y-134759204D01*
X159410400Y-134467600D01*
X159410400Y-129786725D01*
X159702732Y-129908113D01*
X160132184Y-129908487D01*
X160387966Y-129802799D01*
X160432933Y-129911358D01*
X160611561Y-130089987D01*
X160844950Y-130186660D01*
X161097569Y-130186660D01*
X161577569Y-130186660D01*
X161810958Y-130089987D01*
X161930160Y-129970785D01*
X162072701Y-130113327D01*
X162306090Y-130210000D01*
X162558709Y-130210000D01*
X163118709Y-130210000D01*
X163352098Y-130113327D01*
X163494640Y-129970785D01*
X163613842Y-130089987D01*
X163847231Y-130186660D01*
X163934790Y-130186660D01*
X164093540Y-130027910D01*
X164093540Y-128978660D01*
X164066540Y-128978660D01*
X164066540Y-128724660D01*
X164093540Y-128724660D01*
X164093540Y-127675410D01*
X163947400Y-127529270D01*
X163947400Y-127473691D01*
X163947400Y-127462000D01*
X164648081Y-127462000D01*
X164618701Y-127532753D01*
X164579849Y-127516660D01*
X164492290Y-127516660D01*
X164333540Y-127675410D01*
X164333540Y-128724660D01*
X164360540Y-128724660D01*
X164360540Y-128978660D01*
X164333540Y-128978660D01*
X164333540Y-130027910D01*
X164492290Y-130186660D01*
X164579849Y-130186660D01*
X164813238Y-130089987D01*
X164991867Y-129911359D01*
X165088540Y-129677970D01*
X165088540Y-129425351D01*
X165088540Y-129137410D01*
X164929792Y-128978662D01*
X165088540Y-128978662D01*
X165088540Y-128918366D01*
X165392332Y-129044513D01*
X165609872Y-129044702D01*
X166085185Y-129520015D01*
X166332395Y-129685196D01*
X166332396Y-129685196D01*
X166624000Y-129743200D01*
X169544098Y-129743200D01*
X169507087Y-129832332D01*
X169506910Y-130035199D01*
X169407416Y-130035113D01*
X169010511Y-130199111D01*
X168706578Y-130502514D01*
X168541887Y-130899132D01*
X168541513Y-131328584D01*
X168705511Y-131725489D01*
X169008914Y-132029422D01*
X169405532Y-132194113D01*
X169710088Y-132194378D01*
X169710066Y-132219688D01*
X169509016Y-132219513D01*
X169112111Y-132383511D01*
X168808178Y-132686914D01*
X168643487Y-133083532D01*
X168643113Y-133512984D01*
X168807111Y-133909889D01*
X169110514Y-134213822D01*
X169507132Y-134378513D01*
X169936584Y-134378887D01*
X170333489Y-134214889D01*
X170487446Y-134061200D01*
X175917846Y-134061200D01*
X176120914Y-134264622D01*
X176517532Y-134429313D01*
X176946984Y-134429687D01*
X177343889Y-134265689D01*
X177647822Y-133962286D01*
X177812513Y-133565668D01*
X177812887Y-133136216D01*
X177648889Y-132739311D01*
X177345486Y-132435378D01*
X176948868Y-132270687D01*
X176745867Y-132270510D01*
X176745935Y-132192096D01*
X176873132Y-132244913D01*
X177302584Y-132245287D01*
X177699489Y-132081289D01*
X178003422Y-131777886D01*
X178168113Y-131381268D01*
X178168487Y-130951816D01*
X178004489Y-130554911D01*
X177701086Y-130250978D01*
X177304468Y-130086287D01*
X176999956Y-130086021D01*
X177000087Y-129935816D01*
X176836089Y-129538911D01*
X176612367Y-129314798D01*
X176745713Y-128993668D01*
X176746087Y-128564216D01*
X176629064Y-128281000D01*
X177600250Y-128281000D01*
X177759000Y-128122250D01*
X177759000Y-126973000D01*
X176009750Y-126973000D01*
X175851000Y-127131750D01*
X175851000Y-127698659D01*
X175725867Y-127698550D01*
X175737400Y-127670710D01*
X175737400Y-127418091D01*
X175737400Y-125966211D01*
X175898234Y-125805657D01*
X175851000Y-125919691D01*
X175851000Y-126560250D01*
X176009750Y-126719000D01*
X177759000Y-126719000D01*
X177759000Y-125569750D01*
X177600250Y-125411000D01*
X176612309Y-125411000D01*
X176359690Y-125411000D01*
X176126301Y-125507673D01*
X176072023Y-125561950D01*
X176186913Y-125285268D01*
X176187287Y-124855816D01*
X176023289Y-124458911D01*
X175719886Y-124154978D01*
X175323268Y-123990287D01*
X174893816Y-123989913D01*
X174496911Y-124153911D01*
X174393842Y-124256800D01*
X174301800Y-124256800D01*
X174301800Y-122218110D01*
X174301800Y-122002550D01*
X174301800Y-121431050D01*
X174301800Y-121215490D01*
X174205127Y-120982101D01*
X174026498Y-120803473D01*
X173793109Y-120706800D01*
X173552550Y-120706800D01*
X173393800Y-120865550D01*
X173393800Y-121589800D01*
X174143050Y-121589800D01*
X174301800Y-121431050D01*
X174301800Y-122002550D01*
X174143050Y-121843800D01*
X173393800Y-121843800D01*
X173393800Y-122568050D01*
X173552550Y-122726800D01*
X173793109Y-122726800D01*
X174026498Y-122630127D01*
X174205127Y-122451499D01*
X174301800Y-122218110D01*
X174301800Y-124256800D01*
X173139800Y-124256800D01*
X173139800Y-122568050D01*
X173139800Y-121843800D01*
X173119800Y-121843800D01*
X173119800Y-121589800D01*
X173139800Y-121589800D01*
X173139800Y-120865550D01*
X172981050Y-120706800D01*
X172740491Y-120706800D01*
X172516800Y-120799455D01*
X172293110Y-120706800D01*
X172040491Y-120706800D01*
X171240491Y-120706800D01*
X171007102Y-120803473D01*
X170855774Y-120954800D01*
X169268241Y-120954800D01*
X169115886Y-120802178D01*
X168719268Y-120637487D01*
X168289816Y-120637113D01*
X167892911Y-120801111D01*
X167588978Y-121104514D01*
X167424287Y-121501132D01*
X167423913Y-121930584D01*
X167587911Y-122327489D01*
X167891314Y-122631422D01*
X168287932Y-122796113D01*
X168717384Y-122796487D01*
X169114289Y-122632489D01*
X169268246Y-122478800D01*
X170855774Y-122478800D01*
X171007101Y-122630127D01*
X171240490Y-122726800D01*
X171493109Y-122726800D01*
X172293109Y-122726800D01*
X172516800Y-122634144D01*
X172740491Y-122726800D01*
X172981050Y-122726800D01*
X173139800Y-122568050D01*
X173139800Y-124256800D01*
X169471441Y-124256800D01*
X169319086Y-124104178D01*
X168922468Y-123939487D01*
X168493016Y-123939113D01*
X168096111Y-124103111D01*
X167792178Y-124406514D01*
X167627487Y-124803132D01*
X167627113Y-125232584D01*
X167690599Y-125386233D01*
X167642702Y-125406073D01*
X167464073Y-125584701D01*
X167367400Y-125818090D01*
X167367400Y-125938000D01*
X163947400Y-125938000D01*
X163947400Y-125673691D01*
X163897400Y-125552980D01*
X163897400Y-125223691D01*
X163800727Y-124990302D01*
X163622099Y-124811673D01*
X163486400Y-124755464D01*
X163486400Y-120759515D01*
X163698090Y-120847200D01*
X163950709Y-120847200D01*
X164750709Y-120847200D01*
X164984098Y-120750527D01*
X165135425Y-120599200D01*
X165503758Y-120599200D01*
X165656114Y-120751822D01*
X166052732Y-120916513D01*
X166482184Y-120916887D01*
X166879089Y-120752889D01*
X167183022Y-120449486D01*
X167236581Y-120320500D01*
X168506974Y-120320500D01*
X168683301Y-120496827D01*
X168916690Y-120593500D01*
X169169309Y-120593500D01*
X169919309Y-120593500D01*
X170152698Y-120496827D01*
X170331327Y-120318199D01*
X170428000Y-120084810D01*
X170428000Y-119832191D01*
X170428000Y-119626130D01*
X170678730Y-119375400D01*
X172949574Y-119375400D01*
X173025901Y-119451727D01*
X173259290Y-119548400D01*
X173511909Y-119548400D01*
X175111909Y-119548400D01*
X175345298Y-119451727D01*
X175421625Y-119375400D01*
X175650970Y-119375400D01*
X175717200Y-119441630D01*
X175717200Y-120641676D01*
X175629282Y-120678093D01*
X175450653Y-120856721D01*
X175353980Y-121090110D01*
X175353980Y-121342729D01*
X175353980Y-122343489D01*
X175450653Y-122576878D01*
X175629281Y-122755507D01*
X175862670Y-122852180D01*
X176115289Y-122852180D01*
X177014449Y-122852180D01*
X177190400Y-122779298D01*
X177366351Y-122852180D01*
X177656490Y-122852180D01*
X177815240Y-122693430D01*
X177815240Y-121843800D01*
X177795240Y-121843800D01*
X177795240Y-121589800D01*
X177815240Y-121589800D01*
X177815240Y-120740170D01*
X177656490Y-120581420D01*
X177366351Y-120581420D01*
X177241200Y-120633259D01*
X177241200Y-119126000D01*
X177218661Y-119012691D01*
X177358185Y-119152215D01*
X177605395Y-119317396D01*
X177605396Y-119317396D01*
X177897000Y-119375400D01*
X178349574Y-119375400D01*
X178425901Y-119451727D01*
X178659290Y-119548400D01*
X178911909Y-119548400D01*
X180511909Y-119548400D01*
X180745298Y-119451727D01*
X180923927Y-119273099D01*
X181020600Y-119039710D01*
X181020600Y-118787091D01*
X181020600Y-118187091D01*
X180938299Y-117988400D01*
X181020600Y-117789710D01*
X181020600Y-117537091D01*
X181020600Y-116937091D01*
X180938299Y-116738400D01*
X181020600Y-116539710D01*
X181020600Y-116287091D01*
X181020600Y-115687091D01*
X180938299Y-115488400D01*
X181020600Y-115289709D01*
X181020600Y-115149150D01*
X181020600Y-114577650D01*
X181020600Y-114437091D01*
X180982500Y-114345109D01*
X180982500Y-111140309D01*
X180982500Y-110999750D01*
X180823750Y-110841000D01*
X179674500Y-110841000D01*
X179674500Y-111490250D01*
X179833250Y-111649000D01*
X180221191Y-111649000D01*
X180473810Y-111649000D01*
X180707199Y-111552327D01*
X180885827Y-111373698D01*
X180982500Y-111140309D01*
X180982500Y-114345109D01*
X180923927Y-114203702D01*
X180745299Y-114025073D01*
X180511910Y-113928400D01*
X180259291Y-113928400D01*
X179871350Y-113928400D01*
X179712600Y-114087150D01*
X179712600Y-114736400D01*
X180861850Y-114736400D01*
X181020600Y-114577650D01*
X181020600Y-115149150D01*
X180861850Y-114990400D01*
X179712600Y-114990400D01*
X179712600Y-115010400D01*
X179458600Y-115010400D01*
X179458600Y-114990400D01*
X179458600Y-114736400D01*
X179458600Y-114087150D01*
X179420500Y-114049050D01*
X179420500Y-111490250D01*
X179420500Y-110841000D01*
X178271250Y-110841000D01*
X178112500Y-110999750D01*
X178112500Y-111140309D01*
X178209173Y-111373698D01*
X178387801Y-111552327D01*
X178621190Y-111649000D01*
X178873809Y-111649000D01*
X179261750Y-111649000D01*
X179420500Y-111490250D01*
X179420500Y-114049050D01*
X179299850Y-113928400D01*
X178911909Y-113928400D01*
X178659290Y-113928400D01*
X178425901Y-114025073D01*
X178247273Y-114203702D01*
X178150600Y-114437091D01*
X178150600Y-114577650D01*
X178309350Y-114736400D01*
X179458600Y-114736400D01*
X179458600Y-114990400D01*
X178309350Y-114990400D01*
X178150600Y-115149150D01*
X178150600Y-115289709D01*
X178176153Y-115351400D01*
X175595047Y-115351400D01*
X175620600Y-115289710D01*
X175620600Y-115037091D01*
X175620600Y-114437091D01*
X175523927Y-114203702D01*
X175345299Y-114025073D01*
X175111910Y-113928400D01*
X174859291Y-113928400D01*
X173259291Y-113928400D01*
X173025902Y-114025073D01*
X172847273Y-114203701D01*
X172750600Y-114437090D01*
X172750600Y-114689709D01*
X172750600Y-115289709D01*
X172776153Y-115351400D01*
X172250157Y-115351400D01*
X172163886Y-115264978D01*
X171767268Y-115100287D01*
X171337816Y-115099913D01*
X170940911Y-115263911D01*
X170636978Y-115567314D01*
X170472287Y-115963932D01*
X170471913Y-116393384D01*
X170557863Y-116601400D01*
X170113100Y-116601400D01*
X169821495Y-116659404D01*
X169574285Y-116824585D01*
X169375370Y-117023500D01*
X168916691Y-117023500D01*
X168683302Y-117120173D01*
X168506974Y-117296500D01*
X166735729Y-117296500D01*
X166370000Y-116930770D01*
X166370000Y-116283664D01*
X166624222Y-116029886D01*
X166788913Y-115633268D01*
X166789287Y-115203816D01*
X166625289Y-114806911D01*
X166321886Y-114502978D01*
X165925268Y-114338287D01*
X165608000Y-114338010D01*
X165608000Y-106132030D01*
X167396830Y-104343200D01*
X168479033Y-104343200D01*
X168408000Y-104514690D01*
X168408000Y-104767309D01*
X168408000Y-105567309D01*
X168500655Y-105790999D01*
X168408000Y-106014690D01*
X168408000Y-106267309D01*
X168408000Y-107067309D01*
X168504673Y-107300698D01*
X168656000Y-107452025D01*
X168656000Y-108169915D01*
X168608302Y-108189673D01*
X168429673Y-108368301D01*
X168333000Y-108601690D01*
X168333000Y-108854309D01*
X168333000Y-109354309D01*
X168429673Y-109587698D01*
X168569974Y-109728000D01*
X168429673Y-109868302D01*
X168333000Y-110101691D01*
X168333000Y-110194250D01*
X168491750Y-110353000D01*
X169291000Y-110353000D01*
X169291000Y-110331000D01*
X169545000Y-110331000D01*
X169545000Y-110353000D01*
X170344250Y-110353000D01*
X170503000Y-110194250D01*
X170503000Y-110101691D01*
X170406327Y-109868302D01*
X170278025Y-109740000D01*
X171285600Y-109740000D01*
X171285600Y-109739999D01*
X171408929Y-109715468D01*
X171348178Y-109776114D01*
X171183487Y-110172732D01*
X171183113Y-110602184D01*
X171347111Y-110999089D01*
X171650514Y-111303022D01*
X172047132Y-111467713D01*
X172315922Y-111467947D01*
X172062669Y-111721200D01*
X170503000Y-111721200D01*
X170503000Y-110854309D01*
X170503000Y-110761750D01*
X170344250Y-110603000D01*
X169545000Y-110603000D01*
X169545000Y-111204250D01*
X169703750Y-111363000D01*
X169741691Y-111363000D01*
X169994310Y-111363000D01*
X170227699Y-111266327D01*
X170406327Y-111087698D01*
X170503000Y-110854309D01*
X170503000Y-111721200D01*
X170304825Y-111721200D01*
X170278499Y-111694873D01*
X170045110Y-111598200D01*
X169792491Y-111598200D01*
X169291000Y-111598200D01*
X169291000Y-111204250D01*
X169291000Y-110603000D01*
X168491750Y-110603000D01*
X168333000Y-110761750D01*
X168333000Y-110854309D01*
X168429673Y-111087698D01*
X168608301Y-111266327D01*
X168841690Y-111363000D01*
X169094309Y-111363000D01*
X169132250Y-111363000D01*
X169291000Y-111204250D01*
X169291000Y-111598200D01*
X168892491Y-111598200D01*
X168659102Y-111694873D01*
X168480473Y-111873501D01*
X168383800Y-112106890D01*
X168383800Y-112359509D01*
X168383800Y-112859509D01*
X168454087Y-113029197D01*
X168058868Y-112865087D01*
X167629416Y-112864713D01*
X167232511Y-113028711D01*
X166928578Y-113332114D01*
X166763887Y-113728732D01*
X166763513Y-114158184D01*
X166927511Y-114555089D01*
X167230914Y-114859022D01*
X167627532Y-115023713D01*
X168056984Y-115024087D01*
X168453889Y-114860089D01*
X168568978Y-114745200D01*
X168632774Y-114745200D01*
X168659101Y-114771527D01*
X168892490Y-114868200D01*
X169145109Y-114868200D01*
X170045109Y-114868200D01*
X170278498Y-114771527D01*
X170457127Y-114592899D01*
X170553800Y-114359510D01*
X170553800Y-114106891D01*
X170553800Y-113606891D01*
X170457127Y-113373502D01*
X170328825Y-113245200D01*
X172378300Y-113245200D01*
X172378300Y-113245199D01*
X172669904Y-113187196D01*
X172669905Y-113187196D01*
X172917115Y-113022015D01*
X174290130Y-111649000D01*
X175073809Y-111649000D01*
X175307198Y-111552327D01*
X175485827Y-111373699D01*
X175582500Y-111140310D01*
X175582500Y-110887691D01*
X175582500Y-110287691D01*
X175500199Y-110089000D01*
X175582500Y-109890310D01*
X175582500Y-109637691D01*
X175582500Y-109037691D01*
X175500199Y-108839000D01*
X175582500Y-108640310D01*
X175582500Y-108387691D01*
X175582500Y-107787691D01*
X175500199Y-107589000D01*
X175582500Y-107390310D01*
X175582500Y-107137691D01*
X175582500Y-106979584D01*
X175585600Y-106964000D01*
X175582500Y-106948415D01*
X175582500Y-106537691D01*
X175485827Y-106304302D01*
X175307199Y-106125673D01*
X175073810Y-106029000D01*
X174909500Y-106029000D01*
X174909500Y-102004127D01*
X174955422Y-101958286D01*
X175120113Y-101561668D01*
X175120487Y-101132216D01*
X174956489Y-100735311D01*
X174653086Y-100431378D01*
X174256468Y-100266687D01*
X173827016Y-100266313D01*
X173430111Y-100430311D01*
X173126178Y-100733714D01*
X172961487Y-101130332D01*
X172961113Y-101559784D01*
X173125111Y-101956689D01*
X173385500Y-102217532D01*
X173385500Y-106029000D01*
X173221191Y-106029000D01*
X172987802Y-106125673D01*
X172809173Y-106304301D01*
X172712500Y-106537690D01*
X172712500Y-106790309D01*
X172712500Y-107390309D01*
X172738053Y-107452000D01*
X172049600Y-107452000D01*
X171757995Y-107510004D01*
X171510785Y-107675185D01*
X170969970Y-108216000D01*
X170254025Y-108216000D01*
X170227699Y-108189673D01*
X170180000Y-108169915D01*
X170180000Y-107452025D01*
X170331327Y-107300699D01*
X170428000Y-107067310D01*
X170428000Y-106814691D01*
X170428000Y-106014691D01*
X170340314Y-105803000D01*
X170722781Y-105803000D01*
X170888514Y-105969022D01*
X171285132Y-106133713D01*
X171714584Y-106134087D01*
X172111489Y-105970089D01*
X172415422Y-105666686D01*
X172580113Y-105270068D01*
X172580487Y-104840616D01*
X172416489Y-104443711D01*
X172113086Y-104139778D01*
X171716468Y-103975087D01*
X171287016Y-103974713D01*
X170890111Y-104138711D01*
X170749576Y-104279000D01*
X170329025Y-104279000D01*
X170152699Y-104102673D01*
X169954608Y-104020621D01*
X170454815Y-103520416D01*
X170454815Y-103520415D01*
X170619996Y-103273205D01*
X170677999Y-102981600D01*
X170678000Y-102981600D01*
X170678000Y-102515025D01*
X170704327Y-102488699D01*
X170801000Y-102255310D01*
X170801000Y-102002691D01*
X170801000Y-100502691D01*
X170704327Y-100269302D01*
X170525699Y-100090673D01*
X170292310Y-99994000D01*
X170039691Y-99994000D01*
X169539691Y-99994000D01*
X169306302Y-100090673D01*
X169281000Y-100115974D01*
X169255699Y-100090673D01*
X169022310Y-99994000D01*
X168769691Y-99994000D01*
X168269691Y-99994000D01*
X168036302Y-100090673D01*
X168011000Y-100115974D01*
X167985699Y-100090673D01*
X167752310Y-99994000D01*
X167499691Y-99994000D01*
X166999691Y-99994000D01*
X166766302Y-100090673D01*
X166741000Y-100115974D01*
X166715699Y-100090673D01*
X166482310Y-99994000D01*
X166229691Y-99994000D01*
X165729691Y-99994000D01*
X165496302Y-100090673D01*
X165471000Y-100115974D01*
X165445699Y-100090673D01*
X165212310Y-99994000D01*
X164959691Y-99994000D01*
X164459691Y-99994000D01*
X164328000Y-100048548D01*
X164328000Y-100020630D01*
X164590130Y-99758500D01*
X165735000Y-99758500D01*
X165735000Y-99758499D01*
X166026604Y-99700496D01*
X166026605Y-99700496D01*
X166273815Y-99535315D01*
X166495131Y-99313999D01*
X166710784Y-99314187D01*
X167107689Y-99150189D01*
X167411622Y-98846786D01*
X167576313Y-98450168D01*
X167576677Y-98032075D01*
X167576677Y-98032074D01*
X167797815Y-97884315D01*
X169184815Y-96497316D01*
X169184815Y-96497315D01*
X169349996Y-96250105D01*
X169407824Y-95959379D01*
X169407825Y-95959379D01*
X169539690Y-96014000D01*
X169792309Y-96014000D01*
X170292309Y-96014000D01*
X170525698Y-95917327D01*
X170704327Y-95738699D01*
X170801000Y-95505310D01*
X170801000Y-95391000D01*
X170978689Y-95391000D01*
X171091714Y-95504222D01*
X171488332Y-95668913D01*
X171917784Y-95669287D01*
X172314689Y-95505289D01*
X172618622Y-95201886D01*
X172783313Y-94805268D01*
X172783687Y-94375816D01*
X172619689Y-93978911D01*
X172316286Y-93674978D01*
X171919668Y-93510287D01*
X171490216Y-93509913D01*
X171093311Y-93673911D01*
X170899884Y-93867000D01*
X170801000Y-93867000D01*
X170801000Y-93752691D01*
X170704327Y-93519302D01*
X170525699Y-93340673D01*
X170292310Y-93244000D01*
X170039691Y-93244000D01*
X169846500Y-93244000D01*
X169846500Y-92524310D01*
X169846500Y-92271691D01*
X169846500Y-92233750D01*
X169846500Y-91662250D01*
X169846500Y-91624309D01*
X169846500Y-91371690D01*
X169749827Y-91138301D01*
X169571198Y-90959673D01*
X169337809Y-90863000D01*
X169245250Y-90863000D01*
X169086500Y-91021750D01*
X169086500Y-91821000D01*
X169687750Y-91821000D01*
X169846500Y-91662250D01*
X169846500Y-92233750D01*
X169687750Y-92075000D01*
X169086500Y-92075000D01*
X169086500Y-92874250D01*
X169245250Y-93033000D01*
X169337809Y-93033000D01*
X169571198Y-92936327D01*
X169749827Y-92757699D01*
X169846500Y-92524310D01*
X169846500Y-93244000D01*
X169539691Y-93244000D01*
X169306302Y-93340673D01*
X169281000Y-93365974D01*
X169255699Y-93340673D01*
X169022310Y-93244000D01*
X168769691Y-93244000D01*
X168269691Y-93244000D01*
X168036302Y-93340673D01*
X168011000Y-93365974D01*
X167985699Y-93340673D01*
X167921400Y-93314039D01*
X167914816Y-93304185D01*
X167643630Y-93033000D01*
X167837809Y-93033000D01*
X168071198Y-92936327D01*
X168211500Y-92796025D01*
X168351802Y-92936327D01*
X168585191Y-93033000D01*
X168677750Y-93033000D01*
X168836500Y-92874250D01*
X168836500Y-92075000D01*
X168814500Y-92075000D01*
X168814500Y-91821000D01*
X168836500Y-91821000D01*
X168836500Y-91021750D01*
X168677750Y-90863000D01*
X168585191Y-90863000D01*
X168351802Y-90959673D01*
X168211499Y-91099974D01*
X168148000Y-91036474D01*
X168148000Y-90343311D01*
X168445670Y-90144415D01*
X168656000Y-89829634D01*
X168866330Y-90144415D01*
X169352511Y-90469271D01*
X169926000Y-90583345D01*
X170499489Y-90469271D01*
X170985670Y-90144415D01*
X171196000Y-89829634D01*
X171406330Y-90144415D01*
X171892511Y-90469271D01*
X172466000Y-90583345D01*
X173039489Y-90469271D01*
X173525670Y-90144415D01*
X173850526Y-89658234D01*
X173964600Y-89084745D01*
X173964600Y-88715255D01*
X173850526Y-88141766D01*
X173525670Y-87655585D01*
X173039489Y-87330729D01*
X172466000Y-87216655D01*
X171892511Y-87330729D01*
X171406330Y-87655585D01*
X171196000Y-87970365D01*
X170985670Y-87655585D01*
X170499489Y-87330729D01*
X169926000Y-87216655D01*
X169352511Y-87330729D01*
X168866330Y-87655585D01*
X168656000Y-87970365D01*
X168445670Y-87655585D01*
X167959489Y-87330729D01*
X167386000Y-87216655D01*
X166812511Y-87330729D01*
X166326330Y-87655585D01*
X166116000Y-87970365D01*
X165905670Y-87655585D01*
X165419489Y-87330729D01*
X164846000Y-87216655D01*
X164272511Y-87330729D01*
X163786330Y-87655585D01*
X163576000Y-87970365D01*
X163365670Y-87655585D01*
X162879489Y-87330729D01*
X162306000Y-87216655D01*
X161732511Y-87330729D01*
X161246330Y-87655585D01*
X161036000Y-87970365D01*
X160825670Y-87655585D01*
X160339489Y-87330729D01*
X159766000Y-87216655D01*
X159192511Y-87330729D01*
X158706330Y-87655585D01*
X158496000Y-87970365D01*
X158285670Y-87655585D01*
X157799489Y-87330729D01*
X157226000Y-87216655D01*
X156652511Y-87330729D01*
X156166330Y-87655585D01*
X156151499Y-87677780D01*
X156087927Y-87524302D01*
X155909299Y-87345673D01*
X155675910Y-87249000D01*
X155423291Y-87249000D01*
X153696091Y-87249000D01*
X153462702Y-87345673D01*
X153284073Y-87524301D01*
X153187400Y-87757690D01*
X153187400Y-88010309D01*
X153187400Y-90042309D01*
X153284073Y-90275698D01*
X153462701Y-90454327D01*
X153696090Y-90551000D01*
X153948709Y-90551000D01*
X155675909Y-90551000D01*
X155909298Y-90454327D01*
X156087927Y-90275699D01*
X156151500Y-90122220D01*
X156166330Y-90144415D01*
X156652511Y-90469271D01*
X157226000Y-90583345D01*
X157799489Y-90469271D01*
X158285670Y-90144415D01*
X158496000Y-89829634D01*
X158706330Y-90144415D01*
X159004000Y-90343311D01*
X159004000Y-95059500D01*
X159062004Y-95351105D01*
X159227185Y-95598315D01*
X161513184Y-97884315D01*
X161513185Y-97884315D01*
X161760395Y-98049496D01*
X162052000Y-98107500D01*
X165417609Y-98107500D01*
X165417499Y-98234500D01*
X164274500Y-98234500D01*
X163982895Y-98292504D01*
X163735684Y-98457685D01*
X163027185Y-99166185D01*
X162862004Y-99413395D01*
X162804000Y-99705000D01*
X162804000Y-100048547D01*
X162672310Y-99994000D01*
X162419691Y-99994000D01*
X161919691Y-99994000D01*
X161686302Y-100090673D01*
X161507673Y-100269301D01*
X161411000Y-100502690D01*
X161411000Y-100617000D01*
X154463130Y-100617000D01*
X147699130Y-93853000D01*
X149861869Y-93853000D01*
X151416685Y-95407816D01*
X151564876Y-95506834D01*
X151663895Y-95572996D01*
X151663896Y-95572996D01*
X151955500Y-95631000D01*
X156842358Y-95631000D01*
X156994714Y-95783622D01*
X157391332Y-95948313D01*
X157820784Y-95948687D01*
X158217689Y-95784689D01*
X158521622Y-95481286D01*
X158686313Y-95084668D01*
X158686687Y-94655216D01*
X158522689Y-94258311D01*
X158219286Y-93954378D01*
X157822668Y-93789687D01*
X157393216Y-93789313D01*
X156996311Y-93953311D01*
X156842353Y-94107000D01*
X156522160Y-94107000D01*
X156590813Y-93941668D01*
X156591187Y-93512216D01*
X156427189Y-93115311D01*
X156123786Y-92811378D01*
X155727168Y-92646687D01*
X155297716Y-92646313D01*
X154900811Y-92810311D01*
X154787289Y-92923634D01*
X154812813Y-92862168D01*
X154813187Y-92432716D01*
X154649189Y-92035811D01*
X154345786Y-91731878D01*
X153949168Y-91567187D01*
X153731628Y-91566997D01*
X152222315Y-90057685D01*
X151975105Y-89892504D01*
X151683500Y-89834500D01*
X136423500Y-89834500D01*
X136423500Y-89720191D01*
X136423500Y-89072810D01*
X136423500Y-89058500D01*
X138390669Y-89058500D01*
X138773132Y-89217313D01*
X139202584Y-89217687D01*
X139599489Y-89053689D01*
X139845106Y-88808500D01*
X141407474Y-88808500D01*
X141583801Y-88984827D01*
X141817190Y-89081500D01*
X142069809Y-89081500D01*
X143028500Y-89081500D01*
X143028500Y-89197809D01*
X143125173Y-89431198D01*
X143303801Y-89609827D01*
X143537190Y-89706500D01*
X143789809Y-89706500D01*
X144789809Y-89706500D01*
X145023198Y-89609827D01*
X145201827Y-89431199D01*
X145298500Y-89197810D01*
X145298500Y-88945191D01*
X145298500Y-87495191D01*
X145201827Y-87261802D01*
X145023199Y-87083173D01*
X144931041Y-87045000D01*
X195045047Y-87045000D01*
X195798696Y-87547432D01*
X196165000Y-87913736D01*
X196165000Y-99060000D01*
X196215000Y-99311364D01*
X196215000Y-136908635D01*
M02*
