%FSLAX46Y46*%
G04 Gerber Fmt 4.6, Leading zero omitted, Abs format (unit mm)*
G04 Created by KiCad (PCBNEW (2014-08-05 BZR 5054)-product) date Wed 03 Sep 2014 08:44:24 PM PDT*
%MOMM*%
G01*
G04 APERTURE LIST*
%ADD10C,0.152400*%
%ADD11R,0.899160X1.000760*%
%ADD12R,0.600000X1.600000*%
%ADD13R,1.727200X2.032000*%
%ADD14O,1.727200X2.032000*%
%ADD15R,2.032000X2.032000*%
%ADD16O,2.032000X2.032000*%
%ADD17R,0.635000X1.143000*%
%ADD18R,1.143000X0.635000*%
%ADD19R,0.800100X1.000760*%
%ADD20R,1.143000X0.508000*%
%ADD21C,1.270000*%
%ADD22R,0.600000X2.000000*%
%ADD23R,0.700000X4.200000*%
%ADD24R,1.750000X0.700000*%
%ADD25R,1.300000X1.300000*%
%ADD26R,1.500000X0.800000*%
%ADD27R,1.400000X0.800000*%
%ADD28R,1.550000X1.000000*%
%ADD29R,1.000000X1.450000*%
%ADD30R,2.499360X2.550160*%
%ADD31R,2.550160X2.499360*%
%ADD32R,2.032000X1.727200*%
%ADD33O,2.032000X1.727200*%
G04 APERTURE END LIST*
D10*
D11*
X165851840Y-123571000D03*
X164348160Y-123571000D03*
X165851840Y-121412000D03*
X164348160Y-121412000D03*
X165851840Y-119253000D03*
X164348160Y-119253000D03*
X167121840Y-116205000D03*
X165618160Y-116205000D03*
X169428160Y-97155000D03*
X170931840Y-97155000D03*
X165851840Y-100584000D03*
X164348160Y-100584000D03*
D12*
X137825000Y-114140000D03*
X137825000Y-119540000D03*
X139075000Y-114140000D03*
X140325000Y-114140000D03*
X141575000Y-114140000D03*
X139075000Y-119540000D03*
X140325000Y-119540000D03*
X141575000Y-119540000D03*
D13*
X163830000Y-137160000D03*
D14*
X166370000Y-137160000D03*
X168910000Y-137160000D03*
X171450000Y-137160000D03*
X173990000Y-137160000D03*
X176530000Y-137160000D03*
D13*
X181610000Y-137160000D03*
D14*
X184150000Y-137160000D03*
X186690000Y-137160000D03*
X189230000Y-137160000D03*
X191770000Y-137160000D03*
X194310000Y-137160000D03*
D13*
X154940000Y-88900000D03*
D14*
X157480000Y-88900000D03*
X160020000Y-88900000D03*
X162560000Y-88900000D03*
X165100000Y-88900000D03*
X167640000Y-88900000D03*
X170180000Y-88900000D03*
X172720000Y-88900000D03*
D13*
X176530000Y-88900000D03*
D14*
X179070000Y-88900000D03*
X181610000Y-88900000D03*
X184150000Y-88900000D03*
X186690000Y-88900000D03*
X189230000Y-88900000D03*
X191770000Y-88900000D03*
X194310000Y-88900000D03*
D15*
X154940000Y-137160000D03*
D16*
X157480000Y-137160000D03*
D17*
X137668000Y-107950000D03*
X139192000Y-107950000D03*
D18*
X142240000Y-107188000D03*
X142240000Y-108712000D03*
D17*
X168148000Y-113030000D03*
X169672000Y-113030000D03*
X169418000Y-100584000D03*
X170942000Y-100584000D03*
X164338000Y-96520000D03*
X165862000Y-96520000D03*
D19*
X167640000Y-107779820D03*
X166687500Y-105580180D03*
X168592500Y-105580180D03*
D20*
X178435000Y-99695000D03*
X178435000Y-98425000D03*
X178435000Y-97155000D03*
X178435000Y-95885000D03*
X184785000Y-95885000D03*
X184785000Y-97155000D03*
X184785000Y-98425000D03*
X184785000Y-99695000D03*
X154686000Y-95250000D03*
X154686000Y-96520000D03*
X154686000Y-97790000D03*
X154686000Y-99060000D03*
X154686000Y-100330000D03*
X154686000Y-101600000D03*
X154686000Y-102870000D03*
X160020000Y-102870000D03*
X160020000Y-101600000D03*
X160020000Y-100330000D03*
X160020000Y-99060000D03*
X160020000Y-97790000D03*
X160020000Y-96520000D03*
X160020000Y-95250000D03*
X154178000Y-107950000D03*
X154178000Y-109220000D03*
X154178000Y-110490000D03*
X154178000Y-111760000D03*
X154178000Y-113030000D03*
X154178000Y-114300000D03*
X154178000Y-115570000D03*
X160528000Y-115570000D03*
X160528000Y-114300000D03*
X160528000Y-111760000D03*
X160528000Y-110490000D03*
X160528000Y-109220000D03*
X160528000Y-107950000D03*
X160528000Y-113030000D03*
D21*
X184150000Y-125730000D03*
X186690000Y-125730000D03*
X184150000Y-123190000D03*
X186690000Y-123190000D03*
X184150000Y-120650000D03*
X186690000Y-120650000D03*
X184150000Y-118110000D03*
X186690000Y-118110000D03*
X184150000Y-115570000D03*
X186690000Y-115570000D03*
X184150000Y-113030000D03*
X186690000Y-113030000D03*
X184150000Y-110490000D03*
X186690000Y-110490000D03*
X184150000Y-107950000D03*
X186690000Y-107950000D03*
D22*
X146820000Y-132350000D03*
X145820000Y-132350000D03*
X147820000Y-132350000D03*
X148820000Y-132350000D03*
D23*
X144820000Y-134350000D03*
X149820000Y-134350000D03*
D24*
X136120000Y-98530000D03*
X136120000Y-97430000D03*
X136120000Y-96330000D03*
X136120000Y-95230000D03*
X136120000Y-94130000D03*
X136120000Y-93030000D03*
X136120000Y-91930000D03*
X136120000Y-90830000D03*
D25*
X136345000Y-89630000D03*
X136345000Y-100680000D03*
D26*
X143900000Y-89380000D03*
D27*
X144470000Y-98480000D03*
D28*
X146870000Y-98030000D03*
D29*
X145370000Y-89680000D03*
D30*
X175514000Y-109616240D03*
X175514000Y-114665760D03*
D31*
X170957240Y-122682000D03*
X176006760Y-122682000D03*
X155178760Y-122428000D03*
X150129240Y-122428000D03*
D32*
X137795000Y-137160000D03*
D33*
X137795000Y-134620000D03*
X137795000Y-132080000D03*
X137795000Y-129540000D03*
M02*
