%FSLAX46Y46*%
G04 Gerber Fmt 4.6, Leading zero omitted, Abs format (unit mm)*
G04 Created by KiCad (PCBNEW (2014-08-05 BZR 5054)-product) date Thu 28 Aug 2014 10:01:32 PM PDT*
%MOMM*%
G01*
G04 APERTURE LIST*
%ADD10C,0.152400*%
%ADD11R,1.727200X2.032000*%
%ADD12O,1.727200X2.032000*%
%ADD13R,2.032000X2.032000*%
%ADD14O,2.032000X2.032000*%
%ADD15R,6.096000X6.096000*%
%ADD16C,1.270000*%
%ADD17C,0.889000*%
%ADD18C,0.762000*%
%ADD19C,0.254000*%
G04 APERTURE END LIST*
D10*
D11*
X163830000Y-137160000D03*
D12*
X166370000Y-137160000D03*
X168910000Y-137160000D03*
X171450000Y-137160000D03*
X173990000Y-137160000D03*
X176530000Y-137160000D03*
D11*
X181610000Y-137160000D03*
D12*
X184150000Y-137160000D03*
X186690000Y-137160000D03*
X189230000Y-137160000D03*
X191770000Y-137160000D03*
X194310000Y-137160000D03*
D11*
X154940000Y-88900000D03*
D12*
X157480000Y-88900000D03*
X160020000Y-88900000D03*
X162560000Y-88900000D03*
X165100000Y-88900000D03*
X167640000Y-88900000D03*
X170180000Y-88900000D03*
X172720000Y-88900000D03*
D11*
X176530000Y-88900000D03*
D12*
X179070000Y-88900000D03*
X181610000Y-88900000D03*
X184150000Y-88900000D03*
X186690000Y-88900000D03*
X189230000Y-88900000D03*
X191770000Y-88900000D03*
X194310000Y-88900000D03*
D13*
X154940000Y-137160000D03*
D14*
X157480000Y-137160000D03*
D15*
X153670000Y-111760000D03*
X153670000Y-98806000D03*
X153670000Y-124714000D03*
D16*
X184150000Y-125730000D03*
X186690000Y-125730000D03*
X184150000Y-123190000D03*
X186690000Y-123190000D03*
X184150000Y-120650000D03*
X186690000Y-120650000D03*
X184150000Y-118110000D03*
X186690000Y-118110000D03*
X184150000Y-115570000D03*
X186690000Y-115570000D03*
X184150000Y-113030000D03*
X186690000Y-113030000D03*
X184150000Y-110490000D03*
X186690000Y-110490000D03*
X184150000Y-107950000D03*
X186690000Y-107950000D03*
X167640000Y-110236000D03*
X163703000Y-110236000D03*
X176911000Y-127508000D03*
X176657000Y-122936000D03*
X179578000Y-119888000D03*
X162814000Y-94996000D03*
X171196000Y-91948000D03*
D17*
X162560000Y-119253000D03*
X170688000Y-119380000D03*
X170688000Y-122555000D03*
X170688000Y-126111000D03*
X165608000Y-102870000D03*
X133731000Y-88138000D03*
X138303000Y-101219000D03*
X158115000Y-100965000D03*
X154686000Y-93345000D03*
X145288000Y-100203000D03*
X176149000Y-98425000D03*
X169418000Y-94742000D03*
X149479000Y-111760000D03*
X143764000Y-122428000D03*
X172593000Y-105537000D03*
X172593000Y-99441000D03*
X150749000Y-105918000D03*
X169672000Y-102997000D03*
X161417000Y-133096000D03*
X159512000Y-119380000D03*
X142875000Y-124714000D03*
X146558000Y-107188000D03*
X147955000Y-120777000D03*
X140462000Y-110363000D03*
X180594000Y-128905000D03*
X144145000Y-91821000D03*
X175006000Y-93472000D03*
X175006000Y-108712000D03*
X177546000Y-93472000D03*
X177419000Y-113157000D03*
X163195000Y-103378000D03*
X162052000Y-98425000D03*
D18*
X167640000Y-110236000D02*
X163703000Y-110236000D01*
X176657000Y-127254000D02*
X176911000Y-127508000D01*
X176657000Y-122809000D02*
X176657000Y-122936000D01*
X179578000Y-119888000D02*
X176657000Y-122809000D01*
X176657000Y-122936000D02*
X176657000Y-127254000D01*
X162814000Y-94996000D02*
X165862000Y-91948000D01*
X165862000Y-91948000D02*
X171196000Y-91948000D01*
D19*
X172593000Y-105537000D02*
X172593000Y-99441000D01*
X166751000Y-105918000D02*
X150749000Y-105918000D01*
X169672000Y-102997000D02*
X166751000Y-105918000D01*
X161417000Y-121285000D02*
X161417000Y-133096000D01*
X159512000Y-119380000D02*
X161417000Y-121285000D01*
X142875000Y-124714000D02*
X153670000Y-124714000D01*
X153670000Y-100076000D02*
X146558000Y-107188000D01*
X153670000Y-98806000D02*
X153670000Y-100076000D01*
X147955000Y-120777000D02*
X143256000Y-116078000D01*
X143256000Y-116078000D02*
X143256000Y-113284000D01*
X143256000Y-113284000D02*
X140462000Y-110490000D01*
X140462000Y-110490000D02*
X140462000Y-110363000D01*
X186690000Y-135001000D02*
X180594000Y-128905000D01*
X186690000Y-137160000D02*
X186690000Y-135001000D01*
X162560000Y-91059000D02*
X161798000Y-91821000D01*
X161798000Y-91821000D02*
X144145000Y-91821000D01*
X162560000Y-88900000D02*
X162560000Y-91059000D01*
X175006000Y-93472000D02*
X175006000Y-108712000D01*
X177546000Y-93472000D02*
X177419000Y-93599000D01*
X177419000Y-93599000D02*
X177419000Y-113157000D01*
X163195000Y-103378000D02*
X162052000Y-102235000D01*
X162052000Y-102235000D02*
X162052000Y-98425000D01*
G36*
X196313713Y-99466666D02*
X196221306Y-136891631D01*
X196217143Y-136897862D01*
X196165000Y-137160000D01*
X196165000Y-139015000D01*
X195808600Y-139015000D01*
X195808600Y-137344745D01*
X195808600Y-136975255D01*
X195808600Y-89084745D01*
X195808600Y-88715255D01*
X195694526Y-88141766D01*
X195369670Y-87655585D01*
X194883489Y-87330729D01*
X194310000Y-87216655D01*
X193736511Y-87330729D01*
X193250330Y-87655585D01*
X193040000Y-87970365D01*
X192829670Y-87655585D01*
X192343489Y-87330729D01*
X191770000Y-87216655D01*
X191196511Y-87330729D01*
X190710330Y-87655585D01*
X190500000Y-87970365D01*
X190289670Y-87655585D01*
X189803489Y-87330729D01*
X189230000Y-87216655D01*
X188656511Y-87330729D01*
X188170330Y-87655585D01*
X187960000Y-87970365D01*
X187749670Y-87655585D01*
X187263489Y-87330729D01*
X186690000Y-87216655D01*
X186116511Y-87330729D01*
X185630330Y-87655585D01*
X185420000Y-87970365D01*
X185209670Y-87655585D01*
X184723489Y-87330729D01*
X184150000Y-87216655D01*
X183576511Y-87330729D01*
X183090330Y-87655585D01*
X182880000Y-87970365D01*
X182669670Y-87655585D01*
X182183489Y-87330729D01*
X181610000Y-87216655D01*
X181036511Y-87330729D01*
X180550330Y-87655585D01*
X180340000Y-87970365D01*
X180129670Y-87655585D01*
X179643489Y-87330729D01*
X179070000Y-87216655D01*
X178496511Y-87330729D01*
X178010330Y-87655585D01*
X177995499Y-87677780D01*
X177931927Y-87524302D01*
X177753299Y-87345673D01*
X177519910Y-87249000D01*
X177267291Y-87249000D01*
X175540091Y-87249000D01*
X175306702Y-87345673D01*
X175128073Y-87524301D01*
X175031400Y-87757690D01*
X175031400Y-88010309D01*
X175031400Y-90042309D01*
X175128073Y-90275698D01*
X175306701Y-90454327D01*
X175540090Y-90551000D01*
X175792709Y-90551000D01*
X177519909Y-90551000D01*
X177753298Y-90454327D01*
X177931927Y-90275699D01*
X177995500Y-90122220D01*
X178010330Y-90144415D01*
X178496511Y-90469271D01*
X179070000Y-90583345D01*
X179643489Y-90469271D01*
X180129670Y-90144415D01*
X180340000Y-89829634D01*
X180550330Y-90144415D01*
X181036511Y-90469271D01*
X181610000Y-90583345D01*
X182183489Y-90469271D01*
X182669670Y-90144415D01*
X182880000Y-89829634D01*
X183090330Y-90144415D01*
X183576511Y-90469271D01*
X184150000Y-90583345D01*
X184723489Y-90469271D01*
X185209670Y-90144415D01*
X185420000Y-89829634D01*
X185630330Y-90144415D01*
X186116511Y-90469271D01*
X186690000Y-90583345D01*
X187263489Y-90469271D01*
X187749670Y-90144415D01*
X187960000Y-89829634D01*
X188170330Y-90144415D01*
X188656511Y-90469271D01*
X189230000Y-90583345D01*
X189803489Y-90469271D01*
X190289670Y-90144415D01*
X190500000Y-89829634D01*
X190710330Y-90144415D01*
X191196511Y-90469271D01*
X191770000Y-90583345D01*
X192343489Y-90469271D01*
X192829670Y-90144415D01*
X193040000Y-89829634D01*
X193250330Y-90144415D01*
X193736511Y-90469271D01*
X194310000Y-90583345D01*
X194883489Y-90469271D01*
X195369670Y-90144415D01*
X195694526Y-89658234D01*
X195808600Y-89084745D01*
X195808600Y-136975255D01*
X195694526Y-136401766D01*
X195369670Y-135915585D01*
X194883489Y-135590729D01*
X194310000Y-135476655D01*
X193736511Y-135590729D01*
X193250330Y-135915585D01*
X193040000Y-136230365D01*
X192829670Y-135915585D01*
X192343489Y-135590729D01*
X191770000Y-135476655D01*
X191196511Y-135590729D01*
X190710330Y-135915585D01*
X190500000Y-136230365D01*
X190289670Y-135915585D01*
X189803489Y-135590729D01*
X189230000Y-135476655D01*
X188656511Y-135590729D01*
X188170330Y-135915585D01*
X187972681Y-136211386D01*
X187972681Y-115747336D01*
X187942906Y-115242977D01*
X187807179Y-114915303D01*
X187578133Y-114861472D01*
X186869605Y-115570000D01*
X187578133Y-116278528D01*
X187807179Y-116224697D01*
X187972681Y-115747336D01*
X187972681Y-136211386D01*
X187960220Y-136230035D01*
X187960220Y-125478490D01*
X187767282Y-125011542D01*
X187410337Y-124653974D01*
X186943727Y-124460221D01*
X186941512Y-124460219D01*
X187408458Y-124267282D01*
X187766026Y-123910337D01*
X187959779Y-123443727D01*
X187960220Y-122938490D01*
X187767282Y-122471542D01*
X187410337Y-122113974D01*
X186943727Y-121920221D01*
X186941512Y-121920219D01*
X187408458Y-121727282D01*
X187766026Y-121370337D01*
X187959779Y-120903727D01*
X187960220Y-120398490D01*
X187767282Y-119931542D01*
X187410337Y-119573974D01*
X186943727Y-119380221D01*
X186941512Y-119380219D01*
X187408458Y-119187282D01*
X187766026Y-118830337D01*
X187959779Y-118363727D01*
X187960220Y-117858490D01*
X187767282Y-117391542D01*
X187410337Y-117033974D01*
X186943727Y-116840221D01*
X186726929Y-116840031D01*
X187017023Y-116822906D01*
X187344697Y-116687179D01*
X187398528Y-116458133D01*
X186690000Y-115749605D01*
X185981472Y-116458133D01*
X186035303Y-116687179D01*
X186475546Y-116839812D01*
X186438490Y-116839780D01*
X185971542Y-117032718D01*
X185613974Y-117389663D01*
X185420221Y-117856273D01*
X185420219Y-117858487D01*
X185227282Y-117391542D01*
X184870337Y-117033974D01*
X184403727Y-116840221D01*
X184401512Y-116840219D01*
X184868458Y-116647282D01*
X185226026Y-116290337D01*
X185419779Y-115823727D01*
X185419968Y-115606929D01*
X185437094Y-115897023D01*
X185572821Y-116224697D01*
X185801867Y-116278528D01*
X186510395Y-115570000D01*
X185801867Y-114861472D01*
X185572821Y-114915303D01*
X185420187Y-115355546D01*
X185420220Y-115318490D01*
X185227282Y-114851542D01*
X184870337Y-114493974D01*
X184403727Y-114300221D01*
X184401512Y-114300219D01*
X184868458Y-114107282D01*
X185226026Y-113750337D01*
X185419779Y-113283727D01*
X185419780Y-113281512D01*
X185612718Y-113748458D01*
X185969663Y-114106026D01*
X186436273Y-114299779D01*
X186653070Y-114299968D01*
X186362977Y-114317094D01*
X186035303Y-114452821D01*
X185981472Y-114681867D01*
X186690000Y-115390395D01*
X187398528Y-114681867D01*
X187344697Y-114452821D01*
X186904453Y-114300187D01*
X186941510Y-114300220D01*
X187408458Y-114107282D01*
X187766026Y-113750337D01*
X187959779Y-113283727D01*
X187960220Y-112778490D01*
X187767282Y-112311542D01*
X187410337Y-111953974D01*
X186943727Y-111760221D01*
X186941512Y-111760219D01*
X187408458Y-111567282D01*
X187766026Y-111210337D01*
X187959779Y-110743727D01*
X187960220Y-110238490D01*
X187767282Y-109771542D01*
X187410337Y-109413974D01*
X186943727Y-109220221D01*
X186941512Y-109220219D01*
X187408458Y-109027282D01*
X187766026Y-108670337D01*
X187959779Y-108203727D01*
X187960220Y-107698490D01*
X187767282Y-107231542D01*
X187410337Y-106873974D01*
X186943727Y-106680221D01*
X186438490Y-106679780D01*
X185971542Y-106872718D01*
X185613974Y-107229663D01*
X185420221Y-107696273D01*
X185420219Y-107698487D01*
X185227282Y-107231542D01*
X184870337Y-106873974D01*
X184403727Y-106680221D01*
X183898490Y-106679780D01*
X183431542Y-106872718D01*
X183073974Y-107229663D01*
X182880221Y-107696273D01*
X182879780Y-108201510D01*
X183072718Y-108668458D01*
X183429663Y-109026026D01*
X183896273Y-109219779D01*
X183898487Y-109219780D01*
X183431542Y-109412718D01*
X183073974Y-109769663D01*
X182880221Y-110236273D01*
X182879780Y-110741510D01*
X183072718Y-111208458D01*
X183429663Y-111566026D01*
X183896273Y-111759779D01*
X183898487Y-111759780D01*
X183431542Y-111952718D01*
X183073974Y-112309663D01*
X182880221Y-112776273D01*
X182879780Y-113281510D01*
X183072718Y-113748458D01*
X183429663Y-114106026D01*
X183896273Y-114299779D01*
X183898487Y-114299780D01*
X183431542Y-114492718D01*
X183073974Y-114849663D01*
X182880221Y-115316273D01*
X182879780Y-115821510D01*
X183072718Y-116288458D01*
X183429663Y-116646026D01*
X183896273Y-116839779D01*
X183898487Y-116839780D01*
X183431542Y-117032718D01*
X183073974Y-117389663D01*
X182880221Y-117856273D01*
X182879780Y-118361510D01*
X183072718Y-118828458D01*
X183429663Y-119186026D01*
X183896273Y-119379779D01*
X184113070Y-119379968D01*
X183822977Y-119397094D01*
X183495303Y-119532821D01*
X183441472Y-119761867D01*
X184150000Y-120470395D01*
X184858528Y-119761867D01*
X184804697Y-119532821D01*
X184364453Y-119380187D01*
X184401510Y-119380220D01*
X184868458Y-119187282D01*
X185226026Y-118830337D01*
X185419779Y-118363727D01*
X185419780Y-118361512D01*
X185612718Y-118828458D01*
X185969663Y-119186026D01*
X186436273Y-119379779D01*
X186438487Y-119379780D01*
X185971542Y-119572718D01*
X185613974Y-119929663D01*
X185420221Y-120396273D01*
X185420031Y-120613070D01*
X185402906Y-120322977D01*
X185267179Y-119995303D01*
X185038133Y-119941472D01*
X184329605Y-120650000D01*
X185038133Y-121358528D01*
X185267179Y-121304697D01*
X185419812Y-120864453D01*
X185419780Y-120901510D01*
X185612718Y-121368458D01*
X185969663Y-121726026D01*
X186436273Y-121919779D01*
X186438487Y-121919780D01*
X185971542Y-122112718D01*
X185613974Y-122469663D01*
X185420221Y-122936273D01*
X185420031Y-123153070D01*
X185402906Y-122862977D01*
X185267179Y-122535303D01*
X185038133Y-122481472D01*
X184858528Y-122661077D01*
X184858528Y-122301867D01*
X184804697Y-122072821D01*
X184338239Y-121911099D01*
X184477023Y-121902906D01*
X184804697Y-121767179D01*
X184858528Y-121538133D01*
X184150000Y-120829605D01*
X183970395Y-121009210D01*
X183970395Y-120650000D01*
X183261867Y-119941472D01*
X183032821Y-119995303D01*
X182867319Y-120472664D01*
X182897094Y-120977023D01*
X183032821Y-121304697D01*
X183261867Y-121358528D01*
X183970395Y-120650000D01*
X183970395Y-121009210D01*
X183441472Y-121538133D01*
X183495303Y-121767179D01*
X183961760Y-121928900D01*
X183822977Y-121937094D01*
X183495303Y-122072821D01*
X183441472Y-122301867D01*
X184150000Y-123010395D01*
X184858528Y-122301867D01*
X184858528Y-122661077D01*
X184329605Y-123190000D01*
X185038133Y-123898528D01*
X185267179Y-123844697D01*
X185419812Y-123404453D01*
X185419780Y-123441510D01*
X185612718Y-123908458D01*
X185969663Y-124266026D01*
X186436273Y-124459779D01*
X186438487Y-124459780D01*
X185971542Y-124652718D01*
X185613974Y-125009663D01*
X185420221Y-125476273D01*
X185420031Y-125693070D01*
X185402906Y-125402977D01*
X185267179Y-125075303D01*
X185038133Y-125021472D01*
X184858528Y-125201077D01*
X184858528Y-124841867D01*
X184804697Y-124612821D01*
X184338239Y-124451099D01*
X184477023Y-124442906D01*
X184804697Y-124307179D01*
X184858528Y-124078133D01*
X184150000Y-123369605D01*
X183970395Y-123549210D01*
X183970395Y-123190000D01*
X183261867Y-122481472D01*
X183032821Y-122535303D01*
X182867319Y-123012664D01*
X182897094Y-123517023D01*
X183032821Y-123844697D01*
X183261867Y-123898528D01*
X183970395Y-123190000D01*
X183970395Y-123549210D01*
X183441472Y-124078133D01*
X183495303Y-124307179D01*
X183961760Y-124468900D01*
X183822977Y-124477094D01*
X183495303Y-124612821D01*
X183441472Y-124841867D01*
X184150000Y-125550395D01*
X184858528Y-124841867D01*
X184858528Y-125201077D01*
X184329605Y-125730000D01*
X185038133Y-126438528D01*
X185267179Y-126384697D01*
X185419812Y-125944453D01*
X185419780Y-125981510D01*
X185612718Y-126448458D01*
X185969663Y-126806026D01*
X186436273Y-126999779D01*
X186941510Y-127000220D01*
X187408458Y-126807282D01*
X187766026Y-126450337D01*
X187959779Y-125983727D01*
X187960220Y-125478490D01*
X187960220Y-136230035D01*
X187960000Y-136230365D01*
X187749670Y-135915585D01*
X187452000Y-135716688D01*
X187452000Y-135001000D01*
X187393996Y-134709396D01*
X187393996Y-134709395D01*
X187228815Y-134462185D01*
X184858528Y-132091898D01*
X184858528Y-126618133D01*
X184150000Y-125909605D01*
X183970395Y-126089210D01*
X183970395Y-125730000D01*
X183261867Y-125021472D01*
X183032821Y-125075303D01*
X182867319Y-125552664D01*
X182897094Y-126057023D01*
X183032821Y-126384697D01*
X183261867Y-126438528D01*
X183970395Y-125730000D01*
X183970395Y-126089210D01*
X183441472Y-126618133D01*
X183495303Y-126847179D01*
X183972664Y-127012681D01*
X184477023Y-126982906D01*
X184804697Y-126847179D01*
X184858528Y-126618133D01*
X184858528Y-132091898D01*
X181673499Y-128906869D01*
X181673687Y-128691216D01*
X181509689Y-128294311D01*
X181206286Y-127990378D01*
X180848220Y-127841695D01*
X180848220Y-119636490D01*
X180655282Y-119169542D01*
X180298337Y-118811974D01*
X179831727Y-118618221D01*
X179326490Y-118617780D01*
X178859542Y-118810718D01*
X178625687Y-119044165D01*
X178625687Y-93258216D01*
X178461689Y-92861311D01*
X178158286Y-92557378D01*
X177761668Y-92392687D01*
X177332216Y-92392313D01*
X176935311Y-92556311D01*
X176631378Y-92859714D01*
X176466687Y-93256332D01*
X176466313Y-93685784D01*
X176630311Y-94082689D01*
X176657000Y-94109424D01*
X176657000Y-112392358D01*
X176504378Y-112544714D01*
X176339687Y-112941332D01*
X176339313Y-113370784D01*
X176503311Y-113767689D01*
X176806714Y-114071622D01*
X177203332Y-114236313D01*
X177632784Y-114236687D01*
X178029689Y-114072689D01*
X178333622Y-113769286D01*
X178498313Y-113372668D01*
X178498687Y-112943216D01*
X178334689Y-112546311D01*
X178181000Y-112392353D01*
X178181000Y-94363420D01*
X178460622Y-94084286D01*
X178625313Y-93687668D01*
X178625687Y-93258216D01*
X178625687Y-119044165D01*
X178501974Y-119167663D01*
X178308221Y-119634273D01*
X178308145Y-119721013D01*
X176333728Y-121695430D01*
X176085687Y-121797918D01*
X176085687Y-108498216D01*
X175921689Y-108101311D01*
X175768000Y-107947353D01*
X175768000Y-94236641D01*
X175920622Y-94084286D01*
X176085313Y-93687668D01*
X176085687Y-93258216D01*
X175921689Y-92861311D01*
X175618286Y-92557378D01*
X175221668Y-92392687D01*
X174792216Y-92392313D01*
X174395311Y-92556311D01*
X174218600Y-92732713D01*
X174218600Y-89084745D01*
X174218600Y-88715255D01*
X174104526Y-88141766D01*
X173779670Y-87655585D01*
X173293489Y-87330729D01*
X172720000Y-87216655D01*
X172146511Y-87330729D01*
X171660330Y-87655585D01*
X171450000Y-87970365D01*
X171239670Y-87655585D01*
X170753489Y-87330729D01*
X170180000Y-87216655D01*
X169606511Y-87330729D01*
X169120330Y-87655585D01*
X168910000Y-87970365D01*
X168699670Y-87655585D01*
X168213489Y-87330729D01*
X167640000Y-87216655D01*
X167066511Y-87330729D01*
X166580330Y-87655585D01*
X166370000Y-87970365D01*
X166159670Y-87655585D01*
X165673489Y-87330729D01*
X165100000Y-87216655D01*
X164526511Y-87330729D01*
X164040330Y-87655585D01*
X163830000Y-87970365D01*
X163619670Y-87655585D01*
X163133489Y-87330729D01*
X162560000Y-87216655D01*
X161986511Y-87330729D01*
X161500330Y-87655585D01*
X161290000Y-87970365D01*
X161079670Y-87655585D01*
X160593489Y-87330729D01*
X160020000Y-87216655D01*
X159446511Y-87330729D01*
X158960330Y-87655585D01*
X158753539Y-87965069D01*
X158382036Y-87549268D01*
X157854791Y-87295291D01*
X157839026Y-87292642D01*
X157607000Y-87413783D01*
X157607000Y-88773000D01*
X157627000Y-88773000D01*
X157627000Y-89027000D01*
X157607000Y-89027000D01*
X157607000Y-90386217D01*
X157839026Y-90507358D01*
X157854791Y-90504709D01*
X158382036Y-90250732D01*
X158753539Y-89834930D01*
X158960330Y-90144415D01*
X159446511Y-90469271D01*
X160020000Y-90583345D01*
X160593489Y-90469271D01*
X161079670Y-90144415D01*
X161290000Y-89829634D01*
X161500330Y-90144415D01*
X161798000Y-90343311D01*
X161798000Y-90743369D01*
X161482369Y-91059000D01*
X157353000Y-91059000D01*
X157353000Y-90386217D01*
X157353000Y-89027000D01*
X157333000Y-89027000D01*
X157333000Y-88773000D01*
X157353000Y-88773000D01*
X157353000Y-87413783D01*
X157120974Y-87292642D01*
X157105209Y-87295291D01*
X156577964Y-87549268D01*
X156423758Y-87721860D01*
X156341927Y-87524302D01*
X156163299Y-87345673D01*
X155929910Y-87249000D01*
X155677291Y-87249000D01*
X153950091Y-87249000D01*
X153716702Y-87345673D01*
X153538073Y-87524301D01*
X153441400Y-87757690D01*
X153441400Y-88010309D01*
X153441400Y-90042309D01*
X153538073Y-90275698D01*
X153716701Y-90454327D01*
X153950090Y-90551000D01*
X154202709Y-90551000D01*
X155929909Y-90551000D01*
X156163298Y-90454327D01*
X156341927Y-90275699D01*
X156423758Y-90078139D01*
X156577964Y-90250732D01*
X157105209Y-90504709D01*
X157120974Y-90507358D01*
X157353000Y-90386217D01*
X157353000Y-91059000D01*
X144909641Y-91059000D01*
X144757286Y-90906378D01*
X144360668Y-90741687D01*
X143931216Y-90741313D01*
X143534311Y-90905311D01*
X143230378Y-91208714D01*
X143065687Y-91605332D01*
X143065313Y-92034784D01*
X143229311Y-92431689D01*
X143532714Y-92735622D01*
X143929332Y-92900313D01*
X144358784Y-92900687D01*
X144755689Y-92736689D01*
X144909646Y-92583000D01*
X161798000Y-92583000D01*
X161798000Y-92582999D01*
X162089604Y-92524996D01*
X162089605Y-92524996D01*
X162336815Y-92359815D01*
X163098815Y-91597815D01*
X163098816Y-91597815D01*
X163197834Y-91449623D01*
X163263996Y-91350605D01*
X163263996Y-91350604D01*
X163322000Y-91059000D01*
X163322000Y-90343311D01*
X163619670Y-90144415D01*
X163830000Y-89829634D01*
X164040330Y-90144415D01*
X164526511Y-90469271D01*
X165100000Y-90583345D01*
X165673489Y-90469271D01*
X166159670Y-90144415D01*
X166370000Y-89829634D01*
X166580330Y-90144415D01*
X167066511Y-90469271D01*
X167640000Y-90583345D01*
X168213489Y-90469271D01*
X168699670Y-90144415D01*
X168910000Y-89829634D01*
X169120330Y-90144415D01*
X169606511Y-90469271D01*
X170180000Y-90583345D01*
X170753489Y-90469271D01*
X171239670Y-90144415D01*
X171450000Y-89829634D01*
X171660330Y-90144415D01*
X172146511Y-90469271D01*
X172720000Y-90583345D01*
X173293489Y-90469271D01*
X173779670Y-90144415D01*
X174104526Y-89658234D01*
X174218600Y-89084745D01*
X174218600Y-92732713D01*
X174091378Y-92859714D01*
X173926687Y-93256332D01*
X173926313Y-93685784D01*
X174090311Y-94082689D01*
X174244000Y-94236646D01*
X174244000Y-107947358D01*
X174091378Y-108099714D01*
X173926687Y-108496332D01*
X173926313Y-108925784D01*
X174090311Y-109322689D01*
X174393714Y-109626622D01*
X174790332Y-109791313D01*
X175219784Y-109791687D01*
X175616689Y-109627689D01*
X175920622Y-109324286D01*
X176085313Y-108927668D01*
X176085687Y-108498216D01*
X176085687Y-121797918D01*
X175938542Y-121858718D01*
X175580974Y-122215663D01*
X175387221Y-122682273D01*
X175386780Y-123187510D01*
X175579718Y-123654458D01*
X175641000Y-123715846D01*
X175641000Y-127254000D01*
X175641220Y-127255107D01*
X175640780Y-127759510D01*
X175833718Y-128226458D01*
X176190663Y-128584026D01*
X176657273Y-128777779D01*
X177162510Y-128778220D01*
X177629458Y-128585282D01*
X177987026Y-128228337D01*
X178180779Y-127761727D01*
X178181220Y-127256490D01*
X177988282Y-126789542D01*
X177673000Y-126473709D01*
X177673000Y-123716258D01*
X177733026Y-123656337D01*
X177926779Y-123189727D01*
X177926965Y-122975874D01*
X179744694Y-121158145D01*
X179829510Y-121158220D01*
X180296458Y-120965282D01*
X180654026Y-120608337D01*
X180847779Y-120141727D01*
X180848220Y-119636490D01*
X180848220Y-127841695D01*
X180809668Y-127825687D01*
X180380216Y-127825313D01*
X179983311Y-127989311D01*
X179679378Y-128292714D01*
X179514687Y-128689332D01*
X179514313Y-129118784D01*
X179678311Y-129515689D01*
X179981714Y-129819622D01*
X180378332Y-129984313D01*
X180595872Y-129984502D01*
X185928000Y-135316630D01*
X185928000Y-135716688D01*
X185630330Y-135915585D01*
X185420000Y-136230365D01*
X185209670Y-135915585D01*
X184723489Y-135590729D01*
X184150000Y-135476655D01*
X183576511Y-135590729D01*
X183090330Y-135915585D01*
X183075499Y-135937780D01*
X183011927Y-135784302D01*
X182833299Y-135605673D01*
X182599910Y-135509000D01*
X182347291Y-135509000D01*
X180620091Y-135509000D01*
X180386702Y-135605673D01*
X180208073Y-135784301D01*
X180111400Y-136017690D01*
X180111400Y-136270309D01*
X180111400Y-138302309D01*
X180208073Y-138535698D01*
X180386701Y-138714327D01*
X180620090Y-138811000D01*
X180872709Y-138811000D01*
X182599909Y-138811000D01*
X182833298Y-138714327D01*
X183011927Y-138535699D01*
X183075500Y-138382220D01*
X183090330Y-138404415D01*
X183576511Y-138729271D01*
X184150000Y-138843345D01*
X184723489Y-138729271D01*
X185209670Y-138404415D01*
X185420000Y-138089634D01*
X185630330Y-138404415D01*
X186116511Y-138729271D01*
X186690000Y-138843345D01*
X187263489Y-138729271D01*
X187749670Y-138404415D01*
X187960000Y-138089634D01*
X188170330Y-138404415D01*
X188656511Y-138729271D01*
X189230000Y-138843345D01*
X189803489Y-138729271D01*
X190289670Y-138404415D01*
X190500000Y-138089634D01*
X190710330Y-138404415D01*
X191196511Y-138729271D01*
X191770000Y-138843345D01*
X192343489Y-138729271D01*
X192829670Y-138404415D01*
X193040000Y-138089634D01*
X193250330Y-138404415D01*
X193736511Y-138729271D01*
X194310000Y-138843345D01*
X194883489Y-138729271D01*
X195369670Y-138404415D01*
X195694526Y-137918234D01*
X195808600Y-137344745D01*
X195808600Y-139015000D01*
X178028600Y-139015000D01*
X178028600Y-137344745D01*
X178028600Y-136975255D01*
X177914526Y-136401766D01*
X177589670Y-135915585D01*
X177103489Y-135590729D01*
X176530000Y-135476655D01*
X175956511Y-135590729D01*
X175470330Y-135915585D01*
X175263539Y-136225069D01*
X174892036Y-135809268D01*
X174364791Y-135555291D01*
X174349026Y-135552642D01*
X174117000Y-135673783D01*
X174117000Y-137033000D01*
X174137000Y-137033000D01*
X174137000Y-137287000D01*
X174117000Y-137287000D01*
X174117000Y-138646217D01*
X174349026Y-138767358D01*
X174364791Y-138764709D01*
X174892036Y-138510732D01*
X175263539Y-138094930D01*
X175470330Y-138404415D01*
X175956511Y-138729271D01*
X176530000Y-138843345D01*
X177103489Y-138729271D01*
X177589670Y-138404415D01*
X177914526Y-137918234D01*
X178028600Y-137344745D01*
X178028600Y-139015000D01*
X173863000Y-139015000D01*
X173863000Y-138646217D01*
X173863000Y-137287000D01*
X173863000Y-137033000D01*
X173863000Y-135673783D01*
X173672687Y-135574420D01*
X173672687Y-105323216D01*
X173508689Y-104926311D01*
X173355000Y-104772353D01*
X173355000Y-100205641D01*
X173507622Y-100053286D01*
X173672313Y-99656668D01*
X173672687Y-99227216D01*
X173508689Y-98830311D01*
X173205286Y-98526378D01*
X172808668Y-98361687D01*
X172466220Y-98361388D01*
X172466220Y-91696490D01*
X172273282Y-91229542D01*
X171916337Y-90871974D01*
X171449727Y-90678221D01*
X170944490Y-90677780D01*
X170477542Y-90870718D01*
X170416153Y-90932000D01*
X165862000Y-90932000D01*
X165537700Y-90996507D01*
X165473193Y-91009338D01*
X165143580Y-91229579D01*
X162647305Y-93725854D01*
X162562490Y-93725780D01*
X162095542Y-93918718D01*
X161737974Y-94275663D01*
X161544221Y-94742273D01*
X161543780Y-95247510D01*
X161736718Y-95714458D01*
X162093663Y-96072026D01*
X162560273Y-96265779D01*
X163065510Y-96266220D01*
X163532458Y-96073282D01*
X163890026Y-95716337D01*
X164083779Y-95249727D01*
X164083854Y-95162985D01*
X166282840Y-92964000D01*
X170415741Y-92964000D01*
X170475663Y-93024026D01*
X170942273Y-93217779D01*
X171447510Y-93218220D01*
X171914458Y-93025282D01*
X172272026Y-92668337D01*
X172465779Y-92201727D01*
X172466220Y-91696490D01*
X172466220Y-98361388D01*
X172379216Y-98361313D01*
X171982311Y-98525311D01*
X171678378Y-98828714D01*
X171513687Y-99225332D01*
X171513313Y-99654784D01*
X171677311Y-100051689D01*
X171831000Y-100205646D01*
X171831000Y-104772358D01*
X171678378Y-104924714D01*
X171513687Y-105321332D01*
X171513313Y-105750784D01*
X171677311Y-106147689D01*
X171980714Y-106451622D01*
X172377332Y-106616313D01*
X172806784Y-106616687D01*
X173203689Y-106452689D01*
X173507622Y-106149286D01*
X173672313Y-105752668D01*
X173672687Y-105323216D01*
X173672687Y-135574420D01*
X173630974Y-135552642D01*
X173615209Y-135555291D01*
X173087964Y-135809268D01*
X172720000Y-136221108D01*
X172352036Y-135809268D01*
X171824791Y-135555291D01*
X171809026Y-135552642D01*
X171577000Y-135673783D01*
X171577000Y-137033000D01*
X172649076Y-137033000D01*
X172790924Y-137033000D01*
X173863000Y-137033000D01*
X173863000Y-137287000D01*
X172790924Y-137287000D01*
X172649076Y-137287000D01*
X171577000Y-137287000D01*
X171577000Y-138646217D01*
X171809026Y-138767358D01*
X171824791Y-138764709D01*
X172352036Y-138510732D01*
X172720000Y-138098891D01*
X173087964Y-138510732D01*
X173615209Y-138764709D01*
X173630974Y-138767358D01*
X173863000Y-138646217D01*
X173863000Y-139015000D01*
X171323000Y-139015000D01*
X171323000Y-138646217D01*
X171323000Y-137287000D01*
X171303000Y-137287000D01*
X171303000Y-137033000D01*
X171323000Y-137033000D01*
X171323000Y-135673783D01*
X171090974Y-135552642D01*
X171075209Y-135555291D01*
X170751687Y-135711133D01*
X170751687Y-102783216D01*
X170587689Y-102386311D01*
X170284286Y-102082378D01*
X169887668Y-101917687D01*
X169458216Y-101917313D01*
X169061311Y-102081311D01*
X168757378Y-102384714D01*
X168592687Y-102781332D01*
X168592497Y-102998872D01*
X166435370Y-105156000D01*
X164274687Y-105156000D01*
X164274687Y-103164216D01*
X164110689Y-102767311D01*
X163807286Y-102463378D01*
X163410668Y-102298687D01*
X163193127Y-102298497D01*
X162814000Y-101919370D01*
X162814000Y-99189641D01*
X162966622Y-99037286D01*
X163131313Y-98640668D01*
X163131687Y-98211216D01*
X162967689Y-97814311D01*
X162664286Y-97510378D01*
X162267668Y-97345687D01*
X161838216Y-97345313D01*
X161441311Y-97509311D01*
X161137378Y-97812714D01*
X160972687Y-98209332D01*
X160972313Y-98638784D01*
X161136311Y-99035689D01*
X161290000Y-99189646D01*
X161290000Y-102235000D01*
X161348004Y-102526605D01*
X161513185Y-102773815D01*
X162115500Y-103376130D01*
X162115313Y-103591784D01*
X162279311Y-103988689D01*
X162582714Y-104292622D01*
X162979332Y-104457313D01*
X163408784Y-104457687D01*
X163805689Y-104293689D01*
X164109622Y-103990286D01*
X164274313Y-103593668D01*
X164274687Y-103164216D01*
X164274687Y-105156000D01*
X157353000Y-105156000D01*
X157353000Y-101980310D01*
X157353000Y-101727691D01*
X157353000Y-95631691D01*
X157256327Y-95398302D01*
X157077699Y-95219673D01*
X156844310Y-95123000D01*
X156591691Y-95123000D01*
X150495691Y-95123000D01*
X150262302Y-95219673D01*
X150083673Y-95398301D01*
X149987000Y-95631690D01*
X149987000Y-95884309D01*
X149987000Y-101980309D01*
X150083673Y-102213698D01*
X150262301Y-102392327D01*
X150272018Y-102396351D01*
X146559869Y-106108500D01*
X146344216Y-106108313D01*
X145947311Y-106272311D01*
X145643378Y-106575714D01*
X145478687Y-106972332D01*
X145478313Y-107401784D01*
X145642311Y-107798689D01*
X145945714Y-108102622D01*
X146342332Y-108267313D01*
X146771784Y-108267687D01*
X147168689Y-108103689D01*
X147472622Y-107800286D01*
X147637313Y-107403668D01*
X147637502Y-107186127D01*
X152334630Y-102489000D01*
X156844309Y-102489000D01*
X157077698Y-102392327D01*
X157256327Y-102213699D01*
X157353000Y-101980310D01*
X157353000Y-105156000D01*
X151513641Y-105156000D01*
X151361286Y-105003378D01*
X150964668Y-104838687D01*
X150535216Y-104838313D01*
X150138311Y-105002311D01*
X149834378Y-105305714D01*
X149669687Y-105702332D01*
X149669313Y-106131784D01*
X149833311Y-106528689D01*
X150136714Y-106832622D01*
X150533332Y-106997313D01*
X150962784Y-106997687D01*
X151359689Y-106833689D01*
X151513646Y-106680000D01*
X166751000Y-106680000D01*
X166751000Y-106679999D01*
X167042604Y-106621996D01*
X167042605Y-106621996D01*
X167289815Y-106456815D01*
X169670130Y-104076499D01*
X169885784Y-104076687D01*
X170282689Y-103912689D01*
X170586622Y-103609286D01*
X170751313Y-103212668D01*
X170751687Y-102783216D01*
X170751687Y-135711133D01*
X170547964Y-135809268D01*
X170176460Y-136225069D01*
X169969670Y-135915585D01*
X169483489Y-135590729D01*
X168910220Y-135476698D01*
X168910220Y-109984490D01*
X168717282Y-109517542D01*
X168360337Y-109159974D01*
X167893727Y-108966221D01*
X167388490Y-108965780D01*
X166921542Y-109158718D01*
X166860153Y-109220000D01*
X164483258Y-109220000D01*
X164423337Y-109159974D01*
X163956727Y-108966221D01*
X163451490Y-108965780D01*
X162984542Y-109158718D01*
X162626974Y-109515663D01*
X162433221Y-109982273D01*
X162432780Y-110487510D01*
X162625718Y-110954458D01*
X162982663Y-111312026D01*
X163449273Y-111505779D01*
X163954510Y-111506220D01*
X164421458Y-111313282D01*
X164482846Y-111252000D01*
X166859741Y-111252000D01*
X166919663Y-111312026D01*
X167386273Y-111505779D01*
X167891510Y-111506220D01*
X168358458Y-111313282D01*
X168716026Y-110956337D01*
X168909779Y-110489727D01*
X168910220Y-109984490D01*
X168910220Y-135476698D01*
X168910000Y-135476655D01*
X168336511Y-135590729D01*
X167850330Y-135915585D01*
X167640000Y-136230365D01*
X167429670Y-135915585D01*
X166943489Y-135590729D01*
X166370000Y-135476655D01*
X165796511Y-135590729D01*
X165310330Y-135915585D01*
X165295499Y-135937780D01*
X165231927Y-135784302D01*
X165053299Y-135605673D01*
X164819910Y-135509000D01*
X164567291Y-135509000D01*
X162840091Y-135509000D01*
X162606702Y-135605673D01*
X162496687Y-135715687D01*
X162496687Y-132882216D01*
X162332689Y-132485311D01*
X162179000Y-132331353D01*
X162179000Y-121285000D01*
X162120996Y-120993396D01*
X162120996Y-120993395D01*
X161955815Y-120746185D01*
X160591499Y-119381869D01*
X160591687Y-119166216D01*
X160427689Y-118769311D01*
X160124286Y-118465378D01*
X159727668Y-118300687D01*
X159298216Y-118300313D01*
X158901311Y-118464311D01*
X158597378Y-118767714D01*
X158432687Y-119164332D01*
X158432313Y-119593784D01*
X158596311Y-119990689D01*
X158899714Y-120294622D01*
X159296332Y-120459313D01*
X159513872Y-120459502D01*
X160655000Y-121600630D01*
X160655000Y-132331358D01*
X160502378Y-132483714D01*
X160337687Y-132880332D01*
X160337313Y-133309784D01*
X160501311Y-133706689D01*
X160804714Y-134010622D01*
X161201332Y-134175313D01*
X161630784Y-134175687D01*
X162027689Y-134011689D01*
X162331622Y-133708286D01*
X162496313Y-133311668D01*
X162496687Y-132882216D01*
X162496687Y-135715687D01*
X162428073Y-135784301D01*
X162331400Y-136017690D01*
X162331400Y-136270309D01*
X162331400Y-138302309D01*
X162428073Y-138535698D01*
X162606701Y-138714327D01*
X162840090Y-138811000D01*
X163092709Y-138811000D01*
X164819909Y-138811000D01*
X165053298Y-138714327D01*
X165231927Y-138535699D01*
X165295500Y-138382220D01*
X165310330Y-138404415D01*
X165796511Y-138729271D01*
X166370000Y-138843345D01*
X166943489Y-138729271D01*
X167429670Y-138404415D01*
X167640000Y-138089634D01*
X167850330Y-138404415D01*
X168336511Y-138729271D01*
X168910000Y-138843345D01*
X169483489Y-138729271D01*
X169969670Y-138404415D01*
X170176460Y-138094930D01*
X170547964Y-138510732D01*
X171075209Y-138764709D01*
X171090974Y-138767358D01*
X171323000Y-138646217D01*
X171323000Y-139015000D01*
X159163345Y-139015000D01*
X159163345Y-137160000D01*
X159037670Y-136528190D01*
X158679778Y-135992567D01*
X158144155Y-135634675D01*
X157512345Y-135509000D01*
X157447655Y-135509000D01*
X157353000Y-135527828D01*
X157353000Y-127888310D01*
X157353000Y-127635691D01*
X157353000Y-121539691D01*
X157353000Y-114934309D01*
X157353000Y-112045750D01*
X157353000Y-111474250D01*
X157353000Y-108585691D01*
X157256327Y-108352302D01*
X157077699Y-108173673D01*
X156844310Y-108077000D01*
X156591691Y-108077000D01*
X153955750Y-108077000D01*
X153797000Y-108235750D01*
X153797000Y-111633000D01*
X157194250Y-111633000D01*
X157353000Y-111474250D01*
X157353000Y-112045750D01*
X157194250Y-111887000D01*
X153797000Y-111887000D01*
X153797000Y-115284250D01*
X153955750Y-115443000D01*
X156591691Y-115443000D01*
X156844310Y-115443000D01*
X157077699Y-115346327D01*
X157256327Y-115167698D01*
X157353000Y-114934309D01*
X157353000Y-121539691D01*
X157256327Y-121306302D01*
X157077699Y-121127673D01*
X156844310Y-121031000D01*
X156591691Y-121031000D01*
X153543000Y-121031000D01*
X153543000Y-115284250D01*
X153543000Y-111887000D01*
X153543000Y-111633000D01*
X153543000Y-108235750D01*
X153384250Y-108077000D01*
X150748309Y-108077000D01*
X150495690Y-108077000D01*
X150262301Y-108173673D01*
X150083673Y-108352302D01*
X149987000Y-108585691D01*
X149987000Y-111474250D01*
X150145750Y-111633000D01*
X153543000Y-111633000D01*
X153543000Y-111887000D01*
X150145750Y-111887000D01*
X149987000Y-112045750D01*
X149987000Y-114934309D01*
X150083673Y-115167698D01*
X150262301Y-115346327D01*
X150495690Y-115443000D01*
X150748309Y-115443000D01*
X153384250Y-115443000D01*
X153543000Y-115284250D01*
X153543000Y-121031000D01*
X150495691Y-121031000D01*
X150262302Y-121127673D01*
X150083673Y-121306301D01*
X149987000Y-121539690D01*
X149987000Y-121792309D01*
X149987000Y-123952000D01*
X149034687Y-123952000D01*
X149034687Y-120563216D01*
X148870689Y-120166311D01*
X148567286Y-119862378D01*
X148170668Y-119697687D01*
X147953128Y-119697497D01*
X144018000Y-115762369D01*
X144018000Y-113284000D01*
X143959996Y-112992396D01*
X143959996Y-112992395D01*
X143893834Y-112893376D01*
X143794816Y-112745185D01*
X141541388Y-110491758D01*
X141541687Y-110149216D01*
X141377689Y-109752311D01*
X141074286Y-109448378D01*
X140677668Y-109283687D01*
X140248216Y-109283313D01*
X139851311Y-109447311D01*
X139547378Y-109750714D01*
X139382687Y-110147332D01*
X139382313Y-110576784D01*
X139546311Y-110973689D01*
X139849714Y-111277622D01*
X140246332Y-111442313D01*
X140336761Y-111442391D01*
X142494000Y-113599630D01*
X142494000Y-116078000D01*
X142552004Y-116369605D01*
X142717185Y-116616815D01*
X146875500Y-120775131D01*
X146875313Y-120990784D01*
X147039311Y-121387689D01*
X147342714Y-121691622D01*
X147739332Y-121856313D01*
X148168784Y-121856687D01*
X148565689Y-121692689D01*
X148869622Y-121389286D01*
X149034313Y-120992668D01*
X149034687Y-120563216D01*
X149034687Y-123952000D01*
X143639641Y-123952000D01*
X143487286Y-123799378D01*
X143090668Y-123634687D01*
X142661216Y-123634313D01*
X142264311Y-123798311D01*
X141960378Y-124101714D01*
X141795687Y-124498332D01*
X141795313Y-124927784D01*
X141959311Y-125324689D01*
X142262714Y-125628622D01*
X142659332Y-125793313D01*
X143088784Y-125793687D01*
X143485689Y-125629689D01*
X143639646Y-125476000D01*
X149987000Y-125476000D01*
X149987000Y-127888309D01*
X150083673Y-128121698D01*
X150262301Y-128300327D01*
X150495690Y-128397000D01*
X150748309Y-128397000D01*
X156844309Y-128397000D01*
X157077698Y-128300327D01*
X157256327Y-128121699D01*
X157353000Y-127888310D01*
X157353000Y-135527828D01*
X156815845Y-135634675D01*
X156515481Y-135835371D01*
X156494327Y-135784301D01*
X156315698Y-135605673D01*
X156082309Y-135509000D01*
X155225750Y-135509000D01*
X155067000Y-135667750D01*
X155067000Y-137033000D01*
X155087000Y-137033000D01*
X155087000Y-137287000D01*
X155067000Y-137287000D01*
X155067000Y-138652250D01*
X155225750Y-138811000D01*
X156082309Y-138811000D01*
X156315698Y-138714327D01*
X156494327Y-138535699D01*
X156515481Y-138484628D01*
X156815845Y-138685325D01*
X157447655Y-138811000D01*
X157512345Y-138811000D01*
X158144155Y-138685325D01*
X158679778Y-138327433D01*
X159037670Y-137791810D01*
X159163345Y-137160000D01*
X159163345Y-139015000D01*
X154813000Y-139015000D01*
X154813000Y-138652250D01*
X154813000Y-137287000D01*
X154813000Y-137033000D01*
X154813000Y-135667750D01*
X154654250Y-135509000D01*
X153797691Y-135509000D01*
X153564302Y-135605673D01*
X153385673Y-135784301D01*
X153289000Y-136017690D01*
X153289000Y-136270309D01*
X153289000Y-136874250D01*
X153447750Y-137033000D01*
X154813000Y-137033000D01*
X154813000Y-137287000D01*
X153447750Y-137287000D01*
X153289000Y-137445750D01*
X153289000Y-138049691D01*
X153289000Y-138302310D01*
X153385673Y-138535699D01*
X153564302Y-138714327D01*
X153797691Y-138811000D01*
X154654250Y-138811000D01*
X154813000Y-138652250D01*
X154813000Y-139015000D01*
X131495000Y-139015000D01*
X131495000Y-87045000D01*
X195217600Y-87045000D01*
X196082898Y-87831634D01*
X196165000Y-87913736D01*
X196165000Y-99060000D01*
X196217143Y-99322138D01*
X196313713Y-99466666D01*
X196313713Y-99466666D01*
G37*
X196313713Y-99466666D02*
X196221306Y-136891631D01*
X196217143Y-136897862D01*
X196165000Y-137160000D01*
X196165000Y-139015000D01*
X195808600Y-139015000D01*
X195808600Y-137344745D01*
X195808600Y-136975255D01*
X195808600Y-89084745D01*
X195808600Y-88715255D01*
X195694526Y-88141766D01*
X195369670Y-87655585D01*
X194883489Y-87330729D01*
X194310000Y-87216655D01*
X193736511Y-87330729D01*
X193250330Y-87655585D01*
X193040000Y-87970365D01*
X192829670Y-87655585D01*
X192343489Y-87330729D01*
X191770000Y-87216655D01*
X191196511Y-87330729D01*
X190710330Y-87655585D01*
X190500000Y-87970365D01*
X190289670Y-87655585D01*
X189803489Y-87330729D01*
X189230000Y-87216655D01*
X188656511Y-87330729D01*
X188170330Y-87655585D01*
X187960000Y-87970365D01*
X187749670Y-87655585D01*
X187263489Y-87330729D01*
X186690000Y-87216655D01*
X186116511Y-87330729D01*
X185630330Y-87655585D01*
X185420000Y-87970365D01*
X185209670Y-87655585D01*
X184723489Y-87330729D01*
X184150000Y-87216655D01*
X183576511Y-87330729D01*
X183090330Y-87655585D01*
X182880000Y-87970365D01*
X182669670Y-87655585D01*
X182183489Y-87330729D01*
X181610000Y-87216655D01*
X181036511Y-87330729D01*
X180550330Y-87655585D01*
X180340000Y-87970365D01*
X180129670Y-87655585D01*
X179643489Y-87330729D01*
X179070000Y-87216655D01*
X178496511Y-87330729D01*
X178010330Y-87655585D01*
X177995499Y-87677780D01*
X177931927Y-87524302D01*
X177753299Y-87345673D01*
X177519910Y-87249000D01*
X177267291Y-87249000D01*
X175540091Y-87249000D01*
X175306702Y-87345673D01*
X175128073Y-87524301D01*
X175031400Y-87757690D01*
X175031400Y-88010309D01*
X175031400Y-90042309D01*
X175128073Y-90275698D01*
X175306701Y-90454327D01*
X175540090Y-90551000D01*
X175792709Y-90551000D01*
X177519909Y-90551000D01*
X177753298Y-90454327D01*
X177931927Y-90275699D01*
X177995500Y-90122220D01*
X178010330Y-90144415D01*
X178496511Y-90469271D01*
X179070000Y-90583345D01*
X179643489Y-90469271D01*
X180129670Y-90144415D01*
X180340000Y-89829634D01*
X180550330Y-90144415D01*
X181036511Y-90469271D01*
X181610000Y-90583345D01*
X182183489Y-90469271D01*
X182669670Y-90144415D01*
X182880000Y-89829634D01*
X183090330Y-90144415D01*
X183576511Y-90469271D01*
X184150000Y-90583345D01*
X184723489Y-90469271D01*
X185209670Y-90144415D01*
X185420000Y-89829634D01*
X185630330Y-90144415D01*
X186116511Y-90469271D01*
X186690000Y-90583345D01*
X187263489Y-90469271D01*
X187749670Y-90144415D01*
X187960000Y-89829634D01*
X188170330Y-90144415D01*
X188656511Y-90469271D01*
X189230000Y-90583345D01*
X189803489Y-90469271D01*
X190289670Y-90144415D01*
X190500000Y-89829634D01*
X190710330Y-90144415D01*
X191196511Y-90469271D01*
X191770000Y-90583345D01*
X192343489Y-90469271D01*
X192829670Y-90144415D01*
X193040000Y-89829634D01*
X193250330Y-90144415D01*
X193736511Y-90469271D01*
X194310000Y-90583345D01*
X194883489Y-90469271D01*
X195369670Y-90144415D01*
X195694526Y-89658234D01*
X195808600Y-89084745D01*
X195808600Y-136975255D01*
X195694526Y-136401766D01*
X195369670Y-135915585D01*
X194883489Y-135590729D01*
X194310000Y-135476655D01*
X193736511Y-135590729D01*
X193250330Y-135915585D01*
X193040000Y-136230365D01*
X192829670Y-135915585D01*
X192343489Y-135590729D01*
X191770000Y-135476655D01*
X191196511Y-135590729D01*
X190710330Y-135915585D01*
X190500000Y-136230365D01*
X190289670Y-135915585D01*
X189803489Y-135590729D01*
X189230000Y-135476655D01*
X188656511Y-135590729D01*
X188170330Y-135915585D01*
X187972681Y-136211386D01*
X187972681Y-115747336D01*
X187942906Y-115242977D01*
X187807179Y-114915303D01*
X187578133Y-114861472D01*
X186869605Y-115570000D01*
X187578133Y-116278528D01*
X187807179Y-116224697D01*
X187972681Y-115747336D01*
X187972681Y-136211386D01*
X187960220Y-136230035D01*
X187960220Y-125478490D01*
X187767282Y-125011542D01*
X187410337Y-124653974D01*
X186943727Y-124460221D01*
X186941512Y-124460219D01*
X187408458Y-124267282D01*
X187766026Y-123910337D01*
X187959779Y-123443727D01*
X187960220Y-122938490D01*
X187767282Y-122471542D01*
X187410337Y-122113974D01*
X186943727Y-121920221D01*
X186941512Y-121920219D01*
X187408458Y-121727282D01*
X187766026Y-121370337D01*
X187959779Y-120903727D01*
X187960220Y-120398490D01*
X187767282Y-119931542D01*
X187410337Y-119573974D01*
X186943727Y-119380221D01*
X186941512Y-119380219D01*
X187408458Y-119187282D01*
X187766026Y-118830337D01*
X187959779Y-118363727D01*
X187960220Y-117858490D01*
X187767282Y-117391542D01*
X187410337Y-117033974D01*
X186943727Y-116840221D01*
X186726929Y-116840031D01*
X187017023Y-116822906D01*
X187344697Y-116687179D01*
X187398528Y-116458133D01*
X186690000Y-115749605D01*
X185981472Y-116458133D01*
X186035303Y-116687179D01*
X186475546Y-116839812D01*
X186438490Y-116839780D01*
X185971542Y-117032718D01*
X185613974Y-117389663D01*
X185420221Y-117856273D01*
X185420219Y-117858487D01*
X185227282Y-117391542D01*
X184870337Y-117033974D01*
X184403727Y-116840221D01*
X184401512Y-116840219D01*
X184868458Y-116647282D01*
X185226026Y-116290337D01*
X185419779Y-115823727D01*
X185419968Y-115606929D01*
X185437094Y-115897023D01*
X185572821Y-116224697D01*
X185801867Y-116278528D01*
X186510395Y-115570000D01*
X185801867Y-114861472D01*
X185572821Y-114915303D01*
X185420187Y-115355546D01*
X185420220Y-115318490D01*
X185227282Y-114851542D01*
X184870337Y-114493974D01*
X184403727Y-114300221D01*
X184401512Y-114300219D01*
X184868458Y-114107282D01*
X185226026Y-113750337D01*
X185419779Y-113283727D01*
X185419780Y-113281512D01*
X185612718Y-113748458D01*
X185969663Y-114106026D01*
X186436273Y-114299779D01*
X186653070Y-114299968D01*
X186362977Y-114317094D01*
X186035303Y-114452821D01*
X185981472Y-114681867D01*
X186690000Y-115390395D01*
X187398528Y-114681867D01*
X187344697Y-114452821D01*
X186904453Y-114300187D01*
X186941510Y-114300220D01*
X187408458Y-114107282D01*
X187766026Y-113750337D01*
X187959779Y-113283727D01*
X187960220Y-112778490D01*
X187767282Y-112311542D01*
X187410337Y-111953974D01*
X186943727Y-111760221D01*
X186941512Y-111760219D01*
X187408458Y-111567282D01*
X187766026Y-111210337D01*
X187959779Y-110743727D01*
X187960220Y-110238490D01*
X187767282Y-109771542D01*
X187410337Y-109413974D01*
X186943727Y-109220221D01*
X186941512Y-109220219D01*
X187408458Y-109027282D01*
X187766026Y-108670337D01*
X187959779Y-108203727D01*
X187960220Y-107698490D01*
X187767282Y-107231542D01*
X187410337Y-106873974D01*
X186943727Y-106680221D01*
X186438490Y-106679780D01*
X185971542Y-106872718D01*
X185613974Y-107229663D01*
X185420221Y-107696273D01*
X185420219Y-107698487D01*
X185227282Y-107231542D01*
X184870337Y-106873974D01*
X184403727Y-106680221D01*
X183898490Y-106679780D01*
X183431542Y-106872718D01*
X183073974Y-107229663D01*
X182880221Y-107696273D01*
X182879780Y-108201510D01*
X183072718Y-108668458D01*
X183429663Y-109026026D01*
X183896273Y-109219779D01*
X183898487Y-109219780D01*
X183431542Y-109412718D01*
X183073974Y-109769663D01*
X182880221Y-110236273D01*
X182879780Y-110741510D01*
X183072718Y-111208458D01*
X183429663Y-111566026D01*
X183896273Y-111759779D01*
X183898487Y-111759780D01*
X183431542Y-111952718D01*
X183073974Y-112309663D01*
X182880221Y-112776273D01*
X182879780Y-113281510D01*
X183072718Y-113748458D01*
X183429663Y-114106026D01*
X183896273Y-114299779D01*
X183898487Y-114299780D01*
X183431542Y-114492718D01*
X183073974Y-114849663D01*
X182880221Y-115316273D01*
X182879780Y-115821510D01*
X183072718Y-116288458D01*
X183429663Y-116646026D01*
X183896273Y-116839779D01*
X183898487Y-116839780D01*
X183431542Y-117032718D01*
X183073974Y-117389663D01*
X182880221Y-117856273D01*
X182879780Y-118361510D01*
X183072718Y-118828458D01*
X183429663Y-119186026D01*
X183896273Y-119379779D01*
X184113070Y-119379968D01*
X183822977Y-119397094D01*
X183495303Y-119532821D01*
X183441472Y-119761867D01*
X184150000Y-120470395D01*
X184858528Y-119761867D01*
X184804697Y-119532821D01*
X184364453Y-119380187D01*
X184401510Y-119380220D01*
X184868458Y-119187282D01*
X185226026Y-118830337D01*
X185419779Y-118363727D01*
X185419780Y-118361512D01*
X185612718Y-118828458D01*
X185969663Y-119186026D01*
X186436273Y-119379779D01*
X186438487Y-119379780D01*
X185971542Y-119572718D01*
X185613974Y-119929663D01*
X185420221Y-120396273D01*
X185420031Y-120613070D01*
X185402906Y-120322977D01*
X185267179Y-119995303D01*
X185038133Y-119941472D01*
X184329605Y-120650000D01*
X185038133Y-121358528D01*
X185267179Y-121304697D01*
X185419812Y-120864453D01*
X185419780Y-120901510D01*
X185612718Y-121368458D01*
X185969663Y-121726026D01*
X186436273Y-121919779D01*
X186438487Y-121919780D01*
X185971542Y-122112718D01*
X185613974Y-122469663D01*
X185420221Y-122936273D01*
X185420031Y-123153070D01*
X185402906Y-122862977D01*
X185267179Y-122535303D01*
X185038133Y-122481472D01*
X184858528Y-122661077D01*
X184858528Y-122301867D01*
X184804697Y-122072821D01*
X184338239Y-121911099D01*
X184477023Y-121902906D01*
X184804697Y-121767179D01*
X184858528Y-121538133D01*
X184150000Y-120829605D01*
X183970395Y-121009210D01*
X183970395Y-120650000D01*
X183261867Y-119941472D01*
X183032821Y-119995303D01*
X182867319Y-120472664D01*
X182897094Y-120977023D01*
X183032821Y-121304697D01*
X183261867Y-121358528D01*
X183970395Y-120650000D01*
X183970395Y-121009210D01*
X183441472Y-121538133D01*
X183495303Y-121767179D01*
X183961760Y-121928900D01*
X183822977Y-121937094D01*
X183495303Y-122072821D01*
X183441472Y-122301867D01*
X184150000Y-123010395D01*
X184858528Y-122301867D01*
X184858528Y-122661077D01*
X184329605Y-123190000D01*
X185038133Y-123898528D01*
X185267179Y-123844697D01*
X185419812Y-123404453D01*
X185419780Y-123441510D01*
X185612718Y-123908458D01*
X185969663Y-124266026D01*
X186436273Y-124459779D01*
X186438487Y-124459780D01*
X185971542Y-124652718D01*
X185613974Y-125009663D01*
X185420221Y-125476273D01*
X185420031Y-125693070D01*
X185402906Y-125402977D01*
X185267179Y-125075303D01*
X185038133Y-125021472D01*
X184858528Y-125201077D01*
X184858528Y-124841867D01*
X184804697Y-124612821D01*
X184338239Y-124451099D01*
X184477023Y-124442906D01*
X184804697Y-124307179D01*
X184858528Y-124078133D01*
X184150000Y-123369605D01*
X183970395Y-123549210D01*
X183970395Y-123190000D01*
X183261867Y-122481472D01*
X183032821Y-122535303D01*
X182867319Y-123012664D01*
X182897094Y-123517023D01*
X183032821Y-123844697D01*
X183261867Y-123898528D01*
X183970395Y-123190000D01*
X183970395Y-123549210D01*
X183441472Y-124078133D01*
X183495303Y-124307179D01*
X183961760Y-124468900D01*
X183822977Y-124477094D01*
X183495303Y-124612821D01*
X183441472Y-124841867D01*
X184150000Y-125550395D01*
X184858528Y-124841867D01*
X184858528Y-125201077D01*
X184329605Y-125730000D01*
X185038133Y-126438528D01*
X185267179Y-126384697D01*
X185419812Y-125944453D01*
X185419780Y-125981510D01*
X185612718Y-126448458D01*
X185969663Y-126806026D01*
X186436273Y-126999779D01*
X186941510Y-127000220D01*
X187408458Y-126807282D01*
X187766026Y-126450337D01*
X187959779Y-125983727D01*
X187960220Y-125478490D01*
X187960220Y-136230035D01*
X187960000Y-136230365D01*
X187749670Y-135915585D01*
X187452000Y-135716688D01*
X187452000Y-135001000D01*
X187393996Y-134709396D01*
X187393996Y-134709395D01*
X187228815Y-134462185D01*
X184858528Y-132091898D01*
X184858528Y-126618133D01*
X184150000Y-125909605D01*
X183970395Y-126089210D01*
X183970395Y-125730000D01*
X183261867Y-125021472D01*
X183032821Y-125075303D01*
X182867319Y-125552664D01*
X182897094Y-126057023D01*
X183032821Y-126384697D01*
X183261867Y-126438528D01*
X183970395Y-125730000D01*
X183970395Y-126089210D01*
X183441472Y-126618133D01*
X183495303Y-126847179D01*
X183972664Y-127012681D01*
X184477023Y-126982906D01*
X184804697Y-126847179D01*
X184858528Y-126618133D01*
X184858528Y-132091898D01*
X181673499Y-128906869D01*
X181673687Y-128691216D01*
X181509689Y-128294311D01*
X181206286Y-127990378D01*
X180848220Y-127841695D01*
X180848220Y-119636490D01*
X180655282Y-119169542D01*
X180298337Y-118811974D01*
X179831727Y-118618221D01*
X179326490Y-118617780D01*
X178859542Y-118810718D01*
X178625687Y-119044165D01*
X178625687Y-93258216D01*
X178461689Y-92861311D01*
X178158286Y-92557378D01*
X177761668Y-92392687D01*
X177332216Y-92392313D01*
X176935311Y-92556311D01*
X176631378Y-92859714D01*
X176466687Y-93256332D01*
X176466313Y-93685784D01*
X176630311Y-94082689D01*
X176657000Y-94109424D01*
X176657000Y-112392358D01*
X176504378Y-112544714D01*
X176339687Y-112941332D01*
X176339313Y-113370784D01*
X176503311Y-113767689D01*
X176806714Y-114071622D01*
X177203332Y-114236313D01*
X177632784Y-114236687D01*
X178029689Y-114072689D01*
X178333622Y-113769286D01*
X178498313Y-113372668D01*
X178498687Y-112943216D01*
X178334689Y-112546311D01*
X178181000Y-112392353D01*
X178181000Y-94363420D01*
X178460622Y-94084286D01*
X178625313Y-93687668D01*
X178625687Y-93258216D01*
X178625687Y-119044165D01*
X178501974Y-119167663D01*
X178308221Y-119634273D01*
X178308145Y-119721013D01*
X176333728Y-121695430D01*
X176085687Y-121797918D01*
X176085687Y-108498216D01*
X175921689Y-108101311D01*
X175768000Y-107947353D01*
X175768000Y-94236641D01*
X175920622Y-94084286D01*
X176085313Y-93687668D01*
X176085687Y-93258216D01*
X175921689Y-92861311D01*
X175618286Y-92557378D01*
X175221668Y-92392687D01*
X174792216Y-92392313D01*
X174395311Y-92556311D01*
X174218600Y-92732713D01*
X174218600Y-89084745D01*
X174218600Y-88715255D01*
X174104526Y-88141766D01*
X173779670Y-87655585D01*
X173293489Y-87330729D01*
X172720000Y-87216655D01*
X172146511Y-87330729D01*
X171660330Y-87655585D01*
X171450000Y-87970365D01*
X171239670Y-87655585D01*
X170753489Y-87330729D01*
X170180000Y-87216655D01*
X169606511Y-87330729D01*
X169120330Y-87655585D01*
X168910000Y-87970365D01*
X168699670Y-87655585D01*
X168213489Y-87330729D01*
X167640000Y-87216655D01*
X167066511Y-87330729D01*
X166580330Y-87655585D01*
X166370000Y-87970365D01*
X166159670Y-87655585D01*
X165673489Y-87330729D01*
X165100000Y-87216655D01*
X164526511Y-87330729D01*
X164040330Y-87655585D01*
X163830000Y-87970365D01*
X163619670Y-87655585D01*
X163133489Y-87330729D01*
X162560000Y-87216655D01*
X161986511Y-87330729D01*
X161500330Y-87655585D01*
X161290000Y-87970365D01*
X161079670Y-87655585D01*
X160593489Y-87330729D01*
X160020000Y-87216655D01*
X159446511Y-87330729D01*
X158960330Y-87655585D01*
X158753539Y-87965069D01*
X158382036Y-87549268D01*
X157854791Y-87295291D01*
X157839026Y-87292642D01*
X157607000Y-87413783D01*
X157607000Y-88773000D01*
X157627000Y-88773000D01*
X157627000Y-89027000D01*
X157607000Y-89027000D01*
X157607000Y-90386217D01*
X157839026Y-90507358D01*
X157854791Y-90504709D01*
X158382036Y-90250732D01*
X158753539Y-89834930D01*
X158960330Y-90144415D01*
X159446511Y-90469271D01*
X160020000Y-90583345D01*
X160593489Y-90469271D01*
X161079670Y-90144415D01*
X161290000Y-89829634D01*
X161500330Y-90144415D01*
X161798000Y-90343311D01*
X161798000Y-90743369D01*
X161482369Y-91059000D01*
X157353000Y-91059000D01*
X157353000Y-90386217D01*
X157353000Y-89027000D01*
X157333000Y-89027000D01*
X157333000Y-88773000D01*
X157353000Y-88773000D01*
X157353000Y-87413783D01*
X157120974Y-87292642D01*
X157105209Y-87295291D01*
X156577964Y-87549268D01*
X156423758Y-87721860D01*
X156341927Y-87524302D01*
X156163299Y-87345673D01*
X155929910Y-87249000D01*
X155677291Y-87249000D01*
X153950091Y-87249000D01*
X153716702Y-87345673D01*
X153538073Y-87524301D01*
X153441400Y-87757690D01*
X153441400Y-88010309D01*
X153441400Y-90042309D01*
X153538073Y-90275698D01*
X153716701Y-90454327D01*
X153950090Y-90551000D01*
X154202709Y-90551000D01*
X155929909Y-90551000D01*
X156163298Y-90454327D01*
X156341927Y-90275699D01*
X156423758Y-90078139D01*
X156577964Y-90250732D01*
X157105209Y-90504709D01*
X157120974Y-90507358D01*
X157353000Y-90386217D01*
X157353000Y-91059000D01*
X144909641Y-91059000D01*
X144757286Y-90906378D01*
X144360668Y-90741687D01*
X143931216Y-90741313D01*
X143534311Y-90905311D01*
X143230378Y-91208714D01*
X143065687Y-91605332D01*
X143065313Y-92034784D01*
X143229311Y-92431689D01*
X143532714Y-92735622D01*
X143929332Y-92900313D01*
X144358784Y-92900687D01*
X144755689Y-92736689D01*
X144909646Y-92583000D01*
X161798000Y-92583000D01*
X161798000Y-92582999D01*
X162089604Y-92524996D01*
X162089605Y-92524996D01*
X162336815Y-92359815D01*
X163098815Y-91597815D01*
X163098816Y-91597815D01*
X163197834Y-91449623D01*
X163263996Y-91350605D01*
X163263996Y-91350604D01*
X163322000Y-91059000D01*
X163322000Y-90343311D01*
X163619670Y-90144415D01*
X163830000Y-89829634D01*
X164040330Y-90144415D01*
X164526511Y-90469271D01*
X165100000Y-90583345D01*
X165673489Y-90469271D01*
X166159670Y-90144415D01*
X166370000Y-89829634D01*
X166580330Y-90144415D01*
X167066511Y-90469271D01*
X167640000Y-90583345D01*
X168213489Y-90469271D01*
X168699670Y-90144415D01*
X168910000Y-89829634D01*
X169120330Y-90144415D01*
X169606511Y-90469271D01*
X170180000Y-90583345D01*
X170753489Y-90469271D01*
X171239670Y-90144415D01*
X171450000Y-89829634D01*
X171660330Y-90144415D01*
X172146511Y-90469271D01*
X172720000Y-90583345D01*
X173293489Y-90469271D01*
X173779670Y-90144415D01*
X174104526Y-89658234D01*
X174218600Y-89084745D01*
X174218600Y-92732713D01*
X174091378Y-92859714D01*
X173926687Y-93256332D01*
X173926313Y-93685784D01*
X174090311Y-94082689D01*
X174244000Y-94236646D01*
X174244000Y-107947358D01*
X174091378Y-108099714D01*
X173926687Y-108496332D01*
X173926313Y-108925784D01*
X174090311Y-109322689D01*
X174393714Y-109626622D01*
X174790332Y-109791313D01*
X175219784Y-109791687D01*
X175616689Y-109627689D01*
X175920622Y-109324286D01*
X176085313Y-108927668D01*
X176085687Y-108498216D01*
X176085687Y-121797918D01*
X175938542Y-121858718D01*
X175580974Y-122215663D01*
X175387221Y-122682273D01*
X175386780Y-123187510D01*
X175579718Y-123654458D01*
X175641000Y-123715846D01*
X175641000Y-127254000D01*
X175641220Y-127255107D01*
X175640780Y-127759510D01*
X175833718Y-128226458D01*
X176190663Y-128584026D01*
X176657273Y-128777779D01*
X177162510Y-128778220D01*
X177629458Y-128585282D01*
X177987026Y-128228337D01*
X178180779Y-127761727D01*
X178181220Y-127256490D01*
X177988282Y-126789542D01*
X177673000Y-126473709D01*
X177673000Y-123716258D01*
X177733026Y-123656337D01*
X177926779Y-123189727D01*
X177926965Y-122975874D01*
X179744694Y-121158145D01*
X179829510Y-121158220D01*
X180296458Y-120965282D01*
X180654026Y-120608337D01*
X180847779Y-120141727D01*
X180848220Y-119636490D01*
X180848220Y-127841695D01*
X180809668Y-127825687D01*
X180380216Y-127825313D01*
X179983311Y-127989311D01*
X179679378Y-128292714D01*
X179514687Y-128689332D01*
X179514313Y-129118784D01*
X179678311Y-129515689D01*
X179981714Y-129819622D01*
X180378332Y-129984313D01*
X180595872Y-129984502D01*
X185928000Y-135316630D01*
X185928000Y-135716688D01*
X185630330Y-135915585D01*
X185420000Y-136230365D01*
X185209670Y-135915585D01*
X184723489Y-135590729D01*
X184150000Y-135476655D01*
X183576511Y-135590729D01*
X183090330Y-135915585D01*
X183075499Y-135937780D01*
X183011927Y-135784302D01*
X182833299Y-135605673D01*
X182599910Y-135509000D01*
X182347291Y-135509000D01*
X180620091Y-135509000D01*
X180386702Y-135605673D01*
X180208073Y-135784301D01*
X180111400Y-136017690D01*
X180111400Y-136270309D01*
X180111400Y-138302309D01*
X180208073Y-138535698D01*
X180386701Y-138714327D01*
X180620090Y-138811000D01*
X180872709Y-138811000D01*
X182599909Y-138811000D01*
X182833298Y-138714327D01*
X183011927Y-138535699D01*
X183075500Y-138382220D01*
X183090330Y-138404415D01*
X183576511Y-138729271D01*
X184150000Y-138843345D01*
X184723489Y-138729271D01*
X185209670Y-138404415D01*
X185420000Y-138089634D01*
X185630330Y-138404415D01*
X186116511Y-138729271D01*
X186690000Y-138843345D01*
X187263489Y-138729271D01*
X187749670Y-138404415D01*
X187960000Y-138089634D01*
X188170330Y-138404415D01*
X188656511Y-138729271D01*
X189230000Y-138843345D01*
X189803489Y-138729271D01*
X190289670Y-138404415D01*
X190500000Y-138089634D01*
X190710330Y-138404415D01*
X191196511Y-138729271D01*
X191770000Y-138843345D01*
X192343489Y-138729271D01*
X192829670Y-138404415D01*
X193040000Y-138089634D01*
X193250330Y-138404415D01*
X193736511Y-138729271D01*
X194310000Y-138843345D01*
X194883489Y-138729271D01*
X195369670Y-138404415D01*
X195694526Y-137918234D01*
X195808600Y-137344745D01*
X195808600Y-139015000D01*
X178028600Y-139015000D01*
X178028600Y-137344745D01*
X178028600Y-136975255D01*
X177914526Y-136401766D01*
X177589670Y-135915585D01*
X177103489Y-135590729D01*
X176530000Y-135476655D01*
X175956511Y-135590729D01*
X175470330Y-135915585D01*
X175263539Y-136225069D01*
X174892036Y-135809268D01*
X174364791Y-135555291D01*
X174349026Y-135552642D01*
X174117000Y-135673783D01*
X174117000Y-137033000D01*
X174137000Y-137033000D01*
X174137000Y-137287000D01*
X174117000Y-137287000D01*
X174117000Y-138646217D01*
X174349026Y-138767358D01*
X174364791Y-138764709D01*
X174892036Y-138510732D01*
X175263539Y-138094930D01*
X175470330Y-138404415D01*
X175956511Y-138729271D01*
X176530000Y-138843345D01*
X177103489Y-138729271D01*
X177589670Y-138404415D01*
X177914526Y-137918234D01*
X178028600Y-137344745D01*
X178028600Y-139015000D01*
X173863000Y-139015000D01*
X173863000Y-138646217D01*
X173863000Y-137287000D01*
X173863000Y-137033000D01*
X173863000Y-135673783D01*
X173672687Y-135574420D01*
X173672687Y-105323216D01*
X173508689Y-104926311D01*
X173355000Y-104772353D01*
X173355000Y-100205641D01*
X173507622Y-100053286D01*
X173672313Y-99656668D01*
X173672687Y-99227216D01*
X173508689Y-98830311D01*
X173205286Y-98526378D01*
X172808668Y-98361687D01*
X172466220Y-98361388D01*
X172466220Y-91696490D01*
X172273282Y-91229542D01*
X171916337Y-90871974D01*
X171449727Y-90678221D01*
X170944490Y-90677780D01*
X170477542Y-90870718D01*
X170416153Y-90932000D01*
X165862000Y-90932000D01*
X165537700Y-90996507D01*
X165473193Y-91009338D01*
X165143580Y-91229579D01*
X162647305Y-93725854D01*
X162562490Y-93725780D01*
X162095542Y-93918718D01*
X161737974Y-94275663D01*
X161544221Y-94742273D01*
X161543780Y-95247510D01*
X161736718Y-95714458D01*
X162093663Y-96072026D01*
X162560273Y-96265779D01*
X163065510Y-96266220D01*
X163532458Y-96073282D01*
X163890026Y-95716337D01*
X164083779Y-95249727D01*
X164083854Y-95162985D01*
X166282840Y-92964000D01*
X170415741Y-92964000D01*
X170475663Y-93024026D01*
X170942273Y-93217779D01*
X171447510Y-93218220D01*
X171914458Y-93025282D01*
X172272026Y-92668337D01*
X172465779Y-92201727D01*
X172466220Y-91696490D01*
X172466220Y-98361388D01*
X172379216Y-98361313D01*
X171982311Y-98525311D01*
X171678378Y-98828714D01*
X171513687Y-99225332D01*
X171513313Y-99654784D01*
X171677311Y-100051689D01*
X171831000Y-100205646D01*
X171831000Y-104772358D01*
X171678378Y-104924714D01*
X171513687Y-105321332D01*
X171513313Y-105750784D01*
X171677311Y-106147689D01*
X171980714Y-106451622D01*
X172377332Y-106616313D01*
X172806784Y-106616687D01*
X173203689Y-106452689D01*
X173507622Y-106149286D01*
X173672313Y-105752668D01*
X173672687Y-105323216D01*
X173672687Y-135574420D01*
X173630974Y-135552642D01*
X173615209Y-135555291D01*
X173087964Y-135809268D01*
X172720000Y-136221108D01*
X172352036Y-135809268D01*
X171824791Y-135555291D01*
X171809026Y-135552642D01*
X171577000Y-135673783D01*
X171577000Y-137033000D01*
X172649076Y-137033000D01*
X172790924Y-137033000D01*
X173863000Y-137033000D01*
X173863000Y-137287000D01*
X172790924Y-137287000D01*
X172649076Y-137287000D01*
X171577000Y-137287000D01*
X171577000Y-138646217D01*
X171809026Y-138767358D01*
X171824791Y-138764709D01*
X172352036Y-138510732D01*
X172720000Y-138098891D01*
X173087964Y-138510732D01*
X173615209Y-138764709D01*
X173630974Y-138767358D01*
X173863000Y-138646217D01*
X173863000Y-139015000D01*
X171323000Y-139015000D01*
X171323000Y-138646217D01*
X171323000Y-137287000D01*
X171303000Y-137287000D01*
X171303000Y-137033000D01*
X171323000Y-137033000D01*
X171323000Y-135673783D01*
X171090974Y-135552642D01*
X171075209Y-135555291D01*
X170751687Y-135711133D01*
X170751687Y-102783216D01*
X170587689Y-102386311D01*
X170284286Y-102082378D01*
X169887668Y-101917687D01*
X169458216Y-101917313D01*
X169061311Y-102081311D01*
X168757378Y-102384714D01*
X168592687Y-102781332D01*
X168592497Y-102998872D01*
X166435370Y-105156000D01*
X164274687Y-105156000D01*
X164274687Y-103164216D01*
X164110689Y-102767311D01*
X163807286Y-102463378D01*
X163410668Y-102298687D01*
X163193127Y-102298497D01*
X162814000Y-101919370D01*
X162814000Y-99189641D01*
X162966622Y-99037286D01*
X163131313Y-98640668D01*
X163131687Y-98211216D01*
X162967689Y-97814311D01*
X162664286Y-97510378D01*
X162267668Y-97345687D01*
X161838216Y-97345313D01*
X161441311Y-97509311D01*
X161137378Y-97812714D01*
X160972687Y-98209332D01*
X160972313Y-98638784D01*
X161136311Y-99035689D01*
X161290000Y-99189646D01*
X161290000Y-102235000D01*
X161348004Y-102526605D01*
X161513185Y-102773815D01*
X162115500Y-103376130D01*
X162115313Y-103591784D01*
X162279311Y-103988689D01*
X162582714Y-104292622D01*
X162979332Y-104457313D01*
X163408784Y-104457687D01*
X163805689Y-104293689D01*
X164109622Y-103990286D01*
X164274313Y-103593668D01*
X164274687Y-103164216D01*
X164274687Y-105156000D01*
X157353000Y-105156000D01*
X157353000Y-101980310D01*
X157353000Y-101727691D01*
X157353000Y-95631691D01*
X157256327Y-95398302D01*
X157077699Y-95219673D01*
X156844310Y-95123000D01*
X156591691Y-95123000D01*
X150495691Y-95123000D01*
X150262302Y-95219673D01*
X150083673Y-95398301D01*
X149987000Y-95631690D01*
X149987000Y-95884309D01*
X149987000Y-101980309D01*
X150083673Y-102213698D01*
X150262301Y-102392327D01*
X150272018Y-102396351D01*
X146559869Y-106108500D01*
X146344216Y-106108313D01*
X145947311Y-106272311D01*
X145643378Y-106575714D01*
X145478687Y-106972332D01*
X145478313Y-107401784D01*
X145642311Y-107798689D01*
X145945714Y-108102622D01*
X146342332Y-108267313D01*
X146771784Y-108267687D01*
X147168689Y-108103689D01*
X147472622Y-107800286D01*
X147637313Y-107403668D01*
X147637502Y-107186127D01*
X152334630Y-102489000D01*
X156844309Y-102489000D01*
X157077698Y-102392327D01*
X157256327Y-102213699D01*
X157353000Y-101980310D01*
X157353000Y-105156000D01*
X151513641Y-105156000D01*
X151361286Y-105003378D01*
X150964668Y-104838687D01*
X150535216Y-104838313D01*
X150138311Y-105002311D01*
X149834378Y-105305714D01*
X149669687Y-105702332D01*
X149669313Y-106131784D01*
X149833311Y-106528689D01*
X150136714Y-106832622D01*
X150533332Y-106997313D01*
X150962784Y-106997687D01*
X151359689Y-106833689D01*
X151513646Y-106680000D01*
X166751000Y-106680000D01*
X166751000Y-106679999D01*
X167042604Y-106621996D01*
X167042605Y-106621996D01*
X167289815Y-106456815D01*
X169670130Y-104076499D01*
X169885784Y-104076687D01*
X170282689Y-103912689D01*
X170586622Y-103609286D01*
X170751313Y-103212668D01*
X170751687Y-102783216D01*
X170751687Y-135711133D01*
X170547964Y-135809268D01*
X170176460Y-136225069D01*
X169969670Y-135915585D01*
X169483489Y-135590729D01*
X168910220Y-135476698D01*
X168910220Y-109984490D01*
X168717282Y-109517542D01*
X168360337Y-109159974D01*
X167893727Y-108966221D01*
X167388490Y-108965780D01*
X166921542Y-109158718D01*
X166860153Y-109220000D01*
X164483258Y-109220000D01*
X164423337Y-109159974D01*
X163956727Y-108966221D01*
X163451490Y-108965780D01*
X162984542Y-109158718D01*
X162626974Y-109515663D01*
X162433221Y-109982273D01*
X162432780Y-110487510D01*
X162625718Y-110954458D01*
X162982663Y-111312026D01*
X163449273Y-111505779D01*
X163954510Y-111506220D01*
X164421458Y-111313282D01*
X164482846Y-111252000D01*
X166859741Y-111252000D01*
X166919663Y-111312026D01*
X167386273Y-111505779D01*
X167891510Y-111506220D01*
X168358458Y-111313282D01*
X168716026Y-110956337D01*
X168909779Y-110489727D01*
X168910220Y-109984490D01*
X168910220Y-135476698D01*
X168910000Y-135476655D01*
X168336511Y-135590729D01*
X167850330Y-135915585D01*
X167640000Y-136230365D01*
X167429670Y-135915585D01*
X166943489Y-135590729D01*
X166370000Y-135476655D01*
X165796511Y-135590729D01*
X165310330Y-135915585D01*
X165295499Y-135937780D01*
X165231927Y-135784302D01*
X165053299Y-135605673D01*
X164819910Y-135509000D01*
X164567291Y-135509000D01*
X162840091Y-135509000D01*
X162606702Y-135605673D01*
X162496687Y-135715687D01*
X162496687Y-132882216D01*
X162332689Y-132485311D01*
X162179000Y-132331353D01*
X162179000Y-121285000D01*
X162120996Y-120993396D01*
X162120996Y-120993395D01*
X161955815Y-120746185D01*
X160591499Y-119381869D01*
X160591687Y-119166216D01*
X160427689Y-118769311D01*
X160124286Y-118465378D01*
X159727668Y-118300687D01*
X159298216Y-118300313D01*
X158901311Y-118464311D01*
X158597378Y-118767714D01*
X158432687Y-119164332D01*
X158432313Y-119593784D01*
X158596311Y-119990689D01*
X158899714Y-120294622D01*
X159296332Y-120459313D01*
X159513872Y-120459502D01*
X160655000Y-121600630D01*
X160655000Y-132331358D01*
X160502378Y-132483714D01*
X160337687Y-132880332D01*
X160337313Y-133309784D01*
X160501311Y-133706689D01*
X160804714Y-134010622D01*
X161201332Y-134175313D01*
X161630784Y-134175687D01*
X162027689Y-134011689D01*
X162331622Y-133708286D01*
X162496313Y-133311668D01*
X162496687Y-132882216D01*
X162496687Y-135715687D01*
X162428073Y-135784301D01*
X162331400Y-136017690D01*
X162331400Y-136270309D01*
X162331400Y-138302309D01*
X162428073Y-138535698D01*
X162606701Y-138714327D01*
X162840090Y-138811000D01*
X163092709Y-138811000D01*
X164819909Y-138811000D01*
X165053298Y-138714327D01*
X165231927Y-138535699D01*
X165295500Y-138382220D01*
X165310330Y-138404415D01*
X165796511Y-138729271D01*
X166370000Y-138843345D01*
X166943489Y-138729271D01*
X167429670Y-138404415D01*
X167640000Y-138089634D01*
X167850330Y-138404415D01*
X168336511Y-138729271D01*
X168910000Y-138843345D01*
X169483489Y-138729271D01*
X169969670Y-138404415D01*
X170176460Y-138094930D01*
X170547964Y-138510732D01*
X171075209Y-138764709D01*
X171090974Y-138767358D01*
X171323000Y-138646217D01*
X171323000Y-139015000D01*
X159163345Y-139015000D01*
X159163345Y-137160000D01*
X159037670Y-136528190D01*
X158679778Y-135992567D01*
X158144155Y-135634675D01*
X157512345Y-135509000D01*
X157447655Y-135509000D01*
X157353000Y-135527828D01*
X157353000Y-127888310D01*
X157353000Y-127635691D01*
X157353000Y-121539691D01*
X157353000Y-114934309D01*
X157353000Y-112045750D01*
X157353000Y-111474250D01*
X157353000Y-108585691D01*
X157256327Y-108352302D01*
X157077699Y-108173673D01*
X156844310Y-108077000D01*
X156591691Y-108077000D01*
X153955750Y-108077000D01*
X153797000Y-108235750D01*
X153797000Y-111633000D01*
X157194250Y-111633000D01*
X157353000Y-111474250D01*
X157353000Y-112045750D01*
X157194250Y-111887000D01*
X153797000Y-111887000D01*
X153797000Y-115284250D01*
X153955750Y-115443000D01*
X156591691Y-115443000D01*
X156844310Y-115443000D01*
X157077699Y-115346327D01*
X157256327Y-115167698D01*
X157353000Y-114934309D01*
X157353000Y-121539691D01*
X157256327Y-121306302D01*
X157077699Y-121127673D01*
X156844310Y-121031000D01*
X156591691Y-121031000D01*
X153543000Y-121031000D01*
X153543000Y-115284250D01*
X153543000Y-111887000D01*
X153543000Y-111633000D01*
X153543000Y-108235750D01*
X153384250Y-108077000D01*
X150748309Y-108077000D01*
X150495690Y-108077000D01*
X150262301Y-108173673D01*
X150083673Y-108352302D01*
X149987000Y-108585691D01*
X149987000Y-111474250D01*
X150145750Y-111633000D01*
X153543000Y-111633000D01*
X153543000Y-111887000D01*
X150145750Y-111887000D01*
X149987000Y-112045750D01*
X149987000Y-114934309D01*
X150083673Y-115167698D01*
X150262301Y-115346327D01*
X150495690Y-115443000D01*
X150748309Y-115443000D01*
X153384250Y-115443000D01*
X153543000Y-115284250D01*
X153543000Y-121031000D01*
X150495691Y-121031000D01*
X150262302Y-121127673D01*
X150083673Y-121306301D01*
X149987000Y-121539690D01*
X149987000Y-121792309D01*
X149987000Y-123952000D01*
X149034687Y-123952000D01*
X149034687Y-120563216D01*
X148870689Y-120166311D01*
X148567286Y-119862378D01*
X148170668Y-119697687D01*
X147953128Y-119697497D01*
X144018000Y-115762369D01*
X144018000Y-113284000D01*
X143959996Y-112992396D01*
X143959996Y-112992395D01*
X143893834Y-112893376D01*
X143794816Y-112745185D01*
X141541388Y-110491758D01*
X141541687Y-110149216D01*
X141377689Y-109752311D01*
X141074286Y-109448378D01*
X140677668Y-109283687D01*
X140248216Y-109283313D01*
X139851311Y-109447311D01*
X139547378Y-109750714D01*
X139382687Y-110147332D01*
X139382313Y-110576784D01*
X139546311Y-110973689D01*
X139849714Y-111277622D01*
X140246332Y-111442313D01*
X140336761Y-111442391D01*
X142494000Y-113599630D01*
X142494000Y-116078000D01*
X142552004Y-116369605D01*
X142717185Y-116616815D01*
X146875500Y-120775131D01*
X146875313Y-120990784D01*
X147039311Y-121387689D01*
X147342714Y-121691622D01*
X147739332Y-121856313D01*
X148168784Y-121856687D01*
X148565689Y-121692689D01*
X148869622Y-121389286D01*
X149034313Y-120992668D01*
X149034687Y-120563216D01*
X149034687Y-123952000D01*
X143639641Y-123952000D01*
X143487286Y-123799378D01*
X143090668Y-123634687D01*
X142661216Y-123634313D01*
X142264311Y-123798311D01*
X141960378Y-124101714D01*
X141795687Y-124498332D01*
X141795313Y-124927784D01*
X141959311Y-125324689D01*
X142262714Y-125628622D01*
X142659332Y-125793313D01*
X143088784Y-125793687D01*
X143485689Y-125629689D01*
X143639646Y-125476000D01*
X149987000Y-125476000D01*
X149987000Y-127888309D01*
X150083673Y-128121698D01*
X150262301Y-128300327D01*
X150495690Y-128397000D01*
X150748309Y-128397000D01*
X156844309Y-128397000D01*
X157077698Y-128300327D01*
X157256327Y-128121699D01*
X157353000Y-127888310D01*
X157353000Y-135527828D01*
X156815845Y-135634675D01*
X156515481Y-135835371D01*
X156494327Y-135784301D01*
X156315698Y-135605673D01*
X156082309Y-135509000D01*
X155225750Y-135509000D01*
X155067000Y-135667750D01*
X155067000Y-137033000D01*
X155087000Y-137033000D01*
X155087000Y-137287000D01*
X155067000Y-137287000D01*
X155067000Y-138652250D01*
X155225750Y-138811000D01*
X156082309Y-138811000D01*
X156315698Y-138714327D01*
X156494327Y-138535699D01*
X156515481Y-138484628D01*
X156815845Y-138685325D01*
X157447655Y-138811000D01*
X157512345Y-138811000D01*
X158144155Y-138685325D01*
X158679778Y-138327433D01*
X159037670Y-137791810D01*
X159163345Y-137160000D01*
X159163345Y-139015000D01*
X154813000Y-139015000D01*
X154813000Y-138652250D01*
X154813000Y-137287000D01*
X154813000Y-137033000D01*
X154813000Y-135667750D01*
X154654250Y-135509000D01*
X153797691Y-135509000D01*
X153564302Y-135605673D01*
X153385673Y-135784301D01*
X153289000Y-136017690D01*
X153289000Y-136270309D01*
X153289000Y-136874250D01*
X153447750Y-137033000D01*
X154813000Y-137033000D01*
X154813000Y-137287000D01*
X153447750Y-137287000D01*
X153289000Y-137445750D01*
X153289000Y-138049691D01*
X153289000Y-138302310D01*
X153385673Y-138535699D01*
X153564302Y-138714327D01*
X153797691Y-138811000D01*
X154654250Y-138811000D01*
X154813000Y-138652250D01*
X154813000Y-139015000D01*
X131495000Y-139015000D01*
X131495000Y-87045000D01*
X195217600Y-87045000D01*
X196082898Y-87831634D01*
X196165000Y-87913736D01*
X196165000Y-99060000D01*
X196217143Y-99322138D01*
X196313713Y-99466666D01*
M02*
