%FSLAX46Y46*%
G04 Gerber Fmt 4.6, Leading zero omitted, Abs format (unit mm)*
G04 Created by KiCad (PCBNEW (2014-08-05 BZR 5054)-product) date Sat 01 Nov 2014 08:34:42 PM PDT*
%MOMM*%
G01*
G04 APERTURE LIST*
%ADD10C,0.152400*%
%ADD11R,6.096000X6.096000*%
%ADD12C,1.270000*%
%ADD13R,1.727200X2.032000*%
%ADD14O,1.727200X2.032000*%
%ADD15R,2.032000X1.727200*%
%ADD16O,2.032000X1.727200*%
%ADD17R,2.032000X2.032000*%
%ADD18O,2.032000X2.032000*%
G04 APERTURE END LIST*
D10*
D11*
X153670000Y-111760000D03*
X153670000Y-98806000D03*
X153670000Y-124714000D03*
D12*
X185420000Y-124777500D03*
X187960000Y-124777500D03*
X185420000Y-122237500D03*
X187960000Y-122237500D03*
X185420000Y-119697500D03*
X187960000Y-119697500D03*
X185420000Y-117157500D03*
X187960000Y-117157500D03*
X185420000Y-114617500D03*
X187960000Y-114617500D03*
X185420000Y-112077500D03*
X187960000Y-112077500D03*
X185420000Y-109537500D03*
X187960000Y-109537500D03*
X185420000Y-106997500D03*
X187960000Y-106997500D03*
D13*
X154686000Y-88900000D03*
D14*
X157226000Y-88900000D03*
X159766000Y-88900000D03*
X162306000Y-88900000D03*
X164846000Y-88900000D03*
X167386000Y-88900000D03*
X169926000Y-88900000D03*
X172466000Y-88900000D03*
D13*
X176530000Y-88900000D03*
D14*
X179070000Y-88900000D03*
X181610000Y-88900000D03*
X184150000Y-88900000D03*
X186690000Y-88900000D03*
X189230000Y-88900000D03*
X191770000Y-88900000D03*
X194310000Y-88900000D03*
D15*
X137604500Y-137096500D03*
D16*
X137604500Y-134556500D03*
X137604500Y-132016500D03*
X137604500Y-129476500D03*
D17*
X153289000Y-137287000D03*
D18*
X155829000Y-137287000D03*
D13*
X163830000Y-137160000D03*
D14*
X166370000Y-137160000D03*
X168910000Y-137160000D03*
X171450000Y-137160000D03*
X173990000Y-137160000D03*
X176530000Y-137160000D03*
D13*
X181610000Y-137223500D03*
D14*
X184150000Y-137223500D03*
X186690000Y-137223500D03*
X189230000Y-137223500D03*
X191770000Y-137223500D03*
X194310000Y-137223500D03*
M02*
