%FSLAX46Y46*%
G04 Gerber Fmt 4.6, Leading zero omitted, Abs format (unit mm)*
G04 Created by KiCad (PCBNEW (2014-08-05 BZR 5054)-product) date Sat 01 Nov 2014 09:43:45 PM PDT*
%MOMM*%
G01*
G04 APERTURE LIST*
%ADD10C,0.152400*%
%ADD11R,0.899160X1.000760*%
%ADD12C,1.270000*%
%ADD13R,0.600000X2.000000*%
%ADD14R,0.700000X4.200000*%
%ADD15R,1.750000X0.700000*%
%ADD16R,1.300000X1.300000*%
%ADD17R,1.500000X0.800000*%
%ADD18R,1.400000X0.800000*%
%ADD19R,1.550000X1.000000*%
%ADD20R,1.000000X1.450000*%
%ADD21R,2.800000X1.600000*%
%ADD22R,0.600000X1.600000*%
%ADD23R,0.800000X0.750000*%
%ADD24R,0.750000X0.800000*%
%ADD25R,0.500000X0.900000*%
%ADD26R,0.900000X0.500000*%
%ADD27R,1.727200X2.032000*%
%ADD28O,1.727200X2.032000*%
%ADD29R,2.032000X1.727200*%
%ADD30O,2.032000X1.727200*%
%ADD31R,2.032000X2.032000*%
%ADD32O,2.032000X2.032000*%
%ADD33R,1.600000X0.600000*%
%ADD34R,0.500000X1.500000*%
%ADD35R,0.480000X1.400000*%
%ADD36R,0.560000X1.550000*%
%ADD37R,1.200000X1.800000*%
G04 APERTURE END LIST*
D10*
D11*
X177942240Y-121716800D03*
X176438560Y-121716800D03*
D12*
X185420000Y-124777500D03*
X187960000Y-124777500D03*
X185420000Y-122237500D03*
X187960000Y-122237500D03*
X185420000Y-119697500D03*
X187960000Y-119697500D03*
X185420000Y-117157500D03*
X187960000Y-117157500D03*
X185420000Y-114617500D03*
X187960000Y-114617500D03*
X185420000Y-112077500D03*
X187960000Y-112077500D03*
X185420000Y-109537500D03*
X187960000Y-109537500D03*
X185420000Y-106997500D03*
X187960000Y-106997500D03*
D13*
X145169000Y-132477000D03*
X144169000Y-132477000D03*
X146169000Y-132477000D03*
X147169000Y-132477000D03*
D14*
X143169000Y-134477000D03*
X148169000Y-134477000D03*
D15*
X134913500Y-97196500D03*
X134913500Y-96096500D03*
X134913500Y-94996500D03*
X134913500Y-93896500D03*
X134913500Y-92796500D03*
X134913500Y-91696500D03*
X134913500Y-90596500D03*
X134913500Y-89496500D03*
D16*
X135138500Y-88296500D03*
X135138500Y-99346500D03*
D17*
X142693500Y-88046500D03*
D18*
X143263500Y-97146500D03*
D19*
X145663500Y-96696500D03*
D20*
X144163500Y-88346500D03*
D21*
X182186000Y-126846000D03*
X177886000Y-126846000D03*
X173702400Y-126744400D03*
X169402400Y-126744400D03*
X155973200Y-126033200D03*
X151673200Y-126033200D03*
D22*
X136605800Y-112463600D03*
X136605800Y-117863600D03*
X137855800Y-112463600D03*
X139105800Y-112463600D03*
X140355800Y-112463600D03*
X137855800Y-117863600D03*
X139105800Y-117863600D03*
X140355800Y-117863600D03*
D23*
X173266800Y-121716800D03*
X171766800Y-121716800D03*
X180453600Y-121716800D03*
X181953600Y-121716800D03*
X162724400Y-119837200D03*
X164224400Y-119837200D03*
D24*
X169418000Y-118058500D03*
X169418000Y-119558500D03*
X169418000Y-105041000D03*
X169418000Y-106541000D03*
D25*
X135965500Y-106934000D03*
X137465500Y-106934000D03*
X140283500Y-106934000D03*
X141783500Y-106934000D03*
D26*
X169418000Y-110478000D03*
X169418000Y-108978000D03*
X169468800Y-113983200D03*
X169468800Y-112483200D03*
D25*
X168961500Y-91948000D03*
X167461500Y-91948000D03*
D27*
X154686000Y-88900000D03*
D28*
X157226000Y-88900000D03*
X159766000Y-88900000D03*
X162306000Y-88900000D03*
X164846000Y-88900000D03*
X167386000Y-88900000D03*
X169926000Y-88900000D03*
X172466000Y-88900000D03*
D27*
X176530000Y-88900000D03*
D28*
X179070000Y-88900000D03*
X181610000Y-88900000D03*
X184150000Y-88900000D03*
X186690000Y-88900000D03*
X189230000Y-88900000D03*
X191770000Y-88900000D03*
X194310000Y-88900000D03*
D29*
X137604500Y-137096500D03*
D30*
X137604500Y-134556500D03*
X137604500Y-132016500D03*
X137604500Y-129476500D03*
D31*
X153289000Y-137287000D03*
D32*
X155829000Y-137287000D03*
D27*
X163830000Y-137160000D03*
D28*
X166370000Y-137160000D03*
X168910000Y-137160000D03*
X171450000Y-137160000D03*
X173990000Y-137160000D03*
X176530000Y-137160000D03*
D27*
X181610000Y-137223500D03*
D28*
X184150000Y-137223500D03*
X186690000Y-137223500D03*
X189230000Y-137223500D03*
X191770000Y-137223500D03*
X194310000Y-137223500D03*
D33*
X174147500Y-110714000D03*
X179547500Y-110714000D03*
X174147500Y-109464000D03*
X174147500Y-108214000D03*
X174147500Y-106964000D03*
X179547500Y-109464000D03*
X179547500Y-108214000D03*
X179547500Y-106964000D03*
X179585600Y-114863400D03*
X174185600Y-114863400D03*
X179585600Y-116113400D03*
X179585600Y-117363400D03*
X179585600Y-118613400D03*
X174185600Y-116113400D03*
X174185600Y-117363400D03*
X174185600Y-118613400D03*
D34*
X169916000Y-94629000D03*
X168646000Y-94629000D03*
X167376000Y-94629000D03*
X166106000Y-94629000D03*
X164836000Y-94629000D03*
X163566000Y-94629000D03*
X162296000Y-94629000D03*
X162296000Y-101379000D03*
X163566000Y-101379000D03*
X164836000Y-101379000D03*
X166106000Y-101379000D03*
X167376000Y-101379000D03*
X168646000Y-101379000D03*
X169916000Y-101379000D03*
D35*
X161211260Y-128851660D03*
D36*
X162712400Y-128800000D03*
D35*
X164213540Y-128851660D03*
D37*
X162712400Y-126700000D03*
D10*
G36*
X163262400Y-127550000D02*
X162962400Y-128050000D01*
X162462400Y-128050000D01*
X162162400Y-127550000D01*
X163262400Y-127550000D01*
X163262400Y-127550000D01*
G37*
G36*
X162162400Y-125850000D02*
X162462400Y-125350000D01*
X162962400Y-125350000D01*
X163262400Y-125850000D01*
X162162400Y-125850000D01*
X162162400Y-125850000D01*
G37*
M02*
