G04 #@! TF.FileFunction,Paste,Top*
%FSLAX46Y46*%
G04 Gerber Fmt 4.6, Leading zero omitted, Abs format (unit mm)*
G04 Created by KiCad (PCBNEW (2015-01-06 BZR 5261)-product) date Thursday, February 12, 2015 'PMt' 09:45:42 PM*
%MOMM*%
G01*
G04 APERTURE LIST*
%ADD10C,0.152400*%
%ADD11R,1.970000X0.570000*%
%ADD12R,1.600000X0.600000*%
%ADD13R,1.750000X0.700000*%
%ADD14R,1.500000X1.500000*%
%ADD15R,1.500000X0.800000*%
%ADD16R,1.400000X0.800000*%
%ADD17R,1.550000X1.000000*%
%ADD18R,1.000000X1.450000*%
%ADD19R,2.800000X1.600000*%
%ADD20R,0.800000X0.750000*%
%ADD21R,0.750000X0.800000*%
%ADD22R,0.900000X0.500000*%
%ADD23R,0.500000X0.900000*%
%ADD24R,0.500000X1.500000*%
%ADD25R,0.600000X2.000000*%
%ADD26R,0.700000X4.200000*%
%ADD27R,1.500000X1.600000*%
%ADD28R,1.200000X1.200000*%
%ADD29R,2.050000X0.590000*%
%ADD30R,0.480000X1.400000*%
%ADD31R,0.560000X1.550000*%
%ADD32R,1.200000X1.800000*%
G04 APERTURE END LIST*
D10*
D11*
X179005000Y-113665000D03*
X179005000Y-114935000D03*
X179005000Y-116205000D03*
X179005000Y-117475000D03*
X174055000Y-113665000D03*
X174055000Y-114935000D03*
X174055000Y-116205000D03*
X174055000Y-117475000D03*
D12*
X174147500Y-110714000D03*
X179547500Y-110714000D03*
X174147500Y-109464000D03*
X174147500Y-108214000D03*
X174147500Y-106964000D03*
X179547500Y-109464000D03*
X179547500Y-108214000D03*
X179547500Y-106964000D03*
D13*
X134913500Y-97196500D03*
X134913500Y-96096500D03*
X134913500Y-94996500D03*
X134913500Y-93896500D03*
X134913500Y-92796500D03*
X134913500Y-91696500D03*
X134913500Y-90596500D03*
X134913500Y-89496500D03*
D14*
X135013500Y-88196500D03*
X135013500Y-99646500D03*
D15*
X142693500Y-87846500D03*
D16*
X143263500Y-99996500D03*
D17*
X145663500Y-99646500D03*
D18*
X144163500Y-88146500D03*
D19*
X182186000Y-126846000D03*
X177886000Y-126846000D03*
X173702400Y-126744400D03*
X169402400Y-126744400D03*
X155973200Y-126033200D03*
X151673200Y-126033200D03*
D20*
X173266800Y-121716800D03*
X171766800Y-121716800D03*
X180453600Y-121716800D03*
X181953600Y-121716800D03*
X162724400Y-119837200D03*
X164224400Y-119837200D03*
D21*
X169418000Y-118058500D03*
X169418000Y-119558500D03*
X169418000Y-105041000D03*
X169418000Y-106541000D03*
D22*
X142240000Y-126480000D03*
X142240000Y-124980000D03*
X146685000Y-126480000D03*
X146685000Y-124980000D03*
X169418000Y-110478000D03*
X169418000Y-108978000D03*
X169468800Y-113983200D03*
X169468800Y-112483200D03*
D23*
X168961500Y-91948000D03*
X167461500Y-91948000D03*
D24*
X169916000Y-94629000D03*
X168646000Y-94629000D03*
X167376000Y-94629000D03*
X166106000Y-94629000D03*
X164836000Y-94629000D03*
X163566000Y-94629000D03*
X162296000Y-94629000D03*
X162296000Y-101379000D03*
X163566000Y-101379000D03*
X164836000Y-101379000D03*
X166106000Y-101379000D03*
X167376000Y-101379000D03*
X168646000Y-101379000D03*
X169916000Y-101379000D03*
D20*
X176440400Y-121716800D03*
X177940400Y-121716800D03*
D25*
X145550000Y-132350000D03*
X144550000Y-132350000D03*
X146550000Y-132350000D03*
X147550000Y-132350000D03*
D26*
X143550000Y-134350000D03*
X148550000Y-134350000D03*
D27*
X161470000Y-115570000D03*
D28*
X158020000Y-114370000D03*
X158020000Y-116770000D03*
D29*
X149733000Y-117221000D03*
X149733000Y-115951000D03*
X149733000Y-114681000D03*
X149733000Y-113411000D03*
X149733000Y-112141000D03*
X149733000Y-110871000D03*
X149733000Y-109601000D03*
X149733000Y-108331000D03*
X140423000Y-108331000D03*
X140423000Y-109601000D03*
X140423000Y-110871000D03*
X140423000Y-112141000D03*
X140423000Y-113411000D03*
X140423000Y-114681000D03*
X140423000Y-115951000D03*
X140423000Y-117221000D03*
D30*
X160550860Y-127581660D03*
D31*
X162052000Y-127530000D03*
D30*
X163553140Y-127581660D03*
D32*
X162052000Y-125430000D03*
D10*
G36*
X162602000Y-126280000D02*
X162302000Y-126780000D01*
X161802000Y-126780000D01*
X161502000Y-126280000D01*
X162602000Y-126280000D01*
X162602000Y-126280000D01*
G37*
G36*
X161502000Y-124580000D02*
X161802000Y-124080000D01*
X162302000Y-124080000D01*
X162602000Y-124580000D01*
X161502000Y-124580000D01*
X161502000Y-124580000D01*
G37*
M02*
