M48
;DRILL file {kicad (2014-08-05 BZR 5054)-product} date Sat 01 Nov 2014 08:34:57 PM PDT
;FORMAT={-:-/ absolute / inch / decimal}
FMAT,2
INCH,TZ
T1C0.025
T2C0.035
T3C0.040
%
G90
G05
M72
T1
X5.224Y-3.61
X5.332Y-4.1
X5.34Y-4.742
X5.464Y-4.152
X5.472Y-3.47
X5.476Y-4.708
X5.552Y-3.826
X5.578Y-4.524
X5.592Y-4.658
X5.614Y-5.02
X5.632Y-4.638
X5.714Y-5.114
X5.716Y-5.29
X5.748Y-5.392
X5.752Y-5.076
X6.0525Y-3.6475
X6.1225Y-3.69
X6.16Y-5.122
X6.202Y-4.836
X6.205Y-3.735
X6.238Y-4.956
X6.296Y-5.072
X6.31Y-4.974
X6.34Y-3.724
X6.4Y-3.79
X6.492Y-4.062
X6.512Y-3.794
X6.524Y-4.544
X6.5375Y-3.6425
X6.546Y-4.718
X6.555Y-3.8675
X6.608Y-4.486
X6.682Y-5.16
X6.682Y-5.248
X6.72Y-5.122
X6.724Y-5.204
X6.752Y-4.136
X6.754Y-4.574
X6.76Y-3.724
X6.782Y-4.346
X6.822Y-4.872
X6.916Y-5.122
X6.916Y-5.206
X6.948Y-4.69
X6.952Y-5.164
X6.958Y-5.25
X6.986Y-3.67
X7.12Y-5.254
X7.128Y-3.674
X7.172Y-4.888
X7.216Y-5.208
X7.276Y-5.168
X7.348Y-5.126
T2
X7.3Y-4.2125
X7.3Y-4.3125
X7.3Y-4.4125
X7.3Y-4.5125
X7.3Y-4.6125
X7.3Y-4.7125
X7.3Y-4.8125
X7.3Y-4.9125
X7.4Y-4.2125
X7.4Y-4.3125
X7.4Y-4.4125
X7.4Y-4.5125
X7.4Y-4.6125
X7.4Y-4.7125
X7.4Y-4.8125
X7.4Y-4.9125
T3
X5.4175Y-5.0975
X5.4175Y-5.1975
X5.4175Y-5.2975
X5.4175Y-5.3975
X6.035Y-5.405
X6.09Y-3.5
X6.135Y-5.405
X6.19Y-3.5
X6.29Y-3.5
X6.39Y-3.5
X6.45Y-5.4
X6.49Y-3.5
X6.55Y-5.4
X6.59Y-3.5
X6.65Y-5.4
X6.69Y-3.5
X6.75Y-5.4
X6.79Y-3.5
X6.85Y-5.4
X6.95Y-3.5
X6.95Y-5.4
X7.05Y-3.5
X7.15Y-3.5
X7.15Y-5.4025
X7.25Y-3.5
X7.25Y-5.4025
X7.35Y-3.5
X7.35Y-5.4025
X7.45Y-3.5
X7.45Y-5.4025
X7.55Y-3.5
X7.55Y-5.4025
X7.65Y-3.5
X7.65Y-5.4025
T0
M30
