M48
;DRILL file {kicad (2014-08-05 BZR 5054)-product} date Thu 28 Aug 2014 09:22:32 PM PDT
;FORMAT={-:-/ absolute / inch / decimal}
FMAT,2
INCH,TZ
T1C0.025
T2C0.035
T3C0.040
%
G90
G05
M72
T1
X5.265Y-3.47
X5.445Y-3.985
X5.53Y-4.345
X5.625Y-4.91
X5.66Y-4.82
X5.675Y-3.615
X5.72Y-3.945
X5.77Y-4.22
X5.825Y-4.755
X5.885Y-4.4
X6.09Y-3.675
X6.225Y-3.975
X6.28Y-4.7
X6.355Y-5.24
X6.38Y-3.875
X6.4Y-4.695
X6.425Y-4.07
X6.52Y-4.05
X6.67Y-3.73
X6.72Y-4.7
X6.72Y-4.825
X6.72Y-4.965
X6.795Y-3.915
X6.795Y-4.155
X6.89Y-3.68
X6.89Y-4.28
X6.935Y-3.875
X6.985Y-4.455
X6.99Y-3.68
X7.11Y-5.075
T2
X6.41Y-3.74
X6.445Y-4.34
X6.6Y-4.34
X6.74Y-3.62
X6.955Y-4.84
X6.965Y-5.02
X7.07Y-4.72
X7.25Y-4.25
X7.25Y-4.35
X7.25Y-4.45
X7.25Y-4.55
X7.25Y-4.65
X7.25Y-4.75
X7.25Y-4.85
X7.25Y-4.95
X7.35Y-4.25
X7.35Y-4.35
X7.35Y-4.45
X7.35Y-4.55
X7.35Y-4.65
X7.35Y-4.75
X7.35Y-4.85
X7.35Y-4.95
T3
X6.1Y-3.5
X6.1Y-5.4
X6.2Y-3.5
X6.2Y-5.4
X6.3Y-3.5
X6.4Y-3.5
X6.45Y-5.4
X6.5Y-3.5
X6.55Y-5.4
X6.6Y-3.5
X6.65Y-5.4
X6.7Y-3.5
X6.75Y-5.4
X6.8Y-3.5
X6.85Y-5.4
X6.95Y-3.5
X6.95Y-5.4
X7.05Y-3.5
X7.15Y-3.5
X7.15Y-5.4
X7.25Y-3.5
X7.25Y-5.4
X7.35Y-3.5
X7.35Y-5.4
X7.45Y-3.5
X7.45Y-5.4
X7.55Y-3.5
X7.55Y-5.4
X7.65Y-3.5
X7.65Y-5.4
T0
M30
