  0
SECTION
  2
HEADER
  9
$ACADVER
  1
AC1012
  9
$DWGCODEPAGE
  3
ansi_1252
  9
$INSBASE
 10
0.0
 20
0.0
 30
0.0
  9
$EXTMIN
 10
0.0
 20
0.0
 30
0.0
  9
$EXTMAX
 10
431.8
 20
279.4
 30
0.0
  9
$LIMMIN
 10
0.0
 20
0.0
  9
$LIMMAX
 10
431.8
 20
279.4
  9
$ORTHOMODE
 70
     0
  9
$REGENMODE
 70
     1
  9
$FILLMODE
 70
     1
  9
$QTEXTMODE
 70
     0
  9
$MIRRTEXT
 70
     1
  9
$DRAGMODE
 70
     2
  9
$LTSCALE
 40
1.0
  9
$OSMODE
 70
    37
  9
$ATTMODE
 70
     1
  9
$TEXTSIZE
 40
3.5
  9
$TRACEWID
 40
1.0
  9
$TEXTSTYLE
  7
STANDARD
  9
$CLAYER
  8
0
  9
$CELTYPE
  6
BYLAYER
  9
$CECOLOR
 62
   256
  9
$CELTSCALE
 40
1.0
  9
$DELOBJ
 70
     1
  9
$DISPSILH
 70
     0
  9
$DIMSCALE
 40
1.0
  9
$DIMASZ
 40
6.0
  9
$DIMEXO
 40
1.0
  9
$DIMDLI
 40
3.75
  9
$DIMRND
 40
0.0
  9
$DIMDLE
 40
0.0
  9
$DIMEXE
 40
1.0
  9
$DIMTP
 40
0.0
  9
$DIMTM
 40
0.0
  9
$DIMTXT
 40
3.5
  9
$DIMCEN
 40
2.5
  9
$DIMTSZ
 40
0.0
  9
$DIMTOL
 70
     0
  9
$DIMLIM
 70
     0
  9
$DIMTIH
 70
     1
  9
$DIMTOH
 70
     1
  9
$DIMSE1
 70
     0
  9
$DIMSE2
 70
     0
  9
$DIMTAD
 70
     1
  9
$DIMZIN
 70
     0
  9
$DIMBLK
  1

  9
$DIMASO
 70
     1
  9
$DIMSHO
 70
     1
  9
$DIMPOST
  1

  9
$DIMAPOST
  1

  9
$DIMALT
 70
     0
  9
$DIMALTD
 70
     3
  9
$DIMALTF
 40
0.0393700787
  9
$DIMLFAC
 40
1.0
  9
$DIMTOFL
 70
     1
  9
$DIMTVP
 40
0.0
  9
$DIMTIX
 70
     0
  9
$DIMSOXD
 70
     0
  9
$DIMSAH
 70
     0
  9
$DIMBLK1
  1

  9
$DIMBLK2
  1

  9
$DIMSTYLE
  2
ISO-25
  9
$DIMCLRD
 70
     0
  9
$DIMCLRE
 70
     0
  9
$DIMCLRT
 70
     0
  9
$DIMTFAC
 40
1.0
  9
$DIMGAP
 40
1.524
  9
$DIMJUST
 70
     0
  9
$DIMSD1
 70
     0
  9
$DIMSD2
 70
     0
  9
$DIMTOLJ
 70
     0
  9
$DIMTZIN
 70
     0
  9
$DIMALTZ
 70
     0
  9
$DIMALTTZ
 70
     0
  9
$DIMFIT
 70
     3
  9
$DIMUPT
 70
     0
  9
$DIMUNIT
 70
     2
  9
$DIMDEC
 70
     3
  9
$DIMTDEC
 70
     3
  9
$DIMALTU
 70
     2
  9
$DIMALTTD
 70
     3
  9
$DIMTXSTY
  7
STANDARD
  9
$DIMAUNIT
 70
     0
  9
$LUNITS
 70
     2
  9
$LUPREC
 70
     2
  9
$SKETCHINC
 40
1.0
  9
$FILLETRAD
 40
10.0
  9
$AUNITS
 70
     0
  9
$AUPREC
 70
     2
  9
$MENU
  1
.
  9
$ELEVATION
 40
0.0
  9
$PELEVATION
 40
0.0
  9
$THICKNESS
 40
0.0
  9
$LIMCHECK
 70
     0
  9
$CHAMFERA
 40
10.0
  9
$CHAMFERB
 40
10.0
  9
$CHAMFERC
 40
20.0
  9
$CHAMFERD
 40
0.0
  9
$SKPOLY
 70
     0
  9
$TDCREATE
 40
2456417.030227199
  9
$TDUPDATE
 40
2456417.030228229
  9
$TDINDWG
 40
0.0000000116
  9
$TDUSRTIMER
 40
0.0000000116
  9
$USRTIMER
 70
     1
  9
$ANGBASE
 50
0.0
  9
$ANGDIR
 70
     0
  9
$PDMODE
 70
     0
  9
$PDSIZE
 40
-1.0
  9
$PLINEWID
 40
0.0
  9
$COORDS
 70
     1
  9
$SPLFRAME
 70
     0
  9
$SPLINETYPE
 70
     6
  9
$SPLINESEGS
 70
     8
  9
$ATTDIA
 70
     0
  9
$ATTREQ
 70
     1
  9
$HANDLING
 70
     1
  9
$HANDSEED
  5
447
  9
$SURFTAB1
 70
     6
  9
$SURFTAB2
 70
     6
  9
$SURFTYPE
 70
     6
  9
$SURFU
 70
     6
  9
$SURFV
 70
     6
  9
$UCSNAME
  2

  9
$UCSORG
 10
0.0
 20
0.0
 30
0.0
  9
$UCSXDIR
 10
1.0
 20
0.0
 30
0.0
  9
$UCSYDIR
 10
0.0
 20
1.0
 30
0.0
  9
$PUCSNAME
  2

  9
$PUCSORG
 10
0.0
 20
0.0
 30
0.0
  9
$PUCSXDIR
 10
1.0
 20
0.0
 30
0.0
  9
$PUCSYDIR
 10
0.0
 20
1.0
 30
0.0
  9
$USERI1
 70
     0
  9
$USERI2
 70
     0
  9
$USERI3
 70
     0
  9
$USERI4
 70
     0
  9
$USERI5
 70
     0
  9
$USERR1
 40
0.0
  9
$USERR2
 40
0.0
  9
$USERR3
 40
0.0
  9
$USERR4
 40
0.0
  9
$USERR5
 40
0.0
  9
$WORLDVIEW
 70
     1
  9
$SHADEDGE
 70
     3
  9
$SHADEDIF
 70
    70
  9
$TILEMODE
 70
     1
  9
$MAXACTVP
 70
    64
  9
$PINSBASE
 10
0.0
 20
0.0
 30
0.0
  9
$PLIMCHECK
 70
     0
  9
$PEXTMIN
 10
1.0000000000E+20
 20
1.0000000000E+20
 30
1.0000000000E+20
  9
$PEXTMAX
 10
-1.0000000000E+20
 20
-1.0000000000E+20
 30
-1.0000000000E+20
  9
$PLIMMIN
 10
0.0
 20
0.0
  9
$PLIMMAX
 10
420.0
 20
297.0
  9
$UNITMODE
 70
     0
  9
$VISRETAIN
 70
     1
  9
$PLINEGEN
 70
     0
  9
$PSLTSCALE
 70
     1
  9
$TREEDEPTH
 70
  3020
  9
$PICKSTYLE
 70
     1
  9
$CMLSTYLE
  2
STANDARD
  9
$CMLJUST
 70
     0
  9
$CMLSCALE
 40
20.0
  9
$SAVEIMAGES
 70
     1
  0
ENDSEC
  0
SECTION
  2
CLASSES
  0
CLASS
  1
ACDBDICTIONARYWDFLT
  2
AcDbDictionaryWithDefault
  3
ObjectDBX Classes
 90
    32768
280
     0
281
     0
  0
CLASS
  1
VISUALSTYLE
  2
AcDbVisualStyle
  3
ObjectDBX Classes
 90
     4095
280
     0
281
     0
  0
CLASS
  1
MATERIAL
  2
AcDbMaterial
  3
ObjectDBX Classes
 90
     1153
280
     0
281
     0
  0
CLASS
  1
XRECORD
  2
AcDbXrecord
  3
AutoCAD 2000
 90
    32768
280
     0
281
     0
  0
ENDSEC
  0
SECTION
  2
TABLES
  0
TABLE
  2
VPORT
  5
8
330
0
100
AcDbSymbolTable
 70
     1
  0
VPORT
  5
29
330
8
100
AcDbSymbolTableRecord
100
AcDbViewportTableRecord
  2
*ACTIVE
 70
     0
 10
0.0
 20
0.0
 11
1.0
 21
1.0
 12
215.9
 22
139.7
 13
0.0
 23
0.0
 14
10.0
 24
10.0
 15
10.0
 25
10.0
 16
0.0
 26
0.0
 36
1.0
 17
0.0
 27
0.0
 37
0.0
 40
279.4
 41
1.5454545455
 42
50.0
 43
0.0
 44
0.0
 50
0.0
 51
0.0
 71
     0
 72
  2000
 73
     1
 74
     3
 75
     0
 76
     0
 77
     0
 78
     0
  0
ENDTAB
  0
TABLE
  2
LTYPE
  5
5
330
0
100
AcDbSymbolTable
 70
     6
  0
LTYPE
  5
14
330
5
100
AcDbSymbolTableRecord
100
AcDbLinetypeTableRecord
  2
BYBLOCK
 70
     0
  3

 72
    65
 73
     0
 40
0.0
  0
LTYPE
  5
15
330
5
100
AcDbSymbolTableRecord
100
AcDbLinetypeTableRecord
  2
BYLAYER
 70
     0
  3

 72
    65
 73
     0
 40
0.0
  0
LTYPE
  5
16
330
5
100
AcDbSymbolTableRecord
100
AcDbLinetypeTableRecord
  2
CONTINUOUS
 70
     0
  3
Solid line
 72
    65
 73
     0
 40
0.0
  0
LTYPE
  5
3F
330
5
100
AcDbSymbolTableRecord
100
AcDbLinetypeTableRecord
  2
HIDDEN
 70
     0
  3
Hidden __ __ __ __ __ __ __ __ __ __ __ __ __ __
 72
    65
 73
     2
 40
1.905
 49
1.27
 74
     0
 49
-0.635
 74
     0
  0
LTYPE
  5
40
330
5
100
AcDbSymbolTableRecord
100
AcDbLinetypeTableRecord
  2
PHANTOM
 70
     0
  3
Phantom ______  __  __  ______  __  __  ______
 72
    65
 73
     6
 40
12.7
 49
6.35
 74
     0
 49
-1.27
 74
     0
 49
1.27
 74
     0
 49
-1.27
 74
     0
 49
1.27
 74
     0
 49
-1.27
 74
     0
  0
LTYPE
  5
41
330
5
100
AcDbSymbolTableRecord
100
AcDbLinetypeTableRecord
  2
CENTER
 70
     0
  3
Center ____ _ ____ _ ____ _ ____ _ ____ _ ____
 72
    65
 73
     4
 40
10.16
 49
6.35
 74
     0
 49
-1.27
 74
     0
 49
1.27
 74
     0
 49
-1.27
 74
     0
  0
LTYPE
  5
42
330
5
100
AcDbSymbolTableRecord
100
AcDbLinetypeTableRecord
  2
CENTERX2
 70
     0
  3
Center (2x) ________  __  ________  __  _____
 72
    65
 73
     4
 40
20.32
 49
12.7
 74
     0
 49
-2.54
 74
     0
 49
2.54
 74
     0
 49
-2.54
 74
     0
  0
LTYPE
  5
43
330
5
100
AcDbSymbolTableRecord
100
AcDbLinetypeTableRecord
  2
DOT2
 70
     0
  3
Dot (.5x) ........................................
 72
    65
 73
     2
 40
0.635
 49
0.0
 74
     0
 49
-0.635
 74
     0
  0
ENDTAB
  0
TABLE
  2
LAYER
  5
2
330
0
100
AcDbSymbolTable
 70
     1
  0
LAYER
  5
10
330
2
100
AcDbSymbolTableRecord
100
AcDbLayerTableRecord
  2
0
 70
     0
 62
     7
  6
CONTINUOUS
  0
ENDTAB
  0
TABLE
  2
STYLE
  5
3
330
0
100
AcDbSymbolTable
 70
     1
  0
STYLE
  5
11
330
3
100
AcDbSymbolTableRecord
100
AcDbTextStyleTableRecord
  2
STANDARD
 70
     0
 40
0.0
 41
1.0
 50
0.0
 71
     0
 42
3.5
  3
txt
  4

  0
ENDTAB
  0
TABLE
  2
VIEW
  5
6
330
0
100
AcDbSymbolTable
 70
     0
  0
ENDTAB
  0
TABLE
  2
UCS
  5
7
330
0
100
AcDbSymbolTable
 70
     0
  0
ENDTAB
  0
TABLE
  2
APPID
  5
9
330
0
100
AcDbSymbolTable
 70
     1
  0
APPID
  5
12
330
9
100
AcDbSymbolTableRecord
100
AcDbRegAppTableRecord
  2
ACAD
 70
     0
  0
ENDTAB
  0
TABLE
  2
DIMSTYLE
  5
A
330
0
100
AcDbSymbolTable
 70
     1
  0
DIMSTYLE
105
27
330
A
100
AcDbSymbolTableRecord
100
AcDbDimStyleTableRecord
  2
ISO-25
 70
     0
  3

  4

  5

  6

  7

 40
1.0
 41
2.5
 42
0.625
 43
3.75
 44
1.25
 45
0.0
 46
0.0
 47
0.0
 48
0.0
140
2.5
141
2.5
142
0.0
143
0.0393700787
144
1.0
145
0.0
146
1.0
147
0.625
 71
     0
 72
     0
 73
     0
 74
     0
 75
     0
 76
     0
 77
     1
 78
     8
170
     0
171
     3
172
     1
173
     0
174
     0
175
     0
176
     0
177
     0
178
     0
270
     2
271
     2
272
     2
273
     2
274
     3
340
11
275
     0
280
     0
281
     0
282
     0
283
     0
284
     8
285
     0
286
     0
287
     3
288
     0
  0
ENDTAB
  0
TABLE
  2
BLOCK_RECORD
  5
1
330
0
100
AcDbSymbolTable
 70
     1
  0
BLOCK_RECORD
  5
1F
330
1
100
AcDbSymbolTableRecord
100
AcDbBlockTableRecord
  2
*MODEL_SPACE
  0
BLOCK_RECORD
  5
1B
330
1
100
AcDbSymbolTableRecord
100
AcDbBlockTableRecord
  2
*PAPER_SPACE
  0
BLOCK_RECORD
  5
23
330
1
100
AcDbSymbolTableRecord
100
AcDbBlockTableRecord
  2
*PAPER_SPACE0
  0
ENDTAB
  0
ENDSEC
  0
SECTION
  2
BLOCKS
  0
BLOCK
  5
20
330
1F
100
AcDbEntity
  8
0
100
AcDbBlockBegin
  2
*MODEL_SPACE
 70
     0
 10
0.0
 20
0.0
 30
0.0
  3
*MODEL_SPACE
  1

  0
ENDBLK
  5
21
330
1F
100
AcDbEntity
  8
0
100
AcDbBlockEnd
  0
BLOCK
  5
1C
330
1B
100
AcDbEntity
 67
     1
  8
0
100
AcDbBlockBegin
  2
*PAPER_SPACE
 70
     0
 10
0.0
 20
0.0
 30
0.0
  3
*PAPER_SPACE
  1

  0
ENDBLK
  5
1D
330
1B
100
AcDbEntity
 67
     1
  8
0
100
AcDbBlockEnd
  0
BLOCK
  5
24
330
23
100
AcDbEntity
  8
0
100
AcDbBlockBegin
  2
*PAPER_SPACE0
 70
     0
 10
0.0
 20
0.0
 30
0.0
  3
*PAPER_SPACE0
  1

  0
ENDBLK
  5
25
330
23
100
AcDbEntity
  8
0
100
AcDbBlockEnd
  0
ENDSEC
  0
SECTION
  2
ENTITIES
  0
CIRCLE
  5
44
330
1F
100
AcDbEntity
  8
0
  6
CONTINUOUS
 62
     7
100
AcDbCircle
 10
141.992491187
 20
82.6084253972
 30
0.0
 40
16.10687500000009
  0
LINE
  5
45
330
1F
100
AcDbEntity
  8
0
  6
CONTINUOUS
 62
     7
100
AcDbLine
 10
35.9924895044
 20
56.5015410061
 30
0.0
 11
190.9925055976
 21
56.5015410061
 31
0.0
  0
LINE
  5
46
330
1F
100
AcDbEntity
  8
0
  6
CONTINUOUS
 62
     7
100
AcDbLine
 10
35.9924895044
 20
72.6684068318
 30
0.0
 11
35.9924895044
 21
56.5015410061
 31
0.0
  0
LINE
  5
47
330
1F
100
AcDbEntity
  8
0
  6
CONTINUOUS
 62
     7
100
AcDbLine
 10
32.9924983259
 20
72.6684068318
 30
0.0
 11
35.9924895044
 21
72.6684068318
 31
0.0
  0
LINE
  5
48
330
1F
100
AcDbEntity
  8
0
  6
CONTINUOUS
 62
     7
100
AcDbLine
 10
32.9924983259
 20
92.5484036083
 30
0.0
 11
32.9924983259
 21
72.6684068318
 31
0.0
  0
LINE
  5
49
330
1F
100
AcDbEntity
  8
0
  6
CONTINUOUS
 62
     7
100
AcDbLine
 10
35.9924895044
 20
92.5484036083
 30
0.0
 11
32.9924983259
 21
92.5484036083
 31
0.0
  0
LINE
  5
4A
330
1F
100
AcDbEntity
  8
0
  6
CONTINUOUS
 62
     7
100
AcDbLine
 10
35.9924895044
 20
108.7153290386
 30
0.0
 11
35.9924895044
 21
92.5484036083
 31
0.0
  0
LINE
  5
4B
330
1F
100
AcDbEntity
  8
0
  6
CONTINUOUS
 62
     7
100
AcDbLine
 10
190.9925055976
 20
92.5484036083
 30
0.0
 11
190.9925055976
 21
108.7153290386
 31
0.0
  0
LINE
  5
4C
330
1F
100
AcDbEntity
  8
0
  6
CONTINUOUS
 62
     7
100
AcDbLine
 10
193.9924967762
 20
92.5484036083
 30
0.0
 11
190.9925055976
 21
92.5484036083
 31
0.0
  0
LINE
  5
4D
330
1F
100
AcDbEntity
  8
0
  6
CONTINUOUS
 62
     7
100
AcDbLine
 10
190.9925055976
 20
72.6684068318
 30
0.0
 11
193.9924967762
 21
72.6684068318
 31
0.0
  0
LINE
  5
4E
330
1F
100
AcDbEntity
  8
0
  6
CONTINUOUS
 62
     7
100
AcDbLine
 10
190.9925055976
 20
108.7153290386
 30
0.0
 11
35.9924895044
 21
108.7153290386
 31
0.0
  0
LINE
  5
4F
330
1F
100
AcDbEntity
  8
0
  6
CONTINUOUS
 62
     7
100
AcDbLine
 10
190.9925055976
 20
56.5015410061
 30
0.0
 11
190.9925055976
 21
72.6684068318
 31
0.0
  0
LINE
  5
50
330
1F
100
AcDbEntity
  8
0
  6
CONTINUOUS
 62
     7
100
AcDbLine
 10
193.9924967762
 20
72.6684068318
 30
0.0
 11
193.9924967762
 21
92.5484036083
 31
0.0
  0
LINE
  5
51
330
1F
100
AcDbEntity
  8
0
  6
CONTINUOUS
 62
     7
100
AcDbLine
 10
190.9925055976
 20
230.9744690533
 30
0.0
 11
35.9924895044
 21
230.9744690533
 31
0.0
  0
CIRCLE
  5
52
330
1F
100
AcDbEntity
  8
0
  6
CONTINUOUS
 62
     7
100
AcDbCircle
 10
172.490616187
 20
133.649450801
 30
0.0
 40
1.976874999999986
  0
LINE
  5
53
330
1F
100
AcDbEntity
  8
0
  6
CONTINUOUS
 62
     7
100
AcDbLine
 10
193.9924967762
 20
154.9144719715
 30
0.0
 11
190.9925055976
 21
154.9144719715
 31
0.0
  0
LINE
  5
54
330
1F
100
AcDbEntity
  8
0
  6
CONTINUOUS
 62
     7
100
AcDbLine
 10
193.9924967762
 20
135.0344751949
 30
0.0
 11
193.9924967762
 21
154.9144719715
 31
0.0
  0
LINE
  5
55
330
1F
100
AcDbEntity
  8
0
  6
CONTINUOUS
 62
     7
100
AcDbLine
 10
190.9925055976
 20
135.0344751949
 30
0.0
 11
193.9924967762
 21
135.0344751949
 31
0.0
  0
LINE
  5
56
330
1F
100
AcDbEntity
  8
0
  6
CONTINUOUS
 62
     7
100
AcDbLine
 10
190.9925055976
 20
118.9744804974
 30
0.0
 11
190.9925055976
 21
135.0344751949
 31
0.0
  0
CIRCLE
  5
57
330
1F
100
AcDbEntity
  8
0
  6
CONTINUOUS
 62
     7
100
AcDbCircle
 10
54.494366187
 20
133.649450801
 30
0.0
 40
1.976874999999955
  0
LINE
  5
58
330
1F
100
AcDbEntity
  8
0
  6
CONTINUOUS
 62
     7
100
AcDbLine
 10
32.9924983259
 20
154.9144719715
 30
0.0
 11
35.9924895044
 21
154.9144719715
 31
0.0
  0
LINE
  5
59
330
1F
100
AcDbEntity
  8
0
  6
CONTINUOUS
 62
     7
100
AcDbLine
 10
32.9924983259
 20
135.0344751949
 30
0.0
 11
32.9924983259
 21
154.9144719715
 31
0.0
  0
LINE
  5
5A
330
1F
100
AcDbEntity
  8
0
  6
CONTINUOUS
 62
     7
100
AcDbLine
 10
35.9924895044
 20
135.0344751949
 30
0.0
 11
32.9924983259
 21
135.0344751949
 31
0.0
  0
LINE
  5
5B
330
1F
100
AcDbEntity
  8
0
  6
CONTINUOUS
 62
     7
100
AcDbLine
 10
178.4756196018
 20
138.7419437046
 30
0.0
 11
48.5093605991
 21
138.7419437046
 31
0.0
  0
LINE
  5
5C
330
1F
100
AcDbEntity
  8
0
  6
CONTINUOUS
 62
     7
100
AcDbLine
 10
190.9925055976
 20
118.9744804974
 30
0.0
 11
35.9924895044
 21
118.9744804974
 31
0.0
  0
LINE
  5
5D
330
1F
100
AcDbEntity
  8
0
  6
CONTINUOUS
 62
     7
100
AcDbLine
 10
35.9924895044
 20
118.9744804974
 30
0.0
 11
35.9924895044
 21
135.0344751949
 31
0.0
  0
CIRCLE
  5
5E
330
1F
100
AcDbEntity
  8
0
  6
CONTINUOUS
 62
     7
100
AcDbCircle
 10
172.490616187
 20
216.299450801
 30
0.0
 40
1.976874999999922
  0
LINE
  5
5F
330
1F
100
AcDbEntity
  8
0
  6
CONTINUOUS
 62
     7
100
AcDbLine
 10
193.9924967762
 20
195.0344775791
 30
0.0
 11
190.9925055976
 21
195.0344775791
 31
0.0
  0
LINE
  5
60
330
1F
100
AcDbEntity
  8
0
  6
CONTINUOUS
 62
     7
100
AcDbLine
 10
193.9924967762
 20
214.9144743557
 30
0.0
 11
193.9924967762
 21
195.0344775791
 31
0.0
  0
LINE
  5
61
330
1F
100
AcDbEntity
  8
0
  6
CONTINUOUS
 62
     7
100
AcDbLine
 10
190.9925055976
 20
214.9144743557
 30
0.0
 11
193.9924967762
 21
214.9144743557
 31
0.0
  0
LINE
  5
62
330
1F
100
AcDbEntity
  8
0
  6
CONTINUOUS
 62
     7
100
AcDbLine
 10
178.4756196018
 20
211.2069462414
 30
0.0
 11
178.4756196018
 21
138.7419437046
 31
0.0
  0
LINE
  5
63
330
1F
100
AcDbEntity
  8
0
  6
CONTINUOUS
 62
     7
100
AcDbLine
 10
190.9925055976
 20
195.0344775791
 30
0.0
 11
190.9925055976
 21
154.9144719715
 31
0.0
  0
LINE
  5
64
330
1F
100
AcDbEntity
  8
0
  6
CONTINUOUS
 62
     7
100
AcDbLine
 10
190.9925055976
 20
230.9744690533
 30
0.0
 11
190.9925055976
 21
214.9144743557
 31
0.0
  0
CIRCLE
  5
65
330
1F
100
AcDbEntity
  8
0
  6
CONTINUOUS
 62
     7
100
AcDbCircle
 10
54.494366187
 20
216.299450801
 30
0.0
 40
1.976874999999955
  0
LINE
  5
66
330
1F
100
AcDbEntity
  8
0
  6
CONTINUOUS
 62
     7
100
AcDbLine
 10
32.9924983259
 20
195.0344775791
 30
0.0
 11
35.9924895044
 21
195.0344775791
 31
0.0
  0
LINE
  5
67
330
1F
100
AcDbEntity
  8
0
  6
CONTINUOUS
 62
     7
100
AcDbLine
 10
32.9924983259
 20
214.9144743557
 30
0.0
 11
32.9924983259
 21
195.0344775791
 31
0.0
  0
LINE
  5
68
330
1F
100
AcDbEntity
  8
0
  6
CONTINUOUS
 62
     7
100
AcDbLine
 10
35.9924895044
 20
214.9144743557
 30
0.0
 11
32.9924983259
 21
214.9144743557
 31
0.0
  0
LINE
  5
69
330
1F
100
AcDbEntity
  8
0
  6
CONTINUOUS
 62
     7
100
AcDbLine
 10
48.5093605991
 20
211.2069462414
 30
0.0
 11
48.5093605991
 21
138.7419437046
 31
0.0
  0
LINE
  5
6A
330
1F
100
AcDbEntity
  8
0
  6
CONTINUOUS
 62
     7
100
AcDbLine
 10
178.4756196018
 20
211.2069462414
 30
0.0
 11
48.5093605991
 21
211.2069462414
 31
0.0
  0
LINE
  5
6B
330
1F
100
AcDbEntity
  8
0
  6
CONTINUOUS
 62
     7
100
AcDbLine
 10
35.9924895044
 20
195.0344775791
 30
0.0
 11
35.9924895044
 21
154.9144719715
 31
0.0
  0
LINE
  5
6C
330
1F
100
AcDbEntity
  8
0
  6
CONTINUOUS
 62
     7
100
AcDbLine
 10
35.9924895044
 20
230.9744690533
 30
0.0
 11
35.9924895044
 21
214.9144743557
 31
0.0
  0
ARC
  5
6D
330
1F
100
AcDbEntity
  8
0
  6
CONTINUOUS
 62
     7
100
AcDbCircle
 10
90.992491187
 20
256.0314656867
 30
0.0
 40
17.99999999999991
100
AcDbArc
 50
270.0
 51
330.0
  0
LINE
  5
6E
330
1F
100
AcDbEntity
  8
0
  6
CONTINUOUS
 62
     7
100
AcDbLine
 10
90.9924966569
 20
238.0314801808
 30
0.0
 11
90.9924966569
 21
241.0314415569
 31
0.0
  0
LINE
  5
6F
330
1F
100
AcDbEntity
  8
0
  6
CONTINUOUS
 62
     7
100
AcDbLine
 10
90.9924966569
 20
241.0314415569
 30
0.0
 11
77.6291651006
 21
241.0314415569
 31
0.0
  0
LINE
  5
70
330
1F
100
AcDbEntity
  8
0
  6
CONTINUOUS
 62
     7
100
AcDbLine
 10
77.6291651006
 20
241.0314415569
 30
0.0
 11
77.6291651006
 21
238.0314801808
 31
0.0
  0
LINE
  5
71
330
1F
100
AcDbEntity
  8
0
  6
CONTINUOUS
 62
     7
100
AcDbLine
 10
77.6291651006
 20
238.0314801808
 30
0.0
 11
64.3558216568
 21
238.0314801808
 31
0.0
  0
LINE
  5
72
330
1F
100
AcDbEntity
  8
0
  6
CONTINUOUS
 62
     7
100
AcDbLine
 10
64.3558216568
 20
241.0314415569
 30
0.0
 11
64.3558216568
 21
238.0314801808
 31
0.0
  0
LINE
  5
73
330
1F
100
AcDbEntity
  8
0
  6
CONTINUOUS
 62
     7
100
AcDbLine
 10
50.9924901004
 20
241.0314415569
 30
0.0
 11
50.9924901004
 21
238.0314801808
 31
0.0
  0
ARC
  5
74
330
1F
100
AcDbEntity
  8
0
  6
CONTINUOUS
 62
     7
100
AcDbCircle
 10
50.992491187
 20
256.0314656867
 30
0.0
 40
18.00000000000003
100
AcDbArc
 50
180.0
 51
270.0
  0
LINE
  5
75
330
1F
100
AcDbEntity
  8
0
  6
CONTINUOUS
 62
     7
100
AcDbLine
 10
32.9924983259
 20
256.0314868565
 30
0.0
 11
35.9924895044
 21
256.0314868565
 31
0.0
  0
LINE
  5
76
330
1F
100
AcDbEntity
  8
0
  6
CONTINUOUS
 62
     7
100
AcDbLine
 10
35.9924895044
 20
256.0314868565
 30
0.0
 11
35.9924895044
 21
283.477160799
 31
0.0
  0
LINE
  5
77
330
1F
100
AcDbEntity
  8
0
  6
CONTINUOUS
 62
     7
100
AcDbLine
 10
35.9924895044
 20
283.477160799
 30
0.0
 11
32.9924983259
 21
283.477160799
 31
0.0
  0
LINE
  5
78
330
1F
100
AcDbEntity
  8
0
  6
CONTINUOUS
 62
     7
100
AcDbLine
 10
32.9924983259
 20
283.477160799
 30
0.0
 11
32.9924983259
 21
311.1628626461
 31
0.0
  0
LINE
  5
79
330
1F
100
AcDbEntity
  8
0
  6
CONTINUOUS
 62
     7
100
AcDbLine
 10
32.9924983259
 20
311.1628626461
 30
0.0
 11
35.9924895044
 21
311.1628626461
 31
0.0
  0
LINE
  5
7A
330
1F
100
AcDbEntity
  8
0
  6
CONTINUOUS
 62
     7
100
AcDbLine
 10
35.9924895044
 20
311.1628626461
 30
0.0
 11
35.9924895044
 21
338.6085365887
 31
0.0
  0
LINE
  5
7B
330
1F
100
AcDbEntity
  8
0
  6
CONTINUOUS
 62
     7
100
AcDbLine
 10
35.9924895044
 20
338.6085365887
 30
0.0
 11
32.9924983259
 21
338.6085365887
 31
0.0
  0
LINE
  5
7C
330
1F
100
AcDbEntity
  8
0
  6
CONTINUOUS
 62
     7
100
AcDbLine
 10
32.9924983259
 20
338.6085365887
 30
0.0
 11
32.9924983259
 21
369.2942594166
 31
0.0
  0
LINE
  5
7D
330
1F
100
AcDbEntity
  8
0
  6
CONTINUOUS
 62
     7
100
AcDbLine
 10
63.4324861045
 20
369.2942594166
 30
0.0
 11
32.9924983259
 21
369.2942594166
 31
0.0
  0
LINE
  5
7E
330
1F
100
AcDbEntity
  8
0
  6
CONTINUOUS
 62
     7
100
AcDbLine
 10
63.4324861045
 20
366.2942384358
 30
0.0
 11
63.4324861045
 21
369.2942594166
 31
0.0
  0
LINE
  5
7F
330
1F
100
AcDbEntity
  8
0
  6
CONTINUOUS
 62
     7
100
AcDbLine
 10
90.9924966569
 20
366.2942384358
 30
0.0
 11
63.4324861045
 21
366.2942384358
 31
0.0
  0
LINE
  5
80
330
1F
100
AcDbEntity
  8
0
  6
CONTINUOUS
 62
     7
100
AcDbLine
 10
90.9924966569
 20
369.2942594166
 30
0.0
 11
90.9924966569
 21
366.2942384358
 31
0.0
  0
LINE
  5
81
330
1F
100
AcDbEntity
  8
0
  6
CONTINUOUS
 62
     7
100
AcDbLine
 10
118.4324932571
 20
369.2942594166
 30
0.0
 11
90.9924966569
 21
369.2942594166
 31
0.0
  0
LINE
  5
82
330
1F
100
AcDbEntity
  8
0
  6
CONTINUOUS
 62
     7
100
AcDbLine
 10
118.4324932571
 20
366.2942384358
 30
0.0
 11
118.4324932571
 21
369.2942594166
 31
0.0
  0
LINE
  5
83
330
1F
100
AcDbEntity
  8
0
  6
CONTINUOUS
 62
     7
100
AcDbLine
 10
145.9924889083
 20
366.2942384358
 30
0.0
 11
118.4324932571
 21
366.2942384358
 31
0.0
  0
LINE
  5
84
330
1F
100
AcDbEntity
  8
0
  6
CONTINUOUS
 62
     7
100
AcDbLine
 10
145.9924889083
 20
369.2942594166
 30
0.0
 11
145.9924889083
 21
366.2942384358
 31
0.0
  0
ARC
  5
85
330
1F
100
AcDbEntity
  8
0
  6
CONTINUOUS
 62
     7
100
AcDbCircle
 10
145.992491187
 20
351.294260103
 30
0.0
 40
17.99999999999966
100
AcDbArc
 50
330.0
 51
90.0
  0
LINE
  5
86
330
1F
100
AcDbEntity
  8
0
  6
CONTINUOUS
 62
     7
100
AcDbLine
 10
161.5809512611
 20
342.294249403
 30
0.0
 11
158.9828742023
 21
343.7942598934
 31
0.0
  0
LINE
  5
87
330
1F
100
AcDbEntity
  8
0
  6
CONTINUOUS
 62
     7
100
AcDbLine
 10
158.9828742023
 20
343.7942598934
 30
0.0
 11
147.952885675
 21
324.6897195454
 31
0.0
  0
LINE
  5
88
330
1F
100
AcDbEntity
  8
0
  6
CONTINUOUS
 62
     7
100
AcDbLine
 10
147.952885675
 20
324.6897195454
 30
0.0
 11
150.5509627338
 21
323.1897686596
 31
0.0
  0
LINE
  5
89
330
1F
100
AcDbEntity
  8
0
  6
CONTINUOUS
 62
     7
100
AcDbLine
 10
150.5509627338
 20
323.1897686596
 30
0.0
 11
139.5959419485
 21
304.2151068325
 31
0.0
  0
LINE
  5
8A
330
1F
100
AcDbEntity
  8
0
  6
CONTINUOUS
 62
     7
100
AcDbLine
 10
139.5959419485
 20
304.2151068325
 30
0.0
 11
136.9978648897
 21
305.7151173229
 31
0.0
  0
LINE
  5
8B
330
1F
100
AcDbEntity
  8
0
  6
CONTINUOUS
 62
     7
100
AcDbLine
 10
136.9978648897
 20
305.7151173229
 30
0.0
 11
125.9678763624
 21
286.6105769749
 31
0.0
  0
LINE
  5
8C
330
1F
100
AcDbEntity
  8
0
  6
CONTINUOUS
 62
     7
100
AcDbLine
 10
125.9678763624
 20
286.6105769749
 30
0.0
 11
128.5659534212
 21
285.1106260891
 31
0.0
  0
LINE
  5
8D
330
1F
100
AcDbEntity
  8
0
  6
CONTINUOUS
 62
     7
100
AcDbLine
 10
128.5659534212
 20
285.1106260891
 30
0.0
 11
117.610947537
 21
266.135964262
 31
0.0
  0
LINE
  5
8E
330
1F
100
AcDbEntity
  8
0
  6
CONTINUOUS
 62
     7
100
AcDbLine
 10
115.0128704782
 20
267.6359747524
 30
0.0
 11
117.610947537
 21
266.135964262
 31
0.0
  0
LINE
  5
8F
330
1F
100
AcDbEntity
  8
0
  6
CONTINUOUS
 62
     7
100
AcDbLine
 10
103.9828670497
 20
248.531494009
 30
0.0
 11
115.0128704782
 21
267.6359747524
 31
0.0
  0
LINE
  5
90
330
1F
100
AcDbEntity
  8
0
  6
CONTINUOUS
 62
     7
100
AcDbLine
 10
106.5809441085
 20
247.0314835186
 30
0.0
 11
103.9828670497
 21
248.531494009
 31
0.0
  0
CIRCLE
  5
91
330
1F
100
AcDbEntity
  8
0
  6
CONTINUOUS
 62
     7
100
AcDbCircle
 10
104.712491187
 20
367.794260103
 30
0.0
 40
1.450000000000003
  0
CIRCLE
  5
92
330
1F
100
AcDbEntity
  8
0
  6
CONTINUOUS
 62
     7
100
AcDbCircle
 10
34.492491187
 20
297.3200135928
 30
0.0
 40
1.450000000000003
  0
CIRCLE
  5
93
330
1F
100
AcDbEntity
  8
0
  6
CONTINUOUS
 62
     7
100
AcDbCircle
 10
70.992491187
 20
239.5314656867
 30
0.0
 40
1.450000000000003
  0
LINE
  5
94
330
1F
100
AcDbEntity
  8
0
  6
CONTINUOUS
 62
     7
100
AcDbLine
 10
54.7924948211
 20
311.031494009
 30
0.0
 11
54.7924948211
 21
291.0314534779
 31
0.0
  0
LINE
  5
95
330
1F
100
AcDbEntity
  8
0
  6
CONTINUOUS
 62
     7
100
AcDbLine
 10
51.7924887414
 20
311.031494009
 30
0.0
 11
54.7924948211
 21
311.031494009
 31
0.0
  0
LINE
  5
96
330
1F
100
AcDbEntity
  8
0
  6
CONTINUOUS
 62
     7
100
AcDbLine
 10
51.7924887414
 20
291.0314534779
 30
0.0
 11
51.7924887414
 21
311.031494009
 31
0.0
  0
LINE
  5
97
330
1F
100
AcDbEntity
  8
0
  6
CONTINUOUS
 62
     7
100
AcDbLine
 10
54.7924948211
 20
291.0314534779
 30
0.0
 11
51.7924887414
 21
291.0314534779
 31
0.0
  0
LINE
  5
98
330
1F
100
AcDbEntity
  8
0
  6
CONTINUOUS
 62
     7
100
AcDbLine
 10
100.1881671424
 20
268.0428360577
 30
0.0
 11
110.1881725069
 21
285.363349783
 31
0.0
  0
LINE
  5
99
330
1F
100
AcDbEntity
  8
0
  6
CONTINUOUS
 62
     7
100
AcDbLine
 10
102.7862442012
 20
266.5428255673
 30
0.0
 11
100.1881671424
 21
268.0428360577
 31
0.0
  0
LINE
  5
9A
330
1F
100
AcDbEntity
  8
0
  6
CONTINUOUS
 62
     7
100
AcDbLine
 10
112.7862495657
 20
283.8633392925
 30
0.0
 11
102.7862442012
 21
266.5428255673
 31
0.0
  0
LINE
  5
9B
330
1F
100
AcDbEntity
  8
0
  6
CONTINUOUS
 62
     7
100
AcDbLine
 10
110.1881725069
 20
285.363349783
 30
0.0
 11
112.7862495657
 21
283.8633392925
 31
0.0
  0
LINE
  5
9C
330
1F
100
AcDbEntity
  8
0
  6
CONTINUOUS
 62
     7
100
AcDbLine
 10
130.1881683345
 20
320.0043772335
 30
0.0
 11
140.188173699
 21
337.3248909588
 31
0.0
  0
LINE
  5
9D
330
1F
100
AcDbEntity
  8
0
  6
CONTINUOUS
 62
     7
100
AcDbLine
 10
132.7862453933
 20
318.5043667431
 30
0.0
 11
130.1881683345
 21
320.0043772335
 31
0.0
  0
LINE
  5
9E
330
1F
100
AcDbEntity
  8
0
  6
CONTINUOUS
 62
     7
100
AcDbLine
 10
142.7862507577
 20
335.8248804684
 30
0.0
 11
132.7862453933
 21
318.5043667431
 31
0.0
  0
LINE
  5
9F
330
1F
100
AcDbEntity
  8
0
  6
CONTINUOUS
 62
     7
100
AcDbLine
 10
140.188173699
 20
337.3248909588
 30
0.0
 11
142.7862507577
 21
335.8248804684
 31
0.0
  0
LINE
  5
A0
330
1F
100
AcDbEntity
  8
0
  6
CONTINUOUS
 62
     7
100
AcDbLine
 10
50.9924901004
 20
241.0314415569
 30
0.0
 11
64.3558216568
 21
241.0314415569
 31
0.0
  0
LINE
  5
A1
330
1F
100
AcDbEntity
  8
0
  6
CONTINUOUS
 62
     7
100
AcDbLine
 10
231.3934875007
 20
35.2856253262
 30
0.0
 11
267.6434827323
 21
35.2856253262
 31
0.0
  0
LINE
  5
A2
330
1F
100
AcDbEntity
  8
0
  6
CONTINUOUS
 62
     7
100
AcDbLine
 10
267.6434827323
 20
35.2856253262
 30
0.0
 11
267.6434827323
 21
35.7856486912
 31
0.0
  0
LINE
  5
A3
330
1F
100
AcDbEntity
  8
0
  6
CONTINUOUS
 62
     7
100
AcDbLine
 10
267.6434827323
 20
35.7856486912
 30
0.0
 11
231.3934875007
 21
35.7856486912
 31
0.0
  0
LINE
  5
A4
330
1F
100
AcDbEntity
  8
0
  6
CONTINUOUS
 62
     7
100
AcDbLine
 10
231.3934875007
 20
35.7856486912
 30
0.0
 11
231.3934875007
 21
35.2856253262
 31
0.0
  0
LINE
  5
A5
330
1F
100
AcDbEntity
  8
0
  6
CONTINUOUS
 62
     7
100
AcDbLine
 10
269.6434867855
 20
35.2856253262
 30
0.0
 11
305.8934820171
 21
35.2856253262
 31
0.0
  0
LINE
  5
A6
330
1F
100
AcDbEntity
  8
0
  6
CONTINUOUS
 62
     7
100
AcDbLine
 10
305.8934820171
 20
35.2856253262
 30
0.0
 11
305.8934820171
 21
35.7856486912
 31
0.0
  0
LINE
  5
A7
330
1F
100
AcDbEntity
  8
0
  6
CONTINUOUS
 62
     7
100
AcDbLine
 10
305.8934820171
 20
35.7856486912
 30
0.0
 11
269.6434867855
 21
35.7856486912
 31
0.0
  0
LINE
  5
A8
330
1F
100
AcDbEntity
  8
0
  6
CONTINUOUS
 62
     7
100
AcDbLine
 10
269.6434867855
 20
35.7856486912
 30
0.0
 11
269.6434867855
 21
35.2856253262
 31
0.0
  0
LINE
  5
A9
330
1F
100
AcDbEntity
  8
0
  6
CONTINUOUS
 62
     7
100
AcDbLine
 10
307.8934860702
 20
35.2856253262
 30
0.0
 11
344.1434813018
 21
35.2856253262
 31
0.0
  0
LINE
  5
AA
330
1F
100
AcDbEntity
  8
0
  6
CONTINUOUS
 62
     7
100
AcDbLine
 10
344.1434813018
 20
35.2856253262
 30
0.0
 11
344.1434813018
 21
35.7856486912
 31
0.0
  0
LINE
  5
AB
330
1F
100
AcDbEntity
  8
0
  6
CONTINUOUS
 62
     7
100
AcDbLine
 10
344.1434813018
 20
35.7856486912
 30
0.0
 11
307.8934860702
 21
35.7856486912
 31
0.0
  0
LINE
  5
AC
330
1F
100
AcDbEntity
  8
0
  6
CONTINUOUS
 62
     7
100
AcDbLine
 10
307.8934860702
 20
35.7856486912
 30
0.0
 11
307.8934860702
 21
35.2856253262
 31
0.0
  0
LINE
  5
AD
330
1F
100
AcDbEntity
  8
0
  6
CONTINUOUS
 62
     7
100
AcDbLine
 10
346.143485355
 20
35.2856253262
 30
0.0
 11
382.3934805866
 21
35.2856253262
 31
0.0
  0
LINE
  5
AE
330
1F
100
AcDbEntity
  8
0
  6
CONTINUOUS
 62
     7
100
AcDbLine
 10
382.3934805866
 20
35.2856253262
 30
0.0
 11
382.3934805866
 21
35.7856486912
 31
0.0
  0
LINE
  5
AF
330
1F
100
AcDbEntity
  8
0
  6
CONTINUOUS
 62
     7
100
AcDbLine
 10
382.3934805866
 20
35.7856486912
 30
0.0
 11
346.143485355
 21
35.7856486912
 31
0.0
  0
LINE
  5
B0
330
1F
100
AcDbEntity
  8
0
  6
CONTINUOUS
 62
     7
100
AcDbLine
 10
346.143485355
 20
35.7856486912
 30
0.0
 11
346.143485355
 21
35.2856253262
 31
0.0
  0
LINE
  5
B1
330
1F
100
AcDbEntity
  8
0
  6
CONTINUOUS
 62
     7
100
AcDbLine
 10
250.5185020443
 20
37.2856591816
 30
0.0
 11
286.7684972759
 21
37.2856591816
 31
0.0
  0
LINE
  5
B2
330
1F
100
AcDbEntity
  8
0
  6
CONTINUOUS
 62
     7
100
AcDbLine
 10
286.7684972759
 20
37.2856591816
 30
0.0
 11
286.7684972759
 21
37.785622942
 31
0.0
  0
LINE
  5
B3
330
1F
100
AcDbEntity
  8
0
  6
CONTINUOUS
 62
     7
100
AcDbLine
 10
286.7684972759
 20
37.785622942
 30
0.0
 11
250.5185020443
 21
37.785622942
 31
0.0
  0
LINE
  5
B4
330
1F
100
AcDbEntity
  8
0
  6
CONTINUOUS
 62
     7
100
AcDbLine
 10
250.5185020443
 20
37.785622942
 30
0.0
 11
250.5185020443
 21
37.2856591816
 31
0.0
  0
LINE
  5
B5
330
1F
100
AcDbEntity
  8
0
  6
CONTINUOUS
 62
     7
100
AcDbLine
 10
288.768501329
 20
37.2856591816
 30
0.0
 11
325.0184965606
 21
37.2856591816
 31
0.0
  0
LINE
  5
B6
330
1F
100
AcDbEntity
  8
0
  6
CONTINUOUS
 62
     7
100
AcDbLine
 10
325.0184965606
 20
37.2856591816
 30
0.0
 11
325.0184965606
 21
37.785622942
 31
0.0
  0
LINE
  5
B7
330
1F
100
AcDbEntity
  8
0
  6
CONTINUOUS
 62
     7
100
AcDbLine
 10
325.0184965606
 20
37.785622942
 30
0.0
 11
288.768501329
 21
37.785622942
 31
0.0
  0
LINE
  5
B8
330
1F
100
AcDbEntity
  8
0
  6
CONTINUOUS
 62
     7
100
AcDbLine
 10
288.768501329
 20
37.785622942
 30
0.0
 11
288.768501329
 21
37.2856591816
 31
0.0
  0
LINE
  5
B9
330
1F
100
AcDbEntity
  8
0
  6
CONTINUOUS
 62
     7
100
AcDbLine
 10
327.0185006137
 20
37.2856591816
 30
0.0
 11
363.2684958454
 21
37.2856591816
 31
0.0
  0
LINE
  5
BA
330
1F
100
AcDbEntity
  8
0
  6
CONTINUOUS
 62
     7
100
AcDbLine
 10
363.2684958454
 20
37.2856591816
 30
0.0
 11
363.2684958454
 21
37.785622942
 31
0.0
  0
LINE
  5
BB
330
1F
100
AcDbEntity
  8
0
  6
CONTINUOUS
 62
     7
100
AcDbLine
 10
363.2684958454
 20
37.785622942
 30
0.0
 11
327.0185006137
 21
37.785622942
 31
0.0
  0
LINE
  5
BC
330
1F
100
AcDbEntity
  8
0
  6
CONTINUOUS
 62
     7
100
AcDbLine
 10
327.0185006137
 20
37.785622942
 30
0.0
 11
327.0185006137
 21
37.2856591816
 31
0.0
  0
LINE
  5
BD
330
1F
100
AcDbEntity
  8
0
  6
CONTINUOUS
 62
     7
100
AcDbLine
 10
231.3934875007
 20
39.2856334324
 30
0.0
 11
267.6434827323
 21
39.2856334324
 31
0.0
  0
LINE
  5
BE
330
1F
100
AcDbEntity
  8
0
  6
CONTINUOUS
 62
     7
100
AcDbLine
 10
267.6434827323
 20
39.2856334324
 30
0.0
 11
267.6434827323
 21
39.7856567974
 31
0.0
  0
LINE
  5
BF
330
1F
100
AcDbEntity
  8
0
  6
CONTINUOUS
 62
     7
100
AcDbLine
 10
267.6434827323
 20
39.7856567974
 30
0.0
 11
231.3934875007
 21
39.7856567974
 31
0.0
  0
LINE
  5
C0
330
1F
100
AcDbEntity
  8
0
  6
CONTINUOUS
 62
     7
100
AcDbLine
 10
231.3934875007
 20
39.7856567974
 30
0.0
 11
231.3934875007
 21
39.2856334324
 31
0.0
  0
LINE
  5
C1
330
1F
100
AcDbEntity
  8
0
  6
CONTINUOUS
 62
     7
100
AcDbLine
 10
231.3934875007
 20
43.2856415386
 30
0.0
 11
267.6434827323
 21
43.2856415386
 31
0.0
  0
LINE
  5
C2
330
1F
100
AcDbEntity
  8
0
  6
CONTINUOUS
 62
     7
100
AcDbLine
 10
267.6434827323
 20
43.2856415386
 30
0.0
 11
267.6434827323
 21
43.785605299
 31
0.0
  0
LINE
  5
C3
330
1F
100
AcDbEntity
  8
0
  6
CONTINUOUS
 62
     7
100
AcDbLine
 10
267.6434827323
 20
43.785605299
 30
0.0
 11
231.3934875007
 21
43.785605299
 31
0.0
  0
LINE
  5
C4
330
1F
100
AcDbEntity
  8
0
  6
CONTINUOUS
 62
     7
100
AcDbLine
 10
231.3934875007
 20
43.785605299
 30
0.0
 11
231.3934875007
 21
43.2856415386
 31
0.0
  0
LINE
  5
C5
330
1F
100
AcDbEntity
  8
0
  6
CONTINUOUS
 62
     7
100
AcDbLine
 10
231.3934875007
 20
47.2856496449
 30
0.0
 11
267.6434827323
 21
47.2856496449
 31
0.0
  0
LINE
  5
C6
330
1F
100
AcDbEntity
  8
0
  6
CONTINUOUS
 62
     7
100
AcDbLine
 10
267.6434827323
 20
47.2856496449
 30
0.0
 11
267.6434827323
 21
47.7856134052
 31
0.0
  0
LINE
  5
C7
330
1F
100
AcDbEntity
  8
0
  6
CONTINUOUS
 62
     7
100
AcDbLine
 10
267.6434827323
 20
47.7856134052
 30
0.0
 11
231.3934875007
 21
47.7856134052
 31
0.0
  0
LINE
  5
C8
330
1F
100
AcDbEntity
  8
0
  6
CONTINUOUS
 62
     7
100
AcDbLine
 10
231.3934875007
 20
47.7856134052
 30
0.0
 11
231.3934875007
 21
47.2856496449
 31
0.0
  0
LINE
  5
C9
330
1F
100
AcDbEntity
  8
0
  6
CONTINUOUS
 62
     7
100
AcDbLine
 10
231.3934875007
 20
51.2856577511
 30
0.0
 11
267.6434827323
 21
51.2856577511
 31
0.0
  0
LINE
  5
CA
330
1F
100
AcDbEntity
  8
0
  6
CONTINUOUS
 62
     7
100
AcDbLine
 10
267.6434827323
 20
51.2856577511
 30
0.0
 11
267.6434827323
 21
51.7856215115
 31
0.0
  0
LINE
  5
CB
330
1F
100
AcDbEntity
  8
0
  6
CONTINUOUS
 62
     7
100
AcDbLine
 10
267.6434827323
 20
51.7856215115
 30
0.0
 11
231.3934875007
 21
51.7856215115
 31
0.0
  0
LINE
  5
CC
330
1F
100
AcDbEntity
  8
0
  6
CONTINUOUS
 62
     7
100
AcDbLine
 10
231.3934875007
 20
51.7856215115
 30
0.0
 11
231.3934875007
 21
51.2856577511
 31
0.0
  0
LINE
  5
CD
330
1F
100
AcDbEntity
  8
0
  6
CONTINUOUS
 62
     7
100
AcDbLine
 10
231.3934875007
 20
55.2856062527
 30
0.0
 11
267.6434827323
 21
55.2856062527
 31
0.0
  0
LINE
  5
CE
330
1F
100
AcDbEntity
  8
0
  6
CONTINUOUS
 62
     7
100
AcDbLine
 10
267.6434827323
 20
55.2856062527
 30
0.0
 11
267.6434827323
 21
55.7856296177
 31
0.0
  0
LINE
  5
CF
330
1F
100
AcDbEntity
  8
0
  6
CONTINUOUS
 62
     7
100
AcDbLine
 10
267.6434827323
 20
55.7856296177
 30
0.0
 11
231.3934875007
 21
55.7856296177
 31
0.0
  0
LINE
  5
D0
330
1F
100
AcDbEntity
  8
0
  6
CONTINUOUS
 62
     7
100
AcDbLine
 10
231.3934875007
 20
55.7856296177
 30
0.0
 11
231.3934875007
 21
55.2856062527
 31
0.0
  0
LINE
  5
D1
330
1F
100
AcDbEntity
  8
0
  6
CONTINUOUS
 62
     7
100
AcDbLine
 10
231.3934875007
 20
59.2856143589
 30
0.0
 11
267.6434827323
 21
59.2856143589
 31
0.0
  0
LINE
  5
D2
330
1F
100
AcDbEntity
  8
0
  6
CONTINUOUS
 62
     7
100
AcDbLine
 10
267.6434827323
 20
59.2856143589
 30
0.0
 11
267.6434827323
 21
59.7856377239
 31
0.0
  0
LINE
  5
D3
330
1F
100
AcDbEntity
  8
0
  6
CONTINUOUS
 62
     7
100
AcDbLine
 10
267.6434827323
 20
59.7856377239
 30
0.0
 11
231.3934875007
 21
59.7856377239
 31
0.0
  0
LINE
  5
D4
330
1F
100
AcDbEntity
  8
0
  6
CONTINUOUS
 62
     7
100
AcDbLine
 10
231.3934875007
 20
59.7856377239
 30
0.0
 11
231.3934875007
 21
59.2856143589
 31
0.0
  0
LINE
  5
D5
330
1F
100
AcDbEntity
  8
0
  6
CONTINUOUS
 62
     7
100
AcDbLine
 10
231.3934875007
 20
63.2856224651
 30
0.0
 11
267.6434827323
 21
63.2856224651
 31
0.0
  0
LINE
  5
D6
330
1F
100
AcDbEntity
  8
0
  6
CONTINUOUS
 62
     7
100
AcDbLine
 10
267.6434827323
 20
63.2856224651
 30
0.0
 11
267.6434827323
 21
63.7856458302
 31
0.0
  0
LINE
  5
D7
330
1F
100
AcDbEntity
  8
0
  6
CONTINUOUS
 62
     7
100
AcDbLine
 10
267.6434827323
 20
63.7856458302
 30
0.0
 11
231.3934875007
 21
63.7856458302
 31
0.0
  0
LINE
  5
D8
330
1F
100
AcDbEntity
  8
0
  6
CONTINUOUS
 62
     7
100
AcDbLine
 10
231.3934875007
 20
63.7856458302
 30
0.0
 11
231.3934875007
 21
63.2856224651
 31
0.0
  0
LINE
  5
D9
330
1F
100
AcDbEntity
  8
0
  6
CONTINUOUS
 62
     7
100
AcDbLine
 10
269.6434867855
 20
39.2856334324
 30
0.0
 11
305.8934820171
 21
39.2856334324
 31
0.0
  0
LINE
  5
DA
330
1F
100
AcDbEntity
  8
0
  6
CONTINUOUS
 62
     7
100
AcDbLine
 10
305.8934820171
 20
39.2856334324
 30
0.0
 11
305.8934820171
 21
39.7856567974
 31
0.0
  0
LINE
  5
DB
330
1F
100
AcDbEntity
  8
0
  6
CONTINUOUS
 62
     7
100
AcDbLine
 10
305.8934820171
 20
39.7856567974
 30
0.0
 11
269.6434867855
 21
39.7856567974
 31
0.0
  0
LINE
  5
DC
330
1F
100
AcDbEntity
  8
0
  6
CONTINUOUS
 62
     7
100
AcDbLine
 10
269.6434867855
 20
39.7856567974
 30
0.0
 11
269.6434867855
 21
39.2856334324
 31
0.0
  0
LINE
  5
DD
330
1F
100
AcDbEntity
  8
0
  6
CONTINUOUS
 62
     7
100
AcDbLine
 10
307.8934860702
 20
39.2856334324
 30
0.0
 11
344.1434813018
 21
39.2856334324
 31
0.0
  0
LINE
  5
DE
330
1F
100
AcDbEntity
  8
0
  6
CONTINUOUS
 62
     7
100
AcDbLine
 10
344.1434813018
 20
39.2856334324
 30
0.0
 11
344.1434813018
 21
39.7856567974
 31
0.0
  0
LINE
  5
DF
330
1F
100
AcDbEntity
  8
0
  6
CONTINUOUS
 62
     7
100
AcDbLine
 10
344.1434813018
 20
39.7856567974
 30
0.0
 11
307.8934860702
 21
39.7856567974
 31
0.0
  0
LINE
  5
E0
330
1F
100
AcDbEntity
  8
0
  6
CONTINUOUS
 62
     7
100
AcDbLine
 10
307.8934860702
 20
39.7856567974
 30
0.0
 11
307.8934860702
 21
39.2856334324
 31
0.0
  0
LINE
  5
E1
330
1F
100
AcDbEntity
  8
0
  6
CONTINUOUS
 62
     7
100
AcDbLine
 10
346.143485355
 20
39.2856334324
 30
0.0
 11
382.3934805866
 21
39.2856334324
 31
0.0
  0
LINE
  5
E2
330
1F
100
AcDbEntity
  8
0
  6
CONTINUOUS
 62
     7
100
AcDbLine
 10
382.3934805866
 20
39.2856334324
 30
0.0
 11
382.3934805866
 21
39.7856567974
 31
0.0
  0
LINE
  5
E3
330
1F
100
AcDbEntity
  8
0
  6
CONTINUOUS
 62
     7
100
AcDbLine
 10
382.3934805866
 20
39.7856567974
 30
0.0
 11
346.143485355
 21
39.7856567974
 31
0.0
  0
LINE
  5
E4
330
1F
100
AcDbEntity
  8
0
  6
CONTINUOUS
 62
     7
100
AcDbLine
 10
346.143485355
 20
39.7856567974
 30
0.0
 11
346.143485355
 21
39.2856334324
 31
0.0
  0
LINE
  5
E5
330
1F
100
AcDbEntity
  8
0
  6
CONTINUOUS
 62
     7
100
AcDbLine
 10
269.6434867855
 20
43.2856415386
 30
0.0
 11
305.8934820171
 21
43.2856415386
 31
0.0
  0
LINE
  5
E6
330
1F
100
AcDbEntity
  8
0
  6
CONTINUOUS
 62
     7
100
AcDbLine
 10
305.8934820171
 20
43.2856415386
 30
0.0
 11
305.8934820171
 21
43.785605299
 31
0.0
  0
LINE
  5
E7
330
1F
100
AcDbEntity
  8
0
  6
CONTINUOUS
 62
     7
100
AcDbLine
 10
305.8934820171
 20
43.785605299
 30
0.0
 11
269.6434867855
 21
43.785605299
 31
0.0
  0
LINE
  5
E8
330
1F
100
AcDbEntity
  8
0
  6
CONTINUOUS
 62
     7
100
AcDbLine
 10
269.6434867855
 20
43.785605299
 30
0.0
 11
269.6434867855
 21
43.2856415386
 31
0.0
  0
LINE
  5
E9
330
1F
100
AcDbEntity
  8
0
  6
CONTINUOUS
 62
     7
100
AcDbLine
 10
307.8934860702
 20
43.2856415386
 30
0.0
 11
344.1434813018
 21
43.2856415386
 31
0.0
  0
LINE
  5
EA
330
1F
100
AcDbEntity
  8
0
  6
CONTINUOUS
 62
     7
100
AcDbLine
 10
344.1434813018
 20
43.2856415386
 30
0.0
 11
344.1434813018
 21
43.785605299
 31
0.0
  0
LINE
  5
EB
330
1F
100
AcDbEntity
  8
0
  6
CONTINUOUS
 62
     7
100
AcDbLine
 10
344.1434813018
 20
43.785605299
 30
0.0
 11
307.8934860702
 21
43.785605299
 31
0.0
  0
LINE
  5
EC
330
1F
100
AcDbEntity
  8
0
  6
CONTINUOUS
 62
     7
100
AcDbLine
 10
307.8934860702
 20
43.785605299
 30
0.0
 11
307.8934860702
 21
43.2856415386
 31
0.0
  0
LINE
  5
ED
330
1F
100
AcDbEntity
  8
0
  6
CONTINUOUS
 62
     7
100
AcDbLine
 10
346.143485355
 20
43.2856415386
 30
0.0
 11
382.3934805866
 21
43.2856415386
 31
0.0
  0
LINE
  5
EE
330
1F
100
AcDbEntity
  8
0
  6
CONTINUOUS
 62
     7
100
AcDbLine
 10
382.3934805866
 20
43.2856415386
 30
0.0
 11
382.3934805866
 21
43.785605299
 31
0.0
  0
LINE
  5
EF
330
1F
100
AcDbEntity
  8
0
  6
CONTINUOUS
 62
     7
100
AcDbLine
 10
382.3934805866
 20
43.785605299
 30
0.0
 11
346.143485355
 21
43.785605299
 31
0.0
  0
LINE
  5
F0
330
1F
100
AcDbEntity
  8
0
  6
CONTINUOUS
 62
     7
100
AcDbLine
 10
346.143485355
 20
43.785605299
 30
0.0
 11
346.143485355
 21
43.2856415386
 31
0.0
  0
LINE
  5
F1
330
1F
100
AcDbEntity
  8
0
  6
CONTINUOUS
 62
     7
100
AcDbLine
 10
269.6434867855
 20
47.2856496449
 30
0.0
 11
305.8934820171
 21
47.2856496449
 31
0.0
  0
LINE
  5
F2
330
1F
100
AcDbEntity
  8
0
  6
CONTINUOUS
 62
     7
100
AcDbLine
 10
305.8934820171
 20
47.2856496449
 30
0.0
 11
305.8934820171
 21
47.7856134052
 31
0.0
  0
LINE
  5
F3
330
1F
100
AcDbEntity
  8
0
  6
CONTINUOUS
 62
     7
100
AcDbLine
 10
305.8934820171
 20
47.7856134052
 30
0.0
 11
269.6434867855
 21
47.7856134052
 31
0.0
  0
LINE
  5
F4
330
1F
100
AcDbEntity
  8
0
  6
CONTINUOUS
 62
     7
100
AcDbLine
 10
269.6434867855
 20
47.7856134052
 30
0.0
 11
269.6434867855
 21
47.2856496449
 31
0.0
  0
LINE
  5
F5
330
1F
100
AcDbEntity
  8
0
  6
CONTINUOUS
 62
     7
100
AcDbLine
 10
307.8934860702
 20
47.2856496449
 30
0.0
 11
344.1434813018
 21
47.2856496449
 31
0.0
  0
LINE
  5
F6
330
1F
100
AcDbEntity
  8
0
  6
CONTINUOUS
 62
     7
100
AcDbLine
 10
344.1434813018
 20
47.2856496449
 30
0.0
 11
344.1434813018
 21
47.7856134052
 31
0.0
  0
LINE
  5
F7
330
1F
100
AcDbEntity
  8
0
  6
CONTINUOUS
 62
     7
100
AcDbLine
 10
344.1434813018
 20
47.7856134052
 30
0.0
 11
307.8934860702
 21
47.7856134052
 31
0.0
  0
LINE
  5
F8
330
1F
100
AcDbEntity
  8
0
  6
CONTINUOUS
 62
     7
100
AcDbLine
 10
307.8934860702
 20
47.7856134052
 30
0.0
 11
307.8934860702
 21
47.2856496449
 31
0.0
  0
LINE
  5
F9
330
1F
100
AcDbEntity
  8
0
  6
CONTINUOUS
 62
     7
100
AcDbLine
 10
346.143485355
 20
47.2856496449
 30
0.0
 11
382.3934805866
 21
47.2856496449
 31
0.0
  0
LINE
  5
FA
330
1F
100
AcDbEntity
  8
0
  6
CONTINUOUS
 62
     7
100
AcDbLine
 10
382.3934805866
 20
47.2856496449
 30
0.0
 11
382.3934805866
 21
47.7856134052
 31
0.0
  0
LINE
  5
FB
330
1F
100
AcDbEntity
  8
0
  6
CONTINUOUS
 62
     7
100
AcDbLine
 10
382.3934805866
 20
47.7856134052
 30
0.0
 11
346.143485355
 21
47.7856134052
 31
0.0
  0
LINE
  5
FC
330
1F
100
AcDbEntity
  8
0
  6
CONTINUOUS
 62
     7
100
AcDbLine
 10
346.143485355
 20
47.7856134052
 30
0.0
 11
346.143485355
 21
47.2856496449
 31
0.0
  0
LINE
  5
FD
330
1F
100
AcDbEntity
  8
0
  6
CONTINUOUS
 62
     7
100
AcDbLine
 10
269.6434867855
 20
51.2856577511
 30
0.0
 11
305.8934820171
 21
51.2856577511
 31
0.0
  0
LINE
  5
FE
330
1F
100
AcDbEntity
  8
0
  6
CONTINUOUS
 62
     7
100
AcDbLine
 10
305.8934820171
 20
51.2856577511
 30
0.0
 11
305.8934820171
 21
51.7856215115
 31
0.0
  0
LINE
  5
FF
330
1F
100
AcDbEntity
  8
0
  6
CONTINUOUS
 62
     7
100
AcDbLine
 10
305.8934820171
 20
51.7856215115
 30
0.0
 11
269.6434867855
 21
51.7856215115
 31
0.0
  0
LINE
  5
100
330
1F
100
AcDbEntity
  8
0
  6
CONTINUOUS
 62
     7
100
AcDbLine
 10
269.6434867855
 20
51.7856215115
 30
0.0
 11
269.6434867855
 21
51.2856577511
 31
0.0
  0
LINE
  5
101
330
1F
100
AcDbEntity
  8
0
  6
CONTINUOUS
 62
     7
100
AcDbLine
 10
307.8934860702
 20
51.2856577511
 30
0.0
 11
344.1434813018
 21
51.2856577511
 31
0.0
  0
LINE
  5
102
330
1F
100
AcDbEntity
  8
0
  6
CONTINUOUS
 62
     7
100
AcDbLine
 10
344.1434813018
 20
51.2856577511
 30
0.0
 11
344.1434813018
 21
51.7856215115
 31
0.0
  0
LINE
  5
103
330
1F
100
AcDbEntity
  8
0
  6
CONTINUOUS
 62
     7
100
AcDbLine
 10
344.1434813018
 20
51.7856215115
 30
0.0
 11
307.8934860702
 21
51.7856215115
 31
0.0
  0
LINE
  5
104
330
1F
100
AcDbEntity
  8
0
  6
CONTINUOUS
 62
     7
100
AcDbLine
 10
307.8934860702
 20
51.7856215115
 30
0.0
 11
307.8934860702
 21
51.2856577511
 31
0.0
  0
LINE
  5
105
330
1F
100
AcDbEntity
  8
0
  6
CONTINUOUS
 62
     7
100
AcDbLine
 10
346.143485355
 20
51.2856577511
 30
0.0
 11
382.3934805866
 21
51.2856577511
 31
0.0
  0
LINE
  5
106
330
1F
100
AcDbEntity
  8
0
  6
CONTINUOUS
 62
     7
100
AcDbLine
 10
382.3934805866
 20
51.2856577511
 30
0.0
 11
382.3934805866
 21
51.7856215115
 31
0.0
  0
LINE
  5
107
330
1F
100
AcDbEntity
  8
0
  6
CONTINUOUS
 62
     7
100
AcDbLine
 10
382.3934805866
 20
51.7856215115
 30
0.0
 11
346.143485355
 21
51.7856215115
 31
0.0
  0
LINE
  5
108
330
1F
100
AcDbEntity
  8
0
  6
CONTINUOUS
 62
     7
100
AcDbLine
 10
346.143485355
 20
51.7856215115
 30
0.0
 11
346.143485355
 21
51.2856577511
 31
0.0
  0
LINE
  5
109
330
1F
100
AcDbEntity
  8
0
  6
CONTINUOUS
 62
     7
100
AcDbLine
 10
269.6434867855
 20
55.2856062527
 30
0.0
 11
305.8934820171
 21
55.2856062527
 31
0.0
  0
LINE
  5
10A
330
1F
100
AcDbEntity
  8
0
  6
CONTINUOUS
 62
     7
100
AcDbLine
 10
305.8934820171
 20
55.2856062527
 30
0.0
 11
305.8934820171
 21
55.7856296177
 31
0.0
  0
LINE
  5
10B
330
1F
100
AcDbEntity
  8
0
  6
CONTINUOUS
 62
     7
100
AcDbLine
 10
305.8934820171
 20
55.7856296177
 30
0.0
 11
269.6434867855
 21
55.7856296177
 31
0.0
  0
LINE
  5
10C
330
1F
100
AcDbEntity
  8
0
  6
CONTINUOUS
 62
     7
100
AcDbLine
 10
269.6434867855
 20
55.7856296177
 30
0.0
 11
269.6434867855
 21
55.2856062527
 31
0.0
  0
LINE
  5
10D
330
1F
100
AcDbEntity
  8
0
  6
CONTINUOUS
 62
     7
100
AcDbLine
 10
307.8934860702
 20
55.2856062527
 30
0.0
 11
344.1434813018
 21
55.2856062527
 31
0.0
  0
LINE
  5
10E
330
1F
100
AcDbEntity
  8
0
  6
CONTINUOUS
 62
     7
100
AcDbLine
 10
344.1434813018
 20
55.2856062527
 30
0.0
 11
344.1434813018
 21
55.7856296177
 31
0.0
  0
LINE
  5
10F
330
1F
100
AcDbEntity
  8
0
  6
CONTINUOUS
 62
     7
100
AcDbLine
 10
344.1434813018
 20
55.7856296177
 30
0.0
 11
307.8934860702
 21
55.7856296177
 31
0.0
  0
LINE
  5
110
330
1F
100
AcDbEntity
  8
0
  6
CONTINUOUS
 62
     7
100
AcDbLine
 10
307.8934860702
 20
55.7856296177
 30
0.0
 11
307.8934860702
 21
55.2856062527
 31
0.0
  0
LINE
  5
111
330
1F
100
AcDbEntity
  8
0
  6
CONTINUOUS
 62
     7
100
AcDbLine
 10
346.143485355
 20
55.2856062527
 30
0.0
 11
382.3934805866
 21
55.2856062527
 31
0.0
  0
LINE
  5
112
330
1F
100
AcDbEntity
  8
0
  6
CONTINUOUS
 62
     7
100
AcDbLine
 10
382.3934805866
 20
55.2856062527
 30
0.0
 11
382.3934805866
 21
55.7856296177
 31
0.0
  0
LINE
  5
113
330
1F
100
AcDbEntity
  8
0
  6
CONTINUOUS
 62
     7
100
AcDbLine
 10
382.3934805866
 20
55.7856296177
 30
0.0
 11
346.143485355
 21
55.7856296177
 31
0.0
  0
LINE
  5
114
330
1F
100
AcDbEntity
  8
0
  6
CONTINUOUS
 62
     7
100
AcDbLine
 10
346.143485355
 20
55.7856296177
 30
0.0
 11
346.143485355
 21
55.2856062527
 31
0.0
  0
LINE
  5
115
330
1F
100
AcDbEntity
  8
0
  6
CONTINUOUS
 62
     7
100
AcDbLine
 10
269.6434867855
 20
59.2856143589
 30
0.0
 11
305.8934820171
 21
59.2856143589
 31
0.0
  0
LINE
  5
116
330
1F
100
AcDbEntity
  8
0
  6
CONTINUOUS
 62
     7
100
AcDbLine
 10
305.8934820171
 20
59.2856143589
 30
0.0
 11
305.8934820171
 21
59.7856377239
 31
0.0
  0
LINE
  5
117
330
1F
100
AcDbEntity
  8
0
  6
CONTINUOUS
 62
     7
100
AcDbLine
 10
305.8934820171
 20
59.7856377239
 30
0.0
 11
269.6434867855
 21
59.7856377239
 31
0.0
  0
LINE
  5
118
330
1F
100
AcDbEntity
  8
0
  6
CONTINUOUS
 62
     7
100
AcDbLine
 10
269.6434867855
 20
59.7856377239
 30
0.0
 11
269.6434867855
 21
59.2856143589
 31
0.0
  0
LINE
  5
119
330
1F
100
AcDbEntity
  8
0
  6
CONTINUOUS
 62
     7
100
AcDbLine
 10
307.8934860702
 20
59.2856143589
 30
0.0
 11
344.1434813018
 21
59.2856143589
 31
0.0
  0
LINE
  5
11A
330
1F
100
AcDbEntity
  8
0
  6
CONTINUOUS
 62
     7
100
AcDbLine
 10
344.1434813018
 20
59.2856143589
 30
0.0
 11
344.1434813018
 21
59.7856377239
 31
0.0
  0
LINE
  5
11B
330
1F
100
AcDbEntity
  8
0
  6
CONTINUOUS
 62
     7
100
AcDbLine
 10
344.1434813018
 20
59.7856377239
 30
0.0
 11
307.8934860702
 21
59.7856377239
 31
0.0
  0
LINE
  5
11C
330
1F
100
AcDbEntity
  8
0
  6
CONTINUOUS
 62
     7
100
AcDbLine
 10
307.8934860702
 20
59.7856377239
 30
0.0
 11
307.8934860702
 21
59.2856143589
 31
0.0
  0
LINE
  5
11D
330
1F
100
AcDbEntity
  8
0
  6
CONTINUOUS
 62
     7
100
AcDbLine
 10
346.143485355
 20
59.2856143589
 30
0.0
 11
382.3934805866
 21
59.2856143589
 31
0.0
  0
LINE
  5
11E
330
1F
100
AcDbEntity
  8
0
  6
CONTINUOUS
 62
     7
100
AcDbLine
 10
382.3934805866
 20
59.2856143589
 30
0.0
 11
382.3934805866
 21
59.7856377239
 31
0.0
  0
LINE
  5
11F
330
1F
100
AcDbEntity
  8
0
  6
CONTINUOUS
 62
     7
100
AcDbLine
 10
382.3934805866
 20
59.7856377239
 30
0.0
 11
346.143485355
 21
59.7856377239
 31
0.0
  0
LINE
  5
120
330
1F
100
AcDbEntity
  8
0
  6
CONTINUOUS
 62
     7
100
AcDbLine
 10
346.143485355
 20
59.7856377239
 30
0.0
 11
346.143485355
 21
59.2856143589
 31
0.0
  0
LINE
  5
121
330
1F
100
AcDbEntity
  8
0
  6
CONTINUOUS
 62
     7
100
AcDbLine
 10
269.6434867855
 20
63.2856224651
 30
0.0
 11
305.8934820171
 21
63.2856224651
 31
0.0
  0
LINE
  5
122
330
1F
100
AcDbEntity
  8
0
  6
CONTINUOUS
 62
     7
100
AcDbLine
 10
305.8934820171
 20
63.2856224651
 30
0.0
 11
305.8934820171
 21
63.7856458302
 31
0.0
  0
LINE
  5
123
330
1F
100
AcDbEntity
  8
0
  6
CONTINUOUS
 62
     7
100
AcDbLine
 10
305.8934820171
 20
63.7856458302
 30
0.0
 11
269.6434867855
 21
63.7856458302
 31
0.0
  0
LINE
  5
124
330
1F
100
AcDbEntity
  8
0
  6
CONTINUOUS
 62
     7
100
AcDbLine
 10
269.6434867855
 20
63.7856458302
 30
0.0
 11
269.6434867855
 21
63.2856224651
 31
0.0
  0
LINE
  5
125
330
1F
100
AcDbEntity
  8
0
  6
CONTINUOUS
 62
     7
100
AcDbLine
 10
307.8934860702
 20
63.2856224651
 30
0.0
 11
344.1434813018
 21
63.2856224651
 31
0.0
  0
LINE
  5
126
330
1F
100
AcDbEntity
  8
0
  6
CONTINUOUS
 62
     7
100
AcDbLine
 10
344.1434813018
 20
63.2856224651
 30
0.0
 11
344.1434813018
 21
63.7856458302
 31
0.0
  0
LINE
  5
127
330
1F
100
AcDbEntity
  8
0
  6
CONTINUOUS
 62
     7
100
AcDbLine
 10
344.1434813018
 20
63.7856458302
 30
0.0
 11
307.8934860702
 21
63.7856458302
 31
0.0
  0
LINE
  5
128
330
1F
100
AcDbEntity
  8
0
  6
CONTINUOUS
 62
     7
100
AcDbLine
 10
307.8934860702
 20
63.7856458302
 30
0.0
 11
307.8934860702
 21
63.2856224651
 31
0.0
  0
LINE
  5
129
330
1F
100
AcDbEntity
  8
0
  6
CONTINUOUS
 62
     7
100
AcDbLine
 10
346.143485355
 20
63.2856224651
 30
0.0
 11
382.3934805866
 21
63.2856224651
 31
0.0
  0
LINE
  5
12A
330
1F
100
AcDbEntity
  8
0
  6
CONTINUOUS
 62
     7
100
AcDbLine
 10
382.3934805866
 20
63.2856224651
 30
0.0
 11
382.3934805866
 21
63.7856458302
 31
0.0
  0
LINE
  5
12B
330
1F
100
AcDbEntity
  8
0
  6
CONTINUOUS
 62
     7
100
AcDbLine
 10
382.3934805866
 20
63.7856458302
 30
0.0
 11
346.143485355
 21
63.7856458302
 31
0.0
  0
LINE
  5
12C
330
1F
100
AcDbEntity
  8
0
  6
CONTINUOUS
 62
     7
100
AcDbLine
 10
346.143485355
 20
63.7856458302
 30
0.0
 11
346.143485355
 21
63.2856224651
 31
0.0
  0
LINE
  5
12D
330
1F
100
AcDbEntity
  8
0
  6
CONTINUOUS
 62
     7
100
AcDbLine
 10
250.5185020443
 20
41.2856076832
 30
0.0
 11
286.7684972759
 21
41.2856076832
 31
0.0
  0
LINE
  5
12E
330
1F
100
AcDbEntity
  8
0
  6
CONTINUOUS
 62
     7
100
AcDbLine
 10
286.7684972759
 20
41.2856076832
 30
0.0
 11
286.7684972759
 21
41.7856310482
 31
0.0
  0
LINE
  5
12F
330
1F
100
AcDbEntity
  8
0
  6
CONTINUOUS
 62
     7
100
AcDbLine
 10
286.7684972759
 20
41.7856310482
 30
0.0
 11
250.5185020443
 21
41.7856310482
 31
0.0
  0
LINE
  5
130
330
1F
100
AcDbEntity
  8
0
  6
CONTINUOUS
 62
     7
100
AcDbLine
 10
250.5185020443
 20
41.7856310482
 30
0.0
 11
250.5185020443
 21
41.2856076832
 31
0.0
  0
LINE
  5
131
330
1F
100
AcDbEntity
  8
0
  6
CONTINUOUS
 62
     7
100
AcDbLine
 10
288.768501329
 20
41.2856076832
 30
0.0
 11
325.0184965606
 21
41.2856076832
 31
0.0
  0
LINE
  5
132
330
1F
100
AcDbEntity
  8
0
  6
CONTINUOUS
 62
     7
100
AcDbLine
 10
325.0184965606
 20
41.2856076832
 30
0.0
 11
325.0184965606
 21
41.7856310482
 31
0.0
  0
LINE
  5
133
330
1F
100
AcDbEntity
  8
0
  6
CONTINUOUS
 62
     7
100
AcDbLine
 10
325.0184965606
 20
41.7856310482
 30
0.0
 11
288.768501329
 21
41.7856310482
 31
0.0
  0
LINE
  5
134
330
1F
100
AcDbEntity
  8
0
  6
CONTINUOUS
 62
     7
100
AcDbLine
 10
288.768501329
 20
41.7856310482
 30
0.0
 11
288.768501329
 21
41.2856076832
 31
0.0
  0
LINE
  5
135
330
1F
100
AcDbEntity
  8
0
  6
CONTINUOUS
 62
     7
100
AcDbLine
 10
327.0185006137
 20
41.2856076832
 30
0.0
 11
363.2684958454
 21
41.2856076832
 31
0.0
  0
LINE
  5
136
330
1F
100
AcDbEntity
  8
0
  6
CONTINUOUS
 62
     7
100
AcDbLine
 10
363.2684958454
 20
41.2856076832
 30
0.0
 11
363.2684958454
 21
41.7856310482
 31
0.0
  0
LINE
  5
137
330
1F
100
AcDbEntity
  8
0
  6
CONTINUOUS
 62
     7
100
AcDbLine
 10
363.2684958454
 20
41.7856310482
 30
0.0
 11
327.0185006137
 21
41.7856310482
 31
0.0
  0
LINE
  5
138
330
1F
100
AcDbEntity
  8
0
  6
CONTINUOUS
 62
     7
100
AcDbLine
 10
327.0185006137
 20
41.7856310482
 30
0.0
 11
327.0185006137
 21
41.2856076832
 31
0.0
  0
LINE
  5
139
330
1F
100
AcDbEntity
  8
0
  6
CONTINUOUS
 62
     7
100
AcDbLine
 10
250.5185020443
 20
45.2856157894
 30
0.0
 11
286.7684972759
 21
45.2856157894
 31
0.0
  0
LINE
  5
13A
330
1F
100
AcDbEntity
  8
0
  6
CONTINUOUS
 62
     7
100
AcDbLine
 10
286.7684972759
 20
45.2856157894
 30
0.0
 11
286.7684972759
 21
45.7856391544
 31
0.0
  0
LINE
  5
13B
330
1F
100
AcDbEntity
  8
0
  6
CONTINUOUS
 62
     7
100
AcDbLine
 10
286.7684972759
 20
45.7856391544
 30
0.0
 11
250.5185020443
 21
45.7856391544
 31
0.0
  0
LINE
  5
13C
330
1F
100
AcDbEntity
  8
0
  6
CONTINUOUS
 62
     7
100
AcDbLine
 10
250.5185020443
 20
45.7856391544
 30
0.0
 11
250.5185020443
 21
45.2856157894
 31
0.0
  0
LINE
  5
13D
330
1F
100
AcDbEntity
  8
0
  6
CONTINUOUS
 62
     7
100
AcDbLine
 10
288.768501329
 20
45.2856157894
 30
0.0
 11
325.0184965606
 21
45.2856157894
 31
0.0
  0
LINE
  5
13E
330
1F
100
AcDbEntity
  8
0
  6
CONTINUOUS
 62
     7
100
AcDbLine
 10
325.0184965606
 20
45.2856157894
 30
0.0
 11
325.0184965606
 21
45.7856391544
 31
0.0
  0
LINE
  5
13F
330
1F
100
AcDbEntity
  8
0
  6
CONTINUOUS
 62
     7
100
AcDbLine
 10
325.0184965606
 20
45.7856391544
 30
0.0
 11
288.768501329
 21
45.7856391544
 31
0.0
  0
LINE
  5
140
330
1F
100
AcDbEntity
  8
0
  6
CONTINUOUS
 62
     7
100
AcDbLine
 10
288.768501329
 20
45.7856391544
 30
0.0
 11
288.768501329
 21
45.2856157894
 31
0.0
  0
LINE
  5
141
330
1F
100
AcDbEntity
  8
0
  6
CONTINUOUS
 62
     7
100
AcDbLine
 10
327.0185006137
 20
45.2856157894
 30
0.0
 11
363.2684958454
 21
45.2856157894
 31
0.0
  0
LINE
  5
142
330
1F
100
AcDbEntity
  8
0
  6
CONTINUOUS
 62
     7
100
AcDbLine
 10
363.2684958454
 20
45.2856157894
 30
0.0
 11
363.2684958454
 21
45.7856391544
 31
0.0
  0
LINE
  5
143
330
1F
100
AcDbEntity
  8
0
  6
CONTINUOUS
 62
     7
100
AcDbLine
 10
363.2684958454
 20
45.7856391544
 30
0.0
 11
327.0185006137
 21
45.7856391544
 31
0.0
  0
LINE
  5
144
330
1F
100
AcDbEntity
  8
0
  6
CONTINUOUS
 62
     7
100
AcDbLine
 10
327.0185006137
 20
45.7856391544
 30
0.0
 11
327.0185006137
 21
45.2856157894
 31
0.0
  0
LINE
  5
145
330
1F
100
AcDbEntity
  8
0
  6
CONTINUOUS
 62
     7
100
AcDbLine
 10
250.5185020443
 20
49.2856238957
 30
0.0
 11
286.7684972759
 21
49.2856238957
 31
0.0
  0
LINE
  5
146
330
1F
100
AcDbEntity
  8
0
  6
CONTINUOUS
 62
     7
100
AcDbLine
 10
286.7684972759
 20
49.2856238957
 30
0.0
 11
286.7684972759
 21
49.7856472607
 31
0.0
  0
LINE
  5
147
330
1F
100
AcDbEntity
  8
0
  6
CONTINUOUS
 62
     7
100
AcDbLine
 10
286.7684972759
 20
49.7856472607
 30
0.0
 11
250.5185020443
 21
49.7856472607
 31
0.0
  0
LINE
  5
148
330
1F
100
AcDbEntity
  8
0
  6
CONTINUOUS
 62
     7
100
AcDbLine
 10
250.5185020443
 20
49.7856472607
 30
0.0
 11
250.5185020443
 21
49.2856238957
 31
0.0
  0
LINE
  5
149
330
1F
100
AcDbEntity
  8
0
  6
CONTINUOUS
 62
     7
100
AcDbLine
 10
288.768501329
 20
49.2856238957
 30
0.0
 11
325.0184965606
 21
49.2856238957
 31
0.0
  0
LINE
  5
14A
330
1F
100
AcDbEntity
  8
0
  6
CONTINUOUS
 62
     7
100
AcDbLine
 10
325.0184965606
 20
49.2856238957
 30
0.0
 11
325.0184965606
 21
49.7856472607
 31
0.0
  0
LINE
  5
14B
330
1F
100
AcDbEntity
  8
0
  6
CONTINUOUS
 62
     7
100
AcDbLine
 10
325.0184965606
 20
49.7856472607
 30
0.0
 11
288.768501329
 21
49.7856472607
 31
0.0
  0
LINE
  5
14C
330
1F
100
AcDbEntity
  8
0
  6
CONTINUOUS
 62
     7
100
AcDbLine
 10
288.768501329
 20
49.7856472607
 30
0.0
 11
288.768501329
 21
49.2856238957
 31
0.0
  0
LINE
  5
14D
330
1F
100
AcDbEntity
  8
0
  6
CONTINUOUS
 62
     7
100
AcDbLine
 10
327.0185006137
 20
49.2856238957
 30
0.0
 11
363.2684958454
 21
49.2856238957
 31
0.0
  0
LINE
  5
14E
330
1F
100
AcDbEntity
  8
0
  6
CONTINUOUS
 62
     7
100
AcDbLine
 10
363.2684958454
 20
49.2856238957
 30
0.0
 11
363.2684958454
 21
49.7856472607
 31
0.0
  0
LINE
  5
14F
330
1F
100
AcDbEntity
  8
0
  6
CONTINUOUS
 62
     7
100
AcDbLine
 10
363.2684958454
 20
49.7856472607
 30
0.0
 11
327.0185006137
 21
49.7856472607
 31
0.0
  0
LINE
  5
150
330
1F
100
AcDbEntity
  8
0
  6
CONTINUOUS
 62
     7
100
AcDbLine
 10
327.0185006137
 20
49.7856472607
 30
0.0
 11
327.0185006137
 21
49.2856238957
 31
0.0
  0
LINE
  5
151
330
1F
100
AcDbEntity
  8
0
  6
CONTINUOUS
 62
     7
100
AcDbLine
 10
250.5185020443
 20
53.2856320019
 30
0.0
 11
286.7684972759
 21
53.2856320019
 31
0.0
  0
LINE
  5
152
330
1F
100
AcDbEntity
  8
0
  6
CONTINUOUS
 62
     7
100
AcDbLine
 10
286.7684972759
 20
53.2856320019
 30
0.0
 11
286.7684972759
 21
53.7856553669
 31
0.0
  0
LINE
  5
153
330
1F
100
AcDbEntity
  8
0
  6
CONTINUOUS
 62
     7
100
AcDbLine
 10
286.7684972759
 20
53.7856553669
 30
0.0
 11
250.5185020443
 21
53.7856553669
 31
0.0
  0
LINE
  5
154
330
1F
100
AcDbEntity
  8
0
  6
CONTINUOUS
 62
     7
100
AcDbLine
 10
250.5185020443
 20
53.7856553669
 30
0.0
 11
250.5185020443
 21
53.2856320019
 31
0.0
  0
LINE
  5
155
330
1F
100
AcDbEntity
  8
0
  6
CONTINUOUS
 62
     7
100
AcDbLine
 10
288.768501329
 20
53.2856320019
 30
0.0
 11
325.0184965606
 21
53.2856320019
 31
0.0
  0
LINE
  5
156
330
1F
100
AcDbEntity
  8
0
  6
CONTINUOUS
 62
     7
100
AcDbLine
 10
325.0184965606
 20
53.2856320019
 30
0.0
 11
325.0184965606
 21
53.7856553669
 31
0.0
  0
LINE
  5
157
330
1F
100
AcDbEntity
  8
0
  6
CONTINUOUS
 62
     7
100
AcDbLine
 10
325.0184965606
 20
53.7856553669
 30
0.0
 11
288.768501329
 21
53.7856553669
 31
0.0
  0
LINE
  5
158
330
1F
100
AcDbEntity
  8
0
  6
CONTINUOUS
 62
     7
100
AcDbLine
 10
288.768501329
 20
53.7856553669
 30
0.0
 11
288.768501329
 21
53.2856320019
 31
0.0
  0
LINE
  5
159
330
1F
100
AcDbEntity
  8
0
  6
CONTINUOUS
 62
     7
100
AcDbLine
 10
327.0185006137
 20
53.2856320019
 30
0.0
 11
363.2684958454
 21
53.2856320019
 31
0.0
  0
LINE
  5
15A
330
1F
100
AcDbEntity
  8
0
  6
CONTINUOUS
 62
     7
100
AcDbLine
 10
363.2684958454
 20
53.2856320019
 30
0.0
 11
363.2684958454
 21
53.7856553669
 31
0.0
  0
LINE
  5
15B
330
1F
100
AcDbEntity
  8
0
  6
CONTINUOUS
 62
     7
100
AcDbLine
 10
363.2684958454
 20
53.7856553669
 30
0.0
 11
327.0185006137
 21
53.7856553669
 31
0.0
  0
LINE
  5
15C
330
1F
100
AcDbEntity
  8
0
  6
CONTINUOUS
 62
     7
100
AcDbLine
 10
327.0185006137
 20
53.7856553669
 30
0.0
 11
327.0185006137
 21
53.2856320019
 31
0.0
  0
LINE
  5
15D
330
1F
100
AcDbEntity
  8
0
  6
CONTINUOUS
 62
     7
100
AcDbLine
 10
250.5185020443
 20
57.2856401081
 30
0.0
 11
286.7684972759
 21
57.2856401081
 31
0.0
  0
LINE
  5
15E
330
1F
100
AcDbEntity
  8
0
  6
CONTINUOUS
 62
     7
100
AcDbLine
 10
286.7684972759
 20
57.2856401081
 30
0.0
 11
286.7684972759
 21
57.7856038685
 31
0.0
  0
LINE
  5
15F
330
1F
100
AcDbEntity
  8
0
  6
CONTINUOUS
 62
     7
100
AcDbLine
 10
286.7684972759
 20
57.7856038685
 30
0.0
 11
250.5185020443
 21
57.7856038685
 31
0.0
  0
LINE
  5
160
330
1F
100
AcDbEntity
  8
0
  6
CONTINUOUS
 62
     7
100
AcDbLine
 10
250.5185020443
 20
57.7856038685
 30
0.0
 11
250.5185020443
 21
57.2856401081
 31
0.0
  0
LINE
  5
161
330
1F
100
AcDbEntity
  8
0
  6
CONTINUOUS
 62
     7
100
AcDbLine
 10
288.768501329
 20
57.2856401081
 30
0.0
 11
325.0184965606
 21
57.2856401081
 31
0.0
  0
LINE
  5
162
330
1F
100
AcDbEntity
  8
0
  6
CONTINUOUS
 62
     7
100
AcDbLine
 10
325.0184965606
 20
57.2856401081
 30
0.0
 11
325.0184965606
 21
57.7856038685
 31
0.0
  0
LINE
  5
163
330
1F
100
AcDbEntity
  8
0
  6
CONTINUOUS
 62
     7
100
AcDbLine
 10
325.0184965606
 20
57.7856038685
 30
0.0
 11
288.768501329
 21
57.7856038685
 31
0.0
  0
LINE
  5
164
330
1F
100
AcDbEntity
  8
0
  6
CONTINUOUS
 62
     7
100
AcDbLine
 10
288.768501329
 20
57.7856038685
 30
0.0
 11
288.768501329
 21
57.2856401081
 31
0.0
  0
LINE
  5
165
330
1F
100
AcDbEntity
  8
0
  6
CONTINUOUS
 62
     7
100
AcDbLine
 10
327.0185006137
 20
57.2856401081
 30
0.0
 11
363.2684958454
 21
57.2856401081
 31
0.0
  0
LINE
  5
166
330
1F
100
AcDbEntity
  8
0
  6
CONTINUOUS
 62
     7
100
AcDbLine
 10
363.2684958454
 20
57.2856401081
 30
0.0
 11
363.2684958454
 21
57.7856038685
 31
0.0
  0
LINE
  5
167
330
1F
100
AcDbEntity
  8
0
  6
CONTINUOUS
 62
     7
100
AcDbLine
 10
363.2684958454
 20
57.7856038685
 30
0.0
 11
327.0185006137
 21
57.7856038685
 31
0.0
  0
LINE
  5
168
330
1F
100
AcDbEntity
  8
0
  6
CONTINUOUS
 62
     7
100
AcDbLine
 10
327.0185006137
 20
57.7856038685
 30
0.0
 11
327.0185006137
 21
57.2856401081
 31
0.0
  0
LINE
  5
169
330
1F
100
AcDbEntity
  8
0
  6
CONTINUOUS
 62
     7
100
AcDbLine
 10
250.5185020443
 20
61.2856482144
 30
0.0
 11
286.7684972759
 21
61.2856482144
 31
0.0
  0
LINE
  5
16A
330
1F
100
AcDbEntity
  8
0
  6
CONTINUOUS
 62
     7
100
AcDbLine
 10
286.7684972759
 20
61.2856482144
 30
0.0
 11
286.7684972759
 21
61.7856119747
 31
0.0
  0
LINE
  5
16B
330
1F
100
AcDbEntity
  8
0
  6
CONTINUOUS
 62
     7
100
AcDbLine
 10
286.7684972759
 20
61.7856119747
 30
0.0
 11
250.5185020443
 21
61.7856119747
 31
0.0
  0
LINE
  5
16C
330
1F
100
AcDbEntity
  8
0
  6
CONTINUOUS
 62
     7
100
AcDbLine
 10
250.5185020443
 20
61.7856119747
 30
0.0
 11
250.5185020443
 21
61.2856482144
 31
0.0
  0
LINE
  5
16D
330
1F
100
AcDbEntity
  8
0
  6
CONTINUOUS
 62
     7
100
AcDbLine
 10
288.768501329
 20
61.2856482144
 30
0.0
 11
325.0184965606
 21
61.2856482144
 31
0.0
  0
LINE
  5
16E
330
1F
100
AcDbEntity
  8
0
  6
CONTINUOUS
 62
     7
100
AcDbLine
 10
325.0184965606
 20
61.2856482144
 30
0.0
 11
325.0184965606
 21
61.7856119747
 31
0.0
  0
LINE
  5
16F
330
1F
100
AcDbEntity
  8
0
  6
CONTINUOUS
 62
     7
100
AcDbLine
 10
325.0184965606
 20
61.7856119747
 30
0.0
 11
288.768501329
 21
61.7856119747
 31
0.0
  0
LINE
  5
170
330
1F
100
AcDbEntity
  8
0
  6
CONTINUOUS
 62
     7
100
AcDbLine
 10
288.768501329
 20
61.7856119747
 30
0.0
 11
288.768501329
 21
61.2856482144
 31
0.0
  0
LINE
  5
171
330
1F
100
AcDbEntity
  8
0
  6
CONTINUOUS
 62
     7
100
AcDbLine
 10
327.0185006137
 20
61.2856482144
 30
0.0
 11
363.2684958454
 21
61.2856482144
 31
0.0
  0
LINE
  5
172
330
1F
100
AcDbEntity
  8
0
  6
CONTINUOUS
 62
     7
100
AcDbLine
 10
363.2684958454
 20
61.2856482144
 30
0.0
 11
363.2684958454
 21
61.7856119747
 31
0.0
  0
LINE
  5
173
330
1F
100
AcDbEntity
  8
0
  6
CONTINUOUS
 62
     7
100
AcDbLine
 10
363.2684958454
 20
61.7856119747
 30
0.0
 11
327.0185006137
 21
61.7856119747
 31
0.0
  0
LINE
  5
174
330
1F
100
AcDbEntity
  8
0
  6
CONTINUOUS
 62
     7
100
AcDbLine
 10
327.0185006137
 20
61.7856119747
 30
0.0
 11
327.0185006137
 21
61.2856482144
 31
0.0
  0
LINE
  5
175
330
1F
100
AcDbEntity
  8
0
  6
CONTINUOUS
 62
     7
100
AcDbLine
 10
250.5185020443
 20
65.2856563206
 30
0.0
 11
286.7684972759
 21
65.2856563206
 31
0.0
  0
LINE
  5
176
330
1F
100
AcDbEntity
  8
0
  6
CONTINUOUS
 62
     7
100
AcDbLine
 10
286.7684972759
 20
65.2856563206
 30
0.0
 11
286.7684972759
 21
65.785620081
 31
0.0
  0
LINE
  5
177
330
1F
100
AcDbEntity
  8
0
  6
CONTINUOUS
 62
     7
100
AcDbLine
 10
286.7684972759
 20
65.785620081
 30
0.0
 11
250.5185020443
 21
65.785620081
 31
0.0
  0
LINE
  5
178
330
1F
100
AcDbEntity
  8
0
  6
CONTINUOUS
 62
     7
100
AcDbLine
 10
250.5185020443
 20
65.785620081
 30
0.0
 11
250.5185020443
 21
65.2856563206
 31
0.0
  0
LINE
  5
179
330
1F
100
AcDbEntity
  8
0
  6
CONTINUOUS
 62
     7
100
AcDbLine
 10
288.768501329
 20
65.2856563206
 30
0.0
 11
325.0184965606
 21
65.2856563206
 31
0.0
  0
LINE
  5
17A
330
1F
100
AcDbEntity
  8
0
  6
CONTINUOUS
 62
     7
100
AcDbLine
 10
325.0184965606
 20
65.2856563206
 30
0.0
 11
325.0184965606
 21
65.785620081
 31
0.0
  0
LINE
  5
17B
330
1F
100
AcDbEntity
  8
0
  6
CONTINUOUS
 62
     7
100
AcDbLine
 10
325.0184965606
 20
65.785620081
 30
0.0
 11
288.768501329
 21
65.785620081
 31
0.0
  0
LINE
  5
17C
330
1F
100
AcDbEntity
  8
0
  6
CONTINUOUS
 62
     7
100
AcDbLine
 10
288.768501329
 20
65.785620081
 30
0.0
 11
288.768501329
 21
65.2856563206
 31
0.0
  0
LINE
  5
17D
330
1F
100
AcDbEntity
  8
0
  6
CONTINUOUS
 62
     7
100
AcDbLine
 10
327.0185006137
 20
65.2856563206
 30
0.0
 11
363.2684958454
 21
65.2856563206
 31
0.0
  0
LINE
  5
17E
330
1F
100
AcDbEntity
  8
0
  6
CONTINUOUS
 62
     7
100
AcDbLine
 10
363.2684958454
 20
65.2856563206
 30
0.0
 11
363.2684958454
 21
65.785620081
 31
0.0
  0
LINE
  5
17F
330
1F
100
AcDbEntity
  8
0
  6
CONTINUOUS
 62
     7
100
AcDbLine
 10
363.2684958454
 20
65.785620081
 30
0.0
 11
327.0185006137
 21
65.785620081
 31
0.0
  0
LINE
  5
180
330
1F
100
AcDbEntity
  8
0
  6
CONTINUOUS
 62
     7
100
AcDbLine
 10
327.0185006137
 20
65.785620081
 30
0.0
 11
327.0185006137
 21
65.2856563206
 31
0.0
  0
LINE
  5
181
330
1F
100
AcDbEntity
  8
0
  6
CONTINUOUS
 62
     7
100
AcDbLine
 10
230.893493938
 20
176.641557085
 30
0.0
 11
267.1434891696
 21
176.641557085
 31
0.0
  0
LINE
  5
182
330
1F
100
AcDbEntity
  8
0
  6
CONTINUOUS
 62
     7
100
AcDbLine
 10
267.1434891696
 20
176.641557085
 30
0.0
 11
267.1434891696
 21
177.1415804501
 31
0.0
  0
LINE
  5
183
330
1F
100
AcDbEntity
  8
0
  6
CONTINUOUS
 62
     7
100
AcDbLine
 10
267.1434891696
 20
177.1415804501
 30
0.0
 11
230.893493938
 21
177.1415804501
 31
0.0
  0
LINE
  5
184
330
1F
100
AcDbEntity
  8
0
  6
CONTINUOUS
 62
     7
100
AcDbLine
 10
230.893493938
 20
177.1415804501
 30
0.0
 11
230.893493938
 21
176.641557085
 31
0.0
  0
LINE
  5
185
330
1F
100
AcDbEntity
  8
0
  6
CONTINUOUS
 62
     7
100
AcDbLine
 10
250.0185084816
 20
178.6415313358
 30
0.0
 11
286.2685037132
 21
178.6415313358
 31
0.0
  0
LINE
  5
186
330
1F
100
AcDbEntity
  8
0
  6
CONTINUOUS
 62
     7
100
AcDbLine
 10
286.2685037132
 20
178.6415313358
 30
0.0
 11
286.2685037132
 21
179.1415547009
 31
0.0
  0
LINE
  5
187
330
1F
100
AcDbEntity
  8
0
  6
CONTINUOUS
 62
     7
100
AcDbLine
 10
286.2685037132
 20
179.1415547009
 30
0.0
 11
250.0185084816
 21
179.1415547009
 31
0.0
  0
LINE
  5
188
330
1F
100
AcDbEntity
  8
0
  6
CONTINUOUS
 62
     7
100
AcDbLine
 10
250.0185084816
 20
179.1415547009
 30
0.0
 11
250.0185084816
 21
178.6415313358
 31
0.0
  0
LINE
  5
189
330
1F
100
AcDbEntity
  8
0
  6
CONTINUOUS
 62
     7
100
AcDbLine
 10
269.3935049053
 20
176.641557085
 30
0.0
 11
305.6435001369
 21
176.641557085
 31
0.0
  0
LINE
  5
18A
330
1F
100
AcDbEntity
  8
0
  6
CONTINUOUS
 62
     7
100
AcDbLine
 10
305.6435001369
 20
176.641557085
 30
0.0
 11
305.6435001369
 21
177.1415804501
 31
0.0
  0
LINE
  5
18B
330
1F
100
AcDbEntity
  8
0
  6
CONTINUOUS
 62
     7
100
AcDbLine
 10
305.6435001369
 20
177.1415804501
 30
0.0
 11
269.3935049053
 21
177.1415804501
 31
0.0
  0
LINE
  5
18C
330
1F
100
AcDbEntity
  8
0
  6
CONTINUOUS
 62
     7
100
AcDbLine
 10
269.3935049053
 20
177.1415804501
 30
0.0
 11
269.3935049053
 21
176.641557085
 31
0.0
  0
LINE
  5
18D
330
1F
100
AcDbEntity
  8
0
  6
CONTINUOUS
 62
     7
100
AcDbLine
 10
288.5184896465
 20
178.6415313358
 30
0.0
 11
324.7684848781
 21
178.6415313358
 31
0.0
  0
LINE
  5
18E
330
1F
100
AcDbEntity
  8
0
  6
CONTINUOUS
 62
     7
100
AcDbLine
 10
324.7684848781
 20
178.6415313358
 30
0.0
 11
324.7684848781
 21
179.1415547009
 31
0.0
  0
LINE
  5
18F
330
1F
100
AcDbEntity
  8
0
  6
CONTINUOUS
 62
     7
100
AcDbLine
 10
324.7684848781
 20
179.1415547009
 30
0.0
 11
288.5184896465
 21
179.1415547009
 31
0.0
  0
LINE
  5
190
330
1F
100
AcDbEntity
  8
0
  6
CONTINUOUS
 62
     7
100
AcDbLine
 10
288.5184896465
 20
179.1415547009
 30
0.0
 11
288.5184896465
 21
178.6415313358
 31
0.0
  0
LINE
  5
191
330
1F
100
AcDbEntity
  8
0
  6
CONTINUOUS
 62
     7
100
AcDbLine
 10
307.8934860702
 20
176.641557085
 30
0.0
 11
344.1434813018
 21
176.641557085
 31
0.0
  0
LINE
  5
192
330
1F
100
AcDbEntity
  8
0
  6
CONTINUOUS
 62
     7
100
AcDbLine
 10
344.1434813018
 20
176.641557085
 30
0.0
 11
344.1434813018
 21
177.1415804501
 31
0.0
  0
LINE
  5
193
330
1F
100
AcDbEntity
  8
0
  6
CONTINUOUS
 62
     7
100
AcDbLine
 10
344.1434813018
 20
177.1415804501
 30
0.0
 11
307.8934860702
 21
177.1415804501
 31
0.0
  0
LINE
  5
194
330
1F
100
AcDbEntity
  8
0
  6
CONTINUOUS
 62
     7
100
AcDbLine
 10
307.8934860702
 20
177.1415804501
 30
0.0
 11
307.8934860702
 21
176.641557085
 31
0.0
  0
LINE
  5
195
330
1F
100
AcDbEntity
  8
0
  6
CONTINUOUS
 62
     7
100
AcDbLine
 10
327.0185006137
 20
178.6415313358
 30
0.0
 11
363.2684958454
 21
178.6415313358
 31
0.0
  0
LINE
  5
196
330
1F
100
AcDbEntity
  8
0
  6
CONTINUOUS
 62
     7
100
AcDbLine
 10
363.2684958454
 20
178.6415313358
 30
0.0
 11
363.2684958454
 21
179.1415547009
 31
0.0
  0
LINE
  5
197
330
1F
100
AcDbEntity
  8
0
  6
CONTINUOUS
 62
     7
100
AcDbLine
 10
363.2684958454
 20
179.1415547009
 30
0.0
 11
327.0185006137
 21
179.1415547009
 31
0.0
  0
LINE
  5
198
330
1F
100
AcDbEntity
  8
0
  6
CONTINUOUS
 62
     7
100
AcDbLine
 10
327.0185006137
 20
179.1415547009
 30
0.0
 11
327.0185006137
 21
178.6415313358
 31
0.0
  0
LINE
  5
199
330
1F
100
AcDbEntity
  8
0
  6
CONTINUOUS
 62
     7
100
AcDbLine
 10
346.3934970375
 20
176.641557085
 30
0.0
 11
382.6434922691
 21
176.641557085
 31
0.0
  0
LINE
  5
19A
330
1F
100
AcDbEntity
  8
0
  6
CONTINUOUS
 62
     7
100
AcDbLine
 10
382.6434922691
 20
176.641557085
 30
0.0
 11
382.6434922691
 21
177.1415804501
 31
0.0
  0
LINE
  5
19B
330
1F
100
AcDbEntity
  8
0
  6
CONTINUOUS
 62
     7
100
AcDbLine
 10
382.6434922691
 20
177.1415804501
 30
0.0
 11
346.3934970375
 21
177.1415804501
 31
0.0
  0
LINE
  5
19C
330
1F
100
AcDbEntity
  8
0
  6
CONTINUOUS
 62
     7
100
AcDbLine
 10
346.3934970375
 20
177.1415804501
 30
0.0
 11
346.3934970375
 21
176.641557085
 31
0.0
  0
LINE
  5
19D
330
1F
100
AcDbEntity
  8
0
  6
CONTINUOUS
 62
     7
100
AcDbLine
 10
230.893493938
 20
180.6415651913
 30
0.0
 11
267.1434891696
 21
180.6415651913
 31
0.0
  0
LINE
  5
19E
330
1F
100
AcDbEntity
  8
0
  6
CONTINUOUS
 62
     7
100
AcDbLine
 10
267.1434891696
 20
180.6415651913
 30
0.0
 11
267.1434891696
 21
181.1415289517
 31
0.0
  0
LINE
  5
19F
330
1F
100
AcDbEntity
  8
0
  6
CONTINUOUS
 62
     7
100
AcDbLine
 10
267.1434891696
 20
181.1415289517
 30
0.0
 11
230.893493938
 21
181.1415289517
 31
0.0
  0
LINE
  5
1A0
330
1F
100
AcDbEntity
  8
0
  6
CONTINUOUS
 62
     7
100
AcDbLine
 10
230.893493938
 20
181.1415289517
 30
0.0
 11
230.893493938
 21
180.6415651913
 31
0.0
  0
LINE
  5
1A1
330
1F
100
AcDbEntity
  8
0
  6
CONTINUOUS
 62
     7
100
AcDbLine
 10
250.0185084816
 20
182.6415394421
 30
0.0
 11
286.2685037132
 21
182.6415394421
 31
0.0
  0
LINE
  5
1A2
330
1F
100
AcDbEntity
  8
0
  6
CONTINUOUS
 62
     7
100
AcDbLine
 10
286.2685037132
 20
182.6415394421
 30
0.0
 11
286.2685037132
 21
183.1415628071
 31
0.0
  0
LINE
  5
1A3
330
1F
100
AcDbEntity
  8
0
  6
CONTINUOUS
 62
     7
100
AcDbLine
 10
286.2685037132
 20
183.1415628071
 30
0.0
 11
250.0185084816
 21
183.1415628071
 31
0.0
  0
LINE
  5
1A4
330
1F
100
AcDbEntity
  8
0
  6
CONTINUOUS
 62
     7
100
AcDbLine
 10
250.0185084816
 20
183.1415628071
 30
0.0
 11
250.0185084816
 21
182.6415394421
 31
0.0
  0
LINE
  5
1A5
330
1F
100
AcDbEntity
  8
0
  6
CONTINUOUS
 62
     7
100
AcDbLine
 10
230.893493938
 20
184.6415732975
 30
0.0
 11
267.1434891696
 21
184.6415732975
 31
0.0
  0
LINE
  5
1A6
330
1F
100
AcDbEntity
  8
0
  6
CONTINUOUS
 62
     7
100
AcDbLine
 10
267.1434891696
 20
184.6415732975
 30
0.0
 11
267.1434891696
 21
185.1415370579
 31
0.0
  0
LINE
  5
1A7
330
1F
100
AcDbEntity
  8
0
  6
CONTINUOUS
 62
     7
100
AcDbLine
 10
267.1434891696
 20
185.1415370579
 30
0.0
 11
230.893493938
 21
185.1415370579
 31
0.0
  0
LINE
  5
1A8
330
1F
100
AcDbEntity
  8
0
  6
CONTINUOUS
 62
     7
100
AcDbLine
 10
230.893493938
 20
185.1415370579
 30
0.0
 11
230.893493938
 21
184.6415732975
 31
0.0
  0
LINE
  5
1A9
330
1F
100
AcDbEntity
  8
0
  6
CONTINUOUS
 62
     7
100
AcDbLine
 10
250.0185084816
 20
186.6415475483
 30
0.0
 11
286.2685037132
 21
186.6415475483
 31
0.0
  0
LINE
  5
1AA
330
1F
100
AcDbEntity
  8
0
  6
CONTINUOUS
 62
     7
100
AcDbLine
 10
286.2685037132
 20
186.6415475483
 30
0.0
 11
286.2685037132
 21
187.1415709133
 31
0.0
  0
LINE
  5
1AB
330
1F
100
AcDbEntity
  8
0
  6
CONTINUOUS
 62
     7
100
AcDbLine
 10
286.2685037132
 20
187.1415709133
 30
0.0
 11
250.0185084816
 21
187.1415709133
 31
0.0
  0
LINE
  5
1AC
330
1F
100
AcDbEntity
  8
0
  6
CONTINUOUS
 62
     7
100
AcDbLine
 10
250.0185084816
 20
187.1415709133
 30
0.0
 11
250.0185084816
 21
186.6415475483
 31
0.0
  0
LINE
  5
1AD
330
1F
100
AcDbEntity
  8
0
  6
CONTINUOUS
 62
     7
100
AcDbLine
 10
230.893493938
 20
188.6415814037
 30
0.0
 11
267.1434891696
 21
188.6415814037
 31
0.0
  0
LINE
  5
1AE
330
1F
100
AcDbEntity
  8
0
  6
CONTINUOUS
 62
     7
100
AcDbLine
 10
267.1434891696
 20
188.6415814037
 30
0.0
 11
267.1434891696
 21
189.1415451641
 31
0.0
  0
LINE
  5
1AF
330
1F
100
AcDbEntity
  8
0
  6
CONTINUOUS
 62
     7
100
AcDbLine
 10
267.1434891696
 20
189.1415451641
 30
0.0
 11
230.893493938
 21
189.1415451641
 31
0.0
  0
LINE
  5
1B0
330
1F
100
AcDbEntity
  8
0
  6
CONTINUOUS
 62
     7
100
AcDbLine
 10
230.893493938
 20
189.1415451641
 30
0.0
 11
230.893493938
 21
188.6415814037
 31
0.0
  0
LINE
  5
1B1
330
1F
100
AcDbEntity
  8
0
  6
CONTINUOUS
 62
     7
100
AcDbLine
 10
250.0185084816
 20
190.6415556545
 30
0.0
 11
286.2685037132
 21
190.6415556545
 31
0.0
  0
LINE
  5
1B2
330
1F
100
AcDbEntity
  8
0
  6
CONTINUOUS
 62
     7
100
AcDbLine
 10
286.2685037132
 20
190.6415556545
 30
0.0
 11
286.2685037132
 21
191.1415790196
 31
0.0
  0
LINE
  5
1B3
330
1F
100
AcDbEntity
  8
0
  6
CONTINUOUS
 62
     7
100
AcDbLine
 10
286.2685037132
 20
191.1415790196
 30
0.0
 11
250.0185084816
 21
191.1415790196
 31
0.0
  0
LINE
  5
1B4
330
1F
100
AcDbEntity
  8
0
  6
CONTINUOUS
 62
     7
100
AcDbLine
 10
250.0185084816
 20
191.1415790196
 30
0.0
 11
250.0185084816
 21
190.6415556545
 31
0.0
  0
LINE
  5
1B5
330
1F
100
AcDbEntity
  8
0
  6
CONTINUOUS
 62
     7
100
AcDbLine
 10
269.3935049053
 20
180.6415651913
 30
0.0
 11
305.6435001369
 21
180.6415651913
 31
0.0
  0
LINE
  5
1B6
330
1F
100
AcDbEntity
  8
0
  6
CONTINUOUS
 62
     7
100
AcDbLine
 10
305.6435001369
 20
180.6415651913
 30
0.0
 11
305.6435001369
 21
181.1415289517
 31
0.0
  0
LINE
  5
1B7
330
1F
100
AcDbEntity
  8
0
  6
CONTINUOUS
 62
     7
100
AcDbLine
 10
305.6435001369
 20
181.1415289517
 30
0.0
 11
269.3935049053
 21
181.1415289517
 31
0.0
  0
LINE
  5
1B8
330
1F
100
AcDbEntity
  8
0
  6
CONTINUOUS
 62
     7
100
AcDbLine
 10
269.3935049053
 20
181.1415289517
 30
0.0
 11
269.3935049053
 21
180.6415651913
 31
0.0
  0
LINE
  5
1B9
330
1F
100
AcDbEntity
  8
0
  6
CONTINUOUS
 62
     7
100
AcDbLine
 10
288.5184896465
 20
182.6415394421
 30
0.0
 11
324.7684848781
 21
182.6415394421
 31
0.0
  0
LINE
  5
1BA
330
1F
100
AcDbEntity
  8
0
  6
CONTINUOUS
 62
     7
100
AcDbLine
 10
324.7684848781
 20
182.6415394421
 30
0.0
 11
324.7684848781
 21
183.1415628071
 31
0.0
  0
LINE
  5
1BB
330
1F
100
AcDbEntity
  8
0
  6
CONTINUOUS
 62
     7
100
AcDbLine
 10
324.7684848781
 20
183.1415628071
 30
0.0
 11
288.5184896465
 21
183.1415628071
 31
0.0
  0
LINE
  5
1BC
330
1F
100
AcDbEntity
  8
0
  6
CONTINUOUS
 62
     7
100
AcDbLine
 10
288.5184896465
 20
183.1415628071
 30
0.0
 11
288.5184896465
 21
182.6415394421
 31
0.0
  0
LINE
  5
1BD
330
1F
100
AcDbEntity
  8
0
  6
CONTINUOUS
 62
     7
100
AcDbLine
 10
307.8934860702
 20
180.6415651913
 30
0.0
 11
344.1434813018
 21
180.6415651913
 31
0.0
  0
LINE
  5
1BE
330
1F
100
AcDbEntity
  8
0
  6
CONTINUOUS
 62
     7
100
AcDbLine
 10
344.1434813018
 20
180.6415651913
 30
0.0
 11
344.1434813018
 21
181.1415289517
 31
0.0
  0
LINE
  5
1BF
330
1F
100
AcDbEntity
  8
0
  6
CONTINUOUS
 62
     7
100
AcDbLine
 10
344.1434813018
 20
181.1415289517
 30
0.0
 11
307.8934860702
 21
181.1415289517
 31
0.0
  0
LINE
  5
1C0
330
1F
100
AcDbEntity
  8
0
  6
CONTINUOUS
 62
     7
100
AcDbLine
 10
307.8934860702
 20
181.1415289517
 30
0.0
 11
307.8934860702
 21
180.6415651913
 31
0.0
  0
LINE
  5
1C1
330
1F
100
AcDbEntity
  8
0
  6
CONTINUOUS
 62
     7
100
AcDbLine
 10
327.0185006137
 20
182.6415394421
 30
0.0
 11
363.2684958454
 21
182.6415394421
 31
0.0
  0
LINE
  5
1C2
330
1F
100
AcDbEntity
  8
0
  6
CONTINUOUS
 62
     7
100
AcDbLine
 10
363.2684958454
 20
182.6415394421
 30
0.0
 11
363.2684958454
 21
183.1415628071
 31
0.0
  0
LINE
  5
1C3
330
1F
100
AcDbEntity
  8
0
  6
CONTINUOUS
 62
     7
100
AcDbLine
 10
363.2684958454
 20
183.1415628071
 30
0.0
 11
327.0185006137
 21
183.1415628071
 31
0.0
  0
LINE
  5
1C4
330
1F
100
AcDbEntity
  8
0
  6
CONTINUOUS
 62
     7
100
AcDbLine
 10
327.0185006137
 20
183.1415628071
 30
0.0
 11
327.0185006137
 21
182.6415394421
 31
0.0
  0
LINE
  5
1C5
330
1F
100
AcDbEntity
  8
0
  6
CONTINUOUS
 62
     7
100
AcDbLine
 10
346.3934970375
 20
180.6415651913
 30
0.0
 11
382.6434922691
 21
180.6415651913
 31
0.0
  0
LINE
  5
1C6
330
1F
100
AcDbEntity
  8
0
  6
CONTINUOUS
 62
     7
100
AcDbLine
 10
382.6434922691
 20
180.6415651913
 30
0.0
 11
382.6434922691
 21
181.1415289517
 31
0.0
  0
LINE
  5
1C7
330
1F
100
AcDbEntity
  8
0
  6
CONTINUOUS
 62
     7
100
AcDbLine
 10
382.6434922691
 20
181.1415289517
 30
0.0
 11
346.3934970375
 21
181.1415289517
 31
0.0
  0
LINE
  5
1C8
330
1F
100
AcDbEntity
  8
0
  6
CONTINUOUS
 62
     7
100
AcDbLine
 10
346.3934970375
 20
181.1415289517
 30
0.0
 11
346.3934970375
 21
180.6415651913
 31
0.0
  0
LINE
  5
1C9
330
1F
100
AcDbEntity
  8
0
  6
CONTINUOUS
 62
     7
100
AcDbLine
 10
269.3935049053
 20
184.6415732975
 30
0.0
 11
305.6435001369
 21
184.6415732975
 31
0.0
  0
LINE
  5
1CA
330
1F
100
AcDbEntity
  8
0
  6
CONTINUOUS
 62
     7
100
AcDbLine
 10
305.6435001369
 20
184.6415732975
 30
0.0
 11
305.6435001369
 21
185.1415370579
 31
0.0
  0
LINE
  5
1CB
330
1F
100
AcDbEntity
  8
0
  6
CONTINUOUS
 62
     7
100
AcDbLine
 10
305.6435001369
 20
185.1415370579
 30
0.0
 11
269.3935049053
 21
185.1415370579
 31
0.0
  0
LINE
  5
1CC
330
1F
100
AcDbEntity
  8
0
  6
CONTINUOUS
 62
     7
100
AcDbLine
 10
269.3935049053
 20
185.1415370579
 30
0.0
 11
269.3935049053
 21
184.6415732975
 31
0.0
  0
LINE
  5
1CD
330
1F
100
AcDbEntity
  8
0
  6
CONTINUOUS
 62
     7
100
AcDbLine
 10
288.5184896465
 20
186.6415475483
 30
0.0
 11
324.7684848781
 21
186.6415475483
 31
0.0
  0
LINE
  5
1CE
330
1F
100
AcDbEntity
  8
0
  6
CONTINUOUS
 62
     7
100
AcDbLine
 10
324.7684848781
 20
186.6415475483
 30
0.0
 11
324.7684848781
 21
187.1415709133
 31
0.0
  0
LINE
  5
1CF
330
1F
100
AcDbEntity
  8
0
  6
CONTINUOUS
 62
     7
100
AcDbLine
 10
324.7684848781
 20
187.1415709133
 30
0.0
 11
288.5184896465
 21
187.1415709133
 31
0.0
  0
LINE
  5
1D0
330
1F
100
AcDbEntity
  8
0
  6
CONTINUOUS
 62
     7
100
AcDbLine
 10
288.5184896465
 20
187.1415709133
 30
0.0
 11
288.5184896465
 21
186.6415475483
 31
0.0
  0
LINE
  5
1D1
330
1F
100
AcDbEntity
  8
0
  6
CONTINUOUS
 62
     7
100
AcDbLine
 10
307.8934860702
 20
184.6415732975
 30
0.0
 11
344.1434813018
 21
184.6415732975
 31
0.0
  0
LINE
  5
1D2
330
1F
100
AcDbEntity
  8
0
  6
CONTINUOUS
 62
     7
100
AcDbLine
 10
344.1434813018
 20
184.6415732975
 30
0.0
 11
344.1434813018
 21
185.1415370579
 31
0.0
  0
LINE
  5
1D3
330
1F
100
AcDbEntity
  8
0
  6
CONTINUOUS
 62
     7
100
AcDbLine
 10
344.1434813018
 20
185.1415370579
 30
0.0
 11
307.8934860702
 21
185.1415370579
 31
0.0
  0
LINE
  5
1D4
330
1F
100
AcDbEntity
  8
0
  6
CONTINUOUS
 62
     7
100
AcDbLine
 10
307.8934860702
 20
185.1415370579
 30
0.0
 11
307.8934860702
 21
184.6415732975
 31
0.0
  0
LINE
  5
1D5
330
1F
100
AcDbEntity
  8
0
  6
CONTINUOUS
 62
     7
100
AcDbLine
 10
327.0185006137
 20
186.6415475483
 30
0.0
 11
363.2684958454
 21
186.6415475483
 31
0.0
  0
LINE
  5
1D6
330
1F
100
AcDbEntity
  8
0
  6
CONTINUOUS
 62
     7
100
AcDbLine
 10
363.2684958454
 20
186.6415475483
 30
0.0
 11
363.2684958454
 21
187.1415709133
 31
0.0
  0
LINE
  5
1D7
330
1F
100
AcDbEntity
  8
0
  6
CONTINUOUS
 62
     7
100
AcDbLine
 10
363.2684958454
 20
187.1415709133
 30
0.0
 11
327.0185006137
 21
187.1415709133
 31
0.0
  0
LINE
  5
1D8
330
1F
100
AcDbEntity
  8
0
  6
CONTINUOUS
 62
     7
100
AcDbLine
 10
327.0185006137
 20
187.1415709133
 30
0.0
 11
327.0185006137
 21
186.6415475483
 31
0.0
  0
LINE
  5
1D9
330
1F
100
AcDbEntity
  8
0
  6
CONTINUOUS
 62
     7
100
AcDbLine
 10
346.3934970375
 20
184.6415732975
 30
0.0
 11
382.6434922691
 21
184.6415732975
 31
0.0
  0
LINE
  5
1DA
330
1F
100
AcDbEntity
  8
0
  6
CONTINUOUS
 62
     7
100
AcDbLine
 10
382.6434922691
 20
184.6415732975
 30
0.0
 11
382.6434922691
 21
185.1415370579
 31
0.0
  0
LINE
  5
1DB
330
1F
100
AcDbEntity
  8
0
  6
CONTINUOUS
 62
     7
100
AcDbLine
 10
382.6434922691
 20
185.1415370579
 30
0.0
 11
346.3934970375
 21
185.1415370579
 31
0.0
  0
LINE
  5
1DC
330
1F
100
AcDbEntity
  8
0
  6
CONTINUOUS
 62
     7
100
AcDbLine
 10
346.3934970375
 20
185.1415370579
 30
0.0
 11
346.3934970375
 21
184.6415732975
 31
0.0
  0
LINE
  5
1DD
330
1F
100
AcDbEntity
  8
0
  6
CONTINUOUS
 62
     7
100
AcDbLine
 10
269.3935049053
 20
188.6415814037
 30
0.0
 11
305.6435001369
 21
188.6415814037
 31
0.0
  0
LINE
  5
1DE
330
1F
100
AcDbEntity
  8
0
  6
CONTINUOUS
 62
     7
100
AcDbLine
 10
305.6435001369
 20
188.6415814037
 30
0.0
 11
305.6435001369
 21
189.1415451641
 31
0.0
  0
LINE
  5
1DF
330
1F
100
AcDbEntity
  8
0
  6
CONTINUOUS
 62
     7
100
AcDbLine
 10
305.6435001369
 20
189.1415451641
 30
0.0
 11
269.3935049053
 21
189.1415451641
 31
0.0
  0
LINE
  5
1E0
330
1F
100
AcDbEntity
  8
0
  6
CONTINUOUS
 62
     7
100
AcDbLine
 10
269.3935049053
 20
189.1415451641
 30
0.0
 11
269.3935049053
 21
188.6415814037
 31
0.0
  0
LINE
  5
1E1
330
1F
100
AcDbEntity
  8
0
  6
CONTINUOUS
 62
     7
100
AcDbLine
 10
288.5184896465
 20
190.6415556545
 30
0.0
 11
324.7684848781
 21
190.6415556545
 31
0.0
  0
LINE
  5
1E2
330
1F
100
AcDbEntity
  8
0
  6
CONTINUOUS
 62
     7
100
AcDbLine
 10
324.7684848781
 20
190.6415556545
 30
0.0
 11
324.7684848781
 21
191.1415790196
 31
0.0
  0
LINE
  5
1E3
330
1F
100
AcDbEntity
  8
0
  6
CONTINUOUS
 62
     7
100
AcDbLine
 10
324.7684848781
 20
191.1415790196
 30
0.0
 11
288.5184896465
 21
191.1415790196
 31
0.0
  0
LINE
  5
1E4
330
1F
100
AcDbEntity
  8
0
  6
CONTINUOUS
 62
     7
100
AcDbLine
 10
288.5184896465
 20
191.1415790196
 30
0.0
 11
288.5184896465
 21
190.6415556545
 31
0.0
  0
LINE
  5
1E5
330
1F
100
AcDbEntity
  8
0
  6
CONTINUOUS
 62
     7
100
AcDbLine
 10
307.8934860702
 20
188.6415814037
 30
0.0
 11
344.1434813018
 21
188.6415814037
 31
0.0
  0
LINE
  5
1E6
330
1F
100
AcDbEntity
  8
0
  6
CONTINUOUS
 62
     7
100
AcDbLine
 10
344.1434813018
 20
188.6415814037
 30
0.0
 11
344.1434813018
 21
189.1415451641
 31
0.0
  0
LINE
  5
1E7
330
1F
100
AcDbEntity
  8
0
  6
CONTINUOUS
 62
     7
100
AcDbLine
 10
344.1434813018
 20
189.1415451641
 30
0.0
 11
307.8934860702
 21
189.1415451641
 31
0.0
  0
LINE
  5
1E8
330
1F
100
AcDbEntity
  8
0
  6
CONTINUOUS
 62
     7
100
AcDbLine
 10
307.8934860702
 20
189.1415451641
 30
0.0
 11
307.8934860702
 21
188.6415814037
 31
0.0
  0
LINE
  5
1E9
330
1F
100
AcDbEntity
  8
0
  6
CONTINUOUS
 62
     7
100
AcDbLine
 10
327.0185006137
 20
190.6415556545
 30
0.0
 11
363.2684958454
 21
190.6415556545
 31
0.0
  0
LINE
  5
1EA
330
1F
100
AcDbEntity
  8
0
  6
CONTINUOUS
 62
     7
100
AcDbLine
 10
363.2684958454
 20
190.6415556545
 30
0.0
 11
363.2684958454
 21
191.1415790196
 31
0.0
  0
LINE
  5
1EB
330
1F
100
AcDbEntity
  8
0
  6
CONTINUOUS
 62
     7
100
AcDbLine
 10
363.2684958454
 20
191.1415790196
 30
0.0
 11
327.0185006137
 21
191.1415790196
 31
0.0
  0
LINE
  5
1EC
330
1F
100
AcDbEntity
  8
0
  6
CONTINUOUS
 62
     7
100
AcDbLine
 10
327.0185006137
 20
191.1415790196
 30
0.0
 11
327.0185006137
 21
190.6415556545
 31
0.0
  0
LINE
  5
1ED
330
1F
100
AcDbEntity
  8
0
  6
CONTINUOUS
 62
     7
100
AcDbLine
 10
346.3934970375
 20
188.6415814037
 30
0.0
 11
382.6434922691
 21
188.6415814037
 31
0.0
  0
LINE
  5
1EE
330
1F
100
AcDbEntity
  8
0
  6
CONTINUOUS
 62
     7
100
AcDbLine
 10
382.6434922691
 20
188.6415814037
 30
0.0
 11
382.6434922691
 21
189.1415451641
 31
0.0
  0
LINE
  5
1EF
330
1F
100
AcDbEntity
  8
0
  6
CONTINUOUS
 62
     7
100
AcDbLine
 10
382.6434922691
 20
189.1415451641
 30
0.0
 11
346.3934970375
 21
189.1415451641
 31
0.0
  0
LINE
  5
1F0
330
1F
100
AcDbEntity
  8
0
  6
CONTINUOUS
 62
     7
100
AcDbLine
 10
346.3934970375
 20
189.1415451641
 30
0.0
 11
346.3934970375
 21
188.6415814037
 31
0.0
  0
LINE
  5
1F1
330
1F
100
AcDbEntity
  8
0
  6
CONTINUOUS
 62
     7
100
AcDbLine
 10
231.3934875007
 20
232.4095104809
 30
0.0
 11
267.6434827323
 21
232.4095104809
 31
0.0
  0
LINE
  5
1F2
330
1F
100
AcDbEntity
  8
0
  6
CONTINUOUS
 62
     7
100
AcDbLine
 10
267.6434827323
 20
232.4095104809
 30
0.0
 11
267.6434827323
 21
232.9095338459
 31
0.0
  0
LINE
  5
1F3
330
1F
100
AcDbEntity
  8
0
  6
CONTINUOUS
 62
     7
100
AcDbLine
 10
267.6434827323
 20
232.9095338459
 30
0.0
 11
231.3934875007
 21
232.9095338459
 31
0.0
  0
LINE
  5
1F4
330
1F
100
AcDbEntity
  8
0
  6
CONTINUOUS
 62
     7
100
AcDbLine
 10
231.3934875007
 20
232.9095338459
 30
0.0
 11
231.3934875007
 21
232.4095104809
 31
0.0
  0
LINE
  5
1F5
330
1F
100
AcDbEntity
  8
0
  6
CONTINUOUS
 62
     7
100
AcDbLine
 10
286.7684972759
 20
234.4095443363
 30
0.0
 11
286.7684972759
 21
234.9095080967
 31
0.0
  0
LINE
  5
1F6
330
1F
100
AcDbEntity
  8
0
  6
CONTINUOUS
 62
     7
100
AcDbLine
 10
286.7684972759
 20
234.9095080967
 30
0.0
 11
250.5185020443
 21
234.9095080967
 31
0.0
  0
LINE
  5
1F7
330
1F
100
AcDbEntity
  8
0
  6
CONTINUOUS
 62
     7
100
AcDbLine
 10
250.5185020443
 20
234.9095080967
 30
0.0
 11
250.5185020443
 21
234.4095443363
 31
0.0
  0
LINE
  5
1F8
330
1F
100
AcDbEntity
  8
0
  6
CONTINUOUS
 62
     7
100
AcDbLine
 10
250.5185020443
 20
234.4095443363
 30
0.0
 11
286.7684972759
 21
234.4095443363
 31
0.0
  0
LINE
  5
1F9
330
1F
100
AcDbEntity
  8
0
  6
CONTINUOUS
 62
     7
100
AcDbLine
 10
269.3935049053
 20
232.4095104809
 30
0.0
 11
305.6435001369
 21
232.4095104809
 31
0.0
  0
LINE
  5
1FA
330
1F
100
AcDbEntity
  8
0
  6
CONTINUOUS
 62
     7
100
AcDbLine
 10
305.6435001369
 20
232.4095104809
 30
0.0
 11
305.6435001369
 21
232.9095338459
 31
0.0
  0
LINE
  5
1FB
330
1F
100
AcDbEntity
  8
0
  6
CONTINUOUS
 62
     7
100
AcDbLine
 10
305.6435001369
 20
232.9095338459
 30
0.0
 11
269.3935049053
 21
232.9095338459
 31
0.0
  0
LINE
  5
1FC
330
1F
100
AcDbEntity
  8
0
  6
CONTINUOUS
 62
     7
100
AcDbLine
 10
269.3935049053
 20
232.9095338459
 30
0.0
 11
269.3935049053
 21
232.4095104809
 31
0.0
  0
LINE
  5
1FD
330
1F
100
AcDbEntity
  8
0
  6
CONTINUOUS
 62
     7
100
AcDbLine
 10
324.7684848781
 20
234.4095443363
 30
0.0
 11
324.7684848781
 21
234.9095080967
 31
0.0
  0
LINE
  5
1FE
330
1F
100
AcDbEntity
  8
0
  6
CONTINUOUS
 62
     7
100
AcDbLine
 10
324.7684848781
 20
234.9095080967
 30
0.0
 11
288.5184896465
 21
234.9095080967
 31
0.0
  0
LINE
  5
1FF
330
1F
100
AcDbEntity
  8
0
  6
CONTINUOUS
 62
     7
100
AcDbLine
 10
288.5184896465
 20
234.9095080967
 30
0.0
 11
288.5184896465
 21
234.4095443363
 31
0.0
  0
LINE
  5
200
330
1F
100
AcDbEntity
  8
0
  6
CONTINUOUS
 62
     7
100
AcDbLine
 10
288.5184896465
 20
234.4095443363
 30
0.0
 11
324.7684848781
 21
234.4095443363
 31
0.0
  0
LINE
  5
201
330
1F
100
AcDbEntity
  8
0
  6
CONTINUOUS
 62
     7
100
AcDbLine
 10
307.3934925075
 20
232.4095104809
 30
0.0
 11
343.6434877391
 21
232.4095104809
 31
0.0
  0
LINE
  5
202
330
1F
100
AcDbEntity
  8
0
  6
CONTINUOUS
 62
     7
100
AcDbLine
 10
343.6434877391
 20
232.4095104809
 30
0.0
 11
343.6434877391
 21
232.9095338459
 31
0.0
  0
LINE
  5
203
330
1F
100
AcDbEntity
  8
0
  6
CONTINUOUS
 62
     7
100
AcDbLine
 10
343.6434877391
 20
232.9095338459
 30
0.0
 11
307.3934925075
 21
232.9095338459
 31
0.0
  0
LINE
  5
204
330
1F
100
AcDbEntity
  8
0
  6
CONTINUOUS
 62
     7
100
AcDbLine
 10
307.3934925075
 20
232.9095338459
 30
0.0
 11
307.3934925075
 21
232.4095104809
 31
0.0
  0
LINE
  5
205
330
1F
100
AcDbEntity
  8
0
  6
CONTINUOUS
 62
     7
100
AcDbLine
 10
362.7685022827
 20
234.4095443363
 30
0.0
 11
362.7685022827
 21
234.9095080967
 31
0.0
  0
LINE
  5
206
330
1F
100
AcDbEntity
  8
0
  6
CONTINUOUS
 62
     7
100
AcDbLine
 10
362.7685022827
 20
234.9095080967
 30
0.0
 11
326.518507051
 21
234.9095080967
 31
0.0
  0
LINE
  5
207
330
1F
100
AcDbEntity
  8
0
  6
CONTINUOUS
 62
     7
100
AcDbLine
 10
326.518507051
 20
234.9095080967
 30
0.0
 11
326.518507051
 21
234.4095443363
 31
0.0
  0
LINE
  5
208
330
1F
100
AcDbEntity
  8
0
  6
CONTINUOUS
 62
     7
100
AcDbLine
 10
326.518507051
 20
234.4095443363
 30
0.0
 11
362.7685022827
 21
234.4095443363
 31
0.0
  0
LINE
  5
209
330
1F
100
AcDbEntity
  8
0
  6
CONTINUOUS
 62
     7
100
AcDbLine
 10
345.3934801097
 20
232.4095104809
 30
0.0
 11
381.6435051437
 21
232.4095104809
 31
0.0
  0
LINE
  5
20A
330
1F
100
AcDbEntity
  8
0
  6
CONTINUOUS
 62
     7
100
AcDbLine
 10
381.6435051437
 20
232.4095104809
 30
0.0
 11
381.6435051437
 21
232.9095338459
 31
0.0
  0
LINE
  5
20B
330
1F
100
AcDbEntity
  8
0
  6
CONTINUOUS
 62
     7
100
AcDbLine
 10
381.6435051437
 20
232.9095338459
 30
0.0
 11
345.3934801097
 21
232.9095338459
 31
0.0
  0
LINE
  5
20C
330
1F
100
AcDbEntity
  8
0
  6
CONTINUOUS
 62
     7
100
AcDbLine
 10
345.3934801097
 20
232.9095338459
 30
0.0
 11
345.3934801097
 21
232.4095104809
 31
0.0
  0
LINE
  5
20D
330
1F
100
AcDbEntity
  8
0
  6
CONTINUOUS
 62
     7
100
AcDbLine
 10
231.3934875007
 20
236.4095185871
 30
0.0
 11
267.6434827323
 21
236.4095185871
 31
0.0
  0
LINE
  5
20E
330
1F
100
AcDbEntity
  8
0
  6
CONTINUOUS
 62
     7
100
AcDbLine
 10
267.6434827323
 20
236.4095185871
 30
0.0
 11
267.6434827323
 21
236.9095419521
 31
0.0
  0
LINE
  5
20F
330
1F
100
AcDbEntity
  8
0
  6
CONTINUOUS
 62
     7
100
AcDbLine
 10
267.6434827323
 20
236.9095419521
 30
0.0
 11
231.3934875007
 21
236.9095419521
 31
0.0
  0
LINE
  5
210
330
1F
100
AcDbEntity
  8
0
  6
CONTINUOUS
 62
     7
100
AcDbLine
 10
231.3934875007
 20
236.9095419521
 30
0.0
 11
231.3934875007
 21
236.4095185871
 31
0.0
  0
LINE
  5
211
330
1F
100
AcDbEntity
  8
0
  6
CONTINUOUS
 62
     7
100
AcDbLine
 10
286.7684972759
 20
238.4094928379
 30
0.0
 11
286.7684972759
 21
238.9095162029
 31
0.0
  0
LINE
  5
212
330
1F
100
AcDbEntity
  8
0
  6
CONTINUOUS
 62
     7
100
AcDbLine
 10
286.7684972759
 20
238.9095162029
 30
0.0
 11
250.5185020443
 21
238.9095162029
 31
0.0
  0
LINE
  5
213
330
1F
100
AcDbEntity
  8
0
  6
CONTINUOUS
 62
     7
100
AcDbLine
 10
250.5185020443
 20
238.9095162029
 30
0.0
 11
250.5185020443
 21
238.4094928379
 31
0.0
  0
LINE
  5
214
330
1F
100
AcDbEntity
  8
0
  6
CONTINUOUS
 62
     7
100
AcDbLine
 10
250.5185020443
 20
238.4094928379
 30
0.0
 11
286.7684972759
 21
238.4094928379
 31
0.0
  0
LINE
  5
215
330
1F
100
AcDbEntity
  8
0
  6
CONTINUOUS
 62
     7
100
AcDbLine
 10
231.3934875007
 20
240.4095266934
 30
0.0
 11
267.6434827323
 21
240.4095266934
 31
0.0
  0
LINE
  5
216
330
1F
100
AcDbEntity
  8
0
  6
CONTINUOUS
 62
     7
100
AcDbLine
 10
267.6434827323
 20
240.4095266934
 30
0.0
 11
267.6434827323
 21
240.9095500584
 31
0.0
  0
LINE
  5
217
330
1F
100
AcDbEntity
  8
0
  6
CONTINUOUS
 62
     7
100
AcDbLine
 10
267.6434827323
 20
240.9095500584
 30
0.0
 11
231.3934875007
 21
240.9095500584
 31
0.0
  0
LINE
  5
218
330
1F
100
AcDbEntity
  8
0
  6
CONTINUOUS
 62
     7
100
AcDbLine
 10
231.3934875007
 20
240.9095500584
 30
0.0
 11
231.3934875007
 21
240.4095266934
 31
0.0
  0
LINE
  5
219
330
1F
100
AcDbEntity
  8
0
  6
CONTINUOUS
 62
     7
100
AcDbLine
 10
286.7684972759
 20
242.4095009441
 30
0.0
 11
286.7684972759
 21
242.9095243092
 31
0.0
  0
LINE
  5
21A
330
1F
100
AcDbEntity
  8
0
  6
CONTINUOUS
 62
     7
100
AcDbLine
 10
286.7684972759
 20
242.9095243092
 30
0.0
 11
250.5185020443
 21
242.9095243092
 31
0.0
  0
LINE
  5
21B
330
1F
100
AcDbEntity
  8
0
  6
CONTINUOUS
 62
     7
100
AcDbLine
 10
250.5185020443
 20
242.9095243092
 30
0.0
 11
250.5185020443
 21
242.4095009441
 31
0.0
  0
LINE
  5
21C
330
1F
100
AcDbEntity
  8
0
  6
CONTINUOUS
 62
     7
100
AcDbLine
 10
250.5185020443
 20
242.4095009441
 30
0.0
 11
286.7684972759
 21
242.4095009441
 31
0.0
  0
LINE
  5
21D
330
1F
100
AcDbEntity
  8
0
  6
CONTINUOUS
 62
     7
100
AcDbLine
 10
231.3934875007
 20
244.4095347996
 30
0.0
 11
267.6434827323
 21
244.4095347996
 31
0.0
  0
LINE
  5
21E
330
1F
100
AcDbEntity
  8
0
  6
CONTINUOUS
 62
     7
100
AcDbLine
 10
267.6434827323
 20
244.4095347996
 30
0.0
 11
267.6434827323
 21
244.90949856
 31
0.0
  0
LINE
  5
21F
330
1F
100
AcDbEntity
  8
0
  6
CONTINUOUS
 62
     7
100
AcDbLine
 10
267.6434827323
 20
244.90949856
 30
0.0
 11
231.3934875007
 21
244.90949856
 31
0.0
  0
LINE
  5
220
330
1F
100
AcDbEntity
  8
0
  6
CONTINUOUS
 62
     7
100
AcDbLine
 10
231.3934875007
 20
244.90949856
 30
0.0
 11
231.3934875007
 21
244.4095347996
 31
0.0
  0
LINE
  5
221
330
1F
100
AcDbEntity
  8
0
  6
CONTINUOUS
 62
     7
100
AcDbLine
 10
286.7684972759
 20
246.4095090504
 30
0.0
 11
286.7684972759
 21
246.9095324154
 31
0.0
  0
LINE
  5
222
330
1F
100
AcDbEntity
  8
0
  6
CONTINUOUS
 62
     7
100
AcDbLine
 10
286.7684972759
 20
246.9095324154
 30
0.0
 11
250.5185020443
 21
246.9095324154
 31
0.0
  0
LINE
  5
223
330
1F
100
AcDbEntity
  8
0
  6
CONTINUOUS
 62
     7
100
AcDbLine
 10
250.5185020443
 20
246.9095324154
 30
0.0
 11
250.5185020443
 21
246.4095090504
 31
0.0
  0
LINE
  5
224
330
1F
100
AcDbEntity
  8
0
  6
CONTINUOUS
 62
     7
100
AcDbLine
 10
250.5185020443
 20
246.4095090504
 30
0.0
 11
286.7684972759
 21
246.4095090504
 31
0.0
  0
LINE
  5
225
330
1F
100
AcDbEntity
  8
0
  6
CONTINUOUS
 62
     7
100
AcDbLine
 10
231.3934875007
 20
248.4095429058
 30
0.0
 11
267.6434827323
 21
248.4095429058
 31
0.0
  0
LINE
  5
226
330
1F
100
AcDbEntity
  8
0
  6
CONTINUOUS
 62
     7
100
AcDbLine
 10
267.6434827323
 20
248.4095429058
 30
0.0
 11
267.6434827323
 21
248.9095066662
 31
0.0
  0
LINE
  5
227
330
1F
100
AcDbEntity
  8
0
  6
CONTINUOUS
 62
     7
100
AcDbLine
 10
267.6434827323
 20
248.9095066662
 30
0.0
 11
231.3934875007
 21
248.9095066662
 31
0.0
  0
LINE
  5
228
330
1F
100
AcDbEntity
  8
0
  6
CONTINUOUS
 62
     7
100
AcDbLine
 10
231.3934875007
 20
248.9095066662
 30
0.0
 11
231.3934875007
 21
248.4095429058
 31
0.0
  0
LINE
  5
229
330
1F
100
AcDbEntity
  8
0
  6
CONTINUOUS
 62
     7
100
AcDbLine
 10
286.7684972759
 20
250.4095171566
 30
0.0
 11
286.7684972759
 21
250.9095405216
 31
0.0
  0
LINE
  5
22A
330
1F
100
AcDbEntity
  8
0
  6
CONTINUOUS
 62
     7
100
AcDbLine
 10
286.7684972759
 20
250.9095405216
 30
0.0
 11
250.5185020443
 21
250.9095405216
 31
0.0
  0
LINE
  5
22B
330
1F
100
AcDbEntity
  8
0
  6
CONTINUOUS
 62
     7
100
AcDbLine
 10
250.5185020443
 20
250.9095405216
 30
0.0
 11
250.5185020443
 21
250.4095171566
 31
0.0
  0
LINE
  5
22C
330
1F
100
AcDbEntity
  8
0
  6
CONTINUOUS
 62
     7
100
AcDbLine
 10
250.5185020443
 20
250.4095171566
 30
0.0
 11
286.7684972759
 21
250.4095171566
 31
0.0
  0
LINE
  5
22D
330
1F
100
AcDbEntity
  8
0
  6
CONTINUOUS
 62
     7
100
AcDbLine
 10
231.3934875007
 20
252.4094914074
 30
0.0
 11
267.6434827323
 21
252.4094914074
 31
0.0
  0
LINE
  5
22E
330
1F
100
AcDbEntity
  8
0
  6
CONTINUOUS
 62
     7
100
AcDbLine
 10
267.6434827323
 20
252.4094914074
 30
0.0
 11
267.6434827323
 21
252.9095147724
 31
0.0
  0
LINE
  5
22F
330
1F
100
AcDbEntity
  8
0
  6
CONTINUOUS
 62
     7
100
AcDbLine
 10
267.6434827323
 20
252.9095147724
 30
0.0
 11
231.3934875007
 21
252.9095147724
 31
0.0
  0
LINE
  5
230
330
1F
100
AcDbEntity
  8
0
  6
CONTINUOUS
 62
     7
100
AcDbLine
 10
231.3934875007
 20
252.9095147724
 30
0.0
 11
231.3934875007
 21
252.4094914074
 31
0.0
  0
LINE
  5
231
330
1F
100
AcDbEntity
  8
0
  6
CONTINUOUS
 62
     7
100
AcDbLine
 10
286.7684972759
 20
254.4095252628
 30
0.0
 11
286.7684972759
 21
254.9095486279
 31
0.0
  0
LINE
  5
232
330
1F
100
AcDbEntity
  8
0
  6
CONTINUOUS
 62
     7
100
AcDbLine
 10
286.7684972759
 20
254.9095486279
 30
0.0
 11
250.5185020443
 21
254.9095486279
 31
0.0
  0
LINE
  5
233
330
1F
100
AcDbEntity
  8
0
  6
CONTINUOUS
 62
     7
100
AcDbLine
 10
250.5185020443
 20
254.9095486279
 30
0.0
 11
250.5185020443
 21
254.4095252628
 31
0.0
  0
LINE
  5
234
330
1F
100
AcDbEntity
  8
0
  6
CONTINUOUS
 62
     7
100
AcDbLine
 10
250.5185020443
 20
254.4095252628
 30
0.0
 11
286.7684972759
 21
254.4095252628
 31
0.0
  0
LINE
  5
235
330
1F
100
AcDbEntity
  8
0
  6
CONTINUOUS
 62
     7
100
AcDbLine
 10
269.3935049053
 20
236.4095185871
 30
0.0
 11
305.6435001369
 21
236.4095185871
 31
0.0
  0
LINE
  5
236
330
1F
100
AcDbEntity
  8
0
  6
CONTINUOUS
 62
     7
100
AcDbLine
 10
305.6435001369
 20
236.4095185871
 30
0.0
 11
305.6435001369
 21
236.9095419521
 31
0.0
  0
LINE
  5
237
330
1F
100
AcDbEntity
  8
0
  6
CONTINUOUS
 62
     7
100
AcDbLine
 10
305.6435001369
 20
236.9095419521
 30
0.0
 11
269.3935049053
 21
236.9095419521
 31
0.0
  0
LINE
  5
238
330
1F
100
AcDbEntity
  8
0
  6
CONTINUOUS
 62
     7
100
AcDbLine
 10
269.3935049053
 20
236.9095419521
 30
0.0
 11
269.3935049053
 21
236.4095185871
 31
0.0
  0
LINE
  5
239
330
1F
100
AcDbEntity
  8
0
  6
CONTINUOUS
 62
     7
100
AcDbLine
 10
324.7684848781
 20
238.4094928379
 30
0.0
 11
324.7684848781
 21
238.9095162029
 31
0.0
  0
LINE
  5
23A
330
1F
100
AcDbEntity
  8
0
  6
CONTINUOUS
 62
     7
100
AcDbLine
 10
324.7684848781
 20
238.9095162029
 30
0.0
 11
288.5184896465
 21
238.9095162029
 31
0.0
  0
LINE
  5
23B
330
1F
100
AcDbEntity
  8
0
  6
CONTINUOUS
 62
     7
100
AcDbLine
 10
288.5184896465
 20
238.9095162029
 30
0.0
 11
288.5184896465
 21
238.4094928379
 31
0.0
  0
LINE
  5
23C
330
1F
100
AcDbEntity
  8
0
  6
CONTINUOUS
 62
     7
100
AcDbLine
 10
288.5184896465
 20
238.4094928379
 30
0.0
 11
324.7684848781
 21
238.4094928379
 31
0.0
  0
LINE
  5
23D
330
1F
100
AcDbEntity
  8
0
  6
CONTINUOUS
 62
     7
100
AcDbLine
 10
307.3934925075
 20
236.4095185871
 30
0.0
 11
343.6434877391
 21
236.4095185871
 31
0.0
  0
LINE
  5
23E
330
1F
100
AcDbEntity
  8
0
  6
CONTINUOUS
 62
     7
100
AcDbLine
 10
343.6434877391
 20
236.4095185871
 30
0.0
 11
343.6434877391
 21
236.9095419521
 31
0.0
  0
LINE
  5
23F
330
1F
100
AcDbEntity
  8
0
  6
CONTINUOUS
 62
     7
100
AcDbLine
 10
343.6434877391
 20
236.9095419521
 30
0.0
 11
307.3934925075
 21
236.9095419521
 31
0.0
  0
LINE
  5
240
330
1F
100
AcDbEntity
  8
0
  6
CONTINUOUS
 62
     7
100
AcDbLine
 10
307.3934925075
 20
236.9095419521
 30
0.0
 11
307.3934925075
 21
236.4095185871
 31
0.0
  0
LINE
  5
241
330
1F
100
AcDbEntity
  8
0
  6
CONTINUOUS
 62
     7
100
AcDbLine
 10
362.7685022827
 20
238.4094928379
 30
0.0
 11
362.7685022827
 21
238.9095162029
 31
0.0
  0
LINE
  5
242
330
1F
100
AcDbEntity
  8
0
  6
CONTINUOUS
 62
     7
100
AcDbLine
 10
362.7685022827
 20
238.9095162029
 30
0.0
 11
326.518507051
 21
238.9095162029
 31
0.0
  0
LINE
  5
243
330
1F
100
AcDbEntity
  8
0
  6
CONTINUOUS
 62
     7
100
AcDbLine
 10
326.518507051
 20
238.9095162029
 30
0.0
 11
326.518507051
 21
238.4094928379
 31
0.0
  0
LINE
  5
244
330
1F
100
AcDbEntity
  8
0
  6
CONTINUOUS
 62
     7
100
AcDbLine
 10
326.518507051
 20
238.4094928379
 30
0.0
 11
362.7685022827
 21
238.4094928379
 31
0.0
  0
LINE
  5
245
330
1F
100
AcDbEntity
  8
0
  6
CONTINUOUS
 62
     7
100
AcDbLine
 10
345.3934801097
 20
236.4095185871
 30
0.0
 11
381.6435051437
 21
236.4095185871
 31
0.0
  0
LINE
  5
246
330
1F
100
AcDbEntity
  8
0
  6
CONTINUOUS
 62
     7
100
AcDbLine
 10
381.6435051437
 20
236.4095185871
 30
0.0
 11
381.6435051437
 21
236.9095419521
 31
0.0
  0
LINE
  5
247
330
1F
100
AcDbEntity
  8
0
  6
CONTINUOUS
 62
     7
100
AcDbLine
 10
381.6435051437
 20
236.9095419521
 30
0.0
 11
345.3934801097
 21
236.9095419521
 31
0.0
  0
LINE
  5
248
330
1F
100
AcDbEntity
  8
0
  6
CONTINUOUS
 62
     7
100
AcDbLine
 10
345.3934801097
 20
236.9095419521
 30
0.0
 11
345.3934801097
 21
236.4095185871
 31
0.0
  0
LINE
  5
249
330
1F
100
AcDbEntity
  8
0
  6
CONTINUOUS
 62
     7
100
AcDbLine
 10
269.3935049053
 20
240.4095266934
 30
0.0
 11
305.6435001369
 21
240.4095266934
 31
0.0
  0
LINE
  5
24A
330
1F
100
AcDbEntity
  8
0
  6
CONTINUOUS
 62
     7
100
AcDbLine
 10
305.6435001369
 20
240.4095266934
 30
0.0
 11
305.6435001369
 21
240.9095500584
 31
0.0
  0
LINE
  5
24B
330
1F
100
AcDbEntity
  8
0
  6
CONTINUOUS
 62
     7
100
AcDbLine
 10
305.6435001369
 20
240.9095500584
 30
0.0
 11
269.3935049053
 21
240.9095500584
 31
0.0
  0
LINE
  5
24C
330
1F
100
AcDbEntity
  8
0
  6
CONTINUOUS
 62
     7
100
AcDbLine
 10
269.3935049053
 20
240.9095500584
 30
0.0
 11
269.3935049053
 21
240.4095266934
 31
0.0
  0
LINE
  5
24D
330
1F
100
AcDbEntity
  8
0
  6
CONTINUOUS
 62
     7
100
AcDbLine
 10
324.7684848781
 20
242.4095009441
 30
0.0
 11
324.7684848781
 21
242.9095243092
 31
0.0
  0
LINE
  5
24E
330
1F
100
AcDbEntity
  8
0
  6
CONTINUOUS
 62
     7
100
AcDbLine
 10
324.7684848781
 20
242.9095243092
 30
0.0
 11
288.5184896465
 21
242.9095243092
 31
0.0
  0
LINE
  5
24F
330
1F
100
AcDbEntity
  8
0
  6
CONTINUOUS
 62
     7
100
AcDbLine
 10
288.5184896465
 20
242.9095243092
 30
0.0
 11
288.5184896465
 21
242.4095009441
 31
0.0
  0
LINE
  5
250
330
1F
100
AcDbEntity
  8
0
  6
CONTINUOUS
 62
     7
100
AcDbLine
 10
288.5184896465
 20
242.4095009441
 30
0.0
 11
324.7684848781
 21
242.4095009441
 31
0.0
  0
LINE
  5
251
330
1F
100
AcDbEntity
  8
0
  6
CONTINUOUS
 62
     7
100
AcDbLine
 10
307.3934925075
 20
240.4095266934
 30
0.0
 11
343.6434877391
 21
240.4095266934
 31
0.0
  0
LINE
  5
252
330
1F
100
AcDbEntity
  8
0
  6
CONTINUOUS
 62
     7
100
AcDbLine
 10
343.6434877391
 20
240.4095266934
 30
0.0
 11
343.6434877391
 21
240.9095500584
 31
0.0
  0
LINE
  5
253
330
1F
100
AcDbEntity
  8
0
  6
CONTINUOUS
 62
     7
100
AcDbLine
 10
343.6434877391
 20
240.9095500584
 30
0.0
 11
307.3934925075
 21
240.9095500584
 31
0.0
  0
LINE
  5
254
330
1F
100
AcDbEntity
  8
0
  6
CONTINUOUS
 62
     7
100
AcDbLine
 10
307.3934925075
 20
240.9095500584
 30
0.0
 11
307.3934925075
 21
240.4095266934
 31
0.0
  0
LINE
  5
255
330
1F
100
AcDbEntity
  8
0
  6
CONTINUOUS
 62
     7
100
AcDbLine
 10
362.7685022827
 20
242.4095009441
 30
0.0
 11
362.7685022827
 21
242.9095243092
 31
0.0
  0
LINE
  5
256
330
1F
100
AcDbEntity
  8
0
  6
CONTINUOUS
 62
     7
100
AcDbLine
 10
362.7685022827
 20
242.9095243092
 30
0.0
 11
326.518507051
 21
242.9095243092
 31
0.0
  0
LINE
  5
257
330
1F
100
AcDbEntity
  8
0
  6
CONTINUOUS
 62
     7
100
AcDbLine
 10
326.518507051
 20
242.9095243092
 30
0.0
 11
326.518507051
 21
242.4095009441
 31
0.0
  0
LINE
  5
258
330
1F
100
AcDbEntity
  8
0
  6
CONTINUOUS
 62
     7
100
AcDbLine
 10
326.518507051
 20
242.4095009441
 30
0.0
 11
362.7685022827
 21
242.4095009441
 31
0.0
  0
LINE
  5
259
330
1F
100
AcDbEntity
  8
0
  6
CONTINUOUS
 62
     7
100
AcDbLine
 10
345.3934801097
 20
240.4095266934
 30
0.0
 11
381.6435051437
 21
240.4095266934
 31
0.0
  0
LINE
  5
25A
330
1F
100
AcDbEntity
  8
0
  6
CONTINUOUS
 62
     7
100
AcDbLine
 10
381.6435051437
 20
240.4095266934
 30
0.0
 11
381.6435051437
 21
240.9095500584
 31
0.0
  0
LINE
  5
25B
330
1F
100
AcDbEntity
  8
0
  6
CONTINUOUS
 62
     7
100
AcDbLine
 10
381.6435051437
 20
240.9095500584
 30
0.0
 11
345.3934801097
 21
240.9095500584
 31
0.0
  0
LINE
  5
25C
330
1F
100
AcDbEntity
  8
0
  6
CONTINUOUS
 62
     7
100
AcDbLine
 10
345.3934801097
 20
240.9095500584
 30
0.0
 11
345.3934801097
 21
240.4095266934
 31
0.0
  0
LINE
  5
25D
330
1F
100
AcDbEntity
  8
0
  6
CONTINUOUS
 62
     7
100
AcDbLine
 10
269.3935049053
 20
244.4095347996
 30
0.0
 11
305.6435001369
 21
244.4095347996
 31
0.0
  0
LINE
  5
25E
330
1F
100
AcDbEntity
  8
0
  6
CONTINUOUS
 62
     7
100
AcDbLine
 10
305.6435001369
 20
244.4095347996
 30
0.0
 11
305.6435001369
 21
244.90949856
 31
0.0
  0
LINE
  5
25F
330
1F
100
AcDbEntity
  8
0
  6
CONTINUOUS
 62
     7
100
AcDbLine
 10
305.6435001369
 20
244.90949856
 30
0.0
 11
269.3935049053
 21
244.90949856
 31
0.0
  0
LINE
  5
260
330
1F
100
AcDbEntity
  8
0
  6
CONTINUOUS
 62
     7
100
AcDbLine
 10
269.3935049053
 20
244.90949856
 30
0.0
 11
269.3935049053
 21
244.4095347996
 31
0.0
  0
LINE
  5
261
330
1F
100
AcDbEntity
  8
0
  6
CONTINUOUS
 62
     7
100
AcDbLine
 10
324.7684848781
 20
246.4095090504
 30
0.0
 11
324.7684848781
 21
246.9095324154
 31
0.0
  0
LINE
  5
262
330
1F
100
AcDbEntity
  8
0
  6
CONTINUOUS
 62
     7
100
AcDbLine
 10
324.7684848781
 20
246.9095324154
 30
0.0
 11
288.5184896465
 21
246.9095324154
 31
0.0
  0
LINE
  5
263
330
1F
100
AcDbEntity
  8
0
  6
CONTINUOUS
 62
     7
100
AcDbLine
 10
288.5184896465
 20
246.9095324154
 30
0.0
 11
288.5184896465
 21
246.4095090504
 31
0.0
  0
LINE
  5
264
330
1F
100
AcDbEntity
  8
0
  6
CONTINUOUS
 62
     7
100
AcDbLine
 10
288.5184896465
 20
246.4095090504
 30
0.0
 11
324.7684848781
 21
246.4095090504
 31
0.0
  0
LINE
  5
265
330
1F
100
AcDbEntity
  8
0
  6
CONTINUOUS
 62
     7
100
AcDbLine
 10
307.3934925075
 20
244.4095347996
 30
0.0
 11
343.6434877391
 21
244.4095347996
 31
0.0
  0
LINE
  5
266
330
1F
100
AcDbEntity
  8
0
  6
CONTINUOUS
 62
     7
100
AcDbLine
 10
343.6434877391
 20
244.4095347996
 30
0.0
 11
343.6434877391
 21
244.90949856
 31
0.0
  0
LINE
  5
267
330
1F
100
AcDbEntity
  8
0
  6
CONTINUOUS
 62
     7
100
AcDbLine
 10
343.6434877391
 20
244.90949856
 30
0.0
 11
307.3934925075
 21
244.90949856
 31
0.0
  0
LINE
  5
268
330
1F
100
AcDbEntity
  8
0
  6
CONTINUOUS
 62
     7
100
AcDbLine
 10
307.3934925075
 20
244.90949856
 30
0.0
 11
307.3934925075
 21
244.4095347996
 31
0.0
  0
LINE
  5
269
330
1F
100
AcDbEntity
  8
0
  6
CONTINUOUS
 62
     7
100
AcDbLine
 10
362.7685022827
 20
246.4095090504
 30
0.0
 11
362.7685022827
 21
246.9095324154
 31
0.0
  0
LINE
  5
26A
330
1F
100
AcDbEntity
  8
0
  6
CONTINUOUS
 62
     7
100
AcDbLine
 10
362.7685022827
 20
246.9095324154
 30
0.0
 11
326.518507051
 21
246.9095324154
 31
0.0
  0
LINE
  5
26B
330
1F
100
AcDbEntity
  8
0
  6
CONTINUOUS
 62
     7
100
AcDbLine
 10
326.518507051
 20
246.9095324154
 30
0.0
 11
326.518507051
 21
246.4095090504
 31
0.0
  0
LINE
  5
26C
330
1F
100
AcDbEntity
  8
0
  6
CONTINUOUS
 62
     7
100
AcDbLine
 10
326.518507051
 20
246.4095090504
 30
0.0
 11
362.7685022827
 21
246.4095090504
 31
0.0
  0
LINE
  5
26D
330
1F
100
AcDbEntity
  8
0
  6
CONTINUOUS
 62
     7
100
AcDbLine
 10
345.3934801097
 20
244.4095347996
 30
0.0
 11
381.6435051437
 21
244.4095347996
 31
0.0
  0
LINE
  5
26E
330
1F
100
AcDbEntity
  8
0
  6
CONTINUOUS
 62
     7
100
AcDbLine
 10
381.6435051437
 20
244.4095347996
 30
0.0
 11
381.6435051437
 21
244.90949856
 31
0.0
  0
LINE
  5
26F
330
1F
100
AcDbEntity
  8
0
  6
CONTINUOUS
 62
     7
100
AcDbLine
 10
381.6435051437
 20
244.90949856
 30
0.0
 11
345.3934801097
 21
244.90949856
 31
0.0
  0
LINE
  5
270
330
1F
100
AcDbEntity
  8
0
  6
CONTINUOUS
 62
     7
100
AcDbLine
 10
345.3934801097
 20
244.90949856
 30
0.0
 11
345.3934801097
 21
244.4095347996
 31
0.0
  0
LINE
  5
271
330
1F
100
AcDbEntity
  8
0
  6
CONTINUOUS
 62
     7
100
AcDbLine
 10
269.3935049053
 20
248.4095429058
 30
0.0
 11
305.6435001369
 21
248.4095429058
 31
0.0
  0
LINE
  5
272
330
1F
100
AcDbEntity
  8
0
  6
CONTINUOUS
 62
     7
100
AcDbLine
 10
305.6435001369
 20
248.4095429058
 30
0.0
 11
305.6435001369
 21
248.9095066662
 31
0.0
  0
LINE
  5
273
330
1F
100
AcDbEntity
  8
0
  6
CONTINUOUS
 62
     7
100
AcDbLine
 10
305.6435001369
 20
248.9095066662
 30
0.0
 11
269.3935049053
 21
248.9095066662
 31
0.0
  0
LINE
  5
274
330
1F
100
AcDbEntity
  8
0
  6
CONTINUOUS
 62
     7
100
AcDbLine
 10
269.3935049053
 20
248.9095066662
 30
0.0
 11
269.3935049053
 21
248.4095429058
 31
0.0
  0
LINE
  5
275
330
1F
100
AcDbEntity
  8
0
  6
CONTINUOUS
 62
     7
100
AcDbLine
 10
324.7684848781
 20
250.4095171566
 30
0.0
 11
324.7684848781
 21
250.9095405216
 31
0.0
  0
LINE
  5
276
330
1F
100
AcDbEntity
  8
0
  6
CONTINUOUS
 62
     7
100
AcDbLine
 10
324.7684848781
 20
250.9095405216
 30
0.0
 11
288.5184896465
 21
250.9095405216
 31
0.0
  0
LINE
  5
277
330
1F
100
AcDbEntity
  8
0
  6
CONTINUOUS
 62
     7
100
AcDbLine
 10
288.5184896465
 20
250.9095405216
 30
0.0
 11
288.5184896465
 21
250.4095171566
 31
0.0
  0
LINE
  5
278
330
1F
100
AcDbEntity
  8
0
  6
CONTINUOUS
 62
     7
100
AcDbLine
 10
288.5184896465
 20
250.4095171566
 30
0.0
 11
324.7684848781
 21
250.4095171566
 31
0.0
  0
LINE
  5
279
330
1F
100
AcDbEntity
  8
0
  6
CONTINUOUS
 62
     7
100
AcDbLine
 10
307.3934925075
 20
248.4095429058
 30
0.0
 11
343.6434877391
 21
248.4095429058
 31
0.0
  0
LINE
  5
27A
330
1F
100
AcDbEntity
  8
0
  6
CONTINUOUS
 62
     7
100
AcDbLine
 10
343.6434877391
 20
248.4095429058
 30
0.0
 11
343.6434877391
 21
248.9095066662
 31
0.0
  0
LINE
  5
27B
330
1F
100
AcDbEntity
  8
0
  6
CONTINUOUS
 62
     7
100
AcDbLine
 10
343.6434877391
 20
248.9095066662
 30
0.0
 11
307.3934925075
 21
248.9095066662
 31
0.0
  0
LINE
  5
27C
330
1F
100
AcDbEntity
  8
0
  6
CONTINUOUS
 62
     7
100
AcDbLine
 10
307.3934925075
 20
248.9095066662
 30
0.0
 11
307.3934925075
 21
248.4095429058
 31
0.0
  0
LINE
  5
27D
330
1F
100
AcDbEntity
  8
0
  6
CONTINUOUS
 62
     7
100
AcDbLine
 10
362.7685022827
 20
250.4095171566
 30
0.0
 11
362.7685022827
 21
250.9095405216
 31
0.0
  0
LINE
  5
27E
330
1F
100
AcDbEntity
  8
0
  6
CONTINUOUS
 62
     7
100
AcDbLine
 10
362.7685022827
 20
250.9095405216
 30
0.0
 11
326.518507051
 21
250.9095405216
 31
0.0
  0
LINE
  5
27F
330
1F
100
AcDbEntity
  8
0
  6
CONTINUOUS
 62
     7
100
AcDbLine
 10
326.518507051
 20
250.9095405216
 30
0.0
 11
326.518507051
 21
250.4095171566
 31
0.0
  0
LINE
  5
280
330
1F
100
AcDbEntity
  8
0
  6
CONTINUOUS
 62
     7
100
AcDbLine
 10
326.518507051
 20
250.4095171566
 30
0.0
 11
362.7685022827
 21
250.4095171566
 31
0.0
  0
LINE
  5
281
330
1F
100
AcDbEntity
  8
0
  6
CONTINUOUS
 62
     7
100
AcDbLine
 10
345.3934801097
 20
248.4095429058
 30
0.0
 11
381.6435051437
 21
248.4095429058
 31
0.0
  0
LINE
  5
282
330
1F
100
AcDbEntity
  8
0
  6
CONTINUOUS
 62
     7
100
AcDbLine
 10
381.6435051437
 20
248.4095429058
 30
0.0
 11
381.6435051437
 21
248.9095066662
 31
0.0
  0
LINE
  5
283
330
1F
100
AcDbEntity
  8
0
  6
CONTINUOUS
 62
     7
100
AcDbLine
 10
381.6435051437
 20
248.9095066662
 30
0.0
 11
345.3934801097
 21
248.9095066662
 31
0.0
  0
LINE
  5
284
330
1F
100
AcDbEntity
  8
0
  6
CONTINUOUS
 62
     7
100
AcDbLine
 10
345.3934801097
 20
248.9095066662
 30
0.0
 11
345.3934801097
 21
248.4095429058
 31
0.0
  0
LINE
  5
285
330
1F
100
AcDbEntity
  8
0
  6
CONTINUOUS
 62
     7
100
AcDbLine
 10
269.3935049053
 20
252.4094914074
 30
0.0
 11
305.6435001369
 21
252.4094914074
 31
0.0
  0
LINE
  5
286
330
1F
100
AcDbEntity
  8
0
  6
CONTINUOUS
 62
     7
100
AcDbLine
 10
305.6435001369
 20
252.4094914074
 30
0.0
 11
305.6435001369
 21
252.9095147724
 31
0.0
  0
LINE
  5
287
330
1F
100
AcDbEntity
  8
0
  6
CONTINUOUS
 62
     7
100
AcDbLine
 10
305.6435001369
 20
252.9095147724
 30
0.0
 11
269.3935049053
 21
252.9095147724
 31
0.0
  0
LINE
  5
288
330
1F
100
AcDbEntity
  8
0
  6
CONTINUOUS
 62
     7
100
AcDbLine
 10
269.3935049053
 20
252.9095147724
 30
0.0
 11
269.3935049053
 21
252.4094914074
 31
0.0
  0
LINE
  5
289
330
1F
100
AcDbEntity
  8
0
  6
CONTINUOUS
 62
     7
100
AcDbLine
 10
324.7684848781
 20
254.4095252628
 30
0.0
 11
324.7684848781
 21
254.9095486279
 31
0.0
  0
LINE
  5
28A
330
1F
100
AcDbEntity
  8
0
  6
CONTINUOUS
 62
     7
100
AcDbLine
 10
324.7684848781
 20
254.9095486279
 30
0.0
 11
288.5184896465
 21
254.9095486279
 31
0.0
  0
LINE
  5
28B
330
1F
100
AcDbEntity
  8
0
  6
CONTINUOUS
 62
     7
100
AcDbLine
 10
288.5184896465
 20
254.9095486279
 30
0.0
 11
288.5184896465
 21
254.4095252628
 31
0.0
  0
LINE
  5
28C
330
1F
100
AcDbEntity
  8
0
  6
CONTINUOUS
 62
     7
100
AcDbLine
 10
288.5184896465
 20
254.4095252628
 30
0.0
 11
324.7684848781
 21
254.4095252628
 31
0.0
  0
LINE
  5
28D
330
1F
100
AcDbEntity
  8
0
  6
CONTINUOUS
 62
     7
100
AcDbLine
 10
307.3934925075
 20
252.4094914074
 30
0.0
 11
343.6434877391
 21
252.4094914074
 31
0.0
  0
LINE
  5
28E
330
1F
100
AcDbEntity
  8
0
  6
CONTINUOUS
 62
     7
100
AcDbLine
 10
343.6434877391
 20
252.4094914074
 30
0.0
 11
343.6434877391
 21
252.9095147724
 31
0.0
  0
LINE
  5
28F
330
1F
100
AcDbEntity
  8
0
  6
CONTINUOUS
 62
     7
100
AcDbLine
 10
343.6434877391
 20
252.9095147724
 30
0.0
 11
307.3934925075
 21
252.9095147724
 31
0.0
  0
LINE
  5
290
330
1F
100
AcDbEntity
  8
0
  6
CONTINUOUS
 62
     7
100
AcDbLine
 10
307.3934925075
 20
252.9095147724
 30
0.0
 11
307.3934925075
 21
252.4094914074
 31
0.0
  0
LINE
  5
291
330
1F
100
AcDbEntity
  8
0
  6
CONTINUOUS
 62
     7
100
AcDbLine
 10
362.7685022827
 20
254.4095252628
 30
0.0
 11
362.7685022827
 21
254.9095486279
 31
0.0
  0
LINE
  5
292
330
1F
100
AcDbEntity
  8
0
  6
CONTINUOUS
 62
     7
100
AcDbLine
 10
362.7685022827
 20
254.9095486279
 30
0.0
 11
326.518507051
 21
254.9095486279
 31
0.0
  0
LINE
  5
293
330
1F
100
AcDbEntity
  8
0
  6
CONTINUOUS
 62
     7
100
AcDbLine
 10
326.518507051
 20
254.9095486279
 30
0.0
 11
326.518507051
 21
254.4095252628
 31
0.0
  0
LINE
  5
294
330
1F
100
AcDbEntity
  8
0
  6
CONTINUOUS
 62
     7
100
AcDbLine
 10
326.518507051
 20
254.4095252628
 30
0.0
 11
362.7685022827
 21
254.4095252628
 31
0.0
  0
LINE
  5
295
330
1F
100
AcDbEntity
  8
0
  6
CONTINUOUS
 62
     7
100
AcDbLine
 10
345.3934801097
 20
252.4094914074
 30
0.0
 11
381.6435051437
 21
252.4094914074
 31
0.0
  0
LINE
  5
296
330
1F
100
AcDbEntity
  8
0
  6
CONTINUOUS
 62
     7
100
AcDbLine
 10
381.6435051437
 20
252.4094914074
 30
0.0
 11
381.6435051437
 21
252.9095147724
 31
0.0
  0
LINE
  5
297
330
1F
100
AcDbEntity
  8
0
  6
CONTINUOUS
 62
     7
100
AcDbLine
 10
381.6435051437
 20
252.9095147724
 30
0.0
 11
345.3934801097
 21
252.9095147724
 31
0.0
  0
LINE
  5
298
330
1F
100
AcDbEntity
  8
0
  6
CONTINUOUS
 62
     7
100
AcDbLine
 10
345.3934801097
 20
252.9095147724
 30
0.0
 11
345.3934801097
 21
252.4094914074
 31
0.0
  0
LINE
  5
299
330
1F
100
AcDbEntity
  8
0
  6
CONTINUOUS
 62
     7
100
AcDbLine
 10
241.5345025535
 20
71.8725656147
 30
0.0
 11
372.2524953361
 21
71.8725656147
 31
0.0
  0
LINE
  5
29A
330
1F
100
AcDbEntity
  8
0
  6
CONTINUOUS
 62
     7
100
AcDbLine
 10
372.2524953361
 20
71.8725656147
 30
0.0
 11
372.2524953361
 21
171.5905402775
 31
0.0
  0
LINE
  5
29B
330
1F
100
AcDbEntity
  8
0
  6
CONTINUOUS
 62
     7
100
AcDbLine
 10
372.2524953361
 20
171.5905402775
 30
0.0
 11
241.5345025535
 21
171.5905402775
 31
0.0
  0
LINE
  5
29C
330
1F
100
AcDbEntity
  8
0
  6
CONTINUOUS
 62
     7
100
AcDbLine
 10
241.5345025535
 20
171.5905402775
 30
0.0
 11
241.5345025535
 21
71.8725656147
 31
0.0
  0
CIRCLE
  5
29D
330
1F
100
AcDbEntity
  8
0
  6
CONTINUOUS
 62
     7
100
AcDbCircle
 10
240.183431077
 20
324.778575103
 30
0.0
 40
5.542017500000071
  0
LINE
  5
29E
330
1F
100
AcDbEntity
  8
0
  6
CONTINUOUS
 62
     7
100
AcDbLine
 10
278.2097471233
 20
346.4420174236
 30
0.0
 11
278.2097471233
 21
360.0379561062
 31
0.0
  0
LINE
  5
29F
330
1F
100
AcDbEntity
  8
0
  6
CONTINUOUS
 62
     7
100
AcDbLine
 10
278.2097471233
 20
360.0379561062
 30
0.0
 11
264.2473590847
 21
360.0379561062
 31
0.0
  0
LINE
  5
2A0
330
1F
100
AcDbEntity
  8
0
  6
CONTINUOUS
 62
     7
100
AcDbLine
 10
264.2473590847
 20
360.0379561062
 30
0.0
 11
264.2473590847
 21
346.4420174236
 31
0.0
  0
LINE
  5
2A1
330
1F
100
AcDbEntity
  8
0
  6
CONTINUOUS
 62
     7
100
AcDbLine
 10
264.2473590847
 20
346.4420174236
 30
0.0
 11
278.2097471233
 21
346.4420174236
 31
0.0
  0
LINE
  5
2A2
330
1F
100
AcDbEntity
  8
0
  6
CONTINUOUS
 62
     7
100
AcDbLine
 10
275.7081699844
 20
328.3900354977
 30
0.0
 11
275.7081699844
 21
333.1942294712
 31
0.0
  0
LINE
  5
2A3
330
1F
100
AcDbEntity
  8
0
  6
CONTINUOUS
 62
     7
100
AcDbLine
 10
275.7081699844
 20
333.1942294712
 30
0.0
 11
246.3214707847
 21
333.1942294712
 31
0.0
  0
LINE
  5
2A4
330
1F
100
AcDbEntity
  8
0
  6
CONTINUOUS
 62
     7
100
AcDbLine
 10
246.3214707847
 20
333.1942294712
 30
0.0
 11
246.3214707847
 21
328.3900354977
 31
0.0
  0
LINE
  5
2A5
330
1F
100
AcDbEntity
  8
0
  6
CONTINUOUS
 62
     7
100
AcDbLine
 10
246.3214707847
 20
328.3900354977
 30
0.0
 11
275.7081699844
 21
328.3900354977
 31
0.0
  0
LINE
  5
2A6
330
1F
100
AcDbEntity
  8
0
  6
CONTINUOUS
 62
     7
100
AcDbLine
 10
246.7030895229
 20
357.8099344845
 30
0.0
 11
235.7557726379
 21
357.8099344845
 31
0.0
  0
LINE
  5
2A7
330
1F
100
AcDbEntity
  8
0
  6
CONTINUOUS
 62
     7
100
AcDbLine
 10
235.7557726379
 20
357.8099344845
 30
0.0
 11
235.7557726379
 21
345.2141617413
 31
0.0
  0
LINE
  5
2A8
330
1F
100
AcDbEntity
  8
0
  6
CONTINUOUS
 62
     7
100
AcDbLine
 10
235.7557726379
 20
345.2141617413
 30
0.0
 11
246.7030895229
 21
345.2141617413
 31
0.0
  0
LINE
  5
2A9
330
1F
100
AcDbEntity
  8
0
  6
CONTINUOUS
 62
     7
100
AcDbLine
 10
246.7030895229
 20
345.2141617413
 30
0.0
 11
246.7030895229
 21
357.8099344845
 31
0.0
  0
CIRCLE
  5
2AA
330
1F
100
AcDbEntity
  8
0
  6
CONTINUOUS
 62
     7
100
AcDbCircle
 10
286.815679827
 20
-58.8959015191
 30
0.0
 40
1.487893750000069
  0
CIRCLE
  5
2AB
330
1F
100
AcDbEntity
  8
0
  6
CONTINUOUS
 62
     7
100
AcDbCircle
 10
238.724014827
 20
-60.1641727691
 30
0.0
 40
1.487893750000069
  0
CIRCLE
  5
2AC
330
1F
100
AcDbEntity
  8
0
  6
CONTINUOUS
 62
     7
100
AcDbCircle
 10
243.714709827
 20
-8.1565258941
 30
0.0
 40
1.487894374999968
  0
CIRCLE
  5
2AD
330
1F
100
AcDbEntity
  8
0
  6
CONTINUOUS
 62
     7
100
AcDbCircle
 10
271.587851077
 20
-8.1651196441
 30
0.0
 40
1.487894374999996
  0
LINE
  5
2AE
330
1F
100
AcDbEntity
  8
0
  6
CONTINUOUS
 62
     7
100
AcDbLine
 10
372.893483686
 20
300.0314568157
 30
0.0
 11
297.893495607
 21
300.0314568157
 31
0.0
  0
ARC
  5
2AF
330
1F
100
AcDbEntity
  8
0
  6
CONTINUOUS
 62
     7
100
AcDbCircle
 10
297.893494827
 20
299.0314656867
 30
0.0
 40
1.0
100
AcDbArc
 50
90.0
 51
270.0
  0
LINE
  5
2B0
330
1F
100
AcDbEntity
  8
0
  6
CONTINUOUS
 62
     7
100
AcDbLine
 10
297.893495607
 20
298.0314825649
 30
0.0
 11
372.893483686
 21
298.0314825649
 31
0.0
  0
ARC
  5
2B1
330
1F
100
AcDbEntity
  8
0
  6
CONTINUOUS
 62
     7
100
AcDbCircle
 10
372.893494827
 20
299.0314656867
 30
0.0
 40
1.0
100
AcDbArc
 50
270.0
 51
90.0
  0
LINE
  5
2B2
330
1F
100
AcDbEntity
  8
0
  6
CONTINUOUS
 62
     7
100
AcDbLine
 10
297.893495607
 20
302.0314906712
 30
0.0
 11
372.893483686
 21
302.0314906712
 31
0.0
  0
ARC
  5
2B3
330
1F
100
AcDbEntity
  8
0
  6
CONTINUOUS
 62
     7
100
AcDbCircle
 10
372.893494827
 20
303.0314656867
 30
0.0
 40
1.0
100
AcDbArc
 50
270.0
 51
90.0
  0
LINE
  5
2B4
330
1F
100
AcDbEntity
  8
0
  6
CONTINUOUS
 62
     7
100
AcDbLine
 10
372.893483686
 20
304.031464922
 30
0.0
 11
297.893495607
 21
304.031464922
 31
0.0
  0
ARC
  5
2B5
330
1F
100
AcDbEntity
  8
0
  6
CONTINUOUS
 62
     7
100
AcDbCircle
 10
297.893494827
 20
303.0314656867
 30
0.0
 40
1.0
100
AcDbArc
 50
90.0
 51
270.0
  0
LINE
  5
2B6
330
1F
100
AcDbEntity
  8
0
  6
CONTINUOUS
 62
     7
100
AcDbLine
 10
298.228324699
 20
306.0314391728
 30
0.0
 11
372.558654594
 21
306.0314391728
 31
0.0
  0
ARC
  5
2B7
330
1F
100
AcDbEntity
  8
0
  6
CONTINUOUS
 62
     7
100
AcDbCircle
 10
372.5586666953
 20
307.0314656867
 30
0.0
 40
1.0
100
AcDbArc
 50
270.0
 51
90.0
  0
LINE
  5
2B8
330
1F
100
AcDbEntity
  8
0
  6
CONTINUOUS
 62
     7
100
AcDbLine
 10
372.558654594
 20
308.0314730282
 30
0.0
 11
298.228324699
 21
308.0314730282
 31
0.0
  0
ARC
  5
2B9
330
1F
100
AcDbEntity
  8
0
  6
CONTINUOUS
 62
     7
100
AcDbCircle
 10
298.2283229587
 20
307.0314656867
 30
0.0
 40
1.0
100
AcDbArc
 50
90.0
 51
270.0
  0
LINE
  5
2BA
330
1F
100
AcDbEntity
  8
0
  6
CONTINUOUS
 62
     7
100
AcDbLine
 10
298.9895058151
 20
310.031447279
 30
0.0
 11
371.7974734779
 21
310.031447279
 31
0.0
  0
ARC
  5
2BB
330
1F
100
AcDbEntity
  8
0
  6
CONTINUOUS
 62
     7
100
AcDbCircle
 10
371.7974781255
 20
311.0314656867
 30
0.0
 40
1.0
100
AcDbArc
 50
270.0
 51
90.0
  0
LINE
  5
2BC
330
1F
100
AcDbEntity
  8
0
  6
CONTINUOUS
 62
     7
100
AcDbLine
 10
371.7974734779
 20
312.0314811344
 30
0.0
 11
298.9895058151
 21
312.0314811344
 31
0.0
  0
ARC
  5
2BD
330
1F
100
AcDbEntity
  8
0
  6
CONTINUOUS
 62
     7
100
AcDbCircle
 10
298.9895115285
 20
311.0314656867
 30
0.0
 40
1.0
100
AcDbArc
 50
90.0
 51
270.0
  0
LINE
  5
2BE
330
1F
100
AcDbEntity
  8
0
  6
CONTINUOUS
 62
     7
100
AcDbLine
 10
300.2189410205
 20
314.0314553852
 30
0.0
 11
370.5680680748
 21
314.0314553852
 31
0.0
  0
ARC
  5
2BF
330
1F
100
AcDbEntity
  8
0
  6
CONTINUOUS
 62
     7
100
AcDbCircle
 10
370.5680595009
 20
315.0314656867
 30
0.0
 40
1.0
100
AcDbArc
 50
270.0
 51
90.0
  0
LINE
  5
2C0
330
1F
100
AcDbEntity
  8
0
  6
CONTINUOUS
 62
     7
100
AcDbLine
 10
370.5680680748
 20
316.0314892407
 30
0.0
 11
300.2189410205
 21
316.0314892407
 31
0.0
  0
ARC
  5
2C1
330
1F
100
AcDbEntity
  8
0
  6
CONTINUOUS
 62
     7
100
AcDbCircle
 10
300.2189301531
 20
315.0314656867
 30
0.0
 40
1.0
100
AcDbArc
 50
90.0
 51
270.0
  0
LINE
  5
2C2
330
1F
100
AcDbEntity
  8
0
  6
CONTINUOUS
 62
     7
100
AcDbLine
 10
301.9682181354
 20
318.0314634915
 30
0.0
 11
368.8187909599
 21
318.0314634915
 31
0.0
  0
ARC
  5
2C3
330
1F
100
AcDbEntity
  8
0
  6
CONTINUOUS
 62
     7
100
AcDbCircle
 10
368.8187846537
 20
319.0314656867
 30
0.0
 40
1.0
100
AcDbArc
 50
270.0
 51
90.0
  0
LINE
  5
2C4
330
1F
100
AcDbEntity
  8
0
  6
CONTINUOUS
 62
     7
100
AcDbLine
 10
368.8187909599
 20
320.0314377422
 30
0.0
 11
301.9682181354
 21
320.0314377422
 31
0.0
  0
ARC
  5
2C5
330
1F
100
AcDbEntity
  8
0
  6
CONTINUOUS
 62
     7
100
AcDbCircle
 10
301.9682050003
 20
319.0314656867
 30
0.0
 40
1.0
100
AcDbArc
 50
90.0
 51
270.0
  0
LINE
  5
2C6
330
1F
100
AcDbEntity
  8
0
  6
CONTINUOUS
 62
     7
100
AcDbLine
 10
304.3250155921
 20
322.0314715977
 30
0.0
 11
366.4619637008
 21
322.0314715977
 31
0.0
  0
ARC
  5
2C7
330
1F
100
AcDbEntity
  8
0
  6
CONTINUOUS
 62
     7
100
AcDbCircle
 10
366.4619675928
 20
323.0314656867
 30
0.0
 40
1.0
100
AcDbArc
 50
270.0
 51
90.0
  0
LINE
  5
2C8
330
1F
100
AcDbEntity
  8
0
  6
CONTINUOUS
 62
     7
100
AcDbLine
 10
366.4619637008
 20
324.0314458485
 30
0.0
 11
304.3250155921
 21
324.0314458485
 31
0.0
  0
ARC
  5
2C9
330
1F
100
AcDbEntity
  8
0
  6
CONTINUOUS
 62
     7
100
AcDbCircle
 10
304.3250220612
 20
323.0314656867
 30
0.0
 40
1.0
100
AcDbArc
 50
90.0
 51
270.0
  0
LINE
  5
2CA
330
1F
100
AcDbEntity
  8
0
  6
CONTINUOUS
 62
     7
100
AcDbLine
 10
307.4426365371
 20
326.0314797039
 30
0.0
 11
363.3443427558
 21
326.0314797039
 31
0.0
  0
ARC
  5
2CB
330
1F
100
AcDbEntity
  8
0
  6
CONTINUOUS
 62
     7
100
AcDbCircle
 10
363.3443445457
 20
327.0314656867
 30
0.0
 40
1.0
100
AcDbArc
 50
270.0
 51
90.0
  0
LINE
  5
2CC
330
1F
100
AcDbEntity
  8
0
  6
CONTINUOUS
 62
     7
100
AcDbLine
 10
363.3443427558
 20
328.0314539547
 30
0.0
 11
307.4426365371
 21
328.0314539547
 31
0.0
  0
ARC
  5
2CD
330
1F
100
AcDbEntity
  8
0
  6
CONTINUOUS
 62
     7
100
AcDbCircle
 10
307.4426451082
 20
327.0314656867
 30
0.0
 40
1.0
100
AcDbArc
 50
90.0
 51
270.0
  0
LINE
  5
2CE
330
1F
100
AcDbEntity
  8
0
  6
CONTINUOUS
 62
     7
100
AcDbLine
 10
311.6185081478
 20
330.0314878101
 30
0.0
 11
359.1684711452
 21
330.0314878101
 31
0.0
  0
ARC
  5
2CF
330
1F
100
AcDbEntity
  8
0
  6
CONTINUOUS
 62
     7
100
AcDbCircle
 10
359.1684816829
 20
331.0314656867
 30
0.0
 40
1.0
100
AcDbArc
 50
270.0
 51
90.0
  0
LINE
  5
2D0
330
1F
100
AcDbEntity
  8
0
  6
CONTINUOUS
 62
     7
100
AcDbLine
 10
359.1684711452
 20
332.0314620609
 30
0.0
 11
311.6185081478
 21
332.0314620609
 31
0.0
  0
ARC
  5
2D1
330
1F
100
AcDbEntity
  8
0
  6
CONTINUOUS
 62
     7
100
AcDbCircle
 10
311.6185079711
 20
331.0314656867
 30
0.0
 40
1.0
100
AcDbArc
 50
90.0
 51
270.0
  0
LINE
  5
2D2
330
1F
100
AcDbEntity
  8
0
  6
CONTINUOUS
 62
     7
100
AcDbLine
 10
317.5819826599
 20
334.0314363117
 30
0.0
 11
353.2049966331
 21
334.0314363117
 31
0.0
  0
ARC
  5
2D3
330
1F
100
AcDbEntity
  8
0
  6
CONTINUOUS
 62
     7
100
AcDbCircle
 10
353.2050079576
 20
335.0314656867
 30
0.0
 40
1.0
100
AcDbArc
 50
270.0
 51
90.0
  0
LINE
  5
2D4
330
1F
100
AcDbEntity
  8
0
  6
CONTINUOUS
 62
     7
100
AcDbLine
 10
353.2049966331
 20
336.0314701672
 30
0.0
 11
317.5819826599
 21
336.0314701672
 31
0.0
  0
ARC
  5
2D5
330
1F
100
AcDbEntity
  8
0
  6
CONTINUOUS
 62
     7
100
AcDbCircle
 10
317.5819816964
 20
335.0314656867
 30
0.0
 40
1.0
100
AcDbArc
 50
90.0
 51
270.0
  0
LINE
  5
2D6
330
1F
100
AcDbEntity
  8
0
  6
CONTINUOUS
 62
     7
100
AcDbLine
 10
372.558654594
 20
296.0314487095
 30
0.0
 11
298.228324699
 21
296.0314487095
 31
0.0
  0
ARC
  5
2D7
330
1F
100
AcDbEntity
  8
0
  6
CONTINUOUS
 62
     7
100
AcDbCircle
 10
298.2283229587
 20
295.0314656867
 30
0.0
 40
1.0
100
AcDbArc
 50
90.0
 51
270.0
  0
LINE
  5
2D8
330
1F
100
AcDbEntity
  8
0
  6
CONTINUOUS
 62
     7
100
AcDbLine
 10
298.228324699
 20
294.0314744587
 30
0.0
 11
372.558654594
 21
294.0314744587
 31
0.0
  0
ARC
  5
2D9
330
1F
100
AcDbEntity
  8
0
  6
CONTINUOUS
 62
     7
100
AcDbCircle
 10
372.5586666953
 20
295.0314656867
 30
0.0
 40
1.0
100
AcDbArc
 50
270.0
 51
90.0
  0
LINE
  5
2DA
330
1F
100
AcDbEntity
  8
0
  6
CONTINUOUS
 62
     7
100
AcDbLine
 10
371.7974734779
 20
292.0314406033
 30
0.0
 11
298.9895058151
 21
292.0314406033
 31
0.0
  0
ARC
  5
2DB
330
1F
100
AcDbEntity
  8
0
  6
CONTINUOUS
 62
     7
100
AcDbCircle
 10
298.9895115285
 20
291.0314656867
 30
0.0
 40
1.0
100
AcDbArc
 50
90.0
 51
270.0
  0
LINE
  5
2DC
330
1F
100
AcDbEntity
  8
0
  6
CONTINUOUS
 62
     7
100
AcDbLine
 10
298.9895058151
 20
290.0314663525
 30
0.0
 11
371.7974734779
 21
290.0314663525
 31
0.0
  0
ARC
  5
2DD
330
1F
100
AcDbEntity
  8
0
  6
CONTINUOUS
 62
     7
100
AcDbCircle
 10
371.7974781255
 20
291.0314656867
 30
0.0
 40
1.0
100
AcDbArc
 50
270.0
 51
90.0
  0
LINE
  5
2DE
330
1F
100
AcDbEntity
  8
0
  6
CONTINUOUS
 62
     7
100
AcDbLine
 10
370.5680680748
 20
288.0314921017
 30
0.0
 11
300.2189410205
 21
288.0314921017
 31
0.0
  0
ARC
  5
2DF
330
1F
100
AcDbEntity
  8
0
  6
CONTINUOUS
 62
     7
100
AcDbCircle
 10
300.2189301531
 20
287.0314656867
 30
0.0
 40
1.000000000000057
100
AcDbArc
 50
90.0
 51
270.0
  0
LINE
  5
2E0
330
1F
100
AcDbEntity
  8
0
  6
CONTINUOUS
 62
     7
100
AcDbLine
 10
300.2189410205
 20
286.0314582462
 30
0.0
 11
370.5680680748
 21
286.0314582462
 31
0.0
  0
ARC
  5
2E1
330
1F
100
AcDbEntity
  8
0
  6
CONTINUOUS
 62
     7
100
AcDbCircle
 10
370.5680595009
 20
287.0314656867
 30
0.0
 40
1.000000000000057
100
AcDbArc
 50
270.0
 51
90.0
  0
LINE
  5
2E2
330
1F
100
AcDbEntity
  8
0
  6
CONTINUOUS
 62
     7
100
AcDbLine
 10
368.8187909599
 20
284.0314839954
 30
0.0
 11
301.9682181354
 21
284.0314839954
 31
0.0
  0
ARC
  5
2E3
330
1F
100
AcDbEntity
  8
0
  6
CONTINUOUS
 62
     7
100
AcDbCircle
 10
301.9682050003
 20
283.0314656867
 30
0.0
 40
1.0
100
AcDbArc
 50
90.0
 51
270.0
  0
LINE
  5
2E4
330
1F
100
AcDbEntity
  8
0
  6
CONTINUOUS
 62
     7
100
AcDbLine
 10
301.9682181354
 20
282.03145014
 30
0.0
 11
368.8187909599
 21
282.03145014
 31
0.0
  0
ARC
  5
2E5
330
1F
100
AcDbEntity
  8
0
  6
CONTINUOUS
 62
     7
100
AcDbCircle
 10
368.8187846537
 20
283.0314656867
 30
0.0
 40
1.0
100
AcDbArc
 50
270.0
 51
90.0
  0
LINE
  5
2E6
330
1F
100
AcDbEntity
  8
0
  6
CONTINUOUS
 62
     7
100
AcDbLine
 10
366.4619637008
 20
280.0314758892
 30
0.0
 11
304.3250155921
 21
280.0314758892
 31
0.0
  0
ARC
  5
2E7
330
1F
100
AcDbEntity
  8
0
  6
CONTINUOUS
 62
     7
100
AcDbCircle
 10
304.3250220612
 20
279.0314656867
 30
0.0
 40
1.0
100
AcDbArc
 50
90.0
 51
270.0
  0
LINE
  5
2E8
330
1F
100
AcDbEntity
  8
0
  6
CONTINUOUS
 62
     7
100
AcDbLine
 10
304.3250155921
 20
278.0314420338
 30
0.0
 11
366.4619637008
 21
278.0314420338
 31
0.0
  0
ARC
  5
2E9
330
1F
100
AcDbEntity
  8
0
  6
CONTINUOUS
 62
     7
100
AcDbCircle
 10
366.4619675928
 20
279.0314656867
 30
0.0
 40
1.0
100
AcDbArc
 50
270.0
 51
90.0
  0
LINE
  5
2EA
330
1F
100
AcDbEntity
  8
0
  6
CONTINUOUS
 62
     7
100
AcDbLine
 10
363.3443427558
 20
276.031467783
 30
0.0
 11
307.4426365371
 21
276.031467783
 31
0.0
  0
ARC
  5
2EB
330
1F
100
AcDbEntity
  8
0
  6
CONTINUOUS
 62
     7
100
AcDbCircle
 10
307.4426451082
 20
275.0314656867
 30
0.0
 40
1.0
100
AcDbArc
 50
90.0
 51
270.0
  0
LINE
  5
2EC
330
1F
100
AcDbEntity
  8
0
  6
CONTINUOUS
 62
     7
100
AcDbLine
 10
307.4426365371
 20
274.0314935322
 30
0.0
 11
363.3443427558
 21
274.0314935322
 31
0.0
  0
ARC
  5
2ED
330
1F
100
AcDbEntity
  8
0
  6
CONTINUOUS
 62
     7
100
AcDbCircle
 10
363.3443445457
 20
275.0314656867
 30
0.0
 40
1.0
100
AcDbArc
 50
270.0
 51
90.0
  0
LINE
  5
2EE
330
1F
100
AcDbEntity
  8
0
  6
CONTINUOUS
 62
     7
100
AcDbLine
 10
359.1684711452
 20
272.0314596768
 30
0.0
 11
311.6185081478
 21
272.0314596768
 31
0.0
  0
ARC
  5
2EF
330
1F
100
AcDbEntity
  8
0
  6
CONTINUOUS
 62
     7
100
AcDbCircle
 10
311.6185079711
 20
271.0314656867
 30
0.0
 40
1.0
100
AcDbArc
 50
90.0
 51
270.0
  0
LINE
  5
2F0
330
1F
100
AcDbEntity
  8
0
  6
CONTINUOUS
 62
     7
100
AcDbLine
 10
311.6185081478
 20
270.031485426
 30
0.0
 11
359.1684711452
 21
270.031485426
 31
0.0
  0
ARC
  5
2F1
330
1F
100
AcDbEntity
  8
0
  6
CONTINUOUS
 62
     7
100
AcDbCircle
 10
359.1684816829
 20
271.0314656867
 30
0.0
 40
1.0
100
AcDbArc
 50
270.0
 51
90.0
  0
LINE
  5
2F2
330
1F
100
AcDbEntity
  8
0
  6
CONTINUOUS
 62
     7
100
AcDbLine
 10
353.2049966331
 20
268.0314515705
 30
0.0
 11
317.5819826599
 21
268.0314515705
 31
0.0
  0
ARC
  5
2F3
330
1F
100
AcDbEntity
  8
0
  6
CONTINUOUS
 62
     7
100
AcDbCircle
 10
317.5819816964
 20
267.0314656867
 30
0.0
 40
1.0
100
AcDbArc
 50
90.0
 51
270.0
  0
LINE
  5
2F4
330
1F
100
AcDbEntity
  8
0
  6
CONTINUOUS
 62
     7
100
AcDbLine
 10
317.5819826599
 20
266.0314773197
 30
0.0
 11
353.2049966331
 21
266.0314773197
 31
0.0
  0
ARC
  5
2F5
330
1F
100
AcDbEntity
  8
0
  6
CONTINUOUS
 62
     7
100
AcDbCircle
 10
353.2050079576
 20
267.0314656867
 30
0.0
 40
1.0
100
AcDbArc
 50
270.0
 51
90.0
  0
LINE
  5
2F6
330
1F
100
AcDbEntity
  8
0
  6
CONTINUOUS
 62
     7
100
AcDbLine
 10
308.5345042224
 20
-70.8693529491
 30
0.0
 11
309.9109840866
 21
-70.8693529491
 31
0.0
  0
LINE
  5
2F7
330
1F
100
AcDbEntity
  8
0
  6
CONTINUOUS
 62
     7
100
AcDbLine
 10
309.9109840866
 20
-70.8693529491
 30
0.0
 11
309.9109840866
 21
-67.6193500881
 31
0.0
  0
LINE
  5
2F8
330
1F
100
AcDbEntity
  8
0
  6
CONTINUOUS
 62
     7
100
AcDbLine
 10
309.9109840866
 20
-67.6193500881
 30
0.0
 11
303.8759840007
 21
-67.6193500881
 31
0.0
  0
LINE
  5
2F9
330
1F
100
AcDbEntity
  8
0
  6
CONTINUOUS
 62
     7
100
AcDbLine
 10
303.8759840007
 20
-67.6193500881
 30
0.0
 11
303.8759840007
 21
-70.8693529491
 31
0.0
  0
LINE
  5
2FA
330
1F
100
AcDbEntity
  8
0
  6
CONTINUOUS
 62
     7
100
AcDbLine
 10
303.8759840007
 20
-70.8693529491
 30
0.0
 11
305.2524936672
 21
-70.8693529491
 31
0.0
  0
LINE
  5
2FB
330
1F
100
AcDbEntity
  8
0
  6
CONTINUOUS
 62
     7
100
AcDbLine
 10
305.2524936672
 20
-70.8693529491
 30
0.0
 11
305.2524936672
 21
-74.6543671017
 31
0.0
  0
LINE
  5
2FC
330
1F
100
AcDbEntity
  8
0
  6
CONTINUOUS
 62
     7
100
AcDbLine
 10
305.2524936672
 20
-74.6543671017
 30
0.0
 11
281.0301495071
 21
-74.6543671017
 31
0.0
  0
LINE
  5
2FD
330
1F
100
AcDbEntity
  8
0
  6
CONTINUOUS
 62
     7
100
AcDbLine
 10
281.0301495071
 20
-74.6543671017
 30
0.0
 11
281.0301495071
 21
-77.6543582802
 31
0.0
  0
LINE
  5
2FE
330
1F
100
AcDbEntity
  8
0
  6
CONTINUOUS
 62
     7
100
AcDbLine
 10
229.3934834476
 20
-77.6543582802
 30
0.0
 11
281.0301495071
 21
-77.6543582802
 31
0.0
  0
LINE
  5
2FF
330
1F
100
AcDbEntity
  8
0
  6
CONTINUOUS
 62
     7
100
AcDbLine
 10
229.3934834476
 20
-77.6543582802
 30
0.0
 11
229.3934834476
 21
-47.1543933277
 31
0.0
  0
LINE
  5
300
330
1F
100
AcDbEntity
  8
0
  6
CONTINUOUS
 62
     7
100
AcDbLine
 10
226.3934922691
 20
-47.1543933277
 30
0.0
 11
229.3934834476
 21
-47.1543933277
 31
0.0
  0
LINE
  5
301
330
1F
100
AcDbEntity
  8
0
  6
CONTINUOUS
 62
     7
100
AcDbLine
 10
226.3934922691
 20
-19.7143818264
 30
0.0
 11
226.3934922691
 21
-47.1543933277
 31
0.0
  0
LINE
  5
302
330
1F
100
AcDbEntity
  8
0
  6
CONTINUOUS
 62
     7
100
AcDbLine
 10
229.3934834476
 20
-19.7143818264
 30
0.0
 11
226.3934922691
 21
-19.7143818264
 31
0.0
  0
LINE
  5
303
330
1F
100
AcDbEntity
  8
0
  6
CONTINUOUS
 62
     7
100
AcDbLine
 10
229.3934834476
 20
-19.7143818264
 30
0.0
 11
229.3934834476
 21
-7.5753594761
 31
0.0
  0
LINE
  5
304
330
1F
100
AcDbEntity
  8
0
  6
CONTINUOUS
 62
     7
100
AcDbLine
 10
229.3934834476
 20
-7.5753594761
 30
0.0
 11
233.1784976001
 21
-7.5753594761
 31
0.0
  0
LINE
  5
305
330
1F
100
AcDbEntity
  8
0
  6
CONTINUOUS
 62
     7
100
AcDbLine
 10
233.1784976001
 20
-7.5753594761
 30
0.0
 11
233.1784976001
 21
-8.9518691425
 31
0.0
  0
LINE
  5
306
330
1F
100
AcDbEntity
  8
0
  6
CONTINUOUS
 62
     7
100
AcDbLine
 10
233.1784976001
 20
-8.9518691425
 30
0.0
 11
236.4285004612
 21
-8.9518691425
 31
0.0
  0
LINE
  5
307
330
1F
100
AcDbEntity
  8
0
  6
CONTINUOUS
 62
     7
100
AcDbLine
 10
236.4285004612
 20
-8.9518691425
 30
0.0
 11
236.4285004612
 21
-2.9168392544
 31
0.0
  0
LINE
  5
308
330
1F
100
AcDbEntity
  8
0
  6
CONTINUOUS
 62
     7
100
AcDbLine
 10
236.4285004612
 20
-2.9168392544
 30
0.0
 11
233.1784976001
 21
-2.9168392544
 31
0.0
  0
LINE
  5
309
330
1F
100
AcDbEntity
  8
0
  6
CONTINUOUS
 62
     7
100
AcDbLine
 10
233.1784976001
 20
-2.9168392544
 30
0.0
 11
233.1784976001
 21
-4.2933489208
 31
0.0
  0
LINE
  5
30A
330
1F
100
AcDbEntity
  8
0
  6
CONTINUOUS
 62
     7
100
AcDbLine
 10
233.1784976001
 20
-4.2933489208
 30
0.0
 11
229.3934834476
 21
-4.2933489208
 31
0.0
  0
LINE
  5
30B
330
1F
100
AcDbEntity
  8
0
  6
CONTINUOUS
 62
     7
100
AcDbLine
 10
229.3934834476
 20
-4.2933489208
 30
0.0
 11
229.3934834476
 21
7.8456138249
 31
0.0
  0
LINE
  5
30C
330
1F
100
AcDbEntity
  8
0
  6
CONTINUOUS
 62
     7
100
AcDbLine
 10
226.3934922691
 20
7.8456138249
 30
0.0
 11
229.3934834476
 21
7.8456138249
 31
0.0
  0
LINE
  5
30D
330
1F
100
AcDbEntity
  8
0
  6
CONTINUOUS
 62
     7
100
AcDbLine
 10
226.3934922691
 20
35.2856253262
 30
0.0
 11
226.3934922691
 21
7.8456138249
 31
0.0
  0
LINE
  5
30E
330
1F
100
AcDbEntity
  8
0
  6
CONTINUOUS
 62
     7
100
AcDbLine
 10
229.3934834476
 20
35.2856253262
 30
0.0
 11
226.3934922691
 21
35.2856253262
 31
0.0
  0
LINE
  5
30F
330
1F
100
AcDbEntity
  8
0
  6
CONTINUOUS
 62
     7
100
AcDbLine
 10
229.3934834476
 20
35.2856253262
 30
0.0
 11
229.3934834476
 21
37.2856591816
 31
0.0
  0
LINE
  5
310
330
1F
100
AcDbEntity
  8
0
  6
CONTINUOUS
 62
     7
100
AcDbLine
 10
229.3934834476
 20
37.2856591816
 30
0.0
 11
248.5184979911
 21
37.2856591816
 31
0.0
  0
LINE
  5
311
330
1F
100
AcDbEntity
  8
0
  6
CONTINUOUS
 62
     7
100
AcDbLine
 10
248.5184979911
 20
37.2856591816
 30
0.0
 11
248.5184979911
 21
37.785622942
 31
0.0
  0
LINE
  5
312
330
1F
100
AcDbEntity
  8
0
  6
CONTINUOUS
 62
     7
100
AcDbLine
 10
248.5184979911
 20
37.785622942
 30
0.0
 11
229.3934834476
 21
37.785622942
 31
0.0
  0
LINE
  5
313
330
1F
100
AcDbEntity
  8
0
  6
CONTINUOUS
 62
     7
100
AcDbLine
 10
229.3934834476
 20
37.785622942
 30
0.0
 11
229.3934834476
 21
41.2856076832
 31
0.0
  0
LINE
  5
314
330
1F
100
AcDbEntity
  8
0
  6
CONTINUOUS
 62
     7
100
AcDbLine
 10
229.3934834476
 20
41.2856076832
 30
0.0
 11
248.5184979911
 21
41.2856076832
 31
0.0
  0
LINE
  5
315
330
1F
100
AcDbEntity
  8
0
  6
CONTINUOUS
 62
     7
100
AcDbLine
 10
248.5184979911
 20
41.2856076832
 30
0.0
 11
248.5184979911
 21
41.7856310482
 31
0.0
  0
LINE
  5
316
330
1F
100
AcDbEntity
  8
0
  6
CONTINUOUS
 62
     7
100
AcDbLine
 10
248.5184979911
 20
41.7856310482
 30
0.0
 11
229.3934834476
 21
41.7856310482
 31
0.0
  0
LINE
  5
317
330
1F
100
AcDbEntity
  8
0
  6
CONTINUOUS
 62
     7
100
AcDbLine
 10
229.3934834476
 20
41.7856310482
 30
0.0
 11
229.3934834476
 21
45.2856157894
 31
0.0
  0
LINE
  5
318
330
1F
100
AcDbEntity
  8
0
  6
CONTINUOUS
 62
     7
100
AcDbLine
 10
229.3934834476
 20
45.2856157894
 30
0.0
 11
248.5184979911
 21
45.2856157894
 31
0.0
  0
LINE
  5
319
330
1F
100
AcDbEntity
  8
0
  6
CONTINUOUS
 62
     7
100
AcDbLine
 10
248.5184979911
 20
45.2856157894
 30
0.0
 11
248.5184979911
 21
45.7856391544
 31
0.0
  0
LINE
  5
31A
330
1F
100
AcDbEntity
  8
0
  6
CONTINUOUS
 62
     7
100
AcDbLine
 10
248.5184979911
 20
45.7856391544
 30
0.0
 11
229.3934834476
 21
45.7856391544
 31
0.0
  0
LINE
  5
31B
330
1F
100
AcDbEntity
  8
0
  6
CONTINUOUS
 62
     7
100
AcDbLine
 10
229.3934834476
 20
45.7856391544
 30
0.0
 11
229.3934834476
 21
49.2856238957
 31
0.0
  0
LINE
  5
31C
330
1F
100
AcDbEntity
  8
0
  6
CONTINUOUS
 62
     7
100
AcDbLine
 10
229.3934834476
 20
49.2856238957
 30
0.0
 11
248.5184979911
 21
49.2856238957
 31
0.0
  0
LINE
  5
31D
330
1F
100
AcDbEntity
  8
0
  6
CONTINUOUS
 62
     7
100
AcDbLine
 10
248.5184979911
 20
49.2856238957
 30
0.0
 11
248.5184979911
 21
49.7856472607
 31
0.0
  0
LINE
  5
31E
330
1F
100
AcDbEntity
  8
0
  6
CONTINUOUS
 62
     7
100
AcDbLine
 10
248.5184979911
 20
49.7856472607
 30
0.0
 11
229.3934834476
 21
49.7856472607
 31
0.0
  0
LINE
  5
31F
330
1F
100
AcDbEntity
  8
0
  6
CONTINUOUS
 62
     7
100
AcDbLine
 10
229.3934834476
 20
49.7856472607
 30
0.0
 11
229.3934834476
 21
53.2856320019
 31
0.0
  0
LINE
  5
320
330
1F
100
AcDbEntity
  8
0
  6
CONTINUOUS
 62
     7
100
AcDbLine
 10
229.3934834476
 20
53.2856320019
 30
0.0
 11
248.5184979911
 21
53.2856320019
 31
0.0
  0
LINE
  5
321
330
1F
100
AcDbEntity
  8
0
  6
CONTINUOUS
 62
     7
100
AcDbLine
 10
248.5184979911
 20
53.2856320019
 30
0.0
 11
248.5184979911
 21
53.7856553669
 31
0.0
  0
LINE
  5
322
330
1F
100
AcDbEntity
  8
0
  6
CONTINUOUS
 62
     7
100
AcDbLine
 10
248.5184979911
 20
53.7856553669
 30
0.0
 11
229.3934834476
 21
53.7856553669
 31
0.0
  0
LINE
  5
323
330
1F
100
AcDbEntity
  8
0
  6
CONTINUOUS
 62
     7
100
AcDbLine
 10
229.3934834476
 20
53.7856553669
 30
0.0
 11
229.3934834476
 21
57.2856401081
 31
0.0
  0
LINE
  5
324
330
1F
100
AcDbEntity
  8
0
  6
CONTINUOUS
 62
     7
100
AcDbLine
 10
229.3934834476
 20
57.2856401081
 30
0.0
 11
248.5184979911
 21
57.2856401081
 31
0.0
  0
LINE
  5
325
330
1F
100
AcDbEntity
  8
0
  6
CONTINUOUS
 62
     7
100
AcDbLine
 10
248.5184979911
 20
57.2856401081
 30
0.0
 11
248.5184979911
 21
57.7856038685
 31
0.0
  0
LINE
  5
326
330
1F
100
AcDbEntity
  8
0
  6
CONTINUOUS
 62
     7
100
AcDbLine
 10
248.5184979911
 20
57.7856038685
 30
0.0
 11
229.3934834476
 21
57.7856038685
 31
0.0
  0
LINE
  5
327
330
1F
100
AcDbEntity
  8
0
  6
CONTINUOUS
 62
     7
100
AcDbLine
 10
229.3934834476
 20
57.7856038685
 30
0.0
 11
229.3934834476
 21
61.2856482144
 31
0.0
  0
LINE
  5
328
330
1F
100
AcDbEntity
  8
0
  6
CONTINUOUS
 62
     7
100
AcDbLine
 10
229.3934834476
 20
61.2856482144
 30
0.0
 11
248.5184979911
 21
61.2856482144
 31
0.0
  0
LINE
  5
329
330
1F
100
AcDbEntity
  8
0
  6
CONTINUOUS
 62
     7
100
AcDbLine
 10
248.5184979911
 20
61.2856482144
 30
0.0
 11
248.5184979911
 21
61.7856119747
 31
0.0
  0
LINE
  5
32A
330
1F
100
AcDbEntity
  8
0
  6
CONTINUOUS
 62
     7
100
AcDbLine
 10
248.5184979911
 20
61.7856119747
 30
0.0
 11
229.3934834476
 21
61.7856119747
 31
0.0
  0
LINE
  5
32B
330
1F
100
AcDbEntity
  8
0
  6
CONTINUOUS
 62
     7
100
AcDbLine
 10
229.3934834476
 20
61.7856119747
 30
0.0
 11
229.3934834476
 21
65.2856563206
 31
0.0
  0
LINE
  5
32C
330
1F
100
AcDbEntity
  8
0
  6
CONTINUOUS
 62
     7
100
AcDbLine
 10
229.3934834476
 20
65.2856563206
 30
0.0
 11
248.5184979911
 21
65.2856563206
 31
0.0
  0
LINE
  5
32D
330
1F
100
AcDbEntity
  8
0
  6
CONTINUOUS
 62
     7
100
AcDbLine
 10
248.5184979911
 20
65.2856563206
 30
0.0
 11
248.5184979911
 21
65.785620081
 31
0.0
  0
LINE
  5
32E
330
1F
100
AcDbEntity
  8
0
  6
CONTINUOUS
 62
     7
100
AcDbLine
 10
248.5184979911
 20
65.785620081
 30
0.0
 11
229.3934834476
 21
65.785620081
 31
0.0
  0
LINE
  5
32F
330
1F
100
AcDbEntity
  8
0
  6
CONTINUOUS
 62
     7
100
AcDbLine
 10
229.3934834476
 20
65.785620081
 30
0.0
 11
229.3934834476
 21
66.8215488072
 31
0.0
  0
LINE
  5
330
330
1F
100
AcDbEntity
  8
0
  6
CONTINUOUS
 62
     7
100
AcDbLine
 10
229.3934834476
 20
66.8215488072
 30
0.0
 11
226.3934922691
 21
66.8215488072
 31
0.0
  0
LINE
  5
331
330
1F
100
AcDbEntity
  8
0
  6
CONTINUOUS
 62
     7
100
AcDbLine
 10
226.3934922691
 20
66.8215488072
 30
0.0
 11
226.3934922691
 21
88.7615417118
 31
0.0
  0
LINE
  5
332
330
1F
100
AcDbEntity
  8
0
  6
CONTINUOUS
 62
     7
100
AcDbLine
 10
226.3934922691
 20
88.7615417118
 30
0.0
 11
229.3934834476
 21
88.7615417118
 31
0.0
  0
LINE
  5
333
330
1F
100
AcDbEntity
  8
0
  6
CONTINUOUS
 62
     7
100
AcDbLine
 10
229.3934834476
 20
88.7615417118
 30
0.0
 11
229.3934834476
 21
110.7615564938
 31
0.0
  0
LINE
  5
334
330
1F
100
AcDbEntity
  8
0
  6
CONTINUOUS
 62
     7
100
AcDbLine
 10
229.3934834476
 20
110.7615564938
 30
0.0
 11
226.3934922691
 21
110.7615564938
 31
0.0
  0
LINE
  5
335
330
1F
100
AcDbEntity
  8
0
  6
CONTINUOUS
 62
     7
100
AcDbLine
 10
226.3934922691
 20
110.7615564938
 30
0.0
 11
226.3934922691
 21
132.7015493984
 31
0.0
  0
LINE
  5
336
330
1F
100
AcDbEntity
  8
0
  6
CONTINUOUS
 62
     7
100
AcDbLine
 10
226.3934922691
 20
132.7015493984
 30
0.0
 11
229.3934834476
 21
132.7015493984
 31
0.0
  0
LINE
  5
337
330
1F
100
AcDbEntity
  8
0
  6
CONTINUOUS
 62
     7
100
AcDbLine
 10
229.3934834476
 20
132.7015493984
 30
0.0
 11
229.3934834476
 21
154.7015641804
 31
0.0
  0
LINE
  5
338
330
1F
100
AcDbEntity
  8
0
  6
CONTINUOUS
 62
     7
100
AcDbLine
 10
229.3934834476
 20
154.7015641804
 30
0.0
 11
226.3934922691
 21
154.7015641804
 31
0.0
  0
LINE
  5
339
330
1F
100
AcDbEntity
  8
0
  6
CONTINUOUS
 62
     7
100
AcDbLine
 10
226.3934922691
 20
154.7015641804
 30
0.0
 11
226.3934922691
 21
176.641557085
 31
0.0
  0
LINE
  5
33A
330
1F
100
AcDbEntity
  8
0
  6
CONTINUOUS
 62
     7
100
AcDbLine
 10
226.3934922691
 20
176.641557085
 30
0.0
 11
229.3934834476
 21
176.641557085
 31
0.0
  0
LINE
  5
33B
330
1F
100
AcDbEntity
  8
0
  6
CONTINUOUS
 62
     7
100
AcDbLine
 10
229.3934834476
 20
176.641557085
 30
0.0
 11
229.3934834476
 21
178.6415313358
 31
0.0
  0
LINE
  5
33C
330
1F
100
AcDbEntity
  8
0
  6
CONTINUOUS
 62
     7
100
AcDbLine
 10
229.3934834476
 20
178.6415313358
 30
0.0
 11
248.0185044284
 21
178.6415313358
 31
0.0
  0
LINE
  5
33D
330
1F
100
AcDbEntity
  8
0
  6
CONTINUOUS
 62
     7
100
AcDbLine
 10
248.0185044284
 20
178.6415313358
 30
0.0
 11
248.0185044284
 21
179.1415547009
 31
0.0
  0
LINE
  5
33E
330
1F
100
AcDbEntity
  8
0
  6
CONTINUOUS
 62
     7
100
AcDbLine
 10
248.0185044284
 20
179.1415547009
 30
0.0
 11
229.3934834476
 21
179.1415547009
 31
0.0
  0
LINE
  5
33F
330
1F
100
AcDbEntity
  8
0
  6
CONTINUOUS
 62
     7
100
AcDbLine
 10
229.3934834476
 20
179.1415547009
 30
0.0
 11
229.3934834476
 21
182.6415394421
 31
0.0
  0
LINE
  5
340
330
1F
100
AcDbEntity
  8
0
  6
CONTINUOUS
 62
     7
100
AcDbLine
 10
229.3934834476
 20
182.6415394421
 30
0.0
 11
248.0185044284
 21
182.6415394421
 31
0.0
  0
LINE
  5
341
330
1F
100
AcDbEntity
  8
0
  6
CONTINUOUS
 62
     7
100
AcDbLine
 10
248.0185044284
 20
182.6415394421
 30
0.0
 11
248.0185044284
 21
183.1415628071
 31
0.0
  0
LINE
  5
342
330
1F
100
AcDbEntity
  8
0
  6
CONTINUOUS
 62
     7
100
AcDbLine
 10
248.0185044284
 20
183.1415628071
 30
0.0
 11
229.3934834476
 21
183.1415628071
 31
0.0
  0
LINE
  5
343
330
1F
100
AcDbEntity
  8
0
  6
CONTINUOUS
 62
     7
100
AcDbLine
 10
229.3934834476
 20
183.1415628071
 30
0.0
 11
229.3934834476
 21
186.6415475483
 31
0.0
  0
LINE
  5
344
330
1F
100
AcDbEntity
  8
0
  6
CONTINUOUS
 62
     7
100
AcDbLine
 10
229.3934834476
 20
186.6415475483
 30
0.0
 11
248.0185044284
 21
186.6415475483
 31
0.0
  0
LINE
  5
345
330
1F
100
AcDbEntity
  8
0
  6
CONTINUOUS
 62
     7
100
AcDbLine
 10
248.0185044284
 20
186.6415475483
 30
0.0
 11
248.0185044284
 21
187.1415709133
 31
0.0
  0
LINE
  5
346
330
1F
100
AcDbEntity
  8
0
  6
CONTINUOUS
 62
     7
100
AcDbLine
 10
248.0185044284
 20
187.1415709133
 30
0.0
 11
229.3934834476
 21
187.1415709133
 31
0.0
  0
LINE
  5
347
330
1F
100
AcDbEntity
  8
0
  6
CONTINUOUS
 62
     7
100
AcDbLine
 10
229.3934834476
 20
187.1415709133
 30
0.0
 11
229.3934834476
 21
190.6415556545
 31
0.0
  0
LINE
  5
348
330
1F
100
AcDbEntity
  8
0
  6
CONTINUOUS
 62
     7
100
AcDbLine
 10
229.3934834476
 20
190.6415556545
 30
0.0
 11
248.0185044284
 21
190.6415556545
 31
0.0
  0
LINE
  5
349
330
1F
100
AcDbEntity
  8
0
  6
CONTINUOUS
 62
     7
100
AcDbLine
 10
248.0185044284
 20
190.6415556545
 30
0.0
 11
248.0185044284
 21
191.1415790196
 31
0.0
  0
LINE
  5
34A
330
1F
100
AcDbEntity
  8
0
  6
CONTINUOUS
 62
     7
100
AcDbLine
 10
248.0185044284
 20
191.1415790196
 30
0.0
 11
229.3934834476
 21
191.1415790196
 31
0.0
  0
LINE
  5
34B
330
1F
100
AcDbEntity
  8
0
  6
CONTINUOUS
 62
     7
100
AcDbLine
 10
229.3934834476
 20
191.1415790196
 30
0.0
 11
229.3934834476
 21
192.5295327778
 31
0.0
  0
LINE
  5
34C
330
1F
100
AcDbEntity
  8
0
  6
CONTINUOUS
 62
     7
100
AcDbLine
 10
229.3934834476
 20
192.5295327778
 30
0.0
 11
226.3934922691
 21
192.5295327778
 31
0.0
  0
LINE
  5
34D
330
1F
100
AcDbEntity
  8
0
  6
CONTINUOUS
 62
     7
100
AcDbLine
 10
226.3934922691
 20
192.5295327778
 30
0.0
 11
226.3934922691
 21
205.8028315182
 31
0.0
  0
LINE
  5
34E
330
1F
100
AcDbEntity
  8
0
  6
CONTINUOUS
 62
     7
100
AcDbLine
 10
226.3934922691
 20
205.8028315182
 30
0.0
 11
229.3934834476
 21
205.8028315182
 31
0.0
  0
LINE
  5
34F
330
1F
100
AcDbEntity
  8
0
  6
CONTINUOUS
 62
     7
100
AcDbLine
 10
229.3934834476
 20
205.8028315182
 30
0.0
 11
229.3934834476
 21
210.8285163517
 31
0.0
  0
LINE
  5
350
330
1F
100
AcDbEntity
  8
0
  6
CONTINUOUS
 62
     7
100
AcDbLine
 10
229.3934834476
 20
210.8285163517
 30
0.0
 11
233.1784976001
 21
210.8285163517
 31
0.0
  0
LINE
  5
351
330
1F
100
AcDbEntity
  8
0
  6
CONTINUOUS
 62
     7
100
AcDbLine
 10
233.1784976001
 20
210.8285163517
 30
0.0
 11
233.1784976001
 21
209.4520066853
 31
0.0
  0
LINE
  5
352
330
1F
100
AcDbEntity
  8
0
  6
CONTINUOUS
 62
     7
100
AcDbLine
 10
233.1784976001
 20
209.4520066853
 30
0.0
 11
236.4285004612
 21
209.4520066853
 31
0.0
  0
LINE
  5
353
330
1F
100
AcDbEntity
  8
0
  6
CONTINUOUS
 62
     7
100
AcDbLine
 10
236.4285004612
 20
209.4520066853
 30
0.0
 11
236.4285004612
 21
215.4870365734
 31
0.0
  0
LINE
  5
354
330
1F
100
AcDbEntity
  8
0
  6
CONTINUOUS
 62
     7
100
AcDbLine
 10
236.4285004612
 20
215.4870365734
 30
0.0
 11
233.1784976001
 21
215.4870365734
 31
0.0
  0
LINE
  5
355
330
1F
100
AcDbEntity
  8
0
  6
CONTINUOUS
 62
     7
100
AcDbLine
 10
233.1784976001
 20
215.4870365734
 30
0.0
 11
233.1784976001
 21
214.110526907
 31
0.0
  0
LINE
  5
356
330
1F
100
AcDbEntity
  8
0
  6
CONTINUOUS
 62
     7
100
AcDbLine
 10
233.1784976001
 20
214.110526907
 30
0.0
 11
229.3934834476
 21
214.110526907
 31
0.0
  0
LINE
  5
357
330
1F
100
AcDbEntity
  8
0
  6
CONTINUOUS
 62
     7
100
AcDbLine
 10
229.3934834476
 20
214.110526907
 30
0.0
 11
229.3934834476
 21
219.1362117405
 31
0.0
  0
LINE
  5
358
330
1F
100
AcDbEntity
  8
0
  6
CONTINUOUS
 62
     7
100
AcDbLine
 10
226.3934922691
 20
219.1362117405
 30
0.0
 11
229.3934834476
 21
219.1362117405
 31
0.0
  0
LINE
  5
359
330
1F
100
AcDbEntity
  8
0
  6
CONTINUOUS
 62
     7
100
AcDbLine
 10
226.3934922691
 20
232.4095104809
 30
0.0
 11
226.3934922691
 21
219.1362117405
 31
0.0
  0
LINE
  5
35A
330
1F
100
AcDbEntity
  8
0
  6
CONTINUOUS
 62
     7
100
AcDbLine
 10
229.3934834476
 20
232.4095104809
 30
0.0
 11
226.3934922691
 21
232.4095104809
 31
0.0
  0
LINE
  5
35B
330
1F
100
AcDbEntity
  8
0
  6
CONTINUOUS
 62
     7
100
AcDbLine
 10
229.3934834476
 20
232.4095104809
 30
0.0
 11
229.3934834476
 21
234.4095443363
 31
0.0
  0
LINE
  5
35C
330
1F
100
AcDbEntity
  8
0
  6
CONTINUOUS
 62
     7
100
AcDbLine
 10
229.3934834476
 20
234.4095443363
 30
0.0
 11
248.5184979911
 21
234.4095443363
 31
0.0
  0
LINE
  5
35D
330
1F
100
AcDbEntity
  8
0
  6
CONTINUOUS
 62
     7
100
AcDbLine
 10
248.5184979911
 20
234.4095443363
 30
0.0
 11
248.5184979911
 21
234.9095080967
 31
0.0
  0
LINE
  5
35E
330
1F
100
AcDbEntity
  8
0
  6
CONTINUOUS
 62
     7
100
AcDbLine
 10
248.5184979911
 20
234.9095080967
 30
0.0
 11
229.3934834476
 21
234.9095080967
 31
0.0
  0
LINE
  5
35F
330
1F
100
AcDbEntity
  8
0
  6
CONTINUOUS
 62
     7
100
AcDbLine
 10
229.3934834476
 20
234.9095080967
 30
0.0
 11
229.3934834476
 21
238.4094928379
 31
0.0
  0
LINE
  5
360
330
1F
100
AcDbEntity
  8
0
  6
CONTINUOUS
 62
     7
100
AcDbLine
 10
229.3934834476
 20
238.4094928379
 30
0.0
 11
248.5184979911
 21
238.4094928379
 31
0.0
  0
LINE
  5
361
330
1F
100
AcDbEntity
  8
0
  6
CONTINUOUS
 62
     7
100
AcDbLine
 10
248.5184979911
 20
238.4094928379
 30
0.0
 11
248.5184979911
 21
238.9095162029
 31
0.0
  0
LINE
  5
362
330
1F
100
AcDbEntity
  8
0
  6
CONTINUOUS
 62
     7
100
AcDbLine
 10
248.5184979911
 20
238.9095162029
 30
0.0
 11
229.3934834476
 21
238.9095162029
 31
0.0
  0
LINE
  5
363
330
1F
100
AcDbEntity
  8
0
  6
CONTINUOUS
 62
     7
100
AcDbLine
 10
229.3934834476
 20
238.9095162029
 30
0.0
 11
229.3934834476
 21
242.4095009441
 31
0.0
  0
LINE
  5
364
330
1F
100
AcDbEntity
  8
0
  6
CONTINUOUS
 62
     7
100
AcDbLine
 10
229.3934834476
 20
242.4095009441
 30
0.0
 11
248.5184979911
 21
242.4095009441
 31
0.0
  0
LINE
  5
365
330
1F
100
AcDbEntity
  8
0
  6
CONTINUOUS
 62
     7
100
AcDbLine
 10
248.5184979911
 20
242.4095009441
 30
0.0
 11
248.5184979911
 21
242.9095243092
 31
0.0
  0
LINE
  5
366
330
1F
100
AcDbEntity
  8
0
  6
CONTINUOUS
 62
     7
100
AcDbLine
 10
248.5184979911
 20
242.9095243092
 30
0.0
 11
229.3934834476
 21
242.9095243092
 31
0.0
  0
LINE
  5
367
330
1F
100
AcDbEntity
  8
0
  6
CONTINUOUS
 62
     7
100
AcDbLine
 10
229.3934834476
 20
242.9095243092
 30
0.0
 11
229.3934834476
 21
246.4095090504
 31
0.0
  0
LINE
  5
368
330
1F
100
AcDbEntity
  8
0
  6
CONTINUOUS
 62
     7
100
AcDbLine
 10
229.3934834476
 20
246.4095090504
 30
0.0
 11
248.5184979911
 21
246.4095090504
 31
0.0
  0
LINE
  5
369
330
1F
100
AcDbEntity
  8
0
  6
CONTINUOUS
 62
     7
100
AcDbLine
 10
248.5184979911
 20
246.4095090504
 30
0.0
 11
248.5184979911
 21
246.9095324154
 31
0.0
  0
LINE
  5
36A
330
1F
100
AcDbEntity
  8
0
  6
CONTINUOUS
 62
     7
100
AcDbLine
 10
248.5184979911
 20
246.9095324154
 30
0.0
 11
229.3934834476
 21
246.9095324154
 31
0.0
  0
LINE
  5
36B
330
1F
100
AcDbEntity
  8
0
  6
CONTINUOUS
 62
     7
100
AcDbLine
 10
229.3934834476
 20
246.9095324154
 30
0.0
 11
229.3934834476
 21
250.4095171566
 31
0.0
  0
LINE
  5
36C
330
1F
100
AcDbEntity
  8
0
  6
CONTINUOUS
 62
     7
100
AcDbLine
 10
229.3934834476
 20
250.4095171566
 30
0.0
 11
248.5184979911
 21
250.4095171566
 31
0.0
  0
LINE
  5
36D
330
1F
100
AcDbEntity
  8
0
  6
CONTINUOUS
 62
     7
100
AcDbLine
 10
248.5184979911
 20
250.4095171566
 30
0.0
 11
248.5184979911
 21
250.9095405216
 31
0.0
  0
LINE
  5
36E
330
1F
100
AcDbEntity
  8
0
  6
CONTINUOUS
 62
     7
100
AcDbLine
 10
248.5184979911
 20
250.9095405216
 30
0.0
 11
229.3934834476
 21
250.9095405216
 31
0.0
  0
LINE
  5
36F
330
1F
100
AcDbEntity
  8
0
  6
CONTINUOUS
 62
     7
100
AcDbLine
 10
229.3934834476
 20
250.9095405216
 30
0.0
 11
229.3934834476
 21
254.4095252628
 31
0.0
  0
LINE
  5
370
330
1F
100
AcDbEntity
  8
0
  6
CONTINUOUS
 62
     7
100
AcDbLine
 10
229.3934834476
 20
254.4095252628
 30
0.0
 11
248.5184979911
 21
254.4095252628
 31
0.0
  0
LINE
  5
371
330
1F
100
AcDbEntity
  8
0
  6
CONTINUOUS
 62
     7
100
AcDbLine
 10
248.5184979911
 20
254.4095252628
 30
0.0
 11
248.5184979911
 21
254.9095486279
 31
0.0
  0
LINE
  5
372
330
1F
100
AcDbEntity
  8
0
  6
CONTINUOUS
 62
     7
100
AcDbLine
 10
248.5184979911
 20
254.9095486279
 30
0.0
 11
229.3934834476
 21
254.9095486279
 31
0.0
  0
LINE
  5
373
330
1F
100
AcDbEntity
  8
0
  6
CONTINUOUS
 62
     7
100
AcDbLine
 10
229.3934834476
 20
254.9095486279
 30
0.0
 11
229.3934834476
 21
256.0914491291
 31
0.0
  0
LINE
  5
374
330
1F
100
AcDbEntity
  8
0
  6
CONTINUOUS
 62
     7
100
AcDbLine
 10
229.3934834476
 20
256.0914491291
 30
0.0
 11
226.3934922691
 21
256.0914491291
 31
0.0
  0
LINE
  5
375
330
1F
100
AcDbEntity
  8
0
  6
CONTINUOUS
 62
     7
100
AcDbLine
 10
226.3934922691
 20
256.0914491291
 30
0.0
 11
226.3934922691
 21
283.597144949
 31
0.0
  0
LINE
  5
376
330
1F
100
AcDbEntity
  8
0
  6
CONTINUOUS
 62
     7
100
AcDbLine
 10
226.3934922691
 20
283.597144949
 30
0.0
 11
229.3934834476
 21
283.597144949
 31
0.0
  0
LINE
  5
377
330
1F
100
AcDbEntity
  8
0
  6
CONTINUOUS
 62
     7
100
AcDbLine
 10
229.3934834476
 20
283.597144949
 30
0.0
 11
229.3934834476
 21
295.7690094586
 31
0.0
  0
LINE
  5
378
330
1F
100
AcDbEntity
  8
0
  6
CONTINUOUS
 62
     7
100
AcDbLine
 10
229.3934834476
 20
295.7690094586
 30
0.0
 11
233.1784976001
 21
295.7690094586
 31
0.0
  0
LINE
  5
379
330
1F
100
AcDbEntity
  8
0
  6
CONTINUOUS
 62
     7
100
AcDbLine
 10
233.1784976001
 20
295.7690094586
 30
0.0
 11
233.1784976001
 21
294.3924997921
 31
0.0
  0
LINE
  5
37A
330
1F
100
AcDbEntity
  8
0
  6
CONTINUOUS
 62
     7
100
AcDbLine
 10
233.1784976001
 20
294.3924997921
 30
0.0
 11
236.4285004612
 21
294.3924997921
 31
0.0
  0
LINE
  5
37B
330
1F
100
AcDbEntity
  8
0
  6
CONTINUOUS
 62
     7
100
AcDbLine
 10
236.4285004612
 20
294.3924997921
 30
0.0
 11
236.4285004612
 21
300.4275296803
 31
0.0
  0
LINE
  5
37C
330
1F
100
AcDbEntity
  8
0
  6
CONTINUOUS
 62
     7
100
AcDbLine
 10
236.4285004612
 20
300.4275296803
 30
0.0
 11
233.1784976001
 21
300.4275296803
 31
0.0
  0
LINE
  5
37D
330
1F
100
AcDbEntity
  8
0
  6
CONTINUOUS
 62
     7
100
AcDbLine
 10
233.1784976001
 20
300.4275296803
 30
0.0
 11
233.1784976001
 21
299.0510200138
 31
0.0
  0
LINE
  5
37E
330
1F
100
AcDbEntity
  8
0
  6
CONTINUOUS
 62
     7
100
AcDbLine
 10
233.1784976001
 20
299.0510200138
 30
0.0
 11
229.3934834476
 21
299.0510200138
 31
0.0
  0
LINE
  5
37F
330
1F
100
AcDbEntity
  8
0
  6
CONTINUOUS
 62
     7
100
AcDbLine
 10
229.3934834476
 20
299.0510200138
 30
0.0
 11
229.3934834476
 21
311.2228845234
 31
0.0
  0
LINE
  5
380
330
1F
100
AcDbEntity
  8
0
  6
CONTINUOUS
 62
     7
100
AcDbLine
 10
229.3934834476
 20
311.2228845234
 30
0.0
 11
226.3934922691
 21
311.2228845234
 31
0.0
  0
LINE
  5
381
330
1F
100
AcDbEntity
  8
0
  6
CONTINUOUS
 62
     7
100
AcDbLine
 10
226.3934922691
 20
311.2228845234
 30
0.0
 11
226.3934922691
 21
338.7285803433
 31
0.0
  0
LINE
  5
382
330
1F
100
AcDbEntity
  8
0
  6
CONTINUOUS
 62
     7
100
AcDbLine
 10
226.3934922691
 20
338.7285803433
 30
0.0
 11
229.3934834476
 21
338.7285803433
 31
0.0
  0
LINE
  5
383
330
1F
100
AcDbEntity
  8
0
  6
CONTINUOUS
 62
     7
100
AcDbLine
 10
229.3934834476
 20
338.7285803433
 30
0.0
 11
229.3934834476
 21
366.2942384358
 31
0.0
  0
LINE
  5
384
330
1F
100
AcDbEntity
  8
0
  6
CONTINUOUS
 62
     7
100
AcDbLine
 10
281.0901713844
 20
369.2942594166
 30
0.0
 11
281.0901713844
 21
366.2942384358
 31
0.0
  0
LINE
  5
385
330
1F
100
AcDbEntity
  8
0
  6
CONTINUOUS
 62
     7
100
AcDbLine
 10
332.6968265052
 20
369.2942594166
 30
0.0
 11
281.0901713844
 21
369.2942594166
 31
0.0
  0
LINE
  5
386
330
1F
100
AcDbEntity
  8
0
  6
CONTINUOUS
 62
     7
100
AcDbLine
 10
384.3934846397
 20
338.7285803433
 30
0.0
 11
384.3934846397
 21
366.2942384358
 31
0.0
  0
LINE
  5
387
330
1F
100
AcDbEntity
  8
0
  6
CONTINUOUS
 62
     7
100
AcDbLine
 10
387.3935056205
 20
338.7285803433
 30
0.0
 11
384.3934846397
 21
338.7285803433
 31
0.0
  0
LINE
  5
388
330
1F
100
AcDbEntity
  8
0
  6
CONTINUOUS
 62
     7
100
AcDbLine
 10
387.3935056205
 20
311.2228845234
 30
0.0
 11
387.3935056205
 21
338.7285803433
 31
0.0
  0
LINE
  5
389
330
1F
100
AcDbEntity
  8
0
  6
CONTINUOUS
 62
     7
100
AcDbLine
 10
384.3934846397
 20
311.2228845234
 30
0.0
 11
387.3935056205
 21
311.2228845234
 31
0.0
  0
LINE
  5
38A
330
1F
100
AcDbEntity
  8
0
  6
CONTINUOUS
 62
     7
100
AcDbLine
 10
384.3934846397
 20
299.0510200138
 30
0.0
 11
384.3934846397
 21
311.2228845234
 31
0.0
  0
LINE
  5
38B
330
1F
100
AcDbEntity
  8
0
  6
CONTINUOUS
 62
     7
100
AcDbLine
 10
380.6085002895
 20
299.0510200138
 30
0.0
 11
384.3934846397
 21
299.0510200138
 31
0.0
  0
LINE
  5
38C
330
1F
100
AcDbEntity
  8
0
  6
CONTINUOUS
 62
     7
100
AcDbLine
 10
380.6085002895
 20
300.4275296803
 30
0.0
 11
380.6085002895
 21
299.0510200138
 31
0.0
  0
LINE
  5
38D
330
1F
100
AcDbEntity
  8
0
  6
CONTINUOUS
 62
     7
100
AcDbLine
 10
377.3584974285
 20
300.4275296803
 30
0.0
 11
380.6085002895
 21
300.4275296803
 31
0.0
  0
LINE
  5
38E
330
1F
100
AcDbEntity
  8
0
  6
CONTINUOUS
 62
     7
100
AcDbLine
 10
377.3584974285
 20
294.3924997921
 30
0.0
 11
377.3584974285
 21
300.4275296803
 31
0.0
  0
LINE
  5
38F
330
1F
100
AcDbEntity
  8
0
  6
CONTINUOUS
 62
     7
100
AcDbLine
 10
380.6085002895
 20
294.3924997921
 30
0.0
 11
377.3584974285
 21
294.3924997921
 31
0.0
  0
LINE
  5
390
330
1F
100
AcDbEntity
  8
0
  6
CONTINUOUS
 62
     7
100
AcDbLine
 10
380.6085002895
 20
295.7690094586
 30
0.0
 11
380.6085002895
 21
294.3924997921
 31
0.0
  0
LINE
  5
391
330
1F
100
AcDbEntity
  8
0
  6
CONTINUOUS
 62
     7
100
AcDbLine
 10
384.3934846397
 20
295.7690094586
 30
0.0
 11
380.6085002895
 21
295.7690094586
 31
0.0
  0
LINE
  5
392
330
1F
100
AcDbEntity
  8
0
  6
CONTINUOUS
 62
     7
100
AcDbLine
 10
384.3934846397
 20
283.597144949
 30
0.0
 11
384.3934846397
 21
295.7690094586
 31
0.0
  0
LINE
  5
393
330
1F
100
AcDbEntity
  8
0
  6
CONTINUOUS
 62
     7
100
AcDbLine
 10
387.3935056205
 20
283.597144949
 30
0.0
 11
384.3934846397
 21
283.597144949
 31
0.0
  0
LINE
  5
394
330
1F
100
AcDbEntity
  8
0
  6
CONTINUOUS
 62
     7
100
AcDbLine
 10
387.3935056205
 20
256.0914491291
 30
0.0
 11
387.3935056205
 21
283.597144949
 31
0.0
  0
LINE
  5
395
330
1F
100
AcDbEntity
  8
0
  6
CONTINUOUS
 62
     7
100
AcDbLine
 10
384.3934846397
 20
256.0914491291
 30
0.0
 11
387.3935056205
 21
256.0914491291
 31
0.0
  0
LINE
  5
396
330
1F
100
AcDbEntity
  8
0
  6
CONTINUOUS
 62
     7
100
AcDbLine
 10
384.3934846397
 20
254.9095486279
 30
0.0
 11
384.3934846397
 21
256.0914491291
 31
0.0
  0
LINE
  5
397
330
1F
100
AcDbEntity
  8
0
  6
CONTINUOUS
 62
     7
100
AcDbLine
 10
384.3934846397
 20
254.9095486279
 30
0.0
 11
364.5184946533
 21
254.9095486279
 31
0.0
  0
LINE
  5
398
330
1F
100
AcDbEntity
  8
0
  6
CONTINUOUS
 62
     7
100
AcDbLine
 10
364.5184946533
 20
254.9095486279
 30
0.0
 11
364.5184946533
 21
254.4095252628
 31
0.0
  0
LINE
  5
399
330
1F
100
AcDbEntity
  8
0
  6
CONTINUOUS
 62
     7
100
AcDbLine
 10
364.5184946533
 20
254.4095252628
 30
0.0
 11
384.3934846397
 21
254.4095252628
 31
0.0
  0
LINE
  5
39A
330
1F
100
AcDbEntity
  8
0
  6
CONTINUOUS
 62
     7
100
AcDbLine
 10
384.3934846397
 20
250.9095405216
 30
0.0
 11
384.3934846397
 21
254.4095252628
 31
0.0
  0
LINE
  5
39B
330
1F
100
AcDbEntity
  8
0
  6
CONTINUOUS
 62
     7
100
AcDbLine
 10
384.3934846397
 20
250.9095405216
 30
0.0
 11
364.5184946533
 21
250.9095405216
 31
0.0
  0
LINE
  5
39C
330
1F
100
AcDbEntity
  8
0
  6
CONTINUOUS
 62
     7
100
AcDbLine
 10
364.5184946533
 20
250.9095405216
 30
0.0
 11
364.5184946533
 21
250.4095171566
 31
0.0
  0
LINE
  5
39D
330
1F
100
AcDbEntity
  8
0
  6
CONTINUOUS
 62
     7
100
AcDbLine
 10
364.5184946533
 20
250.4095171566
 30
0.0
 11
384.3934846397
 21
250.4095171566
 31
0.0
  0
LINE
  5
39E
330
1F
100
AcDbEntity
  8
0
  6
CONTINUOUS
 62
     7
100
AcDbLine
 10
384.3934846397
 20
246.9095324154
 30
0.0
 11
384.3934846397
 21
250.4095171566
 31
0.0
  0
LINE
  5
39F
330
1F
100
AcDbEntity
  8
0
  6
CONTINUOUS
 62
     7
100
AcDbLine
 10
384.3934846397
 20
246.9095324154
 30
0.0
 11
364.5184946533
 21
246.9095324154
 31
0.0
  0
LINE
  5
3A0
330
1F
100
AcDbEntity
  8
0
  6
CONTINUOUS
 62
     7
100
AcDbLine
 10
364.5184946533
 20
246.9095324154
 30
0.0
 11
364.5184946533
 21
246.4095090504
 31
0.0
  0
LINE
  5
3A1
330
1F
100
AcDbEntity
  8
0
  6
CONTINUOUS
 62
     7
100
AcDbLine
 10
364.5184946533
 20
246.4095090504
 30
0.0
 11
384.3934846397
 21
246.4095090504
 31
0.0
  0
LINE
  5
3A2
330
1F
100
AcDbEntity
  8
0
  6
CONTINUOUS
 62
     7
100
AcDbLine
 10
384.3934846397
 20
242.9095243092
 30
0.0
 11
384.3934846397
 21
246.4095090504
 31
0.0
  0
LINE
  5
3A3
330
1F
100
AcDbEntity
  8
0
  6
CONTINUOUS
 62
     7
100
AcDbLine
 10
384.3934846397
 20
242.9095243092
 30
0.0
 11
364.5184946533
 21
242.9095243092
 31
0.0
  0
LINE
  5
3A4
330
1F
100
AcDbEntity
  8
0
  6
CONTINUOUS
 62
     7
100
AcDbLine
 10
364.5184946533
 20
242.9095243092
 30
0.0
 11
364.5184946533
 21
242.4095009441
 31
0.0
  0
LINE
  5
3A5
330
1F
100
AcDbEntity
  8
0
  6
CONTINUOUS
 62
     7
100
AcDbLine
 10
364.5184946533
 20
242.4095009441
 30
0.0
 11
384.3934846397
 21
242.4095009441
 31
0.0
  0
LINE
  5
3A6
330
1F
100
AcDbEntity
  8
0
  6
CONTINUOUS
 62
     7
100
AcDbLine
 10
384.3934846397
 20
238.9095162029
 30
0.0
 11
384.3934846397
 21
242.4095009441
 31
0.0
  0
LINE
  5
3A7
330
1F
100
AcDbEntity
  8
0
  6
CONTINUOUS
 62
     7
100
AcDbLine
 10
384.3934846397
 20
238.9095162029
 30
0.0
 11
364.5184946533
 21
238.9095162029
 31
0.0
  0
LINE
  5
3A8
330
1F
100
AcDbEntity
  8
0
  6
CONTINUOUS
 62
     7
100
AcDbLine
 10
364.5184946533
 20
238.9095162029
 30
0.0
 11
364.5184946533
 21
238.4094928379
 31
0.0
  0
LINE
  5
3A9
330
1F
100
AcDbEntity
  8
0
  6
CONTINUOUS
 62
     7
100
AcDbLine
 10
364.5184946533
 20
238.4094928379
 30
0.0
 11
384.3934846397
 21
238.4094928379
 31
0.0
  0
LINE
  5
3AA
330
1F
100
AcDbEntity
  8
0
  6
CONTINUOUS
 62
     7
100
AcDbLine
 10
384.3934846397
 20
234.9095080967
 30
0.0
 11
384.3934846397
 21
238.4094928379
 31
0.0
  0
LINE
  5
3AB
330
1F
100
AcDbEntity
  8
0
  6
CONTINUOUS
 62
     7
100
AcDbLine
 10
384.3934846397
 20
234.9095080967
 30
0.0
 11
364.5184946533
 21
234.9095080967
 31
0.0
  0
LINE
  5
3AC
330
1F
100
AcDbEntity
  8
0
  6
CONTINUOUS
 62
     7
100
AcDbLine
 10
364.5184946533
 20
234.9095080967
 30
0.0
 11
364.5184946533
 21
234.4095443363
 31
0.0
  0
LINE
  5
3AD
330
1F
100
AcDbEntity
  8
0
  6
CONTINUOUS
 62
     7
100
AcDbLine
 10
364.5184946533
 20
234.4095443363
 30
0.0
 11
384.3934846397
 21
234.4095443363
 31
0.0
  0
LINE
  5
3AE
330
1F
100
AcDbEntity
  8
0
  6
CONTINUOUS
 62
     7
100
AcDbLine
 10
384.3934846397
 20
232.4095104809
 30
0.0
 11
384.3934846397
 21
234.4095443363
 31
0.0
  0
LINE
  5
3AF
330
1F
100
AcDbEntity
  8
0
  6
CONTINUOUS
 62
     7
100
AcDbLine
 10
384.3934846397
 20
232.4095104809
 30
0.0
 11
387.3935056205
 21
232.4095104809
 31
0.0
  0
LINE
  5
3B0
330
1F
100
AcDbEntity
  8
0
  6
CONTINUOUS
 62
     7
100
AcDbLine
 10
387.3935056205
 20
232.4095104809
 30
0.0
 11
387.3935056205
 21
219.1362117405
 31
0.0
  0
LINE
  5
3B1
330
1F
100
AcDbEntity
  8
0
  6
CONTINUOUS
 62
     7
100
AcDbLine
 10
387.3935056205
 20
219.1362117405
 30
0.0
 11
384.3934846397
 21
219.1362117405
 31
0.0
  0
LINE
  5
3B2
330
1F
100
AcDbEntity
  8
0
  6
CONTINUOUS
 62
     7
100
AcDbLine
 10
384.3934846397
 20
214.110526907
 30
0.0
 11
384.3934846397
 21
219.1362117405
 31
0.0
  0
LINE
  5
3B3
330
1F
100
AcDbEntity
  8
0
  6
CONTINUOUS
 62
     7
100
AcDbLine
 10
380.6085002895
 20
214.110526907
 30
0.0
 11
384.3934846397
 21
214.110526907
 31
0.0
  0
LINE
  5
3B4
330
1F
100
AcDbEntity
  8
0
  6
CONTINUOUS
 62
     7
100
AcDbLine
 10
380.6085002895
 20
215.4870365734
 30
0.0
 11
380.6085002895
 21
214.110526907
 31
0.0
  0
LINE
  5
3B5
330
1F
100
AcDbEntity
  8
0
  6
CONTINUOUS
 62
     7
100
AcDbLine
 10
377.3584974285
 20
215.4870365734
 30
0.0
 11
380.6085002895
 21
215.4870365734
 31
0.0
  0
LINE
  5
3B6
330
1F
100
AcDbEntity
  8
0
  6
CONTINUOUS
 62
     7
100
AcDbLine
 10
377.3584974285
 20
209.4520066853
 30
0.0
 11
377.3584974285
 21
215.4870365734
 31
0.0
  0
LINE
  5
3B7
330
1F
100
AcDbEntity
  8
0
  6
CONTINUOUS
 62
     7
100
AcDbLine
 10
380.6085002895
 20
209.4520066853
 30
0.0
 11
377.3584974285
 21
209.4520066853
 31
0.0
  0
LINE
  5
3B8
330
1F
100
AcDbEntity
  8
0
  6
CONTINUOUS
 62
     7
100
AcDbLine
 10
380.6085002895
 20
210.8285163517
 30
0.0
 11
380.6085002895
 21
209.4520066853
 31
0.0
  0
LINE
  5
3B9
330
1F
100
AcDbEntity
  8
0
  6
CONTINUOUS
 62
     7
100
AcDbLine
 10
384.3934846397
 20
210.8285163517
 30
0.0
 11
380.6085002895
 21
210.8285163517
 31
0.0
  0
LINE
  5
3BA
330
1F
100
AcDbEntity
  8
0
  6
CONTINUOUS
 62
     7
100
AcDbLine
 10
384.3934846397
 20
205.8028315182
 30
0.0
 11
384.3934846397
 21
210.8285163517
 31
0.0
  0
LINE
  5
3BB
330
1F
100
AcDbEntity
  8
0
  6
CONTINUOUS
 62
     7
100
AcDbLine
 10
387.3935056205
 20
205.8028315182
 30
0.0
 11
384.3934846397
 21
205.8028315182
 31
0.0
  0
LINE
  5
3BC
330
1F
100
AcDbEntity
  8
0
  6
CONTINUOUS
 62
     7
100
AcDbLine
 10
387.3935056205
 20
192.5295327778
 30
0.0
 11
387.3935056205
 21
205.8028315182
 31
0.0
  0
LINE
  5
3BD
330
1F
100
AcDbEntity
  8
0
  6
CONTINUOUS
 62
     7
100
AcDbLine
 10
384.3934846397
 20
192.5295327778
 30
0.0
 11
387.3935056205
 21
192.5295327778
 31
0.0
  0
LINE
  5
3BE
330
1F
100
AcDbEntity
  8
0
  6
CONTINUOUS
 62
     7
100
AcDbLine
 10
384.3934846397
 20
191.1415790196
 30
0.0
 11
384.3934846397
 21
192.5295327778
 31
0.0
  0
LINE
  5
3BF
330
1F
100
AcDbEntity
  8
0
  6
CONTINUOUS
 62
     7
100
AcDbLine
 10
384.3934846397
 20
191.1415790196
 30
0.0
 11
365.5184817787
 21
191.1415790196
 31
0.0
  0
LINE
  5
3C0
330
1F
100
AcDbEntity
  8
0
  6
CONTINUOUS
 62
     7
100
AcDbLine
 10
365.5184817787
 20
191.1415790196
 30
0.0
 11
365.5184817787
 21
190.6415556545
 31
0.0
  0
LINE
  5
3C1
330
1F
100
AcDbEntity
  8
0
  6
CONTINUOUS
 62
     7
100
AcDbLine
 10
365.5184817787
 20
190.6415556545
 30
0.0
 11
384.3934846397
 21
190.6415556545
 31
0.0
  0
LINE
  5
3C2
330
1F
100
AcDbEntity
  8
0
  6
CONTINUOUS
 62
     7
100
AcDbLine
 10
384.3934846397
 20
187.1415709133
 30
0.0
 11
384.3934846397
 21
190.6415556545
 31
0.0
  0
LINE
  5
3C3
330
1F
100
AcDbEntity
  8
0
  6
CONTINUOUS
 62
     7
100
AcDbLine
 10
384.3934846397
 20
187.1415709133
 30
0.0
 11
365.5184817787
 21
187.1415709133
 31
0.0
  0
LINE
  5
3C4
330
1F
100
AcDbEntity
  8
0
  6
CONTINUOUS
 62
     7
100
AcDbLine
 10
365.5184817787
 20
187.1415709133
 30
0.0
 11
365.5184817787
 21
186.6415475483
 31
0.0
  0
LINE
  5
3C5
330
1F
100
AcDbEntity
  8
0
  6
CONTINUOUS
 62
     7
100
AcDbLine
 10
365.5184817787
 20
186.6415475483
 30
0.0
 11
384.3934846397
 21
186.6415475483
 31
0.0
  0
LINE
  5
3C6
330
1F
100
AcDbEntity
  8
0
  6
CONTINUOUS
 62
     7
100
AcDbLine
 10
384.3934846397
 20
183.1415628071
 30
0.0
 11
384.3934846397
 21
186.6415475483
 31
0.0
  0
LINE
  5
3C7
330
1F
100
AcDbEntity
  8
0
  6
CONTINUOUS
 62
     7
100
AcDbLine
 10
384.3934846397
 20
183.1415628071
 30
0.0
 11
365.5184817787
 21
183.1415628071
 31
0.0
  0
LINE
  5
3C8
330
1F
100
AcDbEntity
  8
0
  6
CONTINUOUS
 62
     7
100
AcDbLine
 10
365.5184817787
 20
183.1415628071
 30
0.0
 11
365.5184817787
 21
182.6415394421
 31
0.0
  0
LINE
  5
3C9
330
1F
100
AcDbEntity
  8
0
  6
CONTINUOUS
 62
     7
100
AcDbLine
 10
365.5184817787
 20
182.6415394421
 30
0.0
 11
384.3934846397
 21
182.6415394421
 31
0.0
  0
LINE
  5
3CA
330
1F
100
AcDbEntity
  8
0
  6
CONTINUOUS
 62
     7
100
AcDbLine
 10
384.3934846397
 20
179.1415547009
 30
0.0
 11
384.3934846397
 21
182.6415394421
 31
0.0
  0
LINE
  5
3CB
330
1F
100
AcDbEntity
  8
0
  6
CONTINUOUS
 62
     7
100
AcDbLine
 10
384.3934846397
 20
179.1415547009
 30
0.0
 11
365.5184817787
 21
179.1415547009
 31
0.0
  0
LINE
  5
3CC
330
1F
100
AcDbEntity
  8
0
  6
CONTINUOUS
 62
     7
100
AcDbLine
 10
365.5184817787
 20
179.1415547009
 30
0.0
 11
365.5184817787
 21
178.6415313358
 31
0.0
  0
LINE
  5
3CD
330
1F
100
AcDbEntity
  8
0
  6
CONTINUOUS
 62
     7
100
AcDbLine
 10
365.5184817787
 20
178.6415313358
 30
0.0
 11
384.3934846397
 21
178.6415313358
 31
0.0
  0
LINE
  5
3CE
330
1F
100
AcDbEntity
  8
0
  6
CONTINUOUS
 62
     7
100
AcDbLine
 10
384.3934846397
 20
176.641557085
 30
0.0
 11
384.3934846397
 21
178.6415313358
 31
0.0
  0
LINE
  5
3CF
330
1F
100
AcDbEntity
  8
0
  6
CONTINUOUS
 62
     7
100
AcDbLine
 10
387.3935056205
 20
176.641557085
 30
0.0
 11
384.3934846397
 21
176.641557085
 31
0.0
  0
LINE
  5
3D0
330
1F
100
AcDbEntity
  8
0
  6
CONTINUOUS
 62
     7
100
AcDbLine
 10
387.3935056205
 20
154.7015641804
 30
0.0
 11
387.3935056205
 21
176.641557085
 31
0.0
  0
LINE
  5
3D1
330
1F
100
AcDbEntity
  8
0
  6
CONTINUOUS
 62
     7
100
AcDbLine
 10
384.3934846397
 20
154.7015641804
 30
0.0
 11
387.3935056205
 21
154.7015641804
 31
0.0
  0
LINE
  5
3D2
330
1F
100
AcDbEntity
  8
0
  6
CONTINUOUS
 62
     7
100
AcDbLine
 10
384.3934846397
 20
132.7015493984
 30
0.0
 11
384.3934846397
 21
154.7015641804
 31
0.0
  0
LINE
  5
3D3
330
1F
100
AcDbEntity
  8
0
  6
CONTINUOUS
 62
     7
100
AcDbLine
 10
387.3935056205
 20
132.7015493984
 30
0.0
 11
384.3934846397
 21
132.7015493984
 31
0.0
  0
LINE
  5
3D4
330
1F
100
AcDbEntity
  8
0
  6
CONTINUOUS
 62
     7
100
AcDbLine
 10
387.3935056205
 20
110.7615564938
 30
0.0
 11
387.3935056205
 21
132.7015493984
 31
0.0
  0
LINE
  5
3D5
330
1F
100
AcDbEntity
  8
0
  6
CONTINUOUS
 62
     7
100
AcDbLine
 10
384.3934846397
 20
110.7615564938
 30
0.0
 11
387.3935056205
 21
110.7615564938
 31
0.0
  0
LINE
  5
3D6
330
1F
100
AcDbEntity
  8
0
  6
CONTINUOUS
 62
     7
100
AcDbLine
 10
384.3934846397
 20
88.7615417118
 30
0.0
 11
384.3934846397
 21
110.7615564938
 31
0.0
  0
LINE
  5
3D7
330
1F
100
AcDbEntity
  8
0
  6
CONTINUOUS
 62
     7
100
AcDbLine
 10
387.3935056205
 20
88.7615417118
 30
0.0
 11
384.3934846397
 21
88.7615417118
 31
0.0
  0
LINE
  5
3D8
330
1F
100
AcDbEntity
  8
0
  6
CONTINUOUS
 62
     7
100
AcDbLine
 10
387.3935056205
 20
66.8215488072
 30
0.0
 11
387.3935056205
 21
88.7615417118
 31
0.0
  0
LINE
  5
3D9
330
1F
100
AcDbEntity
  8
0
  6
CONTINUOUS
 62
     7
100
AcDbLine
 10
384.3934846397
 20
66.8215488072
 30
0.0
 11
387.3935056205
 21
66.8215488072
 31
0.0
  0
LINE
  5
3DA
330
1F
100
AcDbEntity
  8
0
  6
CONTINUOUS
 62
     7
100
AcDbLine
 10
384.3934846397
 20
65.785620081
 30
0.0
 11
384.3934846397
 21
66.8215488072
 31
0.0
  0
LINE
  5
3DB
330
1F
100
AcDbEntity
  8
0
  6
CONTINUOUS
 62
     7
100
AcDbLine
 10
384.3934846397
 20
65.785620081
 30
0.0
 11
365.2684998985
 21
65.785620081
 31
0.0
  0
LINE
  5
3DC
330
1F
100
AcDbEntity
  8
0
  6
CONTINUOUS
 62
     7
100
AcDbLine
 10
365.2684998985
 20
65.785620081
 30
0.0
 11
365.2684998985
 21
65.2856563206
 31
0.0
  0
LINE
  5
3DD
330
1F
100
AcDbEntity
  8
0
  6
CONTINUOUS
 62
     7
100
AcDbLine
 10
365.2684998985
 20
65.2856563206
 30
0.0
 11
384.3934846397
 21
65.2856563206
 31
0.0
  0
LINE
  5
3DE
330
1F
100
AcDbEntity
  8
0
  6
CONTINUOUS
 62
     7
100
AcDbLine
 10
384.3934846397
 20
61.7856119747
 30
0.0
 11
384.3934846397
 21
65.2856563206
 31
0.0
  0
LINE
  5
3DF
330
1F
100
AcDbEntity
  8
0
  6
CONTINUOUS
 62
     7
100
AcDbLine
 10
384.3934846397
 20
61.7856119747
 30
0.0
 11
365.2684998985
 21
61.7856119747
 31
0.0
  0
LINE
  5
3E0
330
1F
100
AcDbEntity
  8
0
  6
CONTINUOUS
 62
     7
100
AcDbLine
 10
365.2684998985
 20
61.7856119747
 30
0.0
 11
365.2684998985
 21
61.2856482144
 31
0.0
  0
LINE
  5
3E1
330
1F
100
AcDbEntity
  8
0
  6
CONTINUOUS
 62
     7
100
AcDbLine
 10
365.2684998985
 20
61.2856482144
 30
0.0
 11
384.3934846397
 21
61.2856482144
 31
0.0
  0
LINE
  5
3E2
330
1F
100
AcDbEntity
  8
0
  6
CONTINUOUS
 62
     7
100
AcDbLine
 10
384.3934846397
 20
57.7856038685
 30
0.0
 11
384.3934846397
 21
61.2856482144
 31
0.0
  0
LINE
  5
3E3
330
1F
100
AcDbEntity
  8
0
  6
CONTINUOUS
 62
     7
100
AcDbLine
 10
384.3934846397
 20
57.7856038685
 30
0.0
 11
365.2684998985
 21
57.7856038685
 31
0.0
  0
LINE
  5
3E4
330
1F
100
AcDbEntity
  8
0
  6
CONTINUOUS
 62
     7
100
AcDbLine
 10
365.2684998985
 20
57.7856038685
 30
0.0
 11
365.2684998985
 21
57.2856401081
 31
0.0
  0
LINE
  5
3E5
330
1F
100
AcDbEntity
  8
0
  6
CONTINUOUS
 62
     7
100
AcDbLine
 10
365.2684998985
 20
57.2856401081
 30
0.0
 11
384.3934846397
 21
57.2856401081
 31
0.0
  0
LINE
  5
3E6
330
1F
100
AcDbEntity
  8
0
  6
CONTINUOUS
 62
     7
100
AcDbLine
 10
384.3934846397
 20
53.7856553669
 30
0.0
 11
384.3934846397
 21
57.2856401081
 31
0.0
  0
LINE
  5
3E7
330
1F
100
AcDbEntity
  8
0
  6
CONTINUOUS
 62
     7
100
AcDbLine
 10
384.3934846397
 20
53.7856553669
 30
0.0
 11
365.2684998985
 21
53.7856553669
 31
0.0
  0
LINE
  5
3E8
330
1F
100
AcDbEntity
  8
0
  6
CONTINUOUS
 62
     7
100
AcDbLine
 10
365.2684998985
 20
53.7856553669
 30
0.0
 11
365.2684998985
 21
53.2856320019
 31
0.0
  0
LINE
  5
3E9
330
1F
100
AcDbEntity
  8
0
  6
CONTINUOUS
 62
     7
100
AcDbLine
 10
365.2684998985
 20
53.2856320019
 30
0.0
 11
384.3934846397
 21
53.2856320019
 31
0.0
  0
LINE
  5
3EA
330
1F
100
AcDbEntity
  8
0
  6
CONTINUOUS
 62
     7
100
AcDbLine
 10
384.3934846397
 20
49.7856472607
 30
0.0
 11
384.3934846397
 21
53.2856320019
 31
0.0
  0
LINE
  5
3EB
330
1F
100
AcDbEntity
  8
0
  6
CONTINUOUS
 62
     7
100
AcDbLine
 10
384.3934846397
 20
49.7856472607
 30
0.0
 11
365.2684998985
 21
49.7856472607
 31
0.0
  0
LINE
  5
3EC
330
1F
100
AcDbEntity
  8
0
  6
CONTINUOUS
 62
     7
100
AcDbLine
 10
365.2684998985
 20
49.7856472607
 30
0.0
 11
365.2684998985
 21
49.2856238957
 31
0.0
  0
LINE
  5
3ED
330
1F
100
AcDbEntity
  8
0
  6
CONTINUOUS
 62
     7
100
AcDbLine
 10
365.2684998985
 20
49.2856238957
 30
0.0
 11
384.3934846397
 21
49.2856238957
 31
0.0
  0
LINE
  5
3EE
330
1F
100
AcDbEntity
  8
0
  6
CONTINUOUS
 62
     7
100
AcDbLine
 10
384.3934846397
 20
45.7856391544
 30
0.0
 11
384.3934846397
 21
49.2856238957
 31
0.0
  0
LINE
  5
3EF
330
1F
100
AcDbEntity
  8
0
  6
CONTINUOUS
 62
     7
100
AcDbLine
 10
384.3934846397
 20
45.7856391544
 30
0.0
 11
365.2684998985
 21
45.7856391544
 31
0.0
  0
LINE
  5
3F0
330
1F
100
AcDbEntity
  8
0
  6
CONTINUOUS
 62
     7
100
AcDbLine
 10
365.2684998985
 20
45.7856391544
 30
0.0
 11
365.2684998985
 21
45.2856157894
 31
0.0
  0
LINE
  5
3F1
330
1F
100
AcDbEntity
  8
0
  6
CONTINUOUS
 62
     7
100
AcDbLine
 10
365.2684998985
 20
45.2856157894
 30
0.0
 11
384.3934846397
 21
45.2856157894
 31
0.0
  0
LINE
  5
3F2
330
1F
100
AcDbEntity
  8
0
  6
CONTINUOUS
 62
     7
100
AcDbLine
 10
384.3934846397
 20
41.7856310482
 30
0.0
 11
384.3934846397
 21
45.2856157894
 31
0.0
  0
LINE
  5
3F3
330
1F
100
AcDbEntity
  8
0
  6
CONTINUOUS
 62
     7
100
AcDbLine
 10
384.3934846397
 20
41.7856310482
 30
0.0
 11
365.2684998985
 21
41.7856310482
 31
0.0
  0
LINE
  5
3F4
330
1F
100
AcDbEntity
  8
0
  6
CONTINUOUS
 62
     7
100
AcDbLine
 10
365.2684998985
 20
41.7856310482
 30
0.0
 11
365.2684998985
 21
41.2856076832
 31
0.0
  0
LINE
  5
3F5
330
1F
100
AcDbEntity
  8
0
  6
CONTINUOUS
 62
     7
100
AcDbLine
 10
365.2684998985
 20
41.2856076832
 30
0.0
 11
384.3934846397
 21
41.2856076832
 31
0.0
  0
LINE
  5
3F6
330
1F
100
AcDbEntity
  8
0
  6
CONTINUOUS
 62
     7
100
AcDbLine
 10
384.3934846397
 20
37.785622942
 30
0.0
 11
384.3934846397
 21
41.2856076832
 31
0.0
  0
LINE
  5
3F7
330
1F
100
AcDbEntity
  8
0
  6
CONTINUOUS
 62
     7
100
AcDbLine
 10
384.3934846397
 20
37.785622942
 30
0.0
 11
365.2684998985
 21
37.785622942
 31
0.0
  0
LINE
  5
3F8
330
1F
100
AcDbEntity
  8
0
  6
CONTINUOUS
 62
     7
100
AcDbLine
 10
365.2684998985
 20
37.785622942
 30
0.0
 11
365.2684998985
 21
37.2856591816
 31
0.0
  0
LINE
  5
3F9
330
1F
100
AcDbEntity
  8
0
  6
CONTINUOUS
 62
     7
100
AcDbLine
 10
365.2684998985
 20
37.2856591816
 30
0.0
 11
384.3934846397
 21
37.2856591816
 31
0.0
  0
LINE
  5
3FA
330
1F
100
AcDbEntity
  8
0
  6
CONTINUOUS
 62
     7
100
AcDbLine
 10
384.3934846397
 20
35.2856253262
 30
0.0
 11
384.3934846397
 21
37.2856591816
 31
0.0
  0
LINE
  5
3FB
330
1F
100
AcDbEntity
  8
0
  6
CONTINUOUS
 62
     7
100
AcDbLine
 10
384.3934846397
 20
35.2856253262
 30
0.0
 11
387.3935056205
 21
35.2856253262
 31
0.0
  0
LINE
  5
3FC
330
1F
100
AcDbEntity
  8
0
  6
CONTINUOUS
 62
     7
100
AcDbLine
 10
387.3935056205
 20
35.2856253262
 30
0.0
 11
387.3935056205
 21
7.8456138249
 31
0.0
  0
LINE
  5
3FD
330
1F
100
AcDbEntity
  8
0
  6
CONTINUOUS
 62
     7
100
AcDbLine
 10
387.3935056205
 20
7.8456138249
 30
0.0
 11
384.3934846397
 21
7.8456138249
 31
0.0
  0
LINE
  5
3FE
330
1F
100
AcDbEntity
  8
0
  6
CONTINUOUS
 62
     7
100
AcDbLine
 10
384.3934846397
 20
-4.2933489208
 30
0.0
 11
384.3934846397
 21
7.8456138249
 31
0.0
  0
LINE
  5
3FF
330
1F
100
AcDbEntity
  8
0
  6
CONTINUOUS
 62
     7
100
AcDbLine
 10
380.6085002895
 20
-4.2933489208
 30
0.0
 11
384.3934846397
 21
-4.2933489208
 31
0.0
  0
LINE
  5
400
330
1F
100
AcDbEntity
  8
0
  6
CONTINUOUS
 62
     7
100
AcDbLine
 10
380.6085002895
 20
-2.9168392544
 30
0.0
 11
380.6085002895
 21
-4.2933489208
 31
0.0
  0
LINE
  5
401
330
1F
100
AcDbEntity
  8
0
  6
CONTINUOUS
 62
     7
100
AcDbLine
 10
377.3584974285
 20
-2.9168392544
 30
0.0
 11
380.6085002895
 21
-2.9168392544
 31
0.0
  0
LINE
  5
402
330
1F
100
AcDbEntity
  8
0
  6
CONTINUOUS
 62
     7
100
AcDbLine
 10
377.3584974285
 20
-8.9518691425
 30
0.0
 11
377.3584974285
 21
-2.9168392544
 31
0.0
  0
LINE
  5
403
330
1F
100
AcDbEntity
  8
0
  6
CONTINUOUS
 62
     7
100
AcDbLine
 10
380.6085002895
 20
-8.9518691425
 30
0.0
 11
377.3584974285
 21
-8.9518691425
 31
0.0
  0
LINE
  5
404
330
1F
100
AcDbEntity
  8
0
  6
CONTINUOUS
 62
     7
100
AcDbLine
 10
380.6085002895
 20
-7.5753594761
 30
0.0
 11
380.6085002895
 21
-8.9518691425
 31
0.0
  0
LINE
  5
405
330
1F
100
AcDbEntity
  8
0
  6
CONTINUOUS
 62
     7
100
AcDbLine
 10
384.3934846397
 20
-7.5753594761
 30
0.0
 11
380.6085002895
 21
-7.5753594761
 31
0.0
  0
LINE
  5
406
330
1F
100
AcDbEntity
  8
0
  6
CONTINUOUS
 62
     7
100
AcDbLine
 10
384.3934846397
 20
-19.7143818264
 30
0.0
 11
384.3934846397
 21
-7.5753594761
 31
0.0
  0
LINE
  5
407
330
1F
100
AcDbEntity
  8
0
  6
CONTINUOUS
 62
     7
100
AcDbLine
 10
384.3934846397
 20
-19.7143818264
 30
0.0
 11
387.3935056205
 21
-19.7143818264
 31
0.0
  0
LINE
  5
408
330
1F
100
AcDbEntity
  8
0
  6
CONTINUOUS
 62
     7
100
AcDbLine
 10
387.3935056205
 20
-19.7143818264
 30
0.0
 11
387.3935056205
 21
-47.1543933277
 31
0.0
  0
LINE
  5
409
330
1F
100
AcDbEntity
  8
0
  6
CONTINUOUS
 62
     7
100
AcDbLine
 10
387.3935056205
 20
-47.1543933277
 30
0.0
 11
384.3934846397
 21
-47.1543933277
 31
0.0
  0
LINE
  5
40A
330
1F
100
AcDbEntity
  8
0
  6
CONTINUOUS
 62
     7
100
AcDbLine
 10
384.3934846397
 20
-77.6543582802
 30
0.0
 11
384.3934846397
 21
-47.1543933277
 31
0.0
  0
LINE
  5
40B
330
1F
100
AcDbEntity
  8
0
  6
CONTINUOUS
 62
     7
100
AcDbLine
 10
332.7568185802
 20
-77.6543582802
 30
0.0
 11
384.3934846397
 21
-77.6543582802
 31
0.0
  0
LINE
  5
40C
330
1F
100
AcDbEntity
  8
0
  6
CONTINUOUS
 62
     7
100
AcDbLine
 10
332.7568185802
 20
-77.6543582802
 30
0.0
 11
332.7568185802
 21
-74.6543671017
 31
0.0
  0
LINE
  5
40D
330
1F
100
AcDbEntity
  8
0
  6
CONTINUOUS
 62
     7
100
AcDbLine
 10
332.7568185802
 20
-74.6543671017
 30
0.0
 11
308.5345042224
 21
-74.6543671017
 31
0.0
  0
LINE
  5
40E
330
1F
100
AcDbEntity
  8
0
  6
CONTINUOUS
 62
     7
100
AcDbLine
 10
308.5345042224
 20
-74.6543671017
 30
0.0
 11
308.5345042224
 21
-70.8693529491
 31
0.0
  0
CIRCLE
  5
40F
330
1F
100
AcDbEntity
  8
0
  6
CONTINUOUS
 62
     7
100
AcDbCircle
 10
306.893494827
 20
367.794260103
 30
0.0
 40
1.449999999999932
  0
LINE
  5
410
330
1F
100
AcDbEntity
  8
0
  6
CONTINUOUS
 62
     7
100
AcDbLine
 10
332.6968265052
 20
366.2942384358
 30
0.0
 11
332.6968265052
 21
369.2942594166
 31
0.0
  0
LINE
  5
411
330
1F
100
AcDbEntity
  8
0
  6
CONTINUOUS
 62
     7
100
AcDbLine
 10
332.6968265052
 20
366.2942384358
 30
0.0
 11
384.3934846397
 21
366.2942384358
 31
0.0
  0
LINE
  5
412
330
1F
100
AcDbEntity
  8
0
  6
CONTINUOUS
 62
     7
100
AcDbLine
 10
229.3934834476
 20
366.2942384358
 30
0.0
 11
281.0901713844
 21
366.2942384358
 31
0.0
  0
LINE
  5
413
330
1F
100
AcDbEntity
  8
0
  6
CONTINUOUS
 62
     7
100
AcDbLine
 10
103.9828670497
 20
40.1084159489
 30
0.0
 11
115.0128704782
 21
21.0038756008
 31
0.0
  0
LINE
  5
414
330
1F
100
AcDbEntity
  8
0
  6
CONTINUOUS
 62
     7
100
AcDbLine
 10
115.0128704782
 20
21.0038756008
 30
0.0
 11
117.610947537
 21
22.5038860912
 31
0.0
  0
LINE
  5
415
330
1F
100
AcDbEntity
  8
0
  6
CONTINUOUS
 62
     7
100
AcDbLine
 10
128.5659534212
 20
3.5292838688
 30
0.0
 11
117.610947537
 21
22.5038860912
 31
0.0
  0
LINE
  5
416
330
1F
100
AcDbEntity
  8
0
  6
CONTINUOUS
 62
     7
100
AcDbLine
 10
125.9678763624
 20
2.0292733784
 30
0.0
 11
128.5659534212
 21
3.5292838688
 31
0.0
  0
LINE
  5
417
330
1F
100
AcDbEntity
  8
0
  6
CONTINUOUS
 62
     7
100
AcDbLine
 10
136.9978648897
 20
-17.075207365
 30
0.0
 11
125.9678763624
 21
2.0292733784
 31
0.0
  0
LINE
  5
418
330
1F
100
AcDbEntity
  8
0
  6
CONTINUOUS
 62
     7
100
AcDbLine
 10
139.5959419485
 20
-15.5752564793
 30
0.0
 11
136.9978648897
 21
-17.075207365
 31
0.0
  0
LINE
  5
419
330
1F
100
AcDbEntity
  8
0
  6
CONTINUOUS
 62
     7
100
AcDbLine
 10
150.5509627338
 20
-34.5498587017
 30
0.0
 11
139.5959419485
 21
-15.5752564793
 31
0.0
  0
LINE
  5
41A
330
1F
100
AcDbEntity
  8
0
  6
CONTINUOUS
 62
     7
100
AcDbLine
 10
147.952885675
 20
-36.0498691921
 30
0.0
 11
150.5509627338
 21
-34.5498587017
 31
0.0
  0
LINE
  5
41B
330
1F
100
AcDbEntity
  8
0
  6
CONTINUOUS
 62
     7
100
AcDbLine
 10
158.9828742023
 20
-55.1543499355
 30
0.0
 11
147.952885675
 21
-36.0498691921
 31
0.0
  0
LINE
  5
41C
330
1F
100
AcDbEntity
  8
0
  6
CONTINUOUS
 62
     7
100
AcDbLine
 10
161.5809512611
 20
-53.6543394451
 30
0.0
 11
158.9828742023
 21
-55.1543499355
 31
0.0
  0
ARC
  5
41D
330
1F
100
AcDbEntity
  8
0
  6
CONTINUOUS
 62
     7
100
AcDbCircle
 10
145.992491187
 20
-62.6543690191
 30
0.0
 40
17.99999999999966
100
AcDbArc
 50
270.0
 51
30.0
  0
LINE
  5
41E
330
1F
100
AcDbEntity
  8
0
  6
CONTINUOUS
 62
     7
100
AcDbLine
 10
145.9924889083
 20
-80.654379261
 30
0.0
 11
145.9924889083
 21
-77.6543582802
 31
0.0
  0
LINE
  5
41F
330
1F
100
AcDbEntity
  8
0
  6
CONTINUOUS
 62
     7
100
AcDbLine
 10
145.9924889083
 20
-77.6543582802
 30
0.0
 11
118.4324932571
 21
-77.6543582802
 31
0.0
  0
LINE
  5
420
330
1F
100
AcDbEntity
  8
0
  6
CONTINUOUS
 62
     7
100
AcDbLine
 10
118.4324932571
 20
-77.6543582802
 30
0.0
 11
118.4324932571
 21
-80.654379261
 31
0.0
  0
LINE
  5
421
330
1F
100
AcDbEntity
  8
0
  6
CONTINUOUS
 62
     7
100
AcDbLine
 10
118.4324932571
 20
-80.654379261
 30
0.0
 11
90.9924966569
 21
-80.654379261
 31
0.0
  0
CIRCLE
  5
422
330
1F
100
AcDbEntity
  8
0
  6
CONTINUOUS
 62
     7
100
AcDbCircle
 10
104.712491187
 20
-79.1543690191
 30
0.0
 40
1.450000000000003
  0
CIRCLE
  5
423
330
1F
100
AcDbEntity
  8
0
  6
CONTINUOUS
 62
     7
100
AcDbCircle
 10
34.492491187
 20
-8.6801225089
 30
0.0
 40
1.450000000000003
  0
CIRCLE
  5
424
330
1F
100
AcDbEntity
  8
0
  6
CONTINUOUS
 62
     7
100
AcDbCircle
 10
70.992491187
 20
49.1084253972
 30
0.0
 40
1.450000000000003
  0
LINE
  5
425
330
1F
100
AcDbEntity
  8
0
  6
CONTINUOUS
 62
     7
100
AcDbLine
 10
51.7924887414
 20
-2.3916031246
 30
0.0
 11
51.7924887414
 21
-22.3915840511
 31
0.0
  0
LINE
  5
426
330
1F
100
AcDbEntity
  8
0
  6
CONTINUOUS
 62
     7
100
AcDbLine
 10
51.7924887414
 20
-22.3915840511
 30
0.0
 11
54.7924948211
 21
-22.3915840511
 31
0.0
  0
LINE
  5
427
330
1F
100
AcDbEntity
  8
0
  6
CONTINUOUS
 62
     7
100
AcDbLine
 10
54.7924948211
 20
-22.3915840511
 30
0.0
 11
54.7924948211
 21
-2.3916031246
 31
0.0
  0
LINE
  5
428
330
1F
100
AcDbEntity
  8
0
  6
CONTINUOUS
 62
     7
100
AcDbLine
 10
54.7924948211
 20
-2.3916031246
 30
0.0
 11
51.7924887414
 21
-2.3916031246
 31
0.0
  0
LINE
  5
429
330
1F
100
AcDbEntity
  8
0
  6
CONTINUOUS
 62
     7
100
AcDbLine
 10
112.7862495657
 20
4.7765110607
 30
0.0
 11
102.7862442012
 21
22.097024786
 31
0.0
  0
LINE
  5
42A
330
1F
100
AcDbEntity
  8
0
  6
CONTINUOUS
 62
     7
100
AcDbLine
 10
102.7862442012
 20
22.097024786
 30
0.0
 11
100.1881671424
 21
20.5970739002
 31
0.0
  0
LINE
  5
42B
330
1F
100
AcDbEntity
  8
0
  6
CONTINUOUS
 62
     7
100
AcDbLine
 10
100.1881671424
 20
20.5970739002
 30
0.0
 11
110.1881725069
 21
3.276560175
 31
0.0
  0
LINE
  5
42C
330
1F
100
AcDbEntity
  8
0
  6
CONTINUOUS
 62
     7
100
AcDbLine
 10
110.1881725069
 20
3.276560175
 30
0.0
 11
112.7862495657
 21
4.7765110607
 31
0.0
  0
LINE
  5
42D
330
1F
100
AcDbEntity
  8
0
  6
CONTINUOUS
 62
     7
100
AcDbLine
 10
132.7862453933
 20
-29.8644567852
 30
0.0
 11
130.1881683345
 21
-31.3644672756
 31
0.0
  0
LINE
  5
42E
330
1F
100
AcDbEntity
  8
0
  6
CONTINUOUS
 62
     7
100
AcDbLine
 10
130.1881683345
 20
-31.3644672756
 30
0.0
 11
140.188173699
 21
-48.6849810009
 31
0.0
  0
LINE
  5
42F
330
1F
100
AcDbEntity
  8
0
  6
CONTINUOUS
 62
     7
100
AcDbLine
 10
140.188173699
 20
-48.6849810009
 30
0.0
 11
142.7862507577
 21
-47.1849705105
 31
0.0
  0
LINE
  5
430
330
1F
100
AcDbEntity
  8
0
  6
CONTINUOUS
 62
     7
100
AcDbLine
 10
142.7862507577
 20
-47.1849705105
 30
0.0
 11
132.7862453933
 21
-29.8644567852
 31
0.0
  0
LINE
  5
431
330
1F
100
AcDbEntity
  8
0
  6
CONTINUOUS
 62
     7
100
AcDbLine
 10
90.9924966569
 20
-80.654379261
 30
0.0
 11
90.9924966569
 21
-77.6543582802
 31
0.0
  0
LINE
  5
432
330
1F
100
AcDbEntity
  8
0
  6
CONTINUOUS
 62
     7
100
AcDbLine
 10
90.9924966569
 20
-77.6543582802
 30
0.0
 11
63.4324861045
 21
-77.6543582802
 31
0.0
  0
LINE
  5
433
330
1F
100
AcDbEntity
  8
0
  6
CONTINUOUS
 62
     7
100
AcDbLine
 10
63.4324861045
 20
-77.6543582802
 30
0.0
 11
63.4324861045
 21
-80.654379261
 31
0.0
  0
LINE
  5
434
330
1F
100
AcDbEntity
  8
0
  6
CONTINUOUS
 62
     7
100
AcDbLine
 10
63.4324861045
 20
-80.654379261
 30
0.0
 11
32.9924983259
 21
-80.654379261
 31
0.0
  0
LINE
  5
435
330
1F
100
AcDbEntity
  8
0
  6
CONTINUOUS
 62
     7
100
AcDbLine
 10
32.9924983259
 20
-49.9686862354
 30
0.0
 11
32.9924983259
 21
-80.654379261
 31
0.0
  0
LINE
  5
436
330
1F
100
AcDbEntity
  8
0
  6
CONTINUOUS
 62
     7
100
AcDbLine
 10
35.9924895044
 20
-49.9686862354
 30
0.0
 11
32.9924983259
 21
-49.9686862354
 31
0.0
  0
LINE
  5
437
330
1F
100
AcDbEntity
  8
0
  6
CONTINUOUS
 62
     7
100
AcDbLine
 10
35.9924895044
 20
-22.5229526882
 30
0.0
 11
35.9924895044
 21
-49.9686862354
 31
0.0
  0
LINE
  5
438
330
1F
100
AcDbEntity
  8
0
  6
CONTINUOUS
 62
     7
100
AcDbLine
 10
32.9924983259
 20
-22.5229526882
 30
0.0
 11
35.9924895044
 21
-22.5229526882
 31
0.0
  0
LINE
  5
439
330
1F
100
AcDbEntity
  8
0
  6
CONTINUOUS
 62
     7
100
AcDbLine
 10
32.9924983259
 20
5.1627491589
 30
0.0
 11
32.9924983259
 21
-22.5229526882
 31
0.0
  0
LINE
  5
43A
330
1F
100
AcDbEntity
  8
0
  6
CONTINUOUS
 62
     7
100
AcDbLine
 10
35.9924895044
 20
5.1627491589
 30
0.0
 11
32.9924983259
 21
5.1627491589
 31
0.0
  0
LINE
  5
43B
330
1F
100
AcDbEntity
  8
0
  6
CONTINUOUS
 62
     7
100
AcDbLine
 10
35.9924895044
 20
32.6084231014
 30
0.0
 11
35.9924895044
 21
5.1627491589
 31
0.0
  0
LINE
  5
43C
330
1F
100
AcDbEntity
  8
0
  6
CONTINUOUS
 62
     7
100
AcDbLine
 10
32.9924983259
 20
32.6084231014
 30
0.0
 11
35.9924895044
 21
32.6084231014
 31
0.0
  0
ARC
  5
43D
330
1F
100
AcDbEntity
  8
0
  6
CONTINUOUS
 62
     7
100
AcDbCircle
 10
50.992491187
 20
32.6084253972
 30
0.0
 40
18.00000000000001
100
AcDbArc
 50
90.0
 51
180.0
  0
LINE
  5
43E
330
1F
100
AcDbEntity
  8
0
  6
CONTINUOUS
 62
     7
100
AcDbLine
 10
50.9924901004
 20
47.6084087963
 30
0.0
 11
50.9924901004
 21
50.6084297772
 31
0.0
  0
LINE
  5
43F
330
1F
100
AcDbEntity
  8
0
  6
CONTINUOUS
 62
     7
100
AcDbLine
 10
50.9924901004
 20
47.6084087963
 30
0.0
 11
64.3558216568
 21
47.6084087963
 31
0.0
  0
LINE
  5
440
330
1F
100
AcDbEntity
  8
0
  6
CONTINUOUS
 62
     7
100
AcDbLine
 10
64.3558216568
 20
47.6084087963
 30
0.0
 11
64.3558216568
 21
50.6084297772
 31
0.0
  0
LINE
  5
441
330
1F
100
AcDbEntity
  8
0
  6
CONTINUOUS
 62
     7
100
AcDbLine
 10
77.6291651006
 20
50.6084297772
 30
0.0
 11
64.3558216568
 21
50.6084297772
 31
0.0
  0
LINE
  5
442
330
1F
100
AcDbEntity
  8
0
  6
CONTINUOUS
 62
     7
100
AcDbLine
 10
77.6291651006
 20
47.6084087963
 30
0.0
 11
77.6291651006
 21
50.6084297772
 31
0.0
  0
LINE
  5
443
330
1F
100
AcDbEntity
  8
0
  6
CONTINUOUS
 62
     7
100
AcDbLine
 10
90.9924966569
 20
47.6084087963
 30
0.0
 11
77.6291651006
 21
47.6084087963
 31
0.0
  0
LINE
  5
444
330
1F
100
AcDbEntity
  8
0
  6
CONTINUOUS
 62
     7
100
AcDbLine
 10
90.9924966569
 20
50.6084297772
 30
0.0
 11
90.9924966569
 21
47.6084087963
 31
0.0
  0
ARC
  5
445
330
1F
100
AcDbEntity
  8
0
  6
CONTINUOUS
 62
     7
100
AcDbCircle
 10
90.992491187
 20
32.6084253972
 30
0.0
 40
17.9999999999999
100
AcDbArc
 50
30.0
 51
90.0
  0
LINE
  5
446
330
1F
100
AcDbEntity
  8
0
  6
CONTINUOUS
 62
     7
100
AcDbLine
 10
106.5809441085
 20
41.6084264393
 30
0.0
 11
103.9828670497
 21
40.1084159489
 31
0.0
  0
ENDSEC
  0
SECTION
  2
OBJECTS
  0
DICTIONARY
  5
C
330
0
100
AcDbDictionary
  3
ACAD_GROUP
350
D
  3
ACAD_MLINESTYLE
350
17
1001
ACAD
1000
TREAT_AS_HARD
1070
     0
  0
DICTIONARY
  5
D
102
{ACAD_REACTORS
330
C
102
}
330
C
100
AcDbDictionary
1001
ACAD
1000
TREAT_AS_HARD
1070
     0
  0
DICTIONARY
  5
17
102
{ACAD_REACTORS
330
C
102
}
330
C
100
AcDbDictionary
  3
STANDARD
350
18
1001
ACAD
1000
TREAT_AS_HARD
1070
     0
  0
MLINESTYLE
  5
18
102
{ACAD_REACTORS
330
17
102
}
330
17
100
AcDbMlineStyle
  2
Standard
 70
     0
  3

 62
   256
 51
90.0
 52
90.0
 71
     2
 49
0.5
 62
   256
  6
BYLAYER
 49
-0.5
 62
   256
  6
BYLAYER
  0
ENDSEC
  0
EOF
