G04 #@! TF.FileFunction,Copper,L1,Top,Signal*
%FSLAX46Y46*%
G04 Gerber Fmt 4.6, Leading zero omitted, Abs format (unit mm)*
G04 Created by KiCad (PCBNEW (2015-01-06 BZR 5261)-product) date Thursday, April 09, 2015 'PMt' 11:27:51 PM*
%MOMM*%
G01*
G04 APERTURE LIST*
%ADD10C,0.152400*%
%ADD11C,1.270000*%
%ADD12C,2.150000*%
%ADD13R,0.800000X1.700000*%
%ADD14R,0.750000X0.800000*%
%ADD15R,0.900000X0.500000*%
%ADD16R,2.032000X0.406400*%
%ADD17R,2.800000X1.600000*%
%ADD18R,1.500000X3.200000*%
%ADD19R,2.650000X1.000000*%
%ADD20R,2.000000X1.500000*%
%ADD21R,2.000000X3.800000*%
%ADD22R,1.000000X2.650000*%
%ADD23R,2.300000X2.500000*%
%ADD24R,0.800000X0.750000*%
%ADD25R,1.727200X2.032000*%
%ADD26O,1.727200X2.032000*%
%ADD27R,2.032000X1.727200*%
%ADD28O,2.032000X1.727200*%
%ADD29R,2.032000X2.032000*%
%ADD30O,2.032000X2.032000*%
%ADD31R,2.000000X0.500000*%
%ADD32O,2.100000X1.200000*%
%ADD33C,0.900000*%
%ADD34R,2.000000X0.600000*%
%ADD35R,4.200000X0.700000*%
%ADD36R,1.600000X1.500000*%
%ADD37R,1.200000X1.200000*%
%ADD38R,1.400000X0.480000*%
%ADD39R,1.550000X0.560000*%
%ADD40R,1.800000X1.200000*%
%ADD41R,1.600000X0.600000*%
%ADD42R,1.500000X0.500000*%
%ADD43R,0.570000X1.970000*%
%ADD44R,1.000760X0.599440*%
%ADD45R,1.727200X1.727200*%
%ADD46O,1.727200X1.727200*%
%ADD47C,0.889000*%
%ADD48C,0.762000*%
%ADD49C,0.355600*%
%ADD50C,0.254000*%
%ADD51C,0.508000*%
G04 APERTURE END LIST*
D10*
D11*
X195326000Y-129413000D03*
X197866000Y-129413000D03*
X195326000Y-126873000D03*
X197866000Y-126873000D03*
X195326000Y-124333000D03*
X197866000Y-124333000D03*
X195326000Y-121793000D03*
X197866000Y-121793000D03*
X195326000Y-119253000D03*
X197866000Y-119253000D03*
X195326000Y-116713000D03*
X197866000Y-116713000D03*
X195326000Y-114173000D03*
X197866000Y-114173000D03*
X195326000Y-111633000D03*
X197866000Y-111633000D03*
D12*
X142796000Y-132588000D03*
X148796000Y-132588000D03*
X145796000Y-137288000D03*
D13*
X164514000Y-88265000D03*
X161114000Y-88265000D03*
D14*
X146050000Y-106795000D03*
X146050000Y-105295000D03*
D15*
X141224000Y-105168000D03*
X141224000Y-106668000D03*
D14*
X143891000Y-98183000D03*
X143891000Y-99683000D03*
D16*
X153631900Y-96202500D03*
X153631900Y-95567500D03*
X153631900Y-94932500D03*
X153631900Y-94297500D03*
X153631900Y-93662500D03*
X153631900Y-96837500D03*
X153631900Y-97472500D03*
X153631900Y-98107500D03*
X153631900Y-98742500D03*
X153631900Y-99377500D03*
X158534100Y-99377500D03*
X158534100Y-98742500D03*
X158534100Y-98107500D03*
X158534100Y-97472500D03*
X158534100Y-96837500D03*
X158534100Y-96202500D03*
X158534100Y-95567500D03*
X158534100Y-94932500D03*
X158534100Y-94297500D03*
X158534100Y-93662500D03*
D17*
X179392000Y-96366000D03*
X175092000Y-96366000D03*
X133409000Y-118518000D03*
X137709000Y-118518000D03*
X133409000Y-109628000D03*
X137709000Y-109628000D03*
D18*
X153983000Y-88646000D03*
X158183000Y-88646000D03*
D14*
X190500000Y-129171000D03*
X190500000Y-130671000D03*
X153035000Y-105041000D03*
X153035000Y-106541000D03*
D19*
X181875000Y-128397000D03*
X186425000Y-128397000D03*
D10*
G36*
X158671381Y-110326249D02*
X159802751Y-111457619D01*
X159590619Y-111669751D01*
X158459249Y-110538381D01*
X158671381Y-110326249D01*
X158671381Y-110326249D01*
G37*
G36*
X159343132Y-109654498D02*
X160474502Y-110785868D01*
X160262370Y-110998000D01*
X159131000Y-109866630D01*
X159343132Y-109654498D01*
X159343132Y-109654498D01*
G37*
G36*
X157999630Y-110998000D02*
X159131000Y-112129370D01*
X158918868Y-112341502D01*
X157787498Y-111210132D01*
X157999630Y-110998000D01*
X157999630Y-110998000D01*
G37*
D20*
X169672000Y-126097000D03*
X169672000Y-128397000D03*
X169672000Y-130697000D03*
D21*
X175972000Y-128397000D03*
D22*
X161925000Y-132704000D03*
X161925000Y-128154000D03*
D17*
X133409000Y-100230000D03*
X137709000Y-100230000D03*
D23*
X153543000Y-132461000D03*
X153543000Y-128152000D03*
D24*
X142379000Y-124968000D03*
X143879000Y-124968000D03*
X142506000Y-120650000D03*
X144006000Y-120650000D03*
X142506000Y-115697000D03*
X144006000Y-115697000D03*
X142760000Y-110363000D03*
X144260000Y-110363000D03*
X188964000Y-112141000D03*
X187464000Y-112141000D03*
X190234000Y-108331000D03*
X188734000Y-108331000D03*
X183146000Y-123444000D03*
X184646000Y-123444000D03*
X170573000Y-119253000D03*
X172073000Y-119253000D03*
X142760000Y-88011000D03*
X144260000Y-88011000D03*
X142760000Y-89916000D03*
X144260000Y-89916000D03*
X142887000Y-91694000D03*
X144387000Y-91694000D03*
X142760000Y-93726000D03*
X144260000Y-93726000D03*
X144260000Y-95758000D03*
X142760000Y-95758000D03*
D25*
X150622000Y-137033000D03*
D26*
X153162000Y-137033000D03*
X155702000Y-137033000D03*
X158242000Y-137033000D03*
X160782000Y-137033000D03*
X163322000Y-137033000D03*
D25*
X169926000Y-137033000D03*
D26*
X172466000Y-137033000D03*
X175006000Y-137033000D03*
X177546000Y-137033000D03*
X180086000Y-137033000D03*
X182626000Y-137033000D03*
X185166000Y-137033000D03*
X187706000Y-137033000D03*
X190246000Y-137033000D03*
X192786000Y-137033000D03*
D27*
X184912000Y-91821000D03*
D28*
X184912000Y-94361000D03*
X184912000Y-96901000D03*
X184912000Y-99441000D03*
D29*
X184912000Y-105664000D03*
D30*
X184912000Y-103124000D03*
D31*
X140573000Y-91186000D03*
X140573000Y-90386000D03*
X140573000Y-89586000D03*
X140573000Y-91986000D03*
X140573000Y-92786000D03*
D32*
X140323000Y-87536000D03*
X140323000Y-94836000D03*
X135023000Y-94836000D03*
X135023000Y-87536000D03*
D33*
X138323000Y-89436000D03*
X138323000Y-92936000D03*
D34*
X188103000Y-96512000D03*
X188103000Y-97512000D03*
X188103000Y-95512000D03*
X188103000Y-94512000D03*
D35*
X190103000Y-98512000D03*
X190103000Y-93512000D03*
D15*
X172466000Y-98818000D03*
X172466000Y-100318000D03*
X183896000Y-110756000D03*
X183896000Y-112256000D03*
X191643000Y-115836000D03*
X191643000Y-117336000D03*
X157988000Y-122416000D03*
X157988000Y-120916000D03*
X190500000Y-124599000D03*
X190500000Y-126099000D03*
X150241000Y-105041000D03*
X150241000Y-106541000D03*
X150114000Y-89904000D03*
X150114000Y-88404000D03*
X150114000Y-94730000D03*
X150114000Y-93230000D03*
X146939000Y-98183000D03*
X146939000Y-99683000D03*
X158623000Y-102755000D03*
X158623000Y-104255000D03*
X161290000Y-102755000D03*
X161290000Y-104255000D03*
X163830000Y-104255000D03*
X163830000Y-102755000D03*
X141224000Y-98183000D03*
X141224000Y-99683000D03*
D36*
X191516000Y-102817000D03*
D37*
X190316000Y-106267000D03*
X192716000Y-106267000D03*
D38*
X134673340Y-123974860D03*
D39*
X134725000Y-125476000D03*
D38*
X134673340Y-126977140D03*
D40*
X136825000Y-125476000D03*
D10*
G36*
X135975000Y-126026000D02*
X135475000Y-125726000D01*
X135475000Y-125226000D01*
X135975000Y-124926000D01*
X135975000Y-126026000D01*
X135975000Y-126026000D01*
G37*
G36*
X137675000Y-124926000D02*
X138175000Y-125226000D01*
X138175000Y-125726000D01*
X137675000Y-126026000D01*
X137675000Y-124926000D01*
X137675000Y-124926000D01*
G37*
D41*
X188755000Y-117251000D03*
X183355000Y-117251000D03*
X188755000Y-118501000D03*
X188755000Y-119751000D03*
X188755000Y-121001000D03*
X183355000Y-118501000D03*
X183355000Y-119751000D03*
X183355000Y-121001000D03*
D42*
X148096000Y-112532000D03*
X148096000Y-113802000D03*
X148096000Y-115072000D03*
X148096000Y-116342000D03*
X148096000Y-117612000D03*
X148096000Y-118882000D03*
X148096000Y-120152000D03*
X154846000Y-120152000D03*
X154846000Y-118882000D03*
X154846000Y-117612000D03*
X154846000Y-116342000D03*
X154846000Y-115072000D03*
X154846000Y-113802000D03*
X154846000Y-112532000D03*
D43*
X173609000Y-103062000D03*
X174879000Y-103062000D03*
X176149000Y-103062000D03*
X177419000Y-103062000D03*
X173609000Y-108012000D03*
X174879000Y-108012000D03*
X176149000Y-108012000D03*
X177419000Y-108012000D03*
D10*
G36*
X164330555Y-108816666D02*
X164719464Y-108427757D01*
X165850835Y-109559128D01*
X165461926Y-109948037D01*
X164330555Y-108816666D01*
X164330555Y-108816666D01*
G37*
G36*
X163764870Y-109382352D02*
X164153779Y-108993443D01*
X165285150Y-110124814D01*
X164896241Y-110513723D01*
X163764870Y-109382352D01*
X163764870Y-109382352D01*
G37*
G36*
X163199184Y-109948037D02*
X163588093Y-109559128D01*
X164719464Y-110690499D01*
X164330555Y-111079408D01*
X163199184Y-109948037D01*
X163199184Y-109948037D01*
G37*
G36*
X162633499Y-110513722D02*
X163022408Y-110124813D01*
X164153779Y-111256184D01*
X163764870Y-111645093D01*
X162633499Y-110513722D01*
X162633499Y-110513722D01*
G37*
G36*
X162067813Y-111079408D02*
X162456722Y-110690499D01*
X163588093Y-111821870D01*
X163199184Y-112210779D01*
X162067813Y-111079408D01*
X162067813Y-111079408D01*
G37*
G36*
X161502128Y-111645093D02*
X161891037Y-111256184D01*
X163022408Y-112387555D01*
X162633499Y-112776464D01*
X161502128Y-111645093D01*
X161502128Y-111645093D01*
G37*
G36*
X160936443Y-112210779D02*
X161325352Y-111821870D01*
X162456723Y-112953241D01*
X162067814Y-113342150D01*
X160936443Y-112210779D01*
X160936443Y-112210779D01*
G37*
G36*
X160370757Y-112776464D02*
X160759666Y-112387555D01*
X161891037Y-113518926D01*
X161502128Y-113907835D01*
X160370757Y-112776464D01*
X160370757Y-112776464D01*
G37*
G36*
X160759666Y-115958445D02*
X160370757Y-115569536D01*
X161502128Y-114438165D01*
X161891037Y-114827074D01*
X160759666Y-115958445D01*
X160759666Y-115958445D01*
G37*
G36*
X161325352Y-116524130D02*
X160936443Y-116135221D01*
X162067814Y-115003850D01*
X162456723Y-115392759D01*
X161325352Y-116524130D01*
X161325352Y-116524130D01*
G37*
G36*
X161891037Y-117089816D02*
X161502128Y-116700907D01*
X162633499Y-115569536D01*
X163022408Y-115958445D01*
X161891037Y-117089816D01*
X161891037Y-117089816D01*
G37*
G36*
X162456722Y-117655501D02*
X162067813Y-117266592D01*
X163199184Y-116135221D01*
X163588093Y-116524130D01*
X162456722Y-117655501D01*
X162456722Y-117655501D01*
G37*
G36*
X163022408Y-118221187D02*
X162633499Y-117832278D01*
X163764870Y-116700907D01*
X164153779Y-117089816D01*
X163022408Y-118221187D01*
X163022408Y-118221187D01*
G37*
G36*
X163588093Y-118786872D02*
X163199184Y-118397963D01*
X164330555Y-117266592D01*
X164719464Y-117655501D01*
X163588093Y-118786872D01*
X163588093Y-118786872D01*
G37*
G36*
X164153779Y-119352557D02*
X163764870Y-118963648D01*
X164896241Y-117832277D01*
X165285150Y-118221186D01*
X164153779Y-119352557D01*
X164153779Y-119352557D01*
G37*
G36*
X164719464Y-119918243D02*
X164330555Y-119529334D01*
X165461926Y-118397963D01*
X165850835Y-118786872D01*
X164719464Y-119918243D01*
X164719464Y-119918243D01*
G37*
G36*
X166381165Y-118786872D02*
X166770074Y-118397963D01*
X167901445Y-119529334D01*
X167512536Y-119918243D01*
X166381165Y-118786872D01*
X166381165Y-118786872D01*
G37*
G36*
X166946850Y-118221186D02*
X167335759Y-117832277D01*
X168467130Y-118963648D01*
X168078221Y-119352557D01*
X166946850Y-118221186D01*
X166946850Y-118221186D01*
G37*
G36*
X167512536Y-117655501D02*
X167901445Y-117266592D01*
X169032816Y-118397963D01*
X168643907Y-118786872D01*
X167512536Y-117655501D01*
X167512536Y-117655501D01*
G37*
G36*
X168078221Y-117089816D02*
X168467130Y-116700907D01*
X169598501Y-117832278D01*
X169209592Y-118221187D01*
X168078221Y-117089816D01*
X168078221Y-117089816D01*
G37*
G36*
X168643907Y-116524130D02*
X169032816Y-116135221D01*
X170164187Y-117266592D01*
X169775278Y-117655501D01*
X168643907Y-116524130D01*
X168643907Y-116524130D01*
G37*
G36*
X169209592Y-115958445D02*
X169598501Y-115569536D01*
X170729872Y-116700907D01*
X170340963Y-117089816D01*
X169209592Y-115958445D01*
X169209592Y-115958445D01*
G37*
G36*
X169775277Y-115392759D02*
X170164186Y-115003850D01*
X171295557Y-116135221D01*
X170906648Y-116524130D01*
X169775277Y-115392759D01*
X169775277Y-115392759D01*
G37*
G36*
X170340963Y-114827074D02*
X170729872Y-114438165D01*
X171861243Y-115569536D01*
X171472334Y-115958445D01*
X170340963Y-114827074D01*
X170340963Y-114827074D01*
G37*
G36*
X170729872Y-113907835D02*
X170340963Y-113518926D01*
X171472334Y-112387555D01*
X171861243Y-112776464D01*
X170729872Y-113907835D01*
X170729872Y-113907835D01*
G37*
G36*
X170164186Y-113342150D02*
X169775277Y-112953241D01*
X170906648Y-111821870D01*
X171295557Y-112210779D01*
X170164186Y-113342150D01*
X170164186Y-113342150D01*
G37*
G36*
X169598501Y-112776464D02*
X169209592Y-112387555D01*
X170340963Y-111256184D01*
X170729872Y-111645093D01*
X169598501Y-112776464D01*
X169598501Y-112776464D01*
G37*
G36*
X169032816Y-112210779D02*
X168643907Y-111821870D01*
X169775278Y-110690499D01*
X170164187Y-111079408D01*
X169032816Y-112210779D01*
X169032816Y-112210779D01*
G37*
G36*
X168467130Y-111645093D02*
X168078221Y-111256184D01*
X169209592Y-110124813D01*
X169598501Y-110513722D01*
X168467130Y-111645093D01*
X168467130Y-111645093D01*
G37*
G36*
X167901445Y-111079408D02*
X167512536Y-110690499D01*
X168643907Y-109559128D01*
X169032816Y-109948037D01*
X167901445Y-111079408D01*
X167901445Y-111079408D01*
G37*
G36*
X167335759Y-110513723D02*
X166946850Y-110124814D01*
X168078221Y-108993443D01*
X168467130Y-109382352D01*
X167335759Y-110513723D01*
X167335759Y-110513723D01*
G37*
G36*
X166770074Y-109948037D02*
X166381165Y-109559128D01*
X167512536Y-108427757D01*
X167901445Y-108816666D01*
X166770074Y-109948037D01*
X166770074Y-109948037D01*
G37*
D44*
X161991040Y-99329240D03*
X161991040Y-98028760D03*
X163890960Y-98679000D03*
D45*
X168402000Y-88138000D03*
D46*
X170942000Y-88138000D03*
X168402000Y-90678000D03*
X170942000Y-90678000D03*
X168402000Y-93218000D03*
X170942000Y-93218000D03*
D15*
X170942000Y-104001000D03*
X170942000Y-102501000D03*
D24*
X161429000Y-91948000D03*
X162929000Y-91948000D03*
D25*
X174117000Y-88138000D03*
D26*
X176657000Y-88138000D03*
X179197000Y-88138000D03*
X181737000Y-88138000D03*
D11*
X156718000Y-129667000D03*
X139344400Y-120802400D03*
X137414000Y-98094800D03*
X142290800Y-94030800D03*
X142392400Y-113944400D03*
X155346400Y-121666000D03*
X176936400Y-124561600D03*
X166776400Y-129692400D03*
X181203600Y-124612400D03*
X181965600Y-113233200D03*
X169367200Y-102870000D03*
X173685200Y-105257600D03*
X136855200Y-123799600D03*
X156159200Y-88696800D03*
X142646400Y-106375200D03*
X188925200Y-124612400D03*
X174091600Y-124506010D03*
X148717000Y-96774000D03*
X165354000Y-104267000D03*
X173434195Y-98506858D03*
X161243990Y-110363000D03*
D47*
X156768800Y-113690400D03*
X146558000Y-111887000D03*
X145669000Y-88011000D03*
X145542000Y-90678000D03*
X132715000Y-111252000D03*
X133477000Y-116840000D03*
X134620000Y-122936000D03*
X145034000Y-122555000D03*
X192278000Y-107950000D03*
X189103000Y-110490000D03*
X190754000Y-118999000D03*
X188112400Y-130708400D03*
X184200800Y-124815600D03*
X172669200Y-120700800D03*
X163728400Y-128778000D03*
X145491200Y-109372400D03*
X145694400Y-94183200D03*
X146253200Y-117805200D03*
X154940000Y-103835200D03*
X157480000Y-109169200D03*
X167640000Y-125120400D03*
X176936400Y-109829600D03*
X165709600Y-87782400D03*
X144018000Y-104800400D03*
X133553200Y-103632000D03*
X138633200Y-113588800D03*
X142646400Y-117094000D03*
X145846800Y-126644400D03*
X167944800Y-115570000D03*
X151003000Y-97282000D03*
X161036000Y-96139000D03*
X152273000Y-115443000D03*
X162306000Y-109220000D03*
X152400000Y-100711000D03*
X180594000Y-104648000D03*
X148971000Y-108331000D03*
X139192000Y-106426000D03*
X157226000Y-124206000D03*
X162941000Y-125730000D03*
X165227000Y-125730000D03*
X179578000Y-105029000D03*
X180340000Y-111379000D03*
X179451000Y-117221000D03*
X179451000Y-121158000D03*
X174244000Y-130810000D03*
X167259000Y-127127000D03*
X162560000Y-90424000D03*
X164465000Y-105791000D03*
X172974000Y-92837000D03*
X173098346Y-95503722D03*
X178562000Y-109728000D03*
X178308000Y-113030000D03*
X172847000Y-112141000D03*
X172720000Y-110617000D03*
X165354000Y-90170000D03*
X166116000Y-119888000D03*
X150241000Y-113538000D03*
X150622000Y-111252000D03*
X152146000Y-107696000D03*
X154686000Y-110236000D03*
X160274000Y-116713000D03*
X144145000Y-112395000D03*
X171577000Y-125730000D03*
X193167000Y-124333000D03*
X193929000Y-108331000D03*
X156845000Y-135001000D03*
X191770000Y-127127000D03*
X194945000Y-108712000D03*
X165354000Y-123698000D03*
X163576000Y-120777000D03*
X167509111Y-123701889D03*
X164465000Y-114554000D03*
X163449000Y-115316000D03*
X164465000Y-112776000D03*
X173482000Y-119380000D03*
X180721000Y-120523000D03*
X187071000Y-121031000D03*
X165354000Y-115316000D03*
X181610000Y-122047000D03*
X171196000Y-117475000D03*
X166116000Y-111633000D03*
X178054000Y-114808000D03*
X166243000Y-108204000D03*
X147828000Y-101600000D03*
X168529000Y-105727500D03*
X167513000Y-112395000D03*
X175768000Y-111379000D03*
X187579000Y-109601000D03*
X169418000Y-108077000D03*
X161163000Y-108331000D03*
X139065000Y-112141000D03*
X142748000Y-108458000D03*
X149352000Y-110871000D03*
X149860000Y-115443000D03*
X140716000Y-116840000D03*
X179832000Y-106807000D03*
X182372000Y-108839000D03*
X137541000Y-102489000D03*
X155448000Y-91313000D03*
X158635231Y-127876769D03*
X166814500Y-134874000D03*
X165862000Y-130873500D03*
X170307000Y-105664000D03*
X165227000Y-138684000D03*
X159512000Y-120015000D03*
X161798000Y-118999000D03*
X137541000Y-109601000D03*
X178663600Y-94335600D03*
X168097200Y-102260400D03*
X162509200Y-104952800D03*
X157073600Y-104800400D03*
X156337000Y-93345000D03*
X161290000Y-93599000D03*
D48*
X137709000Y-118518000D02*
X137709000Y-119167000D01*
X139496800Y-120650000D02*
X139344400Y-120802400D01*
X139344400Y-120802400D02*
X137709000Y-119167000D01*
X142506000Y-120650000D02*
X139496800Y-120650000D01*
X137709000Y-98389800D02*
X137414000Y-98094800D01*
X137709000Y-100230000D02*
X137709000Y-98389800D01*
X140677000Y-100230000D02*
X141224000Y-99683000D01*
X137709000Y-100230000D02*
X140677000Y-100230000D01*
X142595600Y-93726000D02*
X142290800Y-94030800D01*
X142760000Y-93726000D02*
X142595600Y-93726000D01*
X142506000Y-114058000D02*
X142392400Y-113944400D01*
X142506000Y-115697000D02*
X142506000Y-114058000D01*
X156096400Y-122416000D02*
X155346400Y-121666000D01*
X157988000Y-122416000D02*
X156096400Y-122416000D01*
X175972000Y-125526000D02*
X176936400Y-124561600D01*
X175972000Y-128397000D02*
X175972000Y-125526000D01*
X168071800Y-128397000D02*
X166776400Y-129692400D01*
X169672000Y-128397000D02*
X168071800Y-128397000D01*
X182372000Y-123444000D02*
X181203600Y-124612400D01*
X181875000Y-125283800D02*
X181875000Y-128397000D01*
X181875000Y-125283800D02*
X181203600Y-124612400D01*
X183146000Y-123444000D02*
X182372000Y-123444000D01*
X182664800Y-110756000D02*
X181965600Y-111455200D01*
X181965600Y-111455200D02*
X181965600Y-113233200D01*
X183355000Y-114622600D02*
X183355000Y-117251000D01*
X183355000Y-114622600D02*
X181965600Y-113233200D01*
X183896000Y-110756000D02*
X182664800Y-110756000D01*
X170498200Y-104001000D02*
X169367200Y-102870000D01*
X170942000Y-104001000D02*
X170498200Y-104001000D01*
X173609000Y-105181400D02*
X173685200Y-105257600D01*
X173609000Y-103062000D02*
X173609000Y-105181400D01*
X136825000Y-123829800D02*
X136855200Y-123799600D01*
X136825000Y-125476000D02*
X136825000Y-123829800D01*
X142379000Y-120777000D02*
X142506000Y-120650000D01*
X142379000Y-124968000D02*
X142379000Y-120777000D01*
X137925000Y-125476000D02*
X136825000Y-125476000D01*
X134725000Y-125476000D02*
X136825000Y-125476000D01*
X135725000Y-125476000D02*
X136825000Y-125476000D01*
X156210000Y-88646000D02*
X156159200Y-88696800D01*
X158183000Y-88646000D02*
X156210000Y-88646000D01*
D49*
X142353600Y-106668000D02*
X142646400Y-106375200D01*
X141224000Y-106668000D02*
X142353600Y-106668000D01*
X188938600Y-124599000D02*
X188925200Y-124612400D01*
X190500000Y-124599000D02*
X188938600Y-124599000D01*
X173620583Y-124506010D02*
X174091600Y-124506010D01*
X167706990Y-118592417D02*
X173620583Y-124506010D01*
D50*
X149288500Y-96202500D02*
X148717000Y-96774000D01*
X153631900Y-96202500D02*
X149288500Y-96202500D01*
X165342000Y-104255000D02*
X165354000Y-104267000D01*
X163830000Y-104255000D02*
X165342000Y-104255000D01*
X173123053Y-98818000D02*
X173434195Y-98506858D01*
X172466000Y-98818000D02*
X173123053Y-98818000D01*
X163393639Y-110884953D02*
X164211000Y-111702314D01*
X164211000Y-111740178D02*
X163429178Y-112522000D01*
X164211000Y-111702314D02*
X164211000Y-111740178D01*
X162767944Y-112522000D02*
X162262268Y-112016324D01*
X163429178Y-112522000D02*
X162767944Y-112522000D01*
X161243990Y-110998046D02*
X161243990Y-110363000D01*
X162262268Y-112016324D02*
X161243990Y-110998046D01*
X156047600Y-117612000D02*
X156768800Y-116890800D01*
X156768800Y-116890800D02*
X156768800Y-113690400D01*
X154846000Y-117612000D02*
X156047600Y-117612000D01*
X147203000Y-112532000D02*
X146558000Y-111887000D01*
X148096000Y-112532000D02*
X147203000Y-112532000D01*
X144260000Y-91567000D02*
X144387000Y-91694000D01*
X144260000Y-90297000D02*
X144260000Y-91567000D01*
X144260000Y-89916000D02*
X144260000Y-90297000D01*
X144260000Y-93865000D02*
X144260000Y-93726000D01*
X142760000Y-95365000D02*
X144260000Y-93865000D01*
X142760000Y-95758000D02*
X142760000Y-95365000D01*
X144260000Y-88011000D02*
X145669000Y-88011000D01*
X144780000Y-89916000D02*
X145542000Y-90678000D01*
X144260000Y-89916000D02*
X144780000Y-89916000D01*
X140573000Y-94586000D02*
X140323000Y-94836000D01*
X140573000Y-92786000D02*
X140573000Y-94586000D01*
X138473000Y-92786000D02*
X138323000Y-92936000D01*
X140573000Y-92786000D02*
X138473000Y-92786000D01*
X133409000Y-96450000D02*
X135023000Y-94836000D01*
X133409000Y-100230000D02*
X133409000Y-96450000D01*
X133409000Y-110558000D02*
X132715000Y-111252000D01*
X133409000Y-109628000D02*
X133409000Y-110558000D01*
X133409000Y-116908000D02*
X133477000Y-116840000D01*
X133409000Y-118518000D02*
X133409000Y-116908000D01*
X134673340Y-122989340D02*
X134620000Y-122936000D01*
X134673340Y-123974860D02*
X134673340Y-122989340D01*
X144006000Y-121527000D02*
X145034000Y-122555000D01*
X144006000Y-120650000D02*
X144006000Y-121527000D01*
X147437000Y-120152000D02*
X145034000Y-122555000D01*
X148096000Y-120152000D02*
X147437000Y-120152000D01*
X143879000Y-123710000D02*
X145034000Y-122555000D01*
X143879000Y-124968000D02*
X143879000Y-123710000D01*
X192716000Y-107512000D02*
X192278000Y-107950000D01*
X192716000Y-106267000D02*
X192716000Y-107512000D01*
X188964000Y-110629000D02*
X189103000Y-110490000D01*
X188734000Y-110121000D02*
X188734000Y-108331000D01*
X188734000Y-110121000D02*
X189103000Y-110490000D01*
X188964000Y-112141000D02*
X188964000Y-110629000D01*
X190256000Y-118501000D02*
X190754000Y-118999000D01*
X188755000Y-118501000D02*
X190256000Y-118501000D01*
X188149800Y-130671000D02*
X188112400Y-130708400D01*
X186425000Y-129021000D02*
X186425000Y-128397000D01*
X186425000Y-129021000D02*
X188112400Y-130708400D01*
X190500000Y-130671000D02*
X188149800Y-130671000D01*
X184646000Y-124370400D02*
X184200800Y-124815600D01*
X184646000Y-123444000D02*
X184646000Y-124370400D01*
X172073000Y-120104600D02*
X172669200Y-120700800D01*
X172073000Y-119253000D02*
X172073000Y-120104600D01*
X163104400Y-128154000D02*
X163728400Y-128778000D01*
X161925000Y-128154000D02*
X163104400Y-128154000D01*
X144500600Y-110363000D02*
X145491200Y-109372400D01*
X144260000Y-110363000D02*
X144500600Y-110363000D01*
X145237200Y-93726000D02*
X145694400Y-94183200D01*
X144260000Y-93726000D02*
X145237200Y-93726000D01*
X147716400Y-116342000D02*
X146253200Y-117805200D01*
X148096000Y-116342000D02*
X147716400Y-116342000D01*
X144145000Y-115697000D02*
X146253200Y-117805200D01*
X144006000Y-115697000D02*
X144145000Y-115697000D01*
X154940000Y-104698800D02*
X154940000Y-103835200D01*
X153097800Y-106541000D02*
X154940000Y-104698800D01*
X153035000Y-106541000D02*
X153097800Y-106541000D01*
X159131000Y-110820200D02*
X157480000Y-109169200D01*
X159131000Y-110998000D02*
X159131000Y-110820200D01*
X168616600Y-126097000D02*
X167640000Y-125120400D01*
X169672000Y-126097000D02*
X168616600Y-126097000D01*
X177419000Y-109347000D02*
X176936400Y-109829600D01*
X177419000Y-108012000D02*
X177419000Y-109347000D01*
X165227000Y-88265000D02*
X165709600Y-87782400D01*
X164514000Y-88265000D02*
X165227000Y-88265000D01*
D49*
X144170400Y-124968000D02*
X143879000Y-124968000D01*
X145846800Y-126644400D02*
X144170400Y-124968000D01*
X169270161Y-116895361D02*
X167944800Y-115570000D01*
X169404047Y-116895361D02*
X169270161Y-116895361D01*
D50*
X151447500Y-96837500D02*
X151003000Y-97282000D01*
X153631900Y-96837500D02*
X151447500Y-96837500D01*
X160972500Y-96202500D02*
X161036000Y-96139000D01*
X158534100Y-96202500D02*
X160972500Y-96202500D01*
X162860056Y-109220000D02*
X162306000Y-109220000D01*
X163959324Y-110319268D02*
X162860056Y-109220000D01*
X162827953Y-111450639D02*
X162306000Y-110928686D01*
X162306000Y-110928686D02*
X162306000Y-109848617D01*
X162306000Y-109848617D02*
X162306000Y-109220000D01*
X187464000Y-116066000D02*
X187071000Y-116459000D01*
X187071000Y-116459000D02*
X187071000Y-119380000D01*
X187071000Y-119380000D02*
X187442000Y-119751000D01*
X187442000Y-119751000D02*
X188755000Y-119751000D01*
X187464000Y-112141000D02*
X187464000Y-116066000D01*
X184011000Y-112141000D02*
X183896000Y-112256000D01*
X187464000Y-112141000D02*
X184011000Y-112141000D01*
X190316000Y-108249000D02*
X190234000Y-108331000D01*
X190316000Y-106267000D02*
X190316000Y-108249000D01*
X190234000Y-114427000D02*
X191643000Y-115836000D01*
X190234000Y-108331000D02*
X190234000Y-114427000D01*
X175092000Y-102849000D02*
X174879000Y-103062000D01*
X175092000Y-96366000D02*
X175092000Y-102849000D01*
X174879000Y-103062000D02*
X176149000Y-103062000D01*
X174879000Y-103062000D02*
X174879000Y-108012000D01*
X174879000Y-108012000D02*
X173609000Y-108012000D01*
X179392000Y-103446000D02*
X180594000Y-104648000D01*
X179392000Y-96366000D02*
X179392000Y-103446000D01*
X148971000Y-108331000D02*
X148463000Y-107823000D01*
X148463000Y-107823000D02*
X143637000Y-107823000D01*
X143637000Y-107823000D02*
X143256000Y-107442000D01*
X143256000Y-107442000D02*
X142113000Y-107442000D01*
X142113000Y-107442000D02*
X141859000Y-107696000D01*
X141859000Y-107696000D02*
X140462000Y-107696000D01*
X140462000Y-107696000D02*
X139192000Y-106426000D01*
X171589000Y-102501000D02*
X172085000Y-102997000D01*
X172085000Y-102997000D02*
X172085000Y-108769686D01*
X172085000Y-108769686D02*
X169404047Y-111450639D01*
X170942000Y-102501000D02*
X171589000Y-102501000D01*
X158813500Y-125793500D02*
X158877000Y-125857000D01*
X157226000Y-124206000D02*
X158813500Y-125793500D01*
X162877500Y-125793500D02*
X162941000Y-125730000D01*
X165227000Y-125730000D02*
X167005000Y-125730000D01*
X167005000Y-125730000D02*
X167259000Y-125984000D01*
X167259000Y-125984000D02*
X167259000Y-127127000D01*
X179578000Y-105029000D02*
X178562000Y-104013000D01*
X178562000Y-104013000D02*
X178562000Y-99187000D01*
X178562000Y-99187000D02*
X177419000Y-98044000D01*
X177419000Y-98044000D02*
X177419000Y-88900000D01*
X177419000Y-88900000D02*
X176657000Y-88138000D01*
X180340000Y-116332000D02*
X180340000Y-111379000D01*
X179451000Y-117221000D02*
X180340000Y-116332000D01*
X179451000Y-129286000D02*
X179451000Y-121158000D01*
X177165000Y-131572000D02*
X179451000Y-129286000D01*
X175006000Y-131572000D02*
X177165000Y-131572000D01*
X174244000Y-130810000D02*
X175006000Y-131572000D01*
X158813500Y-125793500D02*
X162877500Y-125793500D01*
X170942000Y-101997000D02*
X170942000Y-102501000D01*
X170180000Y-101235000D02*
X170942000Y-101997000D01*
X176657000Y-90495626D02*
X170180000Y-96972626D01*
X170180000Y-96972626D02*
X170180000Y-101235000D01*
X176657000Y-88138000D02*
X176657000Y-90495626D01*
X169969732Y-112016324D02*
X169923676Y-112016324D01*
X174053500Y-88201500D02*
X174117000Y-88138000D01*
X172593000Y-100445000D02*
X172466000Y-100318000D01*
X172593000Y-109347000D02*
X172593000Y-100445000D01*
X169969732Y-111970268D02*
X172593000Y-109347000D01*
X169969732Y-112016324D02*
X169969732Y-111970268D01*
X172974000Y-92837000D02*
X174117000Y-91694000D01*
X174117000Y-91694000D02*
X174117000Y-88138000D01*
X163068000Y-90424000D02*
X162560000Y-90424000D01*
X166497000Y-93853000D02*
X163068000Y-90424000D01*
X166497000Y-105283000D02*
X166497000Y-93853000D01*
X165989000Y-105791000D02*
X166497000Y-105283000D01*
X164465000Y-105791000D02*
X165989000Y-105791000D01*
X173098346Y-96136346D02*
X173098346Y-96132339D01*
X173412599Y-96450599D02*
X173098346Y-96136346D01*
X173098346Y-96132339D02*
X173098346Y-95503722D01*
X173412599Y-97389521D02*
X173412599Y-96450599D01*
X173468479Y-97445401D02*
X173412599Y-97389521D01*
X174153401Y-97445401D02*
X173468479Y-97445401D01*
X174498000Y-97790000D02*
X174153401Y-97445401D01*
X174498000Y-99695000D02*
X174498000Y-97790000D01*
X173875000Y-100318000D02*
X174498000Y-99695000D01*
X172466000Y-100318000D02*
X173875000Y-100318000D01*
X185412000Y-91821000D02*
X188103000Y-94512000D01*
X184912000Y-91821000D02*
X185412000Y-91821000D01*
X181864000Y-94869000D02*
X181864000Y-106426000D01*
X181864000Y-106426000D02*
X178562000Y-109728000D01*
X178308000Y-113030000D02*
X174752000Y-116586000D01*
X174752000Y-116586000D02*
X171357427Y-116586000D01*
X171357427Y-116586000D02*
X170535417Y-115763990D01*
X184912000Y-91821000D02*
X181864000Y-94869000D01*
X186063000Y-95512000D02*
X184912000Y-94361000D01*
X188103000Y-95512000D02*
X186063000Y-95512000D01*
X182753000Y-96012000D02*
X182753000Y-106680000D01*
X182753000Y-106680000D02*
X178816000Y-110617000D01*
X178816000Y-110617000D02*
X175133000Y-110617000D01*
X175133000Y-110617000D02*
X173863000Y-111887000D01*
X173863000Y-111887000D02*
X173863000Y-112436408D01*
X173863000Y-112436408D02*
X171101103Y-115198305D01*
X184404000Y-94361000D02*
X182753000Y-96012000D01*
X184912000Y-94361000D02*
X184404000Y-94361000D01*
X185301000Y-96512000D02*
X184912000Y-96901000D01*
X188103000Y-96512000D02*
X185301000Y-96512000D01*
X172847000Y-112141000D02*
X171840305Y-113147695D01*
X171840305Y-113147695D02*
X171101103Y-113147695D01*
X186841000Y-97512000D02*
X184912000Y-99441000D01*
X188103000Y-97512000D02*
X186841000Y-97512000D01*
X170754990Y-112582010D02*
X170535417Y-112582010D01*
X172720000Y-110617000D02*
X170754990Y-112582010D01*
X165862000Y-90678000D02*
X165354000Y-90170000D01*
X168402000Y-90678000D02*
X165862000Y-90678000D01*
X166845897Y-119158103D02*
X167141305Y-119158103D01*
X166116000Y-119888000D02*
X166845897Y-119158103D01*
X149977000Y-113802000D02*
X150241000Y-113538000D01*
X150622000Y-111252000D02*
X150241000Y-110871000D01*
X150241000Y-110871000D02*
X150241000Y-106541000D01*
X148096000Y-113802000D02*
X149977000Y-113802000D01*
X154686000Y-110236000D02*
X155829000Y-111379000D01*
X155829000Y-111379000D02*
X158877000Y-114427000D01*
X158877000Y-114427000D02*
X158877000Y-115316000D01*
X158877000Y-115316000D02*
X160274000Y-116713000D01*
X150241000Y-106541000D02*
X150991000Y-106541000D01*
X150991000Y-106541000D02*
X152146000Y-107696000D01*
X145552000Y-113802000D02*
X144589499Y-112839499D01*
X144589499Y-112839499D02*
X144145000Y-112395000D01*
X148096000Y-113802000D02*
X145552000Y-113802000D01*
X170942000Y-125095000D02*
X170942000Y-123698000D01*
X171577000Y-125730000D02*
X170942000Y-125095000D01*
X193167000Y-109093000D02*
X193167000Y-124333000D01*
X193929000Y-108331000D02*
X193167000Y-109093000D01*
X172466000Y-125222000D02*
X172466000Y-137033000D01*
X170942000Y-123698000D02*
X172466000Y-125222000D01*
X172466000Y-135636000D02*
X170561000Y-133731000D01*
X170561000Y-133731000D02*
X165100000Y-133731000D01*
X165100000Y-133731000D02*
X163830000Y-135001000D01*
X163830000Y-135001000D02*
X156845000Y-135001000D01*
X172466000Y-137033000D02*
X172466000Y-135636000D01*
X168529000Y-123698000D02*
X170942000Y-123698000D01*
X165090695Y-120259695D02*
X168529000Y-123698000D01*
X165090695Y-119158103D02*
X165090695Y-120259695D01*
X193929000Y-124968000D02*
X191770000Y-127127000D01*
X193929000Y-109728000D02*
X193929000Y-124968000D01*
X194945000Y-108712000D02*
X193929000Y-109728000D01*
X159893000Y-123317000D02*
X159258000Y-123317000D01*
X159258000Y-123317000D02*
X155194000Y-123317000D01*
X155194000Y-123317000D02*
X149489000Y-117612000D01*
X149489000Y-117612000D02*
X148096000Y-117612000D01*
X163957000Y-119253000D02*
X159893000Y-123317000D01*
X164525010Y-118684990D02*
X163957000Y-119253000D01*
X164525010Y-118592417D02*
X164525010Y-118684990D01*
X165357889Y-123701889D02*
X165354000Y-123698000D01*
X163576000Y-120777000D02*
X163957000Y-120396000D01*
X163957000Y-120396000D02*
X163957000Y-119253000D01*
X167509111Y-123701889D02*
X165357889Y-123701889D01*
X156347000Y-118882000D02*
X154846000Y-118882000D01*
X161151000Y-120916000D02*
X157988000Y-120916000D01*
X163959324Y-118107676D02*
X161151000Y-120916000D01*
X163959324Y-118026732D02*
X163959324Y-118107676D01*
X157988000Y-120523000D02*
X156347000Y-118882000D01*
X157988000Y-120916000D02*
X157988000Y-120523000D01*
X161696583Y-115763990D02*
X161696583Y-115671417D01*
X161696583Y-115671417D02*
X162814000Y-114554000D01*
X162814000Y-114554000D02*
X164465000Y-114554000D01*
X162262268Y-116329676D02*
X162435324Y-116329676D01*
X162435324Y-116329676D02*
X163449000Y-115316000D01*
X188755000Y-121001000D02*
X187101000Y-121001000D01*
X162791202Y-113538000D02*
X161130897Y-115198305D01*
X163703000Y-113538000D02*
X162791202Y-113538000D01*
X164465000Y-112776000D02*
X163703000Y-113538000D01*
X174498000Y-120396000D02*
X173482000Y-119380000D01*
X180594000Y-120396000D02*
X174498000Y-120396000D01*
X180721000Y-120523000D02*
X180594000Y-120396000D01*
X187101000Y-121001000D02*
X187071000Y-121031000D01*
X161130897Y-115198305D02*
X161280695Y-115198305D01*
X164525010Y-109753583D02*
X164525010Y-109788010D01*
X164525010Y-109788010D02*
X165354000Y-110617000D01*
X165354000Y-110617000D02*
X165354000Y-115316000D01*
X181610000Y-122047000D02*
X182656000Y-121001000D01*
X182656000Y-121001000D02*
X183355000Y-121001000D01*
X174996000Y-119751000D02*
X172720000Y-117475000D01*
X172720000Y-117475000D02*
X171196000Y-117475000D01*
X166116000Y-111633000D02*
X165862000Y-111379000D01*
X165862000Y-111379000D02*
X165862000Y-109959202D01*
X165862000Y-109959202D02*
X165090695Y-109187897D01*
X183355000Y-119751000D02*
X174996000Y-119751000D01*
X180086000Y-134620000D02*
X184150000Y-130556000D01*
X184150000Y-130556000D02*
X184150000Y-126365000D01*
X184150000Y-126365000D02*
X185928000Y-124587000D01*
X185928000Y-124587000D02*
X185928000Y-120777000D01*
X185928000Y-120777000D02*
X184902000Y-119751000D01*
X184902000Y-119751000D02*
X183355000Y-119751000D01*
X180086000Y-137033000D02*
X180086000Y-134620000D01*
X167141305Y-109102305D02*
X167141305Y-109187897D01*
X178826000Y-118501000D02*
X178054000Y-117729000D01*
X178054000Y-117729000D02*
X178054000Y-114808000D01*
X166243000Y-108204000D02*
X167141305Y-109102305D01*
X183355000Y-118501000D02*
X178826000Y-118501000D01*
X167706990Y-109753583D02*
X167706990Y-109661010D01*
X167706990Y-109661010D02*
X168529000Y-108839000D01*
X146939000Y-100711000D02*
X146939000Y-99683000D01*
X147828000Y-101600000D02*
X146939000Y-100711000D01*
X168529000Y-108839000D02*
X168529000Y-105727500D01*
X167005000Y-110455573D02*
X167706990Y-109753583D01*
X167005000Y-111887000D02*
X167005000Y-110455573D01*
X167513000Y-112395000D02*
X167005000Y-111887000D01*
X179197000Y-111379000D02*
X175768000Y-111379000D01*
X180848000Y-109728000D02*
X179197000Y-111379000D01*
X187452000Y-109728000D02*
X180848000Y-109728000D01*
X187579000Y-109601000D02*
X187452000Y-109728000D01*
X168272676Y-110319268D02*
X168318732Y-110319268D01*
X168318732Y-110319268D02*
X169418000Y-109220000D01*
X169418000Y-109220000D02*
X169418000Y-108077000D01*
X161163000Y-108331000D02*
X161290000Y-108204000D01*
X161290000Y-108204000D02*
X161290000Y-104255000D01*
X191558000Y-117251000D02*
X191643000Y-117336000D01*
X188755000Y-117251000D02*
X191558000Y-117251000D01*
X139693617Y-112141000D02*
X139065000Y-112141000D01*
X148096000Y-115072000D02*
X145369626Y-115072000D01*
X142438626Y-112141000D02*
X139693617Y-112141000D01*
X145369626Y-115072000D02*
X142438626Y-112141000D01*
X146939000Y-108458000D02*
X142748000Y-108458000D01*
X149352000Y-110871000D02*
X146939000Y-108458000D01*
X154569000Y-120152000D02*
X149860000Y-115443000D01*
X154846000Y-120152000D02*
X154569000Y-120152000D01*
X140716000Y-116840000D02*
X142758000Y-118882000D01*
X142758000Y-118882000D02*
X148096000Y-118882000D01*
X176149000Y-106299000D02*
X177419000Y-105029000D01*
X177419000Y-105029000D02*
X177419000Y-103062000D01*
X176149000Y-108012000D02*
X176149000Y-106299000D01*
X191516000Y-102870000D02*
X191516000Y-102817000D01*
X177419000Y-104394000D02*
X179832000Y-106807000D01*
X182372000Y-108839000D02*
X183007000Y-108204000D01*
X183007000Y-108204000D02*
X186182000Y-108204000D01*
X186182000Y-108204000D02*
X191516000Y-102870000D01*
X177419000Y-103062000D02*
X177419000Y-104394000D01*
X153543000Y-128152000D02*
X153543000Y-128252000D01*
D51*
X153543000Y-128252000D02*
X157995000Y-132704000D01*
X157995000Y-132704000D02*
X161925000Y-132704000D01*
X161925000Y-132704000D02*
X165492000Y-132704000D01*
X167499000Y-130697000D02*
X169672000Y-130697000D01*
X165492000Y-132704000D02*
X167499000Y-130697000D01*
D50*
X169520000Y-130545000D02*
X169672000Y-130697000D01*
X168838361Y-117518361D02*
X170573000Y-119253000D01*
X168838361Y-117461047D02*
X168838361Y-117518361D01*
D51*
X141185000Y-89586000D02*
X141865000Y-88906000D01*
X141865000Y-88906000D02*
X142760000Y-88011000D01*
D50*
X140573000Y-89586000D02*
X141185000Y-89586000D01*
D51*
X142760000Y-86983000D02*
X142875000Y-86868000D01*
X142760000Y-88011000D02*
X142760000Y-86983000D01*
X152459000Y-86868000D02*
X153983000Y-88646000D01*
X142875000Y-86868000D02*
X152459000Y-86868000D01*
D50*
X142290000Y-90386000D02*
X142760000Y-89916000D01*
X140573000Y-90386000D02*
X142290000Y-90386000D01*
X143510000Y-89027000D02*
X149237000Y-89027000D01*
X149237000Y-89027000D02*
X150114000Y-89904000D01*
X142760000Y-89777000D02*
X143510000Y-89027000D01*
X142760000Y-89916000D02*
X142760000Y-89777000D01*
X142379000Y-91186000D02*
X142887000Y-91694000D01*
X140573000Y-91186000D02*
X142379000Y-91186000D01*
X142887000Y-92087000D02*
X143637000Y-92837000D01*
X143637000Y-92837000D02*
X148221000Y-92837000D01*
X148221000Y-92837000D02*
X150114000Y-94730000D01*
X142887000Y-91694000D02*
X142887000Y-92087000D01*
X153416000Y-132588000D02*
X153543000Y-132461000D01*
D51*
X148796000Y-132588000D02*
X153416000Y-132588000D01*
D50*
X190500000Y-126099000D02*
X190500000Y-129171000D01*
X150241000Y-105041000D02*
X153035000Y-105041000D01*
X143014000Y-105168000D02*
X144641000Y-106795000D01*
X144641000Y-106795000D02*
X146050000Y-106795000D01*
X141224000Y-105168000D02*
X143014000Y-105168000D01*
X158534100Y-93662500D02*
X158534100Y-92367100D01*
X143752000Y-102997000D02*
X146050000Y-105295000D01*
X138049000Y-102997000D02*
X143752000Y-102997000D01*
X137541000Y-102489000D02*
X138049000Y-102997000D01*
X157480000Y-91313000D02*
X155448000Y-91313000D01*
X158534100Y-92367100D02*
X157480000Y-91313000D01*
X143891000Y-98183000D02*
X141224000Y-98183000D01*
X144138991Y-99435009D02*
X143891000Y-99683000D01*
X144570801Y-98964001D02*
X144093793Y-98964001D01*
X144093793Y-98964001D02*
X144093793Y-99143425D01*
X144647001Y-98887801D02*
X144570801Y-98964001D01*
X144647001Y-97662980D02*
X144647001Y-98887801D01*
X146107999Y-97662980D02*
X144647001Y-97662980D01*
X146184199Y-97551999D02*
X146107999Y-97628199D01*
X144138991Y-99188623D02*
X144138991Y-99435009D01*
X147693801Y-97551999D02*
X146184199Y-97551999D01*
X147770001Y-97628199D02*
X147693801Y-97551999D01*
X144093793Y-99143425D02*
X144138991Y-99188623D01*
X147770001Y-98543989D02*
X147770001Y-97628199D01*
X147904225Y-98543989D02*
X147770001Y-98543989D01*
X153581101Y-97523299D02*
X152311099Y-97523299D01*
X152311099Y-97523299D02*
X152234899Y-97599499D01*
X152234899Y-97599499D02*
X152234899Y-98679000D01*
X146107999Y-97628199D02*
X146107999Y-97662980D01*
X152234899Y-98679000D02*
X148039236Y-98679000D01*
X153631900Y-97472500D02*
X153581101Y-97523299D01*
X148039236Y-98679000D02*
X147904225Y-98543989D01*
X161631962Y-130873500D02*
X159079730Y-128321268D01*
X165862000Y-130873500D02*
X161631962Y-130873500D01*
X159079730Y-128321268D02*
X158635231Y-127876769D01*
X164655500Y-137033000D02*
X163322000Y-137033000D01*
X166814500Y-134874000D02*
X164655500Y-137033000D01*
X168838361Y-110884953D02*
X168838361Y-110815639D01*
X168838361Y-110815639D02*
X170688000Y-108966000D01*
X170688000Y-108966000D02*
X170688000Y-106045000D01*
X170688000Y-106045000D02*
X170307000Y-105664000D01*
X161114000Y-91633000D02*
X161429000Y-91948000D01*
X161114000Y-88265000D02*
X161114000Y-91633000D01*
X162052000Y-88265000D02*
X167005000Y-93218000D01*
X167005000Y-93218000D02*
X168402000Y-93218000D01*
X161114000Y-88265000D02*
X162052000Y-88265000D01*
X175768000Y-138811000D02*
X177546000Y-137033000D01*
X165354000Y-138811000D02*
X175768000Y-138811000D01*
X165227000Y-138684000D02*
X165354000Y-138811000D01*
X162827953Y-116895361D02*
X162631639Y-116895361D01*
X162631639Y-116895361D02*
X159512000Y-120015000D01*
X163393639Y-117461047D02*
X163335953Y-117461047D01*
X163335953Y-117461047D02*
X161798000Y-118999000D01*
X150761000Y-88404000D02*
X155321000Y-92964000D01*
X155321000Y-92964000D02*
X155321000Y-93853000D01*
X155321000Y-93853000D02*
X154876500Y-94297500D01*
X154876500Y-94297500D02*
X153631900Y-94297500D01*
X150114000Y-88404000D02*
X150761000Y-88404000D01*
X150114000Y-93230000D02*
X153199400Y-93230000D01*
X153199400Y-93230000D02*
X153631900Y-93662500D01*
X147885078Y-99377500D02*
X146939000Y-98431422D01*
X153631900Y-99377500D02*
X147885078Y-99377500D01*
X146939000Y-98431422D02*
X146939000Y-98183000D01*
X161942780Y-99377500D02*
X161991040Y-99329240D01*
X158534100Y-99377500D02*
X161942780Y-99377500D01*
X161991040Y-101412040D02*
X162433000Y-101854000D01*
X162433000Y-101854000D02*
X162433000Y-103378000D01*
X162433000Y-103378000D02*
X162306000Y-103505000D01*
X162306000Y-103505000D02*
X159373000Y-103505000D01*
X159373000Y-103505000D02*
X158623000Y-104255000D01*
X161991040Y-99329240D02*
X161991040Y-101412040D01*
X157289500Y-97472500D02*
X156210000Y-98552000D01*
X156210000Y-98552000D02*
X156210000Y-99314000D01*
X156210000Y-99314000D02*
X158369000Y-101473000D01*
X158369000Y-101473000D02*
X160008000Y-101473000D01*
X160008000Y-101473000D02*
X161290000Y-102755000D01*
X158534100Y-97472500D02*
X157289500Y-97472500D01*
X159802751Y-110688178D02*
X161696583Y-112582010D01*
X159802751Y-110326249D02*
X159802751Y-110688178D01*
X158459249Y-112358249D02*
X159248695Y-113147695D01*
X159248695Y-113147695D02*
X161130897Y-113147695D01*
X158459249Y-111669751D02*
X158459249Y-112358249D01*
X154178000Y-109093000D02*
X153670000Y-109601000D01*
X153670000Y-109601000D02*
X153670000Y-110490000D01*
X153670000Y-110490000D02*
X154846000Y-111666000D01*
X154846000Y-111666000D02*
X154846000Y-112532000D01*
X161912300Y-98107500D02*
X161991040Y-98028760D01*
X158534100Y-98107500D02*
X161912300Y-98107500D01*
X137568000Y-109628000D02*
X137709000Y-109628000D01*
X137541000Y-109601000D02*
X137568000Y-109628000D01*
X142025000Y-109628000D02*
X142760000Y-110363000D01*
X137709000Y-109628000D02*
X142025000Y-109628000D01*
X143637000Y-111379000D02*
X145288000Y-111379000D01*
X145288000Y-111379000D02*
X146050000Y-110617000D01*
X146050000Y-110617000D02*
X147828000Y-110617000D01*
X147828000Y-110617000D02*
X149743000Y-112532000D01*
X149743000Y-112532000D02*
X154846000Y-112532000D01*
X142760000Y-110502000D02*
X143637000Y-111379000D01*
X142760000Y-110363000D02*
X142760000Y-110502000D01*
X157722000Y-102755000D02*
X154178000Y-106299000D01*
X154178000Y-106299000D02*
X154178000Y-109093000D01*
X158001400Y-102755000D02*
X157722000Y-102755000D01*
X158623000Y-102755000D02*
X158001400Y-102755000D01*
X153631900Y-94932500D02*
X153631900Y-95567500D01*
X138579860Y-126977140D02*
X139065000Y-126492000D01*
X139065000Y-126492000D02*
X139065000Y-123571000D01*
X139065000Y-123571000D02*
X136779000Y-121285000D01*
X136779000Y-121285000D02*
X136652000Y-121285000D01*
X136652000Y-121285000D02*
X135509000Y-120142000D01*
X135509000Y-120142000D02*
X135509000Y-117221000D01*
X135509000Y-117221000D02*
X137709000Y-115021000D01*
X137709000Y-115021000D02*
X137709000Y-109628000D01*
X134673340Y-126977140D02*
X138579860Y-126977140D01*
X179197000Y-93802200D02*
X178663600Y-94335600D01*
X157073600Y-104800400D02*
X157327600Y-104546400D01*
X157327600Y-104546400D02*
X157327600Y-103428800D01*
X157327600Y-103428800D02*
X158001400Y-102755000D01*
X179197000Y-88138000D02*
X179197000Y-93802200D01*
X155130500Y-95567500D02*
X155575000Y-96012000D01*
X155575000Y-96012000D02*
X155575000Y-99707000D01*
X155575000Y-99707000D02*
X158623000Y-102755000D01*
X153631900Y-95567500D02*
X155130500Y-95567500D01*
X151828500Y-95567500D02*
X153631900Y-95567500D01*
X144450500Y-95567500D02*
X151828500Y-95567500D01*
X144260000Y-95758000D02*
X144450500Y-95567500D01*
X154749500Y-95567500D02*
X156337000Y-93980000D01*
X156337000Y-93980000D02*
X156337000Y-93345000D01*
X161290000Y-93599000D02*
X161991040Y-94300040D01*
X161991040Y-94300040D02*
X161991040Y-98028760D01*
X153631900Y-95567500D02*
X154749500Y-95567500D01*
X162509200Y-105105200D02*
X162509200Y-104952800D01*
X164033200Y-106629200D02*
X162509200Y-105105200D01*
X166420800Y-106629200D02*
X164033200Y-106629200D01*
X167767000Y-105283000D02*
X166420800Y-106629200D01*
X167767000Y-102590600D02*
X167767000Y-105283000D01*
X168097200Y-102260400D02*
X167767000Y-102590600D01*
X162929000Y-97717040D02*
X163890960Y-98679000D01*
X162929000Y-91948000D02*
X162929000Y-97717040D01*
X163890960Y-102694040D02*
X163830000Y-102755000D01*
X163890960Y-98679000D02*
X163890960Y-102694040D01*
M02*
