G04 #@! TF.FileFunction,Paste,Top*
%FSLAX46Y46*%
G04 Gerber Fmt 4.6, Leading zero omitted, Abs format (unit mm)*
G04 Created by KiCad (PCBNEW (2015-01-06 BZR 5261)-product) date Thursday, April 09, 2015 'PMt' 11:27:51 PM*
%MOMM*%
G01*
G04 APERTURE LIST*
%ADD10C,0.152400*%
%ADD11R,0.800000X1.700000*%
%ADD12R,0.750000X0.800000*%
%ADD13R,0.900000X0.500000*%
%ADD14R,2.032000X0.406400*%
%ADD15R,2.800000X1.600000*%
%ADD16R,1.500000X3.200000*%
%ADD17R,2.650000X1.000000*%
%ADD18R,2.000000X1.500000*%
%ADD19R,2.000000X3.800000*%
%ADD20R,1.000000X2.650000*%
%ADD21R,2.300000X2.500000*%
%ADD22R,0.800000X0.750000*%
%ADD23R,2.000000X0.500000*%
%ADD24R,2.000000X0.600000*%
%ADD25R,4.200000X0.700000*%
%ADD26R,1.600000X1.500000*%
%ADD27R,1.200000X1.200000*%
%ADD28R,1.400000X0.480000*%
%ADD29R,1.550000X0.560000*%
%ADD30R,1.800000X1.200000*%
%ADD31R,1.600000X0.600000*%
%ADD32R,1.500000X0.500000*%
%ADD33R,0.570000X1.970000*%
%ADD34R,1.000760X0.599440*%
G04 APERTURE END LIST*
D10*
D11*
X164514000Y-88265000D03*
X161114000Y-88265000D03*
D12*
X146050000Y-106795000D03*
X146050000Y-105295000D03*
D13*
X141224000Y-105168000D03*
X141224000Y-106668000D03*
D12*
X143891000Y-98183000D03*
X143891000Y-99683000D03*
D14*
X153631900Y-96202500D03*
X153631900Y-95567500D03*
X153631900Y-94932500D03*
X153631900Y-94297500D03*
X153631900Y-93662500D03*
X153631900Y-96837500D03*
X153631900Y-97472500D03*
X153631900Y-98107500D03*
X153631900Y-98742500D03*
X153631900Y-99377500D03*
X158534100Y-99377500D03*
X158534100Y-98742500D03*
X158534100Y-98107500D03*
X158534100Y-97472500D03*
X158534100Y-96837500D03*
X158534100Y-96202500D03*
X158534100Y-95567500D03*
X158534100Y-94932500D03*
X158534100Y-94297500D03*
X158534100Y-93662500D03*
D15*
X179392000Y-96366000D03*
X175092000Y-96366000D03*
X133409000Y-118518000D03*
X137709000Y-118518000D03*
X133409000Y-109628000D03*
X137709000Y-109628000D03*
D16*
X153983000Y-88646000D03*
X158183000Y-88646000D03*
D12*
X190500000Y-129171000D03*
X190500000Y-130671000D03*
X153035000Y-105041000D03*
X153035000Y-106541000D03*
D17*
X181875000Y-128397000D03*
X186425000Y-128397000D03*
D10*
G36*
X158671381Y-110326249D02*
X159802751Y-111457619D01*
X159590619Y-111669751D01*
X158459249Y-110538381D01*
X158671381Y-110326249D01*
X158671381Y-110326249D01*
G37*
G36*
X159343132Y-109654498D02*
X160474502Y-110785868D01*
X160262370Y-110998000D01*
X159131000Y-109866630D01*
X159343132Y-109654498D01*
X159343132Y-109654498D01*
G37*
G36*
X157999630Y-110998000D02*
X159131000Y-112129370D01*
X158918868Y-112341502D01*
X157787498Y-111210132D01*
X157999630Y-110998000D01*
X157999630Y-110998000D01*
G37*
D18*
X169672000Y-126097000D03*
X169672000Y-128397000D03*
X169672000Y-130697000D03*
D19*
X175972000Y-128397000D03*
D20*
X161925000Y-132704000D03*
X161925000Y-128154000D03*
D15*
X133409000Y-100230000D03*
X137709000Y-100230000D03*
D21*
X153543000Y-132461000D03*
X153543000Y-128152000D03*
D22*
X142379000Y-124968000D03*
X143879000Y-124968000D03*
X142506000Y-120650000D03*
X144006000Y-120650000D03*
X142506000Y-115697000D03*
X144006000Y-115697000D03*
X142760000Y-110363000D03*
X144260000Y-110363000D03*
X188964000Y-112141000D03*
X187464000Y-112141000D03*
X190234000Y-108331000D03*
X188734000Y-108331000D03*
X183146000Y-123444000D03*
X184646000Y-123444000D03*
X170573000Y-119253000D03*
X172073000Y-119253000D03*
X142760000Y-88011000D03*
X144260000Y-88011000D03*
X142760000Y-89916000D03*
X144260000Y-89916000D03*
X142887000Y-91694000D03*
X144387000Y-91694000D03*
X142760000Y-93726000D03*
X144260000Y-93726000D03*
X144260000Y-95758000D03*
X142760000Y-95758000D03*
D23*
X140573000Y-91186000D03*
X140573000Y-90386000D03*
X140573000Y-89586000D03*
X140573000Y-91986000D03*
X140573000Y-92786000D03*
D24*
X188103000Y-96512000D03*
X188103000Y-97512000D03*
X188103000Y-95512000D03*
X188103000Y-94512000D03*
D25*
X190103000Y-98512000D03*
X190103000Y-93512000D03*
D13*
X172466000Y-98818000D03*
X172466000Y-100318000D03*
X183896000Y-110756000D03*
X183896000Y-112256000D03*
X191643000Y-115836000D03*
X191643000Y-117336000D03*
X157988000Y-122416000D03*
X157988000Y-120916000D03*
X190500000Y-124599000D03*
X190500000Y-126099000D03*
X150241000Y-105041000D03*
X150241000Y-106541000D03*
X150114000Y-89904000D03*
X150114000Y-88404000D03*
X150114000Y-94730000D03*
X150114000Y-93230000D03*
X146939000Y-98183000D03*
X146939000Y-99683000D03*
X158623000Y-102755000D03*
X158623000Y-104255000D03*
X161290000Y-102755000D03*
X161290000Y-104255000D03*
X163830000Y-104255000D03*
X163830000Y-102755000D03*
X141224000Y-98183000D03*
X141224000Y-99683000D03*
D26*
X191516000Y-102817000D03*
D27*
X190316000Y-106267000D03*
X192716000Y-106267000D03*
D28*
X134673340Y-123974860D03*
D29*
X134725000Y-125476000D03*
D28*
X134673340Y-126977140D03*
D30*
X136825000Y-125476000D03*
D10*
G36*
X135975000Y-126026000D02*
X135475000Y-125726000D01*
X135475000Y-125226000D01*
X135975000Y-124926000D01*
X135975000Y-126026000D01*
X135975000Y-126026000D01*
G37*
G36*
X137675000Y-124926000D02*
X138175000Y-125226000D01*
X138175000Y-125726000D01*
X137675000Y-126026000D01*
X137675000Y-124926000D01*
X137675000Y-124926000D01*
G37*
D31*
X188755000Y-117251000D03*
X183355000Y-117251000D03*
X188755000Y-118501000D03*
X188755000Y-119751000D03*
X188755000Y-121001000D03*
X183355000Y-118501000D03*
X183355000Y-119751000D03*
X183355000Y-121001000D03*
D32*
X148096000Y-112532000D03*
X148096000Y-113802000D03*
X148096000Y-115072000D03*
X148096000Y-116342000D03*
X148096000Y-117612000D03*
X148096000Y-118882000D03*
X148096000Y-120152000D03*
X154846000Y-120152000D03*
X154846000Y-118882000D03*
X154846000Y-117612000D03*
X154846000Y-116342000D03*
X154846000Y-115072000D03*
X154846000Y-113802000D03*
X154846000Y-112532000D03*
D33*
X173609000Y-103062000D03*
X174879000Y-103062000D03*
X176149000Y-103062000D03*
X177419000Y-103062000D03*
X173609000Y-108012000D03*
X174879000Y-108012000D03*
X176149000Y-108012000D03*
X177419000Y-108012000D03*
D10*
G36*
X164330555Y-108816666D02*
X164719464Y-108427757D01*
X165850835Y-109559128D01*
X165461926Y-109948037D01*
X164330555Y-108816666D01*
X164330555Y-108816666D01*
G37*
G36*
X163764870Y-109382352D02*
X164153779Y-108993443D01*
X165285150Y-110124814D01*
X164896241Y-110513723D01*
X163764870Y-109382352D01*
X163764870Y-109382352D01*
G37*
G36*
X163199184Y-109948037D02*
X163588093Y-109559128D01*
X164719464Y-110690499D01*
X164330555Y-111079408D01*
X163199184Y-109948037D01*
X163199184Y-109948037D01*
G37*
G36*
X162633499Y-110513722D02*
X163022408Y-110124813D01*
X164153779Y-111256184D01*
X163764870Y-111645093D01*
X162633499Y-110513722D01*
X162633499Y-110513722D01*
G37*
G36*
X162067813Y-111079408D02*
X162456722Y-110690499D01*
X163588093Y-111821870D01*
X163199184Y-112210779D01*
X162067813Y-111079408D01*
X162067813Y-111079408D01*
G37*
G36*
X161502128Y-111645093D02*
X161891037Y-111256184D01*
X163022408Y-112387555D01*
X162633499Y-112776464D01*
X161502128Y-111645093D01*
X161502128Y-111645093D01*
G37*
G36*
X160936443Y-112210779D02*
X161325352Y-111821870D01*
X162456723Y-112953241D01*
X162067814Y-113342150D01*
X160936443Y-112210779D01*
X160936443Y-112210779D01*
G37*
G36*
X160370757Y-112776464D02*
X160759666Y-112387555D01*
X161891037Y-113518926D01*
X161502128Y-113907835D01*
X160370757Y-112776464D01*
X160370757Y-112776464D01*
G37*
G36*
X160759666Y-115958445D02*
X160370757Y-115569536D01*
X161502128Y-114438165D01*
X161891037Y-114827074D01*
X160759666Y-115958445D01*
X160759666Y-115958445D01*
G37*
G36*
X161325352Y-116524130D02*
X160936443Y-116135221D01*
X162067814Y-115003850D01*
X162456723Y-115392759D01*
X161325352Y-116524130D01*
X161325352Y-116524130D01*
G37*
G36*
X161891037Y-117089816D02*
X161502128Y-116700907D01*
X162633499Y-115569536D01*
X163022408Y-115958445D01*
X161891037Y-117089816D01*
X161891037Y-117089816D01*
G37*
G36*
X162456722Y-117655501D02*
X162067813Y-117266592D01*
X163199184Y-116135221D01*
X163588093Y-116524130D01*
X162456722Y-117655501D01*
X162456722Y-117655501D01*
G37*
G36*
X163022408Y-118221187D02*
X162633499Y-117832278D01*
X163764870Y-116700907D01*
X164153779Y-117089816D01*
X163022408Y-118221187D01*
X163022408Y-118221187D01*
G37*
G36*
X163588093Y-118786872D02*
X163199184Y-118397963D01*
X164330555Y-117266592D01*
X164719464Y-117655501D01*
X163588093Y-118786872D01*
X163588093Y-118786872D01*
G37*
G36*
X164153779Y-119352557D02*
X163764870Y-118963648D01*
X164896241Y-117832277D01*
X165285150Y-118221186D01*
X164153779Y-119352557D01*
X164153779Y-119352557D01*
G37*
G36*
X164719464Y-119918243D02*
X164330555Y-119529334D01*
X165461926Y-118397963D01*
X165850835Y-118786872D01*
X164719464Y-119918243D01*
X164719464Y-119918243D01*
G37*
G36*
X166381165Y-118786872D02*
X166770074Y-118397963D01*
X167901445Y-119529334D01*
X167512536Y-119918243D01*
X166381165Y-118786872D01*
X166381165Y-118786872D01*
G37*
G36*
X166946850Y-118221186D02*
X167335759Y-117832277D01*
X168467130Y-118963648D01*
X168078221Y-119352557D01*
X166946850Y-118221186D01*
X166946850Y-118221186D01*
G37*
G36*
X167512536Y-117655501D02*
X167901445Y-117266592D01*
X169032816Y-118397963D01*
X168643907Y-118786872D01*
X167512536Y-117655501D01*
X167512536Y-117655501D01*
G37*
G36*
X168078221Y-117089816D02*
X168467130Y-116700907D01*
X169598501Y-117832278D01*
X169209592Y-118221187D01*
X168078221Y-117089816D01*
X168078221Y-117089816D01*
G37*
G36*
X168643907Y-116524130D02*
X169032816Y-116135221D01*
X170164187Y-117266592D01*
X169775278Y-117655501D01*
X168643907Y-116524130D01*
X168643907Y-116524130D01*
G37*
G36*
X169209592Y-115958445D02*
X169598501Y-115569536D01*
X170729872Y-116700907D01*
X170340963Y-117089816D01*
X169209592Y-115958445D01*
X169209592Y-115958445D01*
G37*
G36*
X169775277Y-115392759D02*
X170164186Y-115003850D01*
X171295557Y-116135221D01*
X170906648Y-116524130D01*
X169775277Y-115392759D01*
X169775277Y-115392759D01*
G37*
G36*
X170340963Y-114827074D02*
X170729872Y-114438165D01*
X171861243Y-115569536D01*
X171472334Y-115958445D01*
X170340963Y-114827074D01*
X170340963Y-114827074D01*
G37*
G36*
X170729872Y-113907835D02*
X170340963Y-113518926D01*
X171472334Y-112387555D01*
X171861243Y-112776464D01*
X170729872Y-113907835D01*
X170729872Y-113907835D01*
G37*
G36*
X170164186Y-113342150D02*
X169775277Y-112953241D01*
X170906648Y-111821870D01*
X171295557Y-112210779D01*
X170164186Y-113342150D01*
X170164186Y-113342150D01*
G37*
G36*
X169598501Y-112776464D02*
X169209592Y-112387555D01*
X170340963Y-111256184D01*
X170729872Y-111645093D01*
X169598501Y-112776464D01*
X169598501Y-112776464D01*
G37*
G36*
X169032816Y-112210779D02*
X168643907Y-111821870D01*
X169775278Y-110690499D01*
X170164187Y-111079408D01*
X169032816Y-112210779D01*
X169032816Y-112210779D01*
G37*
G36*
X168467130Y-111645093D02*
X168078221Y-111256184D01*
X169209592Y-110124813D01*
X169598501Y-110513722D01*
X168467130Y-111645093D01*
X168467130Y-111645093D01*
G37*
G36*
X167901445Y-111079408D02*
X167512536Y-110690499D01*
X168643907Y-109559128D01*
X169032816Y-109948037D01*
X167901445Y-111079408D01*
X167901445Y-111079408D01*
G37*
G36*
X167335759Y-110513723D02*
X166946850Y-110124814D01*
X168078221Y-108993443D01*
X168467130Y-109382352D01*
X167335759Y-110513723D01*
X167335759Y-110513723D01*
G37*
G36*
X166770074Y-109948037D02*
X166381165Y-109559128D01*
X167512536Y-108427757D01*
X167901445Y-108816666D01*
X166770074Y-109948037D01*
X166770074Y-109948037D01*
G37*
D34*
X161991040Y-99329240D03*
X161991040Y-98028760D03*
X163890960Y-98679000D03*
D13*
X170942000Y-104001000D03*
X170942000Y-102501000D03*
D22*
X161429000Y-91948000D03*
X162929000Y-91948000D03*
M02*
