G04 #@! TF.FileFunction,Copper,L2,Bot,Signal*
%FSLAX46Y46*%
G04 Gerber Fmt 4.6, Leading zero omitted, Abs format (unit mm)*
G04 Created by KiCad (PCBNEW (2015-01-06 BZR 5261)-product) date Thursday, February 12, 2015 'PMt' 09:45:42 PM*
%MOMM*%
G01*
G04 APERTURE LIST*
%ADD10C,0.152400*%
%ADD11R,1.727200X2.032000*%
%ADD12O,1.727200X2.032000*%
%ADD13R,6.096000X6.096000*%
%ADD14C,1.270000*%
%ADD15R,2.032000X2.032000*%
%ADD16O,2.032000X2.032000*%
%ADD17R,2.032000X1.727200*%
%ADD18O,2.032000X1.727200*%
%ADD19C,0.889000*%
%ADD20C,0.254000*%
G04 APERTURE END LIST*
D10*
D11*
X154686000Y-88900000D03*
D12*
X157226000Y-88900000D03*
X159766000Y-88900000D03*
X162306000Y-88900000D03*
X164846000Y-88900000D03*
X167386000Y-88900000D03*
X169926000Y-88900000D03*
X172466000Y-88900000D03*
D11*
X176530000Y-88900000D03*
D12*
X179070000Y-88900000D03*
X181610000Y-88900000D03*
X184150000Y-88900000D03*
X186690000Y-88900000D03*
X189230000Y-88900000D03*
X191770000Y-88900000D03*
X194310000Y-88900000D03*
D11*
X163830000Y-137160000D03*
D12*
X166370000Y-137160000D03*
X168910000Y-137160000D03*
X171450000Y-137160000D03*
X173990000Y-137160000D03*
X176530000Y-137160000D03*
D11*
X181610000Y-137223500D03*
D12*
X184150000Y-137223500D03*
X186690000Y-137223500D03*
X189230000Y-137223500D03*
X191770000Y-137223500D03*
X194310000Y-137223500D03*
D13*
X153670000Y-111760000D03*
X153670000Y-98806000D03*
X153670000Y-124714000D03*
D14*
X185420000Y-124777500D03*
X187960000Y-124777500D03*
X185420000Y-122237500D03*
X187960000Y-122237500D03*
X185420000Y-119697500D03*
X187960000Y-119697500D03*
X185420000Y-117157500D03*
X187960000Y-117157500D03*
X185420000Y-114617500D03*
X187960000Y-114617500D03*
X185420000Y-112077500D03*
X187960000Y-112077500D03*
X185420000Y-109537500D03*
X187960000Y-109537500D03*
X185420000Y-106997500D03*
X187960000Y-106997500D03*
D11*
X181610000Y-133350000D03*
D12*
X184150000Y-133350000D03*
X186690000Y-133350000D03*
X189230000Y-133350000D03*
D15*
X156210000Y-137160000D03*
D16*
X158750000Y-137160000D03*
D17*
X137160000Y-137160000D03*
D18*
X137160000Y-134620000D03*
X137160000Y-132080000D03*
X137160000Y-129540000D03*
X137160000Y-127000000D03*
X137160000Y-124460000D03*
D19*
X158800800Y-127050800D03*
X175895000Y-117475000D03*
X138938000Y-87782400D03*
X139344400Y-100025200D03*
X164896800Y-103174800D03*
X171704000Y-94589600D03*
X165404800Y-96367600D03*
X161036000Y-94589600D03*
X172262800Y-110388400D03*
X171500800Y-105054400D03*
X166268400Y-119837200D03*
X182168800Y-124155200D03*
X132689600Y-91694000D03*
X168503600Y-121716800D03*
X173634400Y-126695200D03*
X177901600Y-123139200D03*
X161925000Y-117475000D03*
X140335000Y-106680000D03*
X166370000Y-113665000D03*
X163830000Y-112395000D03*
X157734000Y-122428000D03*
X171958000Y-118745000D03*
X179451000Y-118745000D03*
X182753000Y-117729000D03*
X157480000Y-123825000D03*
X137795000Y-120015000D03*
X137795000Y-107315000D03*
X142240000Y-123317000D03*
X140462000Y-118364000D03*
X153670000Y-135255000D03*
X161290000Y-135255000D03*
X170815000Y-135255000D03*
X179070000Y-135255000D03*
X146685000Y-123571000D03*
X142367000Y-116205000D03*
X134620000Y-123063000D03*
X175895000Y-133350000D03*
X165862000Y-133350000D03*
X177800000Y-131445000D03*
X166878000Y-132461000D03*
X175895000Y-130175000D03*
X167005000Y-130937000D03*
X177800000Y-128905000D03*
X166624000Y-129667000D03*
X153733500Y-92646500D03*
X166497000Y-98234500D03*
X180086000Y-103505000D03*
X181483000Y-104775000D03*
X182753000Y-105918000D03*
X183896000Y-107442000D03*
X185674000Y-100076000D03*
X185674000Y-96520000D03*
X188087000Y-99314000D03*
X188214000Y-96520000D03*
X172847000Y-111760000D03*
X168148000Y-111760000D03*
X155511500Y-93726000D03*
X166052500Y-92519500D03*
X157607000Y-94869000D03*
X162560000Y-96266000D03*
X162687000Y-121285000D03*
X167767000Y-124587000D03*
X176530000Y-115570000D03*
X163830000Y-115570000D03*
D20*
X166370000Y-113665000D02*
X165100000Y-112395000D01*
X165100000Y-112395000D02*
X163830000Y-112395000D01*
X161417000Y-118745000D02*
X157734000Y-122428000D01*
X171958000Y-118745000D02*
X161417000Y-118745000D01*
X181737000Y-118745000D02*
X179451000Y-118745000D01*
X182753000Y-117729000D02*
X181737000Y-118745000D01*
X157480000Y-123825000D02*
X157480000Y-133985000D01*
X157480000Y-133985000D02*
X158750000Y-135255000D01*
X158750000Y-135255000D02*
X158750000Y-137160000D01*
X137795000Y-120015000D02*
X142494000Y-124714000D01*
X142494000Y-124714000D02*
X153670000Y-124714000D01*
X146304000Y-98806000D02*
X137795000Y-107315000D01*
X153670000Y-98806000D02*
X146304000Y-98806000D01*
X142240000Y-122555000D02*
X142240000Y-123317000D01*
X140462000Y-120777000D02*
X142240000Y-122555000D01*
X140462000Y-118364000D02*
X140462000Y-120777000D01*
X194310000Y-137223500D02*
X194310000Y-136525000D01*
X194310000Y-136525000D02*
X193040000Y-135255000D01*
X146685000Y-134620000D02*
X137160000Y-134620000D01*
X153035000Y-134620000D02*
X146685000Y-134620000D01*
X153670000Y-135255000D02*
X153035000Y-134620000D01*
X170815000Y-135255000D02*
X161290000Y-135255000D01*
X193040000Y-135255000D02*
X179070000Y-135255000D01*
X142875000Y-119761000D02*
X146685000Y-123571000D01*
X142875000Y-116713000D02*
X142875000Y-119761000D01*
X142367000Y-116205000D02*
X142875000Y-116713000D01*
X137160000Y-137160000D02*
X135509000Y-137160000D01*
X134620000Y-136271000D02*
X134620000Y-123063000D01*
X135509000Y-137160000D02*
X134620000Y-136271000D01*
X191770000Y-137223500D02*
X191770000Y-137795000D01*
X191770000Y-137795000D02*
X190500000Y-139065000D01*
X139065000Y-139065000D02*
X137160000Y-137160000D01*
X190500000Y-139065000D02*
X139065000Y-139065000D01*
X175895000Y-133350000D02*
X165862000Y-133350000D01*
X177800000Y-131445000D02*
X167894000Y-131445000D01*
X167894000Y-131445000D02*
X166878000Y-132461000D01*
X175895000Y-130175000D02*
X167767000Y-130175000D01*
X167767000Y-130175000D02*
X167005000Y-130937000D01*
X177800000Y-128905000D02*
X167386000Y-128905000D01*
X167386000Y-128905000D02*
X166624000Y-129667000D01*
X162306000Y-90297000D02*
X159956500Y-92646500D01*
X159956500Y-92646500D02*
X153733500Y-92646500D01*
X162306000Y-88900000D02*
X162306000Y-90297000D01*
X167386000Y-97345500D02*
X166497000Y-98234500D01*
X167386000Y-88900000D02*
X167386000Y-97345500D01*
X179070000Y-105727500D02*
X185420000Y-112077500D01*
X179070000Y-88900000D02*
X179070000Y-105727500D01*
X176530000Y-105727500D02*
X185420000Y-114617500D01*
X176530000Y-88900000D02*
X176530000Y-105727500D01*
X181610000Y-101981000D02*
X181610000Y-88900000D01*
X180086000Y-103505000D02*
X181610000Y-101981000D01*
X184150000Y-88900000D02*
X184150000Y-101219000D01*
X181483000Y-103886000D02*
X181483000Y-104775000D01*
X184150000Y-101219000D02*
X181483000Y-103886000D01*
X186690000Y-88900000D02*
X186690000Y-100330000D01*
X182753000Y-104267000D02*
X182753000Y-105918000D01*
X186690000Y-100330000D02*
X182753000Y-104267000D01*
X189230000Y-88900000D02*
X189230000Y-99568000D01*
X183896000Y-104902000D02*
X183896000Y-107442000D01*
X189230000Y-99568000D02*
X183896000Y-104902000D01*
X185674000Y-96520000D02*
X185674000Y-100076000D01*
X188087000Y-96647000D02*
X188087000Y-99314000D01*
X188214000Y-96520000D02*
X188087000Y-96647000D01*
X172847000Y-111760000D02*
X168148000Y-111760000D01*
X155511500Y-93726000D02*
X155575000Y-93789500D01*
X155575000Y-93789500D02*
X160210500Y-93789500D01*
X160210500Y-93789500D02*
X161480500Y-92519500D01*
X161480500Y-92519500D02*
X166052500Y-92519500D01*
X157607000Y-94869000D02*
X159004000Y-96266000D01*
X159004000Y-96266000D02*
X162560000Y-96266000D01*
X162687000Y-121285000D02*
X164465000Y-121285000D01*
X164465000Y-121285000D02*
X167767000Y-124587000D01*
X163830000Y-115570000D02*
X176530000Y-115570000D01*
G36*
X196313713Y-99466666D02*
X196221306Y-136891631D01*
X196217143Y-136897862D01*
X196165000Y-137160000D01*
X196165000Y-139015000D01*
X191627630Y-139015000D01*
X191741462Y-138901168D01*
X191770000Y-138906845D01*
X192343489Y-138792771D01*
X192829670Y-138467915D01*
X193040000Y-138153134D01*
X193250330Y-138467915D01*
X193736511Y-138792771D01*
X194310000Y-138906845D01*
X194883489Y-138792771D01*
X195369670Y-138467915D01*
X195694526Y-137981734D01*
X195808600Y-137408245D01*
X195808600Y-137038755D01*
X195808600Y-89084745D01*
X195808600Y-88715255D01*
X195694526Y-88141766D01*
X195369670Y-87655585D01*
X194883489Y-87330729D01*
X194310000Y-87216655D01*
X193736511Y-87330729D01*
X193250330Y-87655585D01*
X193040000Y-87970365D01*
X192829670Y-87655585D01*
X192343489Y-87330729D01*
X191770000Y-87216655D01*
X191196511Y-87330729D01*
X190710330Y-87655585D01*
X190500000Y-87970365D01*
X190289670Y-87655585D01*
X189803489Y-87330729D01*
X189230000Y-87216655D01*
X188656511Y-87330729D01*
X188170330Y-87655585D01*
X187960000Y-87970365D01*
X187749670Y-87655585D01*
X187263489Y-87330729D01*
X186690000Y-87216655D01*
X186116511Y-87330729D01*
X185630330Y-87655585D01*
X185420000Y-87970365D01*
X185209670Y-87655585D01*
X184723489Y-87330729D01*
X184150000Y-87216655D01*
X183576511Y-87330729D01*
X183090330Y-87655585D01*
X182880000Y-87970365D01*
X182669670Y-87655585D01*
X182183489Y-87330729D01*
X181610000Y-87216655D01*
X181036511Y-87330729D01*
X180550330Y-87655585D01*
X180340000Y-87970365D01*
X180129670Y-87655585D01*
X179643489Y-87330729D01*
X179070000Y-87216655D01*
X178496511Y-87330729D01*
X178010330Y-87655585D01*
X177999784Y-87671367D01*
X177994063Y-87641877D01*
X177854273Y-87429073D01*
X177643240Y-87286623D01*
X177393600Y-87236560D01*
X175666400Y-87236560D01*
X175424277Y-87283537D01*
X175211473Y-87423327D01*
X175069023Y-87634360D01*
X175018960Y-87884000D01*
X175018960Y-89916000D01*
X175065937Y-90158123D01*
X175205727Y-90370927D01*
X175416760Y-90513377D01*
X175666400Y-90563440D01*
X175768000Y-90563440D01*
X175768000Y-105727500D01*
X175826004Y-106019105D01*
X175991185Y-106266315D01*
X184150167Y-114425298D01*
X184149780Y-114869010D01*
X184342718Y-115335958D01*
X184699663Y-115693526D01*
X185166273Y-115887279D01*
X185168487Y-115887280D01*
X184701542Y-116080218D01*
X184343974Y-116437163D01*
X184150221Y-116903773D01*
X184149780Y-117409010D01*
X184342718Y-117875958D01*
X184699663Y-118233526D01*
X185166273Y-118427279D01*
X185383070Y-118427468D01*
X185092977Y-118444594D01*
X184765303Y-118580321D01*
X184711472Y-118809367D01*
X185420000Y-119517895D01*
X186128528Y-118809367D01*
X186074697Y-118580321D01*
X185634453Y-118427687D01*
X185671510Y-118427720D01*
X186138458Y-118234782D01*
X186496026Y-117877837D01*
X186689779Y-117411227D01*
X186689780Y-117409012D01*
X186882718Y-117875958D01*
X187239663Y-118233526D01*
X187706273Y-118427279D01*
X187708487Y-118427280D01*
X187241542Y-118620218D01*
X186883974Y-118977163D01*
X186690221Y-119443773D01*
X186690031Y-119660570D01*
X186672906Y-119370477D01*
X186537179Y-119042803D01*
X186308133Y-118988972D01*
X185599605Y-119697500D01*
X186308133Y-120406028D01*
X186537179Y-120352197D01*
X186689812Y-119911953D01*
X186689780Y-119949010D01*
X186882718Y-120415958D01*
X187239663Y-120773526D01*
X187706273Y-120967279D01*
X187708487Y-120967280D01*
X187241542Y-121160218D01*
X186883974Y-121517163D01*
X186690221Y-121983773D01*
X186690031Y-122200570D01*
X186672906Y-121910477D01*
X186537179Y-121582803D01*
X186308133Y-121528972D01*
X186128528Y-121708577D01*
X186128528Y-121349367D01*
X186074697Y-121120321D01*
X185608239Y-120958599D01*
X185747023Y-120950406D01*
X186074697Y-120814679D01*
X186128528Y-120585633D01*
X185420000Y-119877105D01*
X185240395Y-120056710D01*
X185240395Y-119697500D01*
X184531867Y-118988972D01*
X184302821Y-119042803D01*
X184137319Y-119520164D01*
X184167094Y-120024523D01*
X184302821Y-120352197D01*
X184531867Y-120406028D01*
X185240395Y-119697500D01*
X185240395Y-120056710D01*
X184711472Y-120585633D01*
X184765303Y-120814679D01*
X185231760Y-120976400D01*
X185092977Y-120984594D01*
X184765303Y-121120321D01*
X184711472Y-121349367D01*
X185420000Y-122057895D01*
X186128528Y-121349367D01*
X186128528Y-121708577D01*
X185599605Y-122237500D01*
X186308133Y-122946028D01*
X186537179Y-122892197D01*
X186689812Y-122451953D01*
X186689780Y-122489010D01*
X186882718Y-122955958D01*
X187239663Y-123313526D01*
X187706273Y-123507279D01*
X187708487Y-123507280D01*
X187241542Y-123700218D01*
X186883974Y-124057163D01*
X186690221Y-124523773D01*
X186690031Y-124740570D01*
X186672906Y-124450477D01*
X186537179Y-124122803D01*
X186308133Y-124068972D01*
X186128528Y-124248577D01*
X186128528Y-123889367D01*
X186074697Y-123660321D01*
X185608239Y-123498599D01*
X185747023Y-123490406D01*
X186074697Y-123354679D01*
X186128528Y-123125633D01*
X185420000Y-122417105D01*
X185240395Y-122596710D01*
X185240395Y-122237500D01*
X184531867Y-121528972D01*
X184302821Y-121582803D01*
X184137319Y-122060164D01*
X184167094Y-122564523D01*
X184302821Y-122892197D01*
X184531867Y-122946028D01*
X185240395Y-122237500D01*
X185240395Y-122596710D01*
X184711472Y-123125633D01*
X184765303Y-123354679D01*
X185231760Y-123516400D01*
X185092977Y-123524594D01*
X184765303Y-123660321D01*
X184711472Y-123889367D01*
X185420000Y-124597895D01*
X186128528Y-123889367D01*
X186128528Y-124248577D01*
X185599605Y-124777500D01*
X186308133Y-125486028D01*
X186537179Y-125432197D01*
X186689812Y-124991953D01*
X186689780Y-125029010D01*
X186882718Y-125495958D01*
X187239663Y-125853526D01*
X187706273Y-126047279D01*
X188211510Y-126047720D01*
X188678458Y-125854782D01*
X189036026Y-125497837D01*
X189229779Y-125031227D01*
X189230220Y-124525990D01*
X189037282Y-124059042D01*
X188680337Y-123701474D01*
X188213727Y-123507721D01*
X188211512Y-123507719D01*
X188678458Y-123314782D01*
X189036026Y-122957837D01*
X189229779Y-122491227D01*
X189230220Y-121985990D01*
X189037282Y-121519042D01*
X188680337Y-121161474D01*
X188213727Y-120967721D01*
X188211512Y-120967719D01*
X188678458Y-120774782D01*
X189036026Y-120417837D01*
X189229779Y-119951227D01*
X189230220Y-119445990D01*
X189037282Y-118979042D01*
X188680337Y-118621474D01*
X188213727Y-118427721D01*
X188211512Y-118427719D01*
X188678458Y-118234782D01*
X189036026Y-117877837D01*
X189229779Y-117411227D01*
X189230220Y-116905990D01*
X189037282Y-116439042D01*
X188680337Y-116081474D01*
X188213727Y-115887721D01*
X187996929Y-115887531D01*
X188287023Y-115870406D01*
X188614697Y-115734679D01*
X188668528Y-115505633D01*
X187960000Y-114797105D01*
X187251472Y-115505633D01*
X187305303Y-115734679D01*
X187745546Y-115887312D01*
X187708490Y-115887280D01*
X187241542Y-116080218D01*
X186883974Y-116437163D01*
X186690221Y-116903773D01*
X186690219Y-116905987D01*
X186497282Y-116439042D01*
X186140337Y-116081474D01*
X185673727Y-115887721D01*
X185671512Y-115887719D01*
X186138458Y-115694782D01*
X186496026Y-115337837D01*
X186689779Y-114871227D01*
X186689968Y-114654429D01*
X186707094Y-114944523D01*
X186842821Y-115272197D01*
X187071867Y-115326028D01*
X187780395Y-114617500D01*
X187071867Y-113908972D01*
X186842821Y-113962803D01*
X186690187Y-114403046D01*
X186690220Y-114365990D01*
X186497282Y-113899042D01*
X186140337Y-113541474D01*
X185673727Y-113347721D01*
X185671512Y-113347719D01*
X186138458Y-113154782D01*
X186496026Y-112797837D01*
X186689779Y-112331227D01*
X186689780Y-112329012D01*
X186882718Y-112795958D01*
X187239663Y-113153526D01*
X187706273Y-113347279D01*
X187923070Y-113347468D01*
X187632977Y-113364594D01*
X187305303Y-113500321D01*
X187251472Y-113729367D01*
X187960000Y-114437895D01*
X188668528Y-113729367D01*
X188614697Y-113500321D01*
X188174453Y-113347687D01*
X188211510Y-113347720D01*
X188678458Y-113154782D01*
X189036026Y-112797837D01*
X189229779Y-112331227D01*
X189230220Y-111825990D01*
X189037282Y-111359042D01*
X188680337Y-111001474D01*
X188213727Y-110807721D01*
X188211512Y-110807719D01*
X188678458Y-110614782D01*
X189036026Y-110257837D01*
X189229779Y-109791227D01*
X189230220Y-109285990D01*
X189037282Y-108819042D01*
X188680337Y-108461474D01*
X188213727Y-108267721D01*
X188211512Y-108267719D01*
X188678458Y-108074782D01*
X189036026Y-107717837D01*
X189229779Y-107251227D01*
X189230220Y-106745990D01*
X189037282Y-106279042D01*
X188680337Y-105921474D01*
X188213727Y-105727721D01*
X187708490Y-105727280D01*
X187241542Y-105920218D01*
X186883974Y-106277163D01*
X186690221Y-106743773D01*
X186690219Y-106745987D01*
X186497282Y-106279042D01*
X186140337Y-105921474D01*
X185673727Y-105727721D01*
X185168490Y-105727280D01*
X184701542Y-105920218D01*
X184658000Y-105963684D01*
X184658000Y-105217630D01*
X189768815Y-100106815D01*
X189933996Y-99859605D01*
X189991999Y-99568000D01*
X189992000Y-99568000D01*
X189992000Y-90343311D01*
X190289670Y-90144415D01*
X190500000Y-89829634D01*
X190710330Y-90144415D01*
X191196511Y-90469271D01*
X191770000Y-90583345D01*
X192343489Y-90469271D01*
X192829670Y-90144415D01*
X193040000Y-89829634D01*
X193250330Y-90144415D01*
X193736511Y-90469271D01*
X194310000Y-90583345D01*
X194883489Y-90469271D01*
X195369670Y-90144415D01*
X195694526Y-89658234D01*
X195808600Y-89084745D01*
X195808600Y-137038755D01*
X195694526Y-136465266D01*
X195369670Y-135979085D01*
X194883489Y-135654229D01*
X194425824Y-135563193D01*
X193578815Y-134716185D01*
X193331605Y-134551004D01*
X193040000Y-134493000D01*
X190357433Y-134493000D01*
X190614526Y-134108234D01*
X190728600Y-133534745D01*
X190728600Y-133165255D01*
X190614526Y-132591766D01*
X190289670Y-132105585D01*
X189803489Y-131780729D01*
X189242681Y-131669177D01*
X189242681Y-114794836D01*
X189212906Y-114290477D01*
X189077179Y-113962803D01*
X188848133Y-113908972D01*
X188139605Y-114617500D01*
X188848133Y-115326028D01*
X189077179Y-115272197D01*
X189242681Y-114794836D01*
X189242681Y-131669177D01*
X189230000Y-131666655D01*
X188656511Y-131780729D01*
X188170330Y-132105585D01*
X187960000Y-132420365D01*
X187749670Y-132105585D01*
X187263489Y-131780729D01*
X186690000Y-131666655D01*
X186128528Y-131778338D01*
X186128528Y-125665633D01*
X185420000Y-124957105D01*
X185240395Y-125136710D01*
X185240395Y-124777500D01*
X184531867Y-124068972D01*
X184302821Y-124122803D01*
X184137319Y-124600164D01*
X184167094Y-125104523D01*
X184302821Y-125432197D01*
X184531867Y-125486028D01*
X185240395Y-124777500D01*
X185240395Y-125136710D01*
X184711472Y-125665633D01*
X184765303Y-125894679D01*
X185242664Y-126060181D01*
X185747023Y-126030406D01*
X186074697Y-125894679D01*
X186128528Y-125665633D01*
X186128528Y-131778338D01*
X186116511Y-131780729D01*
X185630330Y-132105585D01*
X185420000Y-132420365D01*
X185209670Y-132105585D01*
X184723489Y-131780729D01*
X184150000Y-131666655D01*
X183832687Y-131729772D01*
X183832687Y-117515216D01*
X183668689Y-117118311D01*
X183365286Y-116814378D01*
X182968668Y-116649687D01*
X182539216Y-116649313D01*
X182142311Y-116813311D01*
X181838378Y-117116714D01*
X181673687Y-117513332D01*
X181673497Y-117730872D01*
X181421370Y-117983000D01*
X180215641Y-117983000D01*
X180063286Y-117830378D01*
X179666668Y-117665687D01*
X179237216Y-117665313D01*
X178840311Y-117829311D01*
X178536378Y-118132714D01*
X178371687Y-118529332D01*
X178371313Y-118958784D01*
X178535311Y-119355689D01*
X178838714Y-119659622D01*
X179235332Y-119824313D01*
X179664784Y-119824687D01*
X180061689Y-119660689D01*
X180215646Y-119507000D01*
X181737000Y-119507000D01*
X181737000Y-119506999D01*
X182028604Y-119448996D01*
X182028605Y-119448996D01*
X182275815Y-119283815D01*
X182751130Y-118808499D01*
X182966784Y-118808687D01*
X183363689Y-118644689D01*
X183667622Y-118341286D01*
X183832313Y-117944668D01*
X183832687Y-117515216D01*
X183832687Y-131729772D01*
X183576511Y-131780729D01*
X183090330Y-132105585D01*
X183079784Y-132121367D01*
X183074063Y-132091877D01*
X182934273Y-131879073D01*
X182723240Y-131736623D01*
X182473600Y-131686560D01*
X180746400Y-131686560D01*
X180504277Y-131733537D01*
X180291473Y-131873327D01*
X180149023Y-132084360D01*
X180098960Y-132334000D01*
X180098960Y-134366000D01*
X180123600Y-134493000D01*
X179834641Y-134493000D01*
X179682286Y-134340378D01*
X179285668Y-134175687D01*
X178879687Y-134175333D01*
X178879687Y-131231216D01*
X178715689Y-130834311D01*
X178412286Y-130530378D01*
X178015668Y-130365687D01*
X177586216Y-130365313D01*
X177189311Y-130529311D01*
X177035353Y-130683000D01*
X176852925Y-130683000D01*
X176974313Y-130390668D01*
X176974687Y-129961216D01*
X176853119Y-129667000D01*
X177035358Y-129667000D01*
X177187714Y-129819622D01*
X177584332Y-129984313D01*
X178013784Y-129984687D01*
X178410689Y-129820689D01*
X178714622Y-129517286D01*
X178879313Y-129120668D01*
X178879687Y-128691216D01*
X178715689Y-128294311D01*
X178412286Y-127990378D01*
X178015668Y-127825687D01*
X177609687Y-127825333D01*
X177609687Y-115356216D01*
X177445689Y-114959311D01*
X177142286Y-114655378D01*
X176745668Y-114490687D01*
X176316216Y-114490313D01*
X175919311Y-114654311D01*
X175765353Y-114808000D01*
X173964600Y-114808000D01*
X173964600Y-89084745D01*
X173964600Y-88715255D01*
X173850526Y-88141766D01*
X173525670Y-87655585D01*
X173039489Y-87330729D01*
X172466000Y-87216655D01*
X171892511Y-87330729D01*
X171406330Y-87655585D01*
X171196000Y-87970365D01*
X170985670Y-87655585D01*
X170499489Y-87330729D01*
X169926000Y-87216655D01*
X169352511Y-87330729D01*
X168866330Y-87655585D01*
X168656000Y-87970365D01*
X168445670Y-87655585D01*
X167959489Y-87330729D01*
X167386000Y-87216655D01*
X166812511Y-87330729D01*
X166326330Y-87655585D01*
X166116000Y-87970365D01*
X165905670Y-87655585D01*
X165419489Y-87330729D01*
X164846000Y-87216655D01*
X164272511Y-87330729D01*
X163786330Y-87655585D01*
X163576000Y-87970365D01*
X163365670Y-87655585D01*
X162879489Y-87330729D01*
X162306000Y-87216655D01*
X161732511Y-87330729D01*
X161246330Y-87655585D01*
X161036000Y-87970365D01*
X160825670Y-87655585D01*
X160339489Y-87330729D01*
X159766000Y-87216655D01*
X159192511Y-87330729D01*
X158706330Y-87655585D01*
X158499539Y-87965069D01*
X158128036Y-87549268D01*
X157600791Y-87295291D01*
X157585026Y-87292642D01*
X157353000Y-87413783D01*
X157353000Y-88773000D01*
X157373000Y-88773000D01*
X157373000Y-89027000D01*
X157353000Y-89027000D01*
X157353000Y-90386217D01*
X157585026Y-90507358D01*
X157600791Y-90504709D01*
X158128036Y-90250732D01*
X158499539Y-89834930D01*
X158706330Y-90144415D01*
X159192511Y-90469271D01*
X159766000Y-90583345D01*
X160339489Y-90469271D01*
X160825670Y-90144415D01*
X161036000Y-89829634D01*
X161246330Y-90144415D01*
X161327031Y-90198337D01*
X159640869Y-91884500D01*
X157099000Y-91884500D01*
X157099000Y-90386217D01*
X157099000Y-89027000D01*
X157079000Y-89027000D01*
X157079000Y-88773000D01*
X157099000Y-88773000D01*
X157099000Y-87413783D01*
X156866974Y-87292642D01*
X156851209Y-87295291D01*
X156323964Y-87549268D01*
X156166326Y-87725701D01*
X156150063Y-87641877D01*
X156010273Y-87429073D01*
X155799240Y-87286623D01*
X155549600Y-87236560D01*
X153822400Y-87236560D01*
X153580277Y-87283537D01*
X153367473Y-87423327D01*
X153225023Y-87634360D01*
X153174960Y-87884000D01*
X153174960Y-89916000D01*
X153221937Y-90158123D01*
X153361727Y-90370927D01*
X153572760Y-90513377D01*
X153822400Y-90563440D01*
X155549600Y-90563440D01*
X155791723Y-90516463D01*
X156004527Y-90376673D01*
X156146977Y-90165640D01*
X156165483Y-90073354D01*
X156323964Y-90250732D01*
X156851209Y-90504709D01*
X156866974Y-90507358D01*
X157099000Y-90386217D01*
X157099000Y-91884500D01*
X154498141Y-91884500D01*
X154345786Y-91731878D01*
X153949168Y-91567187D01*
X153519716Y-91566813D01*
X153122811Y-91730811D01*
X152818878Y-92034214D01*
X152654187Y-92430832D01*
X152653813Y-92860284D01*
X152817811Y-93257189D01*
X153121214Y-93561122D01*
X153517832Y-93725813D01*
X153947284Y-93726187D01*
X154344189Y-93562189D01*
X154457710Y-93448865D01*
X154432187Y-93510332D01*
X154431813Y-93939784D01*
X154595811Y-94336689D01*
X154899214Y-94640622D01*
X155295832Y-94805313D01*
X155725284Y-94805687D01*
X156122189Y-94641689D01*
X156212535Y-94551500D01*
X156569971Y-94551500D01*
X156527687Y-94653332D01*
X156527313Y-95082784D01*
X156538789Y-95110560D01*
X150622000Y-95110560D01*
X150379877Y-95157537D01*
X150167073Y-95297327D01*
X150024623Y-95508360D01*
X149974560Y-95758000D01*
X149974560Y-98044000D01*
X146304000Y-98044000D01*
X146012395Y-98102004D01*
X145765184Y-98267185D01*
X137796869Y-106235500D01*
X137581216Y-106235313D01*
X137184311Y-106399311D01*
X136880378Y-106702714D01*
X136715687Y-107099332D01*
X136715313Y-107528784D01*
X136879311Y-107925689D01*
X137182714Y-108229622D01*
X137579332Y-108394313D01*
X138008784Y-108394687D01*
X138405689Y-108230689D01*
X138709622Y-107927286D01*
X138874313Y-107530668D01*
X138874502Y-107313127D01*
X146619630Y-99568000D01*
X149974560Y-99568000D01*
X149974560Y-101854000D01*
X150021537Y-102096123D01*
X150161327Y-102308927D01*
X150372360Y-102451377D01*
X150622000Y-102501440D01*
X156718000Y-102501440D01*
X156960123Y-102454463D01*
X157172927Y-102314673D01*
X157315377Y-102103640D01*
X157365440Y-101854000D01*
X157365440Y-95937561D01*
X157391332Y-95948313D01*
X157608872Y-95948502D01*
X158465184Y-96804815D01*
X158465185Y-96804815D01*
X158712395Y-96969996D01*
X159004000Y-97028000D01*
X161795358Y-97028000D01*
X161947714Y-97180622D01*
X162344332Y-97345313D01*
X162773784Y-97345687D01*
X163170689Y-97181689D01*
X163474622Y-96878286D01*
X163639313Y-96481668D01*
X163639687Y-96052216D01*
X163475689Y-95655311D01*
X163172286Y-95351378D01*
X162775668Y-95186687D01*
X162346216Y-95186313D01*
X161949311Y-95350311D01*
X161795353Y-95504000D01*
X159319630Y-95504000D01*
X158686499Y-94870868D01*
X158686687Y-94655216D01*
X158643832Y-94551500D01*
X160210500Y-94551500D01*
X160210500Y-94551499D01*
X160502104Y-94493496D01*
X160502105Y-94493496D01*
X160749315Y-94328315D01*
X161796130Y-93281500D01*
X165287858Y-93281500D01*
X165440214Y-93434122D01*
X165836832Y-93598813D01*
X166266284Y-93599187D01*
X166624000Y-93451381D01*
X166624000Y-97029870D01*
X166498869Y-97155000D01*
X166283216Y-97154813D01*
X165886311Y-97318811D01*
X165582378Y-97622214D01*
X165417687Y-98018832D01*
X165417313Y-98448284D01*
X165581311Y-98845189D01*
X165884714Y-99149122D01*
X166281332Y-99313813D01*
X166710784Y-99314187D01*
X167107689Y-99150189D01*
X167411622Y-98846786D01*
X167576313Y-98450168D01*
X167576502Y-98232627D01*
X167924815Y-97884315D01*
X168089996Y-97637105D01*
X168089996Y-97637104D01*
X168148000Y-97345500D01*
X168148000Y-90343311D01*
X168445670Y-90144415D01*
X168656000Y-89829634D01*
X168866330Y-90144415D01*
X169352511Y-90469271D01*
X169926000Y-90583345D01*
X170499489Y-90469271D01*
X170985670Y-90144415D01*
X171196000Y-89829634D01*
X171406330Y-90144415D01*
X171892511Y-90469271D01*
X172466000Y-90583345D01*
X173039489Y-90469271D01*
X173525670Y-90144415D01*
X173850526Y-89658234D01*
X173964600Y-89084745D01*
X173964600Y-114808000D01*
X173926687Y-114808000D01*
X173926687Y-111546216D01*
X173762689Y-111149311D01*
X173459286Y-110845378D01*
X173062668Y-110680687D01*
X172633216Y-110680313D01*
X172236311Y-110844311D01*
X172082353Y-110998000D01*
X168912641Y-110998000D01*
X168760286Y-110845378D01*
X168363668Y-110680687D01*
X167934216Y-110680313D01*
X167537311Y-110844311D01*
X167233378Y-111147714D01*
X167068687Y-111544332D01*
X167068313Y-111973784D01*
X167232311Y-112370689D01*
X167535714Y-112674622D01*
X167932332Y-112839313D01*
X168361784Y-112839687D01*
X168758689Y-112675689D01*
X168912646Y-112522000D01*
X172082358Y-112522000D01*
X172234714Y-112674622D01*
X172631332Y-112839313D01*
X173060784Y-112839687D01*
X173457689Y-112675689D01*
X173761622Y-112372286D01*
X173926313Y-111975668D01*
X173926687Y-111546216D01*
X173926687Y-114808000D01*
X167449687Y-114808000D01*
X167449687Y-113451216D01*
X167285689Y-113054311D01*
X166982286Y-112750378D01*
X166585668Y-112585687D01*
X166368128Y-112585497D01*
X165638815Y-111856185D01*
X165391605Y-111691004D01*
X165100000Y-111633000D01*
X164594641Y-111633000D01*
X164442286Y-111480378D01*
X164045668Y-111315687D01*
X163616216Y-111315313D01*
X163219311Y-111479311D01*
X162915378Y-111782714D01*
X162750687Y-112179332D01*
X162750313Y-112608784D01*
X162914311Y-113005689D01*
X163217714Y-113309622D01*
X163614332Y-113474313D01*
X164043784Y-113474687D01*
X164440689Y-113310689D01*
X164594646Y-113157000D01*
X164784369Y-113157000D01*
X165290500Y-113663131D01*
X165290313Y-113878784D01*
X165454311Y-114275689D01*
X165757714Y-114579622D01*
X166154332Y-114744313D01*
X166583784Y-114744687D01*
X166980689Y-114580689D01*
X167284622Y-114277286D01*
X167449313Y-113880668D01*
X167449687Y-113451216D01*
X167449687Y-114808000D01*
X164594641Y-114808000D01*
X164442286Y-114655378D01*
X164045668Y-114490687D01*
X163616216Y-114490313D01*
X163219311Y-114654311D01*
X162915378Y-114957714D01*
X162750687Y-115354332D01*
X162750313Y-115783784D01*
X162914311Y-116180689D01*
X163217714Y-116484622D01*
X163614332Y-116649313D01*
X164043784Y-116649687D01*
X164440689Y-116485689D01*
X164594646Y-116332000D01*
X175765358Y-116332000D01*
X175917714Y-116484622D01*
X176314332Y-116649313D01*
X176743784Y-116649687D01*
X177140689Y-116485689D01*
X177444622Y-116182286D01*
X177609313Y-115785668D01*
X177609687Y-115356216D01*
X177609687Y-127825333D01*
X177586216Y-127825313D01*
X177189311Y-127989311D01*
X177035353Y-128143000D01*
X168846687Y-128143000D01*
X168846687Y-124373216D01*
X168682689Y-123976311D01*
X168379286Y-123672378D01*
X167982668Y-123507687D01*
X167765127Y-123507497D01*
X165003815Y-120746185D01*
X164756605Y-120581004D01*
X164465000Y-120523000D01*
X163451641Y-120523000D01*
X163299286Y-120370378D01*
X162902668Y-120205687D01*
X162473216Y-120205313D01*
X162076311Y-120369311D01*
X161772378Y-120672714D01*
X161607687Y-121069332D01*
X161607313Y-121498784D01*
X161771311Y-121895689D01*
X162074714Y-122199622D01*
X162471332Y-122364313D01*
X162900784Y-122364687D01*
X163297689Y-122200689D01*
X163451646Y-122047000D01*
X164149370Y-122047000D01*
X166687500Y-124585130D01*
X166687313Y-124800784D01*
X166851311Y-125197689D01*
X167154714Y-125501622D01*
X167551332Y-125666313D01*
X167980784Y-125666687D01*
X168377689Y-125502689D01*
X168681622Y-125199286D01*
X168846313Y-124802668D01*
X168846687Y-124373216D01*
X168846687Y-128143000D01*
X167386000Y-128143000D01*
X167094395Y-128201004D01*
X166995376Y-128267165D01*
X166847185Y-128366184D01*
X166625868Y-128587500D01*
X166410216Y-128587313D01*
X166013311Y-128751311D01*
X165709378Y-129054714D01*
X165544687Y-129451332D01*
X165544313Y-129880784D01*
X165708311Y-130277689D01*
X165991929Y-130561802D01*
X165925687Y-130721332D01*
X165925313Y-131150784D01*
X166089311Y-131547689D01*
X166176966Y-131635497D01*
X165963378Y-131848714D01*
X165798687Y-132245332D01*
X165798665Y-132270444D01*
X165648216Y-132270313D01*
X165251311Y-132434311D01*
X164947378Y-132737714D01*
X164782687Y-133134332D01*
X164782313Y-133563784D01*
X164946311Y-133960689D01*
X165249714Y-134264622D01*
X165646332Y-134429313D01*
X166075784Y-134429687D01*
X166472689Y-134265689D01*
X166626646Y-134112000D01*
X175130358Y-134112000D01*
X175282714Y-134264622D01*
X175679332Y-134429313D01*
X176108784Y-134429687D01*
X176505689Y-134265689D01*
X176809622Y-133962286D01*
X176974313Y-133565668D01*
X176974687Y-133136216D01*
X176810689Y-132739311D01*
X176507286Y-132435378D01*
X176110668Y-132270687D01*
X175681216Y-132270313D01*
X175284311Y-132434311D01*
X175130353Y-132588000D01*
X167957390Y-132588000D01*
X167957502Y-132459127D01*
X168209630Y-132207000D01*
X177035358Y-132207000D01*
X177187714Y-132359622D01*
X177584332Y-132524313D01*
X178013784Y-132524687D01*
X178410689Y-132360689D01*
X178714622Y-132057286D01*
X178879313Y-131660668D01*
X178879687Y-131231216D01*
X178879687Y-134175333D01*
X178856216Y-134175313D01*
X178459311Y-134339311D01*
X178155378Y-134642714D01*
X177990687Y-135039332D01*
X177990313Y-135468784D01*
X178154311Y-135865689D01*
X178457714Y-136169622D01*
X178854332Y-136334313D01*
X179283784Y-136334687D01*
X179680689Y-136170689D01*
X179834646Y-136017000D01*
X180137163Y-136017000D01*
X180098960Y-136207500D01*
X180098960Y-138239500D01*
X180111280Y-138303000D01*
X177657433Y-138303000D01*
X177914526Y-137918234D01*
X178028600Y-137344745D01*
X178028600Y-136975255D01*
X177914526Y-136401766D01*
X177589670Y-135915585D01*
X177103489Y-135590729D01*
X176530000Y-135476655D01*
X175956511Y-135590729D01*
X175470330Y-135915585D01*
X175263539Y-136225069D01*
X174892036Y-135809268D01*
X174364791Y-135555291D01*
X174349026Y-135552642D01*
X174117000Y-135673783D01*
X174117000Y-137033000D01*
X174137000Y-137033000D01*
X174137000Y-137287000D01*
X174117000Y-137287000D01*
X174117000Y-137307000D01*
X173863000Y-137307000D01*
X173863000Y-137287000D01*
X172790924Y-137287000D01*
X172649076Y-137287000D01*
X171577000Y-137287000D01*
X171577000Y-137307000D01*
X171323000Y-137307000D01*
X171323000Y-137287000D01*
X171303000Y-137287000D01*
X171303000Y-137033000D01*
X171323000Y-137033000D01*
X171323000Y-137013000D01*
X171577000Y-137013000D01*
X171577000Y-137033000D01*
X172649076Y-137033000D01*
X172790924Y-137033000D01*
X173863000Y-137033000D01*
X173863000Y-135673783D01*
X173630974Y-135552642D01*
X173615209Y-135555291D01*
X173087964Y-135809268D01*
X172720000Y-136221108D01*
X172352036Y-135809268D01*
X171853443Y-135569092D01*
X171894313Y-135470668D01*
X171894687Y-135041216D01*
X171730689Y-134644311D01*
X171427286Y-134340378D01*
X171030668Y-134175687D01*
X170601216Y-134175313D01*
X170204311Y-134339311D01*
X170050353Y-134493000D01*
X162054641Y-134493000D01*
X161902286Y-134340378D01*
X161505668Y-134175687D01*
X161076216Y-134175313D01*
X160679311Y-134339311D01*
X160375378Y-134642714D01*
X160210687Y-135039332D01*
X160210313Y-135468784D01*
X160374311Y-135865689D01*
X160677714Y-136169622D01*
X161074332Y-136334313D01*
X161503784Y-136334687D01*
X161900689Y-136170689D01*
X162054646Y-136017000D01*
X162344428Y-136017000D01*
X162318960Y-136144000D01*
X162318960Y-138176000D01*
X162343600Y-138303000D01*
X159966103Y-138303000D01*
X160307670Y-137791810D01*
X160433345Y-137160000D01*
X160307670Y-136528190D01*
X159949778Y-135992567D01*
X159512000Y-135700052D01*
X159512000Y-135255000D01*
X159453996Y-134963395D01*
X159288815Y-134716185D01*
X159288815Y-134716184D01*
X158242000Y-133669369D01*
X158242000Y-124589641D01*
X158394622Y-124437286D01*
X158559313Y-124040668D01*
X158559687Y-123611216D01*
X158418643Y-123269863D01*
X158648622Y-123040286D01*
X158813313Y-122643668D01*
X158813502Y-122426127D01*
X161732630Y-119507000D01*
X171193358Y-119507000D01*
X171345714Y-119659622D01*
X171742332Y-119824313D01*
X172171784Y-119824687D01*
X172568689Y-119660689D01*
X172872622Y-119357286D01*
X173037313Y-118960668D01*
X173037687Y-118531216D01*
X172873689Y-118134311D01*
X172570286Y-117830378D01*
X172173668Y-117665687D01*
X171744216Y-117665313D01*
X171347311Y-117829311D01*
X171193353Y-117983000D01*
X161417000Y-117983000D01*
X161125396Y-118041003D01*
X160878185Y-118206184D01*
X157735869Y-121348500D01*
X157520216Y-121348313D01*
X157353000Y-121417404D01*
X157353000Y-114934309D01*
X157353000Y-112045750D01*
X157353000Y-111474250D01*
X157353000Y-108585691D01*
X157256327Y-108352302D01*
X157077699Y-108173673D01*
X156844310Y-108077000D01*
X156591691Y-108077000D01*
X153955750Y-108077000D01*
X153797000Y-108235750D01*
X153797000Y-111633000D01*
X157194250Y-111633000D01*
X157353000Y-111474250D01*
X157353000Y-112045750D01*
X157194250Y-111887000D01*
X153797000Y-111887000D01*
X153797000Y-115284250D01*
X153955750Y-115443000D01*
X156591691Y-115443000D01*
X156844310Y-115443000D01*
X157077699Y-115346327D01*
X157256327Y-115167698D01*
X157353000Y-114934309D01*
X157353000Y-121417404D01*
X157319863Y-121431096D01*
X157318463Y-121423877D01*
X157178673Y-121211073D01*
X156967640Y-121068623D01*
X156718000Y-121018560D01*
X153543000Y-121018560D01*
X153543000Y-115284250D01*
X153543000Y-111887000D01*
X153543000Y-111633000D01*
X153543000Y-108235750D01*
X153384250Y-108077000D01*
X150748309Y-108077000D01*
X150495690Y-108077000D01*
X150262301Y-108173673D01*
X150083673Y-108352302D01*
X149987000Y-108585691D01*
X149987000Y-111474250D01*
X150145750Y-111633000D01*
X153543000Y-111633000D01*
X153543000Y-111887000D01*
X150145750Y-111887000D01*
X149987000Y-112045750D01*
X149987000Y-114934309D01*
X150083673Y-115167698D01*
X150262301Y-115346327D01*
X150495690Y-115443000D01*
X150748309Y-115443000D01*
X153384250Y-115443000D01*
X153543000Y-115284250D01*
X153543000Y-121018560D01*
X150622000Y-121018560D01*
X150379877Y-121065537D01*
X150167073Y-121205327D01*
X150024623Y-121416360D01*
X149974560Y-121666000D01*
X149974560Y-123952000D01*
X147695660Y-123952000D01*
X147764313Y-123786668D01*
X147764687Y-123357216D01*
X147600689Y-122960311D01*
X147297286Y-122656378D01*
X146900668Y-122491687D01*
X146683128Y-122491497D01*
X143637000Y-119445369D01*
X143637000Y-116713000D01*
X143578996Y-116421395D01*
X143446485Y-116223079D01*
X143446485Y-116223078D01*
X143446687Y-115991216D01*
X143282689Y-115594311D01*
X142979286Y-115290378D01*
X142582668Y-115125687D01*
X142153216Y-115125313D01*
X141756311Y-115289311D01*
X141452378Y-115592714D01*
X141287687Y-115989332D01*
X141287313Y-116418784D01*
X141451311Y-116815689D01*
X141754714Y-117119622D01*
X142113000Y-117268396D01*
X142113000Y-119761000D01*
X142171004Y-120052605D01*
X142336185Y-120299815D01*
X145605500Y-123569131D01*
X145605313Y-123784784D01*
X145674405Y-123952000D01*
X143131868Y-123952000D01*
X143154622Y-123929286D01*
X143319313Y-123532668D01*
X143319687Y-123103216D01*
X143155689Y-122706311D01*
X143001342Y-122551694D01*
X142943996Y-122263396D01*
X142943996Y-122263395D01*
X142877834Y-122164376D01*
X142778816Y-122016185D01*
X141224000Y-120461369D01*
X141224000Y-119128641D01*
X141376622Y-118976286D01*
X141541313Y-118579668D01*
X141541687Y-118150216D01*
X141377689Y-117753311D01*
X141074286Y-117449378D01*
X140677668Y-117284687D01*
X140248216Y-117284313D01*
X139851311Y-117448311D01*
X139547378Y-117751714D01*
X139382687Y-118148332D01*
X139382313Y-118577784D01*
X139546311Y-118974689D01*
X139700000Y-119128646D01*
X139700000Y-120777000D01*
X139716231Y-120858601D01*
X138874499Y-120016869D01*
X138874687Y-119801216D01*
X138710689Y-119404311D01*
X138407286Y-119100378D01*
X138010668Y-118935687D01*
X137581216Y-118935313D01*
X137184311Y-119099311D01*
X136880378Y-119402714D01*
X136715687Y-119799332D01*
X136715313Y-120228784D01*
X136879311Y-120625689D01*
X137182714Y-120929622D01*
X137579332Y-121094313D01*
X137796872Y-121094502D01*
X141955185Y-125252816D01*
X142202395Y-125417996D01*
X142202396Y-125417997D01*
X142494000Y-125476000D01*
X149974560Y-125476000D01*
X149974560Y-127762000D01*
X150021537Y-128004123D01*
X150161327Y-128216927D01*
X150372360Y-128359377D01*
X150622000Y-128409440D01*
X156718000Y-128409440D01*
X156718000Y-133985000D01*
X156776004Y-134276605D01*
X156941185Y-134523815D01*
X157988000Y-135570630D01*
X157988000Y-135700052D01*
X157785481Y-135835371D01*
X157764327Y-135784301D01*
X157585698Y-135605673D01*
X157352309Y-135509000D01*
X156495750Y-135509000D01*
X156337000Y-135667750D01*
X156337000Y-137033000D01*
X156357000Y-137033000D01*
X156357000Y-137287000D01*
X156337000Y-137287000D01*
X156337000Y-137307000D01*
X156083000Y-137307000D01*
X156083000Y-137287000D01*
X156083000Y-137033000D01*
X156083000Y-135667750D01*
X155924250Y-135509000D01*
X155067691Y-135509000D01*
X154834302Y-135605673D01*
X154655673Y-135784301D01*
X154559000Y-136017690D01*
X154559000Y-136270309D01*
X154559000Y-136874250D01*
X154717750Y-137033000D01*
X156083000Y-137033000D01*
X156083000Y-137287000D01*
X154717750Y-137287000D01*
X154559000Y-137445750D01*
X154559000Y-138049691D01*
X154559000Y-138302310D01*
X154559285Y-138303000D01*
X139380630Y-138303000D01*
X138823440Y-137745810D01*
X138823440Y-136296400D01*
X138776463Y-136054277D01*
X138636673Y-135841473D01*
X138425640Y-135699023D01*
X138387037Y-135691281D01*
X138404415Y-135679670D01*
X138603311Y-135382000D01*
X146685000Y-135382000D01*
X152590388Y-135382000D01*
X152590313Y-135468784D01*
X152754311Y-135865689D01*
X153057714Y-136169622D01*
X153454332Y-136334313D01*
X153883784Y-136334687D01*
X154280689Y-136170689D01*
X154584622Y-135867286D01*
X154749313Y-135470668D01*
X154749687Y-135041216D01*
X154585689Y-134644311D01*
X154282286Y-134340378D01*
X153885668Y-134175687D01*
X153668127Y-134175497D01*
X153573815Y-134081185D01*
X153326605Y-133916004D01*
X153035000Y-133858000D01*
X146685000Y-133858000D01*
X138603311Y-133858000D01*
X138404415Y-133560330D01*
X138089634Y-133350000D01*
X138404415Y-133139670D01*
X138729271Y-132653489D01*
X138843345Y-132080000D01*
X138729271Y-131506511D01*
X138404415Y-131020330D01*
X138089634Y-130810000D01*
X138404415Y-130599670D01*
X138729271Y-130113489D01*
X138843345Y-129540000D01*
X138729271Y-128966511D01*
X138404415Y-128480330D01*
X138094930Y-128273539D01*
X138510732Y-127902036D01*
X138764709Y-127374791D01*
X138767358Y-127359026D01*
X138767358Y-126640974D01*
X138764709Y-126625209D01*
X138510732Y-126097964D01*
X138098891Y-125730000D01*
X138510732Y-125362036D01*
X138764709Y-124834791D01*
X138767358Y-124819026D01*
X138767358Y-124100974D01*
X138764709Y-124085209D01*
X138510732Y-123557964D01*
X138074320Y-123168046D01*
X137521913Y-122974816D01*
X137287000Y-123119076D01*
X137287000Y-124333000D01*
X138646217Y-124333000D01*
X138767358Y-124100974D01*
X138767358Y-124819026D01*
X138646217Y-124587000D01*
X137287000Y-124587000D01*
X137287000Y-125659076D01*
X137287000Y-125800924D01*
X137287000Y-126873000D01*
X138646217Y-126873000D01*
X138767358Y-126640974D01*
X138767358Y-127359026D01*
X138646217Y-127127000D01*
X137287000Y-127127000D01*
X137287000Y-127147000D01*
X137033000Y-127147000D01*
X137033000Y-127127000D01*
X137033000Y-126873000D01*
X137033000Y-125800924D01*
X137033000Y-125659076D01*
X137033000Y-124587000D01*
X137033000Y-124333000D01*
X137033000Y-123119076D01*
X136798087Y-122974816D01*
X136245680Y-123168046D01*
X135809268Y-123557964D01*
X135555291Y-124085209D01*
X135552642Y-124100974D01*
X135673783Y-124333000D01*
X137033000Y-124333000D01*
X137033000Y-124587000D01*
X135673783Y-124587000D01*
X135552642Y-124819026D01*
X135555291Y-124834791D01*
X135809268Y-125362036D01*
X136221108Y-125730000D01*
X135809268Y-126097964D01*
X135555291Y-126625209D01*
X135552642Y-126640974D01*
X135673783Y-126873000D01*
X137033000Y-126873000D01*
X137033000Y-127127000D01*
X135673783Y-127127000D01*
X135552642Y-127359026D01*
X135555291Y-127374791D01*
X135809268Y-127902036D01*
X136225069Y-128273539D01*
X135915585Y-128480330D01*
X135590729Y-128966511D01*
X135476655Y-129540000D01*
X135590729Y-130113489D01*
X135915585Y-130599670D01*
X136230365Y-130810000D01*
X135915585Y-131020330D01*
X135590729Y-131506511D01*
X135476655Y-132080000D01*
X135590729Y-132653489D01*
X135915585Y-133139670D01*
X136230365Y-133350000D01*
X135915585Y-133560330D01*
X135590729Y-134046511D01*
X135476655Y-134620000D01*
X135590729Y-135193489D01*
X135915585Y-135679670D01*
X135931367Y-135690215D01*
X135901877Y-135695937D01*
X135689073Y-135835727D01*
X135546623Y-136046760D01*
X135534390Y-136107760D01*
X135382000Y-135955370D01*
X135382000Y-123827641D01*
X135534622Y-123675286D01*
X135699313Y-123278668D01*
X135699687Y-122849216D01*
X135535689Y-122452311D01*
X135232286Y-122148378D01*
X134835668Y-121983687D01*
X134406216Y-121983313D01*
X134009311Y-122147311D01*
X133705378Y-122450714D01*
X133540687Y-122847332D01*
X133540313Y-123276784D01*
X133704311Y-123673689D01*
X133858000Y-123827646D01*
X133858000Y-136271000D01*
X133916004Y-136562605D01*
X134081185Y-136809815D01*
X134970185Y-137698815D01*
X135217395Y-137863996D01*
X135217396Y-137863996D01*
X135496560Y-137919525D01*
X135496560Y-138023600D01*
X135543537Y-138265723D01*
X135683327Y-138478527D01*
X135894360Y-138620977D01*
X136144000Y-138671040D01*
X137593410Y-138671040D01*
X137937370Y-139015000D01*
X131495000Y-139015000D01*
X131495000Y-87045000D01*
X195217600Y-87045000D01*
X196082898Y-87831634D01*
X196165000Y-87913736D01*
X196165000Y-99060000D01*
X196217143Y-99322138D01*
X196313713Y-99466666D01*
X196313713Y-99466666D01*
G37*
X196313713Y-99466666D02*
X196221306Y-136891631D01*
X196217143Y-136897862D01*
X196165000Y-137160000D01*
X196165000Y-139015000D01*
X191627630Y-139015000D01*
X191741462Y-138901168D01*
X191770000Y-138906845D01*
X192343489Y-138792771D01*
X192829670Y-138467915D01*
X193040000Y-138153134D01*
X193250330Y-138467915D01*
X193736511Y-138792771D01*
X194310000Y-138906845D01*
X194883489Y-138792771D01*
X195369670Y-138467915D01*
X195694526Y-137981734D01*
X195808600Y-137408245D01*
X195808600Y-137038755D01*
X195808600Y-89084745D01*
X195808600Y-88715255D01*
X195694526Y-88141766D01*
X195369670Y-87655585D01*
X194883489Y-87330729D01*
X194310000Y-87216655D01*
X193736511Y-87330729D01*
X193250330Y-87655585D01*
X193040000Y-87970365D01*
X192829670Y-87655585D01*
X192343489Y-87330729D01*
X191770000Y-87216655D01*
X191196511Y-87330729D01*
X190710330Y-87655585D01*
X190500000Y-87970365D01*
X190289670Y-87655585D01*
X189803489Y-87330729D01*
X189230000Y-87216655D01*
X188656511Y-87330729D01*
X188170330Y-87655585D01*
X187960000Y-87970365D01*
X187749670Y-87655585D01*
X187263489Y-87330729D01*
X186690000Y-87216655D01*
X186116511Y-87330729D01*
X185630330Y-87655585D01*
X185420000Y-87970365D01*
X185209670Y-87655585D01*
X184723489Y-87330729D01*
X184150000Y-87216655D01*
X183576511Y-87330729D01*
X183090330Y-87655585D01*
X182880000Y-87970365D01*
X182669670Y-87655585D01*
X182183489Y-87330729D01*
X181610000Y-87216655D01*
X181036511Y-87330729D01*
X180550330Y-87655585D01*
X180340000Y-87970365D01*
X180129670Y-87655585D01*
X179643489Y-87330729D01*
X179070000Y-87216655D01*
X178496511Y-87330729D01*
X178010330Y-87655585D01*
X177999784Y-87671367D01*
X177994063Y-87641877D01*
X177854273Y-87429073D01*
X177643240Y-87286623D01*
X177393600Y-87236560D01*
X175666400Y-87236560D01*
X175424277Y-87283537D01*
X175211473Y-87423327D01*
X175069023Y-87634360D01*
X175018960Y-87884000D01*
X175018960Y-89916000D01*
X175065937Y-90158123D01*
X175205727Y-90370927D01*
X175416760Y-90513377D01*
X175666400Y-90563440D01*
X175768000Y-90563440D01*
X175768000Y-105727500D01*
X175826004Y-106019105D01*
X175991185Y-106266315D01*
X184150167Y-114425298D01*
X184149780Y-114869010D01*
X184342718Y-115335958D01*
X184699663Y-115693526D01*
X185166273Y-115887279D01*
X185168487Y-115887280D01*
X184701542Y-116080218D01*
X184343974Y-116437163D01*
X184150221Y-116903773D01*
X184149780Y-117409010D01*
X184342718Y-117875958D01*
X184699663Y-118233526D01*
X185166273Y-118427279D01*
X185383070Y-118427468D01*
X185092977Y-118444594D01*
X184765303Y-118580321D01*
X184711472Y-118809367D01*
X185420000Y-119517895D01*
X186128528Y-118809367D01*
X186074697Y-118580321D01*
X185634453Y-118427687D01*
X185671510Y-118427720D01*
X186138458Y-118234782D01*
X186496026Y-117877837D01*
X186689779Y-117411227D01*
X186689780Y-117409012D01*
X186882718Y-117875958D01*
X187239663Y-118233526D01*
X187706273Y-118427279D01*
X187708487Y-118427280D01*
X187241542Y-118620218D01*
X186883974Y-118977163D01*
X186690221Y-119443773D01*
X186690031Y-119660570D01*
X186672906Y-119370477D01*
X186537179Y-119042803D01*
X186308133Y-118988972D01*
X185599605Y-119697500D01*
X186308133Y-120406028D01*
X186537179Y-120352197D01*
X186689812Y-119911953D01*
X186689780Y-119949010D01*
X186882718Y-120415958D01*
X187239663Y-120773526D01*
X187706273Y-120967279D01*
X187708487Y-120967280D01*
X187241542Y-121160218D01*
X186883974Y-121517163D01*
X186690221Y-121983773D01*
X186690031Y-122200570D01*
X186672906Y-121910477D01*
X186537179Y-121582803D01*
X186308133Y-121528972D01*
X186128528Y-121708577D01*
X186128528Y-121349367D01*
X186074697Y-121120321D01*
X185608239Y-120958599D01*
X185747023Y-120950406D01*
X186074697Y-120814679D01*
X186128528Y-120585633D01*
X185420000Y-119877105D01*
X185240395Y-120056710D01*
X185240395Y-119697500D01*
X184531867Y-118988972D01*
X184302821Y-119042803D01*
X184137319Y-119520164D01*
X184167094Y-120024523D01*
X184302821Y-120352197D01*
X184531867Y-120406028D01*
X185240395Y-119697500D01*
X185240395Y-120056710D01*
X184711472Y-120585633D01*
X184765303Y-120814679D01*
X185231760Y-120976400D01*
X185092977Y-120984594D01*
X184765303Y-121120321D01*
X184711472Y-121349367D01*
X185420000Y-122057895D01*
X186128528Y-121349367D01*
X186128528Y-121708577D01*
X185599605Y-122237500D01*
X186308133Y-122946028D01*
X186537179Y-122892197D01*
X186689812Y-122451953D01*
X186689780Y-122489010D01*
X186882718Y-122955958D01*
X187239663Y-123313526D01*
X187706273Y-123507279D01*
X187708487Y-123507280D01*
X187241542Y-123700218D01*
X186883974Y-124057163D01*
X186690221Y-124523773D01*
X186690031Y-124740570D01*
X186672906Y-124450477D01*
X186537179Y-124122803D01*
X186308133Y-124068972D01*
X186128528Y-124248577D01*
X186128528Y-123889367D01*
X186074697Y-123660321D01*
X185608239Y-123498599D01*
X185747023Y-123490406D01*
X186074697Y-123354679D01*
X186128528Y-123125633D01*
X185420000Y-122417105D01*
X185240395Y-122596710D01*
X185240395Y-122237500D01*
X184531867Y-121528972D01*
X184302821Y-121582803D01*
X184137319Y-122060164D01*
X184167094Y-122564523D01*
X184302821Y-122892197D01*
X184531867Y-122946028D01*
X185240395Y-122237500D01*
X185240395Y-122596710D01*
X184711472Y-123125633D01*
X184765303Y-123354679D01*
X185231760Y-123516400D01*
X185092977Y-123524594D01*
X184765303Y-123660321D01*
X184711472Y-123889367D01*
X185420000Y-124597895D01*
X186128528Y-123889367D01*
X186128528Y-124248577D01*
X185599605Y-124777500D01*
X186308133Y-125486028D01*
X186537179Y-125432197D01*
X186689812Y-124991953D01*
X186689780Y-125029010D01*
X186882718Y-125495958D01*
X187239663Y-125853526D01*
X187706273Y-126047279D01*
X188211510Y-126047720D01*
X188678458Y-125854782D01*
X189036026Y-125497837D01*
X189229779Y-125031227D01*
X189230220Y-124525990D01*
X189037282Y-124059042D01*
X188680337Y-123701474D01*
X188213727Y-123507721D01*
X188211512Y-123507719D01*
X188678458Y-123314782D01*
X189036026Y-122957837D01*
X189229779Y-122491227D01*
X189230220Y-121985990D01*
X189037282Y-121519042D01*
X188680337Y-121161474D01*
X188213727Y-120967721D01*
X188211512Y-120967719D01*
X188678458Y-120774782D01*
X189036026Y-120417837D01*
X189229779Y-119951227D01*
X189230220Y-119445990D01*
X189037282Y-118979042D01*
X188680337Y-118621474D01*
X188213727Y-118427721D01*
X188211512Y-118427719D01*
X188678458Y-118234782D01*
X189036026Y-117877837D01*
X189229779Y-117411227D01*
X189230220Y-116905990D01*
X189037282Y-116439042D01*
X188680337Y-116081474D01*
X188213727Y-115887721D01*
X187996929Y-115887531D01*
X188287023Y-115870406D01*
X188614697Y-115734679D01*
X188668528Y-115505633D01*
X187960000Y-114797105D01*
X187251472Y-115505633D01*
X187305303Y-115734679D01*
X187745546Y-115887312D01*
X187708490Y-115887280D01*
X187241542Y-116080218D01*
X186883974Y-116437163D01*
X186690221Y-116903773D01*
X186690219Y-116905987D01*
X186497282Y-116439042D01*
X186140337Y-116081474D01*
X185673727Y-115887721D01*
X185671512Y-115887719D01*
X186138458Y-115694782D01*
X186496026Y-115337837D01*
X186689779Y-114871227D01*
X186689968Y-114654429D01*
X186707094Y-114944523D01*
X186842821Y-115272197D01*
X187071867Y-115326028D01*
X187780395Y-114617500D01*
X187071867Y-113908972D01*
X186842821Y-113962803D01*
X186690187Y-114403046D01*
X186690220Y-114365990D01*
X186497282Y-113899042D01*
X186140337Y-113541474D01*
X185673727Y-113347721D01*
X185671512Y-113347719D01*
X186138458Y-113154782D01*
X186496026Y-112797837D01*
X186689779Y-112331227D01*
X186689780Y-112329012D01*
X186882718Y-112795958D01*
X187239663Y-113153526D01*
X187706273Y-113347279D01*
X187923070Y-113347468D01*
X187632977Y-113364594D01*
X187305303Y-113500321D01*
X187251472Y-113729367D01*
X187960000Y-114437895D01*
X188668528Y-113729367D01*
X188614697Y-113500321D01*
X188174453Y-113347687D01*
X188211510Y-113347720D01*
X188678458Y-113154782D01*
X189036026Y-112797837D01*
X189229779Y-112331227D01*
X189230220Y-111825990D01*
X189037282Y-111359042D01*
X188680337Y-111001474D01*
X188213727Y-110807721D01*
X188211512Y-110807719D01*
X188678458Y-110614782D01*
X189036026Y-110257837D01*
X189229779Y-109791227D01*
X189230220Y-109285990D01*
X189037282Y-108819042D01*
X188680337Y-108461474D01*
X188213727Y-108267721D01*
X188211512Y-108267719D01*
X188678458Y-108074782D01*
X189036026Y-107717837D01*
X189229779Y-107251227D01*
X189230220Y-106745990D01*
X189037282Y-106279042D01*
X188680337Y-105921474D01*
X188213727Y-105727721D01*
X187708490Y-105727280D01*
X187241542Y-105920218D01*
X186883974Y-106277163D01*
X186690221Y-106743773D01*
X186690219Y-106745987D01*
X186497282Y-106279042D01*
X186140337Y-105921474D01*
X185673727Y-105727721D01*
X185168490Y-105727280D01*
X184701542Y-105920218D01*
X184658000Y-105963684D01*
X184658000Y-105217630D01*
X189768815Y-100106815D01*
X189933996Y-99859605D01*
X189991999Y-99568000D01*
X189992000Y-99568000D01*
X189992000Y-90343311D01*
X190289670Y-90144415D01*
X190500000Y-89829634D01*
X190710330Y-90144415D01*
X191196511Y-90469271D01*
X191770000Y-90583345D01*
X192343489Y-90469271D01*
X192829670Y-90144415D01*
X193040000Y-89829634D01*
X193250330Y-90144415D01*
X193736511Y-90469271D01*
X194310000Y-90583345D01*
X194883489Y-90469271D01*
X195369670Y-90144415D01*
X195694526Y-89658234D01*
X195808600Y-89084745D01*
X195808600Y-137038755D01*
X195694526Y-136465266D01*
X195369670Y-135979085D01*
X194883489Y-135654229D01*
X194425824Y-135563193D01*
X193578815Y-134716185D01*
X193331605Y-134551004D01*
X193040000Y-134493000D01*
X190357433Y-134493000D01*
X190614526Y-134108234D01*
X190728600Y-133534745D01*
X190728600Y-133165255D01*
X190614526Y-132591766D01*
X190289670Y-132105585D01*
X189803489Y-131780729D01*
X189242681Y-131669177D01*
X189242681Y-114794836D01*
X189212906Y-114290477D01*
X189077179Y-113962803D01*
X188848133Y-113908972D01*
X188139605Y-114617500D01*
X188848133Y-115326028D01*
X189077179Y-115272197D01*
X189242681Y-114794836D01*
X189242681Y-131669177D01*
X189230000Y-131666655D01*
X188656511Y-131780729D01*
X188170330Y-132105585D01*
X187960000Y-132420365D01*
X187749670Y-132105585D01*
X187263489Y-131780729D01*
X186690000Y-131666655D01*
X186128528Y-131778338D01*
X186128528Y-125665633D01*
X185420000Y-124957105D01*
X185240395Y-125136710D01*
X185240395Y-124777500D01*
X184531867Y-124068972D01*
X184302821Y-124122803D01*
X184137319Y-124600164D01*
X184167094Y-125104523D01*
X184302821Y-125432197D01*
X184531867Y-125486028D01*
X185240395Y-124777500D01*
X185240395Y-125136710D01*
X184711472Y-125665633D01*
X184765303Y-125894679D01*
X185242664Y-126060181D01*
X185747023Y-126030406D01*
X186074697Y-125894679D01*
X186128528Y-125665633D01*
X186128528Y-131778338D01*
X186116511Y-131780729D01*
X185630330Y-132105585D01*
X185420000Y-132420365D01*
X185209670Y-132105585D01*
X184723489Y-131780729D01*
X184150000Y-131666655D01*
X183832687Y-131729772D01*
X183832687Y-117515216D01*
X183668689Y-117118311D01*
X183365286Y-116814378D01*
X182968668Y-116649687D01*
X182539216Y-116649313D01*
X182142311Y-116813311D01*
X181838378Y-117116714D01*
X181673687Y-117513332D01*
X181673497Y-117730872D01*
X181421370Y-117983000D01*
X180215641Y-117983000D01*
X180063286Y-117830378D01*
X179666668Y-117665687D01*
X179237216Y-117665313D01*
X178840311Y-117829311D01*
X178536378Y-118132714D01*
X178371687Y-118529332D01*
X178371313Y-118958784D01*
X178535311Y-119355689D01*
X178838714Y-119659622D01*
X179235332Y-119824313D01*
X179664784Y-119824687D01*
X180061689Y-119660689D01*
X180215646Y-119507000D01*
X181737000Y-119507000D01*
X181737000Y-119506999D01*
X182028604Y-119448996D01*
X182028605Y-119448996D01*
X182275815Y-119283815D01*
X182751130Y-118808499D01*
X182966784Y-118808687D01*
X183363689Y-118644689D01*
X183667622Y-118341286D01*
X183832313Y-117944668D01*
X183832687Y-117515216D01*
X183832687Y-131729772D01*
X183576511Y-131780729D01*
X183090330Y-132105585D01*
X183079784Y-132121367D01*
X183074063Y-132091877D01*
X182934273Y-131879073D01*
X182723240Y-131736623D01*
X182473600Y-131686560D01*
X180746400Y-131686560D01*
X180504277Y-131733537D01*
X180291473Y-131873327D01*
X180149023Y-132084360D01*
X180098960Y-132334000D01*
X180098960Y-134366000D01*
X180123600Y-134493000D01*
X179834641Y-134493000D01*
X179682286Y-134340378D01*
X179285668Y-134175687D01*
X178879687Y-134175333D01*
X178879687Y-131231216D01*
X178715689Y-130834311D01*
X178412286Y-130530378D01*
X178015668Y-130365687D01*
X177586216Y-130365313D01*
X177189311Y-130529311D01*
X177035353Y-130683000D01*
X176852925Y-130683000D01*
X176974313Y-130390668D01*
X176974687Y-129961216D01*
X176853119Y-129667000D01*
X177035358Y-129667000D01*
X177187714Y-129819622D01*
X177584332Y-129984313D01*
X178013784Y-129984687D01*
X178410689Y-129820689D01*
X178714622Y-129517286D01*
X178879313Y-129120668D01*
X178879687Y-128691216D01*
X178715689Y-128294311D01*
X178412286Y-127990378D01*
X178015668Y-127825687D01*
X177609687Y-127825333D01*
X177609687Y-115356216D01*
X177445689Y-114959311D01*
X177142286Y-114655378D01*
X176745668Y-114490687D01*
X176316216Y-114490313D01*
X175919311Y-114654311D01*
X175765353Y-114808000D01*
X173964600Y-114808000D01*
X173964600Y-89084745D01*
X173964600Y-88715255D01*
X173850526Y-88141766D01*
X173525670Y-87655585D01*
X173039489Y-87330729D01*
X172466000Y-87216655D01*
X171892511Y-87330729D01*
X171406330Y-87655585D01*
X171196000Y-87970365D01*
X170985670Y-87655585D01*
X170499489Y-87330729D01*
X169926000Y-87216655D01*
X169352511Y-87330729D01*
X168866330Y-87655585D01*
X168656000Y-87970365D01*
X168445670Y-87655585D01*
X167959489Y-87330729D01*
X167386000Y-87216655D01*
X166812511Y-87330729D01*
X166326330Y-87655585D01*
X166116000Y-87970365D01*
X165905670Y-87655585D01*
X165419489Y-87330729D01*
X164846000Y-87216655D01*
X164272511Y-87330729D01*
X163786330Y-87655585D01*
X163576000Y-87970365D01*
X163365670Y-87655585D01*
X162879489Y-87330729D01*
X162306000Y-87216655D01*
X161732511Y-87330729D01*
X161246330Y-87655585D01*
X161036000Y-87970365D01*
X160825670Y-87655585D01*
X160339489Y-87330729D01*
X159766000Y-87216655D01*
X159192511Y-87330729D01*
X158706330Y-87655585D01*
X158499539Y-87965069D01*
X158128036Y-87549268D01*
X157600791Y-87295291D01*
X157585026Y-87292642D01*
X157353000Y-87413783D01*
X157353000Y-88773000D01*
X157373000Y-88773000D01*
X157373000Y-89027000D01*
X157353000Y-89027000D01*
X157353000Y-90386217D01*
X157585026Y-90507358D01*
X157600791Y-90504709D01*
X158128036Y-90250732D01*
X158499539Y-89834930D01*
X158706330Y-90144415D01*
X159192511Y-90469271D01*
X159766000Y-90583345D01*
X160339489Y-90469271D01*
X160825670Y-90144415D01*
X161036000Y-89829634D01*
X161246330Y-90144415D01*
X161327031Y-90198337D01*
X159640869Y-91884500D01*
X157099000Y-91884500D01*
X157099000Y-90386217D01*
X157099000Y-89027000D01*
X157079000Y-89027000D01*
X157079000Y-88773000D01*
X157099000Y-88773000D01*
X157099000Y-87413783D01*
X156866974Y-87292642D01*
X156851209Y-87295291D01*
X156323964Y-87549268D01*
X156166326Y-87725701D01*
X156150063Y-87641877D01*
X156010273Y-87429073D01*
X155799240Y-87286623D01*
X155549600Y-87236560D01*
X153822400Y-87236560D01*
X153580277Y-87283537D01*
X153367473Y-87423327D01*
X153225023Y-87634360D01*
X153174960Y-87884000D01*
X153174960Y-89916000D01*
X153221937Y-90158123D01*
X153361727Y-90370927D01*
X153572760Y-90513377D01*
X153822400Y-90563440D01*
X155549600Y-90563440D01*
X155791723Y-90516463D01*
X156004527Y-90376673D01*
X156146977Y-90165640D01*
X156165483Y-90073354D01*
X156323964Y-90250732D01*
X156851209Y-90504709D01*
X156866974Y-90507358D01*
X157099000Y-90386217D01*
X157099000Y-91884500D01*
X154498141Y-91884500D01*
X154345786Y-91731878D01*
X153949168Y-91567187D01*
X153519716Y-91566813D01*
X153122811Y-91730811D01*
X152818878Y-92034214D01*
X152654187Y-92430832D01*
X152653813Y-92860284D01*
X152817811Y-93257189D01*
X153121214Y-93561122D01*
X153517832Y-93725813D01*
X153947284Y-93726187D01*
X154344189Y-93562189D01*
X154457710Y-93448865D01*
X154432187Y-93510332D01*
X154431813Y-93939784D01*
X154595811Y-94336689D01*
X154899214Y-94640622D01*
X155295832Y-94805313D01*
X155725284Y-94805687D01*
X156122189Y-94641689D01*
X156212535Y-94551500D01*
X156569971Y-94551500D01*
X156527687Y-94653332D01*
X156527313Y-95082784D01*
X156538789Y-95110560D01*
X150622000Y-95110560D01*
X150379877Y-95157537D01*
X150167073Y-95297327D01*
X150024623Y-95508360D01*
X149974560Y-95758000D01*
X149974560Y-98044000D01*
X146304000Y-98044000D01*
X146012395Y-98102004D01*
X145765184Y-98267185D01*
X137796869Y-106235500D01*
X137581216Y-106235313D01*
X137184311Y-106399311D01*
X136880378Y-106702714D01*
X136715687Y-107099332D01*
X136715313Y-107528784D01*
X136879311Y-107925689D01*
X137182714Y-108229622D01*
X137579332Y-108394313D01*
X138008784Y-108394687D01*
X138405689Y-108230689D01*
X138709622Y-107927286D01*
X138874313Y-107530668D01*
X138874502Y-107313127D01*
X146619630Y-99568000D01*
X149974560Y-99568000D01*
X149974560Y-101854000D01*
X150021537Y-102096123D01*
X150161327Y-102308927D01*
X150372360Y-102451377D01*
X150622000Y-102501440D01*
X156718000Y-102501440D01*
X156960123Y-102454463D01*
X157172927Y-102314673D01*
X157315377Y-102103640D01*
X157365440Y-101854000D01*
X157365440Y-95937561D01*
X157391332Y-95948313D01*
X157608872Y-95948502D01*
X158465184Y-96804815D01*
X158465185Y-96804815D01*
X158712395Y-96969996D01*
X159004000Y-97028000D01*
X161795358Y-97028000D01*
X161947714Y-97180622D01*
X162344332Y-97345313D01*
X162773784Y-97345687D01*
X163170689Y-97181689D01*
X163474622Y-96878286D01*
X163639313Y-96481668D01*
X163639687Y-96052216D01*
X163475689Y-95655311D01*
X163172286Y-95351378D01*
X162775668Y-95186687D01*
X162346216Y-95186313D01*
X161949311Y-95350311D01*
X161795353Y-95504000D01*
X159319630Y-95504000D01*
X158686499Y-94870868D01*
X158686687Y-94655216D01*
X158643832Y-94551500D01*
X160210500Y-94551500D01*
X160210500Y-94551499D01*
X160502104Y-94493496D01*
X160502105Y-94493496D01*
X160749315Y-94328315D01*
X161796130Y-93281500D01*
X165287858Y-93281500D01*
X165440214Y-93434122D01*
X165836832Y-93598813D01*
X166266284Y-93599187D01*
X166624000Y-93451381D01*
X166624000Y-97029870D01*
X166498869Y-97155000D01*
X166283216Y-97154813D01*
X165886311Y-97318811D01*
X165582378Y-97622214D01*
X165417687Y-98018832D01*
X165417313Y-98448284D01*
X165581311Y-98845189D01*
X165884714Y-99149122D01*
X166281332Y-99313813D01*
X166710784Y-99314187D01*
X167107689Y-99150189D01*
X167411622Y-98846786D01*
X167576313Y-98450168D01*
X167576502Y-98232627D01*
X167924815Y-97884315D01*
X168089996Y-97637105D01*
X168089996Y-97637104D01*
X168148000Y-97345500D01*
X168148000Y-90343311D01*
X168445670Y-90144415D01*
X168656000Y-89829634D01*
X168866330Y-90144415D01*
X169352511Y-90469271D01*
X169926000Y-90583345D01*
X170499489Y-90469271D01*
X170985670Y-90144415D01*
X171196000Y-89829634D01*
X171406330Y-90144415D01*
X171892511Y-90469271D01*
X172466000Y-90583345D01*
X173039489Y-90469271D01*
X173525670Y-90144415D01*
X173850526Y-89658234D01*
X173964600Y-89084745D01*
X173964600Y-114808000D01*
X173926687Y-114808000D01*
X173926687Y-111546216D01*
X173762689Y-111149311D01*
X173459286Y-110845378D01*
X173062668Y-110680687D01*
X172633216Y-110680313D01*
X172236311Y-110844311D01*
X172082353Y-110998000D01*
X168912641Y-110998000D01*
X168760286Y-110845378D01*
X168363668Y-110680687D01*
X167934216Y-110680313D01*
X167537311Y-110844311D01*
X167233378Y-111147714D01*
X167068687Y-111544332D01*
X167068313Y-111973784D01*
X167232311Y-112370689D01*
X167535714Y-112674622D01*
X167932332Y-112839313D01*
X168361784Y-112839687D01*
X168758689Y-112675689D01*
X168912646Y-112522000D01*
X172082358Y-112522000D01*
X172234714Y-112674622D01*
X172631332Y-112839313D01*
X173060784Y-112839687D01*
X173457689Y-112675689D01*
X173761622Y-112372286D01*
X173926313Y-111975668D01*
X173926687Y-111546216D01*
X173926687Y-114808000D01*
X167449687Y-114808000D01*
X167449687Y-113451216D01*
X167285689Y-113054311D01*
X166982286Y-112750378D01*
X166585668Y-112585687D01*
X166368128Y-112585497D01*
X165638815Y-111856185D01*
X165391605Y-111691004D01*
X165100000Y-111633000D01*
X164594641Y-111633000D01*
X164442286Y-111480378D01*
X164045668Y-111315687D01*
X163616216Y-111315313D01*
X163219311Y-111479311D01*
X162915378Y-111782714D01*
X162750687Y-112179332D01*
X162750313Y-112608784D01*
X162914311Y-113005689D01*
X163217714Y-113309622D01*
X163614332Y-113474313D01*
X164043784Y-113474687D01*
X164440689Y-113310689D01*
X164594646Y-113157000D01*
X164784369Y-113157000D01*
X165290500Y-113663131D01*
X165290313Y-113878784D01*
X165454311Y-114275689D01*
X165757714Y-114579622D01*
X166154332Y-114744313D01*
X166583784Y-114744687D01*
X166980689Y-114580689D01*
X167284622Y-114277286D01*
X167449313Y-113880668D01*
X167449687Y-113451216D01*
X167449687Y-114808000D01*
X164594641Y-114808000D01*
X164442286Y-114655378D01*
X164045668Y-114490687D01*
X163616216Y-114490313D01*
X163219311Y-114654311D01*
X162915378Y-114957714D01*
X162750687Y-115354332D01*
X162750313Y-115783784D01*
X162914311Y-116180689D01*
X163217714Y-116484622D01*
X163614332Y-116649313D01*
X164043784Y-116649687D01*
X164440689Y-116485689D01*
X164594646Y-116332000D01*
X175765358Y-116332000D01*
X175917714Y-116484622D01*
X176314332Y-116649313D01*
X176743784Y-116649687D01*
X177140689Y-116485689D01*
X177444622Y-116182286D01*
X177609313Y-115785668D01*
X177609687Y-115356216D01*
X177609687Y-127825333D01*
X177586216Y-127825313D01*
X177189311Y-127989311D01*
X177035353Y-128143000D01*
X168846687Y-128143000D01*
X168846687Y-124373216D01*
X168682689Y-123976311D01*
X168379286Y-123672378D01*
X167982668Y-123507687D01*
X167765127Y-123507497D01*
X165003815Y-120746185D01*
X164756605Y-120581004D01*
X164465000Y-120523000D01*
X163451641Y-120523000D01*
X163299286Y-120370378D01*
X162902668Y-120205687D01*
X162473216Y-120205313D01*
X162076311Y-120369311D01*
X161772378Y-120672714D01*
X161607687Y-121069332D01*
X161607313Y-121498784D01*
X161771311Y-121895689D01*
X162074714Y-122199622D01*
X162471332Y-122364313D01*
X162900784Y-122364687D01*
X163297689Y-122200689D01*
X163451646Y-122047000D01*
X164149370Y-122047000D01*
X166687500Y-124585130D01*
X166687313Y-124800784D01*
X166851311Y-125197689D01*
X167154714Y-125501622D01*
X167551332Y-125666313D01*
X167980784Y-125666687D01*
X168377689Y-125502689D01*
X168681622Y-125199286D01*
X168846313Y-124802668D01*
X168846687Y-124373216D01*
X168846687Y-128143000D01*
X167386000Y-128143000D01*
X167094395Y-128201004D01*
X166995376Y-128267165D01*
X166847185Y-128366184D01*
X166625868Y-128587500D01*
X166410216Y-128587313D01*
X166013311Y-128751311D01*
X165709378Y-129054714D01*
X165544687Y-129451332D01*
X165544313Y-129880784D01*
X165708311Y-130277689D01*
X165991929Y-130561802D01*
X165925687Y-130721332D01*
X165925313Y-131150784D01*
X166089311Y-131547689D01*
X166176966Y-131635497D01*
X165963378Y-131848714D01*
X165798687Y-132245332D01*
X165798665Y-132270444D01*
X165648216Y-132270313D01*
X165251311Y-132434311D01*
X164947378Y-132737714D01*
X164782687Y-133134332D01*
X164782313Y-133563784D01*
X164946311Y-133960689D01*
X165249714Y-134264622D01*
X165646332Y-134429313D01*
X166075784Y-134429687D01*
X166472689Y-134265689D01*
X166626646Y-134112000D01*
X175130358Y-134112000D01*
X175282714Y-134264622D01*
X175679332Y-134429313D01*
X176108784Y-134429687D01*
X176505689Y-134265689D01*
X176809622Y-133962286D01*
X176974313Y-133565668D01*
X176974687Y-133136216D01*
X176810689Y-132739311D01*
X176507286Y-132435378D01*
X176110668Y-132270687D01*
X175681216Y-132270313D01*
X175284311Y-132434311D01*
X175130353Y-132588000D01*
X167957390Y-132588000D01*
X167957502Y-132459127D01*
X168209630Y-132207000D01*
X177035358Y-132207000D01*
X177187714Y-132359622D01*
X177584332Y-132524313D01*
X178013784Y-132524687D01*
X178410689Y-132360689D01*
X178714622Y-132057286D01*
X178879313Y-131660668D01*
X178879687Y-131231216D01*
X178879687Y-134175333D01*
X178856216Y-134175313D01*
X178459311Y-134339311D01*
X178155378Y-134642714D01*
X177990687Y-135039332D01*
X177990313Y-135468784D01*
X178154311Y-135865689D01*
X178457714Y-136169622D01*
X178854332Y-136334313D01*
X179283784Y-136334687D01*
X179680689Y-136170689D01*
X179834646Y-136017000D01*
X180137163Y-136017000D01*
X180098960Y-136207500D01*
X180098960Y-138239500D01*
X180111280Y-138303000D01*
X177657433Y-138303000D01*
X177914526Y-137918234D01*
X178028600Y-137344745D01*
X178028600Y-136975255D01*
X177914526Y-136401766D01*
X177589670Y-135915585D01*
X177103489Y-135590729D01*
X176530000Y-135476655D01*
X175956511Y-135590729D01*
X175470330Y-135915585D01*
X175263539Y-136225069D01*
X174892036Y-135809268D01*
X174364791Y-135555291D01*
X174349026Y-135552642D01*
X174117000Y-135673783D01*
X174117000Y-137033000D01*
X174137000Y-137033000D01*
X174137000Y-137287000D01*
X174117000Y-137287000D01*
X174117000Y-137307000D01*
X173863000Y-137307000D01*
X173863000Y-137287000D01*
X172790924Y-137287000D01*
X172649076Y-137287000D01*
X171577000Y-137287000D01*
X171577000Y-137307000D01*
X171323000Y-137307000D01*
X171323000Y-137287000D01*
X171303000Y-137287000D01*
X171303000Y-137033000D01*
X171323000Y-137033000D01*
X171323000Y-137013000D01*
X171577000Y-137013000D01*
X171577000Y-137033000D01*
X172649076Y-137033000D01*
X172790924Y-137033000D01*
X173863000Y-137033000D01*
X173863000Y-135673783D01*
X173630974Y-135552642D01*
X173615209Y-135555291D01*
X173087964Y-135809268D01*
X172720000Y-136221108D01*
X172352036Y-135809268D01*
X171853443Y-135569092D01*
X171894313Y-135470668D01*
X171894687Y-135041216D01*
X171730689Y-134644311D01*
X171427286Y-134340378D01*
X171030668Y-134175687D01*
X170601216Y-134175313D01*
X170204311Y-134339311D01*
X170050353Y-134493000D01*
X162054641Y-134493000D01*
X161902286Y-134340378D01*
X161505668Y-134175687D01*
X161076216Y-134175313D01*
X160679311Y-134339311D01*
X160375378Y-134642714D01*
X160210687Y-135039332D01*
X160210313Y-135468784D01*
X160374311Y-135865689D01*
X160677714Y-136169622D01*
X161074332Y-136334313D01*
X161503784Y-136334687D01*
X161900689Y-136170689D01*
X162054646Y-136017000D01*
X162344428Y-136017000D01*
X162318960Y-136144000D01*
X162318960Y-138176000D01*
X162343600Y-138303000D01*
X159966103Y-138303000D01*
X160307670Y-137791810D01*
X160433345Y-137160000D01*
X160307670Y-136528190D01*
X159949778Y-135992567D01*
X159512000Y-135700052D01*
X159512000Y-135255000D01*
X159453996Y-134963395D01*
X159288815Y-134716185D01*
X159288815Y-134716184D01*
X158242000Y-133669369D01*
X158242000Y-124589641D01*
X158394622Y-124437286D01*
X158559313Y-124040668D01*
X158559687Y-123611216D01*
X158418643Y-123269863D01*
X158648622Y-123040286D01*
X158813313Y-122643668D01*
X158813502Y-122426127D01*
X161732630Y-119507000D01*
X171193358Y-119507000D01*
X171345714Y-119659622D01*
X171742332Y-119824313D01*
X172171784Y-119824687D01*
X172568689Y-119660689D01*
X172872622Y-119357286D01*
X173037313Y-118960668D01*
X173037687Y-118531216D01*
X172873689Y-118134311D01*
X172570286Y-117830378D01*
X172173668Y-117665687D01*
X171744216Y-117665313D01*
X171347311Y-117829311D01*
X171193353Y-117983000D01*
X161417000Y-117983000D01*
X161125396Y-118041003D01*
X160878185Y-118206184D01*
X157735869Y-121348500D01*
X157520216Y-121348313D01*
X157353000Y-121417404D01*
X157353000Y-114934309D01*
X157353000Y-112045750D01*
X157353000Y-111474250D01*
X157353000Y-108585691D01*
X157256327Y-108352302D01*
X157077699Y-108173673D01*
X156844310Y-108077000D01*
X156591691Y-108077000D01*
X153955750Y-108077000D01*
X153797000Y-108235750D01*
X153797000Y-111633000D01*
X157194250Y-111633000D01*
X157353000Y-111474250D01*
X157353000Y-112045750D01*
X157194250Y-111887000D01*
X153797000Y-111887000D01*
X153797000Y-115284250D01*
X153955750Y-115443000D01*
X156591691Y-115443000D01*
X156844310Y-115443000D01*
X157077699Y-115346327D01*
X157256327Y-115167698D01*
X157353000Y-114934309D01*
X157353000Y-121417404D01*
X157319863Y-121431096D01*
X157318463Y-121423877D01*
X157178673Y-121211073D01*
X156967640Y-121068623D01*
X156718000Y-121018560D01*
X153543000Y-121018560D01*
X153543000Y-115284250D01*
X153543000Y-111887000D01*
X153543000Y-111633000D01*
X153543000Y-108235750D01*
X153384250Y-108077000D01*
X150748309Y-108077000D01*
X150495690Y-108077000D01*
X150262301Y-108173673D01*
X150083673Y-108352302D01*
X149987000Y-108585691D01*
X149987000Y-111474250D01*
X150145750Y-111633000D01*
X153543000Y-111633000D01*
X153543000Y-111887000D01*
X150145750Y-111887000D01*
X149987000Y-112045750D01*
X149987000Y-114934309D01*
X150083673Y-115167698D01*
X150262301Y-115346327D01*
X150495690Y-115443000D01*
X150748309Y-115443000D01*
X153384250Y-115443000D01*
X153543000Y-115284250D01*
X153543000Y-121018560D01*
X150622000Y-121018560D01*
X150379877Y-121065537D01*
X150167073Y-121205327D01*
X150024623Y-121416360D01*
X149974560Y-121666000D01*
X149974560Y-123952000D01*
X147695660Y-123952000D01*
X147764313Y-123786668D01*
X147764687Y-123357216D01*
X147600689Y-122960311D01*
X147297286Y-122656378D01*
X146900668Y-122491687D01*
X146683128Y-122491497D01*
X143637000Y-119445369D01*
X143637000Y-116713000D01*
X143578996Y-116421395D01*
X143446485Y-116223079D01*
X143446485Y-116223078D01*
X143446687Y-115991216D01*
X143282689Y-115594311D01*
X142979286Y-115290378D01*
X142582668Y-115125687D01*
X142153216Y-115125313D01*
X141756311Y-115289311D01*
X141452378Y-115592714D01*
X141287687Y-115989332D01*
X141287313Y-116418784D01*
X141451311Y-116815689D01*
X141754714Y-117119622D01*
X142113000Y-117268396D01*
X142113000Y-119761000D01*
X142171004Y-120052605D01*
X142336185Y-120299815D01*
X145605500Y-123569131D01*
X145605313Y-123784784D01*
X145674405Y-123952000D01*
X143131868Y-123952000D01*
X143154622Y-123929286D01*
X143319313Y-123532668D01*
X143319687Y-123103216D01*
X143155689Y-122706311D01*
X143001342Y-122551694D01*
X142943996Y-122263396D01*
X142943996Y-122263395D01*
X142877834Y-122164376D01*
X142778816Y-122016185D01*
X141224000Y-120461369D01*
X141224000Y-119128641D01*
X141376622Y-118976286D01*
X141541313Y-118579668D01*
X141541687Y-118150216D01*
X141377689Y-117753311D01*
X141074286Y-117449378D01*
X140677668Y-117284687D01*
X140248216Y-117284313D01*
X139851311Y-117448311D01*
X139547378Y-117751714D01*
X139382687Y-118148332D01*
X139382313Y-118577784D01*
X139546311Y-118974689D01*
X139700000Y-119128646D01*
X139700000Y-120777000D01*
X139716231Y-120858601D01*
X138874499Y-120016869D01*
X138874687Y-119801216D01*
X138710689Y-119404311D01*
X138407286Y-119100378D01*
X138010668Y-118935687D01*
X137581216Y-118935313D01*
X137184311Y-119099311D01*
X136880378Y-119402714D01*
X136715687Y-119799332D01*
X136715313Y-120228784D01*
X136879311Y-120625689D01*
X137182714Y-120929622D01*
X137579332Y-121094313D01*
X137796872Y-121094502D01*
X141955185Y-125252816D01*
X142202395Y-125417996D01*
X142202396Y-125417997D01*
X142494000Y-125476000D01*
X149974560Y-125476000D01*
X149974560Y-127762000D01*
X150021537Y-128004123D01*
X150161327Y-128216927D01*
X150372360Y-128359377D01*
X150622000Y-128409440D01*
X156718000Y-128409440D01*
X156718000Y-133985000D01*
X156776004Y-134276605D01*
X156941185Y-134523815D01*
X157988000Y-135570630D01*
X157988000Y-135700052D01*
X157785481Y-135835371D01*
X157764327Y-135784301D01*
X157585698Y-135605673D01*
X157352309Y-135509000D01*
X156495750Y-135509000D01*
X156337000Y-135667750D01*
X156337000Y-137033000D01*
X156357000Y-137033000D01*
X156357000Y-137287000D01*
X156337000Y-137287000D01*
X156337000Y-137307000D01*
X156083000Y-137307000D01*
X156083000Y-137287000D01*
X156083000Y-137033000D01*
X156083000Y-135667750D01*
X155924250Y-135509000D01*
X155067691Y-135509000D01*
X154834302Y-135605673D01*
X154655673Y-135784301D01*
X154559000Y-136017690D01*
X154559000Y-136270309D01*
X154559000Y-136874250D01*
X154717750Y-137033000D01*
X156083000Y-137033000D01*
X156083000Y-137287000D01*
X154717750Y-137287000D01*
X154559000Y-137445750D01*
X154559000Y-138049691D01*
X154559000Y-138302310D01*
X154559285Y-138303000D01*
X139380630Y-138303000D01*
X138823440Y-137745810D01*
X138823440Y-136296400D01*
X138776463Y-136054277D01*
X138636673Y-135841473D01*
X138425640Y-135699023D01*
X138387037Y-135691281D01*
X138404415Y-135679670D01*
X138603311Y-135382000D01*
X146685000Y-135382000D01*
X152590388Y-135382000D01*
X152590313Y-135468784D01*
X152754311Y-135865689D01*
X153057714Y-136169622D01*
X153454332Y-136334313D01*
X153883784Y-136334687D01*
X154280689Y-136170689D01*
X154584622Y-135867286D01*
X154749313Y-135470668D01*
X154749687Y-135041216D01*
X154585689Y-134644311D01*
X154282286Y-134340378D01*
X153885668Y-134175687D01*
X153668127Y-134175497D01*
X153573815Y-134081185D01*
X153326605Y-133916004D01*
X153035000Y-133858000D01*
X146685000Y-133858000D01*
X138603311Y-133858000D01*
X138404415Y-133560330D01*
X138089634Y-133350000D01*
X138404415Y-133139670D01*
X138729271Y-132653489D01*
X138843345Y-132080000D01*
X138729271Y-131506511D01*
X138404415Y-131020330D01*
X138089634Y-130810000D01*
X138404415Y-130599670D01*
X138729271Y-130113489D01*
X138843345Y-129540000D01*
X138729271Y-128966511D01*
X138404415Y-128480330D01*
X138094930Y-128273539D01*
X138510732Y-127902036D01*
X138764709Y-127374791D01*
X138767358Y-127359026D01*
X138767358Y-126640974D01*
X138764709Y-126625209D01*
X138510732Y-126097964D01*
X138098891Y-125730000D01*
X138510732Y-125362036D01*
X138764709Y-124834791D01*
X138767358Y-124819026D01*
X138767358Y-124100974D01*
X138764709Y-124085209D01*
X138510732Y-123557964D01*
X138074320Y-123168046D01*
X137521913Y-122974816D01*
X137287000Y-123119076D01*
X137287000Y-124333000D01*
X138646217Y-124333000D01*
X138767358Y-124100974D01*
X138767358Y-124819026D01*
X138646217Y-124587000D01*
X137287000Y-124587000D01*
X137287000Y-125659076D01*
X137287000Y-125800924D01*
X137287000Y-126873000D01*
X138646217Y-126873000D01*
X138767358Y-126640974D01*
X138767358Y-127359026D01*
X138646217Y-127127000D01*
X137287000Y-127127000D01*
X137287000Y-127147000D01*
X137033000Y-127147000D01*
X137033000Y-127127000D01*
X137033000Y-126873000D01*
X137033000Y-125800924D01*
X137033000Y-125659076D01*
X137033000Y-124587000D01*
X137033000Y-124333000D01*
X137033000Y-123119076D01*
X136798087Y-122974816D01*
X136245680Y-123168046D01*
X135809268Y-123557964D01*
X135555291Y-124085209D01*
X135552642Y-124100974D01*
X135673783Y-124333000D01*
X137033000Y-124333000D01*
X137033000Y-124587000D01*
X135673783Y-124587000D01*
X135552642Y-124819026D01*
X135555291Y-124834791D01*
X135809268Y-125362036D01*
X136221108Y-125730000D01*
X135809268Y-126097964D01*
X135555291Y-126625209D01*
X135552642Y-126640974D01*
X135673783Y-126873000D01*
X137033000Y-126873000D01*
X137033000Y-127127000D01*
X135673783Y-127127000D01*
X135552642Y-127359026D01*
X135555291Y-127374791D01*
X135809268Y-127902036D01*
X136225069Y-128273539D01*
X135915585Y-128480330D01*
X135590729Y-128966511D01*
X135476655Y-129540000D01*
X135590729Y-130113489D01*
X135915585Y-130599670D01*
X136230365Y-130810000D01*
X135915585Y-131020330D01*
X135590729Y-131506511D01*
X135476655Y-132080000D01*
X135590729Y-132653489D01*
X135915585Y-133139670D01*
X136230365Y-133350000D01*
X135915585Y-133560330D01*
X135590729Y-134046511D01*
X135476655Y-134620000D01*
X135590729Y-135193489D01*
X135915585Y-135679670D01*
X135931367Y-135690215D01*
X135901877Y-135695937D01*
X135689073Y-135835727D01*
X135546623Y-136046760D01*
X135534390Y-136107760D01*
X135382000Y-135955370D01*
X135382000Y-123827641D01*
X135534622Y-123675286D01*
X135699313Y-123278668D01*
X135699687Y-122849216D01*
X135535689Y-122452311D01*
X135232286Y-122148378D01*
X134835668Y-121983687D01*
X134406216Y-121983313D01*
X134009311Y-122147311D01*
X133705378Y-122450714D01*
X133540687Y-122847332D01*
X133540313Y-123276784D01*
X133704311Y-123673689D01*
X133858000Y-123827646D01*
X133858000Y-136271000D01*
X133916004Y-136562605D01*
X134081185Y-136809815D01*
X134970185Y-137698815D01*
X135217395Y-137863996D01*
X135217396Y-137863996D01*
X135496560Y-137919525D01*
X135496560Y-138023600D01*
X135543537Y-138265723D01*
X135683327Y-138478527D01*
X135894360Y-138620977D01*
X136144000Y-138671040D01*
X137593410Y-138671040D01*
X137937370Y-139015000D01*
X131495000Y-139015000D01*
X131495000Y-87045000D01*
X195217600Y-87045000D01*
X196082898Y-87831634D01*
X196165000Y-87913736D01*
X196165000Y-99060000D01*
X196217143Y-99322138D01*
X196313713Y-99466666D01*
M02*
