G04 #@! TF.FileFunction,Copper,L3,Inr,Signal*
%FSLAX46Y46*%
G04 Gerber Fmt 4.6, Leading zero omitted, Abs format (unit mm)*
G04 Created by KiCad (PCBNEW (2015-01-06 BZR 5261)-product) date Thursday, April 09, 2015 'PMt' 11:27:51 PM*
%MOMM*%
G01*
G04 APERTURE LIST*
%ADD10C,0.152400*%
%ADD11C,1.270000*%
%ADD12C,2.150000*%
%ADD13R,1.727200X2.032000*%
%ADD14O,1.727200X2.032000*%
%ADD15R,2.032000X1.727200*%
%ADD16O,2.032000X1.727200*%
%ADD17R,2.032000X2.032000*%
%ADD18O,2.032000X2.032000*%
%ADD19O,2.100000X1.200000*%
%ADD20C,0.900000*%
%ADD21R,1.727200X1.727200*%
%ADD22O,1.727200X1.727200*%
%ADD23C,0.889000*%
%ADD24C,0.254000*%
G04 APERTURE END LIST*
D10*
D11*
X195326000Y-129413000D03*
X197866000Y-129413000D03*
X195326000Y-126873000D03*
X197866000Y-126873000D03*
X195326000Y-124333000D03*
X197866000Y-124333000D03*
X195326000Y-121793000D03*
X197866000Y-121793000D03*
X195326000Y-119253000D03*
X197866000Y-119253000D03*
X195326000Y-116713000D03*
X197866000Y-116713000D03*
X195326000Y-114173000D03*
X197866000Y-114173000D03*
X195326000Y-111633000D03*
X197866000Y-111633000D03*
D12*
X142796000Y-132588000D03*
X148796000Y-132588000D03*
X145796000Y-137288000D03*
D13*
X150622000Y-137033000D03*
D14*
X153162000Y-137033000D03*
X155702000Y-137033000D03*
X158242000Y-137033000D03*
X160782000Y-137033000D03*
X163322000Y-137033000D03*
D13*
X169926000Y-137033000D03*
D14*
X172466000Y-137033000D03*
X175006000Y-137033000D03*
X177546000Y-137033000D03*
X180086000Y-137033000D03*
X182626000Y-137033000D03*
X185166000Y-137033000D03*
X187706000Y-137033000D03*
X190246000Y-137033000D03*
X192786000Y-137033000D03*
D15*
X184912000Y-91821000D03*
D16*
X184912000Y-94361000D03*
X184912000Y-96901000D03*
X184912000Y-99441000D03*
D17*
X184912000Y-105664000D03*
D18*
X184912000Y-103124000D03*
D19*
X140323000Y-87536000D03*
X140323000Y-94836000D03*
X135023000Y-94836000D03*
X135023000Y-87536000D03*
D20*
X138323000Y-89436000D03*
X138323000Y-92936000D03*
D21*
X168402000Y-88138000D03*
D22*
X170942000Y-88138000D03*
X168402000Y-90678000D03*
X170942000Y-90678000D03*
X168402000Y-93218000D03*
X170942000Y-93218000D03*
D13*
X174117000Y-88138000D03*
D14*
X176657000Y-88138000D03*
X179197000Y-88138000D03*
X181737000Y-88138000D03*
D11*
X156718000Y-129667000D03*
X139344400Y-120802400D03*
X137414000Y-98094800D03*
X142290800Y-94030800D03*
X142392400Y-113944400D03*
X155346400Y-121666000D03*
X176936400Y-124561600D03*
X166776400Y-129692400D03*
X181203600Y-124612400D03*
X181965600Y-113233200D03*
X169367200Y-102870000D03*
X173685200Y-105257600D03*
X136855200Y-123799600D03*
X156159200Y-88696800D03*
X142646400Y-106375200D03*
X188925200Y-124612400D03*
X174091600Y-124506010D03*
X148717000Y-96774000D03*
X165354000Y-104267000D03*
X173434195Y-98506858D03*
X161243990Y-110363000D03*
D23*
X156768800Y-113690400D03*
X146558000Y-111887000D03*
X145669000Y-88011000D03*
X145542000Y-90678000D03*
X132715000Y-111252000D03*
X133477000Y-116840000D03*
X134620000Y-122936000D03*
X145034000Y-122555000D03*
X192278000Y-107950000D03*
X189103000Y-110490000D03*
X190754000Y-118999000D03*
X188112400Y-130708400D03*
X184200800Y-124815600D03*
X172669200Y-120700800D03*
X163728400Y-128778000D03*
X145491200Y-109372400D03*
X145694400Y-94183200D03*
X146253200Y-117805200D03*
X154940000Y-103835200D03*
X157480000Y-109169200D03*
X167640000Y-125120400D03*
X176936400Y-109829600D03*
X165709600Y-87782400D03*
X144018000Y-104800400D03*
X133553200Y-103632000D03*
X138633200Y-113588800D03*
X142646400Y-117094000D03*
X145846800Y-126644400D03*
X167944800Y-115570000D03*
X151003000Y-97282000D03*
X161036000Y-96139000D03*
X152273000Y-115443000D03*
X162306000Y-109220000D03*
X152400000Y-100711000D03*
X180594000Y-104648000D03*
X148971000Y-108331000D03*
X139192000Y-106426000D03*
X157226000Y-124206000D03*
X162941000Y-125730000D03*
X165227000Y-125730000D03*
X179578000Y-105029000D03*
X180340000Y-111379000D03*
X179451000Y-117221000D03*
X179451000Y-121158000D03*
X174244000Y-130810000D03*
X167259000Y-127127000D03*
X162560000Y-90424000D03*
X164465000Y-105791000D03*
X172974000Y-92837000D03*
X173098346Y-95503722D03*
X178562000Y-109728000D03*
X178308000Y-113030000D03*
X172847000Y-112141000D03*
X172720000Y-110617000D03*
X165354000Y-90170000D03*
X166116000Y-119888000D03*
X150241000Y-113538000D03*
X150622000Y-111252000D03*
X152146000Y-107696000D03*
X154686000Y-110236000D03*
X160274000Y-116713000D03*
X144145000Y-112395000D03*
X171577000Y-125730000D03*
X193167000Y-124333000D03*
X193929000Y-108331000D03*
X156845000Y-135001000D03*
X191770000Y-127127000D03*
X194945000Y-108712000D03*
X165354000Y-123698000D03*
X163576000Y-120777000D03*
X167509111Y-123701889D03*
X164465000Y-114554000D03*
X163449000Y-115316000D03*
X164465000Y-112776000D03*
X173482000Y-119380000D03*
X180721000Y-120523000D03*
X187071000Y-121031000D03*
X165354000Y-115316000D03*
X181610000Y-122047000D03*
X171196000Y-117475000D03*
X166116000Y-111633000D03*
X178054000Y-114808000D03*
X166243000Y-108204000D03*
X147828000Y-101600000D03*
X168529000Y-105727500D03*
X167513000Y-112395000D03*
X175768000Y-111379000D03*
X187579000Y-109601000D03*
X169418000Y-108077000D03*
X161163000Y-108331000D03*
X139065000Y-112141000D03*
X142748000Y-108458000D03*
X149352000Y-110871000D03*
X149860000Y-115443000D03*
X140716000Y-116840000D03*
X179832000Y-106807000D03*
X182372000Y-108839000D03*
X137541000Y-102489000D03*
X155448000Y-91313000D03*
X158635231Y-127876769D03*
X166814500Y-134874000D03*
X165862000Y-130873500D03*
X170307000Y-105664000D03*
X165227000Y-138684000D03*
X159512000Y-120015000D03*
X161798000Y-118999000D03*
X137541000Y-109601000D03*
X178663600Y-94335600D03*
X168097200Y-102260400D03*
X162509200Y-104952800D03*
X157073600Y-104800400D03*
X156337000Y-93345000D03*
X161290000Y-93599000D03*
D24*
G36*
X198059747Y-119267142D02*
X197880142Y-119446747D01*
X197866000Y-119432605D01*
X197157472Y-120141133D01*
X197211303Y-120370179D01*
X197651546Y-120522812D01*
X197614490Y-120522780D01*
X197147542Y-120715718D01*
X196789974Y-121072663D01*
X196596221Y-121539273D01*
X196596219Y-121541487D01*
X196403282Y-121074542D01*
X196046337Y-120716974D01*
X195579727Y-120523221D01*
X195577512Y-120523219D01*
X196044458Y-120330282D01*
X196402026Y-119973337D01*
X196595779Y-119506727D01*
X196595968Y-119289929D01*
X196613094Y-119580023D01*
X196748821Y-119907697D01*
X196977867Y-119961528D01*
X197686395Y-119253000D01*
X196977867Y-118544472D01*
X196748821Y-118598303D01*
X196596187Y-119038546D01*
X196596220Y-119001490D01*
X196403282Y-118534542D01*
X196046337Y-118176974D01*
X195579727Y-117983221D01*
X195577512Y-117983219D01*
X196044458Y-117790282D01*
X196402026Y-117433337D01*
X196595779Y-116966727D01*
X196595780Y-116964512D01*
X196788718Y-117431458D01*
X197145663Y-117789026D01*
X197612273Y-117982779D01*
X197829070Y-117982968D01*
X197538977Y-118000094D01*
X197211303Y-118135821D01*
X197157472Y-118364867D01*
X197866000Y-119073395D01*
X197880142Y-119059252D01*
X198059747Y-119238857D01*
X198045605Y-119253000D01*
X198059747Y-119267142D01*
X198059747Y-119267142D01*
G37*
X198059747Y-119267142D02*
X197880142Y-119446747D01*
X197866000Y-119432605D01*
X197157472Y-120141133D01*
X197211303Y-120370179D01*
X197651546Y-120522812D01*
X197614490Y-120522780D01*
X197147542Y-120715718D01*
X196789974Y-121072663D01*
X196596221Y-121539273D01*
X196596219Y-121541487D01*
X196403282Y-121074542D01*
X196046337Y-120716974D01*
X195579727Y-120523221D01*
X195577512Y-120523219D01*
X196044458Y-120330282D01*
X196402026Y-119973337D01*
X196595779Y-119506727D01*
X196595968Y-119289929D01*
X196613094Y-119580023D01*
X196748821Y-119907697D01*
X196977867Y-119961528D01*
X197686395Y-119253000D01*
X196977867Y-118544472D01*
X196748821Y-118598303D01*
X196596187Y-119038546D01*
X196596220Y-119001490D01*
X196403282Y-118534542D01*
X196046337Y-118176974D01*
X195579727Y-117983221D01*
X195577512Y-117983219D01*
X196044458Y-117790282D01*
X196402026Y-117433337D01*
X196595779Y-116966727D01*
X196595780Y-116964512D01*
X196788718Y-117431458D01*
X197145663Y-117789026D01*
X197612273Y-117982779D01*
X197829070Y-117982968D01*
X197538977Y-118000094D01*
X197211303Y-118135821D01*
X197157472Y-118364867D01*
X197866000Y-119073395D01*
X197880142Y-119059252D01*
X198059747Y-119238857D01*
X198045605Y-119253000D01*
X198059747Y-119267142D01*
G36*
X198705000Y-134336264D02*
X196365632Y-136675632D01*
X196217143Y-136897862D01*
X196165000Y-137160000D01*
X196165000Y-139015000D01*
X196034528Y-139015000D01*
X196034528Y-130301133D01*
X195326000Y-129592605D01*
X195146395Y-129772210D01*
X195146395Y-129413000D01*
X194437867Y-128704472D01*
X194208821Y-128758303D01*
X194043319Y-129235664D01*
X194073094Y-129740023D01*
X194208821Y-130067697D01*
X194437867Y-130121528D01*
X195146395Y-129413000D01*
X195146395Y-129772210D01*
X194617472Y-130301133D01*
X194671303Y-130530179D01*
X195148664Y-130695681D01*
X195653023Y-130665906D01*
X195980697Y-130530179D01*
X196034528Y-130301133D01*
X196034528Y-139015000D01*
X194284600Y-139015000D01*
X194284600Y-137217745D01*
X194284600Y-136848255D01*
X194170526Y-136274766D01*
X193845670Y-135788585D01*
X193359489Y-135463729D01*
X192849687Y-135362323D01*
X192849687Y-126913216D01*
X192685689Y-126516311D01*
X192382286Y-126212378D01*
X191985668Y-126047687D01*
X191556216Y-126047313D01*
X191159311Y-126211311D01*
X190855378Y-126514714D01*
X190690687Y-126911332D01*
X190690313Y-127340784D01*
X190854311Y-127737689D01*
X191157714Y-128041622D01*
X191554332Y-128206313D01*
X191983784Y-128206687D01*
X192380689Y-128042689D01*
X192684622Y-127739286D01*
X192849313Y-127342668D01*
X192849687Y-126913216D01*
X192849687Y-135362323D01*
X192786000Y-135349655D01*
X192212511Y-135463729D01*
X191726330Y-135788585D01*
X191519539Y-136098069D01*
X191148036Y-135682268D01*
X190620791Y-135428291D01*
X190605026Y-135425642D01*
X190373000Y-135546783D01*
X190373000Y-136906000D01*
X190393000Y-136906000D01*
X190393000Y-137160000D01*
X190373000Y-137160000D01*
X190373000Y-138519217D01*
X190605026Y-138640358D01*
X190620791Y-138637709D01*
X191148036Y-138383732D01*
X191519539Y-137967930D01*
X191726330Y-138277415D01*
X192212511Y-138602271D01*
X192786000Y-138716345D01*
X193359489Y-138602271D01*
X193845670Y-138277415D01*
X194170526Y-137791234D01*
X194284600Y-137217745D01*
X194284600Y-139015000D01*
X190195420Y-139015000D01*
X190195420Y-124360890D01*
X190002482Y-123893942D01*
X189645537Y-123536374D01*
X189178927Y-123342621D01*
X188673690Y-123342180D01*
X188658687Y-123348379D01*
X188658687Y-109387216D01*
X188494689Y-108990311D01*
X188191286Y-108686378D01*
X187794668Y-108521687D01*
X187365216Y-108521313D01*
X186968311Y-108685311D01*
X186664378Y-108988714D01*
X186595345Y-109154963D01*
X186595345Y-99441000D01*
X186481271Y-98867511D01*
X186156415Y-98381330D01*
X185841634Y-98171000D01*
X186156415Y-97960670D01*
X186481271Y-97474489D01*
X186595345Y-96901000D01*
X186481271Y-96327511D01*
X186156415Y-95841330D01*
X185841634Y-95631000D01*
X186156415Y-95420670D01*
X186481271Y-94934489D01*
X186595345Y-94361000D01*
X186481271Y-93787511D01*
X186156415Y-93301330D01*
X186140632Y-93290784D01*
X186170123Y-93285063D01*
X186382927Y-93145273D01*
X186525377Y-92934240D01*
X186575440Y-92684600D01*
X186575440Y-90957400D01*
X186528463Y-90715277D01*
X186388673Y-90502473D01*
X186177640Y-90360023D01*
X185928000Y-90309960D01*
X183896000Y-90309960D01*
X183653877Y-90356937D01*
X183441073Y-90496727D01*
X183298623Y-90707760D01*
X183248560Y-90957400D01*
X183248560Y-92684600D01*
X183295537Y-92926723D01*
X183435327Y-93139527D01*
X183646360Y-93281977D01*
X183684962Y-93289718D01*
X183667585Y-93301330D01*
X183342729Y-93787511D01*
X183228655Y-94361000D01*
X183342729Y-94934489D01*
X183667585Y-95420670D01*
X183982365Y-95631000D01*
X183667585Y-95841330D01*
X183342729Y-96327511D01*
X183228655Y-96901000D01*
X183342729Y-97474489D01*
X183667585Y-97960670D01*
X183982365Y-98171000D01*
X183667585Y-98381330D01*
X183342729Y-98867511D01*
X183228655Y-99441000D01*
X183342729Y-100014489D01*
X183667585Y-100500670D01*
X184153766Y-100825526D01*
X184727255Y-100939600D01*
X185096745Y-100939600D01*
X185670234Y-100825526D01*
X186156415Y-100500670D01*
X186481271Y-100014489D01*
X186595345Y-99441000D01*
X186595345Y-109154963D01*
X186563000Y-109232858D01*
X186563000Y-106806309D01*
X186563000Y-105949750D01*
X186563000Y-105378250D01*
X186563000Y-104521691D01*
X186466327Y-104288302D01*
X186287699Y-104109673D01*
X186236628Y-104088518D01*
X186437325Y-103788155D01*
X186563000Y-103156345D01*
X186563000Y-103091655D01*
X186437325Y-102459845D01*
X186079433Y-101924222D01*
X185543810Y-101566330D01*
X184912000Y-101440655D01*
X184280190Y-101566330D01*
X183744567Y-101924222D01*
X183386675Y-102459845D01*
X183261000Y-103091655D01*
X183261000Y-103156345D01*
X183386675Y-103788155D01*
X183587371Y-104088518D01*
X183536301Y-104109673D01*
X183357673Y-104288302D01*
X183261000Y-104521691D01*
X183261000Y-105378250D01*
X183419750Y-105537000D01*
X184785000Y-105537000D01*
X184785000Y-105517000D01*
X185039000Y-105517000D01*
X185039000Y-105537000D01*
X186404250Y-105537000D01*
X186563000Y-105378250D01*
X186563000Y-105949750D01*
X186404250Y-105791000D01*
X185039000Y-105791000D01*
X185039000Y-107156250D01*
X185197750Y-107315000D01*
X185801691Y-107315000D01*
X186054310Y-107315000D01*
X186287699Y-107218327D01*
X186466327Y-107039698D01*
X186563000Y-106806309D01*
X186563000Y-109232858D01*
X186499687Y-109385332D01*
X186499313Y-109814784D01*
X186663311Y-110211689D01*
X186966714Y-110515622D01*
X187363332Y-110680313D01*
X187792784Y-110680687D01*
X188189689Y-110516689D01*
X188493622Y-110213286D01*
X188658313Y-109816668D01*
X188658687Y-109387216D01*
X188658687Y-123348379D01*
X188206742Y-123535118D01*
X188150687Y-123591075D01*
X188150687Y-120817216D01*
X187986689Y-120420311D01*
X187683286Y-120116378D01*
X187286668Y-119951687D01*
X186857216Y-119951313D01*
X186460311Y-120115311D01*
X186156378Y-120418714D01*
X185991687Y-120815332D01*
X185991313Y-121244784D01*
X186155311Y-121641689D01*
X186458714Y-121945622D01*
X186855332Y-122110313D01*
X187284784Y-122110687D01*
X187681689Y-121946689D01*
X187985622Y-121643286D01*
X188150313Y-121246668D01*
X188150687Y-120817216D01*
X188150687Y-123591075D01*
X187849174Y-123892063D01*
X187655421Y-124358673D01*
X187654980Y-124863910D01*
X187847918Y-125330858D01*
X188204863Y-125688426D01*
X188671473Y-125882179D01*
X189176710Y-125882620D01*
X189643658Y-125689682D01*
X190001226Y-125332737D01*
X190194979Y-124866127D01*
X190195420Y-124360890D01*
X190195420Y-139015000D01*
X190119000Y-139015000D01*
X190119000Y-138519217D01*
X190119000Y-137160000D01*
X190099000Y-137160000D01*
X190099000Y-136906000D01*
X190119000Y-136906000D01*
X190119000Y-135546783D01*
X189886974Y-135425642D01*
X189871209Y-135428291D01*
X189343964Y-135682268D01*
X188972460Y-136098069D01*
X188765670Y-135788585D01*
X188279489Y-135463729D01*
X187706000Y-135349655D01*
X187132511Y-135463729D01*
X186646330Y-135788585D01*
X186436000Y-136103365D01*
X186225670Y-135788585D01*
X185739489Y-135463729D01*
X185166000Y-135349655D01*
X184785000Y-135425440D01*
X184785000Y-107156250D01*
X184785000Y-105791000D01*
X183419750Y-105791000D01*
X183261000Y-105949750D01*
X183261000Y-106806309D01*
X183357673Y-107039698D01*
X183536301Y-107218327D01*
X183769690Y-107315000D01*
X184022309Y-107315000D01*
X184626250Y-107315000D01*
X184785000Y-107156250D01*
X184785000Y-135425440D01*
X184592511Y-135463729D01*
X184106330Y-135788585D01*
X183896000Y-136103365D01*
X183685670Y-135788585D01*
X183451687Y-135632242D01*
X183451687Y-108625216D01*
X183287689Y-108228311D01*
X183222184Y-108162691D01*
X183222184Y-88499913D01*
X183077924Y-88265000D01*
X181864000Y-88265000D01*
X181864000Y-89624217D01*
X182096026Y-89745358D01*
X182111791Y-89742709D01*
X182639036Y-89488732D01*
X183028954Y-89052320D01*
X183222184Y-88499913D01*
X183222184Y-108162691D01*
X182984286Y-107924378D01*
X182587668Y-107759687D01*
X182158216Y-107759313D01*
X181761311Y-107923311D01*
X181673687Y-108010782D01*
X181673687Y-104434216D01*
X181509689Y-104037311D01*
X181206286Y-103733378D01*
X180809668Y-103568687D01*
X180380216Y-103568313D01*
X179983311Y-103732311D01*
X179765579Y-103949662D01*
X179743287Y-103949642D01*
X179743287Y-94121816D01*
X179579289Y-93724911D01*
X179275886Y-93420978D01*
X178879268Y-93256287D01*
X178449816Y-93255913D01*
X178052911Y-93419911D01*
X177748978Y-93723314D01*
X177584287Y-94119932D01*
X177583913Y-94549384D01*
X177747911Y-94946289D01*
X178051314Y-95250222D01*
X178447932Y-95414913D01*
X178877384Y-95415287D01*
X179274289Y-95251289D01*
X179578222Y-94947886D01*
X179742913Y-94551268D01*
X179743287Y-94121816D01*
X179743287Y-103949642D01*
X179364216Y-103949313D01*
X178967311Y-104113311D01*
X178663378Y-104416714D01*
X178498687Y-104813332D01*
X178498313Y-105242784D01*
X178662311Y-105639689D01*
X178965714Y-105943622D01*
X179109216Y-106003209D01*
X178917378Y-106194714D01*
X178752687Y-106591332D01*
X178752313Y-107020784D01*
X178916311Y-107417689D01*
X179219714Y-107721622D01*
X179616332Y-107886313D01*
X180045784Y-107886687D01*
X180442689Y-107722689D01*
X180746622Y-107419286D01*
X180911313Y-107022668D01*
X180911687Y-106593216D01*
X180747689Y-106196311D01*
X180444286Y-105892378D01*
X180300783Y-105832790D01*
X180406420Y-105727337D01*
X180807784Y-105727687D01*
X181204689Y-105563689D01*
X181508622Y-105260286D01*
X181673313Y-104863668D01*
X181673687Y-104434216D01*
X181673687Y-108010782D01*
X181457378Y-108226714D01*
X181292687Y-108623332D01*
X181292313Y-109052784D01*
X181456311Y-109449689D01*
X181759714Y-109753622D01*
X182156332Y-109918313D01*
X182585784Y-109918687D01*
X182982689Y-109754689D01*
X183286622Y-109451286D01*
X183451313Y-109054668D01*
X183451687Y-108625216D01*
X183451687Y-135632242D01*
X183235820Y-135488004D01*
X183235820Y-112981690D01*
X183042882Y-112514742D01*
X182685937Y-112157174D01*
X182219327Y-111963421D01*
X181714090Y-111962980D01*
X181419687Y-112084624D01*
X181419687Y-111165216D01*
X181255689Y-110768311D01*
X180952286Y-110464378D01*
X180555668Y-110299687D01*
X180126216Y-110299313D01*
X179729311Y-110463311D01*
X179641687Y-110550782D01*
X179641687Y-109514216D01*
X179477689Y-109117311D01*
X179174286Y-108813378D01*
X178777668Y-108648687D01*
X178348216Y-108648313D01*
X177951311Y-108812311D01*
X177647378Y-109115714D01*
X177482687Y-109512332D01*
X177482313Y-109941784D01*
X177646311Y-110338689D01*
X177949714Y-110642622D01*
X178346332Y-110807313D01*
X178775784Y-110807687D01*
X179172689Y-110643689D01*
X179476622Y-110340286D01*
X179641313Y-109943668D01*
X179641687Y-109514216D01*
X179641687Y-110550782D01*
X179425378Y-110766714D01*
X179260687Y-111163332D01*
X179260313Y-111592784D01*
X179424311Y-111989689D01*
X179727714Y-112293622D01*
X180124332Y-112458313D01*
X180553784Y-112458687D01*
X180950689Y-112294689D01*
X181254622Y-111991286D01*
X181419313Y-111594668D01*
X181419687Y-111165216D01*
X181419687Y-112084624D01*
X181247142Y-112155918D01*
X180889574Y-112512863D01*
X180695821Y-112979473D01*
X180695380Y-113484710D01*
X180888318Y-113951658D01*
X181245263Y-114309226D01*
X181711873Y-114502979D01*
X182217110Y-114503420D01*
X182684058Y-114310482D01*
X183041626Y-113953537D01*
X183235379Y-113486927D01*
X183235820Y-112981690D01*
X183235820Y-135488004D01*
X183199489Y-135463729D01*
X182689687Y-135362323D01*
X182689687Y-121833216D01*
X182525689Y-121436311D01*
X182222286Y-121132378D01*
X181825668Y-120967687D01*
X181705259Y-120967582D01*
X181800313Y-120738668D01*
X181800687Y-120309216D01*
X181636689Y-119912311D01*
X181333286Y-119608378D01*
X180936668Y-119443687D01*
X180530687Y-119443333D01*
X180530687Y-117007216D01*
X180366689Y-116610311D01*
X180063286Y-116306378D01*
X179666668Y-116141687D01*
X179387687Y-116141444D01*
X179387687Y-112816216D01*
X179223689Y-112419311D01*
X178920286Y-112115378D01*
X178523668Y-111950687D01*
X178094216Y-111950313D01*
X177697311Y-112114311D01*
X177393378Y-112417714D01*
X177228687Y-112814332D01*
X177228313Y-113243784D01*
X177392311Y-113640689D01*
X177585036Y-113833751D01*
X177443311Y-113892311D01*
X177139378Y-114195714D01*
X176974687Y-114592332D01*
X176974313Y-115021784D01*
X177138311Y-115418689D01*
X177441714Y-115722622D01*
X177838332Y-115887313D01*
X178267784Y-115887687D01*
X178664689Y-115723689D01*
X178968622Y-115420286D01*
X179133313Y-115023668D01*
X179133687Y-114594216D01*
X178969689Y-114197311D01*
X178776963Y-114004248D01*
X178918689Y-113945689D01*
X179222622Y-113642286D01*
X179387313Y-113245668D01*
X179387687Y-112816216D01*
X179387687Y-116141444D01*
X179237216Y-116141313D01*
X178840311Y-116305311D01*
X178536378Y-116608714D01*
X178371687Y-117005332D01*
X178371313Y-117434784D01*
X178535311Y-117831689D01*
X178838714Y-118135622D01*
X179235332Y-118300313D01*
X179664784Y-118300687D01*
X180061689Y-118136689D01*
X180365622Y-117833286D01*
X180530313Y-117436668D01*
X180530687Y-117007216D01*
X180530687Y-119443333D01*
X180507216Y-119443313D01*
X180110311Y-119607311D01*
X179806378Y-119910714D01*
X179726340Y-120103465D01*
X179666668Y-120078687D01*
X179237216Y-120078313D01*
X178840311Y-120242311D01*
X178536378Y-120545714D01*
X178371687Y-120942332D01*
X178371313Y-121371784D01*
X178535311Y-121768689D01*
X178838714Y-122072622D01*
X179235332Y-122237313D01*
X179664784Y-122237687D01*
X180061689Y-122073689D01*
X180365622Y-121770286D01*
X180445659Y-121577534D01*
X180505332Y-121602313D01*
X180625740Y-121602417D01*
X180530687Y-121831332D01*
X180530313Y-122260784D01*
X180694311Y-122657689D01*
X180997714Y-122961622D01*
X181394332Y-123126313D01*
X181823784Y-123126687D01*
X182220689Y-122962689D01*
X182524622Y-122659286D01*
X182689313Y-122262668D01*
X182689687Y-121833216D01*
X182689687Y-135362323D01*
X182626000Y-135349655D01*
X182473820Y-135379925D01*
X182473820Y-124360890D01*
X182280882Y-123893942D01*
X181923937Y-123536374D01*
X181457327Y-123342621D01*
X180952090Y-123342180D01*
X180485142Y-123535118D01*
X180127574Y-123892063D01*
X179933821Y-124358673D01*
X179933380Y-124863910D01*
X180126318Y-125330858D01*
X180483263Y-125688426D01*
X180949873Y-125882179D01*
X181455110Y-125882620D01*
X181922058Y-125689682D01*
X182279626Y-125332737D01*
X182473379Y-124866127D01*
X182473820Y-124360890D01*
X182473820Y-135379925D01*
X182052511Y-135463729D01*
X181566330Y-135788585D01*
X181356000Y-136103365D01*
X181145670Y-135788585D01*
X180659489Y-135463729D01*
X180086000Y-135349655D01*
X179512511Y-135463729D01*
X179026330Y-135788585D01*
X178816000Y-136103365D01*
X178605670Y-135788585D01*
X178206620Y-135521948D01*
X178206620Y-124310090D01*
X178013682Y-123843142D01*
X177656737Y-123485574D01*
X177190127Y-123291821D01*
X176847687Y-123291522D01*
X176847687Y-111165216D01*
X176683689Y-110768311D01*
X176380286Y-110464378D01*
X175983668Y-110299687D01*
X175554216Y-110299313D01*
X175157311Y-110463311D01*
X174955420Y-110664849D01*
X174955420Y-105006090D01*
X174762482Y-104539142D01*
X174704415Y-104480973D01*
X174704415Y-98255348D01*
X174511477Y-97788400D01*
X174178033Y-97454374D01*
X174178033Y-95289938D01*
X174014035Y-94893033D01*
X173710632Y-94589100D01*
X173314014Y-94424409D01*
X172884562Y-94424035D01*
X172487657Y-94588033D01*
X172183724Y-94891436D01*
X172019033Y-95288054D01*
X172018659Y-95717506D01*
X172182657Y-96114411D01*
X172486060Y-96418344D01*
X172882678Y-96583035D01*
X173312130Y-96583409D01*
X173709035Y-96419411D01*
X174012968Y-96116008D01*
X174177659Y-95719390D01*
X174178033Y-95289938D01*
X174178033Y-97454374D01*
X174154532Y-97430832D01*
X173687922Y-97237079D01*
X173182685Y-97236638D01*
X172715737Y-97429576D01*
X172358169Y-97786521D01*
X172164416Y-98253131D01*
X172163975Y-98758368D01*
X172356913Y-99225316D01*
X172713858Y-99582884D01*
X173180468Y-99776637D01*
X173685705Y-99777078D01*
X174152653Y-99584140D01*
X174510221Y-99227195D01*
X174703974Y-98760585D01*
X174704415Y-98255348D01*
X174704415Y-104480973D01*
X174405537Y-104181574D01*
X173938927Y-103987821D01*
X173433690Y-103987380D01*
X172966742Y-104180318D01*
X172609174Y-104537263D01*
X172415421Y-105003873D01*
X172414980Y-105509110D01*
X172607918Y-105976058D01*
X172964863Y-106333626D01*
X173431473Y-106527379D01*
X173936710Y-106527820D01*
X174403658Y-106334882D01*
X174761226Y-105977937D01*
X174954979Y-105511327D01*
X174955420Y-105006090D01*
X174955420Y-110664849D01*
X174853378Y-110766714D01*
X174688687Y-111163332D01*
X174688313Y-111592784D01*
X174852311Y-111989689D01*
X175155714Y-112293622D01*
X175552332Y-112458313D01*
X175981784Y-112458687D01*
X176378689Y-112294689D01*
X176682622Y-111991286D01*
X176847313Y-111594668D01*
X176847687Y-111165216D01*
X176847687Y-123291522D01*
X176684890Y-123291380D01*
X176217942Y-123484318D01*
X175860374Y-123841263D01*
X175666621Y-124307873D01*
X175666180Y-124813110D01*
X175859118Y-125280058D01*
X176216063Y-125637626D01*
X176682673Y-125831379D01*
X177187910Y-125831820D01*
X177654858Y-125638882D01*
X178012426Y-125281937D01*
X178206179Y-124815327D01*
X178206620Y-124310090D01*
X178206620Y-135521948D01*
X178119489Y-135463729D01*
X177546000Y-135349655D01*
X176972511Y-135463729D01*
X176486330Y-135788585D01*
X176276000Y-136103365D01*
X176065670Y-135788585D01*
X175579489Y-135463729D01*
X175361820Y-135420431D01*
X175361820Y-124254500D01*
X175168882Y-123787552D01*
X174811937Y-123429984D01*
X174561687Y-123326071D01*
X174561687Y-119166216D01*
X174397689Y-118769311D01*
X174094286Y-118465378D01*
X173926687Y-118395784D01*
X173926687Y-111927216D01*
X173762689Y-111530311D01*
X173548254Y-111315502D01*
X173634622Y-111229286D01*
X173799313Y-110832668D01*
X173799687Y-110403216D01*
X173635689Y-110006311D01*
X173332286Y-109702378D01*
X172935668Y-109537687D01*
X172506216Y-109537313D01*
X172109311Y-109701311D01*
X171805378Y-110004714D01*
X171640687Y-110401332D01*
X171640313Y-110830784D01*
X171804311Y-111227689D01*
X172018745Y-111442497D01*
X171932378Y-111528714D01*
X171767687Y-111925332D01*
X171767313Y-112354784D01*
X171931311Y-112751689D01*
X172234714Y-113055622D01*
X172631332Y-113220313D01*
X173060784Y-113220687D01*
X173457689Y-113056689D01*
X173761622Y-112753286D01*
X173926313Y-112356668D01*
X173926687Y-111927216D01*
X173926687Y-118395784D01*
X173697668Y-118300687D01*
X173268216Y-118300313D01*
X172871311Y-118464311D01*
X172567378Y-118767714D01*
X172402687Y-119164332D01*
X172402313Y-119593784D01*
X172566311Y-119990689D01*
X172869714Y-120294622D01*
X173266332Y-120459313D01*
X173695784Y-120459687D01*
X174092689Y-120295689D01*
X174396622Y-119992286D01*
X174561313Y-119595668D01*
X174561687Y-119166216D01*
X174561687Y-123326071D01*
X174345327Y-123236231D01*
X173840090Y-123235790D01*
X173373142Y-123428728D01*
X173015574Y-123785673D01*
X172821821Y-124252283D01*
X172821380Y-124757520D01*
X173014318Y-125224468D01*
X173371263Y-125582036D01*
X173837873Y-125775789D01*
X174343110Y-125776230D01*
X174810058Y-125583292D01*
X175167626Y-125226347D01*
X175361379Y-124759737D01*
X175361820Y-124254500D01*
X175361820Y-135420431D01*
X175323687Y-135412846D01*
X175323687Y-130596216D01*
X175159689Y-130199311D01*
X174856286Y-129895378D01*
X174459668Y-129730687D01*
X174030216Y-129730313D01*
X173633311Y-129894311D01*
X173329378Y-130197714D01*
X173164687Y-130594332D01*
X173164313Y-131023784D01*
X173328311Y-131420689D01*
X173631714Y-131724622D01*
X174028332Y-131889313D01*
X174457784Y-131889687D01*
X174854689Y-131725689D01*
X175158622Y-131422286D01*
X175323313Y-131025668D01*
X175323687Y-130596216D01*
X175323687Y-135412846D01*
X175006000Y-135349655D01*
X174432511Y-135463729D01*
X173946330Y-135788585D01*
X173736000Y-136103365D01*
X173525670Y-135788585D01*
X173039489Y-135463729D01*
X172656687Y-135387584D01*
X172656687Y-125516216D01*
X172492689Y-125119311D01*
X172275687Y-124901929D01*
X172275687Y-117261216D01*
X172111689Y-116864311D01*
X171808286Y-116560378D01*
X171411668Y-116395687D01*
X171386687Y-116395665D01*
X171386687Y-105450216D01*
X171222689Y-105053311D01*
X170919286Y-104749378D01*
X170637420Y-104632336D01*
X170637420Y-102618490D01*
X170444482Y-102151542D01*
X170087537Y-101793974D01*
X169620927Y-101600221D01*
X169115690Y-101599780D01*
X169007620Y-101644433D01*
X168709486Y-101345778D01*
X168312868Y-101181087D01*
X167883416Y-101180713D01*
X167486511Y-101344711D01*
X167182578Y-101648114D01*
X167017887Y-102044732D01*
X167017513Y-102474184D01*
X167181511Y-102871089D01*
X167484914Y-103175022D01*
X167881532Y-103339713D01*
X168187249Y-103339979D01*
X168289918Y-103588458D01*
X168646863Y-103946026D01*
X169113473Y-104139779D01*
X169618710Y-104140220D01*
X170085658Y-103947282D01*
X170443226Y-103590337D01*
X170636979Y-103123727D01*
X170637420Y-102618490D01*
X170637420Y-104632336D01*
X170522668Y-104584687D01*
X170093216Y-104584313D01*
X169696311Y-104748311D01*
X169392378Y-105051714D01*
X169388655Y-105060679D01*
X169141286Y-104812878D01*
X168744668Y-104648187D01*
X168315216Y-104647813D01*
X167918311Y-104811811D01*
X167614378Y-105115214D01*
X167449687Y-105511832D01*
X167449313Y-105941284D01*
X167613311Y-106338189D01*
X167916714Y-106642122D01*
X168313332Y-106806813D01*
X168742784Y-106807187D01*
X169139689Y-106643189D01*
X169443622Y-106339786D01*
X169447344Y-106330820D01*
X169694714Y-106578622D01*
X170091332Y-106743313D01*
X170520784Y-106743687D01*
X170917689Y-106579689D01*
X171221622Y-106276286D01*
X171386313Y-105879668D01*
X171386687Y-105450216D01*
X171386687Y-116395665D01*
X170982216Y-116395313D01*
X170585311Y-116559311D01*
X170497687Y-116646782D01*
X170497687Y-107863216D01*
X170333689Y-107466311D01*
X170030286Y-107162378D01*
X169633668Y-106997687D01*
X169204216Y-106997313D01*
X168807311Y-107161311D01*
X168503378Y-107464714D01*
X168338687Y-107861332D01*
X168338313Y-108290784D01*
X168502311Y-108687689D01*
X168805714Y-108991622D01*
X169202332Y-109156313D01*
X169631784Y-109156687D01*
X170028689Y-108992689D01*
X170332622Y-108689286D01*
X170497313Y-108292668D01*
X170497687Y-107863216D01*
X170497687Y-116646782D01*
X170281378Y-116862714D01*
X170116687Y-117259332D01*
X170116313Y-117688784D01*
X170280311Y-118085689D01*
X170583714Y-118389622D01*
X170980332Y-118554313D01*
X171409784Y-118554687D01*
X171806689Y-118390689D01*
X172110622Y-118087286D01*
X172275313Y-117690668D01*
X172275687Y-117261216D01*
X172275687Y-124901929D01*
X172189286Y-124815378D01*
X171792668Y-124650687D01*
X171363216Y-124650313D01*
X170966311Y-124814311D01*
X170662378Y-125117714D01*
X170497687Y-125514332D01*
X170497313Y-125943784D01*
X170661311Y-126340689D01*
X170964714Y-126644622D01*
X171361332Y-126809313D01*
X171790784Y-126809687D01*
X172187689Y-126645689D01*
X172491622Y-126342286D01*
X172656313Y-125945668D01*
X172656687Y-125516216D01*
X172656687Y-135387584D01*
X172466000Y-135349655D01*
X171892511Y-135463729D01*
X171406330Y-135788585D01*
X171395784Y-135804367D01*
X171390063Y-135774877D01*
X171250273Y-135562073D01*
X171039240Y-135419623D01*
X170789600Y-135369560D01*
X169062400Y-135369560D01*
X168820277Y-135416537D01*
X168607473Y-135556327D01*
X168592687Y-135578231D01*
X168592687Y-112181216D01*
X168428689Y-111784311D01*
X168125286Y-111480378D01*
X167728668Y-111315687D01*
X167322687Y-111315333D01*
X167322687Y-107990216D01*
X167158689Y-107593311D01*
X166855286Y-107289378D01*
X166624220Y-107193430D01*
X166624220Y-104015490D01*
X166433687Y-103554362D01*
X166433687Y-89956216D01*
X166269689Y-89559311D01*
X165966286Y-89255378D01*
X165569668Y-89090687D01*
X165140216Y-89090313D01*
X164743311Y-89254311D01*
X164439378Y-89557714D01*
X164274687Y-89954332D01*
X164274313Y-90383784D01*
X164438311Y-90780689D01*
X164741714Y-91084622D01*
X165138332Y-91249313D01*
X165567784Y-91249687D01*
X165964689Y-91085689D01*
X166268622Y-90782286D01*
X166433313Y-90385668D01*
X166433687Y-89956216D01*
X166433687Y-103554362D01*
X166431282Y-103548542D01*
X166074337Y-103190974D01*
X165607727Y-102997221D01*
X165102490Y-102996780D01*
X164635542Y-103189718D01*
X164277974Y-103546663D01*
X164084221Y-104013273D01*
X164083780Y-104518510D01*
X164176243Y-104742290D01*
X163854311Y-104875311D01*
X163639687Y-105089560D01*
X163639687Y-90210216D01*
X163475689Y-89813311D01*
X163172286Y-89509378D01*
X162775668Y-89344687D01*
X162346216Y-89344313D01*
X161949311Y-89508311D01*
X161645378Y-89811714D01*
X161480687Y-90208332D01*
X161480313Y-90637784D01*
X161644311Y-91034689D01*
X161947714Y-91338622D01*
X162344332Y-91503313D01*
X162773784Y-91503687D01*
X163170689Y-91339689D01*
X163474622Y-91036286D01*
X163639313Y-90639668D01*
X163639687Y-90210216D01*
X163639687Y-105089560D01*
X163588537Y-105140621D01*
X163588887Y-104739016D01*
X163424889Y-104342111D01*
X163121486Y-104038178D01*
X162724868Y-103873487D01*
X162369687Y-103873177D01*
X162369687Y-93385216D01*
X162205689Y-92988311D01*
X161902286Y-92684378D01*
X161505668Y-92519687D01*
X161076216Y-92519313D01*
X160679311Y-92683311D01*
X160375378Y-92986714D01*
X160210687Y-93383332D01*
X160210313Y-93812784D01*
X160374311Y-94209689D01*
X160677714Y-94513622D01*
X161074332Y-94678313D01*
X161503784Y-94678687D01*
X161900689Y-94514689D01*
X162204622Y-94211286D01*
X162369313Y-93814668D01*
X162369687Y-93385216D01*
X162369687Y-103873177D01*
X162295416Y-103873113D01*
X161898511Y-104037111D01*
X161594578Y-104340514D01*
X161429887Y-104737132D01*
X161429513Y-105166584D01*
X161593511Y-105563489D01*
X161896914Y-105867422D01*
X162293532Y-106032113D01*
X162722984Y-106032487D01*
X163119889Y-105868489D01*
X163385662Y-105603178D01*
X163385313Y-106004784D01*
X163549311Y-106401689D01*
X163852714Y-106705622D01*
X164249332Y-106870313D01*
X164678784Y-106870687D01*
X165075689Y-106706689D01*
X165379622Y-106403286D01*
X165544313Y-106006668D01*
X165544687Y-105577216D01*
X165528133Y-105537152D01*
X165605510Y-105537220D01*
X166072458Y-105344282D01*
X166430026Y-104987337D01*
X166623779Y-104520727D01*
X166624220Y-104015490D01*
X166624220Y-107193430D01*
X166458668Y-107124687D01*
X166029216Y-107124313D01*
X165632311Y-107288311D01*
X165328378Y-107591714D01*
X165163687Y-107988332D01*
X165163313Y-108417784D01*
X165327311Y-108814689D01*
X165630714Y-109118622D01*
X166027332Y-109283313D01*
X166456784Y-109283687D01*
X166853689Y-109119689D01*
X167157622Y-108816286D01*
X167322313Y-108419668D01*
X167322687Y-107990216D01*
X167322687Y-111315333D01*
X167299216Y-111315313D01*
X167174113Y-111367004D01*
X167031689Y-111022311D01*
X166728286Y-110718378D01*
X166331668Y-110553687D01*
X165902216Y-110553313D01*
X165505311Y-110717311D01*
X165201378Y-111020714D01*
X165036687Y-111417332D01*
X165036315Y-111844365D01*
X164680668Y-111696687D01*
X164251216Y-111696313D01*
X163854311Y-111860311D01*
X163550378Y-112163714D01*
X163385687Y-112560332D01*
X163385313Y-112989784D01*
X163549311Y-113386689D01*
X163827355Y-113665219D01*
X163550378Y-113941714D01*
X163427979Y-114236480D01*
X163235216Y-114236313D01*
X162838311Y-114400311D01*
X162534378Y-114703714D01*
X162514210Y-114752283D01*
X162514210Y-110111490D01*
X162321272Y-109644542D01*
X161964327Y-109286974D01*
X161801191Y-109219234D01*
X162077622Y-108943286D01*
X162242313Y-108546668D01*
X162242687Y-108117216D01*
X162078689Y-107720311D01*
X161775286Y-107416378D01*
X161378668Y-107251687D01*
X160949216Y-107251313D01*
X160552311Y-107415311D01*
X160248378Y-107718714D01*
X160083687Y-108115332D01*
X160083313Y-108544784D01*
X160247311Y-108941689D01*
X160550714Y-109245622D01*
X160586554Y-109260504D01*
X160525532Y-109285718D01*
X160167964Y-109642663D01*
X159974211Y-110109273D01*
X159973770Y-110614510D01*
X160166708Y-111081458D01*
X160523653Y-111439026D01*
X160990263Y-111632779D01*
X161495500Y-111633220D01*
X161962448Y-111440282D01*
X162320016Y-111083337D01*
X162513769Y-110616727D01*
X162514210Y-110111490D01*
X162514210Y-114752283D01*
X162369687Y-115100332D01*
X162369313Y-115529784D01*
X162533311Y-115926689D01*
X162836714Y-116230622D01*
X163233332Y-116395313D01*
X163662784Y-116395687D01*
X164059689Y-116231689D01*
X164363622Y-115928286D01*
X164401389Y-115837332D01*
X164438311Y-115926689D01*
X164741714Y-116230622D01*
X165138332Y-116395313D01*
X165567784Y-116395687D01*
X165964689Y-116231689D01*
X166268622Y-115928286D01*
X166433313Y-115531668D01*
X166433687Y-115102216D01*
X166269689Y-114705311D01*
X165966286Y-114401378D01*
X165569668Y-114236687D01*
X165501885Y-114236627D01*
X165380689Y-113943311D01*
X165102644Y-113664780D01*
X165379622Y-113388286D01*
X165544313Y-112991668D01*
X165544684Y-112564634D01*
X165900332Y-112712313D01*
X166329784Y-112712687D01*
X166454886Y-112660995D01*
X166597311Y-113005689D01*
X166900714Y-113309622D01*
X167297332Y-113474313D01*
X167726784Y-113474687D01*
X168123689Y-113310689D01*
X168427622Y-113007286D01*
X168592313Y-112610668D01*
X168592687Y-112181216D01*
X168592687Y-135578231D01*
X168588798Y-135583993D01*
X168588798Y-123488105D01*
X168424800Y-123091200D01*
X168121397Y-122787267D01*
X167724779Y-122622576D01*
X167295327Y-122622202D01*
X167195687Y-122663372D01*
X167195687Y-119674216D01*
X167031689Y-119277311D01*
X166728286Y-118973378D01*
X166331668Y-118808687D01*
X165902216Y-118808313D01*
X165505311Y-118972311D01*
X165201378Y-119275714D01*
X165036687Y-119672332D01*
X165036313Y-120101784D01*
X165200311Y-120498689D01*
X165503714Y-120802622D01*
X165900332Y-120967313D01*
X166329784Y-120967687D01*
X166726689Y-120803689D01*
X167030622Y-120500286D01*
X167195313Y-120103668D01*
X167195687Y-119674216D01*
X167195687Y-122663372D01*
X166898422Y-122786200D01*
X166594489Y-123089603D01*
X166432162Y-123480526D01*
X166269689Y-123087311D01*
X165966286Y-122783378D01*
X165569668Y-122618687D01*
X165140216Y-122618313D01*
X164743311Y-122782311D01*
X164655687Y-122869782D01*
X164655687Y-120563216D01*
X164491689Y-120166311D01*
X164188286Y-119862378D01*
X163791668Y-119697687D01*
X163362216Y-119697313D01*
X162965311Y-119861311D01*
X162877687Y-119948782D01*
X162877687Y-118785216D01*
X162713689Y-118388311D01*
X162410286Y-118084378D01*
X162013668Y-117919687D01*
X161584216Y-117919313D01*
X161353687Y-118014565D01*
X161353687Y-116499216D01*
X161189689Y-116102311D01*
X160886286Y-115798378D01*
X160489668Y-115633687D01*
X160060216Y-115633313D01*
X159663311Y-115797311D01*
X159359378Y-116100714D01*
X159194687Y-116497332D01*
X159194313Y-116926784D01*
X159358311Y-117323689D01*
X159661714Y-117627622D01*
X160058332Y-117792313D01*
X160487784Y-117792687D01*
X160884689Y-117628689D01*
X161188622Y-117325286D01*
X161353313Y-116928668D01*
X161353687Y-116499216D01*
X161353687Y-118014565D01*
X161187311Y-118083311D01*
X160883378Y-118386714D01*
X160718687Y-118783332D01*
X160718313Y-119212784D01*
X160882311Y-119609689D01*
X161185714Y-119913622D01*
X161582332Y-120078313D01*
X162011784Y-120078687D01*
X162408689Y-119914689D01*
X162712622Y-119611286D01*
X162877313Y-119214668D01*
X162877687Y-118785216D01*
X162877687Y-119948782D01*
X162661378Y-120164714D01*
X162496687Y-120561332D01*
X162496313Y-120990784D01*
X162660311Y-121387689D01*
X162963714Y-121691622D01*
X163360332Y-121856313D01*
X163789784Y-121856687D01*
X164186689Y-121692689D01*
X164490622Y-121389286D01*
X164655313Y-120992668D01*
X164655687Y-120563216D01*
X164655687Y-122869782D01*
X164439378Y-123085714D01*
X164274687Y-123482332D01*
X164274313Y-123911784D01*
X164438311Y-124308689D01*
X164741714Y-124612622D01*
X164922626Y-124687743D01*
X164616311Y-124814311D01*
X164312378Y-125117714D01*
X164147687Y-125514332D01*
X164147313Y-125943784D01*
X164311311Y-126340689D01*
X164614714Y-126644622D01*
X165011332Y-126809313D01*
X165440784Y-126809687D01*
X165837689Y-126645689D01*
X166141622Y-126342286D01*
X166306313Y-125945668D01*
X166306687Y-125516216D01*
X166142689Y-125119311D01*
X165839286Y-124815378D01*
X165658373Y-124740256D01*
X165964689Y-124613689D01*
X166268622Y-124310286D01*
X166430948Y-123919362D01*
X166593422Y-124312578D01*
X166896825Y-124616511D01*
X167293443Y-124781202D01*
X167722895Y-124781576D01*
X168119800Y-124617578D01*
X168423733Y-124314175D01*
X168588424Y-123917557D01*
X168588798Y-123488105D01*
X168588798Y-135583993D01*
X168465023Y-135767360D01*
X168414960Y-136017000D01*
X168414960Y-138049000D01*
X168461937Y-138291123D01*
X168601727Y-138503927D01*
X168812760Y-138646377D01*
X169062400Y-138696440D01*
X170789600Y-138696440D01*
X171031723Y-138649463D01*
X171244527Y-138509673D01*
X171386977Y-138298640D01*
X171394718Y-138260037D01*
X171406330Y-138277415D01*
X171892511Y-138602271D01*
X172466000Y-138716345D01*
X173039489Y-138602271D01*
X173525670Y-138277415D01*
X173736000Y-137962634D01*
X173946330Y-138277415D01*
X174432511Y-138602271D01*
X175006000Y-138716345D01*
X175579489Y-138602271D01*
X176065670Y-138277415D01*
X176276000Y-137962634D01*
X176486330Y-138277415D01*
X176972511Y-138602271D01*
X177546000Y-138716345D01*
X178119489Y-138602271D01*
X178605670Y-138277415D01*
X178816000Y-137962634D01*
X179026330Y-138277415D01*
X179512511Y-138602271D01*
X180086000Y-138716345D01*
X180659489Y-138602271D01*
X181145670Y-138277415D01*
X181356000Y-137962634D01*
X181566330Y-138277415D01*
X182052511Y-138602271D01*
X182626000Y-138716345D01*
X183199489Y-138602271D01*
X183685670Y-138277415D01*
X183896000Y-137962634D01*
X184106330Y-138277415D01*
X184592511Y-138602271D01*
X185166000Y-138716345D01*
X185739489Y-138602271D01*
X186225670Y-138277415D01*
X186436000Y-137962634D01*
X186646330Y-138277415D01*
X187132511Y-138602271D01*
X187706000Y-138716345D01*
X188279489Y-138602271D01*
X188765670Y-138277415D01*
X188972460Y-137967930D01*
X189343964Y-138383732D01*
X189871209Y-138637709D01*
X189886974Y-138640358D01*
X190119000Y-138519217D01*
X190119000Y-139015000D01*
X168338687Y-139015000D01*
X168338687Y-126913216D01*
X168174689Y-126516311D01*
X167871286Y-126212378D01*
X167474668Y-126047687D01*
X167045216Y-126047313D01*
X166648311Y-126211311D01*
X166344378Y-126514714D01*
X166179687Y-126911332D01*
X166179313Y-127340784D01*
X166343311Y-127737689D01*
X166646714Y-128041622D01*
X167043332Y-128206313D01*
X167472784Y-128206687D01*
X167869689Y-128042689D01*
X168173622Y-127739286D01*
X168338313Y-127342668D01*
X168338687Y-126913216D01*
X168338687Y-139015000D01*
X168046620Y-139015000D01*
X168046620Y-129440890D01*
X167853682Y-128973942D01*
X167496737Y-128616374D01*
X167030127Y-128422621D01*
X166524890Y-128422180D01*
X166057942Y-128615118D01*
X165700374Y-128972063D01*
X165506621Y-129438673D01*
X165506259Y-129852468D01*
X165251311Y-129957811D01*
X164947378Y-130261214D01*
X164782687Y-130657832D01*
X164782313Y-131087284D01*
X164946311Y-131484189D01*
X165249714Y-131788122D01*
X165646332Y-131952813D01*
X166075784Y-131953187D01*
X166472689Y-131789189D01*
X166776622Y-131485786D01*
X166941313Y-131089168D01*
X166941423Y-130962544D01*
X167027910Y-130962620D01*
X167494858Y-130769682D01*
X167852426Y-130412737D01*
X168046179Y-129946127D01*
X168046620Y-129440890D01*
X168046620Y-139015000D01*
X167894187Y-139015000D01*
X167894187Y-134660216D01*
X167730189Y-134263311D01*
X167426786Y-133959378D01*
X167030168Y-133794687D01*
X166600716Y-133794313D01*
X166203811Y-133958311D01*
X165899878Y-134261714D01*
X165735187Y-134658332D01*
X165734813Y-135087784D01*
X165898811Y-135484689D01*
X166202214Y-135788622D01*
X166598832Y-135953313D01*
X167028284Y-135953687D01*
X167425189Y-135789689D01*
X167729122Y-135486286D01*
X167893813Y-135089668D01*
X167894187Y-134660216D01*
X167894187Y-139015000D01*
X166258422Y-139015000D01*
X166306313Y-138899668D01*
X166306687Y-138470216D01*
X166142689Y-138073311D01*
X165839286Y-137769378D01*
X165442668Y-137604687D01*
X165013216Y-137604313D01*
X164719572Y-137725644D01*
X164820600Y-137217745D01*
X164820600Y-136848255D01*
X164706526Y-136274766D01*
X164381670Y-135788585D01*
X164020687Y-135547383D01*
X164020687Y-125516216D01*
X163856689Y-125119311D01*
X163553286Y-124815378D01*
X163156668Y-124650687D01*
X162727216Y-124650313D01*
X162330311Y-124814311D01*
X162026378Y-125117714D01*
X161861687Y-125514332D01*
X161861313Y-125943784D01*
X162025311Y-126340689D01*
X162328714Y-126644622D01*
X162725332Y-126809313D01*
X163154784Y-126809687D01*
X163551689Y-126645689D01*
X163855622Y-126342286D01*
X164020313Y-125945668D01*
X164020687Y-125516216D01*
X164020687Y-135547383D01*
X163895489Y-135463729D01*
X163322000Y-135349655D01*
X162748511Y-135463729D01*
X162262330Y-135788585D01*
X162052000Y-136103365D01*
X161841670Y-135788585D01*
X161355489Y-135463729D01*
X160782000Y-135349655D01*
X160591687Y-135387510D01*
X160591687Y-119801216D01*
X160427689Y-119404311D01*
X160124286Y-119100378D01*
X159727668Y-118935687D01*
X159298216Y-118935313D01*
X158901311Y-119099311D01*
X158597378Y-119402714D01*
X158432687Y-119799332D01*
X158432313Y-120228784D01*
X158596311Y-120625689D01*
X158899714Y-120929622D01*
X159296332Y-121094313D01*
X159725784Y-121094687D01*
X160122689Y-120930689D01*
X160426622Y-120627286D01*
X160591313Y-120230668D01*
X160591687Y-119801216D01*
X160591687Y-135387510D01*
X160208511Y-135463729D01*
X159722330Y-135788585D01*
X159714918Y-135799677D01*
X159714918Y-127662985D01*
X159550920Y-127266080D01*
X159247517Y-126962147D01*
X158850899Y-126797456D01*
X158421447Y-126797082D01*
X158305687Y-126844913D01*
X158305687Y-123992216D01*
X158153287Y-123623380D01*
X158153287Y-104586616D01*
X157989289Y-104189711D01*
X157685886Y-103885778D01*
X157429420Y-103779283D01*
X157429420Y-88445290D01*
X157236482Y-87978342D01*
X156879537Y-87620774D01*
X156412927Y-87427021D01*
X155907690Y-87426580D01*
X155440742Y-87619518D01*
X155083174Y-87976463D01*
X154889421Y-88443073D01*
X154888980Y-88948310D01*
X155081918Y-89415258D01*
X155438863Y-89772826D01*
X155905473Y-89966579D01*
X156410710Y-89967020D01*
X156877658Y-89774082D01*
X157235226Y-89417137D01*
X157428979Y-88950527D01*
X157429420Y-88445290D01*
X157429420Y-103779283D01*
X157416687Y-103773996D01*
X157416687Y-93131216D01*
X157252689Y-92734311D01*
X156949286Y-92430378D01*
X156552668Y-92265687D01*
X156527687Y-92265665D01*
X156527687Y-91099216D01*
X156363689Y-90702311D01*
X156060286Y-90398378D01*
X155663668Y-90233687D01*
X155234216Y-90233313D01*
X154837311Y-90397311D01*
X154533378Y-90700714D01*
X154368687Y-91097332D01*
X154368313Y-91526784D01*
X154532311Y-91923689D01*
X154835714Y-92227622D01*
X155232332Y-92392313D01*
X155661784Y-92392687D01*
X156058689Y-92228689D01*
X156362622Y-91925286D01*
X156527313Y-91528668D01*
X156527687Y-91099216D01*
X156527687Y-92265665D01*
X156123216Y-92265313D01*
X155726311Y-92429311D01*
X155422378Y-92732714D01*
X155257687Y-93129332D01*
X155257313Y-93558784D01*
X155421311Y-93955689D01*
X155724714Y-94259622D01*
X156121332Y-94424313D01*
X156550784Y-94424687D01*
X156947689Y-94260689D01*
X157251622Y-93957286D01*
X157416313Y-93560668D01*
X157416687Y-93131216D01*
X157416687Y-103773996D01*
X157289268Y-103721087D01*
X156859816Y-103720713D01*
X156462911Y-103884711D01*
X156158978Y-104188114D01*
X155994287Y-104584732D01*
X155993913Y-105014184D01*
X156157911Y-105411089D01*
X156461314Y-105715022D01*
X156857932Y-105879713D01*
X157287384Y-105880087D01*
X157684289Y-105716089D01*
X157988222Y-105412686D01*
X158152913Y-105016068D01*
X158153287Y-104586616D01*
X158153287Y-123623380D01*
X158141689Y-123595311D01*
X157838286Y-123291378D01*
X157441668Y-123126687D01*
X157012216Y-123126313D01*
X156616620Y-123289770D01*
X156616620Y-121414490D01*
X156423682Y-120947542D01*
X156066737Y-120589974D01*
X155765687Y-120464967D01*
X155765687Y-110022216D01*
X155601689Y-109625311D01*
X155298286Y-109321378D01*
X154901668Y-109156687D01*
X154472216Y-109156313D01*
X154075311Y-109320311D01*
X153771378Y-109623714D01*
X153606687Y-110020332D01*
X153606313Y-110449784D01*
X153770311Y-110846689D01*
X154073714Y-111150622D01*
X154470332Y-111315313D01*
X154899784Y-111315687D01*
X155296689Y-111151689D01*
X155600622Y-110848286D01*
X155765313Y-110451668D01*
X155765687Y-110022216D01*
X155765687Y-120464967D01*
X155600127Y-120396221D01*
X155094890Y-120395780D01*
X154627942Y-120588718D01*
X154270374Y-120945663D01*
X154076621Y-121412273D01*
X154076180Y-121917510D01*
X154269118Y-122384458D01*
X154626063Y-122742026D01*
X155092673Y-122935779D01*
X155597910Y-122936220D01*
X156064858Y-122743282D01*
X156422426Y-122386337D01*
X156616179Y-121919727D01*
X156616620Y-121414490D01*
X156616620Y-123289770D01*
X156615311Y-123290311D01*
X156311378Y-123593714D01*
X156146687Y-123990332D01*
X156146313Y-124419784D01*
X156310311Y-124816689D01*
X156613714Y-125120622D01*
X157010332Y-125285313D01*
X157439784Y-125285687D01*
X157836689Y-125121689D01*
X158140622Y-124818286D01*
X158305313Y-124421668D01*
X158305687Y-123992216D01*
X158305687Y-126844913D01*
X158024542Y-126961080D01*
X157720609Y-127264483D01*
X157555918Y-127661101D01*
X157555544Y-128090553D01*
X157719542Y-128487458D01*
X158022945Y-128791391D01*
X158419563Y-128956082D01*
X158849015Y-128956456D01*
X159245920Y-128792458D01*
X159549853Y-128489055D01*
X159714544Y-128092437D01*
X159714918Y-127662985D01*
X159714918Y-135799677D01*
X159512000Y-136103365D01*
X159301670Y-135788585D01*
X158815489Y-135463729D01*
X158242000Y-135349655D01*
X157988220Y-135400134D01*
X157988220Y-129415490D01*
X157795282Y-128948542D01*
X157438337Y-128590974D01*
X156971727Y-128397221D01*
X156466490Y-128396780D01*
X155999542Y-128589718D01*
X155641974Y-128946663D01*
X155448221Y-129413273D01*
X155447780Y-129918510D01*
X155640718Y-130385458D01*
X155997663Y-130743026D01*
X156464273Y-130936779D01*
X156969510Y-130937220D01*
X157436458Y-130744282D01*
X157794026Y-130387337D01*
X157987779Y-129920727D01*
X157988220Y-129415490D01*
X157988220Y-135400134D01*
X157835517Y-135430509D01*
X157924313Y-135216668D01*
X157924687Y-134787216D01*
X157760689Y-134390311D01*
X157457286Y-134086378D01*
X157060668Y-133921687D01*
X156631216Y-133921313D01*
X156234311Y-134085311D01*
X155930378Y-134388714D01*
X155765687Y-134785332D01*
X155765313Y-135214784D01*
X155831700Y-135375454D01*
X155702000Y-135349655D01*
X155128511Y-135463729D01*
X154642330Y-135788585D01*
X154435539Y-136098069D01*
X154064036Y-135682268D01*
X153536791Y-135428291D01*
X153521026Y-135425642D01*
X153289000Y-135546783D01*
X153289000Y-136906000D01*
X153309000Y-136906000D01*
X153309000Y-137160000D01*
X153289000Y-137160000D01*
X153289000Y-138519217D01*
X153521026Y-138640358D01*
X153536791Y-138637709D01*
X154064036Y-138383732D01*
X154435539Y-137967930D01*
X154642330Y-138277415D01*
X155128511Y-138602271D01*
X155702000Y-138716345D01*
X156275489Y-138602271D01*
X156761670Y-138277415D01*
X156972000Y-137962634D01*
X157182330Y-138277415D01*
X157668511Y-138602271D01*
X158242000Y-138716345D01*
X158815489Y-138602271D01*
X159301670Y-138277415D01*
X159512000Y-137962634D01*
X159722330Y-138277415D01*
X160208511Y-138602271D01*
X160782000Y-138716345D01*
X161355489Y-138602271D01*
X161841670Y-138277415D01*
X162052000Y-137962634D01*
X162262330Y-138277415D01*
X162748511Y-138602271D01*
X163322000Y-138716345D01*
X163895489Y-138602271D01*
X164167556Y-138420481D01*
X164147687Y-138468332D01*
X164147313Y-138897784D01*
X164195745Y-139015000D01*
X153225687Y-139015000D01*
X153225687Y-107482216D01*
X153061689Y-107085311D01*
X152758286Y-106781378D01*
X152361668Y-106616687D01*
X151932216Y-106616313D01*
X151535311Y-106780311D01*
X151231378Y-107083714D01*
X151066687Y-107480332D01*
X151066313Y-107909784D01*
X151230311Y-108306689D01*
X151533714Y-108610622D01*
X151930332Y-108775313D01*
X152359784Y-108775687D01*
X152756689Y-108611689D01*
X153060622Y-108308286D01*
X153225313Y-107911668D01*
X153225687Y-107482216D01*
X153225687Y-139015000D01*
X153035000Y-139015000D01*
X153035000Y-138519217D01*
X153035000Y-137160000D01*
X153035000Y-136906000D01*
X153035000Y-135546783D01*
X152802974Y-135425642D01*
X152787209Y-135428291D01*
X152259964Y-135682268D01*
X152105758Y-135854860D01*
X152023927Y-135657301D01*
X151845298Y-135478673D01*
X151701687Y-135419187D01*
X151701687Y-111038216D01*
X151537689Y-110641311D01*
X151234286Y-110337378D01*
X150837668Y-110172687D01*
X150408216Y-110172313D01*
X150246533Y-110239118D01*
X150050687Y-110042929D01*
X150050687Y-108117216D01*
X149987220Y-107963614D01*
X149987220Y-96522490D01*
X149794282Y-96055542D01*
X149437337Y-95697974D01*
X148970727Y-95504221D01*
X148465490Y-95503780D01*
X147998542Y-95696718D01*
X147640974Y-96053663D01*
X147447221Y-96520273D01*
X147446780Y-97025510D01*
X147639718Y-97492458D01*
X147996663Y-97850026D01*
X148463273Y-98043779D01*
X148968510Y-98044220D01*
X149435458Y-97851282D01*
X149793026Y-97494337D01*
X149986779Y-97027727D01*
X149987220Y-96522490D01*
X149987220Y-107963614D01*
X149886689Y-107720311D01*
X149583286Y-107416378D01*
X149186668Y-107251687D01*
X148907687Y-107251444D01*
X148907687Y-101386216D01*
X148743689Y-100989311D01*
X148440286Y-100685378D01*
X148043668Y-100520687D01*
X147614216Y-100520313D01*
X147217311Y-100684311D01*
X146913378Y-100987714D01*
X146748687Y-101384332D01*
X146748313Y-101813784D01*
X146912311Y-102210689D01*
X147215714Y-102514622D01*
X147612332Y-102679313D01*
X148041784Y-102679687D01*
X148438689Y-102515689D01*
X148742622Y-102212286D01*
X148907313Y-101815668D01*
X148907687Y-101386216D01*
X148907687Y-107251444D01*
X148757216Y-107251313D01*
X148360311Y-107415311D01*
X148056378Y-107718714D01*
X147891687Y-108115332D01*
X147891313Y-108544784D01*
X148055311Y-108941689D01*
X148358714Y-109245622D01*
X148755332Y-109410313D01*
X149184784Y-109410687D01*
X149581689Y-109246689D01*
X149885622Y-108943286D01*
X150050313Y-108546668D01*
X150050687Y-108117216D01*
X150050687Y-110042929D01*
X149964286Y-109956378D01*
X149567668Y-109791687D01*
X149138216Y-109791313D01*
X148741311Y-109955311D01*
X148437378Y-110258714D01*
X148272687Y-110655332D01*
X148272313Y-111084784D01*
X148436311Y-111481689D01*
X148739714Y-111785622D01*
X149136332Y-111950313D01*
X149565784Y-111950687D01*
X149727466Y-111883881D01*
X150009714Y-112166622D01*
X150406332Y-112331313D01*
X150835784Y-112331687D01*
X151232689Y-112167689D01*
X151536622Y-111864286D01*
X151701313Y-111467668D01*
X151701687Y-111038216D01*
X151701687Y-135419187D01*
X151611909Y-135382000D01*
X151320687Y-135382000D01*
X151320687Y-113324216D01*
X151156689Y-112927311D01*
X150853286Y-112623378D01*
X150456668Y-112458687D01*
X150027216Y-112458313D01*
X149630311Y-112622311D01*
X149326378Y-112925714D01*
X149161687Y-113322332D01*
X149161313Y-113751784D01*
X149325311Y-114148689D01*
X149570706Y-114394512D01*
X149249311Y-114527311D01*
X148945378Y-114830714D01*
X148780687Y-115227332D01*
X148780313Y-115656784D01*
X148944311Y-116053689D01*
X149247714Y-116357622D01*
X149644332Y-116522313D01*
X150073784Y-116522687D01*
X150470689Y-116358689D01*
X150774622Y-116055286D01*
X150939313Y-115658668D01*
X150939687Y-115229216D01*
X150775689Y-114832311D01*
X150530293Y-114586487D01*
X150851689Y-114453689D01*
X151155622Y-114150286D01*
X151320313Y-113753668D01*
X151320687Y-113324216D01*
X151320687Y-135382000D01*
X150907750Y-135382000D01*
X150749000Y-135540750D01*
X150749000Y-136906000D01*
X151821076Y-136906000D01*
X151961850Y-136906000D01*
X153035000Y-136906000D01*
X153035000Y-137160000D01*
X151961850Y-137160000D01*
X151821076Y-137160000D01*
X150749000Y-137160000D01*
X150749000Y-138525250D01*
X150907750Y-138684000D01*
X151611909Y-138684000D01*
X151845298Y-138587327D01*
X152023927Y-138408699D01*
X152105758Y-138211139D01*
X152259964Y-138383732D01*
X152787209Y-138637709D01*
X152802974Y-138640358D01*
X153035000Y-138519217D01*
X153035000Y-139015000D01*
X150506296Y-139015000D01*
X150506296Y-132249352D01*
X150246513Y-131620628D01*
X149765902Y-131139178D01*
X149137632Y-130878297D01*
X148457352Y-130877704D01*
X147828628Y-131137487D01*
X147347178Y-131618098D01*
X147086297Y-132246368D01*
X147085704Y-132926648D01*
X147345487Y-133555372D01*
X147826098Y-134036822D01*
X148454368Y-134297703D01*
X149134648Y-134298296D01*
X149763372Y-134038513D01*
X150244822Y-133557902D01*
X150505703Y-132929632D01*
X150506296Y-132249352D01*
X150506296Y-139015000D01*
X150495000Y-139015000D01*
X150495000Y-138525250D01*
X150495000Y-137160000D01*
X150495000Y-136906000D01*
X150495000Y-135540750D01*
X150336250Y-135382000D01*
X149632091Y-135382000D01*
X149398702Y-135478673D01*
X149220073Y-135657301D01*
X149123400Y-135890690D01*
X149123400Y-136143309D01*
X149123400Y-136747250D01*
X149282150Y-136906000D01*
X150495000Y-136906000D01*
X150495000Y-137160000D01*
X149282150Y-137160000D01*
X149123400Y-137318750D01*
X149123400Y-137922691D01*
X149123400Y-138175310D01*
X149220073Y-138408699D01*
X149398702Y-138587327D01*
X149632091Y-138684000D01*
X150336250Y-138684000D01*
X150495000Y-138525250D01*
X150495000Y-139015000D01*
X147516471Y-139015000D01*
X147516471Y-137570440D01*
X147493593Y-136890546D01*
X147277423Y-136368664D01*
X147002787Y-136260819D01*
X146823181Y-136440424D01*
X146823181Y-136081213D01*
X146715336Y-135806577D01*
X146078440Y-135567529D01*
X145398546Y-135590407D01*
X145224687Y-135662421D01*
X145224687Y-112181216D01*
X145060689Y-111784311D01*
X144757286Y-111480378D01*
X144360668Y-111315687D01*
X143931216Y-111315313D01*
X143916620Y-111321343D01*
X143916620Y-106123690D01*
X143723682Y-105656742D01*
X143561020Y-105493796D01*
X143561020Y-93779290D01*
X143368082Y-93312342D01*
X143011137Y-92954774D01*
X142544527Y-92761021D01*
X142039290Y-92760580D01*
X141966462Y-92790671D01*
X141966462Y-87853609D01*
X141841731Y-87663000D01*
X140450000Y-87663000D01*
X140450000Y-88771000D01*
X140900000Y-88771000D01*
X141362947Y-88628390D01*
X141736080Y-88319474D01*
X141962592Y-87891281D01*
X141966462Y-87853609D01*
X141966462Y-92790671D01*
X141572342Y-92953518D01*
X141214774Y-93310463D01*
X141072116Y-93654020D01*
X140900000Y-93601000D01*
X140450000Y-93601000D01*
X140450000Y-94709000D01*
X140470000Y-94709000D01*
X140470000Y-94963000D01*
X140450000Y-94963000D01*
X140450000Y-96071000D01*
X140900000Y-96071000D01*
X141362947Y-95928390D01*
X141736080Y-95619474D01*
X141928600Y-95255537D01*
X142037073Y-95300579D01*
X142542310Y-95301020D01*
X143009258Y-95108082D01*
X143366826Y-94751137D01*
X143560579Y-94284527D01*
X143561020Y-93779290D01*
X143561020Y-105493796D01*
X143366737Y-105299174D01*
X142900127Y-105105421D01*
X142394890Y-105104980D01*
X141927942Y-105297918D01*
X141570374Y-105654863D01*
X141376621Y-106121473D01*
X141376180Y-106626710D01*
X141569118Y-107093658D01*
X141926063Y-107451226D01*
X142141375Y-107540631D01*
X142137311Y-107542311D01*
X141833378Y-107845714D01*
X141668687Y-108242332D01*
X141668313Y-108671784D01*
X141832311Y-109068689D01*
X142135714Y-109372622D01*
X142532332Y-109537313D01*
X142961784Y-109537687D01*
X143358689Y-109373689D01*
X143662622Y-109070286D01*
X143827313Y-108673668D01*
X143827687Y-108244216D01*
X143663689Y-107847311D01*
X143360286Y-107543378D01*
X143252845Y-107498764D01*
X143364858Y-107452482D01*
X143722426Y-107095537D01*
X143916179Y-106628927D01*
X143916620Y-106123690D01*
X143916620Y-111321343D01*
X143534311Y-111479311D01*
X143230378Y-111782714D01*
X143065687Y-112179332D01*
X143065313Y-112608784D01*
X143214832Y-112970647D01*
X143112737Y-112868374D01*
X142646127Y-112674621D01*
X142140890Y-112674180D01*
X141673942Y-112867118D01*
X141316374Y-113224063D01*
X141122621Y-113690673D01*
X141122180Y-114195910D01*
X141315118Y-114662858D01*
X141672063Y-115020426D01*
X142138673Y-115214179D01*
X142643910Y-115214620D01*
X143110858Y-115021682D01*
X143468426Y-114664737D01*
X143662179Y-114198127D01*
X143662620Y-113692890D01*
X143484161Y-113260984D01*
X143532714Y-113309622D01*
X143929332Y-113474313D01*
X144358784Y-113474687D01*
X144755689Y-113310689D01*
X145059622Y-113007286D01*
X145224313Y-112610668D01*
X145224687Y-112181216D01*
X145224687Y-135662421D01*
X144876664Y-135806577D01*
X144768819Y-136081213D01*
X145796000Y-137108395D01*
X146823181Y-136081213D01*
X146823181Y-136440424D01*
X145975605Y-137288000D01*
X147002787Y-138315181D01*
X147277423Y-138207336D01*
X147516471Y-137570440D01*
X147516471Y-139015000D01*
X146823181Y-139015000D01*
X146823181Y-138494787D01*
X145796000Y-137467605D01*
X145616395Y-137647210D01*
X145616395Y-137288000D01*
X144589213Y-136260819D01*
X144516471Y-136289383D01*
X144516471Y-132870440D01*
X144493593Y-132190546D01*
X144277423Y-131668664D01*
X144002787Y-131560819D01*
X143823181Y-131740424D01*
X143823181Y-131381213D01*
X143715336Y-131106577D01*
X143078440Y-130867529D01*
X142398546Y-130890407D01*
X141876664Y-131106577D01*
X141795687Y-131312791D01*
X141795687Y-116626216D01*
X141631689Y-116229311D01*
X141328286Y-115925378D01*
X140931668Y-115760687D01*
X140502216Y-115760313D01*
X140271687Y-115855565D01*
X140271687Y-106212216D01*
X140196000Y-106029039D01*
X140196000Y-96071000D01*
X140196000Y-94963000D01*
X140196000Y-94709000D01*
X140196000Y-93601000D01*
X140196000Y-88771000D01*
X140196000Y-87663000D01*
X138804269Y-87663000D01*
X138679538Y-87853609D01*
X138683408Y-87891281D01*
X138909920Y-88319474D01*
X139283053Y-88628390D01*
X139746000Y-88771000D01*
X140196000Y-88771000D01*
X140196000Y-93601000D01*
X139746000Y-93601000D01*
X139421226Y-93701046D01*
X139421226Y-93069052D01*
X139421226Y-89569052D01*
X139388546Y-89138651D01*
X139286712Y-88892803D01*
X139076745Y-88861860D01*
X138897140Y-89041465D01*
X138897140Y-88682255D01*
X138866197Y-88472288D01*
X138456052Y-88337774D01*
X138025651Y-88370454D01*
X137779803Y-88472288D01*
X137748860Y-88682255D01*
X138323000Y-89256395D01*
X138897140Y-88682255D01*
X138897140Y-89041465D01*
X138502605Y-89436000D01*
X139076745Y-90010140D01*
X139286712Y-89979197D01*
X139421226Y-89569052D01*
X139421226Y-93069052D01*
X139388546Y-92638651D01*
X139286712Y-92392803D01*
X139076745Y-92361860D01*
X138897140Y-92541465D01*
X138897140Y-92182255D01*
X138897140Y-90189745D01*
X138323000Y-89615605D01*
X138143395Y-89795210D01*
X138143395Y-89436000D01*
X137569255Y-88861860D01*
X137359288Y-88892803D01*
X137224774Y-89302948D01*
X137257454Y-89733349D01*
X137359288Y-89979197D01*
X137569255Y-90010140D01*
X138143395Y-89436000D01*
X138143395Y-89795210D01*
X137748860Y-90189745D01*
X137779803Y-90399712D01*
X138189948Y-90534226D01*
X138620349Y-90501546D01*
X138866197Y-90399712D01*
X138897140Y-90189745D01*
X138897140Y-92182255D01*
X138866197Y-91972288D01*
X138456052Y-91837774D01*
X138025651Y-91870454D01*
X137779803Y-91972288D01*
X137748860Y-92182255D01*
X138323000Y-92756395D01*
X138897140Y-92182255D01*
X138897140Y-92541465D01*
X138502605Y-92936000D01*
X139076745Y-93510140D01*
X139286712Y-93479197D01*
X139421226Y-93069052D01*
X139421226Y-93701046D01*
X139283053Y-93743610D01*
X138909920Y-94052526D01*
X138897140Y-94076685D01*
X138897140Y-93689745D01*
X138323000Y-93115605D01*
X138143395Y-93295210D01*
X138143395Y-92936000D01*
X137569255Y-92361860D01*
X137359288Y-92392803D01*
X137224774Y-92802948D01*
X137257454Y-93233349D01*
X137359288Y-93479197D01*
X137569255Y-93510140D01*
X138143395Y-92936000D01*
X138143395Y-93295210D01*
X137748860Y-93689745D01*
X137779803Y-93899712D01*
X138189948Y-94034226D01*
X138620349Y-94001546D01*
X138866197Y-93899712D01*
X138897140Y-93689745D01*
X138897140Y-94076685D01*
X138683408Y-94480719D01*
X138679538Y-94518391D01*
X138804269Y-94709000D01*
X140196000Y-94709000D01*
X140196000Y-94963000D01*
X138804269Y-94963000D01*
X138679538Y-95153609D01*
X138683408Y-95191281D01*
X138909920Y-95619474D01*
X139283053Y-95928390D01*
X139746000Y-96071000D01*
X140196000Y-96071000D01*
X140196000Y-106029039D01*
X140107689Y-105815311D01*
X139804286Y-105511378D01*
X139407668Y-105346687D01*
X138978216Y-105346313D01*
X138684220Y-105467789D01*
X138684220Y-97843290D01*
X138491282Y-97376342D01*
X138134337Y-97018774D01*
X137667727Y-96825021D01*
X137162490Y-96824580D01*
X136695542Y-97017518D01*
X136666462Y-97046547D01*
X136666462Y-95153609D01*
X136666462Y-94518391D01*
X136666462Y-87853609D01*
X136541731Y-87663000D01*
X135150000Y-87663000D01*
X135150000Y-88771000D01*
X135600000Y-88771000D01*
X136062947Y-88628390D01*
X136436080Y-88319474D01*
X136662592Y-87891281D01*
X136666462Y-87853609D01*
X136666462Y-94518391D01*
X136662592Y-94480719D01*
X136436080Y-94052526D01*
X136062947Y-93743610D01*
X135600000Y-93601000D01*
X135150000Y-93601000D01*
X135150000Y-94709000D01*
X136541731Y-94709000D01*
X136666462Y-94518391D01*
X136666462Y-95153609D01*
X136541731Y-94963000D01*
X135150000Y-94963000D01*
X135150000Y-96071000D01*
X135600000Y-96071000D01*
X136062947Y-95928390D01*
X136436080Y-95619474D01*
X136662592Y-95191281D01*
X136666462Y-95153609D01*
X136666462Y-97046547D01*
X136337974Y-97374463D01*
X136144221Y-97841073D01*
X136143780Y-98346310D01*
X136336718Y-98813258D01*
X136693663Y-99170826D01*
X137160273Y-99364579D01*
X137665510Y-99365020D01*
X138132458Y-99172082D01*
X138490026Y-98815137D01*
X138683779Y-98348527D01*
X138684220Y-97843290D01*
X138684220Y-105467789D01*
X138620687Y-105494041D01*
X138620687Y-102275216D01*
X138456689Y-101878311D01*
X138153286Y-101574378D01*
X137756668Y-101409687D01*
X137327216Y-101409313D01*
X136930311Y-101573311D01*
X136626378Y-101876714D01*
X136461687Y-102273332D01*
X136461313Y-102702784D01*
X136625311Y-103099689D01*
X136928714Y-103403622D01*
X137325332Y-103568313D01*
X137754784Y-103568687D01*
X138151689Y-103404689D01*
X138455622Y-103101286D01*
X138620313Y-102704668D01*
X138620687Y-102275216D01*
X138620687Y-105494041D01*
X138581311Y-105510311D01*
X138277378Y-105813714D01*
X138112687Y-106210332D01*
X138112313Y-106639784D01*
X138276311Y-107036689D01*
X138579714Y-107340622D01*
X138976332Y-107505313D01*
X139405784Y-107505687D01*
X139802689Y-107341689D01*
X140106622Y-107038286D01*
X140271313Y-106641668D01*
X140271687Y-106212216D01*
X140271687Y-115855565D01*
X140144687Y-115908041D01*
X140144687Y-111927216D01*
X139980689Y-111530311D01*
X139677286Y-111226378D01*
X139280668Y-111061687D01*
X138851216Y-111061313D01*
X138620687Y-111156565D01*
X138620687Y-109387216D01*
X138456689Y-108990311D01*
X138153286Y-108686378D01*
X137756668Y-108521687D01*
X137327216Y-108521313D01*
X136930311Y-108685311D01*
X136626378Y-108988714D01*
X136461687Y-109385332D01*
X136461313Y-109814784D01*
X136625311Y-110211689D01*
X136928714Y-110515622D01*
X137325332Y-110680313D01*
X137754784Y-110680687D01*
X138151689Y-110516689D01*
X138455622Y-110213286D01*
X138620313Y-109816668D01*
X138620687Y-109387216D01*
X138620687Y-111156565D01*
X138454311Y-111225311D01*
X138150378Y-111528714D01*
X137985687Y-111925332D01*
X137985313Y-112354784D01*
X138149311Y-112751689D01*
X138452714Y-113055622D01*
X138849332Y-113220313D01*
X139278784Y-113220687D01*
X139675689Y-113056689D01*
X139979622Y-112753286D01*
X140144313Y-112356668D01*
X140144687Y-111927216D01*
X140144687Y-115908041D01*
X140105311Y-115924311D01*
X139801378Y-116227714D01*
X139636687Y-116624332D01*
X139636313Y-117053784D01*
X139800311Y-117450689D01*
X140103714Y-117754622D01*
X140500332Y-117919313D01*
X140929784Y-117919687D01*
X141326689Y-117755689D01*
X141630622Y-117452286D01*
X141795313Y-117055668D01*
X141795687Y-116626216D01*
X141795687Y-131312791D01*
X141768819Y-131381213D01*
X142796000Y-132408395D01*
X143823181Y-131381213D01*
X143823181Y-131740424D01*
X142975605Y-132588000D01*
X144002787Y-133615181D01*
X144277423Y-133507336D01*
X144516471Y-132870440D01*
X144516471Y-136289383D01*
X144314577Y-136368664D01*
X144075529Y-137005560D01*
X144098407Y-137685454D01*
X144314577Y-138207336D01*
X144589213Y-138315181D01*
X145616395Y-137288000D01*
X145616395Y-137647210D01*
X144768819Y-138494787D01*
X144876664Y-138769423D01*
X145513560Y-139008471D01*
X146193454Y-138985593D01*
X146715336Y-138769423D01*
X146823181Y-138494787D01*
X146823181Y-139015000D01*
X143823181Y-139015000D01*
X143823181Y-133794787D01*
X142796000Y-132767605D01*
X142616395Y-132947210D01*
X142616395Y-132588000D01*
X141589213Y-131560819D01*
X141314577Y-131668664D01*
X141075529Y-132305560D01*
X141098407Y-132985454D01*
X141314577Y-133507336D01*
X141589213Y-133615181D01*
X142616395Y-132588000D01*
X142616395Y-132947210D01*
X141768819Y-133794787D01*
X141876664Y-134069423D01*
X142513560Y-134308471D01*
X143193454Y-134285593D01*
X143715336Y-134069423D01*
X143823181Y-133794787D01*
X143823181Y-139015000D01*
X140614620Y-139015000D01*
X140614620Y-120550890D01*
X140421682Y-120083942D01*
X140064737Y-119726374D01*
X139598127Y-119532621D01*
X139092890Y-119532180D01*
X138625942Y-119725118D01*
X138268374Y-120082063D01*
X138074621Y-120548673D01*
X138074180Y-121053910D01*
X138267118Y-121520858D01*
X138624063Y-121878426D01*
X139090673Y-122072179D01*
X139595910Y-122072620D01*
X140062858Y-121879682D01*
X140420426Y-121522737D01*
X140614179Y-121056127D01*
X140614620Y-120550890D01*
X140614620Y-139015000D01*
X138125420Y-139015000D01*
X138125420Y-123548090D01*
X137932482Y-123081142D01*
X137575537Y-122723574D01*
X137108927Y-122529821D01*
X136603690Y-122529380D01*
X136136742Y-122722318D01*
X135779174Y-123079263D01*
X135585421Y-123545873D01*
X135584980Y-124051110D01*
X135777918Y-124518058D01*
X136134863Y-124875626D01*
X136601473Y-125069379D01*
X137106710Y-125069820D01*
X137573658Y-124876882D01*
X137931226Y-124519937D01*
X138124979Y-124053327D01*
X138125420Y-123548090D01*
X138125420Y-139015000D01*
X134896000Y-139015000D01*
X134896000Y-96071000D01*
X134896000Y-94963000D01*
X134896000Y-94709000D01*
X134896000Y-93601000D01*
X134896000Y-88771000D01*
X134896000Y-87663000D01*
X133504269Y-87663000D01*
X133379538Y-87853609D01*
X133383408Y-87891281D01*
X133609920Y-88319474D01*
X133983053Y-88628390D01*
X134446000Y-88771000D01*
X134896000Y-88771000D01*
X134896000Y-93601000D01*
X134446000Y-93601000D01*
X133983053Y-93743610D01*
X133609920Y-94052526D01*
X133383408Y-94480719D01*
X133379538Y-94518391D01*
X133504269Y-94709000D01*
X134896000Y-94709000D01*
X134896000Y-94963000D01*
X133504269Y-94963000D01*
X133379538Y-95153609D01*
X133383408Y-95191281D01*
X133609920Y-95619474D01*
X133983053Y-95928390D01*
X134446000Y-96071000D01*
X134896000Y-96071000D01*
X134896000Y-139015000D01*
X131495000Y-139015000D01*
X131495000Y-87045000D01*
X133455202Y-87045000D01*
X133383408Y-87180719D01*
X133379538Y-87218391D01*
X133504269Y-87409000D01*
X134896000Y-87409000D01*
X134896000Y-87389000D01*
X135150000Y-87389000D01*
X135150000Y-87409000D01*
X136541731Y-87409000D01*
X136666462Y-87218391D01*
X136662592Y-87180719D01*
X136590797Y-87045000D01*
X138755202Y-87045000D01*
X138683408Y-87180719D01*
X138679538Y-87218391D01*
X138804269Y-87409000D01*
X140196000Y-87409000D01*
X140196000Y-87389000D01*
X140450000Y-87389000D01*
X140450000Y-87409000D01*
X141841731Y-87409000D01*
X141966462Y-87218391D01*
X141962592Y-87180719D01*
X141890797Y-87045000D01*
X166936964Y-87045000D01*
X166890960Y-87274400D01*
X166890960Y-89001600D01*
X166937937Y-89243723D01*
X167077727Y-89456527D01*
X167288760Y-89598977D01*
X167329659Y-89607179D01*
X167312971Y-89618330D01*
X166988115Y-90104511D01*
X166874041Y-90678000D01*
X166988115Y-91251489D01*
X167312971Y-91737670D01*
X167627751Y-91948000D01*
X167312971Y-92158330D01*
X166988115Y-92644511D01*
X166874041Y-93218000D01*
X166988115Y-93791489D01*
X167312971Y-94277670D01*
X167799152Y-94602526D01*
X168372641Y-94716600D01*
X168431359Y-94716600D01*
X169004848Y-94602526D01*
X169491029Y-94277670D01*
X169671992Y-94006839D01*
X170053510Y-94424821D01*
X170582973Y-94672968D01*
X170815000Y-94552469D01*
X170815000Y-93345000D01*
X170795000Y-93345000D01*
X170795000Y-93091000D01*
X170815000Y-93091000D01*
X170815000Y-93071000D01*
X171069000Y-93071000D01*
X171069000Y-93091000D01*
X171089000Y-93091000D01*
X171089000Y-93345000D01*
X171069000Y-93345000D01*
X171069000Y-94552469D01*
X171301027Y-94672968D01*
X171830490Y-94424821D01*
X172224688Y-93992947D01*
X172335513Y-93725375D01*
X172361714Y-93751622D01*
X172758332Y-93916313D01*
X173187784Y-93916687D01*
X173584689Y-93752689D01*
X173888622Y-93449286D01*
X174053313Y-93052668D01*
X174053687Y-92623216D01*
X173889689Y-92226311D01*
X173586286Y-91922378D01*
X173189668Y-91757687D01*
X172760216Y-91757313D01*
X172363311Y-91921311D01*
X172059378Y-92224714D01*
X172048752Y-92250302D01*
X171830490Y-92011179D01*
X171707771Y-91953663D01*
X172031029Y-91737670D01*
X172355885Y-91251489D01*
X172469959Y-90678000D01*
X172355885Y-90104511D01*
X172031029Y-89618330D01*
X171716248Y-89408000D01*
X172031029Y-89197670D01*
X172355885Y-88711489D01*
X172469959Y-88138000D01*
X172355885Y-87564511D01*
X172031029Y-87078330D01*
X171981147Y-87045000D01*
X172621401Y-87045000D01*
X172605960Y-87122000D01*
X172605960Y-89154000D01*
X172652937Y-89396123D01*
X172792727Y-89608927D01*
X173003760Y-89751377D01*
X173253400Y-89801440D01*
X174980600Y-89801440D01*
X175222723Y-89754463D01*
X175435527Y-89614673D01*
X175577977Y-89403640D01*
X175585718Y-89365037D01*
X175597330Y-89382415D01*
X176083511Y-89707271D01*
X176657000Y-89821345D01*
X177230489Y-89707271D01*
X177716670Y-89382415D01*
X177927000Y-89067634D01*
X178137330Y-89382415D01*
X178623511Y-89707271D01*
X179197000Y-89821345D01*
X179770489Y-89707271D01*
X180256670Y-89382415D01*
X180463460Y-89072930D01*
X180834964Y-89488732D01*
X181362209Y-89742709D01*
X181377974Y-89745358D01*
X181610000Y-89624217D01*
X181610000Y-88265000D01*
X181590000Y-88265000D01*
X181590000Y-88011000D01*
X181610000Y-88011000D01*
X181610000Y-87991000D01*
X181864000Y-87991000D01*
X181864000Y-88011000D01*
X183077924Y-88011000D01*
X183222184Y-87776087D01*
X183028954Y-87223680D01*
X182869310Y-87045000D01*
X195296264Y-87045000D01*
X196165000Y-87913736D01*
X196165000Y-99060000D01*
X196217143Y-99322138D01*
X196365632Y-99544368D01*
X198705000Y-101883736D01*
X198705000Y-110675844D01*
X198586337Y-110556974D01*
X198119727Y-110363221D01*
X197614490Y-110362780D01*
X197147542Y-110555718D01*
X196789974Y-110912663D01*
X196596221Y-111379273D01*
X196596219Y-111381487D01*
X196403282Y-110914542D01*
X196046337Y-110556974D01*
X196024687Y-110547984D01*
X196024687Y-108498216D01*
X195860689Y-108101311D01*
X195557286Y-107797378D01*
X195160668Y-107632687D01*
X194756866Y-107632335D01*
X194541286Y-107416378D01*
X194144668Y-107251687D01*
X193715216Y-107251313D01*
X193318311Y-107415311D01*
X193014378Y-107718714D01*
X192849687Y-108115332D01*
X192849313Y-108544784D01*
X193013311Y-108941689D01*
X193316714Y-109245622D01*
X193713332Y-109410313D01*
X194117133Y-109410664D01*
X194332714Y-109626622D01*
X194729332Y-109791313D01*
X195158784Y-109791687D01*
X195555689Y-109627689D01*
X195859622Y-109324286D01*
X196024313Y-108927668D01*
X196024687Y-108498216D01*
X196024687Y-110547984D01*
X195579727Y-110363221D01*
X195074490Y-110362780D01*
X194607542Y-110555718D01*
X194249974Y-110912663D01*
X194056221Y-111379273D01*
X194055780Y-111884510D01*
X194248718Y-112351458D01*
X194605663Y-112709026D01*
X195072273Y-112902779D01*
X195074487Y-112902780D01*
X194607542Y-113095718D01*
X194249974Y-113452663D01*
X194056221Y-113919273D01*
X194055780Y-114424510D01*
X194248718Y-114891458D01*
X194605663Y-115249026D01*
X195072273Y-115442779D01*
X195074487Y-115442780D01*
X194607542Y-115635718D01*
X194249974Y-115992663D01*
X194056221Y-116459273D01*
X194055780Y-116964510D01*
X194248718Y-117431458D01*
X194605663Y-117789026D01*
X195072273Y-117982779D01*
X195074487Y-117982780D01*
X194607542Y-118175718D01*
X194249974Y-118532663D01*
X194056221Y-118999273D01*
X194055780Y-119504510D01*
X194248718Y-119971458D01*
X194605663Y-120329026D01*
X195072273Y-120522779D01*
X195074487Y-120522780D01*
X194607542Y-120715718D01*
X194249974Y-121072663D01*
X194056221Y-121539273D01*
X194055780Y-122044510D01*
X194248718Y-122511458D01*
X194605663Y-122869026D01*
X195072273Y-123062779D01*
X195289070Y-123062968D01*
X194998977Y-123080094D01*
X194671303Y-123215821D01*
X194617472Y-123444867D01*
X195326000Y-124153395D01*
X196034528Y-123444867D01*
X195980697Y-123215821D01*
X195540453Y-123063187D01*
X195577510Y-123063220D01*
X196044458Y-122870282D01*
X196402026Y-122513337D01*
X196595779Y-122046727D01*
X196595780Y-122044512D01*
X196788718Y-122511458D01*
X197145663Y-122869026D01*
X197612273Y-123062779D01*
X197614487Y-123062780D01*
X197147542Y-123255718D01*
X196789974Y-123612663D01*
X196596221Y-124079273D01*
X196596031Y-124296070D01*
X196578906Y-124005977D01*
X196443179Y-123678303D01*
X196214133Y-123624472D01*
X195505605Y-124333000D01*
X196214133Y-125041528D01*
X196443179Y-124987697D01*
X196595812Y-124547453D01*
X196595780Y-124584510D01*
X196788718Y-125051458D01*
X197145663Y-125409026D01*
X197612273Y-125602779D01*
X197614487Y-125602780D01*
X197147542Y-125795718D01*
X196789974Y-126152663D01*
X196596221Y-126619273D01*
X196596031Y-126836070D01*
X196578906Y-126545977D01*
X196443179Y-126218303D01*
X196214133Y-126164472D01*
X196034528Y-126344077D01*
X196034528Y-125984867D01*
X195980697Y-125755821D01*
X195514239Y-125594099D01*
X195653023Y-125585906D01*
X195980697Y-125450179D01*
X196034528Y-125221133D01*
X195326000Y-124512605D01*
X195146395Y-124692210D01*
X195146395Y-124333000D01*
X194437867Y-123624472D01*
X194208821Y-123678303D01*
X194142976Y-123868218D01*
X194082689Y-123722311D01*
X193779286Y-123418378D01*
X193382668Y-123253687D01*
X192953216Y-123253313D01*
X192556311Y-123417311D01*
X192252378Y-123720714D01*
X192087687Y-124117332D01*
X192087313Y-124546784D01*
X192251311Y-124943689D01*
X192554714Y-125247622D01*
X192951332Y-125412313D01*
X193380784Y-125412687D01*
X193777689Y-125248689D01*
X194081622Y-124945286D01*
X194136505Y-124813112D01*
X194208821Y-124987697D01*
X194437867Y-125041528D01*
X195146395Y-124333000D01*
X195146395Y-124692210D01*
X194617472Y-125221133D01*
X194671303Y-125450179D01*
X195137760Y-125611900D01*
X194998977Y-125620094D01*
X194671303Y-125755821D01*
X194617472Y-125984867D01*
X195326000Y-126693395D01*
X196034528Y-125984867D01*
X196034528Y-126344077D01*
X195505605Y-126873000D01*
X196214133Y-127581528D01*
X196443179Y-127527697D01*
X196595812Y-127087453D01*
X196595780Y-127124510D01*
X196788718Y-127591458D01*
X197145663Y-127949026D01*
X197612273Y-128142779D01*
X197614487Y-128142780D01*
X197147542Y-128335718D01*
X196789974Y-128692663D01*
X196596221Y-129159273D01*
X196596031Y-129376070D01*
X196578906Y-129085977D01*
X196443179Y-128758303D01*
X196214133Y-128704472D01*
X196034528Y-128884077D01*
X196034528Y-128524867D01*
X195980697Y-128295821D01*
X195514239Y-128134099D01*
X195653023Y-128125906D01*
X195980697Y-127990179D01*
X196034528Y-127761133D01*
X195326000Y-127052605D01*
X195146395Y-127232210D01*
X195146395Y-126873000D01*
X194437867Y-126164472D01*
X194208821Y-126218303D01*
X194043319Y-126695664D01*
X194073094Y-127200023D01*
X194208821Y-127527697D01*
X194437867Y-127581528D01*
X195146395Y-126873000D01*
X195146395Y-127232210D01*
X194617472Y-127761133D01*
X194671303Y-127990179D01*
X195137760Y-128151900D01*
X194998977Y-128160094D01*
X194671303Y-128295821D01*
X194617472Y-128524867D01*
X195326000Y-129233395D01*
X196034528Y-128524867D01*
X196034528Y-128884077D01*
X195505605Y-129413000D01*
X196214133Y-130121528D01*
X196443179Y-130067697D01*
X196595812Y-129627453D01*
X196595780Y-129664510D01*
X196788718Y-130131458D01*
X197145663Y-130489026D01*
X197612273Y-130682779D01*
X198117510Y-130683220D01*
X198584458Y-130490282D01*
X198705000Y-130369950D01*
X198705000Y-134336264D01*
X198705000Y-134336264D01*
G37*
X198705000Y-134336264D02*
X196365632Y-136675632D01*
X196217143Y-136897862D01*
X196165000Y-137160000D01*
X196165000Y-139015000D01*
X196034528Y-139015000D01*
X196034528Y-130301133D01*
X195326000Y-129592605D01*
X195146395Y-129772210D01*
X195146395Y-129413000D01*
X194437867Y-128704472D01*
X194208821Y-128758303D01*
X194043319Y-129235664D01*
X194073094Y-129740023D01*
X194208821Y-130067697D01*
X194437867Y-130121528D01*
X195146395Y-129413000D01*
X195146395Y-129772210D01*
X194617472Y-130301133D01*
X194671303Y-130530179D01*
X195148664Y-130695681D01*
X195653023Y-130665906D01*
X195980697Y-130530179D01*
X196034528Y-130301133D01*
X196034528Y-139015000D01*
X194284600Y-139015000D01*
X194284600Y-137217745D01*
X194284600Y-136848255D01*
X194170526Y-136274766D01*
X193845670Y-135788585D01*
X193359489Y-135463729D01*
X192849687Y-135362323D01*
X192849687Y-126913216D01*
X192685689Y-126516311D01*
X192382286Y-126212378D01*
X191985668Y-126047687D01*
X191556216Y-126047313D01*
X191159311Y-126211311D01*
X190855378Y-126514714D01*
X190690687Y-126911332D01*
X190690313Y-127340784D01*
X190854311Y-127737689D01*
X191157714Y-128041622D01*
X191554332Y-128206313D01*
X191983784Y-128206687D01*
X192380689Y-128042689D01*
X192684622Y-127739286D01*
X192849313Y-127342668D01*
X192849687Y-126913216D01*
X192849687Y-135362323D01*
X192786000Y-135349655D01*
X192212511Y-135463729D01*
X191726330Y-135788585D01*
X191519539Y-136098069D01*
X191148036Y-135682268D01*
X190620791Y-135428291D01*
X190605026Y-135425642D01*
X190373000Y-135546783D01*
X190373000Y-136906000D01*
X190393000Y-136906000D01*
X190393000Y-137160000D01*
X190373000Y-137160000D01*
X190373000Y-138519217D01*
X190605026Y-138640358D01*
X190620791Y-138637709D01*
X191148036Y-138383732D01*
X191519539Y-137967930D01*
X191726330Y-138277415D01*
X192212511Y-138602271D01*
X192786000Y-138716345D01*
X193359489Y-138602271D01*
X193845670Y-138277415D01*
X194170526Y-137791234D01*
X194284600Y-137217745D01*
X194284600Y-139015000D01*
X190195420Y-139015000D01*
X190195420Y-124360890D01*
X190002482Y-123893942D01*
X189645537Y-123536374D01*
X189178927Y-123342621D01*
X188673690Y-123342180D01*
X188658687Y-123348379D01*
X188658687Y-109387216D01*
X188494689Y-108990311D01*
X188191286Y-108686378D01*
X187794668Y-108521687D01*
X187365216Y-108521313D01*
X186968311Y-108685311D01*
X186664378Y-108988714D01*
X186595345Y-109154963D01*
X186595345Y-99441000D01*
X186481271Y-98867511D01*
X186156415Y-98381330D01*
X185841634Y-98171000D01*
X186156415Y-97960670D01*
X186481271Y-97474489D01*
X186595345Y-96901000D01*
X186481271Y-96327511D01*
X186156415Y-95841330D01*
X185841634Y-95631000D01*
X186156415Y-95420670D01*
X186481271Y-94934489D01*
X186595345Y-94361000D01*
X186481271Y-93787511D01*
X186156415Y-93301330D01*
X186140632Y-93290784D01*
X186170123Y-93285063D01*
X186382927Y-93145273D01*
X186525377Y-92934240D01*
X186575440Y-92684600D01*
X186575440Y-90957400D01*
X186528463Y-90715277D01*
X186388673Y-90502473D01*
X186177640Y-90360023D01*
X185928000Y-90309960D01*
X183896000Y-90309960D01*
X183653877Y-90356937D01*
X183441073Y-90496727D01*
X183298623Y-90707760D01*
X183248560Y-90957400D01*
X183248560Y-92684600D01*
X183295537Y-92926723D01*
X183435327Y-93139527D01*
X183646360Y-93281977D01*
X183684962Y-93289718D01*
X183667585Y-93301330D01*
X183342729Y-93787511D01*
X183228655Y-94361000D01*
X183342729Y-94934489D01*
X183667585Y-95420670D01*
X183982365Y-95631000D01*
X183667585Y-95841330D01*
X183342729Y-96327511D01*
X183228655Y-96901000D01*
X183342729Y-97474489D01*
X183667585Y-97960670D01*
X183982365Y-98171000D01*
X183667585Y-98381330D01*
X183342729Y-98867511D01*
X183228655Y-99441000D01*
X183342729Y-100014489D01*
X183667585Y-100500670D01*
X184153766Y-100825526D01*
X184727255Y-100939600D01*
X185096745Y-100939600D01*
X185670234Y-100825526D01*
X186156415Y-100500670D01*
X186481271Y-100014489D01*
X186595345Y-99441000D01*
X186595345Y-109154963D01*
X186563000Y-109232858D01*
X186563000Y-106806309D01*
X186563000Y-105949750D01*
X186563000Y-105378250D01*
X186563000Y-104521691D01*
X186466327Y-104288302D01*
X186287699Y-104109673D01*
X186236628Y-104088518D01*
X186437325Y-103788155D01*
X186563000Y-103156345D01*
X186563000Y-103091655D01*
X186437325Y-102459845D01*
X186079433Y-101924222D01*
X185543810Y-101566330D01*
X184912000Y-101440655D01*
X184280190Y-101566330D01*
X183744567Y-101924222D01*
X183386675Y-102459845D01*
X183261000Y-103091655D01*
X183261000Y-103156345D01*
X183386675Y-103788155D01*
X183587371Y-104088518D01*
X183536301Y-104109673D01*
X183357673Y-104288302D01*
X183261000Y-104521691D01*
X183261000Y-105378250D01*
X183419750Y-105537000D01*
X184785000Y-105537000D01*
X184785000Y-105517000D01*
X185039000Y-105517000D01*
X185039000Y-105537000D01*
X186404250Y-105537000D01*
X186563000Y-105378250D01*
X186563000Y-105949750D01*
X186404250Y-105791000D01*
X185039000Y-105791000D01*
X185039000Y-107156250D01*
X185197750Y-107315000D01*
X185801691Y-107315000D01*
X186054310Y-107315000D01*
X186287699Y-107218327D01*
X186466327Y-107039698D01*
X186563000Y-106806309D01*
X186563000Y-109232858D01*
X186499687Y-109385332D01*
X186499313Y-109814784D01*
X186663311Y-110211689D01*
X186966714Y-110515622D01*
X187363332Y-110680313D01*
X187792784Y-110680687D01*
X188189689Y-110516689D01*
X188493622Y-110213286D01*
X188658313Y-109816668D01*
X188658687Y-109387216D01*
X188658687Y-123348379D01*
X188206742Y-123535118D01*
X188150687Y-123591075D01*
X188150687Y-120817216D01*
X187986689Y-120420311D01*
X187683286Y-120116378D01*
X187286668Y-119951687D01*
X186857216Y-119951313D01*
X186460311Y-120115311D01*
X186156378Y-120418714D01*
X185991687Y-120815332D01*
X185991313Y-121244784D01*
X186155311Y-121641689D01*
X186458714Y-121945622D01*
X186855332Y-122110313D01*
X187284784Y-122110687D01*
X187681689Y-121946689D01*
X187985622Y-121643286D01*
X188150313Y-121246668D01*
X188150687Y-120817216D01*
X188150687Y-123591075D01*
X187849174Y-123892063D01*
X187655421Y-124358673D01*
X187654980Y-124863910D01*
X187847918Y-125330858D01*
X188204863Y-125688426D01*
X188671473Y-125882179D01*
X189176710Y-125882620D01*
X189643658Y-125689682D01*
X190001226Y-125332737D01*
X190194979Y-124866127D01*
X190195420Y-124360890D01*
X190195420Y-139015000D01*
X190119000Y-139015000D01*
X190119000Y-138519217D01*
X190119000Y-137160000D01*
X190099000Y-137160000D01*
X190099000Y-136906000D01*
X190119000Y-136906000D01*
X190119000Y-135546783D01*
X189886974Y-135425642D01*
X189871209Y-135428291D01*
X189343964Y-135682268D01*
X188972460Y-136098069D01*
X188765670Y-135788585D01*
X188279489Y-135463729D01*
X187706000Y-135349655D01*
X187132511Y-135463729D01*
X186646330Y-135788585D01*
X186436000Y-136103365D01*
X186225670Y-135788585D01*
X185739489Y-135463729D01*
X185166000Y-135349655D01*
X184785000Y-135425440D01*
X184785000Y-107156250D01*
X184785000Y-105791000D01*
X183419750Y-105791000D01*
X183261000Y-105949750D01*
X183261000Y-106806309D01*
X183357673Y-107039698D01*
X183536301Y-107218327D01*
X183769690Y-107315000D01*
X184022309Y-107315000D01*
X184626250Y-107315000D01*
X184785000Y-107156250D01*
X184785000Y-135425440D01*
X184592511Y-135463729D01*
X184106330Y-135788585D01*
X183896000Y-136103365D01*
X183685670Y-135788585D01*
X183451687Y-135632242D01*
X183451687Y-108625216D01*
X183287689Y-108228311D01*
X183222184Y-108162691D01*
X183222184Y-88499913D01*
X183077924Y-88265000D01*
X181864000Y-88265000D01*
X181864000Y-89624217D01*
X182096026Y-89745358D01*
X182111791Y-89742709D01*
X182639036Y-89488732D01*
X183028954Y-89052320D01*
X183222184Y-88499913D01*
X183222184Y-108162691D01*
X182984286Y-107924378D01*
X182587668Y-107759687D01*
X182158216Y-107759313D01*
X181761311Y-107923311D01*
X181673687Y-108010782D01*
X181673687Y-104434216D01*
X181509689Y-104037311D01*
X181206286Y-103733378D01*
X180809668Y-103568687D01*
X180380216Y-103568313D01*
X179983311Y-103732311D01*
X179765579Y-103949662D01*
X179743287Y-103949642D01*
X179743287Y-94121816D01*
X179579289Y-93724911D01*
X179275886Y-93420978D01*
X178879268Y-93256287D01*
X178449816Y-93255913D01*
X178052911Y-93419911D01*
X177748978Y-93723314D01*
X177584287Y-94119932D01*
X177583913Y-94549384D01*
X177747911Y-94946289D01*
X178051314Y-95250222D01*
X178447932Y-95414913D01*
X178877384Y-95415287D01*
X179274289Y-95251289D01*
X179578222Y-94947886D01*
X179742913Y-94551268D01*
X179743287Y-94121816D01*
X179743287Y-103949642D01*
X179364216Y-103949313D01*
X178967311Y-104113311D01*
X178663378Y-104416714D01*
X178498687Y-104813332D01*
X178498313Y-105242784D01*
X178662311Y-105639689D01*
X178965714Y-105943622D01*
X179109216Y-106003209D01*
X178917378Y-106194714D01*
X178752687Y-106591332D01*
X178752313Y-107020784D01*
X178916311Y-107417689D01*
X179219714Y-107721622D01*
X179616332Y-107886313D01*
X180045784Y-107886687D01*
X180442689Y-107722689D01*
X180746622Y-107419286D01*
X180911313Y-107022668D01*
X180911687Y-106593216D01*
X180747689Y-106196311D01*
X180444286Y-105892378D01*
X180300783Y-105832790D01*
X180406420Y-105727337D01*
X180807784Y-105727687D01*
X181204689Y-105563689D01*
X181508622Y-105260286D01*
X181673313Y-104863668D01*
X181673687Y-104434216D01*
X181673687Y-108010782D01*
X181457378Y-108226714D01*
X181292687Y-108623332D01*
X181292313Y-109052784D01*
X181456311Y-109449689D01*
X181759714Y-109753622D01*
X182156332Y-109918313D01*
X182585784Y-109918687D01*
X182982689Y-109754689D01*
X183286622Y-109451286D01*
X183451313Y-109054668D01*
X183451687Y-108625216D01*
X183451687Y-135632242D01*
X183235820Y-135488004D01*
X183235820Y-112981690D01*
X183042882Y-112514742D01*
X182685937Y-112157174D01*
X182219327Y-111963421D01*
X181714090Y-111962980D01*
X181419687Y-112084624D01*
X181419687Y-111165216D01*
X181255689Y-110768311D01*
X180952286Y-110464378D01*
X180555668Y-110299687D01*
X180126216Y-110299313D01*
X179729311Y-110463311D01*
X179641687Y-110550782D01*
X179641687Y-109514216D01*
X179477689Y-109117311D01*
X179174286Y-108813378D01*
X178777668Y-108648687D01*
X178348216Y-108648313D01*
X177951311Y-108812311D01*
X177647378Y-109115714D01*
X177482687Y-109512332D01*
X177482313Y-109941784D01*
X177646311Y-110338689D01*
X177949714Y-110642622D01*
X178346332Y-110807313D01*
X178775784Y-110807687D01*
X179172689Y-110643689D01*
X179476622Y-110340286D01*
X179641313Y-109943668D01*
X179641687Y-109514216D01*
X179641687Y-110550782D01*
X179425378Y-110766714D01*
X179260687Y-111163332D01*
X179260313Y-111592784D01*
X179424311Y-111989689D01*
X179727714Y-112293622D01*
X180124332Y-112458313D01*
X180553784Y-112458687D01*
X180950689Y-112294689D01*
X181254622Y-111991286D01*
X181419313Y-111594668D01*
X181419687Y-111165216D01*
X181419687Y-112084624D01*
X181247142Y-112155918D01*
X180889574Y-112512863D01*
X180695821Y-112979473D01*
X180695380Y-113484710D01*
X180888318Y-113951658D01*
X181245263Y-114309226D01*
X181711873Y-114502979D01*
X182217110Y-114503420D01*
X182684058Y-114310482D01*
X183041626Y-113953537D01*
X183235379Y-113486927D01*
X183235820Y-112981690D01*
X183235820Y-135488004D01*
X183199489Y-135463729D01*
X182689687Y-135362323D01*
X182689687Y-121833216D01*
X182525689Y-121436311D01*
X182222286Y-121132378D01*
X181825668Y-120967687D01*
X181705259Y-120967582D01*
X181800313Y-120738668D01*
X181800687Y-120309216D01*
X181636689Y-119912311D01*
X181333286Y-119608378D01*
X180936668Y-119443687D01*
X180530687Y-119443333D01*
X180530687Y-117007216D01*
X180366689Y-116610311D01*
X180063286Y-116306378D01*
X179666668Y-116141687D01*
X179387687Y-116141444D01*
X179387687Y-112816216D01*
X179223689Y-112419311D01*
X178920286Y-112115378D01*
X178523668Y-111950687D01*
X178094216Y-111950313D01*
X177697311Y-112114311D01*
X177393378Y-112417714D01*
X177228687Y-112814332D01*
X177228313Y-113243784D01*
X177392311Y-113640689D01*
X177585036Y-113833751D01*
X177443311Y-113892311D01*
X177139378Y-114195714D01*
X176974687Y-114592332D01*
X176974313Y-115021784D01*
X177138311Y-115418689D01*
X177441714Y-115722622D01*
X177838332Y-115887313D01*
X178267784Y-115887687D01*
X178664689Y-115723689D01*
X178968622Y-115420286D01*
X179133313Y-115023668D01*
X179133687Y-114594216D01*
X178969689Y-114197311D01*
X178776963Y-114004248D01*
X178918689Y-113945689D01*
X179222622Y-113642286D01*
X179387313Y-113245668D01*
X179387687Y-112816216D01*
X179387687Y-116141444D01*
X179237216Y-116141313D01*
X178840311Y-116305311D01*
X178536378Y-116608714D01*
X178371687Y-117005332D01*
X178371313Y-117434784D01*
X178535311Y-117831689D01*
X178838714Y-118135622D01*
X179235332Y-118300313D01*
X179664784Y-118300687D01*
X180061689Y-118136689D01*
X180365622Y-117833286D01*
X180530313Y-117436668D01*
X180530687Y-117007216D01*
X180530687Y-119443333D01*
X180507216Y-119443313D01*
X180110311Y-119607311D01*
X179806378Y-119910714D01*
X179726340Y-120103465D01*
X179666668Y-120078687D01*
X179237216Y-120078313D01*
X178840311Y-120242311D01*
X178536378Y-120545714D01*
X178371687Y-120942332D01*
X178371313Y-121371784D01*
X178535311Y-121768689D01*
X178838714Y-122072622D01*
X179235332Y-122237313D01*
X179664784Y-122237687D01*
X180061689Y-122073689D01*
X180365622Y-121770286D01*
X180445659Y-121577534D01*
X180505332Y-121602313D01*
X180625740Y-121602417D01*
X180530687Y-121831332D01*
X180530313Y-122260784D01*
X180694311Y-122657689D01*
X180997714Y-122961622D01*
X181394332Y-123126313D01*
X181823784Y-123126687D01*
X182220689Y-122962689D01*
X182524622Y-122659286D01*
X182689313Y-122262668D01*
X182689687Y-121833216D01*
X182689687Y-135362323D01*
X182626000Y-135349655D01*
X182473820Y-135379925D01*
X182473820Y-124360890D01*
X182280882Y-123893942D01*
X181923937Y-123536374D01*
X181457327Y-123342621D01*
X180952090Y-123342180D01*
X180485142Y-123535118D01*
X180127574Y-123892063D01*
X179933821Y-124358673D01*
X179933380Y-124863910D01*
X180126318Y-125330858D01*
X180483263Y-125688426D01*
X180949873Y-125882179D01*
X181455110Y-125882620D01*
X181922058Y-125689682D01*
X182279626Y-125332737D01*
X182473379Y-124866127D01*
X182473820Y-124360890D01*
X182473820Y-135379925D01*
X182052511Y-135463729D01*
X181566330Y-135788585D01*
X181356000Y-136103365D01*
X181145670Y-135788585D01*
X180659489Y-135463729D01*
X180086000Y-135349655D01*
X179512511Y-135463729D01*
X179026330Y-135788585D01*
X178816000Y-136103365D01*
X178605670Y-135788585D01*
X178206620Y-135521948D01*
X178206620Y-124310090D01*
X178013682Y-123843142D01*
X177656737Y-123485574D01*
X177190127Y-123291821D01*
X176847687Y-123291522D01*
X176847687Y-111165216D01*
X176683689Y-110768311D01*
X176380286Y-110464378D01*
X175983668Y-110299687D01*
X175554216Y-110299313D01*
X175157311Y-110463311D01*
X174955420Y-110664849D01*
X174955420Y-105006090D01*
X174762482Y-104539142D01*
X174704415Y-104480973D01*
X174704415Y-98255348D01*
X174511477Y-97788400D01*
X174178033Y-97454374D01*
X174178033Y-95289938D01*
X174014035Y-94893033D01*
X173710632Y-94589100D01*
X173314014Y-94424409D01*
X172884562Y-94424035D01*
X172487657Y-94588033D01*
X172183724Y-94891436D01*
X172019033Y-95288054D01*
X172018659Y-95717506D01*
X172182657Y-96114411D01*
X172486060Y-96418344D01*
X172882678Y-96583035D01*
X173312130Y-96583409D01*
X173709035Y-96419411D01*
X174012968Y-96116008D01*
X174177659Y-95719390D01*
X174178033Y-95289938D01*
X174178033Y-97454374D01*
X174154532Y-97430832D01*
X173687922Y-97237079D01*
X173182685Y-97236638D01*
X172715737Y-97429576D01*
X172358169Y-97786521D01*
X172164416Y-98253131D01*
X172163975Y-98758368D01*
X172356913Y-99225316D01*
X172713858Y-99582884D01*
X173180468Y-99776637D01*
X173685705Y-99777078D01*
X174152653Y-99584140D01*
X174510221Y-99227195D01*
X174703974Y-98760585D01*
X174704415Y-98255348D01*
X174704415Y-104480973D01*
X174405537Y-104181574D01*
X173938927Y-103987821D01*
X173433690Y-103987380D01*
X172966742Y-104180318D01*
X172609174Y-104537263D01*
X172415421Y-105003873D01*
X172414980Y-105509110D01*
X172607918Y-105976058D01*
X172964863Y-106333626D01*
X173431473Y-106527379D01*
X173936710Y-106527820D01*
X174403658Y-106334882D01*
X174761226Y-105977937D01*
X174954979Y-105511327D01*
X174955420Y-105006090D01*
X174955420Y-110664849D01*
X174853378Y-110766714D01*
X174688687Y-111163332D01*
X174688313Y-111592784D01*
X174852311Y-111989689D01*
X175155714Y-112293622D01*
X175552332Y-112458313D01*
X175981784Y-112458687D01*
X176378689Y-112294689D01*
X176682622Y-111991286D01*
X176847313Y-111594668D01*
X176847687Y-111165216D01*
X176847687Y-123291522D01*
X176684890Y-123291380D01*
X176217942Y-123484318D01*
X175860374Y-123841263D01*
X175666621Y-124307873D01*
X175666180Y-124813110D01*
X175859118Y-125280058D01*
X176216063Y-125637626D01*
X176682673Y-125831379D01*
X177187910Y-125831820D01*
X177654858Y-125638882D01*
X178012426Y-125281937D01*
X178206179Y-124815327D01*
X178206620Y-124310090D01*
X178206620Y-135521948D01*
X178119489Y-135463729D01*
X177546000Y-135349655D01*
X176972511Y-135463729D01*
X176486330Y-135788585D01*
X176276000Y-136103365D01*
X176065670Y-135788585D01*
X175579489Y-135463729D01*
X175361820Y-135420431D01*
X175361820Y-124254500D01*
X175168882Y-123787552D01*
X174811937Y-123429984D01*
X174561687Y-123326071D01*
X174561687Y-119166216D01*
X174397689Y-118769311D01*
X174094286Y-118465378D01*
X173926687Y-118395784D01*
X173926687Y-111927216D01*
X173762689Y-111530311D01*
X173548254Y-111315502D01*
X173634622Y-111229286D01*
X173799313Y-110832668D01*
X173799687Y-110403216D01*
X173635689Y-110006311D01*
X173332286Y-109702378D01*
X172935668Y-109537687D01*
X172506216Y-109537313D01*
X172109311Y-109701311D01*
X171805378Y-110004714D01*
X171640687Y-110401332D01*
X171640313Y-110830784D01*
X171804311Y-111227689D01*
X172018745Y-111442497D01*
X171932378Y-111528714D01*
X171767687Y-111925332D01*
X171767313Y-112354784D01*
X171931311Y-112751689D01*
X172234714Y-113055622D01*
X172631332Y-113220313D01*
X173060784Y-113220687D01*
X173457689Y-113056689D01*
X173761622Y-112753286D01*
X173926313Y-112356668D01*
X173926687Y-111927216D01*
X173926687Y-118395784D01*
X173697668Y-118300687D01*
X173268216Y-118300313D01*
X172871311Y-118464311D01*
X172567378Y-118767714D01*
X172402687Y-119164332D01*
X172402313Y-119593784D01*
X172566311Y-119990689D01*
X172869714Y-120294622D01*
X173266332Y-120459313D01*
X173695784Y-120459687D01*
X174092689Y-120295689D01*
X174396622Y-119992286D01*
X174561313Y-119595668D01*
X174561687Y-119166216D01*
X174561687Y-123326071D01*
X174345327Y-123236231D01*
X173840090Y-123235790D01*
X173373142Y-123428728D01*
X173015574Y-123785673D01*
X172821821Y-124252283D01*
X172821380Y-124757520D01*
X173014318Y-125224468D01*
X173371263Y-125582036D01*
X173837873Y-125775789D01*
X174343110Y-125776230D01*
X174810058Y-125583292D01*
X175167626Y-125226347D01*
X175361379Y-124759737D01*
X175361820Y-124254500D01*
X175361820Y-135420431D01*
X175323687Y-135412846D01*
X175323687Y-130596216D01*
X175159689Y-130199311D01*
X174856286Y-129895378D01*
X174459668Y-129730687D01*
X174030216Y-129730313D01*
X173633311Y-129894311D01*
X173329378Y-130197714D01*
X173164687Y-130594332D01*
X173164313Y-131023784D01*
X173328311Y-131420689D01*
X173631714Y-131724622D01*
X174028332Y-131889313D01*
X174457784Y-131889687D01*
X174854689Y-131725689D01*
X175158622Y-131422286D01*
X175323313Y-131025668D01*
X175323687Y-130596216D01*
X175323687Y-135412846D01*
X175006000Y-135349655D01*
X174432511Y-135463729D01*
X173946330Y-135788585D01*
X173736000Y-136103365D01*
X173525670Y-135788585D01*
X173039489Y-135463729D01*
X172656687Y-135387584D01*
X172656687Y-125516216D01*
X172492689Y-125119311D01*
X172275687Y-124901929D01*
X172275687Y-117261216D01*
X172111689Y-116864311D01*
X171808286Y-116560378D01*
X171411668Y-116395687D01*
X171386687Y-116395665D01*
X171386687Y-105450216D01*
X171222689Y-105053311D01*
X170919286Y-104749378D01*
X170637420Y-104632336D01*
X170637420Y-102618490D01*
X170444482Y-102151542D01*
X170087537Y-101793974D01*
X169620927Y-101600221D01*
X169115690Y-101599780D01*
X169007620Y-101644433D01*
X168709486Y-101345778D01*
X168312868Y-101181087D01*
X167883416Y-101180713D01*
X167486511Y-101344711D01*
X167182578Y-101648114D01*
X167017887Y-102044732D01*
X167017513Y-102474184D01*
X167181511Y-102871089D01*
X167484914Y-103175022D01*
X167881532Y-103339713D01*
X168187249Y-103339979D01*
X168289918Y-103588458D01*
X168646863Y-103946026D01*
X169113473Y-104139779D01*
X169618710Y-104140220D01*
X170085658Y-103947282D01*
X170443226Y-103590337D01*
X170636979Y-103123727D01*
X170637420Y-102618490D01*
X170637420Y-104632336D01*
X170522668Y-104584687D01*
X170093216Y-104584313D01*
X169696311Y-104748311D01*
X169392378Y-105051714D01*
X169388655Y-105060679D01*
X169141286Y-104812878D01*
X168744668Y-104648187D01*
X168315216Y-104647813D01*
X167918311Y-104811811D01*
X167614378Y-105115214D01*
X167449687Y-105511832D01*
X167449313Y-105941284D01*
X167613311Y-106338189D01*
X167916714Y-106642122D01*
X168313332Y-106806813D01*
X168742784Y-106807187D01*
X169139689Y-106643189D01*
X169443622Y-106339786D01*
X169447344Y-106330820D01*
X169694714Y-106578622D01*
X170091332Y-106743313D01*
X170520784Y-106743687D01*
X170917689Y-106579689D01*
X171221622Y-106276286D01*
X171386313Y-105879668D01*
X171386687Y-105450216D01*
X171386687Y-116395665D01*
X170982216Y-116395313D01*
X170585311Y-116559311D01*
X170497687Y-116646782D01*
X170497687Y-107863216D01*
X170333689Y-107466311D01*
X170030286Y-107162378D01*
X169633668Y-106997687D01*
X169204216Y-106997313D01*
X168807311Y-107161311D01*
X168503378Y-107464714D01*
X168338687Y-107861332D01*
X168338313Y-108290784D01*
X168502311Y-108687689D01*
X168805714Y-108991622D01*
X169202332Y-109156313D01*
X169631784Y-109156687D01*
X170028689Y-108992689D01*
X170332622Y-108689286D01*
X170497313Y-108292668D01*
X170497687Y-107863216D01*
X170497687Y-116646782D01*
X170281378Y-116862714D01*
X170116687Y-117259332D01*
X170116313Y-117688784D01*
X170280311Y-118085689D01*
X170583714Y-118389622D01*
X170980332Y-118554313D01*
X171409784Y-118554687D01*
X171806689Y-118390689D01*
X172110622Y-118087286D01*
X172275313Y-117690668D01*
X172275687Y-117261216D01*
X172275687Y-124901929D01*
X172189286Y-124815378D01*
X171792668Y-124650687D01*
X171363216Y-124650313D01*
X170966311Y-124814311D01*
X170662378Y-125117714D01*
X170497687Y-125514332D01*
X170497313Y-125943784D01*
X170661311Y-126340689D01*
X170964714Y-126644622D01*
X171361332Y-126809313D01*
X171790784Y-126809687D01*
X172187689Y-126645689D01*
X172491622Y-126342286D01*
X172656313Y-125945668D01*
X172656687Y-125516216D01*
X172656687Y-135387584D01*
X172466000Y-135349655D01*
X171892511Y-135463729D01*
X171406330Y-135788585D01*
X171395784Y-135804367D01*
X171390063Y-135774877D01*
X171250273Y-135562073D01*
X171039240Y-135419623D01*
X170789600Y-135369560D01*
X169062400Y-135369560D01*
X168820277Y-135416537D01*
X168607473Y-135556327D01*
X168592687Y-135578231D01*
X168592687Y-112181216D01*
X168428689Y-111784311D01*
X168125286Y-111480378D01*
X167728668Y-111315687D01*
X167322687Y-111315333D01*
X167322687Y-107990216D01*
X167158689Y-107593311D01*
X166855286Y-107289378D01*
X166624220Y-107193430D01*
X166624220Y-104015490D01*
X166433687Y-103554362D01*
X166433687Y-89956216D01*
X166269689Y-89559311D01*
X165966286Y-89255378D01*
X165569668Y-89090687D01*
X165140216Y-89090313D01*
X164743311Y-89254311D01*
X164439378Y-89557714D01*
X164274687Y-89954332D01*
X164274313Y-90383784D01*
X164438311Y-90780689D01*
X164741714Y-91084622D01*
X165138332Y-91249313D01*
X165567784Y-91249687D01*
X165964689Y-91085689D01*
X166268622Y-90782286D01*
X166433313Y-90385668D01*
X166433687Y-89956216D01*
X166433687Y-103554362D01*
X166431282Y-103548542D01*
X166074337Y-103190974D01*
X165607727Y-102997221D01*
X165102490Y-102996780D01*
X164635542Y-103189718D01*
X164277974Y-103546663D01*
X164084221Y-104013273D01*
X164083780Y-104518510D01*
X164176243Y-104742290D01*
X163854311Y-104875311D01*
X163639687Y-105089560D01*
X163639687Y-90210216D01*
X163475689Y-89813311D01*
X163172286Y-89509378D01*
X162775668Y-89344687D01*
X162346216Y-89344313D01*
X161949311Y-89508311D01*
X161645378Y-89811714D01*
X161480687Y-90208332D01*
X161480313Y-90637784D01*
X161644311Y-91034689D01*
X161947714Y-91338622D01*
X162344332Y-91503313D01*
X162773784Y-91503687D01*
X163170689Y-91339689D01*
X163474622Y-91036286D01*
X163639313Y-90639668D01*
X163639687Y-90210216D01*
X163639687Y-105089560D01*
X163588537Y-105140621D01*
X163588887Y-104739016D01*
X163424889Y-104342111D01*
X163121486Y-104038178D01*
X162724868Y-103873487D01*
X162369687Y-103873177D01*
X162369687Y-93385216D01*
X162205689Y-92988311D01*
X161902286Y-92684378D01*
X161505668Y-92519687D01*
X161076216Y-92519313D01*
X160679311Y-92683311D01*
X160375378Y-92986714D01*
X160210687Y-93383332D01*
X160210313Y-93812784D01*
X160374311Y-94209689D01*
X160677714Y-94513622D01*
X161074332Y-94678313D01*
X161503784Y-94678687D01*
X161900689Y-94514689D01*
X162204622Y-94211286D01*
X162369313Y-93814668D01*
X162369687Y-93385216D01*
X162369687Y-103873177D01*
X162295416Y-103873113D01*
X161898511Y-104037111D01*
X161594578Y-104340514D01*
X161429887Y-104737132D01*
X161429513Y-105166584D01*
X161593511Y-105563489D01*
X161896914Y-105867422D01*
X162293532Y-106032113D01*
X162722984Y-106032487D01*
X163119889Y-105868489D01*
X163385662Y-105603178D01*
X163385313Y-106004784D01*
X163549311Y-106401689D01*
X163852714Y-106705622D01*
X164249332Y-106870313D01*
X164678784Y-106870687D01*
X165075689Y-106706689D01*
X165379622Y-106403286D01*
X165544313Y-106006668D01*
X165544687Y-105577216D01*
X165528133Y-105537152D01*
X165605510Y-105537220D01*
X166072458Y-105344282D01*
X166430026Y-104987337D01*
X166623779Y-104520727D01*
X166624220Y-104015490D01*
X166624220Y-107193430D01*
X166458668Y-107124687D01*
X166029216Y-107124313D01*
X165632311Y-107288311D01*
X165328378Y-107591714D01*
X165163687Y-107988332D01*
X165163313Y-108417784D01*
X165327311Y-108814689D01*
X165630714Y-109118622D01*
X166027332Y-109283313D01*
X166456784Y-109283687D01*
X166853689Y-109119689D01*
X167157622Y-108816286D01*
X167322313Y-108419668D01*
X167322687Y-107990216D01*
X167322687Y-111315333D01*
X167299216Y-111315313D01*
X167174113Y-111367004D01*
X167031689Y-111022311D01*
X166728286Y-110718378D01*
X166331668Y-110553687D01*
X165902216Y-110553313D01*
X165505311Y-110717311D01*
X165201378Y-111020714D01*
X165036687Y-111417332D01*
X165036315Y-111844365D01*
X164680668Y-111696687D01*
X164251216Y-111696313D01*
X163854311Y-111860311D01*
X163550378Y-112163714D01*
X163385687Y-112560332D01*
X163385313Y-112989784D01*
X163549311Y-113386689D01*
X163827355Y-113665219D01*
X163550378Y-113941714D01*
X163427979Y-114236480D01*
X163235216Y-114236313D01*
X162838311Y-114400311D01*
X162534378Y-114703714D01*
X162514210Y-114752283D01*
X162514210Y-110111490D01*
X162321272Y-109644542D01*
X161964327Y-109286974D01*
X161801191Y-109219234D01*
X162077622Y-108943286D01*
X162242313Y-108546668D01*
X162242687Y-108117216D01*
X162078689Y-107720311D01*
X161775286Y-107416378D01*
X161378668Y-107251687D01*
X160949216Y-107251313D01*
X160552311Y-107415311D01*
X160248378Y-107718714D01*
X160083687Y-108115332D01*
X160083313Y-108544784D01*
X160247311Y-108941689D01*
X160550714Y-109245622D01*
X160586554Y-109260504D01*
X160525532Y-109285718D01*
X160167964Y-109642663D01*
X159974211Y-110109273D01*
X159973770Y-110614510D01*
X160166708Y-111081458D01*
X160523653Y-111439026D01*
X160990263Y-111632779D01*
X161495500Y-111633220D01*
X161962448Y-111440282D01*
X162320016Y-111083337D01*
X162513769Y-110616727D01*
X162514210Y-110111490D01*
X162514210Y-114752283D01*
X162369687Y-115100332D01*
X162369313Y-115529784D01*
X162533311Y-115926689D01*
X162836714Y-116230622D01*
X163233332Y-116395313D01*
X163662784Y-116395687D01*
X164059689Y-116231689D01*
X164363622Y-115928286D01*
X164401389Y-115837332D01*
X164438311Y-115926689D01*
X164741714Y-116230622D01*
X165138332Y-116395313D01*
X165567784Y-116395687D01*
X165964689Y-116231689D01*
X166268622Y-115928286D01*
X166433313Y-115531668D01*
X166433687Y-115102216D01*
X166269689Y-114705311D01*
X165966286Y-114401378D01*
X165569668Y-114236687D01*
X165501885Y-114236627D01*
X165380689Y-113943311D01*
X165102644Y-113664780D01*
X165379622Y-113388286D01*
X165544313Y-112991668D01*
X165544684Y-112564634D01*
X165900332Y-112712313D01*
X166329784Y-112712687D01*
X166454886Y-112660995D01*
X166597311Y-113005689D01*
X166900714Y-113309622D01*
X167297332Y-113474313D01*
X167726784Y-113474687D01*
X168123689Y-113310689D01*
X168427622Y-113007286D01*
X168592313Y-112610668D01*
X168592687Y-112181216D01*
X168592687Y-135578231D01*
X168588798Y-135583993D01*
X168588798Y-123488105D01*
X168424800Y-123091200D01*
X168121397Y-122787267D01*
X167724779Y-122622576D01*
X167295327Y-122622202D01*
X167195687Y-122663372D01*
X167195687Y-119674216D01*
X167031689Y-119277311D01*
X166728286Y-118973378D01*
X166331668Y-118808687D01*
X165902216Y-118808313D01*
X165505311Y-118972311D01*
X165201378Y-119275714D01*
X165036687Y-119672332D01*
X165036313Y-120101784D01*
X165200311Y-120498689D01*
X165503714Y-120802622D01*
X165900332Y-120967313D01*
X166329784Y-120967687D01*
X166726689Y-120803689D01*
X167030622Y-120500286D01*
X167195313Y-120103668D01*
X167195687Y-119674216D01*
X167195687Y-122663372D01*
X166898422Y-122786200D01*
X166594489Y-123089603D01*
X166432162Y-123480526D01*
X166269689Y-123087311D01*
X165966286Y-122783378D01*
X165569668Y-122618687D01*
X165140216Y-122618313D01*
X164743311Y-122782311D01*
X164655687Y-122869782D01*
X164655687Y-120563216D01*
X164491689Y-120166311D01*
X164188286Y-119862378D01*
X163791668Y-119697687D01*
X163362216Y-119697313D01*
X162965311Y-119861311D01*
X162877687Y-119948782D01*
X162877687Y-118785216D01*
X162713689Y-118388311D01*
X162410286Y-118084378D01*
X162013668Y-117919687D01*
X161584216Y-117919313D01*
X161353687Y-118014565D01*
X161353687Y-116499216D01*
X161189689Y-116102311D01*
X160886286Y-115798378D01*
X160489668Y-115633687D01*
X160060216Y-115633313D01*
X159663311Y-115797311D01*
X159359378Y-116100714D01*
X159194687Y-116497332D01*
X159194313Y-116926784D01*
X159358311Y-117323689D01*
X159661714Y-117627622D01*
X160058332Y-117792313D01*
X160487784Y-117792687D01*
X160884689Y-117628689D01*
X161188622Y-117325286D01*
X161353313Y-116928668D01*
X161353687Y-116499216D01*
X161353687Y-118014565D01*
X161187311Y-118083311D01*
X160883378Y-118386714D01*
X160718687Y-118783332D01*
X160718313Y-119212784D01*
X160882311Y-119609689D01*
X161185714Y-119913622D01*
X161582332Y-120078313D01*
X162011784Y-120078687D01*
X162408689Y-119914689D01*
X162712622Y-119611286D01*
X162877313Y-119214668D01*
X162877687Y-118785216D01*
X162877687Y-119948782D01*
X162661378Y-120164714D01*
X162496687Y-120561332D01*
X162496313Y-120990784D01*
X162660311Y-121387689D01*
X162963714Y-121691622D01*
X163360332Y-121856313D01*
X163789784Y-121856687D01*
X164186689Y-121692689D01*
X164490622Y-121389286D01*
X164655313Y-120992668D01*
X164655687Y-120563216D01*
X164655687Y-122869782D01*
X164439378Y-123085714D01*
X164274687Y-123482332D01*
X164274313Y-123911784D01*
X164438311Y-124308689D01*
X164741714Y-124612622D01*
X164922626Y-124687743D01*
X164616311Y-124814311D01*
X164312378Y-125117714D01*
X164147687Y-125514332D01*
X164147313Y-125943784D01*
X164311311Y-126340689D01*
X164614714Y-126644622D01*
X165011332Y-126809313D01*
X165440784Y-126809687D01*
X165837689Y-126645689D01*
X166141622Y-126342286D01*
X166306313Y-125945668D01*
X166306687Y-125516216D01*
X166142689Y-125119311D01*
X165839286Y-124815378D01*
X165658373Y-124740256D01*
X165964689Y-124613689D01*
X166268622Y-124310286D01*
X166430948Y-123919362D01*
X166593422Y-124312578D01*
X166896825Y-124616511D01*
X167293443Y-124781202D01*
X167722895Y-124781576D01*
X168119800Y-124617578D01*
X168423733Y-124314175D01*
X168588424Y-123917557D01*
X168588798Y-123488105D01*
X168588798Y-135583993D01*
X168465023Y-135767360D01*
X168414960Y-136017000D01*
X168414960Y-138049000D01*
X168461937Y-138291123D01*
X168601727Y-138503927D01*
X168812760Y-138646377D01*
X169062400Y-138696440D01*
X170789600Y-138696440D01*
X171031723Y-138649463D01*
X171244527Y-138509673D01*
X171386977Y-138298640D01*
X171394718Y-138260037D01*
X171406330Y-138277415D01*
X171892511Y-138602271D01*
X172466000Y-138716345D01*
X173039489Y-138602271D01*
X173525670Y-138277415D01*
X173736000Y-137962634D01*
X173946330Y-138277415D01*
X174432511Y-138602271D01*
X175006000Y-138716345D01*
X175579489Y-138602271D01*
X176065670Y-138277415D01*
X176276000Y-137962634D01*
X176486330Y-138277415D01*
X176972511Y-138602271D01*
X177546000Y-138716345D01*
X178119489Y-138602271D01*
X178605670Y-138277415D01*
X178816000Y-137962634D01*
X179026330Y-138277415D01*
X179512511Y-138602271D01*
X180086000Y-138716345D01*
X180659489Y-138602271D01*
X181145670Y-138277415D01*
X181356000Y-137962634D01*
X181566330Y-138277415D01*
X182052511Y-138602271D01*
X182626000Y-138716345D01*
X183199489Y-138602271D01*
X183685670Y-138277415D01*
X183896000Y-137962634D01*
X184106330Y-138277415D01*
X184592511Y-138602271D01*
X185166000Y-138716345D01*
X185739489Y-138602271D01*
X186225670Y-138277415D01*
X186436000Y-137962634D01*
X186646330Y-138277415D01*
X187132511Y-138602271D01*
X187706000Y-138716345D01*
X188279489Y-138602271D01*
X188765670Y-138277415D01*
X188972460Y-137967930D01*
X189343964Y-138383732D01*
X189871209Y-138637709D01*
X189886974Y-138640358D01*
X190119000Y-138519217D01*
X190119000Y-139015000D01*
X168338687Y-139015000D01*
X168338687Y-126913216D01*
X168174689Y-126516311D01*
X167871286Y-126212378D01*
X167474668Y-126047687D01*
X167045216Y-126047313D01*
X166648311Y-126211311D01*
X166344378Y-126514714D01*
X166179687Y-126911332D01*
X166179313Y-127340784D01*
X166343311Y-127737689D01*
X166646714Y-128041622D01*
X167043332Y-128206313D01*
X167472784Y-128206687D01*
X167869689Y-128042689D01*
X168173622Y-127739286D01*
X168338313Y-127342668D01*
X168338687Y-126913216D01*
X168338687Y-139015000D01*
X168046620Y-139015000D01*
X168046620Y-129440890D01*
X167853682Y-128973942D01*
X167496737Y-128616374D01*
X167030127Y-128422621D01*
X166524890Y-128422180D01*
X166057942Y-128615118D01*
X165700374Y-128972063D01*
X165506621Y-129438673D01*
X165506259Y-129852468D01*
X165251311Y-129957811D01*
X164947378Y-130261214D01*
X164782687Y-130657832D01*
X164782313Y-131087284D01*
X164946311Y-131484189D01*
X165249714Y-131788122D01*
X165646332Y-131952813D01*
X166075784Y-131953187D01*
X166472689Y-131789189D01*
X166776622Y-131485786D01*
X166941313Y-131089168D01*
X166941423Y-130962544D01*
X167027910Y-130962620D01*
X167494858Y-130769682D01*
X167852426Y-130412737D01*
X168046179Y-129946127D01*
X168046620Y-129440890D01*
X168046620Y-139015000D01*
X167894187Y-139015000D01*
X167894187Y-134660216D01*
X167730189Y-134263311D01*
X167426786Y-133959378D01*
X167030168Y-133794687D01*
X166600716Y-133794313D01*
X166203811Y-133958311D01*
X165899878Y-134261714D01*
X165735187Y-134658332D01*
X165734813Y-135087784D01*
X165898811Y-135484689D01*
X166202214Y-135788622D01*
X166598832Y-135953313D01*
X167028284Y-135953687D01*
X167425189Y-135789689D01*
X167729122Y-135486286D01*
X167893813Y-135089668D01*
X167894187Y-134660216D01*
X167894187Y-139015000D01*
X166258422Y-139015000D01*
X166306313Y-138899668D01*
X166306687Y-138470216D01*
X166142689Y-138073311D01*
X165839286Y-137769378D01*
X165442668Y-137604687D01*
X165013216Y-137604313D01*
X164719572Y-137725644D01*
X164820600Y-137217745D01*
X164820600Y-136848255D01*
X164706526Y-136274766D01*
X164381670Y-135788585D01*
X164020687Y-135547383D01*
X164020687Y-125516216D01*
X163856689Y-125119311D01*
X163553286Y-124815378D01*
X163156668Y-124650687D01*
X162727216Y-124650313D01*
X162330311Y-124814311D01*
X162026378Y-125117714D01*
X161861687Y-125514332D01*
X161861313Y-125943784D01*
X162025311Y-126340689D01*
X162328714Y-126644622D01*
X162725332Y-126809313D01*
X163154784Y-126809687D01*
X163551689Y-126645689D01*
X163855622Y-126342286D01*
X164020313Y-125945668D01*
X164020687Y-125516216D01*
X164020687Y-135547383D01*
X163895489Y-135463729D01*
X163322000Y-135349655D01*
X162748511Y-135463729D01*
X162262330Y-135788585D01*
X162052000Y-136103365D01*
X161841670Y-135788585D01*
X161355489Y-135463729D01*
X160782000Y-135349655D01*
X160591687Y-135387510D01*
X160591687Y-119801216D01*
X160427689Y-119404311D01*
X160124286Y-119100378D01*
X159727668Y-118935687D01*
X159298216Y-118935313D01*
X158901311Y-119099311D01*
X158597378Y-119402714D01*
X158432687Y-119799332D01*
X158432313Y-120228784D01*
X158596311Y-120625689D01*
X158899714Y-120929622D01*
X159296332Y-121094313D01*
X159725784Y-121094687D01*
X160122689Y-120930689D01*
X160426622Y-120627286D01*
X160591313Y-120230668D01*
X160591687Y-119801216D01*
X160591687Y-135387510D01*
X160208511Y-135463729D01*
X159722330Y-135788585D01*
X159714918Y-135799677D01*
X159714918Y-127662985D01*
X159550920Y-127266080D01*
X159247517Y-126962147D01*
X158850899Y-126797456D01*
X158421447Y-126797082D01*
X158305687Y-126844913D01*
X158305687Y-123992216D01*
X158153287Y-123623380D01*
X158153287Y-104586616D01*
X157989289Y-104189711D01*
X157685886Y-103885778D01*
X157429420Y-103779283D01*
X157429420Y-88445290D01*
X157236482Y-87978342D01*
X156879537Y-87620774D01*
X156412927Y-87427021D01*
X155907690Y-87426580D01*
X155440742Y-87619518D01*
X155083174Y-87976463D01*
X154889421Y-88443073D01*
X154888980Y-88948310D01*
X155081918Y-89415258D01*
X155438863Y-89772826D01*
X155905473Y-89966579D01*
X156410710Y-89967020D01*
X156877658Y-89774082D01*
X157235226Y-89417137D01*
X157428979Y-88950527D01*
X157429420Y-88445290D01*
X157429420Y-103779283D01*
X157416687Y-103773996D01*
X157416687Y-93131216D01*
X157252689Y-92734311D01*
X156949286Y-92430378D01*
X156552668Y-92265687D01*
X156527687Y-92265665D01*
X156527687Y-91099216D01*
X156363689Y-90702311D01*
X156060286Y-90398378D01*
X155663668Y-90233687D01*
X155234216Y-90233313D01*
X154837311Y-90397311D01*
X154533378Y-90700714D01*
X154368687Y-91097332D01*
X154368313Y-91526784D01*
X154532311Y-91923689D01*
X154835714Y-92227622D01*
X155232332Y-92392313D01*
X155661784Y-92392687D01*
X156058689Y-92228689D01*
X156362622Y-91925286D01*
X156527313Y-91528668D01*
X156527687Y-91099216D01*
X156527687Y-92265665D01*
X156123216Y-92265313D01*
X155726311Y-92429311D01*
X155422378Y-92732714D01*
X155257687Y-93129332D01*
X155257313Y-93558784D01*
X155421311Y-93955689D01*
X155724714Y-94259622D01*
X156121332Y-94424313D01*
X156550784Y-94424687D01*
X156947689Y-94260689D01*
X157251622Y-93957286D01*
X157416313Y-93560668D01*
X157416687Y-93131216D01*
X157416687Y-103773996D01*
X157289268Y-103721087D01*
X156859816Y-103720713D01*
X156462911Y-103884711D01*
X156158978Y-104188114D01*
X155994287Y-104584732D01*
X155993913Y-105014184D01*
X156157911Y-105411089D01*
X156461314Y-105715022D01*
X156857932Y-105879713D01*
X157287384Y-105880087D01*
X157684289Y-105716089D01*
X157988222Y-105412686D01*
X158152913Y-105016068D01*
X158153287Y-104586616D01*
X158153287Y-123623380D01*
X158141689Y-123595311D01*
X157838286Y-123291378D01*
X157441668Y-123126687D01*
X157012216Y-123126313D01*
X156616620Y-123289770D01*
X156616620Y-121414490D01*
X156423682Y-120947542D01*
X156066737Y-120589974D01*
X155765687Y-120464967D01*
X155765687Y-110022216D01*
X155601689Y-109625311D01*
X155298286Y-109321378D01*
X154901668Y-109156687D01*
X154472216Y-109156313D01*
X154075311Y-109320311D01*
X153771378Y-109623714D01*
X153606687Y-110020332D01*
X153606313Y-110449784D01*
X153770311Y-110846689D01*
X154073714Y-111150622D01*
X154470332Y-111315313D01*
X154899784Y-111315687D01*
X155296689Y-111151689D01*
X155600622Y-110848286D01*
X155765313Y-110451668D01*
X155765687Y-110022216D01*
X155765687Y-120464967D01*
X155600127Y-120396221D01*
X155094890Y-120395780D01*
X154627942Y-120588718D01*
X154270374Y-120945663D01*
X154076621Y-121412273D01*
X154076180Y-121917510D01*
X154269118Y-122384458D01*
X154626063Y-122742026D01*
X155092673Y-122935779D01*
X155597910Y-122936220D01*
X156064858Y-122743282D01*
X156422426Y-122386337D01*
X156616179Y-121919727D01*
X156616620Y-121414490D01*
X156616620Y-123289770D01*
X156615311Y-123290311D01*
X156311378Y-123593714D01*
X156146687Y-123990332D01*
X156146313Y-124419784D01*
X156310311Y-124816689D01*
X156613714Y-125120622D01*
X157010332Y-125285313D01*
X157439784Y-125285687D01*
X157836689Y-125121689D01*
X158140622Y-124818286D01*
X158305313Y-124421668D01*
X158305687Y-123992216D01*
X158305687Y-126844913D01*
X158024542Y-126961080D01*
X157720609Y-127264483D01*
X157555918Y-127661101D01*
X157555544Y-128090553D01*
X157719542Y-128487458D01*
X158022945Y-128791391D01*
X158419563Y-128956082D01*
X158849015Y-128956456D01*
X159245920Y-128792458D01*
X159549853Y-128489055D01*
X159714544Y-128092437D01*
X159714918Y-127662985D01*
X159714918Y-135799677D01*
X159512000Y-136103365D01*
X159301670Y-135788585D01*
X158815489Y-135463729D01*
X158242000Y-135349655D01*
X157988220Y-135400134D01*
X157988220Y-129415490D01*
X157795282Y-128948542D01*
X157438337Y-128590974D01*
X156971727Y-128397221D01*
X156466490Y-128396780D01*
X155999542Y-128589718D01*
X155641974Y-128946663D01*
X155448221Y-129413273D01*
X155447780Y-129918510D01*
X155640718Y-130385458D01*
X155997663Y-130743026D01*
X156464273Y-130936779D01*
X156969510Y-130937220D01*
X157436458Y-130744282D01*
X157794026Y-130387337D01*
X157987779Y-129920727D01*
X157988220Y-129415490D01*
X157988220Y-135400134D01*
X157835517Y-135430509D01*
X157924313Y-135216668D01*
X157924687Y-134787216D01*
X157760689Y-134390311D01*
X157457286Y-134086378D01*
X157060668Y-133921687D01*
X156631216Y-133921313D01*
X156234311Y-134085311D01*
X155930378Y-134388714D01*
X155765687Y-134785332D01*
X155765313Y-135214784D01*
X155831700Y-135375454D01*
X155702000Y-135349655D01*
X155128511Y-135463729D01*
X154642330Y-135788585D01*
X154435539Y-136098069D01*
X154064036Y-135682268D01*
X153536791Y-135428291D01*
X153521026Y-135425642D01*
X153289000Y-135546783D01*
X153289000Y-136906000D01*
X153309000Y-136906000D01*
X153309000Y-137160000D01*
X153289000Y-137160000D01*
X153289000Y-138519217D01*
X153521026Y-138640358D01*
X153536791Y-138637709D01*
X154064036Y-138383732D01*
X154435539Y-137967930D01*
X154642330Y-138277415D01*
X155128511Y-138602271D01*
X155702000Y-138716345D01*
X156275489Y-138602271D01*
X156761670Y-138277415D01*
X156972000Y-137962634D01*
X157182330Y-138277415D01*
X157668511Y-138602271D01*
X158242000Y-138716345D01*
X158815489Y-138602271D01*
X159301670Y-138277415D01*
X159512000Y-137962634D01*
X159722330Y-138277415D01*
X160208511Y-138602271D01*
X160782000Y-138716345D01*
X161355489Y-138602271D01*
X161841670Y-138277415D01*
X162052000Y-137962634D01*
X162262330Y-138277415D01*
X162748511Y-138602271D01*
X163322000Y-138716345D01*
X163895489Y-138602271D01*
X164167556Y-138420481D01*
X164147687Y-138468332D01*
X164147313Y-138897784D01*
X164195745Y-139015000D01*
X153225687Y-139015000D01*
X153225687Y-107482216D01*
X153061689Y-107085311D01*
X152758286Y-106781378D01*
X152361668Y-106616687D01*
X151932216Y-106616313D01*
X151535311Y-106780311D01*
X151231378Y-107083714D01*
X151066687Y-107480332D01*
X151066313Y-107909784D01*
X151230311Y-108306689D01*
X151533714Y-108610622D01*
X151930332Y-108775313D01*
X152359784Y-108775687D01*
X152756689Y-108611689D01*
X153060622Y-108308286D01*
X153225313Y-107911668D01*
X153225687Y-107482216D01*
X153225687Y-139015000D01*
X153035000Y-139015000D01*
X153035000Y-138519217D01*
X153035000Y-137160000D01*
X153035000Y-136906000D01*
X153035000Y-135546783D01*
X152802974Y-135425642D01*
X152787209Y-135428291D01*
X152259964Y-135682268D01*
X152105758Y-135854860D01*
X152023927Y-135657301D01*
X151845298Y-135478673D01*
X151701687Y-135419187D01*
X151701687Y-111038216D01*
X151537689Y-110641311D01*
X151234286Y-110337378D01*
X150837668Y-110172687D01*
X150408216Y-110172313D01*
X150246533Y-110239118D01*
X150050687Y-110042929D01*
X150050687Y-108117216D01*
X149987220Y-107963614D01*
X149987220Y-96522490D01*
X149794282Y-96055542D01*
X149437337Y-95697974D01*
X148970727Y-95504221D01*
X148465490Y-95503780D01*
X147998542Y-95696718D01*
X147640974Y-96053663D01*
X147447221Y-96520273D01*
X147446780Y-97025510D01*
X147639718Y-97492458D01*
X147996663Y-97850026D01*
X148463273Y-98043779D01*
X148968510Y-98044220D01*
X149435458Y-97851282D01*
X149793026Y-97494337D01*
X149986779Y-97027727D01*
X149987220Y-96522490D01*
X149987220Y-107963614D01*
X149886689Y-107720311D01*
X149583286Y-107416378D01*
X149186668Y-107251687D01*
X148907687Y-107251444D01*
X148907687Y-101386216D01*
X148743689Y-100989311D01*
X148440286Y-100685378D01*
X148043668Y-100520687D01*
X147614216Y-100520313D01*
X147217311Y-100684311D01*
X146913378Y-100987714D01*
X146748687Y-101384332D01*
X146748313Y-101813784D01*
X146912311Y-102210689D01*
X147215714Y-102514622D01*
X147612332Y-102679313D01*
X148041784Y-102679687D01*
X148438689Y-102515689D01*
X148742622Y-102212286D01*
X148907313Y-101815668D01*
X148907687Y-101386216D01*
X148907687Y-107251444D01*
X148757216Y-107251313D01*
X148360311Y-107415311D01*
X148056378Y-107718714D01*
X147891687Y-108115332D01*
X147891313Y-108544784D01*
X148055311Y-108941689D01*
X148358714Y-109245622D01*
X148755332Y-109410313D01*
X149184784Y-109410687D01*
X149581689Y-109246689D01*
X149885622Y-108943286D01*
X150050313Y-108546668D01*
X150050687Y-108117216D01*
X150050687Y-110042929D01*
X149964286Y-109956378D01*
X149567668Y-109791687D01*
X149138216Y-109791313D01*
X148741311Y-109955311D01*
X148437378Y-110258714D01*
X148272687Y-110655332D01*
X148272313Y-111084784D01*
X148436311Y-111481689D01*
X148739714Y-111785622D01*
X149136332Y-111950313D01*
X149565784Y-111950687D01*
X149727466Y-111883881D01*
X150009714Y-112166622D01*
X150406332Y-112331313D01*
X150835784Y-112331687D01*
X151232689Y-112167689D01*
X151536622Y-111864286D01*
X151701313Y-111467668D01*
X151701687Y-111038216D01*
X151701687Y-135419187D01*
X151611909Y-135382000D01*
X151320687Y-135382000D01*
X151320687Y-113324216D01*
X151156689Y-112927311D01*
X150853286Y-112623378D01*
X150456668Y-112458687D01*
X150027216Y-112458313D01*
X149630311Y-112622311D01*
X149326378Y-112925714D01*
X149161687Y-113322332D01*
X149161313Y-113751784D01*
X149325311Y-114148689D01*
X149570706Y-114394512D01*
X149249311Y-114527311D01*
X148945378Y-114830714D01*
X148780687Y-115227332D01*
X148780313Y-115656784D01*
X148944311Y-116053689D01*
X149247714Y-116357622D01*
X149644332Y-116522313D01*
X150073784Y-116522687D01*
X150470689Y-116358689D01*
X150774622Y-116055286D01*
X150939313Y-115658668D01*
X150939687Y-115229216D01*
X150775689Y-114832311D01*
X150530293Y-114586487D01*
X150851689Y-114453689D01*
X151155622Y-114150286D01*
X151320313Y-113753668D01*
X151320687Y-113324216D01*
X151320687Y-135382000D01*
X150907750Y-135382000D01*
X150749000Y-135540750D01*
X150749000Y-136906000D01*
X151821076Y-136906000D01*
X151961850Y-136906000D01*
X153035000Y-136906000D01*
X153035000Y-137160000D01*
X151961850Y-137160000D01*
X151821076Y-137160000D01*
X150749000Y-137160000D01*
X150749000Y-138525250D01*
X150907750Y-138684000D01*
X151611909Y-138684000D01*
X151845298Y-138587327D01*
X152023927Y-138408699D01*
X152105758Y-138211139D01*
X152259964Y-138383732D01*
X152787209Y-138637709D01*
X152802974Y-138640358D01*
X153035000Y-138519217D01*
X153035000Y-139015000D01*
X150506296Y-139015000D01*
X150506296Y-132249352D01*
X150246513Y-131620628D01*
X149765902Y-131139178D01*
X149137632Y-130878297D01*
X148457352Y-130877704D01*
X147828628Y-131137487D01*
X147347178Y-131618098D01*
X147086297Y-132246368D01*
X147085704Y-132926648D01*
X147345487Y-133555372D01*
X147826098Y-134036822D01*
X148454368Y-134297703D01*
X149134648Y-134298296D01*
X149763372Y-134038513D01*
X150244822Y-133557902D01*
X150505703Y-132929632D01*
X150506296Y-132249352D01*
X150506296Y-139015000D01*
X150495000Y-139015000D01*
X150495000Y-138525250D01*
X150495000Y-137160000D01*
X150495000Y-136906000D01*
X150495000Y-135540750D01*
X150336250Y-135382000D01*
X149632091Y-135382000D01*
X149398702Y-135478673D01*
X149220073Y-135657301D01*
X149123400Y-135890690D01*
X149123400Y-136143309D01*
X149123400Y-136747250D01*
X149282150Y-136906000D01*
X150495000Y-136906000D01*
X150495000Y-137160000D01*
X149282150Y-137160000D01*
X149123400Y-137318750D01*
X149123400Y-137922691D01*
X149123400Y-138175310D01*
X149220073Y-138408699D01*
X149398702Y-138587327D01*
X149632091Y-138684000D01*
X150336250Y-138684000D01*
X150495000Y-138525250D01*
X150495000Y-139015000D01*
X147516471Y-139015000D01*
X147516471Y-137570440D01*
X147493593Y-136890546D01*
X147277423Y-136368664D01*
X147002787Y-136260819D01*
X146823181Y-136440424D01*
X146823181Y-136081213D01*
X146715336Y-135806577D01*
X146078440Y-135567529D01*
X145398546Y-135590407D01*
X145224687Y-135662421D01*
X145224687Y-112181216D01*
X145060689Y-111784311D01*
X144757286Y-111480378D01*
X144360668Y-111315687D01*
X143931216Y-111315313D01*
X143916620Y-111321343D01*
X143916620Y-106123690D01*
X143723682Y-105656742D01*
X143561020Y-105493796D01*
X143561020Y-93779290D01*
X143368082Y-93312342D01*
X143011137Y-92954774D01*
X142544527Y-92761021D01*
X142039290Y-92760580D01*
X141966462Y-92790671D01*
X141966462Y-87853609D01*
X141841731Y-87663000D01*
X140450000Y-87663000D01*
X140450000Y-88771000D01*
X140900000Y-88771000D01*
X141362947Y-88628390D01*
X141736080Y-88319474D01*
X141962592Y-87891281D01*
X141966462Y-87853609D01*
X141966462Y-92790671D01*
X141572342Y-92953518D01*
X141214774Y-93310463D01*
X141072116Y-93654020D01*
X140900000Y-93601000D01*
X140450000Y-93601000D01*
X140450000Y-94709000D01*
X140470000Y-94709000D01*
X140470000Y-94963000D01*
X140450000Y-94963000D01*
X140450000Y-96071000D01*
X140900000Y-96071000D01*
X141362947Y-95928390D01*
X141736080Y-95619474D01*
X141928600Y-95255537D01*
X142037073Y-95300579D01*
X142542310Y-95301020D01*
X143009258Y-95108082D01*
X143366826Y-94751137D01*
X143560579Y-94284527D01*
X143561020Y-93779290D01*
X143561020Y-105493796D01*
X143366737Y-105299174D01*
X142900127Y-105105421D01*
X142394890Y-105104980D01*
X141927942Y-105297918D01*
X141570374Y-105654863D01*
X141376621Y-106121473D01*
X141376180Y-106626710D01*
X141569118Y-107093658D01*
X141926063Y-107451226D01*
X142141375Y-107540631D01*
X142137311Y-107542311D01*
X141833378Y-107845714D01*
X141668687Y-108242332D01*
X141668313Y-108671784D01*
X141832311Y-109068689D01*
X142135714Y-109372622D01*
X142532332Y-109537313D01*
X142961784Y-109537687D01*
X143358689Y-109373689D01*
X143662622Y-109070286D01*
X143827313Y-108673668D01*
X143827687Y-108244216D01*
X143663689Y-107847311D01*
X143360286Y-107543378D01*
X143252845Y-107498764D01*
X143364858Y-107452482D01*
X143722426Y-107095537D01*
X143916179Y-106628927D01*
X143916620Y-106123690D01*
X143916620Y-111321343D01*
X143534311Y-111479311D01*
X143230378Y-111782714D01*
X143065687Y-112179332D01*
X143065313Y-112608784D01*
X143214832Y-112970647D01*
X143112737Y-112868374D01*
X142646127Y-112674621D01*
X142140890Y-112674180D01*
X141673942Y-112867118D01*
X141316374Y-113224063D01*
X141122621Y-113690673D01*
X141122180Y-114195910D01*
X141315118Y-114662858D01*
X141672063Y-115020426D01*
X142138673Y-115214179D01*
X142643910Y-115214620D01*
X143110858Y-115021682D01*
X143468426Y-114664737D01*
X143662179Y-114198127D01*
X143662620Y-113692890D01*
X143484161Y-113260984D01*
X143532714Y-113309622D01*
X143929332Y-113474313D01*
X144358784Y-113474687D01*
X144755689Y-113310689D01*
X145059622Y-113007286D01*
X145224313Y-112610668D01*
X145224687Y-112181216D01*
X145224687Y-135662421D01*
X144876664Y-135806577D01*
X144768819Y-136081213D01*
X145796000Y-137108395D01*
X146823181Y-136081213D01*
X146823181Y-136440424D01*
X145975605Y-137288000D01*
X147002787Y-138315181D01*
X147277423Y-138207336D01*
X147516471Y-137570440D01*
X147516471Y-139015000D01*
X146823181Y-139015000D01*
X146823181Y-138494787D01*
X145796000Y-137467605D01*
X145616395Y-137647210D01*
X145616395Y-137288000D01*
X144589213Y-136260819D01*
X144516471Y-136289383D01*
X144516471Y-132870440D01*
X144493593Y-132190546D01*
X144277423Y-131668664D01*
X144002787Y-131560819D01*
X143823181Y-131740424D01*
X143823181Y-131381213D01*
X143715336Y-131106577D01*
X143078440Y-130867529D01*
X142398546Y-130890407D01*
X141876664Y-131106577D01*
X141795687Y-131312791D01*
X141795687Y-116626216D01*
X141631689Y-116229311D01*
X141328286Y-115925378D01*
X140931668Y-115760687D01*
X140502216Y-115760313D01*
X140271687Y-115855565D01*
X140271687Y-106212216D01*
X140196000Y-106029039D01*
X140196000Y-96071000D01*
X140196000Y-94963000D01*
X140196000Y-94709000D01*
X140196000Y-93601000D01*
X140196000Y-88771000D01*
X140196000Y-87663000D01*
X138804269Y-87663000D01*
X138679538Y-87853609D01*
X138683408Y-87891281D01*
X138909920Y-88319474D01*
X139283053Y-88628390D01*
X139746000Y-88771000D01*
X140196000Y-88771000D01*
X140196000Y-93601000D01*
X139746000Y-93601000D01*
X139421226Y-93701046D01*
X139421226Y-93069052D01*
X139421226Y-89569052D01*
X139388546Y-89138651D01*
X139286712Y-88892803D01*
X139076745Y-88861860D01*
X138897140Y-89041465D01*
X138897140Y-88682255D01*
X138866197Y-88472288D01*
X138456052Y-88337774D01*
X138025651Y-88370454D01*
X137779803Y-88472288D01*
X137748860Y-88682255D01*
X138323000Y-89256395D01*
X138897140Y-88682255D01*
X138897140Y-89041465D01*
X138502605Y-89436000D01*
X139076745Y-90010140D01*
X139286712Y-89979197D01*
X139421226Y-89569052D01*
X139421226Y-93069052D01*
X139388546Y-92638651D01*
X139286712Y-92392803D01*
X139076745Y-92361860D01*
X138897140Y-92541465D01*
X138897140Y-92182255D01*
X138897140Y-90189745D01*
X138323000Y-89615605D01*
X138143395Y-89795210D01*
X138143395Y-89436000D01*
X137569255Y-88861860D01*
X137359288Y-88892803D01*
X137224774Y-89302948D01*
X137257454Y-89733349D01*
X137359288Y-89979197D01*
X137569255Y-90010140D01*
X138143395Y-89436000D01*
X138143395Y-89795210D01*
X137748860Y-90189745D01*
X137779803Y-90399712D01*
X138189948Y-90534226D01*
X138620349Y-90501546D01*
X138866197Y-90399712D01*
X138897140Y-90189745D01*
X138897140Y-92182255D01*
X138866197Y-91972288D01*
X138456052Y-91837774D01*
X138025651Y-91870454D01*
X137779803Y-91972288D01*
X137748860Y-92182255D01*
X138323000Y-92756395D01*
X138897140Y-92182255D01*
X138897140Y-92541465D01*
X138502605Y-92936000D01*
X139076745Y-93510140D01*
X139286712Y-93479197D01*
X139421226Y-93069052D01*
X139421226Y-93701046D01*
X139283053Y-93743610D01*
X138909920Y-94052526D01*
X138897140Y-94076685D01*
X138897140Y-93689745D01*
X138323000Y-93115605D01*
X138143395Y-93295210D01*
X138143395Y-92936000D01*
X137569255Y-92361860D01*
X137359288Y-92392803D01*
X137224774Y-92802948D01*
X137257454Y-93233349D01*
X137359288Y-93479197D01*
X137569255Y-93510140D01*
X138143395Y-92936000D01*
X138143395Y-93295210D01*
X137748860Y-93689745D01*
X137779803Y-93899712D01*
X138189948Y-94034226D01*
X138620349Y-94001546D01*
X138866197Y-93899712D01*
X138897140Y-93689745D01*
X138897140Y-94076685D01*
X138683408Y-94480719D01*
X138679538Y-94518391D01*
X138804269Y-94709000D01*
X140196000Y-94709000D01*
X140196000Y-94963000D01*
X138804269Y-94963000D01*
X138679538Y-95153609D01*
X138683408Y-95191281D01*
X138909920Y-95619474D01*
X139283053Y-95928390D01*
X139746000Y-96071000D01*
X140196000Y-96071000D01*
X140196000Y-106029039D01*
X140107689Y-105815311D01*
X139804286Y-105511378D01*
X139407668Y-105346687D01*
X138978216Y-105346313D01*
X138684220Y-105467789D01*
X138684220Y-97843290D01*
X138491282Y-97376342D01*
X138134337Y-97018774D01*
X137667727Y-96825021D01*
X137162490Y-96824580D01*
X136695542Y-97017518D01*
X136666462Y-97046547D01*
X136666462Y-95153609D01*
X136666462Y-94518391D01*
X136666462Y-87853609D01*
X136541731Y-87663000D01*
X135150000Y-87663000D01*
X135150000Y-88771000D01*
X135600000Y-88771000D01*
X136062947Y-88628390D01*
X136436080Y-88319474D01*
X136662592Y-87891281D01*
X136666462Y-87853609D01*
X136666462Y-94518391D01*
X136662592Y-94480719D01*
X136436080Y-94052526D01*
X136062947Y-93743610D01*
X135600000Y-93601000D01*
X135150000Y-93601000D01*
X135150000Y-94709000D01*
X136541731Y-94709000D01*
X136666462Y-94518391D01*
X136666462Y-95153609D01*
X136541731Y-94963000D01*
X135150000Y-94963000D01*
X135150000Y-96071000D01*
X135600000Y-96071000D01*
X136062947Y-95928390D01*
X136436080Y-95619474D01*
X136662592Y-95191281D01*
X136666462Y-95153609D01*
X136666462Y-97046547D01*
X136337974Y-97374463D01*
X136144221Y-97841073D01*
X136143780Y-98346310D01*
X136336718Y-98813258D01*
X136693663Y-99170826D01*
X137160273Y-99364579D01*
X137665510Y-99365020D01*
X138132458Y-99172082D01*
X138490026Y-98815137D01*
X138683779Y-98348527D01*
X138684220Y-97843290D01*
X138684220Y-105467789D01*
X138620687Y-105494041D01*
X138620687Y-102275216D01*
X138456689Y-101878311D01*
X138153286Y-101574378D01*
X137756668Y-101409687D01*
X137327216Y-101409313D01*
X136930311Y-101573311D01*
X136626378Y-101876714D01*
X136461687Y-102273332D01*
X136461313Y-102702784D01*
X136625311Y-103099689D01*
X136928714Y-103403622D01*
X137325332Y-103568313D01*
X137754784Y-103568687D01*
X138151689Y-103404689D01*
X138455622Y-103101286D01*
X138620313Y-102704668D01*
X138620687Y-102275216D01*
X138620687Y-105494041D01*
X138581311Y-105510311D01*
X138277378Y-105813714D01*
X138112687Y-106210332D01*
X138112313Y-106639784D01*
X138276311Y-107036689D01*
X138579714Y-107340622D01*
X138976332Y-107505313D01*
X139405784Y-107505687D01*
X139802689Y-107341689D01*
X140106622Y-107038286D01*
X140271313Y-106641668D01*
X140271687Y-106212216D01*
X140271687Y-115855565D01*
X140144687Y-115908041D01*
X140144687Y-111927216D01*
X139980689Y-111530311D01*
X139677286Y-111226378D01*
X139280668Y-111061687D01*
X138851216Y-111061313D01*
X138620687Y-111156565D01*
X138620687Y-109387216D01*
X138456689Y-108990311D01*
X138153286Y-108686378D01*
X137756668Y-108521687D01*
X137327216Y-108521313D01*
X136930311Y-108685311D01*
X136626378Y-108988714D01*
X136461687Y-109385332D01*
X136461313Y-109814784D01*
X136625311Y-110211689D01*
X136928714Y-110515622D01*
X137325332Y-110680313D01*
X137754784Y-110680687D01*
X138151689Y-110516689D01*
X138455622Y-110213286D01*
X138620313Y-109816668D01*
X138620687Y-109387216D01*
X138620687Y-111156565D01*
X138454311Y-111225311D01*
X138150378Y-111528714D01*
X137985687Y-111925332D01*
X137985313Y-112354784D01*
X138149311Y-112751689D01*
X138452714Y-113055622D01*
X138849332Y-113220313D01*
X139278784Y-113220687D01*
X139675689Y-113056689D01*
X139979622Y-112753286D01*
X140144313Y-112356668D01*
X140144687Y-111927216D01*
X140144687Y-115908041D01*
X140105311Y-115924311D01*
X139801378Y-116227714D01*
X139636687Y-116624332D01*
X139636313Y-117053784D01*
X139800311Y-117450689D01*
X140103714Y-117754622D01*
X140500332Y-117919313D01*
X140929784Y-117919687D01*
X141326689Y-117755689D01*
X141630622Y-117452286D01*
X141795313Y-117055668D01*
X141795687Y-116626216D01*
X141795687Y-131312791D01*
X141768819Y-131381213D01*
X142796000Y-132408395D01*
X143823181Y-131381213D01*
X143823181Y-131740424D01*
X142975605Y-132588000D01*
X144002787Y-133615181D01*
X144277423Y-133507336D01*
X144516471Y-132870440D01*
X144516471Y-136289383D01*
X144314577Y-136368664D01*
X144075529Y-137005560D01*
X144098407Y-137685454D01*
X144314577Y-138207336D01*
X144589213Y-138315181D01*
X145616395Y-137288000D01*
X145616395Y-137647210D01*
X144768819Y-138494787D01*
X144876664Y-138769423D01*
X145513560Y-139008471D01*
X146193454Y-138985593D01*
X146715336Y-138769423D01*
X146823181Y-138494787D01*
X146823181Y-139015000D01*
X143823181Y-139015000D01*
X143823181Y-133794787D01*
X142796000Y-132767605D01*
X142616395Y-132947210D01*
X142616395Y-132588000D01*
X141589213Y-131560819D01*
X141314577Y-131668664D01*
X141075529Y-132305560D01*
X141098407Y-132985454D01*
X141314577Y-133507336D01*
X141589213Y-133615181D01*
X142616395Y-132588000D01*
X142616395Y-132947210D01*
X141768819Y-133794787D01*
X141876664Y-134069423D01*
X142513560Y-134308471D01*
X143193454Y-134285593D01*
X143715336Y-134069423D01*
X143823181Y-133794787D01*
X143823181Y-139015000D01*
X140614620Y-139015000D01*
X140614620Y-120550890D01*
X140421682Y-120083942D01*
X140064737Y-119726374D01*
X139598127Y-119532621D01*
X139092890Y-119532180D01*
X138625942Y-119725118D01*
X138268374Y-120082063D01*
X138074621Y-120548673D01*
X138074180Y-121053910D01*
X138267118Y-121520858D01*
X138624063Y-121878426D01*
X139090673Y-122072179D01*
X139595910Y-122072620D01*
X140062858Y-121879682D01*
X140420426Y-121522737D01*
X140614179Y-121056127D01*
X140614620Y-120550890D01*
X140614620Y-139015000D01*
X138125420Y-139015000D01*
X138125420Y-123548090D01*
X137932482Y-123081142D01*
X137575537Y-122723574D01*
X137108927Y-122529821D01*
X136603690Y-122529380D01*
X136136742Y-122722318D01*
X135779174Y-123079263D01*
X135585421Y-123545873D01*
X135584980Y-124051110D01*
X135777918Y-124518058D01*
X136134863Y-124875626D01*
X136601473Y-125069379D01*
X137106710Y-125069820D01*
X137573658Y-124876882D01*
X137931226Y-124519937D01*
X138124979Y-124053327D01*
X138125420Y-123548090D01*
X138125420Y-139015000D01*
X134896000Y-139015000D01*
X134896000Y-96071000D01*
X134896000Y-94963000D01*
X134896000Y-94709000D01*
X134896000Y-93601000D01*
X134896000Y-88771000D01*
X134896000Y-87663000D01*
X133504269Y-87663000D01*
X133379538Y-87853609D01*
X133383408Y-87891281D01*
X133609920Y-88319474D01*
X133983053Y-88628390D01*
X134446000Y-88771000D01*
X134896000Y-88771000D01*
X134896000Y-93601000D01*
X134446000Y-93601000D01*
X133983053Y-93743610D01*
X133609920Y-94052526D01*
X133383408Y-94480719D01*
X133379538Y-94518391D01*
X133504269Y-94709000D01*
X134896000Y-94709000D01*
X134896000Y-94963000D01*
X133504269Y-94963000D01*
X133379538Y-95153609D01*
X133383408Y-95191281D01*
X133609920Y-95619474D01*
X133983053Y-95928390D01*
X134446000Y-96071000D01*
X134896000Y-96071000D01*
X134896000Y-139015000D01*
X131495000Y-139015000D01*
X131495000Y-87045000D01*
X133455202Y-87045000D01*
X133383408Y-87180719D01*
X133379538Y-87218391D01*
X133504269Y-87409000D01*
X134896000Y-87409000D01*
X134896000Y-87389000D01*
X135150000Y-87389000D01*
X135150000Y-87409000D01*
X136541731Y-87409000D01*
X136666462Y-87218391D01*
X136662592Y-87180719D01*
X136590797Y-87045000D01*
X138755202Y-87045000D01*
X138683408Y-87180719D01*
X138679538Y-87218391D01*
X138804269Y-87409000D01*
X140196000Y-87409000D01*
X140196000Y-87389000D01*
X140450000Y-87389000D01*
X140450000Y-87409000D01*
X141841731Y-87409000D01*
X141966462Y-87218391D01*
X141962592Y-87180719D01*
X141890797Y-87045000D01*
X166936964Y-87045000D01*
X166890960Y-87274400D01*
X166890960Y-89001600D01*
X166937937Y-89243723D01*
X167077727Y-89456527D01*
X167288760Y-89598977D01*
X167329659Y-89607179D01*
X167312971Y-89618330D01*
X166988115Y-90104511D01*
X166874041Y-90678000D01*
X166988115Y-91251489D01*
X167312971Y-91737670D01*
X167627751Y-91948000D01*
X167312971Y-92158330D01*
X166988115Y-92644511D01*
X166874041Y-93218000D01*
X166988115Y-93791489D01*
X167312971Y-94277670D01*
X167799152Y-94602526D01*
X168372641Y-94716600D01*
X168431359Y-94716600D01*
X169004848Y-94602526D01*
X169491029Y-94277670D01*
X169671992Y-94006839D01*
X170053510Y-94424821D01*
X170582973Y-94672968D01*
X170815000Y-94552469D01*
X170815000Y-93345000D01*
X170795000Y-93345000D01*
X170795000Y-93091000D01*
X170815000Y-93091000D01*
X170815000Y-93071000D01*
X171069000Y-93071000D01*
X171069000Y-93091000D01*
X171089000Y-93091000D01*
X171089000Y-93345000D01*
X171069000Y-93345000D01*
X171069000Y-94552469D01*
X171301027Y-94672968D01*
X171830490Y-94424821D01*
X172224688Y-93992947D01*
X172335513Y-93725375D01*
X172361714Y-93751622D01*
X172758332Y-93916313D01*
X173187784Y-93916687D01*
X173584689Y-93752689D01*
X173888622Y-93449286D01*
X174053313Y-93052668D01*
X174053687Y-92623216D01*
X173889689Y-92226311D01*
X173586286Y-91922378D01*
X173189668Y-91757687D01*
X172760216Y-91757313D01*
X172363311Y-91921311D01*
X172059378Y-92224714D01*
X172048752Y-92250302D01*
X171830490Y-92011179D01*
X171707771Y-91953663D01*
X172031029Y-91737670D01*
X172355885Y-91251489D01*
X172469959Y-90678000D01*
X172355885Y-90104511D01*
X172031029Y-89618330D01*
X171716248Y-89408000D01*
X172031029Y-89197670D01*
X172355885Y-88711489D01*
X172469959Y-88138000D01*
X172355885Y-87564511D01*
X172031029Y-87078330D01*
X171981147Y-87045000D01*
X172621401Y-87045000D01*
X172605960Y-87122000D01*
X172605960Y-89154000D01*
X172652937Y-89396123D01*
X172792727Y-89608927D01*
X173003760Y-89751377D01*
X173253400Y-89801440D01*
X174980600Y-89801440D01*
X175222723Y-89754463D01*
X175435527Y-89614673D01*
X175577977Y-89403640D01*
X175585718Y-89365037D01*
X175597330Y-89382415D01*
X176083511Y-89707271D01*
X176657000Y-89821345D01*
X177230489Y-89707271D01*
X177716670Y-89382415D01*
X177927000Y-89067634D01*
X178137330Y-89382415D01*
X178623511Y-89707271D01*
X179197000Y-89821345D01*
X179770489Y-89707271D01*
X180256670Y-89382415D01*
X180463460Y-89072930D01*
X180834964Y-89488732D01*
X181362209Y-89742709D01*
X181377974Y-89745358D01*
X181610000Y-89624217D01*
X181610000Y-88265000D01*
X181590000Y-88265000D01*
X181590000Y-88011000D01*
X181610000Y-88011000D01*
X181610000Y-87991000D01*
X181864000Y-87991000D01*
X181864000Y-88011000D01*
X183077924Y-88011000D01*
X183222184Y-87776087D01*
X183028954Y-87223680D01*
X182869310Y-87045000D01*
X195296264Y-87045000D01*
X196165000Y-87913736D01*
X196165000Y-99060000D01*
X196217143Y-99322138D01*
X196365632Y-99544368D01*
X198705000Y-101883736D01*
X198705000Y-110675844D01*
X198586337Y-110556974D01*
X198119727Y-110363221D01*
X197614490Y-110362780D01*
X197147542Y-110555718D01*
X196789974Y-110912663D01*
X196596221Y-111379273D01*
X196596219Y-111381487D01*
X196403282Y-110914542D01*
X196046337Y-110556974D01*
X196024687Y-110547984D01*
X196024687Y-108498216D01*
X195860689Y-108101311D01*
X195557286Y-107797378D01*
X195160668Y-107632687D01*
X194756866Y-107632335D01*
X194541286Y-107416378D01*
X194144668Y-107251687D01*
X193715216Y-107251313D01*
X193318311Y-107415311D01*
X193014378Y-107718714D01*
X192849687Y-108115332D01*
X192849313Y-108544784D01*
X193013311Y-108941689D01*
X193316714Y-109245622D01*
X193713332Y-109410313D01*
X194117133Y-109410664D01*
X194332714Y-109626622D01*
X194729332Y-109791313D01*
X195158784Y-109791687D01*
X195555689Y-109627689D01*
X195859622Y-109324286D01*
X196024313Y-108927668D01*
X196024687Y-108498216D01*
X196024687Y-110547984D01*
X195579727Y-110363221D01*
X195074490Y-110362780D01*
X194607542Y-110555718D01*
X194249974Y-110912663D01*
X194056221Y-111379273D01*
X194055780Y-111884510D01*
X194248718Y-112351458D01*
X194605663Y-112709026D01*
X195072273Y-112902779D01*
X195074487Y-112902780D01*
X194607542Y-113095718D01*
X194249974Y-113452663D01*
X194056221Y-113919273D01*
X194055780Y-114424510D01*
X194248718Y-114891458D01*
X194605663Y-115249026D01*
X195072273Y-115442779D01*
X195074487Y-115442780D01*
X194607542Y-115635718D01*
X194249974Y-115992663D01*
X194056221Y-116459273D01*
X194055780Y-116964510D01*
X194248718Y-117431458D01*
X194605663Y-117789026D01*
X195072273Y-117982779D01*
X195074487Y-117982780D01*
X194607542Y-118175718D01*
X194249974Y-118532663D01*
X194056221Y-118999273D01*
X194055780Y-119504510D01*
X194248718Y-119971458D01*
X194605663Y-120329026D01*
X195072273Y-120522779D01*
X195074487Y-120522780D01*
X194607542Y-120715718D01*
X194249974Y-121072663D01*
X194056221Y-121539273D01*
X194055780Y-122044510D01*
X194248718Y-122511458D01*
X194605663Y-122869026D01*
X195072273Y-123062779D01*
X195289070Y-123062968D01*
X194998977Y-123080094D01*
X194671303Y-123215821D01*
X194617472Y-123444867D01*
X195326000Y-124153395D01*
X196034528Y-123444867D01*
X195980697Y-123215821D01*
X195540453Y-123063187D01*
X195577510Y-123063220D01*
X196044458Y-122870282D01*
X196402026Y-122513337D01*
X196595779Y-122046727D01*
X196595780Y-122044512D01*
X196788718Y-122511458D01*
X197145663Y-122869026D01*
X197612273Y-123062779D01*
X197614487Y-123062780D01*
X197147542Y-123255718D01*
X196789974Y-123612663D01*
X196596221Y-124079273D01*
X196596031Y-124296070D01*
X196578906Y-124005977D01*
X196443179Y-123678303D01*
X196214133Y-123624472D01*
X195505605Y-124333000D01*
X196214133Y-125041528D01*
X196443179Y-124987697D01*
X196595812Y-124547453D01*
X196595780Y-124584510D01*
X196788718Y-125051458D01*
X197145663Y-125409026D01*
X197612273Y-125602779D01*
X197614487Y-125602780D01*
X197147542Y-125795718D01*
X196789974Y-126152663D01*
X196596221Y-126619273D01*
X196596031Y-126836070D01*
X196578906Y-126545977D01*
X196443179Y-126218303D01*
X196214133Y-126164472D01*
X196034528Y-126344077D01*
X196034528Y-125984867D01*
X195980697Y-125755821D01*
X195514239Y-125594099D01*
X195653023Y-125585906D01*
X195980697Y-125450179D01*
X196034528Y-125221133D01*
X195326000Y-124512605D01*
X195146395Y-124692210D01*
X195146395Y-124333000D01*
X194437867Y-123624472D01*
X194208821Y-123678303D01*
X194142976Y-123868218D01*
X194082689Y-123722311D01*
X193779286Y-123418378D01*
X193382668Y-123253687D01*
X192953216Y-123253313D01*
X192556311Y-123417311D01*
X192252378Y-123720714D01*
X192087687Y-124117332D01*
X192087313Y-124546784D01*
X192251311Y-124943689D01*
X192554714Y-125247622D01*
X192951332Y-125412313D01*
X193380784Y-125412687D01*
X193777689Y-125248689D01*
X194081622Y-124945286D01*
X194136505Y-124813112D01*
X194208821Y-124987697D01*
X194437867Y-125041528D01*
X195146395Y-124333000D01*
X195146395Y-124692210D01*
X194617472Y-125221133D01*
X194671303Y-125450179D01*
X195137760Y-125611900D01*
X194998977Y-125620094D01*
X194671303Y-125755821D01*
X194617472Y-125984867D01*
X195326000Y-126693395D01*
X196034528Y-125984867D01*
X196034528Y-126344077D01*
X195505605Y-126873000D01*
X196214133Y-127581528D01*
X196443179Y-127527697D01*
X196595812Y-127087453D01*
X196595780Y-127124510D01*
X196788718Y-127591458D01*
X197145663Y-127949026D01*
X197612273Y-128142779D01*
X197614487Y-128142780D01*
X197147542Y-128335718D01*
X196789974Y-128692663D01*
X196596221Y-129159273D01*
X196596031Y-129376070D01*
X196578906Y-129085977D01*
X196443179Y-128758303D01*
X196214133Y-128704472D01*
X196034528Y-128884077D01*
X196034528Y-128524867D01*
X195980697Y-128295821D01*
X195514239Y-128134099D01*
X195653023Y-128125906D01*
X195980697Y-127990179D01*
X196034528Y-127761133D01*
X195326000Y-127052605D01*
X195146395Y-127232210D01*
X195146395Y-126873000D01*
X194437867Y-126164472D01*
X194208821Y-126218303D01*
X194043319Y-126695664D01*
X194073094Y-127200023D01*
X194208821Y-127527697D01*
X194437867Y-127581528D01*
X195146395Y-126873000D01*
X195146395Y-127232210D01*
X194617472Y-127761133D01*
X194671303Y-127990179D01*
X195137760Y-128151900D01*
X194998977Y-128160094D01*
X194671303Y-128295821D01*
X194617472Y-128524867D01*
X195326000Y-129233395D01*
X196034528Y-128524867D01*
X196034528Y-128884077D01*
X195505605Y-129413000D01*
X196214133Y-130121528D01*
X196443179Y-130067697D01*
X196595812Y-129627453D01*
X196595780Y-129664510D01*
X196788718Y-130131458D01*
X197145663Y-130489026D01*
X197612273Y-130682779D01*
X198117510Y-130683220D01*
X198584458Y-130490282D01*
X198705000Y-130369950D01*
X198705000Y-134336264D01*
M02*
