G04 #@! TF.FileFunction,Legend,Bot*
%FSLAX46Y46*%
G04 Gerber Fmt 4.6, Leading zero omitted, Abs format (unit mm)*
G04 Created by KiCad (PCBNEW (2015-01-06 BZR 5261)-product) date Thursday, April 09, 2015 'PMt' 11:27:51 PM*
%MOMM*%
G01*
G04 APERTURE LIST*
%ADD10C,0.152400*%
%ADD11C,0.250000*%
%ADD12C,0.150000*%
G04 APERTURE END LIST*
D10*
D11*
X131739714Y-129239618D02*
X131739714Y-129620570D01*
X131406381Y-129382475D02*
X132263524Y-129382475D01*
X132358762Y-129430094D01*
X132406381Y-129525332D01*
X132406381Y-129620570D01*
X132406381Y-130382476D02*
X131882571Y-130382476D01*
X131787333Y-130334857D01*
X131739714Y-130239619D01*
X131739714Y-130049142D01*
X131787333Y-129953904D01*
X132358762Y-130382476D02*
X132406381Y-130287238D01*
X132406381Y-130049142D01*
X132358762Y-129953904D01*
X132263524Y-129906285D01*
X132168286Y-129906285D01*
X132073048Y-129953904D01*
X132025429Y-130049142D01*
X132025429Y-130287238D01*
X131977810Y-130382476D01*
X131739714Y-130858666D02*
X132739714Y-130858666D01*
X131787333Y-130858666D02*
X131739714Y-130953904D01*
X131739714Y-131144381D01*
X131787333Y-131239619D01*
X131834952Y-131287238D01*
X131930190Y-131334857D01*
X132215905Y-131334857D01*
X132311143Y-131287238D01*
X132358762Y-131239619D01*
X132406381Y-131144381D01*
X132406381Y-130953904D01*
X132358762Y-130858666D01*
X132406381Y-131763428D02*
X131406381Y-131763428D01*
X132120667Y-132096762D01*
X131406381Y-132430095D01*
X132406381Y-132430095D01*
X132406381Y-133334857D02*
X131882571Y-133334857D01*
X131787333Y-133287238D01*
X131739714Y-133192000D01*
X131739714Y-133001523D01*
X131787333Y-132906285D01*
X132358762Y-133334857D02*
X132406381Y-133239619D01*
X132406381Y-133001523D01*
X132358762Y-132906285D01*
X132263524Y-132858666D01*
X132168286Y-132858666D01*
X132073048Y-132906285D01*
X132025429Y-133001523D01*
X132025429Y-133239619D01*
X131977810Y-133334857D01*
X131739714Y-133668190D02*
X131739714Y-134049142D01*
X131406381Y-133811047D02*
X132263524Y-133811047D01*
X132358762Y-133858666D01*
X132406381Y-133953904D01*
X132406381Y-134049142D01*
X132406381Y-134382476D02*
X131739714Y-134382476D01*
X131930190Y-134382476D02*
X131834952Y-134430095D01*
X131787333Y-134477714D01*
X131739714Y-134572952D01*
X131739714Y-134668191D01*
X132406381Y-135001524D02*
X131739714Y-135001524D01*
X131406381Y-135001524D02*
X131454000Y-134953905D01*
X131501619Y-135001524D01*
X131454000Y-135049143D01*
X131406381Y-135001524D01*
X131501619Y-135001524D01*
X132406381Y-135382476D02*
X131739714Y-135906286D01*
X131739714Y-135382476D02*
X132406381Y-135906286D01*
X131406381Y-137239619D02*
X131406381Y-137334858D01*
X131454000Y-137430096D01*
X131501619Y-137477715D01*
X131596857Y-137525334D01*
X131787333Y-137572953D01*
X132025429Y-137572953D01*
X132215905Y-137525334D01*
X132311143Y-137477715D01*
X132358762Y-137430096D01*
X132406381Y-137334858D01*
X132406381Y-137239619D01*
X132358762Y-137144381D01*
X132311143Y-137096762D01*
X132215905Y-137049143D01*
X132025429Y-137001524D01*
X131787333Y-137001524D01*
X131596857Y-137049143D01*
X131501619Y-137096762D01*
X131454000Y-137144381D01*
X131406381Y-137239619D01*
X132311143Y-138001524D02*
X132358762Y-138049143D01*
X132406381Y-138001524D01*
X132358762Y-137953905D01*
X132311143Y-138001524D01*
X132406381Y-138001524D01*
X131406381Y-138953905D02*
X131406381Y-138477714D01*
X131882571Y-138430095D01*
X131834952Y-138477714D01*
X131787333Y-138572952D01*
X131787333Y-138811048D01*
X131834952Y-138906286D01*
X131882571Y-138953905D01*
X131977810Y-139001524D01*
X132215905Y-139001524D01*
X132311143Y-138953905D01*
X132358762Y-138906286D01*
X132406381Y-138811048D01*
X132406381Y-138572952D01*
X132358762Y-138477714D01*
X132311143Y-138430095D01*
X134056381Y-122334856D02*
X133580190Y-122001522D01*
X134056381Y-121763427D02*
X133056381Y-121763427D01*
X133056381Y-122144380D01*
X133104000Y-122239618D01*
X133151619Y-122287237D01*
X133246857Y-122334856D01*
X133389714Y-122334856D01*
X133484952Y-122287237D01*
X133532571Y-122239618D01*
X133580190Y-122144380D01*
X133580190Y-121763427D01*
X134008762Y-123144380D02*
X134056381Y-123049142D01*
X134056381Y-122858665D01*
X134008762Y-122763427D01*
X133913524Y-122715808D01*
X133532571Y-122715808D01*
X133437333Y-122763427D01*
X133389714Y-122858665D01*
X133389714Y-123049142D01*
X133437333Y-123144380D01*
X133532571Y-123191999D01*
X133627810Y-123191999D01*
X133723048Y-122715808D01*
X134008762Y-123572951D02*
X134056381Y-123668189D01*
X134056381Y-123858665D01*
X134008762Y-123953904D01*
X133913524Y-124001523D01*
X133865905Y-124001523D01*
X133770667Y-123953904D01*
X133723048Y-123858665D01*
X133723048Y-123715808D01*
X133675429Y-123620570D01*
X133580190Y-123572951D01*
X133532571Y-123572951D01*
X133437333Y-123620570D01*
X133389714Y-123715808D01*
X133389714Y-123858665D01*
X133437333Y-123953904D01*
X133389714Y-124430094D02*
X134389714Y-124430094D01*
X133437333Y-124430094D02*
X133389714Y-124525332D01*
X133389714Y-124715809D01*
X133437333Y-124811047D01*
X133484952Y-124858666D01*
X133580190Y-124906285D01*
X133865905Y-124906285D01*
X133961143Y-124858666D01*
X134008762Y-124811047D01*
X134056381Y-124715809D01*
X134056381Y-124525332D01*
X134008762Y-124430094D01*
X134056381Y-125477713D02*
X134008762Y-125382475D01*
X133961143Y-125334856D01*
X133865905Y-125287237D01*
X133580190Y-125287237D01*
X133484952Y-125334856D01*
X133437333Y-125382475D01*
X133389714Y-125477713D01*
X133389714Y-125620571D01*
X133437333Y-125715809D01*
X133484952Y-125763428D01*
X133580190Y-125811047D01*
X133865905Y-125811047D01*
X133961143Y-125763428D01*
X134008762Y-125715809D01*
X134056381Y-125620571D01*
X134056381Y-125477713D01*
X133389714Y-126239618D02*
X134056381Y-126239618D01*
X133484952Y-126239618D02*
X133437333Y-126287237D01*
X133389714Y-126382475D01*
X133389714Y-126525333D01*
X133437333Y-126620571D01*
X133532571Y-126668190D01*
X134056381Y-126668190D01*
X134008762Y-127096761D02*
X134056381Y-127191999D01*
X134056381Y-127382475D01*
X134008762Y-127477714D01*
X133913524Y-127525333D01*
X133865905Y-127525333D01*
X133770667Y-127477714D01*
X133723048Y-127382475D01*
X133723048Y-127239618D01*
X133675429Y-127144380D01*
X133580190Y-127096761D01*
X133532571Y-127096761D01*
X133437333Y-127144380D01*
X133389714Y-127239618D01*
X133389714Y-127382475D01*
X133437333Y-127477714D01*
X134056381Y-127953904D02*
X133389714Y-127953904D01*
X133056381Y-127953904D02*
X133104000Y-127906285D01*
X133151619Y-127953904D01*
X133104000Y-128001523D01*
X133056381Y-127953904D01*
X133151619Y-127953904D01*
X133389714Y-128334856D02*
X134056381Y-128572951D01*
X133389714Y-128811047D01*
X134008762Y-129572952D02*
X134056381Y-129477714D01*
X134056381Y-129287237D01*
X134008762Y-129191999D01*
X133913524Y-129144380D01*
X133532571Y-129144380D01*
X133437333Y-129191999D01*
X133389714Y-129287237D01*
X133389714Y-129477714D01*
X133437333Y-129572952D01*
X133532571Y-129620571D01*
X133627810Y-129620571D01*
X133723048Y-129144380D01*
X134056381Y-130811047D02*
X133056381Y-130811047D01*
X133056381Y-131049142D01*
X133104000Y-131192000D01*
X133199238Y-131287238D01*
X133294476Y-131334857D01*
X133484952Y-131382476D01*
X133627810Y-131382476D01*
X133818286Y-131334857D01*
X133913524Y-131287238D01*
X134008762Y-131192000D01*
X134056381Y-131049142D01*
X134056381Y-130811047D01*
X134008762Y-132192000D02*
X134056381Y-132096762D01*
X134056381Y-131906285D01*
X134008762Y-131811047D01*
X133913524Y-131763428D01*
X133532571Y-131763428D01*
X133437333Y-131811047D01*
X133389714Y-131906285D01*
X133389714Y-132096762D01*
X133437333Y-132192000D01*
X133532571Y-132239619D01*
X133627810Y-132239619D01*
X133723048Y-131763428D01*
X133389714Y-132572952D02*
X134056381Y-132811047D01*
X133389714Y-133049143D01*
X134056381Y-133430095D02*
X133389714Y-133430095D01*
X133056381Y-133430095D02*
X133104000Y-133382476D01*
X133151619Y-133430095D01*
X133104000Y-133477714D01*
X133056381Y-133430095D01*
X133151619Y-133430095D01*
X134008762Y-134334857D02*
X134056381Y-134239619D01*
X134056381Y-134049142D01*
X134008762Y-133953904D01*
X133961143Y-133906285D01*
X133865905Y-133858666D01*
X133580190Y-133858666D01*
X133484952Y-133906285D01*
X133437333Y-133953904D01*
X133389714Y-134049142D01*
X133389714Y-134239619D01*
X133437333Y-134334857D01*
X134008762Y-135144381D02*
X134056381Y-135049143D01*
X134056381Y-134858666D01*
X134008762Y-134763428D01*
X133913524Y-134715809D01*
X133532571Y-134715809D01*
X133437333Y-134763428D01*
X133389714Y-134858666D01*
X133389714Y-135049143D01*
X133437333Y-135144381D01*
X133532571Y-135192000D01*
X133627810Y-135192000D01*
X133723048Y-134715809D01*
X134008762Y-135572952D02*
X134056381Y-135668190D01*
X134056381Y-135858666D01*
X134008762Y-135953905D01*
X133913524Y-136001524D01*
X133865905Y-136001524D01*
X133770667Y-135953905D01*
X133723048Y-135858666D01*
X133723048Y-135715809D01*
X133675429Y-135620571D01*
X133580190Y-135572952D01*
X133532571Y-135572952D01*
X133437333Y-135620571D01*
X133389714Y-135715809D01*
X133389714Y-135858666D01*
X133437333Y-135953905D01*
X134056381Y-137192000D02*
X133056381Y-137192000D01*
X133389714Y-137668190D02*
X134056381Y-137668190D01*
X133484952Y-137668190D02*
X133437333Y-137715809D01*
X133389714Y-137811047D01*
X133389714Y-137953905D01*
X133437333Y-138049143D01*
X133532571Y-138096762D01*
X134056381Y-138096762D01*
X134008762Y-139001524D02*
X134056381Y-138906286D01*
X134056381Y-138715809D01*
X134008762Y-138620571D01*
X133961143Y-138572952D01*
X133865905Y-138525333D01*
X133580190Y-138525333D01*
X133484952Y-138572952D01*
X133437333Y-138620571D01*
X133389714Y-138715809D01*
X133389714Y-138906286D01*
X133437333Y-139001524D01*
X135420667Y-131430094D02*
X135420667Y-131906285D01*
X135706381Y-131334856D02*
X134706381Y-131668189D01*
X135706381Y-132001523D01*
X135039714Y-132334856D02*
X136039714Y-132334856D01*
X135087333Y-132334856D02*
X135039714Y-132430094D01*
X135039714Y-132620571D01*
X135087333Y-132715809D01*
X135134952Y-132763428D01*
X135230190Y-132811047D01*
X135515905Y-132811047D01*
X135611143Y-132763428D01*
X135658762Y-132715809D01*
X135706381Y-132620571D01*
X135706381Y-132430094D01*
X135658762Y-132334856D01*
X135706381Y-133239618D02*
X135039714Y-133239618D01*
X135230190Y-133239618D02*
X135134952Y-133287237D01*
X135087333Y-133334856D01*
X135039714Y-133430094D01*
X135039714Y-133525333D01*
X135706381Y-133858666D02*
X135039714Y-133858666D01*
X134706381Y-133858666D02*
X134754000Y-133811047D01*
X134801619Y-133858666D01*
X134754000Y-133906285D01*
X134706381Y-133858666D01*
X134801619Y-133858666D01*
X135706381Y-134477713D02*
X135658762Y-134382475D01*
X135563524Y-134334856D01*
X134706381Y-134334856D01*
X134801619Y-135572952D02*
X134754000Y-135620571D01*
X134706381Y-135715809D01*
X134706381Y-135953905D01*
X134754000Y-136049143D01*
X134801619Y-136096762D01*
X134896857Y-136144381D01*
X134992095Y-136144381D01*
X135134952Y-136096762D01*
X135706381Y-135525333D01*
X135706381Y-136144381D01*
X134706381Y-136763428D02*
X134706381Y-136858667D01*
X134754000Y-136953905D01*
X134801619Y-137001524D01*
X134896857Y-137049143D01*
X135087333Y-137096762D01*
X135325429Y-137096762D01*
X135515905Y-137049143D01*
X135611143Y-137001524D01*
X135658762Y-136953905D01*
X135706381Y-136858667D01*
X135706381Y-136763428D01*
X135658762Y-136668190D01*
X135611143Y-136620571D01*
X135515905Y-136572952D01*
X135325429Y-136525333D01*
X135087333Y-136525333D01*
X134896857Y-136572952D01*
X134801619Y-136620571D01*
X134754000Y-136668190D01*
X134706381Y-136763428D01*
X135706381Y-138049143D02*
X135706381Y-137477714D01*
X135706381Y-137763428D02*
X134706381Y-137763428D01*
X134849238Y-137668190D01*
X134944476Y-137572952D01*
X134992095Y-137477714D01*
X134706381Y-138953905D02*
X134706381Y-138477714D01*
X135182571Y-138430095D01*
X135134952Y-138477714D01*
X135087333Y-138572952D01*
X135087333Y-138811048D01*
X135134952Y-138906286D01*
X135182571Y-138953905D01*
X135277810Y-139001524D01*
X135515905Y-139001524D01*
X135611143Y-138953905D01*
X135658762Y-138906286D01*
X135706381Y-138811048D01*
X135706381Y-138572952D01*
X135658762Y-138477714D01*
X135611143Y-138430095D01*
D12*
X146477000Y-115967000D02*
X131477000Y-115967000D01*
X131477000Y-115967000D02*
X131477000Y-104967000D01*
X131477000Y-104967000D02*
X137977000Y-104967000D01*
X137977000Y-104967000D02*
X140477000Y-106967000D01*
X140477000Y-106967000D02*
X146477000Y-106967000D01*
X146477000Y-106967000D02*
X146477000Y-115967000D01*
X163830000Y-88138000D02*
G75*
G02X148590000Y-88138000I-7620000J7620000D01*
G01*
X163830000Y-88138000D02*
G75*
G02X166370000Y-90678000I0J-2540000D01*
G01*
X146050000Y-90678000D02*
G75*
G02X148590000Y-88138000I2540000J0D01*
G01*
X146050000Y-95758000D02*
X146050000Y-90678000D01*
X166370000Y-95758000D02*
X166370000Y-90678000D01*
X156210000Y-108458000D02*
X152400000Y-108458000D01*
X152400000Y-108458000D02*
X146050000Y-102108000D01*
X146050000Y-102108000D02*
X146050000Y-95758000D01*
X146050000Y-95758000D02*
X140970000Y-95758000D01*
X140970000Y-95758000D02*
X140970000Y-100838000D01*
X140970000Y-100838000D02*
X146050000Y-100838000D01*
X166370000Y-100838000D02*
X167640000Y-100838000D01*
X156210000Y-108458000D02*
X160020000Y-108458000D01*
X160020000Y-108458000D02*
X166370000Y-102108000D01*
X166370000Y-102108000D02*
X166370000Y-100838000D01*
X171450000Y-95758000D02*
X171450000Y-100838000D01*
X171450000Y-100838000D02*
X167640000Y-100838000D01*
X166370000Y-100838000D02*
X166370000Y-95758000D01*
X166370000Y-95758000D02*
X171450000Y-95758000D01*
X156845000Y-128651000D02*
G75*
G03X156845000Y-128651000I-127000J0D01*
G01*
X157734000Y-125095000D02*
X156718000Y-126111000D01*
X156718000Y-126111000D02*
X146812000Y-126111000D01*
X146812000Y-126111000D02*
X146812000Y-118745000D01*
X146812000Y-118745000D02*
X157734000Y-118745000D01*
X157734000Y-118745000D02*
X157734000Y-125095000D01*
X159892905Y-121880381D02*
X159892905Y-122689905D01*
X159845286Y-122785143D01*
X159797667Y-122832762D01*
X159702429Y-122880381D01*
X159511952Y-122880381D01*
X159416714Y-122832762D01*
X159369095Y-122785143D01*
X159321476Y-122689905D01*
X159321476Y-121880381D01*
X158416714Y-121880381D02*
X158607191Y-121880381D01*
X158702429Y-121928000D01*
X158750048Y-121975619D01*
X158845286Y-122118476D01*
X158892905Y-122308952D01*
X158892905Y-122689905D01*
X158845286Y-122785143D01*
X158797667Y-122832762D01*
X158702429Y-122880381D01*
X158511952Y-122880381D01*
X158416714Y-122832762D01*
X158369095Y-122785143D01*
X158321476Y-122689905D01*
X158321476Y-122451810D01*
X158369095Y-122356571D01*
X158416714Y-122308952D01*
X158511952Y-122261333D01*
X158702429Y-122261333D01*
X158797667Y-122308952D01*
X158845286Y-122356571D01*
X158892905Y-122451810D01*
M02*
