G04 #@! TF.FileFunction,Soldermask,Bot*
%FSLAX46Y46*%
G04 Gerber Fmt 4.6, Leading zero omitted, Abs format (unit mm)*
G04 Created by KiCad (PCBNEW (2015-01-06 BZR 5261)-product) date Thursday, April 09, 2015 'PMt' 11:27:51 PM*
%MOMM*%
G01*
G04 APERTURE LIST*
%ADD10C,0.152400*%
%ADD11C,1.270000*%
%ADD12C,2.150000*%
%ADD13R,1.727200X2.032000*%
%ADD14O,1.727200X2.032000*%
%ADD15R,2.032000X1.727200*%
%ADD16O,2.032000X1.727200*%
%ADD17R,2.032000X2.032000*%
%ADD18O,2.032000X2.032000*%
%ADD19O,2.100000X1.200000*%
%ADD20C,0.900000*%
%ADD21R,1.750000X0.700000*%
%ADD22R,1.500000X1.500000*%
%ADD23R,1.500000X0.800000*%
%ADD24R,1.400000X0.800000*%
%ADD25R,1.550000X1.000000*%
%ADD26R,1.000000X1.450000*%
%ADD27R,1.727200X1.727200*%
%ADD28O,1.727200X1.727200*%
%ADD29R,6.096000X6.096000*%
%ADD30R,0.590000X2.050000*%
G04 APERTURE END LIST*
D10*
D11*
X195326000Y-129413000D03*
X197866000Y-129413000D03*
X195326000Y-126873000D03*
X197866000Y-126873000D03*
X195326000Y-124333000D03*
X197866000Y-124333000D03*
X195326000Y-121793000D03*
X197866000Y-121793000D03*
X195326000Y-119253000D03*
X197866000Y-119253000D03*
X195326000Y-116713000D03*
X197866000Y-116713000D03*
X195326000Y-114173000D03*
X197866000Y-114173000D03*
X195326000Y-111633000D03*
X197866000Y-111633000D03*
D12*
X142796000Y-132588000D03*
X148796000Y-132588000D03*
X145796000Y-137288000D03*
D13*
X150622000Y-137033000D03*
D14*
X153162000Y-137033000D03*
X155702000Y-137033000D03*
X158242000Y-137033000D03*
X160782000Y-137033000D03*
X163322000Y-137033000D03*
D13*
X169926000Y-137033000D03*
D14*
X172466000Y-137033000D03*
X175006000Y-137033000D03*
X177546000Y-137033000D03*
X180086000Y-137033000D03*
X182626000Y-137033000D03*
X185166000Y-137033000D03*
X187706000Y-137033000D03*
X190246000Y-137033000D03*
X192786000Y-137033000D03*
D15*
X184912000Y-91821000D03*
D16*
X184912000Y-94361000D03*
X184912000Y-96901000D03*
X184912000Y-99441000D03*
D17*
X184912000Y-105664000D03*
D18*
X184912000Y-103124000D03*
D19*
X140323000Y-87536000D03*
X140323000Y-94836000D03*
X135023000Y-94836000D03*
X135023000Y-87536000D03*
D20*
X138323000Y-89436000D03*
X138323000Y-92936000D03*
D21*
X134977000Y-106067000D03*
X134977000Y-107167000D03*
X134977000Y-108267000D03*
X134977000Y-109367000D03*
X134977000Y-110467000D03*
X134977000Y-111567000D03*
X134977000Y-112667000D03*
X134977000Y-113767000D03*
D22*
X135077000Y-115067000D03*
X135077000Y-103617000D03*
D23*
X142757000Y-115417000D03*
D24*
X143327000Y-103267000D03*
D25*
X145727000Y-103617000D03*
D26*
X144227000Y-115117000D03*
D27*
X168402000Y-88138000D03*
D28*
X170942000Y-88138000D03*
X168402000Y-90678000D03*
X170942000Y-90678000D03*
X168402000Y-93218000D03*
X170942000Y-93218000D03*
D29*
X156210000Y-98298000D03*
X169164000Y-98298000D03*
X143256000Y-98298000D03*
D30*
X156718000Y-127127000D03*
X155448000Y-127127000D03*
X154178000Y-127127000D03*
X152908000Y-127127000D03*
X151638000Y-127127000D03*
X150368000Y-127127000D03*
X149098000Y-127127000D03*
X147828000Y-127127000D03*
X147828000Y-117817000D03*
X149098000Y-117817000D03*
X150368000Y-117817000D03*
X151638000Y-117817000D03*
X152908000Y-117817000D03*
X154178000Y-117817000D03*
X155448000Y-117817000D03*
X156718000Y-117817000D03*
D13*
X174117000Y-88138000D03*
D14*
X176657000Y-88138000D03*
X179197000Y-88138000D03*
X181737000Y-88138000D03*
M02*
