G04 #@! TF.FileFunction,Copper,L4,Bot,Signal*
%FSLAX46Y46*%
G04 Gerber Fmt 4.6, Leading zero omitted, Abs format (unit mm)*
G04 Created by KiCad (PCBNEW (2015-01-06 BZR 5261)-product) date Thursday, April 09, 2015 'PMt' 11:27:51 PM*
%MOMM*%
G01*
G04 APERTURE LIST*
%ADD10C,0.152400*%
%ADD11C,1.270000*%
%ADD12C,2.150000*%
%ADD13R,1.727200X2.032000*%
%ADD14O,1.727200X2.032000*%
%ADD15R,2.032000X1.727200*%
%ADD16O,2.032000X1.727200*%
%ADD17R,2.032000X2.032000*%
%ADD18O,2.032000X2.032000*%
%ADD19O,2.100000X1.200000*%
%ADD20C,0.900000*%
%ADD21R,1.750000X0.700000*%
%ADD22R,1.500000X1.500000*%
%ADD23R,1.500000X0.800000*%
%ADD24R,1.400000X0.800000*%
%ADD25R,1.550000X1.000000*%
%ADD26R,1.000000X1.450000*%
%ADD27R,1.727200X1.727200*%
%ADD28O,1.727200X1.727200*%
%ADD29R,6.096000X6.096000*%
%ADD30R,0.590000X2.050000*%
%ADD31C,0.889000*%
%ADD32C,0.355600*%
%ADD33C,0.762000*%
%ADD34C,0.254000*%
G04 APERTURE END LIST*
D10*
D11*
X195326000Y-129413000D03*
X197866000Y-129413000D03*
X195326000Y-126873000D03*
X197866000Y-126873000D03*
X195326000Y-124333000D03*
X197866000Y-124333000D03*
X195326000Y-121793000D03*
X197866000Y-121793000D03*
X195326000Y-119253000D03*
X197866000Y-119253000D03*
X195326000Y-116713000D03*
X197866000Y-116713000D03*
X195326000Y-114173000D03*
X197866000Y-114173000D03*
X195326000Y-111633000D03*
X197866000Y-111633000D03*
D12*
X142796000Y-132588000D03*
X148796000Y-132588000D03*
X145796000Y-137288000D03*
D13*
X150622000Y-137033000D03*
D14*
X153162000Y-137033000D03*
X155702000Y-137033000D03*
X158242000Y-137033000D03*
X160782000Y-137033000D03*
X163322000Y-137033000D03*
D13*
X169926000Y-137033000D03*
D14*
X172466000Y-137033000D03*
X175006000Y-137033000D03*
X177546000Y-137033000D03*
X180086000Y-137033000D03*
X182626000Y-137033000D03*
X185166000Y-137033000D03*
X187706000Y-137033000D03*
X190246000Y-137033000D03*
X192786000Y-137033000D03*
D15*
X184912000Y-91821000D03*
D16*
X184912000Y-94361000D03*
X184912000Y-96901000D03*
X184912000Y-99441000D03*
D17*
X184912000Y-105664000D03*
D18*
X184912000Y-103124000D03*
D19*
X140323000Y-87536000D03*
X140323000Y-94836000D03*
X135023000Y-94836000D03*
X135023000Y-87536000D03*
D20*
X138323000Y-89436000D03*
X138323000Y-92936000D03*
D21*
X134977000Y-106067000D03*
X134977000Y-107167000D03*
X134977000Y-108267000D03*
X134977000Y-109367000D03*
X134977000Y-110467000D03*
X134977000Y-111567000D03*
X134977000Y-112667000D03*
X134977000Y-113767000D03*
D22*
X135077000Y-115067000D03*
X135077000Y-103617000D03*
D23*
X142757000Y-115417000D03*
D24*
X143327000Y-103267000D03*
D25*
X145727000Y-103617000D03*
D26*
X144227000Y-115117000D03*
D27*
X168402000Y-88138000D03*
D28*
X170942000Y-88138000D03*
X168402000Y-90678000D03*
X170942000Y-90678000D03*
X168402000Y-93218000D03*
X170942000Y-93218000D03*
D29*
X156210000Y-98298000D03*
X169164000Y-98298000D03*
X143256000Y-98298000D03*
D30*
X156718000Y-127127000D03*
X155448000Y-127127000D03*
X154178000Y-127127000D03*
X152908000Y-127127000D03*
X151638000Y-127127000D03*
X150368000Y-127127000D03*
X149098000Y-127127000D03*
X147828000Y-127127000D03*
X147828000Y-117817000D03*
X149098000Y-117817000D03*
X150368000Y-117817000D03*
X151638000Y-117817000D03*
X152908000Y-117817000D03*
X154178000Y-117817000D03*
X155448000Y-117817000D03*
X156718000Y-117817000D03*
D13*
X174117000Y-88138000D03*
D14*
X176657000Y-88138000D03*
X179197000Y-88138000D03*
X181737000Y-88138000D03*
D11*
X156718000Y-129667000D03*
X139344400Y-120802400D03*
X137414000Y-98094800D03*
X142290800Y-94030800D03*
X142392400Y-113944400D03*
X155346400Y-121666000D03*
X176936400Y-124561600D03*
X166776400Y-129692400D03*
X181203600Y-124612400D03*
X181965600Y-113233200D03*
X169367200Y-102870000D03*
X173685200Y-105257600D03*
X136855200Y-123799600D03*
X156159200Y-88696800D03*
X142646400Y-106375200D03*
X188925200Y-124612400D03*
X174091600Y-124506010D03*
X148717000Y-96774000D03*
X165354000Y-104267000D03*
X173434195Y-98506858D03*
X161243990Y-110363000D03*
D31*
X156768800Y-113690400D03*
X146558000Y-111887000D03*
X145669000Y-88011000D03*
X145542000Y-90678000D03*
X132715000Y-111252000D03*
X133477000Y-116840000D03*
X134620000Y-122936000D03*
X145034000Y-122555000D03*
X192278000Y-107950000D03*
X189103000Y-110490000D03*
X190754000Y-118999000D03*
X188112400Y-130708400D03*
X184200800Y-124815600D03*
X172669200Y-120700800D03*
X163728400Y-128778000D03*
X145491200Y-109372400D03*
X145694400Y-94183200D03*
X146253200Y-117805200D03*
X154940000Y-103835200D03*
X157480000Y-109169200D03*
X167640000Y-125120400D03*
X176936400Y-109829600D03*
X165709600Y-87782400D03*
X144018000Y-104800400D03*
X133553200Y-103632000D03*
X138633200Y-113588800D03*
X142646400Y-117094000D03*
X145846800Y-126644400D03*
X167944800Y-115570000D03*
X151003000Y-97282000D03*
X161036000Y-96139000D03*
X152273000Y-115443000D03*
X162306000Y-109220000D03*
X152400000Y-100711000D03*
X180594000Y-104648000D03*
X148971000Y-108331000D03*
X139192000Y-106426000D03*
X157226000Y-124206000D03*
X162941000Y-125730000D03*
X165227000Y-125730000D03*
X179578000Y-105029000D03*
X180340000Y-111379000D03*
X179451000Y-117221000D03*
X179451000Y-121158000D03*
X174244000Y-130810000D03*
X167259000Y-127127000D03*
X162560000Y-90424000D03*
X164465000Y-105791000D03*
X172974000Y-92837000D03*
X173098346Y-95503722D03*
X178562000Y-109728000D03*
X178308000Y-113030000D03*
X172847000Y-112141000D03*
X172720000Y-110617000D03*
X165354000Y-90170000D03*
X166116000Y-119888000D03*
X150241000Y-113538000D03*
X150622000Y-111252000D03*
X152146000Y-107696000D03*
X154686000Y-110236000D03*
X160274000Y-116713000D03*
X144145000Y-112395000D03*
X171577000Y-125730000D03*
X193167000Y-124333000D03*
X193929000Y-108331000D03*
X156845000Y-135001000D03*
X191770000Y-127127000D03*
X194945000Y-108712000D03*
X165354000Y-123698000D03*
X163576000Y-120777000D03*
X167509111Y-123701889D03*
X164465000Y-114554000D03*
X163449000Y-115316000D03*
X164465000Y-112776000D03*
X173482000Y-119380000D03*
X180721000Y-120523000D03*
X187071000Y-121031000D03*
X165354000Y-115316000D03*
X181610000Y-122047000D03*
X171196000Y-117475000D03*
X166116000Y-111633000D03*
X178054000Y-114808000D03*
X166243000Y-108204000D03*
X147828000Y-101600000D03*
X168529000Y-105727500D03*
X167513000Y-112395000D03*
X175768000Y-111379000D03*
X187579000Y-109601000D03*
X169418000Y-108077000D03*
X161163000Y-108331000D03*
X139065000Y-112141000D03*
X142748000Y-108458000D03*
X149352000Y-110871000D03*
X149860000Y-115443000D03*
X140716000Y-116840000D03*
X179832000Y-106807000D03*
X182372000Y-108839000D03*
X137541000Y-102489000D03*
X155448000Y-91313000D03*
X158635231Y-127876769D03*
X166814500Y-134874000D03*
X165862000Y-130873500D03*
X170307000Y-105664000D03*
X165227000Y-138684000D03*
X159512000Y-120015000D03*
X161798000Y-118999000D03*
X137541000Y-109601000D03*
X178663600Y-94335600D03*
X168097200Y-102260400D03*
X162509200Y-104952800D03*
X157073600Y-104800400D03*
X156337000Y-93345000D03*
X161290000Y-93599000D03*
D32*
X156718000Y-129127000D02*
X156718000Y-129667000D01*
X155448000Y-127127000D02*
X155448000Y-127857000D01*
X155448000Y-127857000D02*
X156718000Y-129127000D01*
D33*
X142290800Y-94030800D02*
X142138400Y-94030800D01*
D34*
X152908000Y-117817000D02*
X151638000Y-117817000D01*
X151638000Y-117817000D02*
X150368000Y-117817000D01*
X150368000Y-117817000D02*
X149098000Y-117817000D01*
X146265000Y-117817000D02*
X146253200Y-117805200D01*
X147828000Y-117817000D02*
X146265000Y-117817000D01*
X143327000Y-104109400D02*
X144018000Y-104800400D01*
X143327000Y-103267000D02*
X143327000Y-104109400D01*
D32*
X133568200Y-103617000D02*
X133553200Y-103632000D01*
X135077000Y-103617000D02*
X133568200Y-103617000D01*
X137155000Y-115067000D02*
X138633200Y-113588800D01*
X136611400Y-111567000D02*
X134977000Y-111567000D01*
X136611400Y-111567000D02*
X138633200Y-113588800D01*
X135077000Y-115067000D02*
X137155000Y-115067000D01*
X142757000Y-116983400D02*
X142646400Y-117094000D01*
X142757000Y-115417000D02*
X142757000Y-116983400D01*
X151638000Y-127127000D02*
X150368000Y-127127000D01*
X150368000Y-127127000D02*
X149098000Y-127127000D01*
X149098000Y-127127000D02*
X147828000Y-127127000D01*
X146329400Y-127127000D02*
X145846800Y-126644400D01*
X147828000Y-127127000D02*
X146329400Y-127127000D01*
D34*
X196596000Y-123063000D02*
X195326000Y-124333000D01*
X196596000Y-120650000D02*
X196596000Y-123063000D01*
X197866000Y-119380000D02*
X196596000Y-120650000D01*
X197866000Y-119253000D02*
X197866000Y-119380000D01*
X152908000Y-116078000D02*
X152273000Y-115443000D01*
X152908000Y-117817000D02*
X152908000Y-116078000D01*
X154813000Y-98298000D02*
X152400000Y-100711000D01*
X156210000Y-98298000D02*
X154813000Y-98298000D01*
X180594000Y-104648000D02*
X182118000Y-103124000D01*
X182118000Y-103124000D02*
X184912000Y-103124000D01*
X154178000Y-113538000D02*
X148971000Y-108331000D01*
X139192000Y-106426000D02*
X139065000Y-106299000D01*
X139065000Y-106299000D02*
X139065000Y-102489000D01*
X139065000Y-102489000D02*
X143256000Y-98298000D01*
X154178000Y-117817000D02*
X154178000Y-113538000D01*
X156718000Y-123698000D02*
X157226000Y-124206000D01*
X156718000Y-117817000D02*
X156718000Y-123698000D01*
X162941000Y-125730000D02*
X165227000Y-125730000D01*
X178816000Y-107569000D02*
X178816000Y-105791000D01*
X178816000Y-105791000D02*
X179578000Y-105029000D01*
X180340000Y-109093000D02*
X178816000Y-107569000D01*
X180340000Y-111379000D02*
X180340000Y-109093000D01*
X179451000Y-121158000D02*
X179451000Y-117221000D01*
X170942000Y-130810000D02*
X174244000Y-130810000D01*
X167259000Y-127127000D02*
X170942000Y-130810000D01*
X172720000Y-86741000D02*
X174117000Y-88138000D01*
X163195000Y-86741000D02*
X172720000Y-86741000D01*
X162560000Y-87376000D02*
X163195000Y-86741000D01*
X162560000Y-90424000D02*
X162560000Y-87376000D01*
X157226000Y-105791000D02*
X164465000Y-105791000D01*
X155448000Y-107569000D02*
X157226000Y-105791000D01*
X155448000Y-117817000D02*
X155448000Y-107569000D01*
X172974000Y-95379376D02*
X173098346Y-95503722D01*
X172974000Y-92837000D02*
X172974000Y-95379376D01*
X172847000Y-95755068D02*
X173098346Y-95503722D01*
X178562000Y-109728000D02*
X178308000Y-109982000D01*
X178308000Y-109982000D02*
X178308000Y-113030000D01*
X171704000Y-110109000D02*
X171704000Y-110998000D01*
X171704000Y-110998000D02*
X172847000Y-112141000D01*
X184912000Y-96901000D02*
X171704000Y-110109000D01*
X183896000Y-99441000D02*
X172720000Y-110617000D01*
X184912000Y-99441000D02*
X183896000Y-99441000D01*
X169926000Y-130865374D02*
X169926000Y-135763000D01*
X166116000Y-127055374D02*
X169926000Y-130865374D01*
X166116000Y-119888000D02*
X166116000Y-127055374D01*
X169926000Y-135763000D02*
X169926000Y-137033000D01*
X150241000Y-113538000D02*
X150622000Y-113157000D01*
X150622000Y-113157000D02*
X150622000Y-111252000D01*
X152146000Y-107696000D02*
X154686000Y-110236000D01*
X160274000Y-116713000D02*
X161036000Y-117475000D01*
X161036000Y-117475000D02*
X163703000Y-117475000D01*
X163703000Y-117475000D02*
X166116000Y-119888000D01*
X144589499Y-111950501D02*
X144145000Y-112395000D01*
X146899159Y-109640841D02*
X144589499Y-111950501D01*
X149098000Y-92456000D02*
X146899159Y-94654841D01*
X146899159Y-94654841D02*
X146899159Y-109640841D01*
X163068000Y-92456000D02*
X149098000Y-92456000D01*
X165354000Y-90170000D02*
X163068000Y-92456000D01*
X168402000Y-88138000D02*
X167513000Y-88138000D01*
X191770000Y-125730000D02*
X171577000Y-125730000D01*
X193167000Y-124333000D02*
X191770000Y-125730000D01*
X193929000Y-93599000D02*
X193929000Y-108331000D01*
X190500000Y-90170000D02*
X193929000Y-93599000D01*
X183007000Y-90170000D02*
X190500000Y-90170000D01*
X181229000Y-91948000D02*
X183007000Y-90170000D01*
X167132000Y-91948000D02*
X181229000Y-91948000D01*
X166370000Y-91186000D02*
X167132000Y-91948000D01*
X166370000Y-89281000D02*
X166370000Y-91186000D01*
X167513000Y-88138000D02*
X166370000Y-89281000D01*
X156845000Y-135001000D02*
X137795000Y-135001000D01*
X137795000Y-135001000D02*
X132842000Y-130048000D01*
X132842000Y-130048000D02*
X132842000Y-121031000D01*
X132842000Y-121031000D02*
X131826000Y-120015000D01*
X131826000Y-120015000D02*
X131826000Y-114046000D01*
X131826000Y-114046000D02*
X133205000Y-112667000D01*
X133205000Y-112667000D02*
X134977000Y-112667000D01*
X170942000Y-90678000D02*
X180848000Y-90678000D01*
X191389000Y-126746000D02*
X171323000Y-126746000D01*
X191770000Y-127127000D02*
X191389000Y-126746000D01*
X194945000Y-93472000D02*
X194945000Y-108712000D01*
X191135000Y-89662000D02*
X194945000Y-93472000D01*
X181864000Y-89662000D02*
X191135000Y-89662000D01*
X180848000Y-90678000D02*
X181864000Y-89662000D01*
X171323000Y-126746000D02*
X175006000Y-130429000D01*
X175006000Y-130429000D02*
X175006000Y-137033000D01*
X165354000Y-123698000D02*
X163576000Y-121920000D01*
X163576000Y-121920000D02*
X163576000Y-120777000D01*
X170553222Y-126746000D02*
X167953610Y-124146388D01*
X167953610Y-124146388D02*
X167509111Y-123701889D01*
X171323000Y-126746000D02*
X170553222Y-126746000D01*
X194691000Y-116713000D02*
X195326000Y-116713000D01*
X194691000Y-116713000D02*
X195326000Y-116713000D01*
X193802000Y-117602000D02*
X194691000Y-116713000D01*
X193802000Y-120142000D02*
X193802000Y-117602000D01*
X170662600Y-122809000D02*
X191135000Y-122809000D01*
X164465000Y-116611400D02*
X170662600Y-122809000D01*
X191135000Y-122809000D02*
X193802000Y-120142000D01*
X164465000Y-114554000D02*
X164465000Y-116611400D01*
X163449000Y-115316000D02*
X163449000Y-116170150D01*
X163449000Y-116170150D02*
X170722850Y-123444000D01*
X170722850Y-123444000D02*
X191135000Y-123444000D01*
X191135000Y-123444000D02*
X194691001Y-119887999D01*
X194691001Y-119887999D02*
X195326000Y-119253000D01*
X184658000Y-120523000D02*
X180721000Y-120523000D01*
X185166000Y-121031000D02*
X184658000Y-120523000D01*
X187071000Y-121031000D02*
X185166000Y-121031000D01*
X169824400Y-118618000D02*
X164465000Y-113258600D01*
X164465000Y-113258600D02*
X164465000Y-112776000D01*
X172720000Y-118618000D02*
X169824400Y-118618000D01*
X173482000Y-119380000D02*
X172720000Y-118618000D01*
X165354000Y-115316000D02*
X172085000Y-122047000D01*
X172085000Y-122047000D02*
X181610000Y-122047000D01*
X171196000Y-117475000D02*
X166116000Y-112395000D01*
X166116000Y-112395000D02*
X166116000Y-111633000D01*
X178054000Y-114808000D02*
X177038000Y-113792000D01*
X177038000Y-113792000D02*
X169291000Y-113792000D01*
X169291000Y-113792000D02*
X168656000Y-113157000D01*
X168656000Y-113157000D02*
X168656000Y-110744000D01*
X168656000Y-110744000D02*
X166243000Y-108331000D01*
X166243000Y-108331000D02*
X166243000Y-108204000D01*
X147828000Y-112970800D02*
X148402401Y-113545201D01*
X157190801Y-125593999D02*
X157394001Y-125797199D01*
X157394001Y-128517239D02*
X158288001Y-129411239D01*
X158288001Y-130636999D02*
X158178500Y-130746500D01*
X147828000Y-101600000D02*
X147828000Y-112970800D01*
X157394001Y-125797199D02*
X157394001Y-128517239D01*
X148402401Y-113545201D02*
X148402401Y-118938401D01*
X148402401Y-118938401D02*
X155057999Y-125593999D01*
X158288001Y-129411239D02*
X158288001Y-130636999D01*
X155057999Y-125593999D02*
X157190801Y-125593999D01*
X158178500Y-130746500D02*
X158242000Y-130810000D01*
X164211000Y-101600000D02*
X147828000Y-101600000D01*
X168529000Y-105727500D02*
X164211000Y-101600000D01*
X170561000Y-116205000D02*
X170561000Y-116078000D01*
X192278000Y-111633000D02*
X187706000Y-116205000D01*
X187706000Y-116205000D02*
X170561000Y-116205000D01*
X195326000Y-111633000D02*
X192278000Y-111633000D01*
X167513000Y-113030000D02*
X167513000Y-112395000D01*
X170561000Y-116078000D02*
X167513000Y-113030000D01*
X158178500Y-136969500D02*
X158242000Y-137033000D01*
X158178500Y-130746500D02*
X158178500Y-136969500D01*
X197866000Y-111633000D02*
X197866000Y-110363000D01*
X170815000Y-108077000D02*
X169418000Y-108077000D01*
X171196000Y-108458000D02*
X170815000Y-108077000D01*
X171196000Y-111633000D02*
X171196000Y-108458000D01*
X172847000Y-113284000D02*
X171196000Y-111633000D01*
X173863000Y-113284000D02*
X172847000Y-113284000D01*
X175768000Y-111379000D02*
X173863000Y-113284000D01*
X197104000Y-109601000D02*
X187579000Y-109601000D01*
X197866000Y-110363000D02*
X197104000Y-109601000D01*
X169418000Y-108077000D02*
X168656000Y-107315000D01*
X168656000Y-107315000D02*
X162179000Y-107315000D01*
X162179000Y-107315000D02*
X161163000Y-108331000D01*
X160782000Y-120015000D02*
X160782000Y-137033000D01*
X159131000Y-118364000D02*
X160782000Y-120015000D01*
X159131000Y-115951000D02*
X159131000Y-118364000D01*
X159639000Y-110236000D02*
X159639000Y-115443000D01*
X161163000Y-108712000D02*
X159639000Y-110236000D01*
X159639000Y-115443000D02*
X159131000Y-115951000D01*
X161163000Y-108331000D02*
X161163000Y-108712000D01*
X135000000Y-110490000D02*
X134977000Y-110467000D01*
X139065000Y-112141000D02*
X137414000Y-110490000D01*
X137414000Y-110490000D02*
X135000000Y-110490000D01*
X137266000Y-107167000D02*
X134977000Y-107167000D01*
X137668000Y-107569000D02*
X137266000Y-107167000D01*
X141859000Y-107569000D02*
X137668000Y-107569000D01*
X142748000Y-108458000D02*
X141859000Y-107569000D01*
X149352000Y-114935000D02*
X149352000Y-110871000D01*
X149860000Y-115443000D02*
X149352000Y-114935000D01*
X138493000Y-108267000D02*
X140716000Y-110490000D01*
X140716000Y-110490000D02*
X140716000Y-116840000D01*
X134977000Y-108267000D02*
X138493000Y-108267000D01*
X179832000Y-106807000D02*
X181864000Y-108839000D01*
X181864000Y-108839000D02*
X182372000Y-108839000D01*
X136779000Y-102489000D02*
X137541000Y-102489000D01*
X135509000Y-101219000D02*
X136779000Y-102489000D01*
X135509000Y-97917000D02*
X135509000Y-101219000D01*
X137033000Y-96393000D02*
X135509000Y-97917000D01*
X137033000Y-92329000D02*
X137033000Y-96393000D01*
X137668000Y-91694000D02*
X137033000Y-92329000D01*
X148209000Y-91694000D02*
X137668000Y-91694000D01*
X148971000Y-90932000D02*
X148209000Y-91694000D01*
X155067000Y-90932000D02*
X148971000Y-90932000D01*
X155448000Y-91313000D02*
X155067000Y-90932000D01*
X161544000Y-106680000D02*
X158190732Y-110033268D01*
X170307000Y-105664000D02*
X169291000Y-106680000D01*
X158190732Y-110033268D02*
X158190732Y-127432270D01*
X169291000Y-106680000D02*
X161544000Y-106680000D01*
X158190732Y-127432270D02*
X158635231Y-127876769D01*
X170307000Y-105664000D02*
X166370001Y-101727001D01*
X166370001Y-101727001D02*
X165811199Y-101727001D01*
X165811199Y-101727001D02*
X165734999Y-101650801D01*
X165734999Y-101650801D02*
X165734999Y-101091999D01*
X165734999Y-101091999D02*
X164973000Y-100330000D01*
X164973000Y-100330000D02*
X164973000Y-95250000D01*
X164973000Y-95250000D02*
X167005000Y-93218000D01*
X167005000Y-93218000D02*
X168402000Y-93218000D01*
X166814500Y-131826000D02*
X166814500Y-134874000D01*
X165862000Y-130873500D02*
X166814500Y-131826000D01*
X159512000Y-120015000D02*
X159512000Y-138430000D01*
X159512000Y-138430000D02*
X159766000Y-138684000D01*
X159766000Y-138684000D02*
X165227000Y-138684000D01*
X162052000Y-132080000D02*
X165481000Y-135509000D01*
X162052000Y-119253000D02*
X162052000Y-132080000D01*
X182880000Y-139319000D02*
X185166000Y-137033000D01*
X167386000Y-139319000D02*
X182880000Y-139319000D01*
X165481000Y-137414000D02*
X167386000Y-139319000D01*
X165481000Y-135509000D02*
X165481000Y-137414000D01*
X161798000Y-118999000D02*
X162052000Y-119253000D01*
X137307000Y-109367000D02*
X137541000Y-109601000D01*
X134977000Y-109367000D02*
X137307000Y-109367000D01*
X178663600Y-94335600D02*
X176174400Y-96824800D01*
X176174400Y-96824800D02*
X176174400Y-99060000D01*
X176174400Y-99060000D02*
X173431200Y-101803200D01*
X173431200Y-101803200D02*
X168554400Y-101803200D01*
X168554400Y-101803200D02*
X168097200Y-102260400D01*
X162509200Y-104952800D02*
X156972000Y-104952800D01*
X156972000Y-104952800D02*
X157073600Y-104851200D01*
X157073600Y-104851200D02*
X157073600Y-104800400D01*
X156337000Y-93345000D02*
X156591000Y-93599000D01*
X156591000Y-93599000D02*
X161290000Y-93599000D01*
M02*
