G04 #@! TF.FileFunction,Legend,Top*
%FSLAX46Y46*%
G04 Gerber Fmt 4.6, Leading zero omitted, Abs format (unit mm)*
G04 Created by KiCad (PCBNEW (2015-01-06 BZR 5261)-product) date Thursday, April 09, 2015 'PMt' 11:27:51 PM*
%MOMM*%
G01*
G04 APERTURE LIST*
%ADD10C,0.152400*%
%ADD11C,0.100000*%
%ADD12C,0.200000*%
%ADD13C,0.250000*%
%ADD14C,0.150000*%
%ADD15C,0.127000*%
G04 APERTURE END LIST*
D10*
D11*
X162147334Y-88467381D02*
X162218763Y-88491190D01*
X162337810Y-88491190D01*
X162385429Y-88467381D01*
X162409239Y-88443571D01*
X162433048Y-88395952D01*
X162433048Y-88348333D01*
X162409239Y-88300714D01*
X162385429Y-88276905D01*
X162337810Y-88253095D01*
X162242572Y-88229286D01*
X162194953Y-88205476D01*
X162171144Y-88181667D01*
X162147334Y-88134048D01*
X162147334Y-88086429D01*
X162171144Y-88038810D01*
X162194953Y-88015000D01*
X162242572Y-87991190D01*
X162361620Y-87991190D01*
X162433048Y-88015000D01*
X162599715Y-87991190D02*
X162718762Y-88491190D01*
X162814000Y-88134048D01*
X162909238Y-88491190D01*
X163028286Y-87991190D01*
X163480667Y-88491190D02*
X163194953Y-88491190D01*
X163337810Y-88491190D02*
X163337810Y-87991190D01*
X163290191Y-88062619D01*
X163242572Y-88110238D01*
X163194953Y-88134048D01*
X183336381Y-106616381D02*
X183360190Y-106544952D01*
X183360190Y-106425905D01*
X183336381Y-106378286D01*
X183312571Y-106354476D01*
X183264952Y-106330667D01*
X183217333Y-106330667D01*
X183169714Y-106354476D01*
X183145905Y-106378286D01*
X183122095Y-106425905D01*
X183098286Y-106521143D01*
X183074476Y-106568762D01*
X183050667Y-106592571D01*
X183003048Y-106616381D01*
X182955429Y-106616381D01*
X182907810Y-106592571D01*
X182884000Y-106568762D01*
X182860190Y-106521143D01*
X182860190Y-106402095D01*
X182884000Y-106330667D01*
X183360190Y-106116381D02*
X182860190Y-106116381D01*
X182860190Y-105925905D01*
X182884000Y-105878286D01*
X182907810Y-105854477D01*
X182955429Y-105830667D01*
X183026857Y-105830667D01*
X183074476Y-105854477D01*
X183098286Y-105878286D01*
X183122095Y-105925905D01*
X183122095Y-106116381D01*
X183360190Y-105616381D02*
X182860190Y-105616381D01*
X183360190Y-105330667D02*
X183074476Y-105544953D01*
X182860190Y-105330667D02*
X183145905Y-105616381D01*
X183169714Y-105116381D02*
X183169714Y-104735429D01*
X183336381Y-104076381D02*
X183360190Y-104004952D01*
X183360190Y-103885905D01*
X183336381Y-103838286D01*
X183312571Y-103814476D01*
X183264952Y-103790667D01*
X183217333Y-103790667D01*
X183169714Y-103814476D01*
X183145905Y-103838286D01*
X183122095Y-103885905D01*
X183098286Y-103981143D01*
X183074476Y-104028762D01*
X183050667Y-104052571D01*
X183003048Y-104076381D01*
X182955429Y-104076381D01*
X182907810Y-104052571D01*
X182884000Y-104028762D01*
X182860190Y-103981143D01*
X182860190Y-103862095D01*
X182884000Y-103790667D01*
X183360190Y-103576381D02*
X182860190Y-103576381D01*
X182860190Y-103385905D01*
X182884000Y-103338286D01*
X182907810Y-103314477D01*
X182955429Y-103290667D01*
X183026857Y-103290667D01*
X183074476Y-103314477D01*
X183098286Y-103338286D01*
X183122095Y-103385905D01*
X183122095Y-103576381D01*
X183360190Y-103076381D02*
X182860190Y-103076381D01*
X183360190Y-102790667D02*
X183074476Y-103004953D01*
X182860190Y-102790667D02*
X183145905Y-103076381D01*
X183169714Y-102576381D02*
X183169714Y-102195429D01*
X183360190Y-102385905D02*
X182979238Y-102385905D01*
D12*
X174726571Y-105238905D02*
X174878952Y-105238905D01*
X174955143Y-105200810D01*
X174993238Y-105162714D01*
X175069429Y-105048429D01*
X175107524Y-104896048D01*
X175107524Y-104591286D01*
X175069429Y-104515095D01*
X175031333Y-104477000D01*
X174955143Y-104438905D01*
X174802762Y-104438905D01*
X174726571Y-104477000D01*
X174688476Y-104515095D01*
X174650381Y-104591286D01*
X174650381Y-104781762D01*
X174688476Y-104857952D01*
X174726571Y-104896048D01*
X174802762Y-104934143D01*
X174955143Y-104934143D01*
X175031333Y-104896048D01*
X175069429Y-104857952D01*
X175107524Y-104781762D01*
X175412286Y-104515095D02*
X175450381Y-104477000D01*
X175526572Y-104438905D01*
X175717048Y-104438905D01*
X175793238Y-104477000D01*
X175831334Y-104515095D01*
X175869429Y-104591286D01*
X175869429Y-104667476D01*
X175831334Y-104781762D01*
X175374191Y-105238905D01*
X175869429Y-105238905D01*
X176174191Y-104515095D02*
X176212286Y-104477000D01*
X176288477Y-104438905D01*
X176478953Y-104438905D01*
X176555143Y-104477000D01*
X176593239Y-104515095D01*
X176631334Y-104591286D01*
X176631334Y-104667476D01*
X176593239Y-104781762D01*
X176136096Y-105238905D01*
X176631334Y-105238905D01*
X176974191Y-105238905D02*
X176974191Y-104438905D01*
X177507524Y-104857952D02*
X177507524Y-105238905D01*
X177240857Y-104438905D02*
X177507524Y-104857952D01*
X177774191Y-104438905D01*
X174650381Y-106520810D02*
X174764667Y-106558905D01*
X174955143Y-106558905D01*
X175031333Y-106520810D01*
X175069429Y-106482714D01*
X175107524Y-106406524D01*
X175107524Y-106330333D01*
X175069429Y-106254143D01*
X175031333Y-106216048D01*
X174955143Y-106177952D01*
X174802762Y-106139857D01*
X174726571Y-106101762D01*
X174688476Y-106063667D01*
X174650381Y-105987476D01*
X174650381Y-105911286D01*
X174688476Y-105835095D01*
X174726571Y-105797000D01*
X174802762Y-105758905D01*
X174993238Y-105758905D01*
X175107524Y-105797000D01*
X175336095Y-105758905D02*
X175793238Y-105758905D01*
X175564667Y-106558905D02*
X175564667Y-105758905D01*
D13*
X131469428Y-138215714D02*
X131850380Y-138215714D01*
X131612285Y-137882381D02*
X131612285Y-138739524D01*
X131659904Y-138834762D01*
X131755142Y-138882381D01*
X131850380Y-138882381D01*
X132612286Y-138882381D02*
X132612286Y-138358571D01*
X132564667Y-138263333D01*
X132469429Y-138215714D01*
X132278952Y-138215714D01*
X132183714Y-138263333D01*
X132612286Y-138834762D02*
X132517048Y-138882381D01*
X132278952Y-138882381D01*
X132183714Y-138834762D01*
X132136095Y-138739524D01*
X132136095Y-138644286D01*
X132183714Y-138549048D01*
X132278952Y-138501429D01*
X132517048Y-138501429D01*
X132612286Y-138453810D01*
X133088476Y-138215714D02*
X133088476Y-139215714D01*
X133088476Y-138263333D02*
X133183714Y-138215714D01*
X133374191Y-138215714D01*
X133469429Y-138263333D01*
X133517048Y-138310952D01*
X133564667Y-138406190D01*
X133564667Y-138691905D01*
X133517048Y-138787143D01*
X133469429Y-138834762D01*
X133374191Y-138882381D01*
X133183714Y-138882381D01*
X133088476Y-138834762D01*
X133993238Y-138882381D02*
X133993238Y-137882381D01*
X134326572Y-138596667D01*
X134659905Y-137882381D01*
X134659905Y-138882381D01*
X135564667Y-138882381D02*
X135564667Y-138358571D01*
X135517048Y-138263333D01*
X135421810Y-138215714D01*
X135231333Y-138215714D01*
X135136095Y-138263333D01*
X135564667Y-138834762D02*
X135469429Y-138882381D01*
X135231333Y-138882381D01*
X135136095Y-138834762D01*
X135088476Y-138739524D01*
X135088476Y-138644286D01*
X135136095Y-138549048D01*
X135231333Y-138501429D01*
X135469429Y-138501429D01*
X135564667Y-138453810D01*
X135898000Y-138215714D02*
X136278952Y-138215714D01*
X136040857Y-137882381D02*
X136040857Y-138739524D01*
X136088476Y-138834762D01*
X136183714Y-138882381D01*
X136278952Y-138882381D01*
X136612286Y-138882381D02*
X136612286Y-138215714D01*
X136612286Y-138406190D02*
X136659905Y-138310952D01*
X136707524Y-138263333D01*
X136802762Y-138215714D01*
X136898001Y-138215714D01*
X137231334Y-138882381D02*
X137231334Y-138215714D01*
X137231334Y-137882381D02*
X137183715Y-137930000D01*
X137231334Y-137977619D01*
X137278953Y-137930000D01*
X137231334Y-137882381D01*
X137231334Y-137977619D01*
X137612286Y-138882381D02*
X138136096Y-138215714D01*
X137612286Y-138215714D02*
X138136096Y-138882381D01*
X139469429Y-137882381D02*
X139564668Y-137882381D01*
X139659906Y-137930000D01*
X139707525Y-137977619D01*
X139755144Y-138072857D01*
X139802763Y-138263333D01*
X139802763Y-138501429D01*
X139755144Y-138691905D01*
X139707525Y-138787143D01*
X139659906Y-138834762D01*
X139564668Y-138882381D01*
X139469429Y-138882381D01*
X139374191Y-138834762D01*
X139326572Y-138787143D01*
X139278953Y-138691905D01*
X139231334Y-138501429D01*
X139231334Y-138263333D01*
X139278953Y-138072857D01*
X139326572Y-137977619D01*
X139374191Y-137930000D01*
X139469429Y-137882381D01*
X140231334Y-138787143D02*
X140278953Y-138834762D01*
X140231334Y-138882381D01*
X140183715Y-138834762D01*
X140231334Y-138787143D01*
X140231334Y-138882381D01*
X141183715Y-137882381D02*
X140707524Y-137882381D01*
X140659905Y-138358571D01*
X140707524Y-138310952D01*
X140802762Y-138263333D01*
X141040858Y-138263333D01*
X141136096Y-138310952D01*
X141183715Y-138358571D01*
X141231334Y-138453810D01*
X141231334Y-138691905D01*
X141183715Y-138787143D01*
X141136096Y-138834762D01*
X141040858Y-138882381D01*
X140802762Y-138882381D01*
X140707524Y-138834762D01*
X140659905Y-138787143D01*
D11*
X191452524Y-130718714D02*
X191833476Y-130718714D01*
X191452524Y-129194714D02*
X191833476Y-129194714D01*
X191643000Y-129385190D02*
X191643000Y-129004238D01*
X191484334Y-130147190D02*
X191484334Y-129647190D01*
X191674810Y-129647190D01*
X191722429Y-129671000D01*
X191746238Y-129694810D01*
X191770048Y-129742429D01*
X191770048Y-129813857D01*
X191746238Y-129861476D01*
X191722429Y-129885286D01*
X191674810Y-129909095D01*
X191484334Y-129909095D01*
X191936715Y-129647190D02*
X192055762Y-130147190D01*
X192151000Y-129790048D01*
X192246238Y-130147190D01*
X192365286Y-129647190D01*
X192841477Y-130147190D02*
X192674810Y-129909095D01*
X192555763Y-130147190D02*
X192555763Y-129647190D01*
X192746239Y-129647190D01*
X192793858Y-129671000D01*
X192817667Y-129694810D01*
X192841477Y-129742429D01*
X192841477Y-129813857D01*
X192817667Y-129861476D01*
X192793858Y-129885286D01*
X192746239Y-129909095D01*
X192555763Y-129909095D01*
X145077667Y-99159190D02*
X144911000Y-98921095D01*
X144791953Y-99159190D02*
X144791953Y-98659190D01*
X144982429Y-98659190D01*
X145030048Y-98683000D01*
X145053857Y-98706810D01*
X145077667Y-98754429D01*
X145077667Y-98825857D01*
X145053857Y-98873476D01*
X145030048Y-98897286D01*
X144982429Y-98921095D01*
X144791953Y-98921095D01*
X145244334Y-98659190D02*
X145577667Y-99159190D01*
X145577667Y-98659190D02*
X145244334Y-99159190D01*
X144843524Y-98079714D02*
X145224476Y-98079714D01*
X145034000Y-98270190D02*
X145034000Y-97889238D01*
X144843524Y-99730714D02*
X145224476Y-99730714D01*
X146939048Y-105771190D02*
X147224762Y-105771190D01*
X147081905Y-106271190D02*
X147081905Y-105771190D01*
X147343810Y-105771190D02*
X147677143Y-106271190D01*
X147677143Y-105771190D02*
X147343810Y-106271190D01*
X146875524Y-105318714D02*
X147256476Y-105318714D01*
X146875524Y-106842714D02*
X147256476Y-106842714D01*
X147066000Y-107033190D02*
X147066000Y-106652238D01*
X153987524Y-106588714D02*
X154368476Y-106588714D01*
X154368476Y-104937714D02*
X153987524Y-104937714D01*
X154178000Y-105128190D02*
X154178000Y-104747238D01*
X183122095Y-99853714D02*
X183360190Y-99853714D01*
X182860190Y-100020381D02*
X183122095Y-99853714D01*
X182860190Y-99687048D01*
X183360190Y-99520381D02*
X182860190Y-99520381D01*
X183217333Y-99353715D01*
X182860190Y-99187048D01*
X183360190Y-99187048D01*
X182860190Y-97317666D02*
X183360190Y-96984333D01*
X182860190Y-96984333D02*
X183360190Y-97317666D01*
X183360190Y-96793857D02*
X182860190Y-96793857D01*
X182860190Y-96603381D01*
X182884000Y-96555762D01*
X182907810Y-96531953D01*
X182955429Y-96508143D01*
X183026857Y-96508143D01*
X183074476Y-96531953D01*
X183098286Y-96555762D01*
X183122095Y-96603381D01*
X183122095Y-96793857D01*
X183122095Y-94610999D02*
X183360190Y-94610999D01*
X182860190Y-94777666D02*
X183122095Y-94610999D01*
X182860190Y-94444333D01*
X183360190Y-94277666D02*
X182860190Y-94277666D01*
X182860190Y-94087190D01*
X182884000Y-94039571D01*
X182907810Y-94015762D01*
X182955429Y-93991952D01*
X183026857Y-93991952D01*
X183074476Y-94015762D01*
X183098286Y-94039571D01*
X183122095Y-94087190D01*
X183122095Y-94277666D01*
X182860190Y-92273380D02*
X183360190Y-91940047D01*
X182860190Y-91940047D02*
X183360190Y-92273380D01*
X183360190Y-91749571D02*
X182860190Y-91749571D01*
X183217333Y-91582905D01*
X182860190Y-91416238D01*
X183360190Y-91416238D01*
X169672047Y-98683000D02*
X169624428Y-98659190D01*
X169553000Y-98659190D01*
X169481571Y-98683000D01*
X169433952Y-98730619D01*
X169410143Y-98778238D01*
X169386333Y-98873476D01*
X169386333Y-98944905D01*
X169410143Y-99040143D01*
X169433952Y-99087762D01*
X169481571Y-99135381D01*
X169553000Y-99159190D01*
X169600619Y-99159190D01*
X169672047Y-99135381D01*
X169695857Y-99111571D01*
X169695857Y-98944905D01*
X169600619Y-98944905D01*
X169910143Y-99159190D02*
X169910143Y-98659190D01*
X170195857Y-99159190D01*
X170195857Y-98659190D01*
X170433953Y-99159190D02*
X170433953Y-98659190D01*
X170553000Y-98659190D01*
X170624429Y-98683000D01*
X170672048Y-98730619D01*
X170695857Y-98778238D01*
X170719667Y-98873476D01*
X170719667Y-98944905D01*
X170695857Y-99040143D01*
X170672048Y-99087762D01*
X170624429Y-99135381D01*
X170553000Y-99159190D01*
X170433953Y-99159190D01*
X169267286Y-98143190D02*
X169267286Y-97643190D01*
X169433952Y-98000333D01*
X169600619Y-97643190D01*
X169600619Y-98143190D01*
X169933953Y-97643190D02*
X170029191Y-97643190D01*
X170076810Y-97667000D01*
X170124429Y-97714619D01*
X170148238Y-97809857D01*
X170148238Y-97976524D01*
X170124429Y-98071762D01*
X170076810Y-98119381D01*
X170029191Y-98143190D01*
X169933953Y-98143190D01*
X169886334Y-98119381D01*
X169838715Y-98071762D01*
X169814905Y-97976524D01*
X169814905Y-97809857D01*
X169838715Y-97714619D01*
X169886334Y-97667000D01*
X169933953Y-97643190D01*
X170338715Y-98119381D02*
X170410144Y-98143190D01*
X170529191Y-98143190D01*
X170576810Y-98119381D01*
X170600620Y-98095571D01*
X170624429Y-98047952D01*
X170624429Y-98000333D01*
X170600620Y-97952714D01*
X170576810Y-97928905D01*
X170529191Y-97905095D01*
X170433953Y-97881286D01*
X170386334Y-97857476D01*
X170362525Y-97833667D01*
X170338715Y-97786048D01*
X170338715Y-97738429D01*
X170362525Y-97690810D01*
X170386334Y-97667000D01*
X170433953Y-97643190D01*
X170553001Y-97643190D01*
X170624429Y-97667000D01*
X170838715Y-98143190D02*
X170838715Y-97643190D01*
X170084763Y-96627190D02*
X169846668Y-96627190D01*
X169822858Y-96865286D01*
X169846668Y-96841476D01*
X169894287Y-96817667D01*
X170013334Y-96817667D01*
X170060953Y-96841476D01*
X170084763Y-96865286D01*
X170108572Y-96912905D01*
X170108572Y-97031952D01*
X170084763Y-97079571D01*
X170060953Y-97103381D01*
X170013334Y-97127190D01*
X169894287Y-97127190D01*
X169846668Y-97103381D01*
X169822858Y-97079571D01*
X170251429Y-96627190D02*
X170418096Y-97127190D01*
X170584762Y-96627190D01*
X167747191Y-99159190D02*
X167580524Y-98921095D01*
X167461477Y-99159190D02*
X167461477Y-98659190D01*
X167651953Y-98659190D01*
X167699572Y-98683000D01*
X167723381Y-98706810D01*
X167747191Y-98754429D01*
X167747191Y-98825857D01*
X167723381Y-98873476D01*
X167699572Y-98897286D01*
X167651953Y-98921095D01*
X167461477Y-98921095D01*
X167937667Y-99135381D02*
X168009096Y-99159190D01*
X168128143Y-99159190D01*
X168175762Y-99135381D01*
X168199572Y-99111571D01*
X168223381Y-99063952D01*
X168223381Y-99016333D01*
X168199572Y-98968714D01*
X168175762Y-98944905D01*
X168128143Y-98921095D01*
X168032905Y-98897286D01*
X167985286Y-98873476D01*
X167961477Y-98849667D01*
X167937667Y-98802048D01*
X167937667Y-98754429D01*
X167961477Y-98706810D01*
X167985286Y-98683000D01*
X168032905Y-98659190D01*
X168151953Y-98659190D01*
X168223381Y-98683000D01*
X168366238Y-98659190D02*
X168651952Y-98659190D01*
X168509095Y-99159190D02*
X168509095Y-98659190D01*
X167378143Y-98119381D02*
X167449572Y-98143190D01*
X167568619Y-98143190D01*
X167616238Y-98119381D01*
X167640048Y-98095571D01*
X167663857Y-98047952D01*
X167663857Y-98000333D01*
X167640048Y-97952714D01*
X167616238Y-97928905D01*
X167568619Y-97905095D01*
X167473381Y-97881286D01*
X167425762Y-97857476D01*
X167401953Y-97833667D01*
X167378143Y-97786048D01*
X167378143Y-97738429D01*
X167401953Y-97690810D01*
X167425762Y-97667000D01*
X167473381Y-97643190D01*
X167592429Y-97643190D01*
X167663857Y-97667000D01*
X168163857Y-98095571D02*
X168140047Y-98119381D01*
X168068619Y-98143190D01*
X168021000Y-98143190D01*
X167949571Y-98119381D01*
X167901952Y-98071762D01*
X167878143Y-98024143D01*
X167854333Y-97928905D01*
X167854333Y-97857476D01*
X167878143Y-97762238D01*
X167901952Y-97714619D01*
X167949571Y-97667000D01*
X168021000Y-97643190D01*
X168068619Y-97643190D01*
X168140047Y-97667000D01*
X168163857Y-97690810D01*
X168378143Y-98143190D02*
X168378143Y-97643190D01*
X168663857Y-98143190D02*
X168449571Y-97857476D01*
X168663857Y-97643190D02*
X168378143Y-97928905D01*
X167235286Y-97127190D02*
X167235286Y-96627190D01*
X167401952Y-96984333D01*
X167568619Y-96627190D01*
X167568619Y-97127190D01*
X167806715Y-97127190D02*
X167806715Y-96627190D01*
X168021000Y-97103381D02*
X168092429Y-97127190D01*
X168211476Y-97127190D01*
X168259095Y-97103381D01*
X168282905Y-97079571D01*
X168306714Y-97031952D01*
X168306714Y-96984333D01*
X168282905Y-96936714D01*
X168259095Y-96912905D01*
X168211476Y-96889095D01*
X168116238Y-96865286D01*
X168068619Y-96841476D01*
X168044810Y-96817667D01*
X168021000Y-96770048D01*
X168021000Y-96722429D01*
X168044810Y-96674810D01*
X168068619Y-96651000D01*
X168116238Y-96627190D01*
X168235286Y-96627190D01*
X168306714Y-96651000D01*
X168616238Y-96627190D02*
X168711476Y-96627190D01*
X168759095Y-96651000D01*
X168806714Y-96698619D01*
X168830523Y-96793857D01*
X168830523Y-96960524D01*
X168806714Y-97055762D01*
X168759095Y-97103381D01*
X168711476Y-97127190D01*
X168616238Y-97127190D01*
X168568619Y-97103381D01*
X168521000Y-97055762D01*
X168497190Y-96960524D01*
X168497190Y-96793857D01*
X168521000Y-96698619D01*
X168568619Y-96651000D01*
X168616238Y-96627190D01*
X181356047Y-89793000D02*
X181308428Y-89769190D01*
X181237000Y-89769190D01*
X181165571Y-89793000D01*
X181117952Y-89840619D01*
X181094143Y-89888238D01*
X181070333Y-89983476D01*
X181070333Y-90054905D01*
X181094143Y-90150143D01*
X181117952Y-90197762D01*
X181165571Y-90245381D01*
X181237000Y-90269190D01*
X181284619Y-90269190D01*
X181356047Y-90245381D01*
X181379857Y-90221571D01*
X181379857Y-90054905D01*
X181284619Y-90054905D01*
X181594143Y-90269190D02*
X181594143Y-89769190D01*
X181879857Y-90269190D01*
X181879857Y-89769190D01*
X182117953Y-90269190D02*
X182117953Y-89769190D01*
X182237000Y-89769190D01*
X182308429Y-89793000D01*
X182356048Y-89840619D01*
X182379857Y-89888238D01*
X182403667Y-89983476D01*
X182403667Y-90054905D01*
X182379857Y-90150143D01*
X182356048Y-90197762D01*
X182308429Y-90245381D01*
X182237000Y-90269190D01*
X182117953Y-90269190D01*
X178704954Y-89769190D02*
X179014477Y-89769190D01*
X178847811Y-89959667D01*
X178919239Y-89959667D01*
X178966858Y-89983476D01*
X178990668Y-90007286D01*
X179014477Y-90054905D01*
X179014477Y-90173952D01*
X178990668Y-90221571D01*
X178966858Y-90245381D01*
X178919239Y-90269190D01*
X178776382Y-90269190D01*
X178728763Y-90245381D01*
X178704954Y-90221571D01*
X179157334Y-89769190D02*
X179324001Y-90269190D01*
X179490667Y-89769190D01*
X179609715Y-89769190D02*
X179919238Y-89769190D01*
X179752572Y-89959667D01*
X179824000Y-89959667D01*
X179871619Y-89983476D01*
X179895429Y-90007286D01*
X179919238Y-90054905D01*
X179919238Y-90173952D01*
X179895429Y-90221571D01*
X179871619Y-90245381D01*
X179824000Y-90269190D01*
X179681143Y-90269190D01*
X179633524Y-90245381D01*
X179609715Y-90221571D01*
X176188762Y-90245381D02*
X176260191Y-90269190D01*
X176379238Y-90269190D01*
X176426857Y-90245381D01*
X176450667Y-90221571D01*
X176474476Y-90173952D01*
X176474476Y-90126333D01*
X176450667Y-90078714D01*
X176426857Y-90054905D01*
X176379238Y-90031095D01*
X176284000Y-90007286D01*
X176236381Y-89983476D01*
X176212572Y-89959667D01*
X176188762Y-89912048D01*
X176188762Y-89864429D01*
X176212572Y-89816810D01*
X176236381Y-89793000D01*
X176284000Y-89769190D01*
X176403048Y-89769190D01*
X176474476Y-89793000D01*
X176974476Y-90221571D02*
X176950666Y-90245381D01*
X176879238Y-90269190D01*
X176831619Y-90269190D01*
X176760190Y-90245381D01*
X176712571Y-90197762D01*
X176688762Y-90150143D01*
X176664952Y-90054905D01*
X176664952Y-89983476D01*
X176688762Y-89888238D01*
X176712571Y-89840619D01*
X176760190Y-89793000D01*
X176831619Y-89769190D01*
X176879238Y-89769190D01*
X176950666Y-89793000D01*
X176974476Y-89816810D01*
X177426857Y-90269190D02*
X177188762Y-90269190D01*
X177188762Y-89769190D01*
X173636858Y-90245381D02*
X173708287Y-90269190D01*
X173827334Y-90269190D01*
X173874953Y-90245381D01*
X173898763Y-90221571D01*
X173922572Y-90173952D01*
X173922572Y-90126333D01*
X173898763Y-90078714D01*
X173874953Y-90054905D01*
X173827334Y-90031095D01*
X173732096Y-90007286D01*
X173684477Y-89983476D01*
X173660668Y-89959667D01*
X173636858Y-89912048D01*
X173636858Y-89864429D01*
X173660668Y-89816810D01*
X173684477Y-89793000D01*
X173732096Y-89769190D01*
X173851144Y-89769190D01*
X173922572Y-89793000D01*
X174136858Y-90269190D02*
X174136858Y-89769190D01*
X174255905Y-89769190D01*
X174327334Y-89793000D01*
X174374953Y-89840619D01*
X174398762Y-89888238D01*
X174422572Y-89983476D01*
X174422572Y-90054905D01*
X174398762Y-90150143D01*
X174374953Y-90197762D01*
X174327334Y-90245381D01*
X174255905Y-90269190D01*
X174136858Y-90269190D01*
X174613048Y-90126333D02*
X174851143Y-90126333D01*
X174565429Y-90269190D02*
X174732096Y-89769190D01*
X174898762Y-90269190D01*
X192690763Y-134600190D02*
X192452668Y-134600190D01*
X192428858Y-134838286D01*
X192452668Y-134814476D01*
X192500287Y-134790667D01*
X192619334Y-134790667D01*
X192666953Y-134814476D01*
X192690763Y-134838286D01*
X192714572Y-134885905D01*
X192714572Y-135004952D01*
X192690763Y-135052571D01*
X192666953Y-135076381D01*
X192619334Y-135100190D01*
X192500287Y-135100190D01*
X192452668Y-135076381D01*
X192428858Y-135052571D01*
X192857429Y-134600190D02*
X193024096Y-135100190D01*
X193190762Y-134600190D01*
X189738047Y-134624000D02*
X189690428Y-134600190D01*
X189619000Y-134600190D01*
X189547571Y-134624000D01*
X189499952Y-134671619D01*
X189476143Y-134719238D01*
X189452333Y-134814476D01*
X189452333Y-134885905D01*
X189476143Y-134981143D01*
X189499952Y-135028762D01*
X189547571Y-135076381D01*
X189619000Y-135100190D01*
X189666619Y-135100190D01*
X189738047Y-135076381D01*
X189761857Y-135052571D01*
X189761857Y-134885905D01*
X189666619Y-134885905D01*
X189976143Y-135100190D02*
X189976143Y-134600190D01*
X190261857Y-135100190D01*
X190261857Y-134600190D01*
X190499953Y-135100190D02*
X190499953Y-134600190D01*
X190619000Y-134600190D01*
X190690429Y-134624000D01*
X190738048Y-134671619D01*
X190761857Y-134719238D01*
X190785667Y-134814476D01*
X190785667Y-134885905D01*
X190761857Y-134981143D01*
X190738048Y-135028762D01*
X190690429Y-135076381D01*
X190619000Y-135100190D01*
X190499953Y-135100190D01*
X187313143Y-135100190D02*
X187313143Y-134600190D01*
X187598857Y-135100190D01*
X187598857Y-134600190D01*
X188122667Y-135052571D02*
X188098857Y-135076381D01*
X188027429Y-135100190D01*
X187979810Y-135100190D01*
X187908381Y-135076381D01*
X187860762Y-135028762D01*
X187836953Y-134981143D01*
X187813143Y-134885905D01*
X187813143Y-134814476D01*
X187836953Y-134719238D01*
X187860762Y-134671619D01*
X187908381Y-134624000D01*
X187979810Y-134600190D01*
X188027429Y-134600190D01*
X188098857Y-134624000D01*
X188122667Y-134647810D01*
X184892191Y-135100190D02*
X184725524Y-134862095D01*
X184606477Y-135100190D02*
X184606477Y-134600190D01*
X184796953Y-134600190D01*
X184844572Y-134624000D01*
X184868381Y-134647810D01*
X184892191Y-134695429D01*
X184892191Y-134766857D01*
X184868381Y-134814476D01*
X184844572Y-134838286D01*
X184796953Y-134862095D01*
X184606477Y-134862095D01*
X185082667Y-135076381D02*
X185154096Y-135100190D01*
X185273143Y-135100190D01*
X185320762Y-135076381D01*
X185344572Y-135052571D01*
X185368381Y-135004952D01*
X185368381Y-134957333D01*
X185344572Y-134909714D01*
X185320762Y-134885905D01*
X185273143Y-134862095D01*
X185177905Y-134838286D01*
X185130286Y-134814476D01*
X185106477Y-134790667D01*
X185082667Y-134743048D01*
X185082667Y-134695429D01*
X185106477Y-134647810D01*
X185130286Y-134624000D01*
X185177905Y-134600190D01*
X185296953Y-134600190D01*
X185368381Y-134624000D01*
X185511238Y-134600190D02*
X185796952Y-134600190D01*
X185654095Y-135100190D02*
X185654095Y-134600190D01*
X182106143Y-135100190D02*
X182106143Y-134600190D01*
X182391857Y-135100190D01*
X182391857Y-134600190D01*
X182915667Y-135052571D02*
X182891857Y-135076381D01*
X182820429Y-135100190D01*
X182772810Y-135100190D01*
X182701381Y-135076381D01*
X182653762Y-135028762D01*
X182629953Y-134981143D01*
X182606143Y-134885905D01*
X182606143Y-134814476D01*
X182629953Y-134719238D01*
X182653762Y-134671619D01*
X182701381Y-134624000D01*
X182772810Y-134600190D01*
X182820429Y-134600190D01*
X182891857Y-134624000D01*
X182915667Y-134647810D01*
X179649477Y-135100190D02*
X179482810Y-134862095D01*
X179363763Y-135100190D02*
X179363763Y-134600190D01*
X179554239Y-134600190D01*
X179601858Y-134624000D01*
X179625667Y-134647810D01*
X179649477Y-134695429D01*
X179649477Y-134766857D01*
X179625667Y-134814476D01*
X179601858Y-134838286D01*
X179554239Y-134862095D01*
X179363763Y-134862095D01*
X179863763Y-135100190D02*
X179863763Y-134600190D01*
X179982810Y-134600190D01*
X180054239Y-134624000D01*
X180101858Y-134671619D01*
X180125667Y-134719238D01*
X180149477Y-134814476D01*
X180149477Y-134885905D01*
X180125667Y-134981143D01*
X180101858Y-135028762D01*
X180054239Y-135076381D01*
X179982810Y-135100190D01*
X179863763Y-135100190D01*
X180459001Y-134862095D02*
X180459001Y-135100190D01*
X180292334Y-134600190D02*
X180459001Y-134862095D01*
X180625667Y-134600190D01*
X177339667Y-135100190D02*
X177173000Y-134862095D01*
X177053953Y-135100190D02*
X177053953Y-134600190D01*
X177244429Y-134600190D01*
X177292048Y-134624000D01*
X177315857Y-134647810D01*
X177339667Y-134695429D01*
X177339667Y-134766857D01*
X177315857Y-134814476D01*
X177292048Y-134838286D01*
X177244429Y-134862095D01*
X177053953Y-134862095D01*
X177553953Y-134838286D02*
X177720619Y-134838286D01*
X177792048Y-135100190D02*
X177553953Y-135100190D01*
X177553953Y-134600190D01*
X177792048Y-134600190D01*
X178339667Y-135147810D02*
X178292048Y-135124000D01*
X178244429Y-135076381D01*
X178173000Y-135004952D01*
X178125381Y-134981143D01*
X178077762Y-134981143D01*
X178101572Y-135100190D02*
X178053953Y-135076381D01*
X178006334Y-135028762D01*
X177982524Y-134933524D01*
X177982524Y-134766857D01*
X178006334Y-134671619D01*
X178053953Y-134624000D01*
X178101572Y-134600190D01*
X178196810Y-134600190D01*
X178244429Y-134624000D01*
X178292048Y-134671619D01*
X178315857Y-134766857D01*
X178315857Y-134933524D01*
X178292048Y-135028762D01*
X178244429Y-135076381D01*
X178196810Y-135100190D01*
X178101572Y-135100190D01*
X174220286Y-135100190D02*
X174220286Y-134600190D01*
X174386952Y-134957333D01*
X174553619Y-134600190D01*
X174553619Y-135100190D01*
X174886953Y-134600190D02*
X174982191Y-134600190D01*
X175029810Y-134624000D01*
X175077429Y-134671619D01*
X175101238Y-134766857D01*
X175101238Y-134933524D01*
X175077429Y-135028762D01*
X175029810Y-135076381D01*
X174982191Y-135100190D01*
X174886953Y-135100190D01*
X174839334Y-135076381D01*
X174791715Y-135028762D01*
X174767905Y-134933524D01*
X174767905Y-134766857D01*
X174791715Y-134671619D01*
X174839334Y-134624000D01*
X174886953Y-134600190D01*
X175291715Y-135076381D02*
X175363144Y-135100190D01*
X175482191Y-135100190D01*
X175529810Y-135076381D01*
X175553620Y-135052571D01*
X175577429Y-135004952D01*
X175577429Y-134957333D01*
X175553620Y-134909714D01*
X175529810Y-134885905D01*
X175482191Y-134862095D01*
X175386953Y-134838286D01*
X175339334Y-134814476D01*
X175315525Y-134790667D01*
X175291715Y-134743048D01*
X175291715Y-134695429D01*
X175315525Y-134647810D01*
X175339334Y-134624000D01*
X175386953Y-134600190D01*
X175506001Y-134600190D01*
X175577429Y-134624000D01*
X175791715Y-135100190D02*
X175791715Y-134600190D01*
X171553286Y-135100190D02*
X171553286Y-134600190D01*
X171719952Y-134957333D01*
X171886619Y-134600190D01*
X171886619Y-135100190D01*
X172124715Y-135100190D02*
X172124715Y-134600190D01*
X172339000Y-135076381D02*
X172410429Y-135100190D01*
X172529476Y-135100190D01*
X172577095Y-135076381D01*
X172600905Y-135052571D01*
X172624714Y-135004952D01*
X172624714Y-134957333D01*
X172600905Y-134909714D01*
X172577095Y-134885905D01*
X172529476Y-134862095D01*
X172434238Y-134838286D01*
X172386619Y-134814476D01*
X172362810Y-134790667D01*
X172339000Y-134743048D01*
X172339000Y-134695429D01*
X172362810Y-134647810D01*
X172386619Y-134624000D01*
X172434238Y-134600190D01*
X172553286Y-134600190D01*
X172624714Y-134624000D01*
X172934238Y-134600190D02*
X173029476Y-134600190D01*
X173077095Y-134624000D01*
X173124714Y-134671619D01*
X173148523Y-134766857D01*
X173148523Y-134933524D01*
X173124714Y-135028762D01*
X173077095Y-135076381D01*
X173029476Y-135100190D01*
X172934238Y-135100190D01*
X172886619Y-135076381D01*
X172839000Y-135028762D01*
X172815190Y-134933524D01*
X172815190Y-134766857D01*
X172839000Y-134671619D01*
X172886619Y-134624000D01*
X172934238Y-134600190D01*
X169283143Y-135076381D02*
X169354572Y-135100190D01*
X169473619Y-135100190D01*
X169521238Y-135076381D01*
X169545048Y-135052571D01*
X169568857Y-135004952D01*
X169568857Y-134957333D01*
X169545048Y-134909714D01*
X169521238Y-134885905D01*
X169473619Y-134862095D01*
X169378381Y-134838286D01*
X169330762Y-134814476D01*
X169306953Y-134790667D01*
X169283143Y-134743048D01*
X169283143Y-134695429D01*
X169306953Y-134647810D01*
X169330762Y-134624000D01*
X169378381Y-134600190D01*
X169497429Y-134600190D01*
X169568857Y-134624000D01*
X170068857Y-135052571D02*
X170045047Y-135076381D01*
X169973619Y-135100190D01*
X169926000Y-135100190D01*
X169854571Y-135076381D01*
X169806952Y-135028762D01*
X169783143Y-134981143D01*
X169759333Y-134885905D01*
X169759333Y-134814476D01*
X169783143Y-134719238D01*
X169806952Y-134671619D01*
X169854571Y-134624000D01*
X169926000Y-134600190D01*
X169973619Y-134600190D01*
X170045047Y-134624000D01*
X170068857Y-134647810D01*
X170283143Y-135100190D02*
X170283143Y-134600190D01*
X170568857Y-135100190D02*
X170354571Y-134814476D01*
X170568857Y-134600190D02*
X170283143Y-134885905D01*
X160698667Y-135354190D02*
X160532000Y-135116095D01*
X160412953Y-135354190D02*
X160412953Y-134854190D01*
X160603429Y-134854190D01*
X160651048Y-134878000D01*
X160674857Y-134901810D01*
X160698667Y-134949429D01*
X160698667Y-135020857D01*
X160674857Y-135068476D01*
X160651048Y-135092286D01*
X160603429Y-135116095D01*
X160412953Y-135116095D01*
X160865334Y-134854190D02*
X161198667Y-135354190D01*
X161198667Y-134854190D02*
X160865334Y-135354190D01*
X163175191Y-135354190D02*
X163008524Y-135116095D01*
X162889477Y-135354190D02*
X162889477Y-134854190D01*
X163079953Y-134854190D01*
X163127572Y-134878000D01*
X163151381Y-134901810D01*
X163175191Y-134949429D01*
X163175191Y-135020857D01*
X163151381Y-135068476D01*
X163127572Y-135092286D01*
X163079953Y-135116095D01*
X162889477Y-135116095D01*
X163365667Y-135330381D02*
X163437096Y-135354190D01*
X163556143Y-135354190D01*
X163603762Y-135330381D01*
X163627572Y-135306571D01*
X163651381Y-135258952D01*
X163651381Y-135211333D01*
X163627572Y-135163714D01*
X163603762Y-135139905D01*
X163556143Y-135116095D01*
X163460905Y-135092286D01*
X163413286Y-135068476D01*
X163389477Y-135044667D01*
X163365667Y-134997048D01*
X163365667Y-134949429D01*
X163389477Y-134901810D01*
X163413286Y-134878000D01*
X163460905Y-134854190D01*
X163579953Y-134854190D01*
X163651381Y-134878000D01*
X163794238Y-134854190D02*
X164079952Y-134854190D01*
X163937095Y-135354190D02*
X163937095Y-134854190D01*
X157734048Y-134854190D02*
X158019762Y-134854190D01*
X157876905Y-135354190D02*
X157876905Y-134854190D01*
X158138810Y-134854190D02*
X158472143Y-135354190D01*
X158472143Y-134854190D02*
X158138810Y-135354190D01*
X155479763Y-134854190D02*
X155241668Y-134854190D01*
X155217858Y-135092286D01*
X155241668Y-135068476D01*
X155289287Y-135044667D01*
X155408334Y-135044667D01*
X155455953Y-135068476D01*
X155479763Y-135092286D01*
X155503572Y-135139905D01*
X155503572Y-135258952D01*
X155479763Y-135306571D01*
X155455953Y-135330381D01*
X155408334Y-135354190D01*
X155289287Y-135354190D01*
X155241668Y-135330381D01*
X155217858Y-135306571D01*
X155646429Y-134854190D02*
X155813096Y-135354190D01*
X155979762Y-134854190D01*
X152781047Y-134878000D02*
X152733428Y-134854190D01*
X152662000Y-134854190D01*
X152590571Y-134878000D01*
X152542952Y-134925619D01*
X152519143Y-134973238D01*
X152495333Y-135068476D01*
X152495333Y-135139905D01*
X152519143Y-135235143D01*
X152542952Y-135282762D01*
X152590571Y-135330381D01*
X152662000Y-135354190D01*
X152709619Y-135354190D01*
X152781047Y-135330381D01*
X152804857Y-135306571D01*
X152804857Y-135139905D01*
X152709619Y-135139905D01*
X153019143Y-135354190D02*
X153019143Y-134854190D01*
X153304857Y-135354190D01*
X153304857Y-134854190D01*
X153542953Y-135354190D02*
X153542953Y-134854190D01*
X153662000Y-134854190D01*
X153733429Y-134878000D01*
X153781048Y-134925619D01*
X153804857Y-134973238D01*
X153828667Y-135068476D01*
X153828667Y-135139905D01*
X153804857Y-135235143D01*
X153781048Y-135282762D01*
X153733429Y-135330381D01*
X153662000Y-135354190D01*
X153542953Y-135354190D01*
X150368047Y-134878000D02*
X150320428Y-134854190D01*
X150249000Y-134854190D01*
X150177571Y-134878000D01*
X150129952Y-134925619D01*
X150106143Y-134973238D01*
X150082333Y-135068476D01*
X150082333Y-135139905D01*
X150106143Y-135235143D01*
X150129952Y-135282762D01*
X150177571Y-135330381D01*
X150249000Y-135354190D01*
X150296619Y-135354190D01*
X150368047Y-135330381D01*
X150391857Y-135306571D01*
X150391857Y-135139905D01*
X150296619Y-135139905D01*
X150606143Y-135354190D02*
X150606143Y-134854190D01*
X150891857Y-135354190D01*
X150891857Y-134854190D01*
X151129953Y-135354190D02*
X151129953Y-134854190D01*
X151249000Y-134854190D01*
X151320429Y-134878000D01*
X151368048Y-134925619D01*
X151391857Y-134973238D01*
X151415667Y-135068476D01*
X151415667Y-135139905D01*
X151391857Y-135235143D01*
X151368048Y-135282762D01*
X151320429Y-135330381D01*
X151249000Y-135354190D01*
X151129953Y-135354190D01*
D14*
X194056000Y-112903000D02*
X196596000Y-112903000D01*
X196596000Y-112903000D02*
X196596000Y-110363000D01*
X196596000Y-110363000D02*
X194056000Y-110363000D01*
X194056000Y-110363000D02*
X194056000Y-112903000D01*
X140639800Y-129984500D02*
X140589000Y-135394700D01*
X130352800Y-135343900D02*
X140639800Y-135420100D01*
X140639800Y-135420100D02*
X140639800Y-129933700D01*
X140639800Y-129933700D02*
X130302000Y-129908300D01*
X134696200Y-131965700D02*
X130225800Y-131940300D01*
X134747000Y-133362700D02*
X134747000Y-131965700D01*
X130314700Y-133337300D02*
X134670800Y-133337300D01*
X134670800Y-133337300D02*
X130314700Y-133337300D01*
X130196000Y-137288000D02*
X130196000Y-128288000D01*
X148796000Y-128288000D02*
X130196000Y-128288000D01*
X148796000Y-137288000D02*
X148796000Y-128288000D01*
X145796000Y-137288000D02*
X148796000Y-137288000D01*
X148729700Y-137337800D02*
X145681700Y-137337800D01*
X145796000Y-137288000D02*
X130396000Y-137288000D01*
X135051800Y-137299700D02*
X145605500Y-137375900D01*
X164414000Y-89565000D02*
X164414000Y-86965000D01*
X161314000Y-86965000D02*
X164314000Y-86965000D01*
X164314000Y-89565000D02*
X161314000Y-89565000D01*
X161314000Y-89565000D02*
X161314000Y-86965000D01*
X163614000Y-88265000D02*
G75*
G03X163614000Y-88265000I-800000J0D01*
G01*
X146250000Y-106045000D02*
G75*
G03X146250000Y-106045000I-200000J0D01*
G01*
X145450000Y-106395000D02*
X145450000Y-105695000D01*
X146650000Y-105695000D02*
X146650000Y-106395000D01*
X140549000Y-106418000D02*
X140549000Y-105418000D01*
X141899000Y-105418000D02*
X141899000Y-106418000D01*
X144091000Y-98933000D02*
G75*
G03X144091000Y-98933000I-200000J0D01*
G01*
X144491000Y-98583000D02*
X144491000Y-99283000D01*
X143291000Y-99283000D02*
X143291000Y-98583000D01*
X158115000Y-99822000D02*
X157099000Y-101092000D01*
X158115000Y-91948000D02*
X158115000Y-99822000D01*
X154051000Y-91948000D02*
X158115000Y-91948000D01*
X154051000Y-101092000D02*
X154051000Y-91948000D01*
X158115000Y-101092000D02*
X154051000Y-101092000D01*
X158115000Y-99949000D02*
X158115000Y-101092000D01*
X159639000Y-99949000D02*
X158115000Y-99949000D01*
X181102000Y-97409000D02*
X180340000Y-98679000D01*
X181102000Y-95377000D02*
X181102000Y-97409000D01*
X181102000Y-97028000D02*
X181102000Y-95377000D01*
X180975000Y-97536000D02*
X181102000Y-97028000D01*
X180975000Y-95123000D02*
X180975000Y-97536000D01*
X180848000Y-94742000D02*
X180975000Y-95123000D01*
X180848000Y-97917000D02*
X180848000Y-94742000D01*
X180721000Y-98044000D02*
X180848000Y-97917000D01*
X180721000Y-94488000D02*
X180721000Y-98044000D01*
X180594000Y-94234000D02*
X180721000Y-94488000D01*
X180594000Y-98171000D02*
X180594000Y-94234000D01*
X180467000Y-98425000D02*
X180594000Y-98171000D01*
X180467000Y-94107000D02*
X180467000Y-98425000D01*
X180340000Y-93853000D02*
X180467000Y-94107000D01*
X180340000Y-98679000D02*
X180340000Y-93853000D01*
X180213000Y-98806000D02*
X180340000Y-98679000D01*
X180213000Y-93726000D02*
X180213000Y-98806000D01*
X180086000Y-93472000D02*
X180213000Y-93726000D01*
X180086000Y-98933000D02*
X180086000Y-93472000D01*
X179959000Y-99060000D02*
X180086000Y-98806000D01*
X179959000Y-93345000D02*
X179959000Y-99060000D01*
X181231048Y-96266000D02*
G75*
G03X181231048Y-96266000I-3939048J0D01*
G01*
X174392000Y-100366000D02*
X174392000Y-99566000D01*
X174792000Y-99966000D02*
X173992000Y-99966000D01*
X173992000Y-99966000D02*
X174792000Y-99966000D01*
X131699000Y-117475000D02*
X132461000Y-116205000D01*
X131699000Y-119507000D02*
X131699000Y-117475000D01*
X131699000Y-117856000D02*
X131699000Y-119507000D01*
X131826000Y-117348000D02*
X131699000Y-117856000D01*
X131826000Y-119761000D02*
X131826000Y-117348000D01*
X131953000Y-120142000D02*
X131826000Y-119761000D01*
X131953000Y-116967000D02*
X131953000Y-120142000D01*
X132080000Y-116840000D02*
X131953000Y-116967000D01*
X132080000Y-120396000D02*
X132080000Y-116840000D01*
X132207000Y-120650000D02*
X132080000Y-120396000D01*
X132207000Y-116713000D02*
X132207000Y-120650000D01*
X132334000Y-116459000D02*
X132207000Y-116713000D01*
X132334000Y-120777000D02*
X132334000Y-116459000D01*
X132461000Y-121031000D02*
X132334000Y-120777000D01*
X132461000Y-116205000D02*
X132461000Y-121031000D01*
X132588000Y-116078000D02*
X132461000Y-116205000D01*
X132588000Y-121158000D02*
X132588000Y-116078000D01*
X132715000Y-121412000D02*
X132588000Y-121158000D01*
X132715000Y-115951000D02*
X132715000Y-121412000D01*
X132842000Y-115824000D02*
X132715000Y-116078000D01*
X132842000Y-121539000D02*
X132842000Y-115824000D01*
X139448048Y-118618000D02*
G75*
G03X139448048Y-118618000I-3939048J0D01*
G01*
X138409000Y-114518000D02*
X138409000Y-115318000D01*
X138009000Y-114918000D02*
X138809000Y-114918000D01*
X138809000Y-114918000D02*
X138009000Y-114918000D01*
X131699000Y-108585000D02*
X132461000Y-107315000D01*
X131699000Y-110617000D02*
X131699000Y-108585000D01*
X131699000Y-108966000D02*
X131699000Y-110617000D01*
X131826000Y-108458000D02*
X131699000Y-108966000D01*
X131826000Y-110871000D02*
X131826000Y-108458000D01*
X131953000Y-111252000D02*
X131826000Y-110871000D01*
X131953000Y-108077000D02*
X131953000Y-111252000D01*
X132080000Y-107950000D02*
X131953000Y-108077000D01*
X132080000Y-111506000D02*
X132080000Y-107950000D01*
X132207000Y-111760000D02*
X132080000Y-111506000D01*
X132207000Y-107823000D02*
X132207000Y-111760000D01*
X132334000Y-107569000D02*
X132207000Y-107823000D01*
X132334000Y-111887000D02*
X132334000Y-107569000D01*
X132461000Y-112141000D02*
X132334000Y-111887000D01*
X132461000Y-107315000D02*
X132461000Y-112141000D01*
X132588000Y-107188000D02*
X132461000Y-107315000D01*
X132588000Y-112268000D02*
X132588000Y-107188000D01*
X132715000Y-112522000D02*
X132588000Y-112268000D01*
X132715000Y-107061000D02*
X132715000Y-112522000D01*
X132842000Y-106934000D02*
X132715000Y-107188000D01*
X132842000Y-112649000D02*
X132842000Y-106934000D01*
X139448048Y-109728000D02*
G75*
G03X139448048Y-109728000I-3939048J0D01*
G01*
X138409000Y-105628000D02*
X138409000Y-106428000D01*
X138009000Y-106028000D02*
X138809000Y-106028000D01*
X138809000Y-106028000D02*
X138009000Y-106028000D01*
X153783000Y-90246000D02*
X153783000Y-87046000D01*
X158383000Y-90246000D02*
X153783000Y-90246000D01*
X158383000Y-87046000D02*
X158383000Y-90246000D01*
X153783000Y-87046000D02*
X158383000Y-87046000D01*
X190700000Y-129921000D02*
G75*
G03X190700000Y-129921000I-200000J0D01*
G01*
X191100000Y-129571000D02*
X191100000Y-130271000D01*
X189900000Y-130271000D02*
X189900000Y-129571000D01*
X153235000Y-105791000D02*
G75*
G03X153235000Y-105791000I-200000J0D01*
G01*
X153635000Y-105441000D02*
X153635000Y-106141000D01*
X152435000Y-106141000D02*
X152435000Y-105441000D01*
X180850000Y-131797000D02*
X181050000Y-131797000D01*
X180850000Y-131797000D02*
X180850000Y-131497000D01*
X180950000Y-131797000D02*
X187450000Y-131697000D01*
X187450000Y-125097000D02*
X180850000Y-125097000D01*
X180850000Y-125097000D02*
X180850000Y-131697000D01*
X187450000Y-131697000D02*
X187450000Y-125097000D01*
X186450000Y-126297000D02*
X186450000Y-130497000D01*
X186650000Y-130297000D02*
X186650000Y-126597000D01*
X186850000Y-126897000D02*
X186850000Y-129997000D01*
X187050000Y-129597000D02*
X187050000Y-127297000D01*
X187150000Y-127497000D02*
X187150000Y-129297000D01*
X186950000Y-129797000D02*
X186950000Y-126997000D01*
X186750000Y-126697000D02*
X186750000Y-130197000D01*
X186550000Y-130397000D02*
X186550000Y-126397000D01*
X187300000Y-128397000D02*
G75*
G03X187300000Y-128397000I-3150000J0D01*
G01*
X158777447Y-112482924D02*
X160686635Y-110573736D01*
X157646076Y-111351553D02*
X158777447Y-112482924D01*
X159555264Y-109442365D02*
X157646076Y-111351553D01*
X160615924Y-110503025D02*
X159555264Y-109442365D01*
X174672000Y-124397000D02*
X169672000Y-124397000D01*
X174672000Y-132397000D02*
X174672000Y-124397000D01*
X169672000Y-132397000D02*
X174672000Y-132397000D01*
X169672000Y-124397000D02*
X169672000Y-132397000D01*
X165325000Y-133729000D02*
X165325000Y-133529000D01*
X165325000Y-133729000D02*
X165025000Y-133729000D01*
X165325000Y-133629000D02*
X165225000Y-127129000D01*
X158625000Y-127129000D02*
X158625000Y-133729000D01*
X158625000Y-133729000D02*
X165225000Y-133729000D01*
X165225000Y-127129000D02*
X158625000Y-127129000D01*
X159825000Y-128129000D02*
X164025000Y-128129000D01*
X163825000Y-127929000D02*
X160125000Y-127929000D01*
X160425000Y-127729000D02*
X163525000Y-127729000D01*
X163125000Y-127529000D02*
X160825000Y-127529000D01*
X161025000Y-127429000D02*
X162825000Y-127429000D01*
X163325000Y-127629000D02*
X160525000Y-127629000D01*
X160225000Y-127829000D02*
X163725000Y-127829000D01*
X163925000Y-128029000D02*
X159925000Y-128029000D01*
X165075000Y-130429000D02*
G75*
G03X165075000Y-130429000I-3150000J0D01*
G01*
X131699000Y-99187000D02*
X132461000Y-97917000D01*
X131699000Y-101219000D02*
X131699000Y-99187000D01*
X131699000Y-99568000D02*
X131699000Y-101219000D01*
X131826000Y-99060000D02*
X131699000Y-99568000D01*
X131826000Y-101473000D02*
X131826000Y-99060000D01*
X131953000Y-101854000D02*
X131826000Y-101473000D01*
X131953000Y-98679000D02*
X131953000Y-101854000D01*
X132080000Y-98552000D02*
X131953000Y-98679000D01*
X132080000Y-102108000D02*
X132080000Y-98552000D01*
X132207000Y-102362000D02*
X132080000Y-102108000D01*
X132207000Y-98425000D02*
X132207000Y-102362000D01*
X132334000Y-98171000D02*
X132207000Y-98425000D01*
X132334000Y-102489000D02*
X132334000Y-98171000D01*
X132461000Y-102743000D02*
X132334000Y-102489000D01*
X132461000Y-97917000D02*
X132461000Y-102743000D01*
X132588000Y-97790000D02*
X132461000Y-97917000D01*
X132588000Y-102870000D02*
X132588000Y-97790000D01*
X132715000Y-103124000D02*
X132588000Y-102870000D01*
X132715000Y-97663000D02*
X132715000Y-103124000D01*
X132842000Y-97536000D02*
X132715000Y-97790000D01*
X132842000Y-103251000D02*
X132842000Y-97536000D01*
X139448048Y-100330000D02*
G75*
G03X139448048Y-100330000I-3939048J0D01*
G01*
X138409000Y-96230000D02*
X138409000Y-97030000D01*
X138009000Y-96630000D02*
X138809000Y-96630000D01*
X138809000Y-96630000D02*
X138009000Y-96630000D01*
X151511000Y-126365000D02*
X155448000Y-126365000D01*
X155448000Y-134366000D02*
X155448000Y-126365000D01*
X151511000Y-134366000D02*
X155448000Y-134366000D01*
X151511000Y-126365000D02*
X151511000Y-134366000D01*
X151543000Y-125302000D02*
X155543000Y-125302000D01*
X142779000Y-124368000D02*
X143479000Y-124368000D01*
X143479000Y-125568000D02*
X142779000Y-125568000D01*
X142906000Y-120050000D02*
X143606000Y-120050000D01*
X143606000Y-121250000D02*
X142906000Y-121250000D01*
X142906000Y-115097000D02*
X143606000Y-115097000D01*
X143606000Y-116297000D02*
X142906000Y-116297000D01*
X143160000Y-109763000D02*
X143860000Y-109763000D01*
X143860000Y-110963000D02*
X143160000Y-110963000D01*
X188564000Y-112741000D02*
X187864000Y-112741000D01*
X187864000Y-111541000D02*
X188564000Y-111541000D01*
X189834000Y-108931000D02*
X189134000Y-108931000D01*
X189134000Y-107731000D02*
X189834000Y-107731000D01*
X183546000Y-122844000D02*
X184246000Y-122844000D01*
X184246000Y-124044000D02*
X183546000Y-124044000D01*
X170973000Y-118653000D02*
X171673000Y-118653000D01*
X171673000Y-119853000D02*
X170973000Y-119853000D01*
X143160000Y-87411000D02*
X143860000Y-87411000D01*
X143860000Y-88611000D02*
X143160000Y-88611000D01*
X143160000Y-89316000D02*
X143860000Y-89316000D01*
X143860000Y-90516000D02*
X143160000Y-90516000D01*
X143287000Y-91094000D02*
X143987000Y-91094000D01*
X143987000Y-92294000D02*
X143287000Y-92294000D01*
X143160000Y-93126000D02*
X143860000Y-93126000D01*
X143860000Y-94326000D02*
X143160000Y-94326000D01*
X143860000Y-96358000D02*
X143160000Y-96358000D01*
X143160000Y-95158000D02*
X143860000Y-95158000D01*
X151892000Y-135763000D02*
X164592000Y-135763000D01*
X164592000Y-135763000D02*
X164592000Y-138303000D01*
X164592000Y-138303000D02*
X151892000Y-138303000D01*
X149352000Y-135763000D02*
X151892000Y-135763000D01*
X151892000Y-135763000D02*
X151892000Y-138303000D01*
X149352000Y-135763000D02*
X149352000Y-138303000D01*
X149352000Y-138303000D02*
X151892000Y-138303000D01*
X171196000Y-135763000D02*
X194056000Y-135763000D01*
X194056000Y-135763000D02*
X194056000Y-138303000D01*
X194056000Y-138303000D02*
X171196000Y-138303000D01*
X168376000Y-135483000D02*
X169926000Y-135483000D01*
X171196000Y-135763000D02*
X171196000Y-138303000D01*
X169926000Y-138583000D02*
X168376000Y-138583000D01*
X168376000Y-138583000D02*
X168376000Y-135483000D01*
X183642000Y-93091000D02*
X183642000Y-100711000D01*
X186182000Y-93091000D02*
X186182000Y-100711000D01*
X186182000Y-90551000D02*
X186182000Y-93091000D01*
X183642000Y-100711000D02*
X186182000Y-100711000D01*
X186182000Y-93091000D02*
X183642000Y-93091000D01*
X186182000Y-90551000D02*
X183642000Y-90551000D01*
X183642000Y-90551000D02*
X183642000Y-93091000D01*
X183642000Y-104394000D02*
X186182000Y-104394000D01*
X183642000Y-106934000D02*
X186182000Y-106934000D01*
X186182000Y-106934000D02*
X186182000Y-104394000D01*
X186182000Y-104394000D02*
X186182000Y-101854000D01*
X186182000Y-101854000D02*
X183642000Y-101854000D01*
X183642000Y-101854000D02*
X183642000Y-106934000D01*
X139373000Y-93086000D02*
X139473000Y-93186000D01*
X139373000Y-89386000D02*
X139373000Y-93086000D01*
X139573000Y-89186000D02*
X139373000Y-89386000D01*
X139973000Y-93586000D02*
X139473000Y-93186000D01*
X140873000Y-93586000D02*
X140073000Y-93586000D01*
X140873000Y-95186000D02*
X140873000Y-93586000D01*
X139973000Y-88786000D02*
X139573000Y-89186000D01*
X140973000Y-88786000D02*
X140073000Y-88786000D01*
X140973000Y-87186000D02*
X140973000Y-88786000D01*
X131373000Y-87186000D02*
X131373000Y-95186000D01*
X140873000Y-95186000D02*
X131473000Y-95186000D01*
X140973000Y-87186000D02*
X131373000Y-87186000D01*
X188603000Y-99012000D02*
X188603000Y-100512000D01*
X188603000Y-100512000D02*
X193103000Y-100512000D01*
X193103000Y-100512000D02*
X193103000Y-101012000D01*
X193103000Y-101012000D02*
X194103000Y-101012000D01*
X194103000Y-101012000D02*
X194103000Y-96012000D01*
X188603000Y-93012000D02*
X188603000Y-91512000D01*
X188603000Y-91512000D02*
X193103000Y-91512000D01*
X194103000Y-96012000D02*
X194103000Y-91012000D01*
X194103000Y-91012000D02*
X193103000Y-91012000D01*
X193103000Y-91012000D02*
X193103000Y-91512000D01*
X171791000Y-100068000D02*
X171791000Y-99068000D01*
X173141000Y-99068000D02*
X173141000Y-100068000D01*
X183221000Y-112006000D02*
X183221000Y-111006000D01*
X184571000Y-111006000D02*
X184571000Y-112006000D01*
X190968000Y-117086000D02*
X190968000Y-116086000D01*
X192318000Y-116086000D02*
X192318000Y-117086000D01*
X158663000Y-121166000D02*
X158663000Y-122166000D01*
X157313000Y-122166000D02*
X157313000Y-121166000D01*
X189825000Y-125849000D02*
X189825000Y-124849000D01*
X191175000Y-124849000D02*
X191175000Y-125849000D01*
X149566000Y-106291000D02*
X149566000Y-105291000D01*
X150916000Y-105291000D02*
X150916000Y-106291000D01*
X150789000Y-88654000D02*
X150789000Y-89654000D01*
X149439000Y-89654000D02*
X149439000Y-88654000D01*
X150789000Y-93480000D02*
X150789000Y-94480000D01*
X149439000Y-94480000D02*
X149439000Y-93480000D01*
X146264000Y-99433000D02*
X146264000Y-98433000D01*
X147614000Y-98433000D02*
X147614000Y-99433000D01*
X157948000Y-104005000D02*
X157948000Y-103005000D01*
X159298000Y-103005000D02*
X159298000Y-104005000D01*
X160615000Y-104005000D02*
X160615000Y-103005000D01*
X161965000Y-103005000D02*
X161965000Y-104005000D01*
X164505000Y-103005000D02*
X164505000Y-104005000D01*
X163155000Y-104005000D02*
X163155000Y-103005000D01*
X140549000Y-99433000D02*
X140549000Y-98433000D01*
X141899000Y-98433000D02*
X141899000Y-99433000D01*
X193316000Y-104267000D02*
G75*
G03X193316000Y-104267000I-1800000J0D01*
G01*
X137825480Y-123225560D02*
X136024620Y-123225560D01*
X137825480Y-123225560D02*
X137825480Y-123875800D01*
X137825480Y-127726440D02*
X136024620Y-127726440D01*
X137825480Y-127726440D02*
X137825480Y-127076200D01*
D15*
X184277000Y-116459000D02*
X184150000Y-116459000D01*
X184150000Y-116459000D02*
X184150000Y-121793000D01*
X187960000Y-121793000D02*
X187960000Y-116459000D01*
X187960000Y-116459000D02*
X184277000Y-116459000D01*
X186563000Y-116459000D02*
X186563000Y-116967000D01*
X186563000Y-116967000D02*
X185547000Y-116967000D01*
X185547000Y-116967000D02*
X185547000Y-116459000D01*
X187960000Y-121793000D02*
X184150000Y-121793000D01*
D14*
X149906555Y-111962000D02*
G75*
G03X149906555Y-111962000I-360555J0D01*
G01*
X148846000Y-111262000D02*
X154146000Y-111262000D01*
X154146000Y-111262000D02*
X154146000Y-121762000D01*
X154146000Y-121762000D02*
X148846000Y-121762000D01*
X148846000Y-121762000D02*
X148846000Y-111262000D01*
X172974000Y-106426000D02*
X172974000Y-103378000D01*
X174244000Y-107696000D02*
X172974000Y-106426000D01*
X178181000Y-107696000D02*
X174244000Y-107696000D01*
X178181000Y-103378000D02*
X178181000Y-107696000D01*
X172974000Y-103378000D02*
X178181000Y-103378000D01*
X166116000Y-109046476D02*
X165886190Y-109276286D01*
X171242524Y-114173000D02*
X171012714Y-114402810D01*
X166116000Y-119299524D02*
X166345810Y-119069714D01*
X160989476Y-114173000D02*
X161219286Y-113943190D01*
X166116000Y-109046476D02*
X166345810Y-109276286D01*
X160989476Y-114173000D02*
X161219286Y-114402810D01*
X166116000Y-119299524D02*
X165886190Y-119069714D01*
X171242524Y-114173000D02*
X171012714Y-113943190D01*
X165886190Y-109276286D02*
X164878563Y-108268658D01*
X163449000Y-98425000D02*
X163449000Y-97790000D01*
X163449000Y-97790000D02*
X162433000Y-97790000D01*
X162433000Y-99568000D02*
X163449000Y-99568000D01*
X163449000Y-99568000D02*
X163449000Y-98933000D01*
X163576000Y-98425000D02*
X163449000Y-98425000D01*
X163449000Y-98933000D02*
X163576000Y-98933000D01*
X162433000Y-97790000D02*
X162433000Y-99568000D01*
X163576000Y-98933000D02*
X163576000Y-98425000D01*
X167132000Y-89408000D02*
X167132000Y-94488000D01*
X166852000Y-86588000D02*
X168402000Y-86588000D01*
X169672000Y-86868000D02*
X169672000Y-89408000D01*
X169672000Y-89408000D02*
X167132000Y-89408000D01*
X167132000Y-94488000D02*
X172212000Y-94488000D01*
X172212000Y-94488000D02*
X172212000Y-89408000D01*
X166852000Y-86588000D02*
X166852000Y-88138000D01*
X172212000Y-86868000D02*
X169672000Y-86868000D01*
X172212000Y-89408000D02*
X172212000Y-86868000D01*
X171617000Y-102751000D02*
X171617000Y-103751000D01*
X170267000Y-103751000D02*
X170267000Y-102751000D01*
X161829000Y-91348000D02*
X162529000Y-91348000D01*
X162529000Y-92548000D02*
X161829000Y-92548000D01*
X175387000Y-89408000D02*
X183007000Y-89408000D01*
X175387000Y-86868000D02*
X183007000Y-86868000D01*
X172847000Y-86868000D02*
X175387000Y-86868000D01*
X183007000Y-89408000D02*
X183007000Y-86868000D01*
X175387000Y-86868000D02*
X175387000Y-89408000D01*
X172847000Y-86868000D02*
X172847000Y-89408000D01*
X172847000Y-89408000D02*
X175387000Y-89408000D01*
X145057905Y-133040381D02*
X145057905Y-132040381D01*
X145438858Y-132040381D01*
X145534096Y-132088000D01*
X145581715Y-132135619D01*
X145629334Y-132230857D01*
X145629334Y-132373714D01*
X145581715Y-132468952D01*
X145534096Y-132516571D01*
X145438858Y-132564190D01*
X145057905Y-132564190D01*
X146581715Y-133040381D02*
X146010286Y-133040381D01*
X146296000Y-133040381D02*
X146296000Y-132040381D01*
X146200762Y-132183238D01*
X146105524Y-132278476D01*
X146010286Y-132326095D01*
D12*
X161652095Y-90658905D02*
X161385428Y-90277952D01*
X161194952Y-90658905D02*
X161194952Y-89858905D01*
X161499714Y-89858905D01*
X161575905Y-89897000D01*
X161614000Y-89935095D01*
X161652095Y-90011286D01*
X161652095Y-90125571D01*
X161614000Y-90201762D01*
X161575905Y-90239857D01*
X161499714Y-90277952D01*
X161194952Y-90277952D01*
X161994952Y-90239857D02*
X162261619Y-90239857D01*
X162375905Y-90658905D02*
X161994952Y-90658905D01*
X161994952Y-89858905D01*
X162375905Y-89858905D01*
X162680667Y-90620810D02*
X162794953Y-90658905D01*
X162985429Y-90658905D01*
X163061619Y-90620810D01*
X163099715Y-90582714D01*
X163137810Y-90506524D01*
X163137810Y-90430333D01*
X163099715Y-90354143D01*
X163061619Y-90316048D01*
X162985429Y-90277952D01*
X162833048Y-90239857D01*
X162756857Y-90201762D01*
X162718762Y-90163667D01*
X162680667Y-90087476D01*
X162680667Y-90011286D01*
X162718762Y-89935095D01*
X162756857Y-89897000D01*
X162833048Y-89858905D01*
X163023524Y-89858905D01*
X163137810Y-89897000D01*
X163480667Y-90239857D02*
X163747334Y-90239857D01*
X163861620Y-90658905D02*
X163480667Y-90658905D01*
X163480667Y-89858905D01*
X163861620Y-89858905D01*
X164090191Y-89858905D02*
X164547334Y-89858905D01*
X164318763Y-90658905D02*
X164318763Y-89858905D01*
D14*
X145105381Y-106783095D02*
X144105381Y-106783095D01*
X144105381Y-106545000D01*
X144153000Y-106402142D01*
X144248238Y-106306904D01*
X144343476Y-106259285D01*
X144533952Y-106211666D01*
X144676810Y-106211666D01*
X144867286Y-106259285D01*
X144962524Y-106306904D01*
X145057762Y-106402142D01*
X145105381Y-106545000D01*
X145105381Y-106783095D01*
X144438714Y-105354523D02*
X145105381Y-105354523D01*
X144057762Y-105592619D02*
X144772048Y-105830714D01*
X144772048Y-105211666D01*
X141803381Y-109354857D02*
X141327190Y-109688191D01*
X141803381Y-109926286D02*
X140803381Y-109926286D01*
X140803381Y-109545333D01*
X140851000Y-109450095D01*
X140898619Y-109402476D01*
X140993857Y-109354857D01*
X141136714Y-109354857D01*
X141231952Y-109402476D01*
X141279571Y-109450095D01*
X141327190Y-109545333D01*
X141327190Y-109926286D01*
X141803381Y-108402476D02*
X141803381Y-108973905D01*
X141803381Y-108688191D02*
X140803381Y-108688191D01*
X140946238Y-108783429D01*
X141041476Y-108878667D01*
X141089095Y-108973905D01*
X140803381Y-107497714D02*
X140803381Y-107973905D01*
X141279571Y-108021524D01*
X141231952Y-107973905D01*
X141184333Y-107878667D01*
X141184333Y-107640571D01*
X141231952Y-107545333D01*
X141279571Y-107497714D01*
X141374810Y-107450095D01*
X141612905Y-107450095D01*
X141708143Y-107497714D01*
X141755762Y-107545333D01*
X141803381Y-107640571D01*
X141803381Y-107878667D01*
X141755762Y-107973905D01*
X141708143Y-108021524D01*
X144343381Y-102211095D02*
X143343381Y-102211095D01*
X143343381Y-101973000D01*
X143391000Y-101830142D01*
X143486238Y-101734904D01*
X143581476Y-101687285D01*
X143771952Y-101639666D01*
X143914810Y-101639666D01*
X144105286Y-101687285D01*
X144200524Y-101734904D01*
X144295762Y-101830142D01*
X144343381Y-101973000D01*
X144343381Y-102211095D01*
X143343381Y-100734904D02*
X143343381Y-101211095D01*
X143819571Y-101258714D01*
X143771952Y-101211095D01*
X143724333Y-101115857D01*
X143724333Y-100877761D01*
X143771952Y-100782523D01*
X143819571Y-100734904D01*
X143914810Y-100687285D01*
X144152905Y-100687285D01*
X144248143Y-100734904D01*
X144295762Y-100782523D01*
X144343381Y-100877761D01*
X144343381Y-101115857D01*
X144295762Y-101211095D01*
X144248143Y-101258714D01*
X155448095Y-95845381D02*
X155448095Y-96654905D01*
X155495714Y-96750143D01*
X155543333Y-96797762D01*
X155638571Y-96845381D01*
X155829048Y-96845381D01*
X155924286Y-96797762D01*
X155971905Y-96750143D01*
X156019524Y-96654905D01*
X156019524Y-95845381D01*
X156543333Y-96845381D02*
X156733809Y-96845381D01*
X156829048Y-96797762D01*
X156876667Y-96750143D01*
X156971905Y-96607286D01*
X157019524Y-96416810D01*
X157019524Y-96035857D01*
X156971905Y-95940619D01*
X156924286Y-95893000D01*
X156829048Y-95845381D01*
X156638571Y-95845381D01*
X156543333Y-95893000D01*
X156495714Y-95940619D01*
X156448095Y-96035857D01*
X156448095Y-96273952D01*
X156495714Y-96369190D01*
X156543333Y-96416810D01*
X156638571Y-96464429D01*
X156829048Y-96464429D01*
X156924286Y-96416810D01*
X156971905Y-96369190D01*
X157019524Y-96273952D01*
X176998334Y-94591143D02*
X176950715Y-94638762D01*
X176807858Y-94686381D01*
X176712620Y-94686381D01*
X176569762Y-94638762D01*
X176474524Y-94543524D01*
X176426905Y-94448286D01*
X176379286Y-94257810D01*
X176379286Y-94114952D01*
X176426905Y-93924476D01*
X176474524Y-93829238D01*
X176569762Y-93734000D01*
X176712620Y-93686381D01*
X176807858Y-93686381D01*
X176950715Y-93734000D01*
X176998334Y-93781619D01*
X177474524Y-94686381D02*
X177665000Y-94686381D01*
X177760239Y-94638762D01*
X177807858Y-94591143D01*
X177903096Y-94448286D01*
X177950715Y-94257810D01*
X177950715Y-93876857D01*
X177903096Y-93781619D01*
X177855477Y-93734000D01*
X177760239Y-93686381D01*
X177569762Y-93686381D01*
X177474524Y-93734000D01*
X177426905Y-93781619D01*
X177379286Y-93876857D01*
X177379286Y-94114952D01*
X177426905Y-94210190D01*
X177474524Y-94257810D01*
X177569762Y-94305429D01*
X177760239Y-94305429D01*
X177855477Y-94257810D01*
X177903096Y-94210190D01*
X177950715Y-94114952D01*
X132040334Y-123674143D02*
X131992715Y-123721762D01*
X131849858Y-123769381D01*
X131754620Y-123769381D01*
X131611762Y-123721762D01*
X131516524Y-123626524D01*
X131468905Y-123531286D01*
X131421286Y-123340810D01*
X131421286Y-123197952D01*
X131468905Y-123007476D01*
X131516524Y-122912238D01*
X131611762Y-122817000D01*
X131754620Y-122769381D01*
X131849858Y-122769381D01*
X131992715Y-122817000D01*
X132040334Y-122864619D01*
X132897477Y-123102714D02*
X132897477Y-123769381D01*
X132659381Y-122721762D02*
X132421286Y-123436048D01*
X133040334Y-123436048D01*
X138380429Y-115298952D02*
X138380429Y-114537047D01*
X138761381Y-114917999D02*
X137999476Y-114917999D01*
X132040334Y-106021143D02*
X131992715Y-106068762D01*
X131849858Y-106116381D01*
X131754620Y-106116381D01*
X131611762Y-106068762D01*
X131516524Y-105973524D01*
X131468905Y-105878286D01*
X131421286Y-105687810D01*
X131421286Y-105544952D01*
X131468905Y-105354476D01*
X131516524Y-105259238D01*
X131611762Y-105164000D01*
X131754620Y-105116381D01*
X131849858Y-105116381D01*
X131992715Y-105164000D01*
X132040334Y-105211619D01*
X132897477Y-105116381D02*
X132707000Y-105116381D01*
X132611762Y-105164000D01*
X132564143Y-105211619D01*
X132468905Y-105354476D01*
X132421286Y-105544952D01*
X132421286Y-105925905D01*
X132468905Y-106021143D01*
X132516524Y-106068762D01*
X132611762Y-106116381D01*
X132802239Y-106116381D01*
X132897477Y-106068762D01*
X132945096Y-106021143D01*
X132992715Y-105925905D01*
X132992715Y-105687810D01*
X132945096Y-105592571D01*
X132897477Y-105544952D01*
X132802239Y-105497333D01*
X132611762Y-105497333D01*
X132516524Y-105544952D01*
X132468905Y-105592571D01*
X132421286Y-105687810D01*
X138380429Y-106408952D02*
X138380429Y-105647047D01*
X138761381Y-106027999D02*
X137999476Y-106027999D01*
X155975857Y-88891999D02*
X155975857Y-89391999D01*
X156761571Y-89391999D02*
X155261571Y-89391999D01*
X155261571Y-88677713D01*
X156761571Y-87320571D02*
X156761571Y-88177714D01*
X156761571Y-87749142D02*
X155261571Y-87749142D01*
X155475857Y-87891999D01*
X155618714Y-88034857D01*
X155690143Y-88177714D01*
X190952381Y-133199095D02*
X189952381Y-133199095D01*
X189952381Y-132961000D01*
X190000000Y-132818142D01*
X190095238Y-132722904D01*
X190190476Y-132675285D01*
X190380952Y-132627666D01*
X190523810Y-132627666D01*
X190714286Y-132675285D01*
X190809524Y-132722904D01*
X190904762Y-132818142D01*
X190952381Y-132961000D01*
X190952381Y-133199095D01*
X190047619Y-132246714D02*
X190000000Y-132199095D01*
X189952381Y-132103857D01*
X189952381Y-131865761D01*
X190000000Y-131770523D01*
X190047619Y-131722904D01*
X190142857Y-131675285D01*
X190238095Y-131675285D01*
X190380952Y-131722904D01*
X190952381Y-132294333D01*
X190952381Y-131675285D01*
X153487381Y-104116095D02*
X152487381Y-104116095D01*
X152487381Y-103878000D01*
X152535000Y-103735142D01*
X152630238Y-103639904D01*
X152725476Y-103592285D01*
X152915952Y-103544666D01*
X153058810Y-103544666D01*
X153249286Y-103592285D01*
X153344524Y-103639904D01*
X153439762Y-103735142D01*
X153487381Y-103878000D01*
X153487381Y-104116095D01*
X152487381Y-103211333D02*
X152487381Y-102592285D01*
X152868333Y-102925619D01*
X152868333Y-102782761D01*
X152915952Y-102687523D01*
X152963571Y-102639904D01*
X153058810Y-102592285D01*
X153296905Y-102592285D01*
X153392143Y-102639904D01*
X153439762Y-102687523D01*
X153487381Y-102782761D01*
X153487381Y-103068476D01*
X153439762Y-103163714D01*
X153392143Y-103211333D01*
X183761143Y-132945143D02*
X183713524Y-132992762D01*
X183570667Y-133040381D01*
X183475429Y-133040381D01*
X183332571Y-132992762D01*
X183237333Y-132897524D01*
X183189714Y-132802286D01*
X183142095Y-132611810D01*
X183142095Y-132468952D01*
X183189714Y-132278476D01*
X183237333Y-132183238D01*
X183332571Y-132088000D01*
X183475429Y-132040381D01*
X183570667Y-132040381D01*
X183713524Y-132088000D01*
X183761143Y-132135619D01*
X184713524Y-133040381D02*
X184142095Y-133040381D01*
X184427809Y-133040381D02*
X184427809Y-132040381D01*
X184332571Y-132183238D01*
X184237333Y-132278476D01*
X184142095Y-132326095D01*
X185665905Y-133040381D02*
X185094476Y-133040381D01*
X185380190Y-133040381D02*
X185380190Y-132040381D01*
X185284952Y-132183238D01*
X185189714Y-132278476D01*
X185094476Y-132326095D01*
X186957143Y-126268428D02*
X186957143Y-125125571D01*
X181557143Y-126368428D02*
X181557143Y-125225571D01*
X182128571Y-125797000D02*
X180985714Y-125797000D01*
X156901355Y-109913195D02*
X158079867Y-110148897D01*
X157372760Y-109441790D02*
X157608462Y-110620302D01*
X158719630Y-109509133D02*
X158315569Y-109913195D01*
X158517599Y-109711164D02*
X157810492Y-109004058D01*
X157844164Y-109172416D01*
X157844164Y-109307103D01*
X157810492Y-109408118D01*
X171577095Y-132675381D02*
X171577095Y-133484905D01*
X171624714Y-133580143D01*
X171672333Y-133627762D01*
X171767571Y-133675381D01*
X171958048Y-133675381D01*
X172053286Y-133627762D01*
X172100905Y-133580143D01*
X172148524Y-133484905D01*
X172148524Y-132675381D01*
X172529476Y-132675381D02*
X173196143Y-132675381D01*
X172767571Y-133675381D01*
X159250143Y-126595143D02*
X159202524Y-126642762D01*
X159059667Y-126690381D01*
X158964429Y-126690381D01*
X158821571Y-126642762D01*
X158726333Y-126547524D01*
X158678714Y-126452286D01*
X158631095Y-126261810D01*
X158631095Y-126118952D01*
X158678714Y-125928476D01*
X158726333Y-125833238D01*
X158821571Y-125738000D01*
X158964429Y-125690381D01*
X159059667Y-125690381D01*
X159202524Y-125738000D01*
X159250143Y-125785619D01*
X160202524Y-126690381D02*
X159631095Y-126690381D01*
X159916809Y-126690381D02*
X159916809Y-125690381D01*
X159821571Y-125833238D01*
X159726333Y-125928476D01*
X159631095Y-125976095D01*
X160821571Y-125690381D02*
X160916810Y-125690381D01*
X161012048Y-125738000D01*
X161059667Y-125785619D01*
X161107286Y-125880857D01*
X161154905Y-126071333D01*
X161154905Y-126309429D01*
X161107286Y-126499905D01*
X161059667Y-126595143D01*
X161012048Y-126642762D01*
X160916810Y-126690381D01*
X160821571Y-126690381D01*
X160726333Y-126642762D01*
X160678714Y-126595143D01*
X160631095Y-126499905D01*
X160583476Y-126309429D01*
X160583476Y-126071333D01*
X160631095Y-125880857D01*
X160678714Y-125785619D01*
X160726333Y-125738000D01*
X160821571Y-125690381D01*
X158653572Y-127836143D02*
X159796429Y-127836143D01*
X158753572Y-133236143D02*
X159896429Y-133236143D01*
X159325000Y-133807571D02*
X159325000Y-132664714D01*
X131945143Y-96496143D02*
X131897524Y-96543762D01*
X131754667Y-96591381D01*
X131659429Y-96591381D01*
X131516571Y-96543762D01*
X131421333Y-96448524D01*
X131373714Y-96353286D01*
X131326095Y-96162810D01*
X131326095Y-96019952D01*
X131373714Y-95829476D01*
X131421333Y-95734238D01*
X131516571Y-95639000D01*
X131659429Y-95591381D01*
X131754667Y-95591381D01*
X131897524Y-95639000D01*
X131945143Y-95686619D01*
X132897524Y-96591381D02*
X132326095Y-96591381D01*
X132611809Y-96591381D02*
X132611809Y-95591381D01*
X132516571Y-95734238D01*
X132421333Y-95829476D01*
X132326095Y-95877095D01*
X133230857Y-95591381D02*
X133897524Y-95591381D01*
X133468952Y-96591381D01*
X138380429Y-97010952D02*
X138380429Y-96249047D01*
X138761381Y-96629999D02*
X137999476Y-96629999D01*
X152804905Y-130754381D02*
X152804905Y-129754381D01*
X153043000Y-129754381D01*
X153185858Y-129802000D01*
X153281096Y-129897238D01*
X153328715Y-129992476D01*
X153376334Y-130182952D01*
X153376334Y-130325810D01*
X153328715Y-130516286D01*
X153281096Y-130611524D01*
X153185858Y-130706762D01*
X153043000Y-130754381D01*
X152804905Y-130754381D01*
X154328715Y-130754381D02*
X153757286Y-130754381D01*
X154043000Y-130754381D02*
X154043000Y-129754381D01*
X153947762Y-129897238D01*
X153852524Y-129992476D01*
X153757286Y-130040095D01*
X145502334Y-125325143D02*
X145454715Y-125372762D01*
X145311858Y-125420381D01*
X145216620Y-125420381D01*
X145073762Y-125372762D01*
X144978524Y-125277524D01*
X144930905Y-125182286D01*
X144883286Y-124991810D01*
X144883286Y-124848952D01*
X144930905Y-124658476D01*
X144978524Y-124563238D01*
X145073762Y-124468000D01*
X145216620Y-124420381D01*
X145311858Y-124420381D01*
X145454715Y-124468000D01*
X145502334Y-124515619D01*
X146454715Y-125420381D02*
X145883286Y-125420381D01*
X146169000Y-125420381D02*
X146169000Y-124420381D01*
X146073762Y-124563238D01*
X145978524Y-124658476D01*
X145883286Y-124706095D01*
X145502334Y-121007143D02*
X145454715Y-121054762D01*
X145311858Y-121102381D01*
X145216620Y-121102381D01*
X145073762Y-121054762D01*
X144978524Y-120959524D01*
X144930905Y-120864286D01*
X144883286Y-120673810D01*
X144883286Y-120530952D01*
X144930905Y-120340476D01*
X144978524Y-120245238D01*
X145073762Y-120150000D01*
X145216620Y-120102381D01*
X145311858Y-120102381D01*
X145454715Y-120150000D01*
X145502334Y-120197619D01*
X145883286Y-120197619D02*
X145930905Y-120150000D01*
X146026143Y-120102381D01*
X146264239Y-120102381D01*
X146359477Y-120150000D01*
X146407096Y-120197619D01*
X146454715Y-120292857D01*
X146454715Y-120388095D01*
X146407096Y-120530952D01*
X145835667Y-121102381D01*
X146454715Y-121102381D01*
X145629334Y-116181143D02*
X145581715Y-116228762D01*
X145438858Y-116276381D01*
X145343620Y-116276381D01*
X145200762Y-116228762D01*
X145105524Y-116133524D01*
X145057905Y-116038286D01*
X145010286Y-115847810D01*
X145010286Y-115704952D01*
X145057905Y-115514476D01*
X145105524Y-115419238D01*
X145200762Y-115324000D01*
X145343620Y-115276381D01*
X145438858Y-115276381D01*
X145581715Y-115324000D01*
X145629334Y-115371619D01*
X145962667Y-115276381D02*
X146581715Y-115276381D01*
X146248381Y-115657333D01*
X146391239Y-115657333D01*
X146486477Y-115704952D01*
X146534096Y-115752571D01*
X146581715Y-115847810D01*
X146581715Y-116085905D01*
X146534096Y-116181143D01*
X146486477Y-116228762D01*
X146391239Y-116276381D01*
X146105524Y-116276381D01*
X146010286Y-116228762D01*
X145962667Y-116181143D01*
X145883334Y-110720143D02*
X145835715Y-110767762D01*
X145692858Y-110815381D01*
X145597620Y-110815381D01*
X145454762Y-110767762D01*
X145359524Y-110672524D01*
X145311905Y-110577286D01*
X145264286Y-110386810D01*
X145264286Y-110243952D01*
X145311905Y-110053476D01*
X145359524Y-109958238D01*
X145454762Y-109863000D01*
X145597620Y-109815381D01*
X145692858Y-109815381D01*
X145835715Y-109863000D01*
X145883334Y-109910619D01*
X146788096Y-109815381D02*
X146311905Y-109815381D01*
X146264286Y-110291571D01*
X146311905Y-110243952D01*
X146407143Y-110196333D01*
X146645239Y-110196333D01*
X146740477Y-110243952D01*
X146788096Y-110291571D01*
X146835715Y-110386810D01*
X146835715Y-110624905D01*
X146788096Y-110720143D01*
X146740477Y-110767762D01*
X146645239Y-110815381D01*
X146407143Y-110815381D01*
X146311905Y-110767762D01*
X146264286Y-110720143D01*
X190714334Y-112625143D02*
X190666715Y-112672762D01*
X190523858Y-112720381D01*
X190428620Y-112720381D01*
X190285762Y-112672762D01*
X190190524Y-112577524D01*
X190142905Y-112482286D01*
X190095286Y-112291810D01*
X190095286Y-112148952D01*
X190142905Y-111958476D01*
X190190524Y-111863238D01*
X190285762Y-111768000D01*
X190428620Y-111720381D01*
X190523858Y-111720381D01*
X190666715Y-111768000D01*
X190714334Y-111815619D01*
X191047667Y-111720381D02*
X191714334Y-111720381D01*
X191285762Y-112720381D01*
X191730334Y-109450143D02*
X191682715Y-109497762D01*
X191539858Y-109545381D01*
X191444620Y-109545381D01*
X191301762Y-109497762D01*
X191206524Y-109402524D01*
X191158905Y-109307286D01*
X191111286Y-109116810D01*
X191111286Y-108973952D01*
X191158905Y-108783476D01*
X191206524Y-108688238D01*
X191301762Y-108593000D01*
X191444620Y-108545381D01*
X191539858Y-108545381D01*
X191682715Y-108593000D01*
X191730334Y-108640619D01*
X192301762Y-108973952D02*
X192206524Y-108926333D01*
X192158905Y-108878714D01*
X192111286Y-108783476D01*
X192111286Y-108735857D01*
X192158905Y-108640619D01*
X192206524Y-108593000D01*
X192301762Y-108545381D01*
X192492239Y-108545381D01*
X192587477Y-108593000D01*
X192635096Y-108640619D01*
X192682715Y-108735857D01*
X192682715Y-108783476D01*
X192635096Y-108878714D01*
X192587477Y-108926333D01*
X192492239Y-108973952D01*
X192301762Y-108973952D01*
X192206524Y-109021571D01*
X192158905Y-109069190D01*
X192111286Y-109164429D01*
X192111286Y-109354905D01*
X192158905Y-109450143D01*
X192206524Y-109497762D01*
X192301762Y-109545381D01*
X192492239Y-109545381D01*
X192587477Y-109497762D01*
X192635096Y-109450143D01*
X192682715Y-109354905D01*
X192682715Y-109164429D01*
X192635096Y-109069190D01*
X192587477Y-109021571D01*
X192492239Y-108973952D01*
X186555143Y-123674143D02*
X186507524Y-123721762D01*
X186364667Y-123769381D01*
X186269429Y-123769381D01*
X186126571Y-123721762D01*
X186031333Y-123626524D01*
X185983714Y-123531286D01*
X185936095Y-123340810D01*
X185936095Y-123197952D01*
X185983714Y-123007476D01*
X186031333Y-122912238D01*
X186126571Y-122817000D01*
X186269429Y-122769381D01*
X186364667Y-122769381D01*
X186507524Y-122817000D01*
X186555143Y-122864619D01*
X187507524Y-123769381D02*
X186936095Y-123769381D01*
X187221809Y-123769381D02*
X187221809Y-122769381D01*
X187126571Y-122912238D01*
X187031333Y-123007476D01*
X186936095Y-123055095D01*
X187888476Y-122864619D02*
X187936095Y-122817000D01*
X188031333Y-122769381D01*
X188269429Y-122769381D01*
X188364667Y-122817000D01*
X188412286Y-122864619D01*
X188459905Y-122959857D01*
X188459905Y-123055095D01*
X188412286Y-123197952D01*
X187840857Y-123769381D01*
X188459905Y-123769381D01*
X173855143Y-119737143D02*
X173807524Y-119784762D01*
X173664667Y-119832381D01*
X173569429Y-119832381D01*
X173426571Y-119784762D01*
X173331333Y-119689524D01*
X173283714Y-119594286D01*
X173236095Y-119403810D01*
X173236095Y-119260952D01*
X173283714Y-119070476D01*
X173331333Y-118975238D01*
X173426571Y-118880000D01*
X173569429Y-118832381D01*
X173664667Y-118832381D01*
X173807524Y-118880000D01*
X173855143Y-118927619D01*
X174807524Y-119832381D02*
X174236095Y-119832381D01*
X174521809Y-119832381D02*
X174521809Y-118832381D01*
X174426571Y-118975238D01*
X174331333Y-119070476D01*
X174236095Y-119118095D01*
X175140857Y-118832381D02*
X175759905Y-118832381D01*
X175426571Y-119213333D01*
X175569429Y-119213333D01*
X175664667Y-119260952D01*
X175712286Y-119308571D01*
X175759905Y-119403810D01*
X175759905Y-119641905D01*
X175712286Y-119737143D01*
X175664667Y-119784762D01*
X175569429Y-119832381D01*
X175283714Y-119832381D01*
X175188476Y-119784762D01*
X175140857Y-119737143D01*
X145915143Y-88241143D02*
X145867524Y-88288762D01*
X145724667Y-88336381D01*
X145629429Y-88336381D01*
X145486571Y-88288762D01*
X145391333Y-88193524D01*
X145343714Y-88098286D01*
X145296095Y-87907810D01*
X145296095Y-87764952D01*
X145343714Y-87574476D01*
X145391333Y-87479238D01*
X145486571Y-87384000D01*
X145629429Y-87336381D01*
X145724667Y-87336381D01*
X145867524Y-87384000D01*
X145915143Y-87431619D01*
X146867524Y-88336381D02*
X146296095Y-88336381D01*
X146581809Y-88336381D02*
X146581809Y-87336381D01*
X146486571Y-87479238D01*
X146391333Y-87574476D01*
X146296095Y-87622095D01*
X147724667Y-87669714D02*
X147724667Y-88336381D01*
X147486571Y-87288762D02*
X147248476Y-88003048D01*
X147867524Y-88003048D01*
X145915143Y-90273143D02*
X145867524Y-90320762D01*
X145724667Y-90368381D01*
X145629429Y-90368381D01*
X145486571Y-90320762D01*
X145391333Y-90225524D01*
X145343714Y-90130286D01*
X145296095Y-89939810D01*
X145296095Y-89796952D01*
X145343714Y-89606476D01*
X145391333Y-89511238D01*
X145486571Y-89416000D01*
X145629429Y-89368381D01*
X145724667Y-89368381D01*
X145867524Y-89416000D01*
X145915143Y-89463619D01*
X146867524Y-90368381D02*
X146296095Y-90368381D01*
X146581809Y-90368381D02*
X146581809Y-89368381D01*
X146486571Y-89511238D01*
X146391333Y-89606476D01*
X146296095Y-89654095D01*
X147772286Y-89368381D02*
X147296095Y-89368381D01*
X147248476Y-89844571D01*
X147296095Y-89796952D01*
X147391333Y-89749333D01*
X147629429Y-89749333D01*
X147724667Y-89796952D01*
X147772286Y-89844571D01*
X147819905Y-89939810D01*
X147819905Y-90177905D01*
X147772286Y-90273143D01*
X147724667Y-90320762D01*
X147629429Y-90368381D01*
X147391333Y-90368381D01*
X147296095Y-90320762D01*
X147248476Y-90273143D01*
X145915143Y-92051143D02*
X145867524Y-92098762D01*
X145724667Y-92146381D01*
X145629429Y-92146381D01*
X145486571Y-92098762D01*
X145391333Y-92003524D01*
X145343714Y-91908286D01*
X145296095Y-91717810D01*
X145296095Y-91574952D01*
X145343714Y-91384476D01*
X145391333Y-91289238D01*
X145486571Y-91194000D01*
X145629429Y-91146381D01*
X145724667Y-91146381D01*
X145867524Y-91194000D01*
X145915143Y-91241619D01*
X146867524Y-92146381D02*
X146296095Y-92146381D01*
X146581809Y-92146381D02*
X146581809Y-91146381D01*
X146486571Y-91289238D01*
X146391333Y-91384476D01*
X146296095Y-91432095D01*
X147724667Y-91146381D02*
X147534190Y-91146381D01*
X147438952Y-91194000D01*
X147391333Y-91241619D01*
X147296095Y-91384476D01*
X147248476Y-91574952D01*
X147248476Y-91955905D01*
X147296095Y-92051143D01*
X147343714Y-92098762D01*
X147438952Y-92146381D01*
X147629429Y-92146381D01*
X147724667Y-92098762D01*
X147772286Y-92051143D01*
X147819905Y-91955905D01*
X147819905Y-91717810D01*
X147772286Y-91622571D01*
X147724667Y-91574952D01*
X147629429Y-91527333D01*
X147438952Y-91527333D01*
X147343714Y-91574952D01*
X147296095Y-91622571D01*
X147248476Y-91717810D01*
X145915143Y-94083143D02*
X145867524Y-94130762D01*
X145724667Y-94178381D01*
X145629429Y-94178381D01*
X145486571Y-94130762D01*
X145391333Y-94035524D01*
X145343714Y-93940286D01*
X145296095Y-93749810D01*
X145296095Y-93606952D01*
X145343714Y-93416476D01*
X145391333Y-93321238D01*
X145486571Y-93226000D01*
X145629429Y-93178381D01*
X145724667Y-93178381D01*
X145867524Y-93226000D01*
X145915143Y-93273619D01*
X146867524Y-94178381D02*
X146296095Y-94178381D01*
X146581809Y-94178381D02*
X146581809Y-93178381D01*
X146486571Y-93321238D01*
X146391333Y-93416476D01*
X146296095Y-93464095D01*
X147438952Y-93606952D02*
X147343714Y-93559333D01*
X147296095Y-93511714D01*
X147248476Y-93416476D01*
X147248476Y-93368857D01*
X147296095Y-93273619D01*
X147343714Y-93226000D01*
X147438952Y-93178381D01*
X147629429Y-93178381D01*
X147724667Y-93226000D01*
X147772286Y-93273619D01*
X147819905Y-93368857D01*
X147819905Y-93416476D01*
X147772286Y-93511714D01*
X147724667Y-93559333D01*
X147629429Y-93606952D01*
X147438952Y-93606952D01*
X147343714Y-93654571D01*
X147296095Y-93702190D01*
X147248476Y-93797429D01*
X147248476Y-93987905D01*
X147296095Y-94083143D01*
X147343714Y-94130762D01*
X147438952Y-94178381D01*
X147629429Y-94178381D01*
X147724667Y-94130762D01*
X147772286Y-94083143D01*
X147819905Y-93987905D01*
X147819905Y-93797429D01*
X147772286Y-93702190D01*
X147724667Y-93654571D01*
X147629429Y-93606952D01*
X145915143Y-95988143D02*
X145867524Y-96035762D01*
X145724667Y-96083381D01*
X145629429Y-96083381D01*
X145486571Y-96035762D01*
X145391333Y-95940524D01*
X145343714Y-95845286D01*
X145296095Y-95654810D01*
X145296095Y-95511952D01*
X145343714Y-95321476D01*
X145391333Y-95226238D01*
X145486571Y-95131000D01*
X145629429Y-95083381D01*
X145724667Y-95083381D01*
X145867524Y-95131000D01*
X145915143Y-95178619D01*
X146867524Y-96083381D02*
X146296095Y-96083381D01*
X146581809Y-96083381D02*
X146581809Y-95083381D01*
X146486571Y-95226238D01*
X146391333Y-95321476D01*
X146296095Y-95369095D01*
X147343714Y-96083381D02*
X147534190Y-96083381D01*
X147629429Y-96035762D01*
X147677048Y-95988143D01*
X147772286Y-95845286D01*
X147819905Y-95654810D01*
X147819905Y-95273857D01*
X147772286Y-95178619D01*
X147724667Y-95131000D01*
X147629429Y-95083381D01*
X147438952Y-95083381D01*
X147343714Y-95131000D01*
X147296095Y-95178619D01*
X147248476Y-95273857D01*
X147248476Y-95511952D01*
X147296095Y-95607190D01*
X147343714Y-95654810D01*
X147438952Y-95702429D01*
X147629429Y-95702429D01*
X147724667Y-95654810D01*
X147772286Y-95607190D01*
X147819905Y-95511952D01*
X165060381Y-137993333D02*
X165774667Y-137993333D01*
X165917524Y-138040953D01*
X166012762Y-138136191D01*
X166060381Y-138279048D01*
X166060381Y-138374286D01*
X166060381Y-137517143D02*
X165060381Y-137517143D01*
X165060381Y-137136190D01*
X165108000Y-137040952D01*
X165155619Y-136993333D01*
X165250857Y-136945714D01*
X165393714Y-136945714D01*
X165488952Y-136993333D01*
X165536571Y-137040952D01*
X165584190Y-137136190D01*
X165584190Y-137517143D01*
X166060381Y-135993333D02*
X166060381Y-136564762D01*
X166060381Y-136279048D02*
X165060381Y-136279048D01*
X165203238Y-136374286D01*
X165298476Y-136469524D01*
X165346095Y-136564762D01*
X166838381Y-137993333D02*
X167552667Y-137993333D01*
X167695524Y-138040953D01*
X167790762Y-138136191D01*
X167838381Y-138279048D01*
X167838381Y-138374286D01*
X167838381Y-137517143D02*
X166838381Y-137517143D01*
X166838381Y-137136190D01*
X166886000Y-137040952D01*
X166933619Y-136993333D01*
X167028857Y-136945714D01*
X167171714Y-136945714D01*
X167266952Y-136993333D01*
X167314571Y-137040952D01*
X167362190Y-137136190D01*
X167362190Y-137517143D01*
X166933619Y-136564762D02*
X166886000Y-136517143D01*
X166838381Y-136421905D01*
X166838381Y-136183809D01*
X166886000Y-136088571D01*
X166933619Y-136040952D01*
X167028857Y-135993333D01*
X167124095Y-135993333D01*
X167266952Y-136040952D01*
X167838381Y-136612381D01*
X167838381Y-135993333D01*
X184078667Y-89241381D02*
X184078667Y-89955667D01*
X184031047Y-90098524D01*
X183935809Y-90193762D01*
X183792952Y-90241381D01*
X183697714Y-90241381D01*
X184554857Y-90241381D02*
X184554857Y-89241381D01*
X184935810Y-89241381D01*
X185031048Y-89289000D01*
X185078667Y-89336619D01*
X185126286Y-89431857D01*
X185126286Y-89574714D01*
X185078667Y-89669952D01*
X185031048Y-89717571D01*
X184935810Y-89765190D01*
X184554857Y-89765190D01*
X186031048Y-89241381D02*
X185554857Y-89241381D01*
X185507238Y-89717571D01*
X185554857Y-89669952D01*
X185650095Y-89622333D01*
X185888191Y-89622333D01*
X185983429Y-89669952D01*
X186031048Y-89717571D01*
X186078667Y-89812810D01*
X186078667Y-90050905D01*
X186031048Y-90146143D01*
X185983429Y-90193762D01*
X185888191Y-90241381D01*
X185650095Y-90241381D01*
X185554857Y-90193762D01*
X185507238Y-90146143D01*
X184078667Y-107275381D02*
X184078667Y-107989667D01*
X184031047Y-108132524D01*
X183935809Y-108227762D01*
X183792952Y-108275381D01*
X183697714Y-108275381D01*
X184554857Y-108275381D02*
X184554857Y-107275381D01*
X184935810Y-107275381D01*
X185031048Y-107323000D01*
X185078667Y-107370619D01*
X185126286Y-107465857D01*
X185126286Y-107608714D01*
X185078667Y-107703952D01*
X185031048Y-107751571D01*
X184935810Y-107799190D01*
X184554857Y-107799190D01*
X185983429Y-107275381D02*
X185792952Y-107275381D01*
X185697714Y-107323000D01*
X185650095Y-107370619D01*
X185554857Y-107513476D01*
X185507238Y-107703952D01*
X185507238Y-108084905D01*
X185554857Y-108180143D01*
X185602476Y-108227762D01*
X185697714Y-108275381D01*
X185888191Y-108275381D01*
X185983429Y-108227762D01*
X186031048Y-108180143D01*
X186078667Y-108084905D01*
X186078667Y-107846810D01*
X186031048Y-107751571D01*
X185983429Y-107703952D01*
X185888191Y-107656333D01*
X185697714Y-107656333D01*
X185602476Y-107703952D01*
X185554857Y-107751571D01*
X185507238Y-107846810D01*
X134389905Y-91638381D02*
X134389905Y-90638381D01*
X134770858Y-90638381D01*
X134866096Y-90686000D01*
X134913715Y-90733619D01*
X134961334Y-90828857D01*
X134961334Y-90971714D01*
X134913715Y-91066952D01*
X134866096Y-91114571D01*
X134770858Y-91162190D01*
X134389905Y-91162190D01*
X135342286Y-90733619D02*
X135389905Y-90686000D01*
X135485143Y-90638381D01*
X135723239Y-90638381D01*
X135818477Y-90686000D01*
X135866096Y-90733619D01*
X135913715Y-90828857D01*
X135913715Y-90924095D01*
X135866096Y-91066952D01*
X135294667Y-91638381D01*
X135913715Y-91638381D01*
X173045381Y-97448666D02*
X172569190Y-97782000D01*
X173045381Y-98020095D02*
X172045381Y-98020095D01*
X172045381Y-97639142D01*
X172093000Y-97543904D01*
X172140619Y-97496285D01*
X172235857Y-97448666D01*
X172378714Y-97448666D01*
X172473952Y-97496285D01*
X172521571Y-97543904D01*
X172569190Y-97639142D01*
X172569190Y-98020095D01*
X172140619Y-97067714D02*
X172093000Y-97020095D01*
X172045381Y-96924857D01*
X172045381Y-96686761D01*
X172093000Y-96591523D01*
X172140619Y-96543904D01*
X172235857Y-96496285D01*
X172331095Y-96496285D01*
X172473952Y-96543904D01*
X173045381Y-97115333D01*
X173045381Y-96496285D01*
X184475381Y-114212666D02*
X183999190Y-114546000D01*
X184475381Y-114784095D02*
X183475381Y-114784095D01*
X183475381Y-114403142D01*
X183523000Y-114307904D01*
X183570619Y-114260285D01*
X183665857Y-114212666D01*
X183808714Y-114212666D01*
X183903952Y-114260285D01*
X183951571Y-114307904D01*
X183999190Y-114403142D01*
X183999190Y-114784095D01*
X183475381Y-113879333D02*
X183475381Y-113260285D01*
X183856333Y-113593619D01*
X183856333Y-113450761D01*
X183903952Y-113355523D01*
X183951571Y-113307904D01*
X184046810Y-113260285D01*
X184284905Y-113260285D01*
X184380143Y-113307904D01*
X184427762Y-113355523D01*
X184475381Y-113450761D01*
X184475381Y-113736476D01*
X184427762Y-113831714D01*
X184380143Y-113879333D01*
X192222381Y-119165666D02*
X191746190Y-119499000D01*
X192222381Y-119737095D02*
X191222381Y-119737095D01*
X191222381Y-119356142D01*
X191270000Y-119260904D01*
X191317619Y-119213285D01*
X191412857Y-119165666D01*
X191555714Y-119165666D01*
X191650952Y-119213285D01*
X191698571Y-119260904D01*
X191746190Y-119356142D01*
X191746190Y-119737095D01*
X191555714Y-118308523D02*
X192222381Y-118308523D01*
X191174762Y-118546619D02*
X191889048Y-118784714D01*
X191889048Y-118165666D01*
X158567381Y-119292666D02*
X158091190Y-119626000D01*
X158567381Y-119864095D02*
X157567381Y-119864095D01*
X157567381Y-119483142D01*
X157615000Y-119387904D01*
X157662619Y-119340285D01*
X157757857Y-119292666D01*
X157900714Y-119292666D01*
X157995952Y-119340285D01*
X158043571Y-119387904D01*
X158091190Y-119483142D01*
X158091190Y-119864095D01*
X157567381Y-118387904D02*
X157567381Y-118864095D01*
X158043571Y-118911714D01*
X157995952Y-118864095D01*
X157948333Y-118768857D01*
X157948333Y-118530761D01*
X157995952Y-118435523D01*
X158043571Y-118387904D01*
X158138810Y-118340285D01*
X158376905Y-118340285D01*
X158472143Y-118387904D01*
X158519762Y-118435523D01*
X158567381Y-118530761D01*
X158567381Y-118768857D01*
X158519762Y-118864095D01*
X158472143Y-118911714D01*
X192603381Y-125515666D02*
X192127190Y-125849000D01*
X192603381Y-126087095D02*
X191603381Y-126087095D01*
X191603381Y-125706142D01*
X191651000Y-125610904D01*
X191698619Y-125563285D01*
X191793857Y-125515666D01*
X191936714Y-125515666D01*
X192031952Y-125563285D01*
X192079571Y-125610904D01*
X192127190Y-125706142D01*
X192127190Y-126087095D01*
X191603381Y-124658523D02*
X191603381Y-124849000D01*
X191651000Y-124944238D01*
X191698619Y-124991857D01*
X191841476Y-125087095D01*
X192031952Y-125134714D01*
X192412905Y-125134714D01*
X192508143Y-125087095D01*
X192555762Y-125039476D01*
X192603381Y-124944238D01*
X192603381Y-124753761D01*
X192555762Y-124658523D01*
X192508143Y-124610904D01*
X192412905Y-124563285D01*
X192174810Y-124563285D01*
X192079571Y-124610904D01*
X192031952Y-124658523D01*
X191984333Y-124753761D01*
X191984333Y-124944238D01*
X192031952Y-125039476D01*
X192079571Y-125087095D01*
X192174810Y-125134714D01*
X150820381Y-103671666D02*
X150344190Y-104005000D01*
X150820381Y-104243095D02*
X149820381Y-104243095D01*
X149820381Y-103862142D01*
X149868000Y-103766904D01*
X149915619Y-103719285D01*
X150010857Y-103671666D01*
X150153714Y-103671666D01*
X150248952Y-103719285D01*
X150296571Y-103766904D01*
X150344190Y-103862142D01*
X150344190Y-104243095D01*
X149820381Y-103338333D02*
X149820381Y-102671666D01*
X150820381Y-103100238D01*
X150693381Y-91479666D02*
X150217190Y-91813000D01*
X150693381Y-92051095D02*
X149693381Y-92051095D01*
X149693381Y-91670142D01*
X149741000Y-91574904D01*
X149788619Y-91527285D01*
X149883857Y-91479666D01*
X150026714Y-91479666D01*
X150121952Y-91527285D01*
X150169571Y-91574904D01*
X150217190Y-91670142D01*
X150217190Y-92051095D01*
X150121952Y-90908238D02*
X150074333Y-91003476D01*
X150026714Y-91051095D01*
X149931476Y-91098714D01*
X149883857Y-91098714D01*
X149788619Y-91051095D01*
X149741000Y-91003476D01*
X149693381Y-90908238D01*
X149693381Y-90717761D01*
X149741000Y-90622523D01*
X149788619Y-90574904D01*
X149883857Y-90527285D01*
X149931476Y-90527285D01*
X150026714Y-90574904D01*
X150074333Y-90622523D01*
X150121952Y-90717761D01*
X150121952Y-90908238D01*
X150169571Y-91003476D01*
X150217190Y-91051095D01*
X150312429Y-91098714D01*
X150502905Y-91098714D01*
X150598143Y-91051095D01*
X150645762Y-91003476D01*
X150693381Y-90908238D01*
X150693381Y-90717761D01*
X150645762Y-90622523D01*
X150598143Y-90574904D01*
X150502905Y-90527285D01*
X150312429Y-90527285D01*
X150217190Y-90574904D01*
X150169571Y-90622523D01*
X150121952Y-90717761D01*
X150693381Y-96432666D02*
X150217190Y-96766000D01*
X150693381Y-97004095D02*
X149693381Y-97004095D01*
X149693381Y-96623142D01*
X149741000Y-96527904D01*
X149788619Y-96480285D01*
X149883857Y-96432666D01*
X150026714Y-96432666D01*
X150121952Y-96480285D01*
X150169571Y-96527904D01*
X150217190Y-96623142D01*
X150217190Y-97004095D01*
X150693381Y-95956476D02*
X150693381Y-95766000D01*
X150645762Y-95670761D01*
X150598143Y-95623142D01*
X150455286Y-95527904D01*
X150264810Y-95480285D01*
X149883857Y-95480285D01*
X149788619Y-95527904D01*
X149741000Y-95575523D01*
X149693381Y-95670761D01*
X149693381Y-95861238D01*
X149741000Y-95956476D01*
X149788619Y-96004095D01*
X149883857Y-96051714D01*
X150121952Y-96051714D01*
X150217190Y-96004095D01*
X150264810Y-95956476D01*
X150312429Y-95861238D01*
X150312429Y-95670761D01*
X150264810Y-95575523D01*
X150217190Y-95527904D01*
X150121952Y-95480285D01*
X147518381Y-102496857D02*
X147042190Y-102830191D01*
X147518381Y-103068286D02*
X146518381Y-103068286D01*
X146518381Y-102687333D01*
X146566000Y-102592095D01*
X146613619Y-102544476D01*
X146708857Y-102496857D01*
X146851714Y-102496857D01*
X146946952Y-102544476D01*
X146994571Y-102592095D01*
X147042190Y-102687333D01*
X147042190Y-103068286D01*
X147518381Y-101544476D02*
X147518381Y-102115905D01*
X147518381Y-101830191D02*
X146518381Y-101830191D01*
X146661238Y-101925429D01*
X146756476Y-102020667D01*
X146804095Y-102115905D01*
X146518381Y-100925429D02*
X146518381Y-100830190D01*
X146566000Y-100734952D01*
X146613619Y-100687333D01*
X146708857Y-100639714D01*
X146899333Y-100592095D01*
X147137429Y-100592095D01*
X147327905Y-100639714D01*
X147423143Y-100687333D01*
X147470762Y-100734952D01*
X147518381Y-100830190D01*
X147518381Y-100925429D01*
X147470762Y-101020667D01*
X147423143Y-101068286D01*
X147327905Y-101115905D01*
X147137429Y-101163524D01*
X146899333Y-101163524D01*
X146708857Y-101115905D01*
X146613619Y-101068286D01*
X146566000Y-101020667D01*
X146518381Y-100925429D01*
X158821381Y-107195857D02*
X158345190Y-107529191D01*
X158821381Y-107767286D02*
X157821381Y-107767286D01*
X157821381Y-107386333D01*
X157869000Y-107291095D01*
X157916619Y-107243476D01*
X158011857Y-107195857D01*
X158154714Y-107195857D01*
X158249952Y-107243476D01*
X158297571Y-107291095D01*
X158345190Y-107386333D01*
X158345190Y-107767286D01*
X158821381Y-106243476D02*
X158821381Y-106814905D01*
X158821381Y-106529191D02*
X157821381Y-106529191D01*
X157964238Y-106624429D01*
X158059476Y-106719667D01*
X158107095Y-106814905D01*
X158821381Y-105291095D02*
X158821381Y-105862524D01*
X158821381Y-105576810D02*
X157821381Y-105576810D01*
X157964238Y-105672048D01*
X158059476Y-105767286D01*
X158107095Y-105862524D01*
X161615381Y-107322857D02*
X161139190Y-107656191D01*
X161615381Y-107894286D02*
X160615381Y-107894286D01*
X160615381Y-107513333D01*
X160663000Y-107418095D01*
X160710619Y-107370476D01*
X160805857Y-107322857D01*
X160948714Y-107322857D01*
X161043952Y-107370476D01*
X161091571Y-107418095D01*
X161139190Y-107513333D01*
X161139190Y-107894286D01*
X161615381Y-106370476D02*
X161615381Y-106941905D01*
X161615381Y-106656191D02*
X160615381Y-106656191D01*
X160758238Y-106751429D01*
X160853476Y-106846667D01*
X160901095Y-106941905D01*
X160710619Y-105989524D02*
X160663000Y-105941905D01*
X160615381Y-105846667D01*
X160615381Y-105608571D01*
X160663000Y-105513333D01*
X160710619Y-105465714D01*
X160805857Y-105418095D01*
X160901095Y-105418095D01*
X161043952Y-105465714D01*
X161615381Y-106037143D01*
X161615381Y-105418095D01*
X164028381Y-107322857D02*
X163552190Y-107656191D01*
X164028381Y-107894286D02*
X163028381Y-107894286D01*
X163028381Y-107513333D01*
X163076000Y-107418095D01*
X163123619Y-107370476D01*
X163218857Y-107322857D01*
X163361714Y-107322857D01*
X163456952Y-107370476D01*
X163504571Y-107418095D01*
X163552190Y-107513333D01*
X163552190Y-107894286D01*
X164028381Y-106370476D02*
X164028381Y-106941905D01*
X164028381Y-106656191D02*
X163028381Y-106656191D01*
X163171238Y-106751429D01*
X163266476Y-106846667D01*
X163314095Y-106941905D01*
X163028381Y-106037143D02*
X163028381Y-105418095D01*
X163409333Y-105751429D01*
X163409333Y-105608571D01*
X163456952Y-105513333D01*
X163504571Y-105465714D01*
X163599810Y-105418095D01*
X163837905Y-105418095D01*
X163933143Y-105465714D01*
X163980762Y-105513333D01*
X164028381Y-105608571D01*
X164028381Y-105894286D01*
X163980762Y-105989524D01*
X163933143Y-106037143D01*
X141676381Y-102623857D02*
X141200190Y-102957191D01*
X141676381Y-103195286D02*
X140676381Y-103195286D01*
X140676381Y-102814333D01*
X140724000Y-102719095D01*
X140771619Y-102671476D01*
X140866857Y-102623857D01*
X141009714Y-102623857D01*
X141104952Y-102671476D01*
X141152571Y-102719095D01*
X141200190Y-102814333D01*
X141200190Y-103195286D01*
X141676381Y-101671476D02*
X141676381Y-102242905D01*
X141676381Y-101957191D02*
X140676381Y-101957191D01*
X140819238Y-102052429D01*
X140914476Y-102147667D01*
X140962095Y-102242905D01*
X141009714Y-100814333D02*
X141676381Y-100814333D01*
X140628762Y-101052429D02*
X141343048Y-101290524D01*
X141343048Y-100671476D01*
X190920762Y-105100381D02*
X190587428Y-104624190D01*
X190349333Y-105100381D02*
X190349333Y-104100381D01*
X190730286Y-104100381D01*
X190825524Y-104148000D01*
X190873143Y-104195619D01*
X190920762Y-104290857D01*
X190920762Y-104433714D01*
X190873143Y-104528952D01*
X190825524Y-104576571D01*
X190730286Y-104624190D01*
X190349333Y-104624190D01*
X191206476Y-104100381D02*
X191539809Y-105100381D01*
X191873143Y-104100381D01*
X192730286Y-105100381D02*
X192158857Y-105100381D01*
X192444571Y-105100381D02*
X192444571Y-104100381D01*
X192349333Y-104243238D01*
X192254095Y-104338476D01*
X192158857Y-104386095D01*
X131445095Y-124928381D02*
X131445095Y-125737905D01*
X131492714Y-125833143D01*
X131540333Y-125880762D01*
X131635571Y-125928381D01*
X131826048Y-125928381D01*
X131921286Y-125880762D01*
X131968905Y-125833143D01*
X132016524Y-125737905D01*
X132016524Y-124928381D01*
X133016524Y-125928381D02*
X132445095Y-125928381D01*
X132730809Y-125928381D02*
X132730809Y-124928381D01*
X132635571Y-125071238D01*
X132540333Y-125166476D01*
X132445095Y-125214095D01*
X185293095Y-115149381D02*
X185293095Y-115958905D01*
X185340714Y-116054143D01*
X185388333Y-116101762D01*
X185483571Y-116149381D01*
X185674048Y-116149381D01*
X185769286Y-116101762D01*
X185816905Y-116054143D01*
X185864524Y-115958905D01*
X185864524Y-115149381D01*
X186293095Y-115244619D02*
X186340714Y-115197000D01*
X186435952Y-115149381D01*
X186674048Y-115149381D01*
X186769286Y-115197000D01*
X186816905Y-115244619D01*
X186864524Y-115339857D01*
X186864524Y-115435095D01*
X186816905Y-115577952D01*
X186245476Y-116149381D01*
X186864524Y-116149381D01*
X150876095Y-109942381D02*
X150876095Y-110751905D01*
X150923714Y-110847143D01*
X150971333Y-110894762D01*
X151066571Y-110942381D01*
X151257048Y-110942381D01*
X151352286Y-110894762D01*
X151399905Y-110847143D01*
X151447524Y-110751905D01*
X151447524Y-109942381D01*
X151828476Y-109942381D02*
X152447524Y-109942381D01*
X152114190Y-110323333D01*
X152257048Y-110323333D01*
X152352286Y-110370952D01*
X152399905Y-110418571D01*
X152447524Y-110513810D01*
X152447524Y-110751905D01*
X152399905Y-110847143D01*
X152352286Y-110894762D01*
X152257048Y-110942381D01*
X151971333Y-110942381D01*
X151876095Y-110894762D01*
X151828476Y-110847143D01*
X171196095Y-105243381D02*
X171196095Y-106052905D01*
X171243714Y-106148143D01*
X171291333Y-106195762D01*
X171386571Y-106243381D01*
X171577048Y-106243381D01*
X171672286Y-106195762D01*
X171719905Y-106148143D01*
X171767524Y-106052905D01*
X171767524Y-105243381D01*
X172672286Y-105576714D02*
X172672286Y-106243381D01*
X172434190Y-105195762D02*
X172196095Y-105910048D01*
X172815143Y-105910048D01*
X166091478Y-113247027D02*
X165519058Y-113819447D01*
X165485386Y-113920462D01*
X165485386Y-113987805D01*
X165519058Y-114088820D01*
X165653746Y-114223508D01*
X165754761Y-114257180D01*
X165822104Y-114257180D01*
X165923119Y-114223508D01*
X166495539Y-113651088D01*
X166630226Y-114391866D02*
X166596554Y-114290851D01*
X166596554Y-114223507D01*
X166630226Y-114122492D01*
X166663898Y-114088820D01*
X166764913Y-114055149D01*
X166832256Y-114055149D01*
X166933272Y-114088820D01*
X167067959Y-114223508D01*
X167101631Y-114324523D01*
X167101631Y-114391867D01*
X167067959Y-114492882D01*
X167034287Y-114526553D01*
X166933272Y-114560225D01*
X166865929Y-114560225D01*
X166764914Y-114526553D01*
X166630226Y-114391866D01*
X166529211Y-114358194D01*
X166461868Y-114358194D01*
X166360852Y-114391867D01*
X166226165Y-114526553D01*
X166192493Y-114627569D01*
X166192493Y-114694912D01*
X166226165Y-114795927D01*
X166360852Y-114930615D01*
X166461868Y-114964286D01*
X166529211Y-114964286D01*
X166630226Y-114930615D01*
X166764913Y-114795928D01*
X166798585Y-114694912D01*
X166798585Y-114627569D01*
X166764914Y-114526553D01*
X161702905Y-95972381D02*
X161702905Y-96781905D01*
X161750524Y-96877143D01*
X161798143Y-96924762D01*
X161893381Y-96972381D01*
X162083858Y-96972381D01*
X162179096Y-96924762D01*
X162226715Y-96877143D01*
X162274334Y-96781905D01*
X162274334Y-95972381D01*
X163274334Y-96972381D02*
X162702905Y-96972381D01*
X162988619Y-96972381D02*
X162988619Y-95972381D01*
X162893381Y-96115238D01*
X162798143Y-96210476D01*
X162702905Y-96258095D01*
X163893381Y-95972381D02*
X163988620Y-95972381D01*
X164083858Y-96020000D01*
X164131477Y-96067619D01*
X164179096Y-96162857D01*
X164226715Y-96353333D01*
X164226715Y-96591429D01*
X164179096Y-96781905D01*
X164131477Y-96877143D01*
X164083858Y-96924762D01*
X163988620Y-96972381D01*
X163893381Y-96972381D01*
X163798143Y-96924762D01*
X163750524Y-96877143D01*
X163702905Y-96781905D01*
X163655286Y-96591429D01*
X163655286Y-96353333D01*
X163702905Y-96162857D01*
X163750524Y-96067619D01*
X163798143Y-96020000D01*
X163893381Y-95972381D01*
X168330667Y-95210381D02*
X168330667Y-95924667D01*
X168283047Y-96067524D01*
X168187809Y-96162762D01*
X168044952Y-96210381D01*
X167949714Y-96210381D01*
X168806857Y-96210381D02*
X168806857Y-95210381D01*
X169187810Y-95210381D01*
X169283048Y-95258000D01*
X169330667Y-95305619D01*
X169378286Y-95400857D01*
X169378286Y-95543714D01*
X169330667Y-95638952D01*
X169283048Y-95686571D01*
X169187810Y-95734190D01*
X168806857Y-95734190D01*
X169711619Y-95210381D02*
X170330667Y-95210381D01*
X169997333Y-95591333D01*
X170140191Y-95591333D01*
X170235429Y-95638952D01*
X170283048Y-95686571D01*
X170330667Y-95781810D01*
X170330667Y-96019905D01*
X170283048Y-96115143D01*
X170235429Y-96162762D01*
X170140191Y-96210381D01*
X169854476Y-96210381D01*
X169759238Y-96162762D01*
X169711619Y-96115143D01*
X171394381Y-101004666D02*
X170918190Y-101338000D01*
X171394381Y-101576095D02*
X170394381Y-101576095D01*
X170394381Y-101195142D01*
X170442000Y-101099904D01*
X170489619Y-101052285D01*
X170584857Y-101004666D01*
X170727714Y-101004666D01*
X170822952Y-101052285D01*
X170870571Y-101099904D01*
X170918190Y-101195142D01*
X170918190Y-101576095D01*
X171394381Y-100052285D02*
X171394381Y-100623714D01*
X171394381Y-100338000D02*
X170394381Y-100338000D01*
X170537238Y-100433238D01*
X170632476Y-100528476D01*
X170680095Y-100623714D01*
X164584143Y-92305143D02*
X164536524Y-92352762D01*
X164393667Y-92400381D01*
X164298429Y-92400381D01*
X164155571Y-92352762D01*
X164060333Y-92257524D01*
X164012714Y-92162286D01*
X163965095Y-91971810D01*
X163965095Y-91828952D01*
X164012714Y-91638476D01*
X164060333Y-91543238D01*
X164155571Y-91448000D01*
X164298429Y-91400381D01*
X164393667Y-91400381D01*
X164536524Y-91448000D01*
X164584143Y-91495619D01*
X164965095Y-91495619D02*
X165012714Y-91448000D01*
X165107952Y-91400381D01*
X165346048Y-91400381D01*
X165441286Y-91448000D01*
X165488905Y-91495619D01*
X165536524Y-91590857D01*
X165536524Y-91686095D01*
X165488905Y-91828952D01*
X164917476Y-92400381D01*
X165536524Y-92400381D01*
X166155571Y-91400381D02*
X166250810Y-91400381D01*
X166346048Y-91448000D01*
X166393667Y-91495619D01*
X166441286Y-91590857D01*
X166488905Y-91781333D01*
X166488905Y-92019429D01*
X166441286Y-92209905D01*
X166393667Y-92305143D01*
X166346048Y-92352762D01*
X166250810Y-92400381D01*
X166155571Y-92400381D01*
X166060333Y-92352762D01*
X166012714Y-92305143D01*
X165965095Y-92209905D01*
X165917476Y-92019429D01*
X165917476Y-91781333D01*
X165965095Y-91590857D01*
X166012714Y-91495619D01*
X166060333Y-91448000D01*
X166155571Y-91400381D01*
X184078667Y-86955381D02*
X184078667Y-87669667D01*
X184031047Y-87812524D01*
X183935809Y-87907762D01*
X183792952Y-87955381D01*
X183697714Y-87955381D01*
X184554857Y-87955381D02*
X184554857Y-86955381D01*
X184935810Y-86955381D01*
X185031048Y-87003000D01*
X185078667Y-87050619D01*
X185126286Y-87145857D01*
X185126286Y-87288714D01*
X185078667Y-87383952D01*
X185031048Y-87431571D01*
X184935810Y-87479190D01*
X184554857Y-87479190D01*
X185983429Y-87288714D02*
X185983429Y-87955381D01*
X185745333Y-86907762D02*
X185507238Y-87622048D01*
X186126286Y-87622048D01*
M02*
