M48
;DRILL file {kicad (2015-01-06 BZR 5261)-product} date Thursday, April 09, 2015 'PMt' 11:27:57 PM
;FORMAT={-:-/ absolute / inch / decimal}
FMAT,2
INCH,TZ
T1C0.025
T2C0.031
T3C0.035
T4C0.035
T5C0.040
T6C0.065
%
G90
G05
M72
T1
X5.225Y-4.38
X5.255Y-4.6
X5.258Y-4.08
X5.3Y-4.84
X5.415Y-4.035
X5.415Y-4.315
X5.458Y-4.472
X5.475Y-4.415
X5.48Y-4.19
X5.54Y-4.6
X5.616Y-4.61
X5.62Y-4.27
X5.67Y-4.126
X5.675Y-4.425
X5.71Y-4.825
X5.728Y-4.306
X5.73Y-3.57
X5.735Y-3.465
X5.736Y-3.708
X5.742Y-4.986
X5.758Y-4.638
X5.77Y-4.405
X5.82Y-4.
X5.865Y-4.265
X5.88Y-4.365
X5.9Y-4.545
X5.915Y-4.47
X5.93Y-4.38
X5.945Y-3.83
X5.99Y-4.24
X5.995Y-4.545
X6.Y-3.965
X6.09Y-4.34
X6.1Y-4.088
X6.12Y-3.595
X6.155Y-3.675
X6.172Y-4.476
X6.175Y-5.315
X6.184Y-4.126
X6.19Y-4.89
X6.2Y-4.298
X6.2455Y-5.0345
X6.28Y-4.725
X6.31Y-4.595
X6.34Y-3.785
X6.345Y-4.265
X6.35Y-3.685
X6.37Y-4.685
X6.39Y-4.3
X6.398Y-4.132
X6.4Y-3.56
X6.415Y-4.95
X6.435Y-4.54
X6.44Y-4.755
X6.446Y-5.07
X6.475Y-4.165
X6.475Y-4.44
X6.475Y-4.51
X6.505Y-4.95
X6.505Y-5.46
X6.51Y-3.55
X6.51Y-4.54
X6.51Y-4.87
X6.524Y-3.456
X6.53Y-5.1525
X6.54Y-4.395
X6.54Y-4.72
X6.545Y-4.26
X6.5675Y-5.31
X6.585Y-5.005
X6.5948Y-4.8702
X6.595Y-4.425
X6.6Y-4.926
X6.612Y-4.55
X6.618Y-4.026
X6.635Y-4.1625
X6.67Y-4.255
X6.705Y-4.16
X6.74Y-4.625
X6.755Y-4.95
X6.798Y-4.752
X6.8Y-4.355
X6.805Y-4.415
X6.81Y-3.655
X6.8149Y-3.76
X6.83Y-4.7
X6.86Y-5.15
X6.92Y-4.385
X6.966Y-4.324
X7.01Y-4.52
X7.02Y-4.45
X7.03Y-4.32
X7.034Y-3.714
X7.065Y-4.615
X7.065Y-4.77
X7.07Y-4.135
X7.08Y-4.205
X7.1Y-4.385
X7.11Y-4.12
X7.115Y-4.745
X7.15Y-4.805
X7.18Y-4.285
X7.252Y-4.914
X7.365Y-4.765
X7.385Y-4.315
X7.406Y-5.146
X7.445Y-4.35
X7.51Y-4.685
X7.55Y-5.005
X7.57Y-4.25
X7.605Y-4.895
X7.635Y-4.265
X7.675Y-4.28
T3
X5.388Y-4.874
X5.41Y-3.862
X5.486Y-4.756
X5.602Y-3.702
X5.606Y-4.486
X5.616Y-4.188
X5.855Y-3.81
X6.116Y-4.79
X6.148Y-3.492
X6.17Y-5.105
X6.3482Y-4.345
X6.51Y-4.105
X6.566Y-5.106
X6.668Y-4.05
X6.8281Y-3.8782
X6.838Y-4.144
X6.854Y-4.9018
X6.966Y-4.904
X7.134Y-4.906
X7.164Y-4.458
X7.438Y-4.906
X7.69Y-4.395
X7.69Y-4.495
X7.69Y-4.595
X7.69Y-4.695
X7.69Y-4.795
X7.69Y-4.895
X7.69Y-4.995
X7.69Y-5.095
X7.79Y-4.395
X7.79Y-4.495
X7.79Y-4.595
X7.79Y-4.695
X7.79Y-4.795
X7.79Y-4.895
X7.79Y-4.995
X7.79Y-5.095
T4
X5.4458Y-3.5211
X5.4458Y-3.6589
T5
X5.93Y-5.395
X6.03Y-5.395
X6.13Y-5.395
X6.23Y-5.395
X6.33Y-5.395
X6.43Y-5.395
X6.63Y-3.47
X6.63Y-3.57
X6.63Y-3.67
X6.69Y-5.395
X6.73Y-3.47
X6.73Y-3.57
X6.73Y-3.67
X6.79Y-5.395
X6.855Y-3.47
X6.89Y-5.395
X6.955Y-3.47
X6.99Y-5.395
X7.055Y-3.47
X7.09Y-5.395
X7.155Y-3.47
X7.19Y-5.395
X7.28Y-3.615
X7.28Y-3.715
X7.28Y-3.815
X7.28Y-3.915
X7.28Y-4.06
X7.28Y-4.16
X7.29Y-5.395
X7.39Y-5.395
X7.49Y-5.395
X7.59Y-5.395
T6
X5.6219Y-5.22
X5.74Y-5.405
X5.8581Y-5.22
T2
X5.3336Y-3.4463G85X5.2981Y-3.4463
G05
X5.3336Y-3.7337G85X5.2981Y-3.7337
G05
X5.5422Y-3.4463G85X5.5068Y-3.4463
G05
X5.5422Y-3.7337G85X5.5068Y-3.7337
G05
T0
M30
