G04 #@! TF.FileFunction,Legend,Top*
%FSLAX46Y46*%
G04 Gerber Fmt 4.6, Leading zero omitted, Abs format (unit mm)*
G04 Created by KiCad (PCBNEW (2014-12-28 BZR 5260)-product) date Monday, January 05, 2015 'AMt' 10:18:13 AM*
%MOMM*%
G01*
G04 APERTURE LIST*
%ADD10C,0.152400*%
%ADD11C,0.300000*%
%ADD12C,0.150000*%
%ADD13C,0.127000*%
%ADD14C,0.203200*%
G04 APERTURE END LIST*
D10*
D11*
X132901571Y-137352284D02*
X132901571Y-136780855D01*
X132401571Y-137137998D02*
X133687286Y-137137998D01*
X133830143Y-137066570D01*
X133901571Y-136923712D01*
X133901571Y-136780855D01*
X133901571Y-135637998D02*
X133115857Y-135637998D01*
X132973000Y-135709427D01*
X132901571Y-135852284D01*
X132901571Y-136137998D01*
X132973000Y-136280855D01*
X133830143Y-135637998D02*
X133901571Y-135780855D01*
X133901571Y-136137998D01*
X133830143Y-136280855D01*
X133687286Y-136352284D01*
X133544429Y-136352284D01*
X133401571Y-136280855D01*
X133330143Y-136137998D01*
X133330143Y-135780855D01*
X133258714Y-135637998D01*
X132901571Y-134923712D02*
X134401571Y-134923712D01*
X132973000Y-134923712D02*
X132901571Y-134780855D01*
X132901571Y-134495141D01*
X132973000Y-134352284D01*
X133044429Y-134280855D01*
X133187286Y-134209426D01*
X133615857Y-134209426D01*
X133758714Y-134280855D01*
X133830143Y-134352284D01*
X133901571Y-134495141D01*
X133901571Y-134780855D01*
X133830143Y-134923712D01*
X133901571Y-133566569D02*
X132401571Y-133566569D01*
X133473000Y-133066569D01*
X132401571Y-132566569D01*
X133901571Y-132566569D01*
X133901571Y-131209426D02*
X133115857Y-131209426D01*
X132973000Y-131280855D01*
X132901571Y-131423712D01*
X132901571Y-131709426D01*
X132973000Y-131852283D01*
X133830143Y-131209426D02*
X133901571Y-131352283D01*
X133901571Y-131709426D01*
X133830143Y-131852283D01*
X133687286Y-131923712D01*
X133544429Y-131923712D01*
X133401571Y-131852283D01*
X133330143Y-131709426D01*
X133330143Y-131352283D01*
X133258714Y-131209426D01*
X132901571Y-130709426D02*
X132901571Y-130137997D01*
X132401571Y-130495140D02*
X133687286Y-130495140D01*
X133830143Y-130423712D01*
X133901571Y-130280854D01*
X133901571Y-130137997D01*
X133901571Y-129637997D02*
X132901571Y-129637997D01*
X133187286Y-129637997D02*
X133044429Y-129566569D01*
X132973000Y-129495140D01*
X132901571Y-129352283D01*
X132901571Y-129209426D01*
X133901571Y-128709426D02*
X132901571Y-128709426D01*
X132401571Y-128709426D02*
X132473000Y-128780855D01*
X132544429Y-128709426D01*
X132473000Y-128637998D01*
X132401571Y-128709426D01*
X132544429Y-128709426D01*
X133901571Y-128137997D02*
X132901571Y-127352283D01*
X132901571Y-128137997D02*
X133901571Y-127352283D01*
X133830143Y-125709426D02*
X133901571Y-125495140D01*
X133901571Y-125137997D01*
X133830143Y-124995140D01*
X133758714Y-124923711D01*
X133615857Y-124852283D01*
X133473000Y-124852283D01*
X133330143Y-124923711D01*
X133258714Y-124995140D01*
X133187286Y-125137997D01*
X133115857Y-125423711D01*
X133044429Y-125566569D01*
X132973000Y-125637997D01*
X132830143Y-125709426D01*
X132687286Y-125709426D01*
X132544429Y-125637997D01*
X132473000Y-125566569D01*
X132401571Y-125423711D01*
X132401571Y-125066569D01*
X132473000Y-124852283D01*
X133901571Y-124209426D02*
X132401571Y-124209426D01*
X133901571Y-123566569D02*
X133115857Y-123566569D01*
X132973000Y-123637998D01*
X132901571Y-123780855D01*
X132901571Y-123995140D01*
X132973000Y-124137998D01*
X133044429Y-124209426D01*
X133901571Y-122852283D02*
X132901571Y-122852283D01*
X132401571Y-122852283D02*
X132473000Y-122923712D01*
X132544429Y-122852283D01*
X132473000Y-122780855D01*
X132401571Y-122852283D01*
X132544429Y-122852283D01*
X133830143Y-121566569D02*
X133901571Y-121709426D01*
X133901571Y-121995140D01*
X133830143Y-122137997D01*
X133687286Y-122209426D01*
X133115857Y-122209426D01*
X132973000Y-122137997D01*
X132901571Y-121995140D01*
X132901571Y-121709426D01*
X132973000Y-121566569D01*
X133115857Y-121495140D01*
X133258714Y-121495140D01*
X133401571Y-122209426D01*
X133901571Y-120637997D02*
X133830143Y-120780855D01*
X133687286Y-120852283D01*
X132401571Y-120852283D01*
X133901571Y-119423712D02*
X132401571Y-119423712D01*
X133830143Y-119423712D02*
X133901571Y-119566569D01*
X133901571Y-119852283D01*
X133830143Y-119995141D01*
X133758714Y-120066569D01*
X133615857Y-120137998D01*
X133187286Y-120137998D01*
X133044429Y-120066569D01*
X132973000Y-119995141D01*
X132901571Y-119852283D01*
X132901571Y-119566569D01*
X132973000Y-119423712D01*
X132401571Y-117280855D02*
X132401571Y-117137998D01*
X132473000Y-116995141D01*
X132544429Y-116923712D01*
X132687286Y-116852283D01*
X132973000Y-116780855D01*
X133330143Y-116780855D01*
X133615857Y-116852283D01*
X133758714Y-116923712D01*
X133830143Y-116995141D01*
X133901571Y-117137998D01*
X133901571Y-117280855D01*
X133830143Y-117423712D01*
X133758714Y-117495141D01*
X133615857Y-117566569D01*
X133330143Y-117637998D01*
X132973000Y-117637998D01*
X132687286Y-117566569D01*
X132544429Y-117495141D01*
X132473000Y-117423712D01*
X132401571Y-117280855D01*
X133758714Y-116137998D02*
X133830143Y-116066570D01*
X133901571Y-116137998D01*
X133830143Y-116209427D01*
X133758714Y-116137998D01*
X133901571Y-116137998D01*
X132901571Y-114780855D02*
X133901571Y-114780855D01*
X132330143Y-115137998D02*
X133401571Y-115495141D01*
X133401571Y-114566569D01*
X133901571Y-112852284D02*
X132401571Y-112852284D01*
X132401571Y-112495141D01*
X132473000Y-112280856D01*
X132615857Y-112137998D01*
X132758714Y-112066570D01*
X133044429Y-111995141D01*
X133258714Y-111995141D01*
X133544429Y-112066570D01*
X133687286Y-112137998D01*
X133830143Y-112280856D01*
X133901571Y-112495141D01*
X133901571Y-112852284D01*
X133830143Y-110780856D02*
X133901571Y-110923713D01*
X133901571Y-111209427D01*
X133830143Y-111352284D01*
X133687286Y-111423713D01*
X133115857Y-111423713D01*
X132973000Y-111352284D01*
X132901571Y-111209427D01*
X132901571Y-110923713D01*
X132973000Y-110780856D01*
X133115857Y-110709427D01*
X133258714Y-110709427D01*
X133401571Y-111423713D01*
X133830143Y-109423713D02*
X133901571Y-109566570D01*
X133901571Y-109852284D01*
X133830143Y-109995142D01*
X133758714Y-110066570D01*
X133615857Y-110137999D01*
X133187286Y-110137999D01*
X133044429Y-110066570D01*
X132973000Y-109995142D01*
X132901571Y-109852284D01*
X132901571Y-109566570D01*
X132973000Y-109423713D01*
X132544429Y-107709428D02*
X132473000Y-107637999D01*
X132401571Y-107495142D01*
X132401571Y-107137999D01*
X132473000Y-106995142D01*
X132544429Y-106923713D01*
X132687286Y-106852285D01*
X132830143Y-106852285D01*
X133044429Y-106923713D01*
X133901571Y-107780856D01*
X133901571Y-106852285D01*
X132401571Y-105923714D02*
X132401571Y-105780857D01*
X132473000Y-105638000D01*
X132544429Y-105566571D01*
X132687286Y-105495142D01*
X132973000Y-105423714D01*
X133330143Y-105423714D01*
X133615857Y-105495142D01*
X133758714Y-105566571D01*
X133830143Y-105638000D01*
X133901571Y-105780857D01*
X133901571Y-105923714D01*
X133830143Y-106066571D01*
X133758714Y-106138000D01*
X133615857Y-106209428D01*
X133330143Y-106280857D01*
X132973000Y-106280857D01*
X132687286Y-106209428D01*
X132544429Y-106138000D01*
X132473000Y-106066571D01*
X132401571Y-105923714D01*
X133901571Y-103995143D02*
X133901571Y-104852286D01*
X133901571Y-104423714D02*
X132401571Y-104423714D01*
X132615857Y-104566571D01*
X132758714Y-104709429D01*
X132830143Y-104852286D01*
X132901571Y-102709429D02*
X133901571Y-102709429D01*
X132330143Y-103066572D02*
X133401571Y-103423715D01*
X133401571Y-102495143D01*
D12*
X146413500Y-87296500D02*
X131413500Y-87296500D01*
X131413500Y-87296500D02*
X131413500Y-98296500D01*
X131413500Y-98296500D02*
X137913500Y-98296500D01*
X137913500Y-98296500D02*
X140413500Y-96296500D01*
X140413500Y-96296500D02*
X146413500Y-96296500D01*
X146413500Y-96296500D02*
X146413500Y-87296500D01*
X199390000Y-112077500D02*
X198120000Y-112077500D01*
X198120000Y-112077500D02*
X198120000Y-106997500D01*
X198120000Y-106997500D02*
X199390000Y-106997500D01*
X199390000Y-124777500D02*
X198120000Y-124777500D01*
X198120000Y-124777500D02*
X198120000Y-119697500D01*
X198120000Y-119697500D02*
X199390000Y-119697500D01*
X199390000Y-129857500D02*
X199390000Y-101917500D01*
X199390000Y-101917500D02*
X189230000Y-101917500D01*
X199390000Y-129857500D02*
X189230000Y-129857500D01*
X189230000Y-129857500D02*
X189230000Y-101917500D01*
X184150000Y-108267500D02*
X186690000Y-108267500D01*
X186690000Y-108267500D02*
X186690000Y-105727500D01*
X186690000Y-105727500D02*
X184150000Y-105727500D01*
X184150000Y-105727500D02*
X184150000Y-108267500D01*
X177186000Y-130846000D02*
X177186000Y-130046000D01*
X177586000Y-130446000D02*
X176786000Y-130446000D01*
X176786000Y-130446000D02*
X177586000Y-130446000D01*
X179286000Y-123946000D02*
X177986000Y-123946000D01*
X177986000Y-123946000D02*
X177086000Y-124746000D01*
X177086000Y-124746000D02*
X177086000Y-128946000D01*
X179286000Y-129846000D02*
X177986000Y-129846000D01*
X177986000Y-129846000D02*
X177086000Y-128946000D01*
X180786000Y-129846000D02*
X179286000Y-129846000D01*
X179286000Y-129846000D02*
X179286000Y-123946000D01*
X179286000Y-123946000D02*
X180786000Y-123946000D01*
X182986000Y-123946000D02*
X182986000Y-129846000D01*
X182986000Y-129846000D02*
X180786000Y-129846000D01*
X180786000Y-129846000D02*
X180786000Y-123946000D01*
X180786000Y-123946000D02*
X182986000Y-123946000D01*
X168702400Y-130744400D02*
X168702400Y-129944400D01*
X169102400Y-130344400D02*
X168302400Y-130344400D01*
X168302400Y-130344400D02*
X169102400Y-130344400D01*
X170802400Y-123844400D02*
X169502400Y-123844400D01*
X169502400Y-123844400D02*
X168602400Y-124644400D01*
X168602400Y-124644400D02*
X168602400Y-128844400D01*
X170802400Y-129744400D02*
X169502400Y-129744400D01*
X169502400Y-129744400D02*
X168602400Y-128844400D01*
X172302400Y-129744400D02*
X170802400Y-129744400D01*
X170802400Y-129744400D02*
X170802400Y-123844400D01*
X170802400Y-123844400D02*
X172302400Y-123844400D01*
X174502400Y-123844400D02*
X174502400Y-129744400D01*
X174502400Y-129744400D02*
X172302400Y-129744400D01*
X172302400Y-129744400D02*
X172302400Y-123844400D01*
X172302400Y-123844400D02*
X174502400Y-123844400D01*
X150973200Y-130033200D02*
X150973200Y-129233200D01*
X151373200Y-129633200D02*
X150573200Y-129633200D01*
X150573200Y-129633200D02*
X151373200Y-129633200D01*
X153073200Y-123133200D02*
X151773200Y-123133200D01*
X151773200Y-123133200D02*
X150873200Y-123933200D01*
X150873200Y-123933200D02*
X150873200Y-128133200D01*
X153073200Y-129033200D02*
X151773200Y-129033200D01*
X151773200Y-129033200D02*
X150873200Y-128133200D01*
X154573200Y-129033200D02*
X153073200Y-129033200D01*
X153073200Y-129033200D02*
X153073200Y-123133200D01*
X153073200Y-123133200D02*
X154573200Y-123133200D01*
X156773200Y-123133200D02*
X156773200Y-129033200D01*
X156773200Y-129033200D02*
X154573200Y-129033200D01*
X154573200Y-129033200D02*
X154573200Y-123133200D01*
X154573200Y-123133200D02*
X156773200Y-123133200D01*
X172866800Y-122316800D02*
X172166800Y-122316800D01*
X172166800Y-121116800D02*
X172866800Y-121116800D01*
X180853600Y-121116800D02*
X181553600Y-121116800D01*
X181553600Y-122316800D02*
X180853600Y-122316800D01*
X163124400Y-119237200D02*
X163824400Y-119237200D01*
X163824400Y-120437200D02*
X163124400Y-120437200D01*
X170018000Y-118458500D02*
X170018000Y-119158500D01*
X168818000Y-119158500D02*
X168818000Y-118458500D01*
X170018000Y-105441000D02*
X170018000Y-106141000D01*
X168818000Y-106141000D02*
X168818000Y-105441000D01*
X142915000Y-125230000D02*
X142915000Y-126230000D01*
X141565000Y-126230000D02*
X141565000Y-125230000D01*
X147360000Y-125230000D02*
X147360000Y-126230000D01*
X146010000Y-126230000D02*
X146010000Y-125230000D01*
X170093000Y-109228000D02*
X170093000Y-110228000D01*
X168743000Y-110228000D02*
X168743000Y-109228000D01*
X170143800Y-112733200D02*
X170143800Y-113733200D01*
X168793800Y-113733200D02*
X168793800Y-112733200D01*
X167711500Y-91273000D02*
X168711500Y-91273000D01*
X168711500Y-92623000D02*
X167711500Y-92623000D01*
X155956000Y-87630000D02*
X173736000Y-87630000D01*
X173736000Y-87630000D02*
X173736000Y-90170000D01*
X173736000Y-90170000D02*
X155956000Y-90170000D01*
X153416000Y-87630000D02*
X155956000Y-87630000D01*
X155956000Y-87630000D02*
X155956000Y-90170000D01*
X153416000Y-87630000D02*
X153416000Y-90170000D01*
X153416000Y-90170000D02*
X155956000Y-90170000D01*
X182880000Y-134620000D02*
X190500000Y-134620000D01*
X182880000Y-132080000D02*
X190500000Y-132080000D01*
X180340000Y-132080000D02*
X182880000Y-132080000D01*
X190500000Y-134620000D02*
X190500000Y-132080000D01*
X182880000Y-132080000D02*
X182880000Y-134620000D01*
X180340000Y-132080000D02*
X180340000Y-134620000D01*
X180340000Y-134620000D02*
X182880000Y-134620000D01*
X157480000Y-135890000D02*
X157480000Y-138430000D01*
X154940000Y-135890000D02*
X154940000Y-138430000D01*
X154940000Y-138430000D02*
X157480000Y-138430000D01*
X157480000Y-138430000D02*
X160020000Y-138430000D01*
X160020000Y-138430000D02*
X160020000Y-135890000D01*
X160020000Y-135890000D02*
X154940000Y-135890000D01*
X165100000Y-135890000D02*
X177800000Y-135890000D01*
X177800000Y-135890000D02*
X177800000Y-138430000D01*
X177800000Y-138430000D02*
X165100000Y-138430000D01*
X162560000Y-135890000D02*
X165100000Y-135890000D01*
X165100000Y-135890000D02*
X165100000Y-138430000D01*
X162560000Y-135890000D02*
X162560000Y-138430000D01*
X162560000Y-138430000D02*
X165100000Y-138430000D01*
X182880000Y-135953500D02*
X195580000Y-135953500D01*
X195580000Y-135953500D02*
X195580000Y-138493500D01*
X195580000Y-138493500D02*
X182880000Y-138493500D01*
X180340000Y-135953500D02*
X182880000Y-135953500D01*
X182880000Y-135953500D02*
X182880000Y-138493500D01*
X180340000Y-135953500D02*
X180340000Y-138493500D01*
X180340000Y-138493500D02*
X182880000Y-138493500D01*
D13*
X178625500Y-111506000D02*
X178752500Y-111506000D01*
X178752500Y-111506000D02*
X178752500Y-106172000D01*
X174942500Y-106172000D02*
X174942500Y-111506000D01*
X174942500Y-111506000D02*
X178625500Y-111506000D01*
X176339500Y-111506000D02*
X176339500Y-110998000D01*
X176339500Y-110998000D02*
X177355500Y-110998000D01*
X177355500Y-110998000D02*
X177355500Y-111506000D01*
X174942500Y-106172000D02*
X178752500Y-106172000D01*
D12*
X170846555Y-96079000D02*
G75*
G03X170846555Y-96079000I-360555J0D01*
G01*
X171186000Y-95379000D02*
X171186000Y-100679000D01*
X171186000Y-100679000D02*
X160686000Y-100679000D01*
X160686000Y-100679000D02*
X160686000Y-95379000D01*
X160686000Y-95379000D02*
X171186000Y-95379000D01*
X176840400Y-121116800D02*
X177540400Y-121116800D01*
X177540400Y-122316800D02*
X176840400Y-122316800D01*
X159852360Y-124632720D02*
X159852360Y-126433580D01*
X159852360Y-124632720D02*
X160502600Y-124632720D01*
X164353240Y-124632720D02*
X164353240Y-126433580D01*
X164353240Y-124632720D02*
X163703000Y-124632720D01*
X177800000Y-87630000D02*
X195580000Y-87630000D01*
X195580000Y-87630000D02*
X195580000Y-90170000D01*
X195580000Y-90170000D02*
X177800000Y-90170000D01*
X175260000Y-87630000D02*
X177800000Y-87630000D01*
X177800000Y-87630000D02*
X177800000Y-90170000D01*
X175260000Y-87630000D02*
X175260000Y-90170000D01*
X175260000Y-90170000D02*
X177800000Y-90170000D01*
X135890000Y-135890000D02*
X135890000Y-123190000D01*
X135890000Y-123190000D02*
X138430000Y-123190000D01*
X138430000Y-123190000D02*
X138430000Y-135890000D01*
X135890000Y-138430000D02*
X135890000Y-135890000D01*
X135890000Y-135890000D02*
X138430000Y-135890000D01*
X135890000Y-138430000D02*
X138430000Y-138430000D01*
X138430000Y-138430000D02*
X138430000Y-135890000D01*
X143050000Y-132850000D02*
X141550000Y-132850000D01*
X141550000Y-132850000D02*
X141550000Y-137350000D01*
X141550000Y-137350000D02*
X141050000Y-137350000D01*
X141050000Y-137350000D02*
X141050000Y-138350000D01*
X141050000Y-138350000D02*
X146050000Y-138350000D01*
X149050000Y-132850000D02*
X150550000Y-132850000D01*
X150550000Y-132850000D02*
X150550000Y-137350000D01*
X146050000Y-138350000D02*
X151050000Y-138350000D01*
X151050000Y-138350000D02*
X151050000Y-137350000D01*
X151050000Y-137350000D02*
X150550000Y-137350000D01*
X161820000Y-115570000D02*
G75*
G03X161820000Y-115570000I-1800000J0D01*
G01*
X172466000Y-113665000D02*
G75*
G03X172466000Y-113665000I-127000J0D01*
G01*
X175641000Y-113030000D02*
X178689000Y-113030000D01*
X174371000Y-114300000D02*
X175641000Y-113030000D01*
X174371000Y-118237000D02*
X174371000Y-114300000D01*
X178689000Y-118237000D02*
X174371000Y-118237000D01*
X178689000Y-113030000D02*
X178689000Y-118237000D01*
X151384000Y-117221000D02*
G75*
G03X151384000Y-117221000I-127000J0D01*
G01*
X147701000Y-118237000D02*
X148717000Y-117221000D01*
X148717000Y-117221000D02*
X148717000Y-107315000D01*
X148717000Y-107315000D02*
X141351000Y-107315000D01*
X141351000Y-107315000D02*
X141351000Y-118237000D01*
X141351000Y-118237000D02*
X147701000Y-118237000D01*
X185872381Y-104171785D02*
X185872381Y-104743214D01*
X185872381Y-104457500D02*
X184872381Y-104457500D01*
X185015238Y-104552738D01*
X185110476Y-104647976D01*
X185158095Y-104743214D01*
X175855334Y-124664743D02*
X175807715Y-124712362D01*
X175664858Y-124759981D01*
X175569620Y-124759981D01*
X175426762Y-124712362D01*
X175331524Y-124617124D01*
X175283905Y-124521886D01*
X175236286Y-124331410D01*
X175236286Y-124188552D01*
X175283905Y-123998076D01*
X175331524Y-123902838D01*
X175426762Y-123807600D01*
X175569620Y-123759981D01*
X175664858Y-123759981D01*
X175807715Y-123807600D01*
X175855334Y-123855219D01*
X176712477Y-124093314D02*
X176712477Y-124759981D01*
X176474381Y-123712362D02*
X176236286Y-124426648D01*
X176855334Y-124426648D01*
X177357429Y-130826952D02*
X177357429Y-130065047D01*
X177738381Y-130445999D02*
X176976476Y-130445999D01*
X167219334Y-124715543D02*
X167171715Y-124763162D01*
X167028858Y-124810781D01*
X166933620Y-124810781D01*
X166790762Y-124763162D01*
X166695524Y-124667924D01*
X166647905Y-124572686D01*
X166600286Y-124382210D01*
X166600286Y-124239352D01*
X166647905Y-124048876D01*
X166695524Y-123953638D01*
X166790762Y-123858400D01*
X166933620Y-123810781D01*
X167028858Y-123810781D01*
X167171715Y-123858400D01*
X167219334Y-123906019D01*
X168076477Y-123810781D02*
X167886000Y-123810781D01*
X167790762Y-123858400D01*
X167743143Y-123906019D01*
X167647905Y-124048876D01*
X167600286Y-124239352D01*
X167600286Y-124620305D01*
X167647905Y-124715543D01*
X167695524Y-124763162D01*
X167790762Y-124810781D01*
X167981239Y-124810781D01*
X168076477Y-124763162D01*
X168124096Y-124715543D01*
X168171715Y-124620305D01*
X168171715Y-124382210D01*
X168124096Y-124286971D01*
X168076477Y-124239352D01*
X167981239Y-124191733D01*
X167790762Y-124191733D01*
X167695524Y-124239352D01*
X167647905Y-124286971D01*
X167600286Y-124382210D01*
X168873829Y-130725352D02*
X168873829Y-129963447D01*
X169254781Y-130344399D02*
X168492876Y-130344399D01*
X149693334Y-122912143D02*
X149645715Y-122959762D01*
X149502858Y-123007381D01*
X149407620Y-123007381D01*
X149264762Y-122959762D01*
X149169524Y-122864524D01*
X149121905Y-122769286D01*
X149074286Y-122578810D01*
X149074286Y-122435952D01*
X149121905Y-122245476D01*
X149169524Y-122150238D01*
X149264762Y-122055000D01*
X149407620Y-122007381D01*
X149502858Y-122007381D01*
X149645715Y-122055000D01*
X149693334Y-122102619D01*
X150169524Y-123007381D02*
X150360000Y-123007381D01*
X150455239Y-122959762D01*
X150502858Y-122912143D01*
X150598096Y-122769286D01*
X150645715Y-122578810D01*
X150645715Y-122197857D01*
X150598096Y-122102619D01*
X150550477Y-122055000D01*
X150455239Y-122007381D01*
X150264762Y-122007381D01*
X150169524Y-122055000D01*
X150121905Y-122102619D01*
X150074286Y-122197857D01*
X150074286Y-122435952D01*
X150121905Y-122531190D01*
X150169524Y-122578810D01*
X150264762Y-122626429D01*
X150455239Y-122626429D01*
X150550477Y-122578810D01*
X150598096Y-122531190D01*
X150645715Y-122435952D01*
X151144629Y-130014152D02*
X151144629Y-129252247D01*
X151525581Y-129633199D02*
X150763676Y-129633199D01*
X172350134Y-120651543D02*
X172302515Y-120699162D01*
X172159658Y-120746781D01*
X172064420Y-120746781D01*
X171921562Y-120699162D01*
X171826324Y-120603924D01*
X171778705Y-120508686D01*
X171731086Y-120318210D01*
X171731086Y-120175352D01*
X171778705Y-119984876D01*
X171826324Y-119889638D01*
X171921562Y-119794400D01*
X172064420Y-119746781D01*
X172159658Y-119746781D01*
X172302515Y-119794400D01*
X172350134Y-119842019D01*
X173302515Y-120746781D02*
X172731086Y-120746781D01*
X173016800Y-120746781D02*
X173016800Y-119746781D01*
X172921562Y-119889638D01*
X172826324Y-119984876D01*
X172731086Y-120032495D01*
X181087734Y-120702343D02*
X181040115Y-120749962D01*
X180897258Y-120797581D01*
X180802020Y-120797581D01*
X180659162Y-120749962D01*
X180563924Y-120654724D01*
X180516305Y-120559486D01*
X180468686Y-120369010D01*
X180468686Y-120226152D01*
X180516305Y-120035676D01*
X180563924Y-119940438D01*
X180659162Y-119845200D01*
X180802020Y-119797581D01*
X180897258Y-119797581D01*
X181040115Y-119845200D01*
X181087734Y-119892819D01*
X181468686Y-119892819D02*
X181516305Y-119845200D01*
X181611543Y-119797581D01*
X181849639Y-119797581D01*
X181944877Y-119845200D01*
X181992496Y-119892819D01*
X182040115Y-119988057D01*
X182040115Y-120083295D01*
X181992496Y-120226152D01*
X181421067Y-120797581D01*
X182040115Y-120797581D01*
X160666134Y-120092743D02*
X160618515Y-120140362D01*
X160475658Y-120187981D01*
X160380420Y-120187981D01*
X160237562Y-120140362D01*
X160142324Y-120045124D01*
X160094705Y-119949886D01*
X160047086Y-119759410D01*
X160047086Y-119616552D01*
X160094705Y-119426076D01*
X160142324Y-119330838D01*
X160237562Y-119235600D01*
X160380420Y-119187981D01*
X160475658Y-119187981D01*
X160618515Y-119235600D01*
X160666134Y-119283219D01*
X161570896Y-119187981D02*
X161094705Y-119187981D01*
X161047086Y-119664171D01*
X161094705Y-119616552D01*
X161189943Y-119568933D01*
X161428039Y-119568933D01*
X161523277Y-119616552D01*
X161570896Y-119664171D01*
X161618515Y-119759410D01*
X161618515Y-119997505D01*
X161570896Y-120092743D01*
X161523277Y-120140362D01*
X161428039Y-120187981D01*
X161189943Y-120187981D01*
X161094705Y-120140362D01*
X161047086Y-120092743D01*
X167270134Y-119127543D02*
X167222515Y-119175162D01*
X167079658Y-119222781D01*
X166984420Y-119222781D01*
X166841562Y-119175162D01*
X166746324Y-119079924D01*
X166698705Y-118984686D01*
X166651086Y-118794210D01*
X166651086Y-118651352D01*
X166698705Y-118460876D01*
X166746324Y-118365638D01*
X166841562Y-118270400D01*
X166984420Y-118222781D01*
X167079658Y-118222781D01*
X167222515Y-118270400D01*
X167270134Y-118318019D01*
X167841562Y-118651352D02*
X167746324Y-118603733D01*
X167698705Y-118556114D01*
X167651086Y-118460876D01*
X167651086Y-118413257D01*
X167698705Y-118318019D01*
X167746324Y-118270400D01*
X167841562Y-118222781D01*
X168032039Y-118222781D01*
X168127277Y-118270400D01*
X168174896Y-118318019D01*
X168222515Y-118413257D01*
X168222515Y-118460876D01*
X168174896Y-118556114D01*
X168127277Y-118603733D01*
X168032039Y-118651352D01*
X167841562Y-118651352D01*
X167746324Y-118698971D01*
X167698705Y-118746590D01*
X167651086Y-118841829D01*
X167651086Y-119032305D01*
X167698705Y-119127543D01*
X167746324Y-119175162D01*
X167841562Y-119222781D01*
X168032039Y-119222781D01*
X168127277Y-119175162D01*
X168174896Y-119127543D01*
X168222515Y-119032305D01*
X168222515Y-118841829D01*
X168174896Y-118746590D01*
X168127277Y-118698971D01*
X168032039Y-118651352D01*
X167320934Y-106376743D02*
X167273315Y-106424362D01*
X167130458Y-106471981D01*
X167035220Y-106471981D01*
X166892362Y-106424362D01*
X166797124Y-106329124D01*
X166749505Y-106233886D01*
X166701886Y-106043410D01*
X166701886Y-105900552D01*
X166749505Y-105710076D01*
X166797124Y-105614838D01*
X166892362Y-105519600D01*
X167035220Y-105471981D01*
X167130458Y-105471981D01*
X167273315Y-105519600D01*
X167320934Y-105567219D01*
X167654267Y-105471981D02*
X168320934Y-105471981D01*
X167892362Y-106471981D01*
X142073334Y-123642381D02*
X141740000Y-123166190D01*
X141501905Y-123642381D02*
X141501905Y-122642381D01*
X141882858Y-122642381D01*
X141978096Y-122690000D01*
X142025715Y-122737619D01*
X142073334Y-122832857D01*
X142073334Y-122975714D01*
X142025715Y-123070952D01*
X141978096Y-123118571D01*
X141882858Y-123166190D01*
X141501905Y-123166190D01*
X143025715Y-123642381D02*
X142454286Y-123642381D01*
X142740000Y-123642381D02*
X142740000Y-122642381D01*
X142644762Y-122785238D01*
X142549524Y-122880476D01*
X142454286Y-122928095D01*
X146518334Y-123642381D02*
X146185000Y-123166190D01*
X145946905Y-123642381D02*
X145946905Y-122642381D01*
X146327858Y-122642381D01*
X146423096Y-122690000D01*
X146470715Y-122737619D01*
X146518334Y-122832857D01*
X146518334Y-122975714D01*
X146470715Y-123070952D01*
X146423096Y-123118571D01*
X146327858Y-123166190D01*
X145946905Y-123166190D01*
X146899286Y-122737619D02*
X146946905Y-122690000D01*
X147042143Y-122642381D01*
X147280239Y-122642381D01*
X147375477Y-122690000D01*
X147423096Y-122737619D01*
X147470715Y-122832857D01*
X147470715Y-122928095D01*
X147423096Y-123070952D01*
X146851667Y-123642381D01*
X147470715Y-123642381D01*
X167351334Y-110180381D02*
X167018000Y-109704190D01*
X166779905Y-110180381D02*
X166779905Y-109180381D01*
X167160858Y-109180381D01*
X167256096Y-109228000D01*
X167303715Y-109275619D01*
X167351334Y-109370857D01*
X167351334Y-109513714D01*
X167303715Y-109608952D01*
X167256096Y-109656571D01*
X167160858Y-109704190D01*
X166779905Y-109704190D01*
X167684667Y-109180381D02*
X168303715Y-109180381D01*
X167970381Y-109561333D01*
X168113239Y-109561333D01*
X168208477Y-109608952D01*
X168256096Y-109656571D01*
X168303715Y-109751810D01*
X168303715Y-109989905D01*
X168256096Y-110085143D01*
X168208477Y-110132762D01*
X168113239Y-110180381D01*
X167827524Y-110180381D01*
X167732286Y-110132762D01*
X167684667Y-110085143D01*
X167402134Y-113685581D02*
X167068800Y-113209390D01*
X166830705Y-113685581D02*
X166830705Y-112685581D01*
X167211658Y-112685581D01*
X167306896Y-112733200D01*
X167354515Y-112780819D01*
X167402134Y-112876057D01*
X167402134Y-113018914D01*
X167354515Y-113114152D01*
X167306896Y-113161771D01*
X167211658Y-113209390D01*
X166830705Y-113209390D01*
X168259277Y-113018914D02*
X168259277Y-113685581D01*
X168021181Y-112637962D02*
X167783086Y-113352248D01*
X168402134Y-113352248D01*
X170673734Y-92400381D02*
X170340400Y-91924190D01*
X170102305Y-92400381D02*
X170102305Y-91400381D01*
X170483258Y-91400381D01*
X170578496Y-91448000D01*
X170626115Y-91495619D01*
X170673734Y-91590857D01*
X170673734Y-91733714D01*
X170626115Y-91828952D01*
X170578496Y-91876571D01*
X170483258Y-91924190D01*
X170102305Y-91924190D01*
X171578496Y-91400381D02*
X171102305Y-91400381D01*
X171054686Y-91876571D01*
X171102305Y-91828952D01*
X171197543Y-91781333D01*
X171435639Y-91781333D01*
X171530877Y-91828952D01*
X171578496Y-91876571D01*
X171626115Y-91971810D01*
X171626115Y-92209905D01*
X171578496Y-92305143D01*
X171530877Y-92352762D01*
X171435639Y-92400381D01*
X171197543Y-92400381D01*
X171102305Y-92352762D01*
X171054686Y-92305143D01*
X154157467Y-90739981D02*
X154157467Y-91454267D01*
X154109847Y-91597124D01*
X154014609Y-91692362D01*
X153871752Y-91739981D01*
X153776514Y-91739981D01*
X154633657Y-91739981D02*
X154633657Y-90739981D01*
X155014610Y-90739981D01*
X155109848Y-90787600D01*
X155157467Y-90835219D01*
X155205086Y-90930457D01*
X155205086Y-91073314D01*
X155157467Y-91168552D01*
X155109848Y-91216171D01*
X155014610Y-91263790D01*
X154633657Y-91263790D01*
X155538419Y-90739981D02*
X156157467Y-90739981D01*
X155824133Y-91120933D01*
X155966991Y-91120933D01*
X156062229Y-91168552D01*
X156109848Y-91216171D01*
X156157467Y-91311410D01*
X156157467Y-91549505D01*
X156109848Y-91644743D01*
X156062229Y-91692362D01*
X155966991Y-91739981D01*
X155681276Y-91739981D01*
X155586038Y-91692362D01*
X155538419Y-91644743D01*
X180776667Y-130897381D02*
X180776667Y-131611667D01*
X180729047Y-131754524D01*
X180633809Y-131849762D01*
X180490952Y-131897381D01*
X180395714Y-131897381D01*
X181252857Y-131897381D02*
X181252857Y-130897381D01*
X181633810Y-130897381D01*
X181729048Y-130945000D01*
X181776667Y-130992619D01*
X181824286Y-131087857D01*
X181824286Y-131230714D01*
X181776667Y-131325952D01*
X181729048Y-131373571D01*
X181633810Y-131421190D01*
X181252857Y-131421190D01*
X182729048Y-130897381D02*
X182252857Y-130897381D01*
X182205238Y-131373571D01*
X182252857Y-131325952D01*
X182348095Y-131278333D01*
X182586191Y-131278333D01*
X182681429Y-131325952D01*
X182729048Y-131373571D01*
X182776667Y-131468810D01*
X182776667Y-131706905D01*
X182729048Y-131802143D01*
X182681429Y-131849762D01*
X182586191Y-131897381D01*
X182348095Y-131897381D01*
X182252857Y-131849762D01*
X182205238Y-131802143D01*
X155376667Y-134707381D02*
X155376667Y-135421667D01*
X155329047Y-135564524D01*
X155233809Y-135659762D01*
X155090952Y-135707381D01*
X154995714Y-135707381D01*
X155852857Y-135707381D02*
X155852857Y-134707381D01*
X156233810Y-134707381D01*
X156329048Y-134755000D01*
X156376667Y-134802619D01*
X156424286Y-134897857D01*
X156424286Y-135040714D01*
X156376667Y-135135952D01*
X156329048Y-135183571D01*
X156233810Y-135231190D01*
X155852857Y-135231190D01*
X157281429Y-134707381D02*
X157090952Y-134707381D01*
X156995714Y-134755000D01*
X156948095Y-134802619D01*
X156852857Y-134945476D01*
X156805238Y-135135952D01*
X156805238Y-135516905D01*
X156852857Y-135612143D01*
X156900476Y-135659762D01*
X156995714Y-135707381D01*
X157186191Y-135707381D01*
X157281429Y-135659762D01*
X157329048Y-135612143D01*
X157376667Y-135516905D01*
X157376667Y-135278810D01*
X157329048Y-135183571D01*
X157281429Y-135135952D01*
X157186191Y-135088333D01*
X156995714Y-135088333D01*
X156900476Y-135135952D01*
X156852857Y-135183571D01*
X156805238Y-135278810D01*
X162996667Y-134707381D02*
X162996667Y-135421667D01*
X162949047Y-135564524D01*
X162853809Y-135659762D01*
X162710952Y-135707381D01*
X162615714Y-135707381D01*
X163472857Y-135707381D02*
X163472857Y-134707381D01*
X163853810Y-134707381D01*
X163949048Y-134755000D01*
X163996667Y-134802619D01*
X164044286Y-134897857D01*
X164044286Y-135040714D01*
X163996667Y-135135952D01*
X163949048Y-135183571D01*
X163853810Y-135231190D01*
X163472857Y-135231190D01*
X164996667Y-135707381D02*
X164425238Y-135707381D01*
X164710952Y-135707381D02*
X164710952Y-134707381D01*
X164615714Y-134850238D01*
X164520476Y-134945476D01*
X164425238Y-134993095D01*
X180776667Y-134707381D02*
X180776667Y-135421667D01*
X180729047Y-135564524D01*
X180633809Y-135659762D01*
X180490952Y-135707381D01*
X180395714Y-135707381D01*
X181252857Y-135707381D02*
X181252857Y-134707381D01*
X181633810Y-134707381D01*
X181729048Y-134755000D01*
X181776667Y-134802619D01*
X181824286Y-134897857D01*
X181824286Y-135040714D01*
X181776667Y-135135952D01*
X181729048Y-135183571D01*
X181633810Y-135231190D01*
X181252857Y-135231190D01*
X182205238Y-134802619D02*
X182252857Y-134755000D01*
X182348095Y-134707381D01*
X182586191Y-134707381D01*
X182681429Y-134755000D01*
X182729048Y-134802619D01*
X182776667Y-134897857D01*
X182776667Y-134993095D01*
X182729048Y-135135952D01*
X182157619Y-135707381D01*
X182776667Y-135707381D01*
X181483095Y-108672381D02*
X181483095Y-109481905D01*
X181530714Y-109577143D01*
X181578333Y-109624762D01*
X181673571Y-109672381D01*
X181864048Y-109672381D01*
X181959286Y-109624762D01*
X182006905Y-109577143D01*
X182054524Y-109481905D01*
X182054524Y-108672381D01*
X182483095Y-108767619D02*
X182530714Y-108720000D01*
X182625952Y-108672381D01*
X182864048Y-108672381D01*
X182959286Y-108720000D01*
X183006905Y-108767619D01*
X183054524Y-108862857D01*
X183054524Y-108958095D01*
X183006905Y-109100952D01*
X182435476Y-109672381D01*
X183054524Y-109672381D01*
X158750095Y-97445581D02*
X158750095Y-98255105D01*
X158797714Y-98350343D01*
X158845333Y-98397962D01*
X158940571Y-98445581D01*
X159131048Y-98445581D01*
X159226286Y-98397962D01*
X159273905Y-98350343D01*
X159321524Y-98255105D01*
X159321524Y-97445581D01*
X159702476Y-97445581D02*
X160321524Y-97445581D01*
X159988190Y-97826533D01*
X160131048Y-97826533D01*
X160226286Y-97874152D01*
X160273905Y-97921771D01*
X160321524Y-98017010D01*
X160321524Y-98255105D01*
X160273905Y-98350343D01*
X160226286Y-98397962D01*
X160131048Y-98445581D01*
X159845333Y-98445581D01*
X159750095Y-98397962D01*
X159702476Y-98350343D01*
X177074534Y-120651543D02*
X177026915Y-120699162D01*
X176884058Y-120746781D01*
X176788820Y-120746781D01*
X176645962Y-120699162D01*
X176550724Y-120603924D01*
X176503105Y-120508686D01*
X176455486Y-120318210D01*
X176455486Y-120175352D01*
X176503105Y-119984876D01*
X176550724Y-119889638D01*
X176645962Y-119794400D01*
X176788820Y-119746781D01*
X176884058Y-119746781D01*
X177026915Y-119794400D01*
X177074534Y-119842019D01*
X177407867Y-119746781D02*
X178026915Y-119746781D01*
X177693581Y-120127733D01*
X177836439Y-120127733D01*
X177931677Y-120175352D01*
X177979296Y-120222971D01*
X178026915Y-120318210D01*
X178026915Y-120556305D01*
X177979296Y-120651543D01*
X177931677Y-120699162D01*
X177836439Y-120746781D01*
X177550724Y-120746781D01*
X177455486Y-120699162D01*
X177407867Y-120651543D01*
X161340895Y-122540781D02*
X161340895Y-123350305D01*
X161388514Y-123445543D01*
X161436133Y-123493162D01*
X161531371Y-123540781D01*
X161721848Y-123540781D01*
X161817086Y-123493162D01*
X161864705Y-123445543D01*
X161912324Y-123350305D01*
X161912324Y-122540781D01*
X162912324Y-123540781D02*
X162340895Y-123540781D01*
X162626609Y-123540781D02*
X162626609Y-122540781D01*
X162531371Y-122683638D01*
X162436133Y-122778876D01*
X162340895Y-122826495D01*
D14*
X184637467Y-90841581D02*
X184637467Y-91555867D01*
X184589847Y-91698724D01*
X184494609Y-91793962D01*
X184351752Y-91841581D01*
X184256514Y-91841581D01*
X185113657Y-91841581D02*
X185113657Y-90841581D01*
X185494610Y-90841581D01*
X185589848Y-90889200D01*
X185637467Y-90936819D01*
X185685086Y-91032057D01*
X185685086Y-91174914D01*
X185637467Y-91270152D01*
X185589848Y-91317771D01*
X185494610Y-91365390D01*
X185113657Y-91365390D01*
X186542229Y-91174914D02*
X186542229Y-91841581D01*
X186304133Y-90793962D02*
X186066038Y-91508248D01*
X186685086Y-91508248D01*
X136326667Y-122007381D02*
X136326667Y-122721667D01*
X136279047Y-122864524D01*
X136183809Y-122959762D01*
X136040952Y-123007381D01*
X135945714Y-123007381D01*
X136802857Y-123007381D02*
X136802857Y-122007381D01*
X137183810Y-122007381D01*
X137279048Y-122055000D01*
X137326667Y-122102619D01*
X137374286Y-122197857D01*
X137374286Y-122340714D01*
X137326667Y-122435952D01*
X137279048Y-122483571D01*
X137183810Y-122531190D01*
X136802857Y-122531190D01*
X137707619Y-122007381D02*
X138374286Y-122007381D01*
X137945714Y-123007381D01*
D12*
X159424762Y-112212381D02*
X159091428Y-111736190D01*
X158853333Y-112212381D02*
X158853333Y-111212381D01*
X159234286Y-111212381D01*
X159329524Y-111260000D01*
X159377143Y-111307619D01*
X159424762Y-111402857D01*
X159424762Y-111545714D01*
X159377143Y-111640952D01*
X159329524Y-111688571D01*
X159234286Y-111736190D01*
X158853333Y-111736190D01*
X159710476Y-111212381D02*
X160043809Y-112212381D01*
X160377143Y-111212381D01*
X161234286Y-112212381D02*
X160662857Y-112212381D01*
X160948571Y-112212381D02*
X160948571Y-111212381D01*
X160853333Y-111355238D01*
X160758095Y-111450476D01*
X160662857Y-111498095D01*
X181483095Y-115022381D02*
X181483095Y-115831905D01*
X181530714Y-115927143D01*
X181578333Y-115974762D01*
X181673571Y-116022381D01*
X181864048Y-116022381D01*
X181959286Y-115974762D01*
X182006905Y-115927143D01*
X182054524Y-115831905D01*
X182054524Y-115022381D01*
X182959286Y-115355714D02*
X182959286Y-116022381D01*
X182721190Y-114974762D02*
X182483095Y-115689048D01*
X183102143Y-115689048D01*
X144232381Y-106171905D02*
X145041905Y-106171905D01*
X145137143Y-106124286D01*
X145184762Y-106076667D01*
X145232381Y-105981429D01*
X145232381Y-105790952D01*
X145184762Y-105695714D01*
X145137143Y-105648095D01*
X145041905Y-105600476D01*
X144232381Y-105600476D01*
X144232381Y-104695714D02*
X144232381Y-104886191D01*
X144280000Y-104981429D01*
X144327619Y-105029048D01*
X144470476Y-105124286D01*
X144660952Y-105171905D01*
X145041905Y-105171905D01*
X145137143Y-105124286D01*
X145184762Y-105076667D01*
X145232381Y-104981429D01*
X145232381Y-104790952D01*
X145184762Y-104695714D01*
X145137143Y-104648095D01*
X145041905Y-104600476D01*
X144803810Y-104600476D01*
X144708571Y-104648095D01*
X144660952Y-104695714D01*
X144613333Y-104790952D01*
X144613333Y-104981429D01*
X144660952Y-105076667D01*
X144708571Y-105124286D01*
X144803810Y-105171905D01*
M02*
