G04 #@! TF.FileFunction,Soldermask,Top*
%FSLAX46Y46*%
G04 Gerber Fmt 4.6, Leading zero omitted, Abs format (unit mm)*
G04 Created by KiCad (PCBNEW (2014-12-28 BZR 5260)-product) date Monday, January 05, 2015 'AMt' 10:18:13 AM*
%MOMM*%
G01*
G04 APERTURE LIST*
%ADD10C,0.152400*%
%ADD11R,1.750000X0.700000*%
%ADD12R,1.500000X1.500000*%
%ADD13R,1.500000X0.800000*%
%ADD14R,1.400000X0.800000*%
%ADD15R,1.550000X1.000000*%
%ADD16R,1.000000X1.450000*%
%ADD17C,1.270000*%
%ADD18R,2.800000X1.600000*%
%ADD19R,0.800000X0.750000*%
%ADD20R,0.750000X0.800000*%
%ADD21R,0.900000X0.500000*%
%ADD22R,0.500000X0.900000*%
%ADD23R,1.727200X2.032000*%
%ADD24O,1.727200X2.032000*%
%ADD25R,2.032000X2.032000*%
%ADD26O,2.032000X2.032000*%
%ADD27R,1.600000X0.600000*%
%ADD28R,0.500000X1.500000*%
%ADD29R,0.480000X1.400000*%
%ADD30R,0.560000X1.550000*%
%ADD31R,1.200000X1.800000*%
%ADD32R,2.032000X1.727200*%
%ADD33O,2.032000X1.727200*%
%ADD34R,0.600000X2.000000*%
%ADD35R,0.700000X4.200000*%
%ADD36R,1.500000X1.600000*%
%ADD37R,1.200000X1.200000*%
%ADD38R,1.970000X0.570000*%
%ADD39R,2.050000X0.590000*%
G04 APERTURE END LIST*
D10*
D11*
X134913500Y-97196500D03*
X134913500Y-96096500D03*
X134913500Y-94996500D03*
X134913500Y-93896500D03*
X134913500Y-92796500D03*
X134913500Y-91696500D03*
X134913500Y-90596500D03*
X134913500Y-89496500D03*
D12*
X135013500Y-88196500D03*
X135013500Y-99646500D03*
D13*
X142693500Y-87846500D03*
D14*
X143263500Y-99996500D03*
D15*
X145663500Y-99646500D03*
D16*
X144163500Y-88146500D03*
D17*
X185420000Y-124777500D03*
X187960000Y-124777500D03*
X185420000Y-122237500D03*
X187960000Y-122237500D03*
X185420000Y-119697500D03*
X187960000Y-119697500D03*
X185420000Y-117157500D03*
X187960000Y-117157500D03*
X185420000Y-114617500D03*
X187960000Y-114617500D03*
X185420000Y-112077500D03*
X187960000Y-112077500D03*
X185420000Y-109537500D03*
X187960000Y-109537500D03*
X185420000Y-106997500D03*
X187960000Y-106997500D03*
D18*
X182186000Y-126846000D03*
X177886000Y-126846000D03*
X173702400Y-126744400D03*
X169402400Y-126744400D03*
X155973200Y-126033200D03*
X151673200Y-126033200D03*
D19*
X173266800Y-121716800D03*
X171766800Y-121716800D03*
X180453600Y-121716800D03*
X181953600Y-121716800D03*
X162724400Y-119837200D03*
X164224400Y-119837200D03*
D20*
X169418000Y-118058500D03*
X169418000Y-119558500D03*
X169418000Y-105041000D03*
X169418000Y-106541000D03*
D21*
X142240000Y-126480000D03*
X142240000Y-124980000D03*
X146685000Y-126480000D03*
X146685000Y-124980000D03*
X169418000Y-110478000D03*
X169418000Y-108978000D03*
X169468800Y-113983200D03*
X169468800Y-112483200D03*
D22*
X168961500Y-91948000D03*
X167461500Y-91948000D03*
D23*
X154686000Y-88900000D03*
D24*
X157226000Y-88900000D03*
X159766000Y-88900000D03*
X162306000Y-88900000D03*
X164846000Y-88900000D03*
X167386000Y-88900000D03*
X169926000Y-88900000D03*
X172466000Y-88900000D03*
D23*
X181610000Y-133350000D03*
D24*
X184150000Y-133350000D03*
X186690000Y-133350000D03*
X189230000Y-133350000D03*
D25*
X156210000Y-137160000D03*
D26*
X158750000Y-137160000D03*
D23*
X163830000Y-137160000D03*
D24*
X166370000Y-137160000D03*
X168910000Y-137160000D03*
X171450000Y-137160000D03*
X173990000Y-137160000D03*
X176530000Y-137160000D03*
D23*
X181610000Y-137223500D03*
D24*
X184150000Y-137223500D03*
X186690000Y-137223500D03*
X189230000Y-137223500D03*
X191770000Y-137223500D03*
X194310000Y-137223500D03*
D27*
X174147500Y-110714000D03*
X179547500Y-110714000D03*
X174147500Y-109464000D03*
X174147500Y-108214000D03*
X174147500Y-106964000D03*
X179547500Y-109464000D03*
X179547500Y-108214000D03*
X179547500Y-106964000D03*
D28*
X169916000Y-94629000D03*
X168646000Y-94629000D03*
X167376000Y-94629000D03*
X166106000Y-94629000D03*
X164836000Y-94629000D03*
X163566000Y-94629000D03*
X162296000Y-94629000D03*
X162296000Y-101379000D03*
X163566000Y-101379000D03*
X164836000Y-101379000D03*
X166106000Y-101379000D03*
X167376000Y-101379000D03*
X168646000Y-101379000D03*
X169916000Y-101379000D03*
D19*
X176440400Y-121716800D03*
X177940400Y-121716800D03*
D29*
X160601660Y-127784860D03*
D30*
X162102800Y-127733200D03*
D29*
X163603940Y-127784860D03*
D31*
X162102800Y-125633200D03*
D10*
G36*
X162652800Y-126483200D02*
X162352800Y-126983200D01*
X161852800Y-126983200D01*
X161552800Y-126483200D01*
X162652800Y-126483200D01*
X162652800Y-126483200D01*
G37*
G36*
X161552800Y-124783200D02*
X161852800Y-124283200D01*
X162352800Y-124283200D01*
X162652800Y-124783200D01*
X161552800Y-124783200D01*
X161552800Y-124783200D01*
G37*
D23*
X176530000Y-88900000D03*
D24*
X179070000Y-88900000D03*
X181610000Y-88900000D03*
X184150000Y-88900000D03*
X186690000Y-88900000D03*
X189230000Y-88900000D03*
X191770000Y-88900000D03*
X194310000Y-88900000D03*
D32*
X137160000Y-137160000D03*
D33*
X137160000Y-134620000D03*
X137160000Y-132080000D03*
X137160000Y-129540000D03*
X137160000Y-127000000D03*
X137160000Y-124460000D03*
D34*
X145550000Y-132350000D03*
X144550000Y-132350000D03*
X146550000Y-132350000D03*
X147550000Y-132350000D03*
D35*
X143550000Y-134350000D03*
X148550000Y-134350000D03*
D36*
X161470000Y-115570000D03*
D37*
X158020000Y-114370000D03*
X158020000Y-116770000D03*
D38*
X179005000Y-113665000D03*
X179005000Y-114935000D03*
X179005000Y-116205000D03*
X179005000Y-117475000D03*
X174055000Y-113665000D03*
X174055000Y-114935000D03*
X174055000Y-116205000D03*
X174055000Y-117475000D03*
D39*
X149733000Y-117221000D03*
X149733000Y-115951000D03*
X149733000Y-114681000D03*
X149733000Y-113411000D03*
X149733000Y-112141000D03*
X149733000Y-110871000D03*
X149733000Y-109601000D03*
X149733000Y-108331000D03*
X140423000Y-108331000D03*
X140423000Y-109601000D03*
X140423000Y-110871000D03*
X140423000Y-112141000D03*
X140423000Y-113411000D03*
X140423000Y-114681000D03*
X140423000Y-115951000D03*
X140423000Y-117221000D03*
M02*
